  0
SECTION
  2
HEADER
  9
$ACADVER
  1
AC1009
  9
$EXTMAX
 10
35.0
 20
54.0
 30
0.0
  9
$EXTMIN
 10
-35.0
 20
-43.0
 30
0.0
  9
$INSUNITS
 70
     4
  9
$LUNITS
 70
     2
  9
$LUPREC
 70
     4
  9
$MEASUREMENT
 70
     1
  0
ENDSEC
  0
SECTION
  2
TABLES
  0
TABLE
  2
LAYER
 70
     1
  0
LAYER
  2
0
 70
     0
 62
     7
  6
Continuous
  0
LAYER
  2
Base
 70
     0
 62
    70
  6
Continuous
  0
ENDTAB
  0
TABLE
  2
APPID
 70
     1
  0
APPID
  2
ACAD
 70
     0
  0
ENDTAB
  0
ENDSEC
  0
SECTION
  2
ENTITIES
  0
POLYLINE
  8
Base
 66
     1
 10
0.0
 20
0.0
 30
0.0
 70
     1
  0
VERTEX
  8
Base
 10
10.7499738887577
 20
-24.9763063637499
 42
0.5766158157773
  0
VERTEX
  8
Base
 10
-5.3750000000439
 20
-15.6902270000095
 42
1.7320508033452
  0
VERTEX
  8
Base
 10
10.7499999999801
 20
-25.0
 42
0.0005510152975
  0
SEQEND
  0
POLYLINE
  8
Base
 66
     1
 10
0.0
 20
0.0
 30
0.0
 70
     1
  0
VERTEX
  8
Base
 10
10.7499738877269
 20
25.0236941039228
 42
0.576615801285
  0
VERTEX
  8
Base
 10
-5.3750000000439
 20
34.3097729999905
 42
1.7320508033452
  0
VERTEX
  8
Base
 10
10.7500000000027
 20
25.0
 42
0.0005510261735
  0
SEQEND
  0
POLYLINE
  8
Base
 66
     1
 10
0.0
 20
0.0
 30
0.0
 70
     1
  0
VERTEX
  8
Base
 10
-23.0
 20
20.0
 42
0.0
  0
VERTEX
  8
Base
 10
-22.99999999998
 20
-19.9999999988874
 42
-0.3204650438762
  0
VERTEX
  8
Base
 10
-25.7027030000085
 20
-23.7837840000135
 42
0.3204650489582
  0
VERTEX
  8
Base
 10
-28.0
 20
-27.0
 42
0.0
  0
VERTEX
  8
Base
 10
-27.99999999997
 20
-28.0000020012173
 42
0.2818919558675
  0
VERTEX
  8
Base
 10
-23.635547
 20
-35.126206
 42
0.0
  0
VERTEX
  8
Base
 10
-9.2722019999685
 20
-42.453887000065
 42
0.118485507089
  0
VERTEX
  8
Base
 10
-7.0
 20
-43.0
 42
0.0
  0
VERTEX
  8
Base
 10
6.9999750000006
 20
-43.0000000000371
 42
0.1184860305601
  0
VERTEX
  8
Base
 10
9.27219
 20
-42.453879
 42
0.0
  0
VERTEX
  8
Base
 10
23.6355400000211
 20
-35.1262080000239
 42
0.2818922212334
  0
VERTEX
  8
Base
 10
28.0
 20
-28.0
 42
0.0
  0
VERTEX
  8
Base
 10
27.99999999997
 20
-26.9999990122794
 42
0.3204650043786
  0
VERTEX
  8
Base
 10
25.7027030000078
 20
-23.7837829999995
 42
-0.3204650089319
  0
VERTEX
  8
Base
 10
23.0
 20
-20.0
 42
0.0
  0
VERTEX
  8
Base
 10
23.00000000002
 20
20.0000000057307
 42
-0.4142136431026
  0
VERTEX
  8
Base
 10
26.0000009999564
 20
22.9999999999702
 42
0.1989123859444
  0
VERTEX
  8
Base
 10
32.242636
 20
25.585783
 42
0.0
  0
VERTEX
  8
Base
 10
33.8284259999582
 20
27.1715720000415
 42
0.1989124331787
  0
VERTEX
  8
Base
 10
35.0
 20
30.0
 42
0.0
  0
VERTEX
  8
Base
 10
35.0000000000099
 20
31.5000000002018
 42
0.198912293532
  0
VERTEX
  8
Base
 10
33.838835
 20
34.3033
 42
0.0
  0
VERTEX
  8
Base
 10
17.0710699999907
 20
51.0710670000029
 42
0.1989123532157
  0
VERTEX
  8
Base
 10
10.0
 20
54.0
 42
0.0
  0
VERTEX
  8
Base
 10
-10.0000000000194
 20
53.99999999998
 42
0.1989123728623
  0
VERTEX
  8
Base
 10
-17.071068
 20
51.071068
 42
0.0
  0
VERTEX
  8
Base
 10
-33.8388349999928
 20
34.3033000000469
 42
0.1989122815547
  0
VERTEX
  8
Base
 10
-35.0
 20
31.5
 42
0.0
  0
VERTEX
  8
Base
 10
-34.9999999999898
 20
30.0000000008797
 42
0.1989123138281
  0
VERTEX
  8
Base
 10
-33.828427
 20
27.171574
 42
0.0
  0
VERTEX
  8
Base
 10
-32.2426380000526
 20
25.585784000071
 42
0.1989124537784
  0
VERTEX
  8
Base
 10
-25.9999999999546
 20
23.00000000004
 42
-0.4142135724445
  0
SEQEND
  0
POLYLINE
  8
Base
 66
     1
 10
0.0
 20
0.0
 30
0.0
 70
     1
  0
VERTEX
  8
Base
 10
-19.5
 20
43.29
 42
1.0
  0
VERTEX
  8
Base
 10
-20.21
 20
44.0
 42
0.0
  0
VERTEX
  8
Base
 10
-20.29
 20
44.0
 42
1.0
  0
VERTEX
  8
Base
 10
-21.0
 20
43.29
 42
0.0
  0
VERTEX
  8
Base
 10
-21.0
 20
41.71
 42
1.0
  0
VERTEX
  8
Base
 10
-20.29
 20
41.0
 42
0.0
  0
VERTEX
  8
Base
 10
-20.21
 20
41.0
 42
1.0
  0
VERTEX
  8
Base
 10
-19.5
 20
41.71
 42
0.0
  0
SEQEND
  0
POLYLINE
  8
Base
 66
     1
 10
0.0
 20
0.0
 30
0.0
 70
     1
  0
VERTEX
  8
Base
 10
-19.5
 20
-7.21
 42
1.0
  0
VERTEX
  8
Base
 10
-20.21
 20
-6.5
 42
0.0
  0
VERTEX
  8
Base
 10
-20.29
 20
-6.5
 42
1.0
  0
VERTEX
  8
Base
 10
-21.0
 20
-7.21
 42
0.0
  0
VERTEX
  8
Base
 10
-21.0
 20
-8.79
 42
1.0
  0
VERTEX
  8
Base
 10
-20.29
 20
-9.5
 42
0.0
  0
VERTEX
  8
Base
 10
-20.21
 20
-9.5
 42
1.0
  0
VERTEX
  8
Base
 10
-19.5
 20
-8.79
 42
0.0
  0
SEQEND
  0
POLYLINE
  8
Base
 66
     1
 10
0.0
 20
0.0
 30
0.0
 70
     1
  0
VERTEX
  8
Base
 10
-19.5
 20
-31.21
 42
1.0
  0
VERTEX
  8
Base
 10
-20.21
 20
-30.5
 42
0.0
  0
VERTEX
  8
Base
 10
-20.29
 20
-30.5
 42
1.0
  0
VERTEX
  8
Base
 10
-21.0
 20
-31.21
 42
0.0
  0
VERTEX
  8
Base
 10
-21.0
 20
-32.79
 42
1.0
  0
VERTEX
  8
Base
 10
-20.29
 20
-33.5
 42
0.0
  0
VERTEX
  8
Base
 10
-20.21
 20
-33.5
 42
1.0
  0
VERTEX
  8
Base
 10
-19.5
 20
-32.79
 42
0.0
  0
SEQEND
  0
POLYLINE
  8
Base
 66
     1
 10
0.0
 20
0.0
 30
0.0
 70
     1
  0
VERTEX
  8
Base
 10
19.5
 20
43.29
 42
-1.0
  0
VERTEX
  8
Base
 10
20.21
 20
44.0
 42
0.0
  0
VERTEX
  8
Base
 10
20.29
 20
44.0
 42
-1.0
  0
VERTEX
  8
Base
 10
21.0
 20
43.29
 42
0.0
  0
VERTEX
  8
Base
 10
21.0
 20
41.71
 42
-1.0
  0
VERTEX
  8
Base
 10
20.29
 20
41.0
 42
0.0
  0
VERTEX
  8
Base
 10
20.21
 20
41.0
 42
-1.0
  0
VERTEX
  8
Base
 10
19.5
 20
41.71
 42
0.0
  0
SEQEND
  0
POLYLINE
  8
Base
 66
     1
 10
0.0
 20
0.0
 30
0.0
 70
     1
  0
VERTEX
  8
Base
 10
19.5
 20
-31.21
 42
-1.0
  0
VERTEX
  8
Base
 10
20.21
 20
-30.5
 42
0.0
  0
VERTEX
  8
Base
 10
20.29
 20
-30.5
 42
-1.0
  0
VERTEX
  8
Base
 10
21.0
 20
-31.21
 42
0.0
  0
VERTEX
  8
Base
 10
21.0
 20
-32.79
 42
-1.0
  0
VERTEX
  8
Base
 10
20.29
 20
-33.5
 42
0.0
  0
VERTEX
  8
Base
 10
20.21
 20
-33.5
 42
-1.0
  0
VERTEX
  8
Base
 10
19.5
 20
-32.79
 42
0.0
  0
SEQEND
  0
POLYLINE
  8
Base
 66
     1
 10
0.0
 20
0.0
 30
0.0
 70
     1
  0
VERTEX
  8
Base
 10
-19.5
 20
7.21
 42
-1.0
  0
VERTEX
  8
Base
 10
-20.21
 20
6.5
 42
0.0
  0
VERTEX
  8
Base
 10
-20.29
 20
6.5
 42
-1.0
  0
VERTEX
  8
Base
 10
-21.0
 20
7.21
 42
0.0
  0
VERTEX
  8
Base
 10
-21.0
 20
8.79
 42
-1.0
  0
VERTEX
  8
Base
 10
-20.29
 20
9.5
 42
0.0
  0
VERTEX
  8
Base
 10
-20.21
 20
9.5
 42
-1.0
  0
VERTEX
  8
Base
 10
-19.5
 20
8.79
 42
0.0
  0
SEQEND
  0
POLYLINE
  8
Base
 66
     1
 10
0.0
 20
0.0
 30
0.0
 70
     1
  0
VERTEX
  8
Base
 10
19.5
 20
-7.21
 42
-1.0
  0
VERTEX
  8
Base
 10
20.21
 20
-6.5
 42
0.0
  0
VERTEX
  8
Base
 10
20.29
 20
-6.5
 42
-1.0
  0
VERTEX
  8
Base
 10
21.0
 20
-7.21
 42
0.0
  0
VERTEX
  8
Base
 10
21.0
 20
-8.79
 42
-1.0
  0
VERTEX
  8
Base
 10
20.29
 20
-9.5
 42
0.0
  0
VERTEX
  8
Base
 10
20.21
 20
-9.5
 42
-1.0
  0
VERTEX
  8
Base
 10
19.5
 20
-8.79
 42
0.0
  0
SEQEND
  0
POLYLINE
  8
Base
 66
     1
 10
0.0
 20
0.0
 30
0.0
 70
     1
  0
VERTEX
  8
Base
 10
19.5
 20
7.21
 42
1.0
  0
VERTEX
  8
Base
 10
20.21
 20
6.5
 42
0.0
  0
VERTEX
  8
Base
 10
20.29
 20
6.5
 42
1.0
  0
VERTEX
  8
Base
 10
21.0
 20
7.21
 42
0.0
  0
VERTEX
  8
Base
 10
21.0
 20
8.79
 42
1.0
  0
VERTEX
  8
Base
 10
20.29
 20
9.5
 42
0.0
  0
VERTEX
  8
Base
 10
20.21
 20
9.5
 42
1.0
  0
VERTEX
  8
Base
 10
19.5
 20
8.79
 42
0.0
  0
SEQEND
  0
POLYLINE
  8
Base
 66
     1
 10
0.0
 20
0.0
 30
0.0
 70
     1
  0
VERTEX
  8
Base
 10
4.4
 20
-2.7
 42
0.0
  0
VERTEX
  8
Base
 10
2.4
 20
-2.7
 42
0.0
  0
VERTEX
  8
Base
 10
2.4
 20
2.7
 42
0.0
  0
VERTEX
  8
Base
 10
4.4
 20
2.7
 42
0.0
  0
VERTEX
  8
Base
 10
4.9
 20
4.0
 42
0.0
  0
VERTEX
  8
Base
 10
19.4
 20
4.0
 42
0.0
  0
VERTEX
  8
Base
 10
19.4
 20
-4.0
 42
0.0
  0
VERTEX
  8
Base
 10
4.9
 20
-4.0
 42
0.0
  0
SEQEND
  0
POLYLINE
  8
Base
 66
     1
 10
0.0
 20
0.0
 30
0.0
 70
     1
  0
VERTEX
  8
Base
 10
-4.4
 20
-2.7
 42
0.0
  0
VERTEX
  8
Base
 10
-4.9
 20
-4.0
 42
0.0
  0
VERTEX
  8
Base
 10
-19.4
 20
-4.0
 42
0.0
  0
VERTEX
  8
Base
 10
-19.4
 20
4.0
 42
0.0
  0
VERTEX
  8
Base
 10
-4.9
 20
4.0
 42
0.0
  0
VERTEX
  8
Base
 10
-4.4
 20
2.7
 42
0.0
  0
VERTEX
  8
Base
 10
-2.4
 20
2.7
 42
0.0
  0
VERTEX
  8
Base
 10
-2.4
 20
-2.7
 42
0.0
  0
SEQEND
  0
POLYLINE
  8
Base
 66
     1
 10
0.0
 20
0.0
 30
0.0
 70
     1
  0
VERTEX
  8
Base
 10
12.7007825947166
 20
47.4574986633415
 42
0.0
  0
VERTEX
  8
Base
 10
9.2984762428796
 20
50.5644788594213
 42
0.0541679892631
  0
VERTEX
  8
Base
 10
8.5750000012668
 20
51.094005424974
 42
0.1316525033001
  0
VERTEX
  8
Base
 10
6.4999999988839
 20
51.65
 42
0.0
  0
VERTEX
  8
Base
 10
0.0
 20
51.65
 42
0.0
  0
VERTEX
  8
Base
 10
-6.5
 20
51.65
 42
0.1316525033001
  0
VERTEX
  8
Base
 10
-8.5750000014649
 20
51.0940054248596
 42
0.0541679892631
  0
VERTEX
  8
Base
 10
-9.2984762365428
 20
50.5644788652081
 42
0.0
  0
VERTEX
  8
Base
 10
-12.7007823324743
 20
47.4574989028207
 42
0.1481996083423
  0
VERTEX
  8
Base
 10
-13.8882045555024
 20
45.4606717973174
 42
0.3340050323554
  0
VERTEX
  8
Base
 10
-12.0025624189767
 20
41.0314601450044
 42
0.2351337806802
  0
VERTEX
  8
Base
 10
-8.4397553375865
 20
40.8112791429818
 42
0.0
  0
VERTEX
  8
Base
 10
-6.9536820454598
 20
41.4398541967662
 42
-0.1003740638834
  0
VERTEX
  8
Base
 10
0.0
 20
42.8500000000079
 42
-0.1003740638834
  0
VERTEX
  8
Base
 10
6.9536820488504
 20
41.4398541953321
 42
0.0
  0
VERTEX
  8
Base
 10
8.4397553438082
 20
40.8112791403502
 42
0.2351337806802
  0
VERTEX
  8
Base
 10
12.002562424827
 20
41.0314601483821
 42
0.3340050323554
  0
VERTEX
  8
Base
 10
13.8882045555024
 20
45.4606717973174
 42
0.1481996083423
  0
SEQEND
  0
POLYLINE
  8
Base
 66
     1
 10
0.0
 20
0.0
 30
0.0
 70
     1
  0
VERTEX
  8
Base
 10
-31.4589142153
 20
29.2160365255
 42
1.0
  0
VERTEX
  8
Base
 10
-31.3543857520323
 20
28.2215146301317
 42
0.0
  0
VERTEX
  8
Base
 10
-28.3708200659275
 20
28.5351000199347
 42
1.0
  0
VERTEX
  8
Base
 10
-28.4753485291952
 20
29.529621915303
 42
0.0
  0
SEQEND
  0
POLYLINE
  8
Base
 66
     1
 10
0.0
 20
0.0
 30
0.0
 70
     1
  0
VERTEX
  8
Base
 10
31.4589142153
 20
29.2160365255
 42
-1.0
  0
VERTEX
  8
Base
 10
31.3543857520323
 20
28.2215146301317
 42
0.0
  0
VERTEX
  8
Base
 10
28.3708200659275
 20
28.5351000199347
 42
-1.0
  0
VERTEX
  8
Base
 10
28.4753485291952
 20
29.529621915303
 42
0.0
  0
SEQEND
  0
ENDSEC
  0
EOF
