  0
SECTION
  2
HEADER
  9
$ACADVER
  1
AC1009
  9
$INSBASE
 10
0.0
 20
0.0
 30
0.0
  9
$EXTMIN
 10
0.0
 20
0.0
 30
0.0
  9
$EXTMAX
 10
0.0
 20
0.0
 30
0.0
  0
ENDSEC
  0
SECTION
  2
TABLES
  0
TABLE
  2
VPORT
 70
0
  0
ENDTAB
  0
TABLE
  2
LTYPE
 70
1
  0
LTYPE
  2
CONTINUOUS
 70
0
  3
Solid line
 72
65
 73
0
 40
0.0
  0
ENDTAB
  0
TABLE
  2
LAYER
 70
1
  0
LAYER
  2
0
 70
64
 62
7
  6
continuous
  0
ENDTAB
  0
TABLE
  2
STYLE
 70
1
  0
STYLE
  2
STANDARD
 70
0
 40
0
 41
1.0
 50
0.0
 71
0
 42
1
 3
ARIAL.TTF
 4

  0
ENDTAB
  0
TABLE
  2
VIEW
 70
0
  0
ENDTAB
  0
ENDSEC
  0
SECTION
  2
BLOCKS
  0
BLOCK
  8
Capteurs-PCB6
  2
PART__MIRRORING012
 70
0
 10
0.0
 20
0.0
 30
0.0
  3
PART__MIRRORING012
  0
POLYLINE
  8
Capteurs-PCB6
 62
0
 70
0
 66
1
 10
0.0
 20
0.0
 30
0.0
  0
VERTEX
  8
Capteurs-PCB6
 10
-30.5264164385
 20
28.3085377116
 30
0.0
  0
VERTEX
  8
Capteurs-PCB6
 10
-30.5761425333
 20
28.3033112885
 30
0.0
  0
VERTEX
  8
Capteurs-PCB6
 10
-30.625868628
 20
28.2980848653
 30
0.0
  0
VERTEX
  8
Capteurs-PCB6
 10
-30.6755947228
 20
28.2928584421
 30
0.0
  0
VERTEX
  8
Capteurs-PCB6
 10
-30.7253208176
 20
28.287632019
 30
0.0
  0
VERTEX
  8
Capteurs-PCB6
 10
-30.7750469123
 20
28.2824055958
 30
0.0
  0
VERTEX
  8
Capteurs-PCB6
 10
-30.8247730071
 20
28.2771791726
 30
0.0
  0
VERTEX
  8
Capteurs-PCB6
 10
-30.8744991019
 20
28.2719527495
 30
0.0
  0
VERTEX
  8
Capteurs-PCB6
 10
-30.9242251966
 20
28.2667263263
 30
0.0
  0
VERTEX
  8
Capteurs-PCB6
 10
-30.9739512914
 20
28.2614999032
 30
0.0
  0
VERTEX
  8
Capteurs-PCB6
 10
-31.0236773862
 20
28.25627348
 30
0.0
  0
VERTEX
  8
Capteurs-PCB6
 10
-31.0734034809
 20
28.2510470568
 30
0.0
  0
VERTEX
  8
Capteurs-PCB6
 10
-31.1231295757
 20
28.2458206337
 30
0.0
  0
SEQEND
  8
Capteurs-PCB6
  0
POLYLINE
  8
Capteurs-PCB6
 62
0
 70
0
 66
1
 10
0.0
 20
0.0
 30
0.0
  0
VERTEX
  8
Capteurs-PCB6
 10
-30.6309449018
 20
29.303059607
 30
0.0
  0
VERTEX
  8
Capteurs-PCB6
 10
-30.6806709965
 20
29.2978331838
 30
0.0
  0
VERTEX
  8
Capteurs-PCB6
 10
-30.7303970913
 20
29.2926067607
 30
0.0
  0
VERTEX
  8
Capteurs-PCB6
 10
-30.7801231861
 20
29.2873803375
 30
0.0
  0
VERTEX
  8
Capteurs-PCB6
 10
-30.8298492808
 20
29.2821539143
 30
0.0
  0
VERTEX
  8
Capteurs-PCB6
 10
-30.8795753756
 20
29.2769274912
 30
0.0
  0
VERTEX
  8
Capteurs-PCB6
 10
-30.9293014704
 20
29.271701068
 30
0.0
  0
VERTEX
  8
Capteurs-PCB6
 10
-30.9790275651
 20
29.2664746449
 30
0.0
  0
VERTEX
  8
Capteurs-PCB6
 10
-31.0287536599
 20
29.2612482217
 30
0.0
  0
VERTEX
  8
Capteurs-PCB6
 10
-31.0784797547
 20
29.2560217985
 30
0.0
  0
VERTEX
  8
Capteurs-PCB6
 10
-31.1282058494
 20
29.2507953754
 30
0.0
  0
VERTEX
  8
Capteurs-PCB6
 10
-31.1779319442
 20
29.2455689522
 30
0.0
  0
VERTEX
  8
Capteurs-PCB6
 10
-31.227658039
 20
29.240342529
 30
0.0
  0
SEQEND
  8
Capteurs-PCB6
  0
LINE
  8
Capteurs-PCB6
 62
0
 10
-34.3379514381
 20
27.9079292403
 30
0.0
 11
-34.4424799014
 21
28.9024511357
 31
0.0
  0
LINE
  8
Capteurs-PCB6
 62
0
 10
-34.3379514381
 20
27.9079292403
 30
0.0
 11
-33.3434295428
 21
28.0124577036
 31
0.0
  0
LINE
  8
Capteurs-PCB6
 62
0
 10
-34.4424799014
 20
28.9024511357
 30
0.0
 11
-33.447958006
 21
29.0069795989
 31
0.0
  0
LINE
  8
Capteurs-PCB6
 62
0
 10
-33.3434295428
 20
28.0124577036
 30
0.0
 11
-33.447958006
 21
29.0069795989
 31
0.0
  0
LINE
  8
Capteurs-PCB6
 62
0
 10
-33.3434295428
 20
28.0124577036
 30
0.0
 11
-31.8516466997
 21
28.1692503985
 31
0.0
  0
LINE
  8
Capteurs-PCB6
 62
0
 10
-33.447958006
 20
29.0069795989
 30
0.0
 11
-31.956175163
 21
29.1637722938
 31
0.0
  0
LINE
  8
Capteurs-PCB6
 62
0
 10
-31.8516466997
 20
28.1692503985
 30
0.0
 11
-31.354385752
 21
28.2215146301
 31
0.0
  0
LINE
  8
Capteurs-PCB6
 62
0
 10
-31.956175163
 20
29.1637722938
 30
0.0
 11
-31.4589142153
 21
29.2160365255
 31
0.0
  0
LINE
  8
Capteurs-PCB6
 62
0
 10
-31.354385752
 20
28.2215146301
 30
0.0
 11
-31.4589142153
 21
29.2160365255
 31
0.0
  0
LINE
  8
Capteurs-PCB6
 62
0
 10
-29.3653419613
 20
28.4305715566
 30
0.0
 11
-29.4698704246
 21
29.425093452
 31
0.0
  0
LINE
  8
Capteurs-PCB6
 62
0
 10
-31.354385752
 20
28.2215146301
 30
0.0
 11
-29.3653419613
 21
28.4305715566
 31
0.0
  0
LINE
  8
Capteurs-PCB6
 62
0
 10
-31.4589142153
 20
29.2160365255
 30
0.0
 11
-29.4698704246
 21
29.425093452
 31
0.0
  0
LINE
  8
Capteurs-PCB6
 62
0
 10
-28.3708200659
 20
28.5351000199
 30
0.0
 11
-28.4753485292
 21
29.5296219153
 31
0.0
  0
LINE
  8
Capteurs-PCB6
 62
0
 10
-29.3653419613
 20
28.4305715566
 30
0.0
 11
-28.3708200659
 21
28.5351000199
 31
0.0
  0
LINE
  8
Capteurs-PCB6
 62
0
 10
-29.4698704246
 20
29.425093452
 30
0.0
 11
-28.4753485292
 21
29.5296219153
 31
0.0
  0
LINE
  8
Capteurs-PCB6
 62
0
 10
-26.8790372229
 20
28.6918927148
 30
0.0
 11
-26.9835656862
 21
29.6864146102
 31
0.0
  0
LINE
  8
Capteurs-PCB6
 62
0
 10
-28.3708200659
 20
28.5351000199
 30
0.0
 11
-26.8790372229
 21
28.6918927148
 31
0.0
  0
LINE
  8
Capteurs-PCB6
 62
0
 10
-29.9671313723
 20
29.3728292204
 30
0.0
 11
-26.9835656862
 21
29.6864146102
 31
0.0
  0
LINE
  8
Capteurs-PCB6
 62
0
 10
-24.3927324845
 20
28.953213873
 30
0.0
 11
-24.4972609477
 21
29.9477357683
 31
0.0
  0
LINE
  8
Capteurs-PCB6
 62
0
 10
-26.8790372229
 20
28.6918927148
 30
0.0
 11
-24.3927324845
 21
28.953213873
 31
0.0
  0
LINE
  8
Capteurs-PCB6
 62
0
 10
-26.9835656862
 20
29.6864146102
 30
0.0
 11
-24.4972609477
 21
29.9477357683
 31
0.0
  0
LINE
  8
Capteurs-PCB6
 62
0
 10
-23.3982105891
 20
29.0577423362
 30
0.0
 11
-23.5027390524
 21
30.0522642316
 31
0.0
  0
LINE
  8
Capteurs-PCB6
 62
0
 10
-24.3927324845
 20
28.953213873
 30
0.0
 11
-23.3982105891
 21
29.0577423362
 31
0.0
  0
LINE
  8
Capteurs-PCB6
 62
0
 10
-24.4972609477
 20
29.9477357683
 30
0.0
 11
-23.5027390524
 21
30.0522642316
 31
0.0
  0
LINE
  8
Capteurs-PCB6
 62
0
 10
-34.4424799014
 20
28.9024511357
 30
0.0
 11
-33.447958006
 21
29.0069795989
 31
0.0
  0
LINE
  8
Capteurs-PCB6
 62
0
 10
-33.3434295428
 20
28.0124577036
 30
0.0
 11
-32.8461685951
 21
28.0647219352
 31
0.0
  0
LINE
  8
Capteurs-PCB6
 62
0
 10
-31.8516466997
 20
28.1692503985
 30
0.0
 11
-31.956175163
 21
29.1637722938
 31
0.0
  0
ENDBLK
  0
BLOCK
  8
Capteurs-PCB45
  2
PART__MIRRORING011
 70
0
 10
0.0
 20
0.0
 30
0.0
  3
PART__MIRRORING011
  0
POLYLINE
  8
Capteurs-PCB45
 62
0
 70
0
 66
1
 10
0.0
 20
0.0
 30
0.0
  0
VERTEX
  8
Capteurs-PCB45
 10
-8.42876895783
 20
45.6570174798
 30
0.0
  0
VERTEX
  8
Capteurs-PCB45
 10
-8.46412429689
 20
45.6216621407
 30
0.0
  0
VERTEX
  8
Capteurs-PCB45
 10
-8.49947963595
 20
45.5863068017
 30
0.0
  0
VERTEX
  8
Capteurs-PCB45
 10
-8.53483497501
 20
45.5509514626
 30
0.0
  0
VERTEX
  8
Capteurs-PCB45
 10
-8.57019031406
 20
45.5155961235
 30
0.0
  0
VERTEX
  8
Capteurs-PCB45
 10
-8.60554565312
 20
45.4802407845
 30
0.0
  0
VERTEX
  8
Capteurs-PCB45
 10
-8.64090099218
 20
45.4448854454
 30
0.0
  0
VERTEX
  8
Capteurs-PCB45
 10
-8.67625633124
 20
45.4095301064
 30
0.0
  0
VERTEX
  8
Capteurs-PCB45
 10
-8.7116116703
 20
45.3741747673
 30
0.0
  0
VERTEX
  8
Capteurs-PCB45
 10
-8.74696700936
 20
45.3388194282
 30
0.0
  0
VERTEX
  8
Capteurs-PCB45
 10
-8.78232234842
 20
45.3034640892
 30
0.0
  0
VERTEX
  8
Capteurs-PCB45
 10
-8.81767768748
 20
45.2681087501
 30
0.0
  0
VERTEX
  8
Capteurs-PCB45
 10
-8.85303302654
 20
45.2327534111
 30
0.0
  0
SEQEND
  8
Capteurs-PCB45
  0
POLYLINE
  8
Capteurs-PCB45
 62
0
 70
0
 66
1
 10
0.0
 20
0.0
 30
0.0
  0
VERTEX
  8
Capteurs-PCB45
 10
-7.53074334572
 20
46.5550430919
 30
0.0
  0
VERTEX
  8
Capteurs-PCB45
 10
-7.56609868478
 20
46.5196877528
 30
0.0
  0
VERTEX
  8
Capteurs-PCB45
 10
-7.60145402384
 20
46.4843324138
 30
0.0
  0
VERTEX
  8
Capteurs-PCB45
 10
-7.6368093629
 20
46.4489770747
 30
0.0
  0
VERTEX
  8
Capteurs-PCB45
 10
-7.67216470196
 20
46.4136217356
 30
0.0
  0
VERTEX
  8
Capteurs-PCB45
 10
-7.70752004102
 20
46.3782663966
 30
0.0
  0
VERTEX
  8
Capteurs-PCB45
 10
-7.74287538008
 20
46.3429110575
 30
0.0
  0
VERTEX
  8
Capteurs-PCB45
 10
-7.77823071914
 20
46.3075557185
 30
0.0
  0
VERTEX
  8
Capteurs-PCB45
 10
-7.81358605819
 20
46.2722003794
 30
0.0
  0
VERTEX
  8
Capteurs-PCB45
 10
-7.84894139725
 20
46.2368450403
 30
0.0
  0
VERTEX
  8
Capteurs-PCB45
 10
-7.88429673631
 20
46.2014897013
 30
0.0
  0
VERTEX
  8
Capteurs-PCB45
 10
-7.91965207537
 20
46.1661343622
 30
0.0
  0
VERTEX
  8
Capteurs-PCB45
 10
-7.95500741443
 20
46.1307790232
 30
0.0
  0
SEQEND
  8
Capteurs-PCB45
  0
POLYLINE
  8
Capteurs-PCB45
 62
0
 70
0
 66
1
 10
0.0
 20
0.0
 30
0.0
  0
VERTEX
  8
Capteurs-PCB45
 10
-7.53074334572
 20
46.5550430919
 30
0.0
  0
VERTEX
  8
Capteurs-PCB45
 10
-7.56609868478
 20
46.5196877528
 30
0.0
  0
VERTEX
  8
Capteurs-PCB45
 10
-7.60145402384
 20
46.4843324138
 30
0.0
  0
VERTEX
  8
Capteurs-PCB45
 10
-7.6368093629
 20
46.4489770747
 30
0.0
  0
VERTEX
  8
Capteurs-PCB45
 10
-7.67216470196
 20
46.4136217356
 30
0.0
  0
VERTEX
  8
Capteurs-PCB45
 10
-7.70752004102
 20
46.3782663966
 30
0.0
  0
VERTEX
  8
Capteurs-PCB45
 10
-7.74287538008
 20
46.3429110575
 30
0.0
  0
VERTEX
  8
Capteurs-PCB45
 10
-7.77823071914
 20
46.3075557185
 30
0.0
  0
VERTEX
  8
Capteurs-PCB45
 10
-7.81358605819
 20
46.2722003794
 30
0.0
  0
VERTEX
  8
Capteurs-PCB45
 10
-7.84894139725
 20
46.2368450403
 30
0.0
  0
VERTEX
  8
Capteurs-PCB45
 10
-7.88429673631
 20
46.2014897013
 30
0.0
  0
VERTEX
  8
Capteurs-PCB45
 10
-7.91965207537
 20
46.1661343622
 30
0.0
  0
VERTEX
  8
Capteurs-PCB45
 10
-7.95500741443
 20
46.1307790232
 30
0.0
  0
SEQEND
  8
Capteurs-PCB45
  0
POLYLINE
  8
Capteurs-PCB45
 62
0
 70
0
 66
1
 10
0.0
 20
0.0
 30
0.0
  0
VERTEX
  8
Capteurs-PCB45
 10
-17.0307575992
 20
37.0550288384
 30
0.0
  0
VERTEX
  8
Capteurs-PCB45
 10
-17.0661129383
 20
37.0196734993
 30
0.0
  0
VERTEX
  8
Capteurs-PCB45
 10
-17.1014682773
 20
36.9843181603
 30
0.0
  0
VERTEX
  8
Capteurs-PCB45
 10
-17.1368236164
 20
36.9489628212
 30
0.0
  0
VERTEX
  8
Capteurs-PCB45
 10
-17.1721789554
 20
36.9136074822
 30
0.0
  0
VERTEX
  8
Capteurs-PCB45
 10
-17.2075342945
 20
36.8782521431
 30
0.0
  0
VERTEX
  8
Capteurs-PCB45
 10
-17.2428896335
 20
36.8428968041
 30
0.0
  0
VERTEX
  8
Capteurs-PCB45
 10
-17.2782449726
 20
36.807541465
 30
0.0
  0
VERTEX
  8
Capteurs-PCB45
 10
-17.3136003117
 20
36.7721861259
 30
0.0
  0
VERTEX
  8
Capteurs-PCB45
 10
-17.3489556507
 20
36.7368307869
 30
0.0
  0
VERTEX
  8
Capteurs-PCB45
 10
-17.3843109898
 20
36.7014754478
 30
0.0
  0
VERTEX
  8
Capteurs-PCB45
 10
-17.4196663288
 20
36.6661201088
 30
0.0
  0
VERTEX
  8
Capteurs-PCB45
 10
-17.4550216679
 20
36.6307647697
 30
0.0
  0
SEQEND
  8
Capteurs-PCB45
  0
POLYLINE
  8
Capteurs-PCB45
 62
0
 70
0
 66
1
 10
0.0
 20
0.0
 30
0.0
  0
VERTEX
  8
Capteurs-PCB45
 10
-17.7378643804
 20
37.7621356196
 30
0.0
  0
VERTEX
  8
Capteurs-PCB45
 10
-17.7732197194
 20
37.7267802805
 30
0.0
  0
VERTEX
  8
Capteurs-PCB45
 10
-17.8085750585
 20
37.6914249415
 30
0.0
  0
VERTEX
  8
Capteurs-PCB45
 10
-17.8439303976
 20
37.6560696024
 30
0.0
  0
VERTEX
  8
Capteurs-PCB45
 10
-17.8792857366
 20
37.6207142634
 30
0.0
  0
VERTEX
  8
Capteurs-PCB45
 10
-17.9146410757
 20
37.5853589243
 30
0.0
  0
VERTEX
  8
Capteurs-PCB45
 10
-17.9499964147
 20
37.5500035852
 30
0.0
  0
VERTEX
  8
Capteurs-PCB45
 10
-17.9853517538
 20
37.5146482462
 30
0.0
  0
VERTEX
  8
Capteurs-PCB45
 10
-18.0207070929
 20
37.4792929071
 30
0.0
  0
VERTEX
  8
Capteurs-PCB45
 10
-18.0560624319
 20
37.4439375681
 30
0.0
  0
VERTEX
  8
Capteurs-PCB45
 10
-18.091417771
 20
37.408582229
 30
0.0
  0
VERTEX
  8
Capteurs-PCB45
 10
-18.12677311
 20
37.3732268899
 30
0.0
  0
VERTEX
  8
Capteurs-PCB45
 10
-18.1621284491
 20
37.3378715509
 30
0.0
  0
SEQEND
  8
Capteurs-PCB45
  0
POLYLINE
  8
Capteurs-PCB45
 62
0
 70
0
 66
1
 10
0.0
 20
0.0
 30
0.0
  0
VERTEX
  8
Capteurs-PCB45
 10
-17.0307575992
 20
37.0550288384
 30
0.0
  0
VERTEX
  8
Capteurs-PCB45
 10
-17.0661129383
 20
37.0196734993
 30
0.0
  0
VERTEX
  8
Capteurs-PCB45
 10
-17.1014682773
 20
36.9843181603
 30
0.0
  0
VERTEX
  8
Capteurs-PCB45
 10
-17.1368236164
 20
36.9489628212
 30
0.0
  0
VERTEX
  8
Capteurs-PCB45
 10
-17.1721789554
 20
36.9136074822
 30
0.0
  0
VERTEX
  8
Capteurs-PCB45
 10
-17.2075342945
 20
36.8782521431
 30
0.0
  0
VERTEX
  8
Capteurs-PCB45
 10
-17.2428896335
 20
36.8428968041
 30
0.0
  0
VERTEX
  8
Capteurs-PCB45
 10
-17.2782449726
 20
36.807541465
 30
0.0
  0
VERTEX
  8
Capteurs-PCB45
 10
-17.3136003117
 20
36.7721861259
 30
0.0
  0
VERTEX
  8
Capteurs-PCB45
 10
-17.3489556507
 20
36.7368307869
 30
0.0
  0
VERTEX
  8
Capteurs-PCB45
 10
-17.3843109898
 20
36.7014754478
 30
0.0
  0
VERTEX
  8
Capteurs-PCB45
 10
-17.4196663288
 20
36.6661201088
 30
0.0
  0
VERTEX
  8
Capteurs-PCB45
 10
-17.4550216679
 20
36.6307647697
 30
0.0
  0
SEQEND
  8
Capteurs-PCB45
  0
POLYLINE
  8
Capteurs-PCB45
 62
0
 70
0
 66
1
 10
0.0
 20
0.0
 30
0.0
  0
VERTEX
  8
Capteurs-PCB45
 10
-17.7378643804
 20
37.7621356196
 30
0.0
  0
VERTEX
  8
Capteurs-PCB45
 10
-17.7732197194
 20
37.7267802805
 30
0.0
  0
VERTEX
  8
Capteurs-PCB45
 10
-17.8085750585
 20
37.6914249415
 30
0.0
  0
VERTEX
  8
Capteurs-PCB45
 10
-17.8439303976
 20
37.6560696024
 30
0.0
  0
VERTEX
  8
Capteurs-PCB45
 10
-17.8792857366
 20
37.6207142634
 30
0.0
  0
VERTEX
  8
Capteurs-PCB45
 10
-17.9146410757
 20
37.5853589243
 30
0.0
  0
VERTEX
  8
Capteurs-PCB45
 10
-17.9499964147
 20
37.5500035852
 30
0.0
  0
VERTEX
  8
Capteurs-PCB45
 10
-17.9853517538
 20
37.5146482462
 30
0.0
  0
VERTEX
  8
Capteurs-PCB45
 10
-18.0207070929
 20
37.4792929071
 30
0.0
  0
VERTEX
  8
Capteurs-PCB45
 10
-18.0560624319
 20
37.4439375681
 30
0.0
  0
VERTEX
  8
Capteurs-PCB45
 10
-18.091417771
 20
37.408582229
 30
0.0
  0
VERTEX
  8
Capteurs-PCB45
 10
-18.12677311
 20
37.3732268899
 30
0.0
  0
VERTEX
  8
Capteurs-PCB45
 10
-18.1621284491
 20
37.3378715509
 30
0.0
  0
SEQEND
  8
Capteurs-PCB45
  0
POLYLINE
  8
Capteurs-PCB45
 62
0
 70
0
 66
1
 10
0.0
 20
0.0
 30
0.0
  0
VERTEX
  8
Capteurs-PCB45
 10
-10.737615434
 20
43.3481710036
 30
0.0
  0
VERTEX
  8
Capteurs-PCB45
 10
-10.772970773
 20
43.3128156646
 30
0.0
  0
VERTEX
  8
Capteurs-PCB45
 10
-10.8083261121
 20
43.2774603255
 30
0.0
  0
VERTEX
  8
Capteurs-PCB45
 10
-10.8436814511
 20
43.2421049865
 30
0.0
  0
VERTEX
  8
Capteurs-PCB45
 10
-10.8790367902
 20
43.2067496474
 30
0.0
  0
VERTEX
  8
Capteurs-PCB45
 10
-10.9143921293
 20
43.1713943083
 30
0.0
  0
VERTEX
  8
Capteurs-PCB45
 10
-10.9497474683
 20
43.1360389693
 30
0.0
  0
VERTEX
  8
Capteurs-PCB45
 10
-10.9851028074
 20
43.1006836302
 30
0.0
  0
VERTEX
  8
Capteurs-PCB45
 10
-11.0204581464
 20
43.0653282912
 30
0.0
  0
VERTEX
  8
Capteurs-PCB45
 10
-11.0558134855
 20
43.0299729521
 30
0.0
  0
VERTEX
  8
Capteurs-PCB45
 10
-11.0911688246
 20
42.994617613
 30
0.0
  0
VERTEX
  8
Capteurs-PCB45
 10
-11.1265241636
 20
42.959262274
 30
0.0
  0
VERTEX
  8
Capteurs-PCB45
 10
-11.1618795027
 20
42.9239069349
 30
0.0
  0
SEQEND
  8
Capteurs-PCB45
  0
POLYLINE
  8
Capteurs-PCB45
 62
0
 70
0
 66
1
 10
0.0
 20
0.0
 30
0.0
  0
VERTEX
  8
Capteurs-PCB45
 10
-10.737615434
 20
43.3481710036
 30
0.0
  0
VERTEX
  8
Capteurs-PCB45
 10
-10.772970773
 20
43.3128156646
 30
0.0
  0
VERTEX
  8
Capteurs-PCB45
 10
-10.8083261121
 20
43.2774603255
 30
0.0
  0
VERTEX
  8
Capteurs-PCB45
 10
-10.8436814511
 20
43.2421049865
 30
0.0
  0
VERTEX
  8
Capteurs-PCB45
 10
-10.8790367902
 20
43.2067496474
 30
0.0
  0
VERTEX
  8
Capteurs-PCB45
 10
-10.9143921293
 20
43.1713943083
 30
0.0
  0
VERTEX
  8
Capteurs-PCB45
 10
-10.9497474683
 20
43.1360389693
 30
0.0
  0
VERTEX
  8
Capteurs-PCB45
 10
-10.9851028074
 20
43.1006836302
 30
0.0
  0
VERTEX
  8
Capteurs-PCB45
 10
-11.0204581464
 20
43.0653282912
 30
0.0
  0
VERTEX
  8
Capteurs-PCB45
 10
-11.0558134855
 20
43.0299729521
 30
0.0
  0
VERTEX
  8
Capteurs-PCB45
 10
-11.0911688246
 20
42.994617613
 30
0.0
  0
VERTEX
  8
Capteurs-PCB45
 10
-11.1265241636
 20
42.959262274
 30
0.0
  0
VERTEX
  8
Capteurs-PCB45
 10
-11.1618795027
 20
42.9239069349
 30
0.0
  0
SEQEND
  8
Capteurs-PCB45
  0
POLYLINE
  8
Capteurs-PCB45
 62
0
 70
0
 66
1
 10
0.0
 20
0.0
 30
0.0
  0
VERTEX
  8
Capteurs-PCB45
 10
-10.737615434
 20
43.3481710036
 30
0.0
  0
VERTEX
  8
Capteurs-PCB45
 10
-10.772970773
 20
43.3128156646
 30
0.0
  0
VERTEX
  8
Capteurs-PCB45
 10
-10.8083261121
 20
43.2774603255
 30
0.0
  0
VERTEX
  8
Capteurs-PCB45
 10
-10.8436814511
 20
43.2421049865
 30
0.0
  0
VERTEX
  8
Capteurs-PCB45
 10
-10.8790367902
 20
43.2067496474
 30
0.0
  0
VERTEX
  8
Capteurs-PCB45
 10
-10.9143921293
 20
43.1713943083
 30
0.0
  0
VERTEX
  8
Capteurs-PCB45
 10
-10.9497474683
 20
43.1360389693
 30
0.0
  0
VERTEX
  8
Capteurs-PCB45
 10
-10.9851028074
 20
43.1006836302
 30
0.0
  0
VERTEX
  8
Capteurs-PCB45
 10
-11.0204581464
 20
43.0653282912
 30
0.0
  0
VERTEX
  8
Capteurs-PCB45
 10
-11.0558134855
 20
43.0299729521
 30
0.0
  0
VERTEX
  8
Capteurs-PCB45
 10
-11.0911688246
 20
42.994617613
 30
0.0
  0
VERTEX
  8
Capteurs-PCB45
 10
-11.1265241636
 20
42.959262274
 30
0.0
  0
VERTEX
  8
Capteurs-PCB45
 10
-11.1618795027
 20
42.9239069349
 30
0.0
  0
SEQEND
  8
Capteurs-PCB45
  0
POLYLINE
  8
Capteurs-PCB45
 62
0
 70
0
 66
1
 10
0.0
 20
0.0
 30
0.0
  0
VERTEX
  8
Capteurs-PCB45
 10
-11.6356410461
 20
42.4501453915
 30
0.0
  0
VERTEX
  8
Capteurs-PCB45
 10
-11.6709963851
 20
42.4147900525
 30
0.0
  0
VERTEX
  8
Capteurs-PCB45
 10
-11.7063517242
 20
42.3794347134
 30
0.0
  0
VERTEX
  8
Capteurs-PCB45
 10
-11.7417070633
 20
42.3440793743
 30
0.0
  0
VERTEX
  8
Capteurs-PCB45
 10
-11.7770624023
 20
42.3087240353
 30
0.0
  0
VERTEX
  8
Capteurs-PCB45
 10
-11.8124177414
 20
42.2733686962
 30
0.0
  0
VERTEX
  8
Capteurs-PCB45
 10
-11.8477730804
 20
42.2380133572
 30
0.0
  0
VERTEX
  8
Capteurs-PCB45
 10
-11.8831284195
 20
42.2026580181
 30
0.0
  0
VERTEX
  8
Capteurs-PCB45
 10
-11.9184837586
 20
42.167302679
 30
0.0
  0
VERTEX
  8
Capteurs-PCB45
 10
-11.9538390976
 20
42.13194734
 30
0.0
  0
VERTEX
  8
Capteurs-PCB45
 10
-11.9891944367
 20
42.0965920009
 30
0.0
  0
VERTEX
  8
Capteurs-PCB45
 10
-12.0245497757
 20
42.0612366619
 30
0.0
  0
VERTEX
  8
Capteurs-PCB45
 10
-12.0599051148
 20
42.0258813228
 30
0.0
  0
SEQEND
  8
Capteurs-PCB45
  0
POLYLINE
  8
Capteurs-PCB45
 62
0
 70
0
 66
1
 10
0.0
 20
0.0
 30
0.0
  0
VERTEX
  8
Capteurs-PCB45
 10
-17.9287832113
 20
36.1570032263
 30
0.0
  0
VERTEX
  8
Capteurs-PCB45
 10
-17.9641385504
 20
36.1216478872
 30
0.0
  0
VERTEX
  8
Capteurs-PCB45
 10
-17.9994938894
 20
36.0862925482
 30
0.0
  0
VERTEX
  8
Capteurs-PCB45
 10
-18.0348492285
 20
36.0509372091
 30
0.0
  0
VERTEX
  8
Capteurs-PCB45
 10
-18.0702045675
 20
36.0155818701
 30
0.0
  0
VERTEX
  8
Capteurs-PCB45
 10
-18.1055599066
 20
35.980226531
 30
0.0
  0
VERTEX
  8
Capteurs-PCB45
 10
-18.1409152457
 20
35.9448711919
 30
0.0
  0
VERTEX
  8
Capteurs-PCB45
 10
-18.1762705847
 20
35.9095158529
 30
0.0
  0
VERTEX
  8
Capteurs-PCB45
 10
-18.2116259238
 20
35.8741605138
 30
0.0
  0
VERTEX
  8
Capteurs-PCB45
 10
-18.2469812628
 20
35.8388051748
 30
0.0
  0
VERTEX
  8
Capteurs-PCB45
 10
-18.2823366019
 20
35.8034498357
 30
0.0
  0
VERTEX
  8
Capteurs-PCB45
 10
-18.317691941
 20
35.7680944966
 30
0.0
  0
VERTEX
  8
Capteurs-PCB45
 10
-18.35304728
 20
35.7327391576
 30
0.0
  0
SEQEND
  8
Capteurs-PCB45
  0
LINE
  8
Capteurs-PCB45
 62
0
 10
-8.82842712477
 20
45.2573593128
 30
0.0
 11
-9.53553390595
 21
45.964466094
 31
0.0
  0
LINE
  8
Capteurs-PCB45
 62
0
 10
-6.70710678121
 20
47.3786796564
 30
0.0
 11
-7.41421356239
 21
48.0857864376
 31
0.0
  0
LINE
  8
Capteurs-PCB45
 62
0
 10
-8.82842712477
 20
45.2573593128
 30
0.0
 11
-6.70710678121
 21
47.3786796564
 31
0.0
  0
LINE
  8
Capteurs-PCB45
 62
0
 10
-10.2426406871
 20
45.2573593128
 30
0.0
 11
-7.41421356239
 21
48.0857864376
 31
0.0
  0
LINE
  8
Capteurs-PCB45
 62
0
 10
-5.29289321883
 20
48.7928932188
 30
0.0
 11
-6.00000000002
 21
49.5
 31
0.0
  0
LINE
  8
Capteurs-PCB45
 62
0
 10
-6.70710678121
 20
47.3786796564
 30
0.0
 11
-5.29289321883
 21
48.7928932188
 31
0.0
  0
LINE
  8
Capteurs-PCB45
 62
0
 10
-7.41421356239
 20
48.0857864376
 30
0.0
 11
-6.00000000002
 21
49.5
 31
0.0
  0
LINE
  8
Capteurs-PCB45
 62
0
 10
-5.29289321883
 20
48.7928932188
 30
0.0
 11
-6.00000000002
 21
49.5
 31
0.0
  0
LINE
  8
Capteurs-PCB45
 62
0
 10
-4.58578643765
 20
49.5
 30
0.0
 11
-5.29289321883
 21
50.2071067811
 31
0.0
  0
LINE
  8
Capteurs-PCB45
 62
0
 10
-5.29289321883
 20
48.7928932188
 30
0.0
 11
-4.58578643765
 21
49.5
 31
0.0
  0
LINE
  8
Capteurs-PCB45
 62
0
 10
-6.00000000002
 20
49.5
 30
0.0
 11
-5.29289321883
 21
50.2071067811
 31
0.0
  0
LINE
  8
Capteurs-PCB45
 62
0
 10
-20.1421356238
 20
33.9436508138
 30
0.0
 11
-20.8492424049
 21
34.650757595
 31
0.0
  0
LINE
  8
Capteurs-PCB45
 62
0
 10
-20.1421356238
 20
33.9436508138
 30
0.0
 11
-19.4350288426
 21
34.650757595
 31
0.0
  0
LINE
  8
Capteurs-PCB45
 62
0
 10
-20.8492424049
 20
34.650757595
 30
0.0
 11
-20.1421356238
 21
35.3578643762
 31
0.0
  0
LINE
  8
Capteurs-PCB45
 62
0
 10
-19.4350288426
 20
34.650757595
 30
0.0
 11
-20.1421356238
 21
35.3578643762
 31
0.0
  0
LINE
  8
Capteurs-PCB45
 62
0
 10
-19.4350288426
 20
34.650757595
 30
0.0
 11
-15.1923881554
 21
38.8933982822
 31
0.0
  0
LINE
  8
Capteurs-PCB45
 62
0
 10
-20.1421356238
 20
35.3578643762
 30
0.0
 11
-15.8994949366
 21
39.6005050633
 31
0.0
  0
LINE
  8
Capteurs-PCB45
 62
0
 10
-15.1923881554
 20
38.8933982822
 30
0.0
 11
-13.0710678119
 21
41.0147186257
 31
0.0
  0
LINE
  8
Capteurs-PCB45
 62
0
 10
-15.8994949366
 20
39.6005050633
 30
0.0
 11
-13.7781745931
 21
41.7218254069
 31
0.0
  0
LINE
  8
Capteurs-PCB45
 62
0
 10
-13.7781745931
 20
41.7218254069
 30
0.0
 11
-13.0710678119
 21
42.4289321881
 31
0.0
  0
LINE
  8
Capteurs-PCB45
 62
0
 10
-13.0710678119
 20
41.0147186257
 30
0.0
 11
-13.7781745931
 21
41.7218254069
 31
0.0
  0
LINE
  8
Capteurs-PCB45
 62
0
 10
-13.0710678119
 20
41.0147186257
 30
0.0
 11
-12.3639610307
 21
41.7218254069
 31
0.0
  0
LINE
  8
Capteurs-PCB45
 62
0
 10
-13.7781745931
 20
41.7218254069
 30
0.0
 11
-13.0710678119
 21
42.4289321881
 31
0.0
  0
LINE
  8
Capteurs-PCB45
 62
0
 10
-12.3639610307
 20
41.7218254069
 30
0.0
 11
-13.0710678119
 21
42.4289321881
 31
0.0
  0
LINE
  8
Capteurs-PCB45
 62
0
 10
-9.53553390595
 20
44.5502525316
 30
0.0
 11
-10.2426406871
 21
45.2573593128
 31
0.0
  0
LINE
  8
Capteurs-PCB45
 62
0
 10
-12.3639610307
 20
41.7218254069
 30
0.0
 11
-9.53553390595
 21
44.5502525316
 31
0.0
  0
LINE
  8
Capteurs-PCB45
 62
0
 10
-13.0710678119
 20
42.4289321881
 30
0.0
 11
-10.2426406871
 21
45.2573593128
 31
0.0
  0
LINE
  8
Capteurs-PCB45
 62
0
 10
-9.53553390595
 20
44.5502525316
 30
0.0
 11
-10.2426406871
 21
45.2573593128
 31
0.0
  0
LINE
  8
Capteurs-PCB45
 62
0
 10
-9.53553390595
 20
44.5502525316
 30
0.0
 11
-8.82842712477
 21
45.2573593128
 31
0.0
  0
LINE
  8
Capteurs-PCB45
 62
0
 10
-10.2426406871
 20
45.2573593128
 30
0.0
 11
-9.53553390595
 21
45.964466094
 31
0.0
  0
LINE
  8
Capteurs-PCB45
 62
0
 10
-15.1923881554
 20
38.8933982822
 30
0.0
 11
-15.8994949366
 21
39.6005050633
 31
0.0
  0
ENDBLK
  0
BLOCK
  8
Capteurs-PCB45
  2
CLONE128
 70
0
 10
0.0
 20
0.0
 30
0.0
  3
CLONE128
  0
LINE
  8
Capteurs-PCB45
 62
0
 10
8.82842712477
 20
45.2573593128
 30
0.0
 11
9.53553390595
 21
45.964466094
 31
0.0
  0
LINE
  8
Capteurs-PCB45
 62
0
 10
6.70710678121
 20
47.3786796564
 30
0.0
 11
7.41421356239
 21
48.0857864376
 31
0.0
  0
LINE
  8
Capteurs-PCB45
 62
0
 10
8.82842712477
 20
45.2573593128
 30
0.0
 11
6.70710678121
 21
47.3786796564
 31
0.0
  0
LINE
  8
Capteurs-PCB45
 62
0
 10
9.53553390595
 20
45.964466094
 30
0.0
 11
7.41421356239
 21
48.0857864376
 31
0.0
  0
LINE
  8
Capteurs-PCB45
 62
0
 10
5.29289321883
 20
48.7928932188
 30
0.0
 11
6.00000000002
 21
49.5
 31
0.0
  0
LINE
  8
Capteurs-PCB45
 62
0
 10
6.70710678121
 20
47.3786796564
 30
0.0
 11
5.29289321883
 21
48.7928932188
 31
0.0
  0
LINE
  8
Capteurs-PCB45
 62
0
 10
7.41421356239
 20
48.0857864376
 30
0.0
 11
6.00000000002
 21
49.5
 31
0.0
  0
LINE
  8
Capteurs-PCB45
 62
0
 10
4.58578643765
 20
49.5
 30
0.0
 11
5.29289321883
 21
50.2071067811
 31
0.0
  0
LINE
  8
Capteurs-PCB45
 62
0
 10
5.29289321883
 20
48.7928932188
 30
0.0
 11
4.58578643765
 21
49.5
 31
0.0
  0
LINE
  8
Capteurs-PCB45
 62
0
 10
6.00000000002
 20
49.5
 30
0.0
 11
5.29289321883
 21
50.2071067811
 31
0.0
  0
LINE
  8
Capteurs-PCB45
 62
0
 10
20.1421356238
 20
33.9436508138
 30
0.0
 11
20.8492424049
 21
34.650757595
 31
0.0
  0
LINE
  8
Capteurs-PCB45
 62
0
 10
19.4350288426
 20
34.650757595
 30
0.0
 11
20.1421356238
 21
35.3578643762
 31
0.0
  0
LINE
  8
Capteurs-PCB45
 62
0
 10
20.1421356238
 20
33.9436508138
 30
0.0
 11
19.4350288426
 21
34.650757595
 31
0.0
  0
LINE
  8
Capteurs-PCB45
 62
0
 10
20.8492424049
 20
34.650757595
 30
0.0
 11
20.1421356238
 21
35.3578643762
 31
0.0
  0
LINE
  8
Capteurs-PCB45
 62
0
 10
19.4350288426
 20
34.650757595
 30
0.0
 11
20.1421356238
 21
35.3578643762
 31
0.0
  0
LINE
  8
Capteurs-PCB45
 62
0
 10
19.4350288426
 20
34.650757595
 30
0.0
 11
15.1923881554
 21
38.8933982822
 31
0.0
  0
LINE
  8
Capteurs-PCB45
 62
0
 10
20.1421356238
 20
35.3578643762
 30
0.0
 11
15.8994949366
 21
39.6005050633
 31
0.0
  0
LINE
  8
Capteurs-PCB45
 62
0
 10
13.0710678119
 20
41.0147186257
 30
0.0
 11
13.7781745931
 21
41.7218254069
 31
0.0
  0
LINE
  8
Capteurs-PCB45
 62
0
 10
15.1923881554
 20
38.8933982822
 30
0.0
 11
13.0710678119
 21
41.0147186257
 31
0.0
  0
LINE
  8
Capteurs-PCB45
 62
0
 10
15.8994949366
 20
39.6005050633
 30
0.0
 11
13.7781745931
 21
41.7218254069
 31
0.0
  0
LINE
  8
Capteurs-PCB45
 62
0
 10
13.0710678119
 20
41.0147186257
 30
0.0
 11
13.7781745931
 21
41.7218254069
 31
0.0
  0
LINE
  8
Capteurs-PCB45
 62
0
 10
13.0710678119
 20
41.0147186257
 30
0.0
 11
12.3639610307
 21
41.7218254069
 31
0.0
  0
LINE
  8
Capteurs-PCB45
 62
0
 10
13.7781745931
 20
41.7218254069
 30
0.0
 11
13.0710678119
 21
42.4289321881
 31
0.0
  0
LINE
  8
Capteurs-PCB45
 62
0
 10
12.3639610307
 20
41.7218254069
 30
0.0
 11
13.0710678119
 21
42.4289321881
 31
0.0
  0
LINE
  8
Capteurs-PCB45
 62
0
 10
9.53553390595
 20
44.5502525316
 30
0.0
 11
10.2426406871
 21
45.2573593128
 31
0.0
  0
LINE
  8
Capteurs-PCB45
 62
0
 10
12.3639610307
 20
41.7218254069
 30
0.0
 11
9.53553390595
 21
44.5502525316
 31
0.0
  0
LINE
  8
Capteurs-PCB45
 62
0
 10
13.0710678119
 20
42.4289321881
 30
0.0
 11
10.2426406871
 21
45.2573593128
 31
0.0
  0
LINE
  8
Capteurs-PCB45
 62
0
 10
9.53553390595
 20
44.5502525316
 30
0.0
 11
10.2426406871
 21
45.2573593128
 31
0.0
  0
LINE
  8
Capteurs-PCB45
 62
0
 10
9.53553390595
 20
44.5502525316
 30
0.0
 11
8.82842712477
 21
45.2573593128
 31
0.0
  0
LINE
  8
Capteurs-PCB45
 62
0
 10
10.2426406871
 20
45.2573593128
 30
0.0
 11
9.53553390595
 21
45.964466094
 31
0.0
  0
LINE
  8
Capteurs-PCB45
 62
0
 10
15.1923881554
 20
38.8933982822
 30
0.0
 11
15.8994949366
 21
39.6005050633
 31
0.0
  0
ENDBLK
  0
BLOCK
  8
Capteurs-PCB6
  2
CLONE129
 70
0
 10
0.0
 20
0.0
 30
0.0
  3
CLONE129
  0
POLYLINE
  8
Capteurs-PCB6
 62
0
 70
0
 66
1
 10
0.0
 20
0.0
 30
0.0
  0
VERTEX
  8
Capteurs-PCB6
 10
30.5264164385
 20
28.3085377116
 30
0.0
  0
VERTEX
  8
Capteurs-PCB6
 10
30.5761425333
 20
28.3033112885
 30
0.0
  0
VERTEX
  8
Capteurs-PCB6
 10
30.625868628
 20
28.2980848653
 30
0.0
  0
VERTEX
  8
Capteurs-PCB6
 10
30.6755947228
 20
28.2928584421
 30
0.0
  0
VERTEX
  8
Capteurs-PCB6
 10
30.7253208176
 20
28.287632019
 30
0.0
  0
VERTEX
  8
Capteurs-PCB6
 10
30.7750469123
 20
28.2824055958
 30
0.0
  0
VERTEX
  8
Capteurs-PCB6
 10
30.8247730071
 20
28.2771791726
 30
0.0
  0
VERTEX
  8
Capteurs-PCB6
 10
30.8744991019
 20
28.2719527495
 30
0.0
  0
VERTEX
  8
Capteurs-PCB6
 10
30.9242251966
 20
28.2667263263
 30
0.0
  0
VERTEX
  8
Capteurs-PCB6
 10
30.9739512914
 20
28.2614999032
 30
0.0
  0
VERTEX
  8
Capteurs-PCB6
 10
31.0236773862
 20
28.25627348
 30
0.0
  0
VERTEX
  8
Capteurs-PCB6
 10
31.0734034809
 20
28.2510470568
 30
0.0
  0
VERTEX
  8
Capteurs-PCB6
 10
31.1231295757
 20
28.2458206337
 30
0.0
  0
SEQEND
  8
Capteurs-PCB6
  0
POLYLINE
  8
Capteurs-PCB6
 62
0
 70
0
 66
1
 10
0.0
 20
0.0
 30
0.0
  0
VERTEX
  8
Capteurs-PCB6
 10
29.3653419613
 20
28.4305715566
 30
0.0
  0
VERTEX
  8
Capteurs-PCB6
 10
29.4150680561
 20
28.4253451335
 30
0.0
  0
VERTEX
  8
Capteurs-PCB6
 10
29.4647941508
 20
28.4201187103
 30
0.0
  0
VERTEX
  8
Capteurs-PCB6
 10
29.5145202456
 20
28.4148922871
 30
0.0
  0
VERTEX
  8
Capteurs-PCB6
 10
29.5642463404
 20
28.409665864
 30
0.0
  0
VERTEX
  8
Capteurs-PCB6
 10
29.6139724351
 20
28.4044394408
 30
0.0
  0
VERTEX
  8
Capteurs-PCB6
 10
29.6636985299
 20
28.3992130177
 30
0.0
  0
VERTEX
  8
Capteurs-PCB6
 10
29.7134246247
 20
28.3939865945
 30
0.0
  0
VERTEX
  8
Capteurs-PCB6
 10
29.7631507195
 20
28.3887601713
 30
0.0
  0
VERTEX
  8
Capteurs-PCB6
 10
29.8128768142
 20
28.3835337482
 30
0.0
  0
VERTEX
  8
Capteurs-PCB6
 10
29.8600867686
 20
28.378571782
 30
0.0
  0
SEQEND
  8
Capteurs-PCB6
  0
LINE
  8
Capteurs-PCB6
 62
0
 10
34.3379514381
 20
27.9079292403
 30
0.0
 11
34.4424799014
 21
28.9024511357
 31
0.0
  0
LINE
  8
Capteurs-PCB6
 62
0
 10
34.3379514381
 20
27.9079292403
 30
0.0
 11
33.3434295428
 21
28.0124577036
 31
0.0
  0
LINE
  8
Capteurs-PCB6
 62
0
 10
34.4424799014
 20
28.9024511357
 30
0.0
 11
33.447958006
 21
29.0069795989
 31
0.0
  0
LINE
  8
Capteurs-PCB6
 62
0
 10
33.3434295428
 20
28.0124577036
 30
0.0
 11
33.447958006
 21
29.0069795989
 31
0.0
  0
LINE
  8
Capteurs-PCB6
 62
0
 10
33.3434295428
 20
28.0124577036
 30
0.0
 11
31.8516466997
 21
28.1692503985
 31
0.0
  0
LINE
  8
Capteurs-PCB6
 62
0
 10
33.447958006
 20
29.0069795989
 30
0.0
 11
31.956175163
 21
29.1637722938
 31
0.0
  0
LINE
  8
Capteurs-PCB6
 62
0
 10
31.8516466997
 20
28.1692503985
 30
0.0
 11
31.354385752
 21
28.2215146301
 31
0.0
  0
LINE
  8
Capteurs-PCB6
 62
0
 10
31.956175163
 20
29.1637722938
 30
0.0
 11
31.4589142153
 21
29.2160365255
 31
0.0
  0
LINE
  8
Capteurs-PCB6
 62
0
 10
31.354385752
 20
28.2215146301
 30
0.0
 11
31.4589142153
 21
29.2160365255
 31
0.0
  0
LINE
  8
Capteurs-PCB6
 62
0
 10
29.3653419613
 20
28.4305715566
 30
0.0
 11
29.4698704246
 21
29.425093452
 31
0.0
  0
LINE
  8
Capteurs-PCB6
 62
0
 10
31.354385752
 20
28.2215146301
 30
0.0
 11
29.3653419613
 21
28.4305715566
 31
0.0
  0
LINE
  8
Capteurs-PCB6
 62
0
 10
31.4589142153
 20
29.2160365255
 30
0.0
 11
29.4698704246
 21
29.425093452
 31
0.0
  0
LINE
  8
Capteurs-PCB6
 62
0
 10
29.3653419613
 20
28.4305715566
 30
0.0
 11
29.4698704246
 21
29.425093452
 31
0.0
  0
LINE
  8
Capteurs-PCB6
 62
0
 10
28.3708200659
 20
28.5351000199
 30
0.0
 11
28.4753485292
 21
29.5296219153
 31
0.0
  0
LINE
  8
Capteurs-PCB6
 62
0
 10
29.3653419613
 20
28.4305715566
 30
0.0
 11
28.3708200659
 21
28.5351000199
 31
0.0
  0
LINE
  8
Capteurs-PCB6
 62
0
 10
29.4698704246
 20
29.425093452
 30
0.0
 11
28.4753485292
 21
29.5296219153
 31
0.0
  0
LINE
  8
Capteurs-PCB6
 62
0
 10
26.8790372229
 20
28.6918927148
 30
0.0
 11
26.9835656862
 21
29.6864146102
 31
0.0
  0
LINE
  8
Capteurs-PCB6
 62
0
 10
29.862602909
 20
28.378307325
 30
0.0
 11
29.3653419613
 21
28.4305715566
 31
0.0
  0
LINE
  8
Capteurs-PCB6
 62
0
 10
28.3708200659
 20
28.5351000199
 30
0.0
 11
26.8790372229
 21
28.6918927148
 31
0.0
  0
LINE
  8
Capteurs-PCB6
 62
0
 10
28.4753485292
 20
29.5296219153
 30
0.0
 11
26.9835656862
 21
29.6864146102
 31
0.0
  0
LINE
  8
Capteurs-PCB6
 62
0
 10
24.3927324845
 20
28.953213873
 30
0.0
 11
24.4972609477
 21
29.9477357683
 31
0.0
  0
LINE
  8
Capteurs-PCB6
 62
0
 10
26.8790372229
 20
28.6918927148
 30
0.0
 11
24.3927324845
 21
28.953213873
 31
0.0
  0
LINE
  8
Capteurs-PCB6
 62
0
 10
26.9835656862
 20
29.6864146102
 30
0.0
 11
24.4972609477
 21
29.9477357683
 31
0.0
  0
LINE
  8
Capteurs-PCB6
 62
0
 10
24.3927324845
 20
28.953213873
 30
0.0
 11
24.4972609477
 21
29.9477357683
 31
0.0
  0
LINE
  8
Capteurs-PCB6
 62
0
 10
23.3982105891
 20
29.0577423362
 30
0.0
 11
23.5027390524
 21
30.0522642316
 31
0.0
  0
LINE
  8
Capteurs-PCB6
 62
0
 10
24.3927324845
 20
28.953213873
 30
0.0
 11
23.3982105891
 21
29.0577423362
 31
0.0
  0
LINE
  8
Capteurs-PCB6
 62
0
 10
24.4972609477
 20
29.9477357683
 30
0.0
 11
23.5027390524
 21
30.0522642316
 31
0.0
  0
LINE
  8
Capteurs-PCB6
 62
0
 10
33.3434295428
 20
28.0124577036
 30
0.0
 11
32.8461685951
 21
28.0647219352
 31
0.0
  0
LINE
  8
Capteurs-PCB6
 62
0
 10
31.8516466997
 20
28.1692503985
 30
0.0
 11
31.956175163
 21
29.1637722938
 31
0.0
  0
ENDBLK
  0
BLOCK
  8
Entretoises
  2
PAD035
 70
0
 10
0.0
 20
0.0
 30
0.0
  3
PAD035
  0
LINE
  8
Entretoises
 62
0
 10
23.0
 20
20.0
 30
0.0
 11
23.0
 21
-20.0
 31
0.0
  0
ARC
  8
Entretoises
 62
0
 10
27.0000003976
 20
-19.9999998303
 30
0.0
 40
4.00000039762
 50
-179.999997585
 51
-108.924643982
  0
ARC
  8
Entretoises
 62
0
 10
24.6000002629
 20
-26.9999999265
 30
0.0
 40
3.39999973709
 50
-1.20741826973e-06
 51
71.0753534523
  0
LINE
  8
Entretoises
 62
0
 10
28.0
 20
-27.0
 30
0.0
 11
28.0
 21
-28.000002
 31
0.0
  0
ARC
  8
Entretoises
 62
0
 10
20.000000253
 20
-28.0000011333
 30
0.0
 40
7.99999974697
 50
-62.9708753938
 51
-6.21556596528e-06
  0
LINE
  8
Entretoises
 62
0
 10
23.635547
 20
-35.126206
 30
0.0
 11
9.272202
 21
-42.453887
 31
0.0
  0
ARC
  8
Entretoises
 62
0
 10
6.99999956103
 20
-37.9999877934
 30
0.0
 40
5.00001220665
 50
-89.9999949698
 51
-62.9711313526
  0
LINE
  8
Entretoises
 62
0
 10
7.0
 20
-43.0
 30
0.0
 11
-6.999975
 21
-43.0
 31
0.0
  0
ARC
  8
Entretoises
 62
0
 10
-6.99996958059
 20
-37.9999782274
 30
0.0
 40
5.00002177264
 50
-117.029044028
 51
-90.0000621016
  0
LINE
  8
Entretoises
 62
0
 10
-9.27219
 20
-42.453879
 30
0.0
 11
-23.63554
 21
-35.126208
 31
0.0
  0
ARC
  8
Entretoises
 62
0
 10
-19.9999999156
 20
-27.9999993555
 30
0.0
 40
8.00000008442
 50
-179.999995324
 51
-117.029069805
  0
LINE
  8
Entretoises
 62
0
 10
-28.0
 20
-28.0
 30
0.0
 11
-28.0
 21
-26.999999
 31
0.0
  0
ARC
  8
Entretoises
 62
0
 10
-24.5999998681
 20
-26.9999992085
 30
0.0
 40
3.40000013187
 50
108.9246513
 51
179.999996693
  0
ARC
  8
Entretoises
 62
0
 10
-27.0000000507
 20
-19.9999990781
 30
0.0
 40
4.00000005067
 50
-71.0753595673
 51
-1.32266044535e-05
  0
LINE
  8
Entretoises
 62
0
 10
-23.0
 20
-20.0
 30
0.0
 11
-23.0
 21
20.0
 31
0.0
  0
ARC
  8
Entretoises
 62
0
 10
-26.0000000837
 20
19.9999999163
 30
0.0
 40
3.00000008368
 50
1.7075472925e-06
 51
90.0000175003
  0
ARC
  8
Entretoises
 62
0
 10
-26.0000026213
 20
31.8284177797
 30
0.0
 40
8.82841777973
 50
-134.99999357
 51
-89.9999894776
  0
LINE
  8
Entretoises
 62
0
 10
-32.242636
 20
25.585783
 30
0.0
 11
-33.828426
 21
27.171572
 31
0.0
  0
ARC
  8
Entretoises
 62
0
 10
-30.9999996017
 20
30.0000004145
 30
0.0
 40
4.00000039826
 50
-179.999994085
 51
-134.999979579
  0
LINE
  8
Entretoises
 62
0
 10
-35.0
 20
30.0
 30
0.0
 11
-35.0
 21
31.5
 31
0.0
  0
ARC
  8
Entretoises
 62
0
 10
-31.0355337007
 20
31.4999992913
 30
0.0
 40
3.96446629931
 50
135.000006035
 51
179.999989755
  0
LINE
  8
Entretoises
 62
0
 10
-33.838835
 20
34.3033
 30
0.0
 11
-17.07107
 21
51.071067
 31
0.0
  0
ARC
  8
Entretoises
 62
0
 10
-9.99999984156
 20
43.9999962949
 30
0.0
 40
10.0000037051
 50
90.0000009078
 51
134.999997785
  0
LINE
  8
Entretoises
 62
0
 10
-10.0
 20
54.0
 30
0.0
 11
10.0
 21
54.0
 31
0.0
  0
ARC
  8
Entretoises
 62
0
 10
10.0000004267
 20
44.0000001217
 30
0.0
 40
9.99999987828
 50
45.0000012355
 51
90.0000024447
  0
LINE
  8
Entretoises
 62
0
 10
17.071068
 20
51.071068
 30
0.0
 11
33.838835
 21
34.3033
 31
0.0
  0
ARC
  8
Entretoises
 62
0
 10
31.0355334827
 20
31.499999201
 30
0.0
 40
3.9644665173
 50
1.15811491995e-05
 51
44.9999926599
  0
LINE
  8
Entretoises
 62
0
 10
35.0
 20
31.5
 30
0.0
 11
35.0
 21
30.0
 31
0.0
  0
ARC
  8
Entretoises
 62
0
 10
31.0000002993
 20
30.0000011255
 30
0.0
 40
3.99999970069
 50
-45.0000043028
 51
-1.61089689396e-05
  0
LINE
  8
Entretoises
 62
0
 10
33.828427
 20
27.171574
 30
0.0
 11
32.242638
 21
25.585784
 31
0.0
  0
ARC
  8
Entretoises
 62
0
 10
26.0000030664
 20
31.8284191196
 30
0.0
 40
8.82841911955
 50
-90.0000199005
 51
-45.0000008532
  0
ARC
  8
Entretoises
 62
0
 10
25.9999999415
 20
20.0000000585
 30
0.0
 40
2.99999994154
 50
89.9999988836
 51
-179.999999146
  0
ARC
  8
Entretoises
 62
0
 10
-2.61776038251e-08
 20
24.9999999547
 30
0.0
 40
10.7499999738
 50
59.9999997583
 51
179.873713874
  0
ARC
  8
Entretoises
 62
0
 10
2.09733741485e-09
 20
25.0
 30
0.0
 40
10.7500000021
 50
179.873714116
 51
180.0
  0
ARC
  8
Entretoises
 62
0
 10
-2.61777717281e-08
 20
24.9999999547
 30
0.0
 40
10.7499999738
 50
180.0
 51
59.9999997583
  0
ARC
  8
Entretoises
 62
0
 10
-2.6177604558e-08
 20
-25.0000000453
 30
0.0
 40
10.7499999738
 50
59.9999997583
 51
179.873716367
  0
ARC
  8
Entretoises
 62
0
 10
-1.38008804385e-09
 20
-25.0
 30
0.0
 40
10.7499999986
 50
179.873716609
 51
-180.0
  0
ARC
  8
Entretoises
 62
0
 10
-2.61777735044e-08
 20
-25.0000000453
 30
0.0
 40
10.7499999738
 50
180.0
 51
59.9999997583
  0
LINE
  8
Entretoises
 62
0
 10
4.4
 20
-2.7
 30
0.0
 11
4.9
 21
-4.0
 31
0.0
  0
LINE
  8
Entretoises
 62
0
 10
4.9
 20
-4.0
 30
0.0
 11
19.4
 21
-4.0
 31
0.0
  0
LINE
  8
Entretoises
 62
0
 10
19.4
 20
-4.0
 30
0.0
 11
19.4
 21
4.0
 31
0.0
  0
LINE
  8
Entretoises
 62
0
 10
19.4
 20
4.0
 30
0.0
 11
4.9
 21
4.0
 31
0.0
  0
LINE
  8
Entretoises
 62
0
 10
4.9
 20
4.0
 30
0.0
 11
4.4
 21
2.7
 31
0.0
  0
LINE
  8
Entretoises
 62
0
 10
4.4
 20
2.7
 30
0.0
 11
2.4
 21
2.7
 31
0.0
  0
LINE
  8
Entretoises
 62
0
 10
2.4
 20
2.7
 30
0.0
 11
2.4
 21
-2.7
 31
0.0
  0
LINE
  8
Entretoises
 62
0
 10
2.4
 20
-2.7
 30
0.0
 11
4.4
 21
-2.7
 31
0.0
  0
LINE
  8
Entretoises
 62
0
 10
-4.4
 20
-2.7
 30
0.0
 11
-2.4
 21
-2.7
 31
0.0
  0
LINE
  8
Entretoises
 62
0
 10
-2.4
 20
-2.7
 30
0.0
 11
-2.4
 21
2.7
 31
0.0
  0
LINE
  8
Entretoises
 62
0
 10
-2.4
 20
2.7
 30
0.0
 11
-4.4
 21
2.7
 31
0.0
  0
LINE
  8
Entretoises
 62
0
 10
-4.4
 20
2.7
 30
0.0
 11
-4.9
 21
4.0
 31
0.0
  0
LINE
  8
Entretoises
 62
0
 10
-4.9
 20
4.0
 30
0.0
 11
-19.4
 21
4.0
 31
0.0
  0
LINE
  8
Entretoises
 62
0
 10
-19.4
 20
4.0
 30
0.0
 11
-19.4
 21
-4.0
 31
0.0
  0
LINE
  8
Entretoises
 62
0
 10
-19.4
 20
-4.0
 30
0.0
 11
-4.9
 21
-4.0
 31
0.0
  0
LINE
  8
Entretoises
 62
0
 10
-4.9
 20
-4.0
 30
0.0
 11
-4.4
 21
-2.7
 31
0.0
  0
LINE
  8
Entretoises
 62
0
 10
-21.0
 20
-18.0
 30
0.0
 11
-19.5
 21
-18.0
 31
0.0
  0
LINE
  8
Entretoises
 62
0
 10
-19.5
 20
-18.0
 30
0.0
 11
-19.5
 21
-15.0
 31
0.0
  0
LINE
  8
Entretoises
 62
0
 10
-19.5
 20
-15.0
 30
0.0
 11
-21.0
 21
-15.0
 31
0.0
  0
LINE
  8
Entretoises
 62
0
 10
-21.0
 20
-15.0
 30
0.0
 11
-21.0
 21
-18.0
 31
0.0
  0
LINE
  8
Entretoises
 62
0
 10
-19.5
 20
18.0
 30
0.0
 11
-21.0
 21
18.0
 31
0.0
  0
LINE
  8
Entretoises
 62
0
 10
-21.0
 20
18.0
 30
0.0
 11
-21.0
 21
15.0
 31
0.0
  0
LINE
  8
Entretoises
 62
0
 10
-21.0
 20
15.0
 30
0.0
 11
-19.5
 21
15.0
 31
0.0
  0
LINE
  8
Entretoises
 62
0
 10
-19.5
 20
15.0
 30
0.0
 11
-19.5
 21
18.0
 31
0.0
  0
LINE
  8
Entretoises
 62
0
 10
21.0
 20
-15.0
 30
0.0
 11
19.5
 21
-15.0
 31
0.0
  0
LINE
  8
Entretoises
 62
0
 10
19.5
 20
-15.0
 30
0.0
 11
19.5
 21
-18.0
 31
0.0
  0
LINE
  8
Entretoises
 62
0
 10
19.5
 20
-18.0
 30
0.0
 11
21.0
 21
-18.0
 31
0.0
  0
LINE
  8
Entretoises
 62
0
 10
21.0
 20
-18.0
 30
0.0
 11
21.0
 21
-15.0
 31
0.0
  0
LINE
  8
Entretoises
 62
0
 10
21.0
 20
18.0
 30
0.0
 11
19.5
 21
18.0
 31
0.0
  0
LINE
  8
Entretoises
 62
0
 10
19.5
 20
18.0
 30
0.0
 11
19.5
 21
15.0
 31
0.0
  0
LINE
  8
Entretoises
 62
0
 10
19.5
 20
15.0
 30
0.0
 11
21.0
 21
15.0
 31
0.0
  0
LINE
  8
Entretoises
 62
0
 10
21.0
 20
15.0
 30
0.0
 11
21.0
 21
18.0
 31
0.0
  0
CIRCLE
  8
Entretoises
 62
0
 10
-18.0
 20
-32.5
 30
0.0
 40
1.0
  0
CIRCLE
  8
Entretoises
 62
0
 10
18.0
 20
-32.5
 30
0.0
 40
1.0
  0
CIRCLE
  8
Entretoises
 62
0
 10
18.0
 20
32.5
 30
0.0
 40
1.0
  0
CIRCLE
  8
Entretoises
 62
0
 10
-18.0
 20
32.5
 30
0.0
 40
1.0
  0
ENDBLK
  0
ENDSEC
  0
SECTION
  2
ENTITIES
  0
INSERT
  2
PART__MIRRORING012
  8
Capteurs-PCB6
 62
0
 10
0.0
 20
0.0
 30
0.0
  0
INSERT
  2
PART__MIRRORING011
  8
Capteurs-PCB45
 62
0
 10
0.0
 20
0.0
 30
0.0
  0
INSERT
  2
CLONE128
  8
Capteurs-PCB45
 62
0
 10
0.0
 20
0.0
 30
0.0
  0
INSERT
  2
CLONE129
  8
Capteurs-PCB6
 62
0
 10
0.0
 20
0.0
 30
0.0
  0
INSERT
  2
PAD035
  8
Entretoises
 62
0
 10
0.0
 20
0.0
 30
0.0
  0
ENDSEC
  0
EOF
