  0
SECTION
  2
HEADER
  9
$ACADVER
  1
AC1009
  9
$INSBASE
 10
0.0
 20
0.0
 30
0.0
  9
$EXTMIN
 10
0.0
 20
0.0
 30
0.0
  9
$EXTMAX
 10
0.0
 20
0.0
 30
0.0
  0
ENDSEC
  0
SECTION
  2
TABLES
  0
TABLE
  2
VPORT
 70
0
  0
ENDTAB
  0
TABLE
  2
LTYPE
 70
1
  0
LTYPE
  2
CONTINUOUS
 70
0
  3
Solid line
 72
65
 73
0
 40
0.0
  0
ENDTAB
  0
TABLE
  2
LAYER
 70
1
  0
LAYER
  2
0
 70
64
 62
7
  6
continuous
  0
ENDTAB
  0
TABLE
  2
STYLE
 70
1
  0
STYLE
  2
STANDARD
 70
0
 40
0
 41
1.0
 50
0.0
 71
0
 42
1
 3
ARIAL.TTF
 4

  0
ENDTAB
  0
TABLE
  2
VIEW
 70
0
  0
ENDTAB
  0
ENDSEC
  0
SECTION
  2
BLOCKS
  0
BLOCK
  8
Base
  2
POCKET023
 70
0
 10
0.0
 20
0.0
 30
0.0
  3
POCKET023
  0
ARC
  8
Base
 62
0
 10
7.00000300316
 20
-38.0
 30
0.0
 40
5.0
 50
-90.0000344137
 51
-62.9711019565
  0
LINE
  8
Base
 62
0
 10
7.0
 20
-43.0
 30
0.0
 11
7.1054273576e-15
 21
-43.0
 31
0.0
  0
LINE
  8
Base
 62
0
 10
9.27220218005
 20
-42.4538871675
 30
0.0
 11
23.6355468456
 21
-35.1262059941
 31
0.0
  0
LINE
  8
Base
 62
0
 10
-6.99997236275
 20
-43.0
 30
0.0
 11
7.1054273576e-15
 21
-43.0
 31
0.0
  0
ARC
  8
Base
 62
0
 10
20.0
 20
-28.0000008936
 30
0.0
 40
8.0
 50
-62.9708755251
 51
6.38905694026e-06
  0
ARC
  8
Base
 62
0
 10
-6.99997392484
 20
-38.0
 30
0.0
 40
5.0
 50
-117.029116488
 51
-89.9999820998
  0
LINE
  8
Base
 62
0
 10
28.0
 20
-28.0
 30
0.0
 11
28.0
 21
-27.0
 31
0.0
  0
LINE
  8
Base
 62
0
 10
-9.27219008249
 20
-42.4538785045
 30
0.0
 11
-23.6355401954
 21
-35.1262080087
 31
0.0
  0
ARC
  8
Base
 62
0
 10
24.5999998486
 20
-27.0000000209
 30
0.0
 40
3.40000015142
 50
0.0
 51
71.0753546909
  0
ARC
  8
Base
 62
0
 10
-20.0
 20
-27.9999995156
 30
0.0
 40
8.0
 50
-179.999996585
 51
-117.029071006
  0
ARC
  8
Base
 62
0
 10
27.0
 20
-19.9999999127
 30
0.0
 40
4.0
 50
-179.999998793
 51
-108.924645206
  0
LINE
  8
Base
 62
0
 10
-28.0
 20
-28.0
 30
0.0
 11
-28.0
 21
-27.0
 31
0.0
  0
LINE
  8
Base
 62
0
 10
23.0
 20
-20.0
 30
0.0
 11
23.0
 21
20.0
 31
0.0
  0
ARC
  8
Base
 62
0
 10
-24.5999998486
 20
-26.9999994809
 30
0.0
 40
3.40000015142
 50
108.924645971
 51
-179.99999121
  0
ARC
  8
Base
 62
0
 10
26.0
 20
19.9999999546
 30
0.0
 40
3.0
 50
89.9999969134
 51
179.999999146
  0
ARC
  8
Base
 62
0
 10
-27.0
 20
-19.9999993727
 30
0.0
 40
4.0
 50
-71.0753553566
 51
-8.99506352022e-06
  0
ARC
  8
Base
 62
0
 10
26.0000030702
 20
31.8284182726
 30
0.0
 40
8.82841831801
 50
-90.0000188763
 51
-44.999999829
  0
LINE
  8
Base
 62
0
 10
-23.0
 20
-20.0
 30
0.0
 11
-23.0
 21
20.0
 31
0.0
  0
LINE
  8
Base
 62
0
 10
33.8284273312
 20
27.171573614
 30
0.0
 11
32.2426375486
 21
25.5857838314
 31
0.0
  0
ARC
  8
Base
 62
0
 10
-26.0
 20
19.9999999888
 30
0.0
 40
3.0
 50
0.0
 51
90.0000159021
  0
ARC
  8
Base
 62
0
 10
31.0
 20
30.0000005323
 30
0.0
 40
4.0
 50
-44.9999958174
 51
-7.63638364167e-06
  0
ARC
  8
Base
 62
0
 10
-26.000003204
 20
31.8284183068
 30
0.0
 40
8.82841831801
 50
-134.999988703
 51
-89.9999846102
  0
LINE
  8
Base
 62
0
 10
35.0
 20
31.5
 30
0.0
 11
35.0
 21
30.0
 31
0.0
  0
LINE
  8
Base
 62
0
 10
-32.2426364329
 20
25.5857826162
 30
0.0
 11
-33.828426494
 21
27.1715721203
 31
0.0
  0
ARC
  8
Base
 62
0
 10
31.0355330726
 20
31.4999995498
 30
0.0
 40
3.96446692741
 50
6.55795981255e-06
 51
45.0000123107
  0
ARC
  8
Base
 62
0
 10
-31.0
 20
29.9999998758
 30
0.0
 40
4.0
 50
179.999998292
 51
-134.999987223
  0
LINE
  8
Base
 62
0
 10
33.8388339184
 20
34.3033016003
 30
0.0
 11
17.0710679303
 21
51.0710675884
 31
0.0
  0
LINE
  8
Base
 62
0
 10
-35.0
 20
31.5
 30
0.0
 11
-35.0
 21
30.0
 31
0.0
  0
ARC
  8
Base
 62
0
 10
9.99999989496
 20
44.0
 30
0.0
 40
10.0
 50
44.9999981892
 51
89.9999993982
  0
ARC
  8
Base
 62
0
 10
-31.0355330726
 20
31.4999992786
 30
0.0
 40
3.96446692741
 50
135.000005857
 51
179.999989578
  0
LINE
  8
Base
 62
0
 10
-1.32261854308e-14
 20
54.0
 30
0.0
 11
9.99999999999
 21
54.0
 31
0.0
  0
LINE
  8
Base
 62
0
 10
-17.0710696586
 20
51.0710672677
 30
0.0
 11
-33.8388348073
 21
34.3033004402
 31
0.0
  0
LINE
  8
Base
 62
0
 10
-1.32261854308e-14
 20
54.0
 30
0.0
 11
-10.0
 21
54.0
 31
0.0
  0
ARC
  8
Base
 62
0
 10
-10.0000013026
 20
44.0
 30
0.0
 40
10.0
 50
89.9999925368
 51
135.000004409
  0
CIRCLE
  8
Base
 62
0
 10
18.0
 20
-32.5
 30
0.0
 40
1.0
  0
CIRCLE
  8
Base
 62
0
 10
9.18485099361e-15
 20
-25.0
 30
0.0
 40
10.75
  0
CIRCLE
  8
Base
 62
0
 10
18.0
 20
32.5
 30
0.0
 40
1.0
  0
LINE
  8
Base
 62
0
 10
19.4
 20
-4.0
 30
0.0
 11
19.4
 21
4.0
 31
0.0
  0
LINE
  8
Base
 62
0
 10
19.4
 20
-4.0
 30
0.0
 11
4.9
 21
-4.0
 31
0.0
  0
LINE
  8
Base
 62
0
 10
19.4
 20
4.0
 30
0.0
 11
4.9
 21
4.0
 31
0.0
  0
LINE
  8
Base
 62
0
 10
4.4
 20
-2.7
 30
0.0
 11
4.9
 21
-4.0
 31
0.0
  0
LINE
  8
Base
 62
0
 10
4.4
 20
2.7
 30
0.0
 11
4.9
 21
4.0
 31
0.0
  0
LINE
  8
Base
 62
0
 10
2.4
 20
-2.7
 30
0.0
 11
4.4
 21
-2.7
 31
0.0
  0
LINE
  8
Base
 62
0
 10
2.4
 20
2.7
 30
0.0
 11
4.4
 21
2.7
 31
0.0
  0
LINE
  8
Base
 62
0
 10
2.4
 20
2.7
 30
0.0
 11
2.4
 21
-2.7
 31
0.0
  0
CIRCLE
  8
Base
 62
0
 10
-9.18485099361e-15
 20
25.0
 30
0.0
 40
10.75
  0
CIRCLE
  8
Base
 62
0
 10
-18.0
 20
32.5
 30
0.0
 40
1.0
  0
LINE
  8
Base
 62
0
 10
-2.4
 20
2.7
 30
0.0
 11
-2.4
 21
-2.7
 31
0.0
  0
LINE
  8
Base
 62
0
 10
-2.4
 20
2.7
 30
0.0
 11
-4.4
 21
2.7
 31
0.0
  0
LINE
  8
Base
 62
0
 10
-2.4
 20
-2.7
 30
0.0
 11
-4.4
 21
-2.7
 31
0.0
  0
LINE
  8
Base
 62
0
 10
-4.4
 20
2.7
 30
0.0
 11
-4.9
 21
4.0
 31
0.0
  0
LINE
  8
Base
 62
0
 10
-4.4
 20
-2.7
 30
0.0
 11
-4.9
 21
-4.0
 31
0.0
  0
LINE
  8
Base
 62
0
 10
-19.4
 20
4.0
 30
0.0
 11
-4.9
 21
4.0
 31
0.0
  0
LINE
  8
Base
 62
0
 10
-19.4
 20
-4.0
 30
0.0
 11
-4.9
 21
-4.0
 31
0.0
  0
LINE
  8
Base
 62
0
 10
-19.4
 20
-4.0
 30
0.0
 11
-19.4
 21
4.0
 31
0.0
  0
CIRCLE
  8
Base
 62
0
 10
-18.0
 20
-32.5
 30
0.0
 40
1.0
  0
ENDBLK
  0
ENDSEC
  0
SECTION
  2
ENTITIES
  0
INSERT
  2
POCKET023
  8
Base
 62
0
 10
0.0
 20
0.0
 30
0.0
  0
ENDSEC
  0
EOF
