  0
SECTION
  2
HEADER
  9
$ACADVER
  1
AC1009
  9
$EXTMAX
 10
35.0
 20
54.0
 30
0.0
  9
$EXTMIN
 10
-35.0
 20
-43.0
 30
0.0
  9
$INSUNITS
 70
     4
  9
$LUNITS
 70
     2
  9
$LUPREC
 70
     4
  9
$MEASUREMENT
 70
     1
  0
ENDSEC
  0
SECTION
  2
TABLES
  0
TABLE
  2
LAYER
 70
     1
  0
LAYER
  2
0
 70
     0
 62
     7
  6
Continuous
  0
LAYER
  2
Base
 70
     0
 62
    70
  6
Continuous
  0
ENDTAB
  0
TABLE
  2
APPID
 70
     1
  0
APPID
  2
ACAD
 70
     0
  0
ENDTAB
  0
ENDSEC
  0
SECTION
  2
ENTITIES
  0
CIRCLE
  8
Base
 10
18.0
 20
32.5
 30
0.0
 40
1.0
  0
CIRCLE
  8
Base
 10
0.0
 20
25.0
 30
0.0
 40
10.75
  0
CIRCLE
  8
Base
 10
-18.0
 20
32.5
 30
0.0
 40
1.0
  0
CIRCLE
  8
Base
 10
-18.0
 20
-32.5
 30
0.0
 40
1.0
  0
CIRCLE
  8
Base
 10
0.0
 20
-25.0
 30
0.0
 40
10.75
  0
CIRCLE
  8
Base
 10
18.0
 20
-32.5
 30
0.0
 40
1.0
  0
POLYLINE
  8
Base
 66
     1
 10
0.0
 20
0.0
 30
0.0
 70
     1
  0
VERTEX
  8
Base
 10
-5.375
 20
-15.6902269093173
 42
1.7320508075689
  0
VERTEX
  8
Base
 10
10.75
 20
-25.0
 42
0.5773502691896
  0
SEQEND
  0
POLYLINE
  8
Base
 66
     1
 10
0.0
 20
0.0
 30
0.0
 70
     1
  0
VERTEX
  8
Base
 10
-5.375
 20
34.3097730906827
 42
1.7320508075689
  0
VERTEX
  8
Base
 10
10.75
 20
25.0
 42
0.5773502691896
  0
SEQEND
  0
POLYLINE
  8
Base
 66
     1
 10
0.0
 20
0.0
 30
0.0
 70
     1
  0
VERTEX
  8
Base
 10
-23.0
 20
19.9999999993035
 42
0.0
  0
VERTEX
  8
Base
 10
-23.0
 20
-20.0
 42
-0.3204650437974
  0
VERTEX
  8
Base
 10
-25.7027026505217
 20
-23.7837836785931
 42
0.3204650491122
  0
VERTEX
  8
Base
 10
-28.00000000002
 20
-27.0000000209
 42
0.0
  0
VERTEX
  8
Base
 10
-28.0
 20
-28.0000017770761
 42
0.2818919559081
  0
VERTEX
  8
Base
 10
-23.6355468456433
 20
-35.1262059940117
 42
0.0
  0
VERTEX
  8
Base
 10
-9.2722021800143
 20
-42.4538871674867
 42
0.1184855070908
  0
VERTEX
  8
Base
 10
-7.0
 20
-43.0
 42
0.0
  0
VERTEX
  8
Base
 10
6.9999754856472
 20
-42.9999999999998
 42
0.1184860305601
  0
VERTEX
  8
Base
 10
9.27219008249
 20
-42.4538785045
 42
0.0
  0
VERTEX
  8
Base
 10
23.6355401954324
 20
-35.1262080087186
 42
0.281892221517
  0
VERTEX
  8
Base
 10
28.0
 20
-28.0
 42
0.0
  0
VERTEX
  8
Base
 10
28.00000000002
 20
-26.999998956222
 42
0.3204650033848
  0
VERTEX
  8
Base
 10
25.7027026877151
 20
-23.7837831513452
 42
-0.3204650090378
  0
VERTEX
  8
Base
 10
23.0
 20
-20.0
 42
0.0
  0
VERTEX
  8
Base
 10
23.0
 20
19.9999999888
 42
-0.4142136436639
  0
VERTEX
  8
Base
 10
26.0000008326632
 20
22.9999999887903
 42
0.1989123859444
  0
VERTEX
  8
Base
 10
32.2426364329
 20
25.5857826162
 42
0.0
  0
VERTEX
  8
Base
 10
33.8284264940048
 20
27.1715721203126
 42
0.198912433081
  0
VERTEX
  8
Base
 10
35.0
 20
30.0
 42
0.0
  0
VERTEX
  8
Base
 10
35.0000000000099
 20
31.4999999997042
 42
0.1989122935426
  0
VERTEX
  8
Base
 10
33.8388348073
 20
34.3033004402
 42
0.0
  0
VERTEX
  8
Base
 10
17.0710696586199
 20
51.071067267711
 42
0.1989123532156
  0
VERTEX
  8
Base
 10
10.0000000000259
 20
53.9999999999999
 42
0.0
  0
VERTEX
  8
Base
 10
-9.99999999999
 20
54.0
 42
0.1989123728645
  0
VERTEX
  8
Base
 10
-17.0710679303272
 20
51.0710675883638
 42
0.0
  0
VERTEX
  8
Base
 10
-33.8388351240124
 20
34.3033003946876
 42
0.1989122817038
  0
VERTEX
  8
Base
 10
-35.00000000001
 20
31.5000000035677
 42
0.0
  0
VERTEX
  8
Base
 10
-35.0
 20
30.0
 42
0.1989123137691
  0
VERTEX
  8
Base
 10
-33.8284273312415
 20
27.1715736140491
 42
0.0
  0
VERTEX
  8
Base
 10
-32.2426375486
 20
25.5857838314
 42
0.1989124537775
  0
VERTEX
  8
Base
 10
-26.0000001616459
 20
22.9999999545905
 42
-0.4142135737872
  0
SEQEND
  0
LINE
  8
Base
 10
-21.0
 20
18.0
 30
0.0
 11
-19.5
 21
18.0
 31
0.0
  0
LINE
  8
Base
 10
-19.5
 20
18.0
 30
0.0
 11
-19.5
 21
15.0
 31
0.0
  0
LINE
  8
Base
 10
-19.5
 20
15.0
 30
0.0
 11
-21.0
 21
15.0
 31
0.0
  0
LINE
  8
Base
 10
-21.0
 20
15.0
 30
0.0
 11
-21.0
 21
18.0
 31
0.0
  0
LINE
  8
Base
 10
-21.0
 20
-15.0
 30
0.0
 11
-19.5
 21
-15.0
 31
0.0
  0
LINE
  8
Base
 10
-19.5
 20
-15.0
 30
0.0
 11
-19.5
 21
-18.0
 31
0.0
  0
LINE
  8
Base
 10
-19.5
 20
-18.0
 30
0.0
 11
-21.0
 21
-18.0
 31
0.0
  0
LINE
  8
Base
 10
-21.0
 20
-18.0
 30
0.0
 11
-21.0
 21
-15.0
 31
0.0
  0
LINE
  8
Base
 10
19.5
 20
18.0
 30
0.0
 11
21.0
 21
18.0
 31
0.0
  0
LINE
  8
Base
 10
21.0
 20
18.0
 30
0.0
 11
21.0
 21
15.0
 31
0.0
  0
LINE
  8
Base
 10
21.0
 20
15.0
 30
0.0
 11
19.5
 21
15.0
 31
0.0
  0
LINE
  8
Base
 10
19.5
 20
15.0
 30
0.0
 11
19.5
 21
18.0
 31
0.0
  0
LINE
  8
Base
 10
21.0
 20
-18.0
 30
0.0
 11
19.5
 21
-18.0
 31
0.0
  0
LINE
  8
Base
 10
19.5
 20
-18.0
 30
0.0
 11
19.5
 21
-15.0
 31
0.0
  0
LINE
  8
Base
 10
19.5
 20
-15.0
 30
0.0
 11
21.0
 21
-15.0
 31
0.0
  0
LINE
  8
Base
 10
21.0
 20
-15.0
 30
0.0
 11
21.0
 21
-18.0
 31
0.0
  0
LINE
  8
Base
 10
4.4
 20
-2.7
 30
0.0
 11
2.4
 21
-2.7
 31
0.0
  0
LINE
  8
Base
 10
2.4
 20
-2.7
 30
0.0
 11
2.4
 21
2.7
 31
0.0
  0
LINE
  8
Base
 10
2.4
 20
2.7
 30
0.0
 11
4.4
 21
2.7
 31
0.0
  0
LINE
  8
Base
 10
4.4
 20
2.7
 30
0.0
 11
4.9
 21
4.0
 31
0.0
  0
LINE
  8
Base
 10
4.9
 20
4.0
 30
0.0
 11
19.4
 21
4.0
 31
0.0
  0
LINE
  8
Base
 10
19.4
 20
4.0
 30
0.0
 11
19.4
 21
-4.0
 31
0.0
  0
LINE
  8
Base
 10
19.4
 20
-4.0
 30
0.0
 11
4.9
 21
-4.0
 31
0.0
  0
LINE
  8
Base
 10
4.9
 20
-4.0
 30
0.0
 11
4.4
 21
-2.7
 31
0.0
  0
LINE
  8
Base
 10
-4.4
 20
-2.7
 30
0.0
 11
-4.9
 21
-4.0
 31
0.0
  0
LINE
  8
Base
 10
-4.9
 20
-4.0
 30
0.0
 11
-19.4
 21
-4.0
 31
0.0
  0
LINE
  8
Base
 10
-19.4
 20
-4.0
 30
0.0
 11
-19.4
 21
4.0
 31
0.0
  0
LINE
  8
Base
 10
-19.4
 20
4.0
 30
0.0
 11
-4.9
 21
4.0
 31
0.0
  0
LINE
  8
Base
 10
-4.9
 20
4.0
 30
0.0
 11
-4.4
 21
2.7
 31
0.0
  0
LINE
  8
Base
 10
-4.4
 20
2.7
 30
0.0
 11
-2.4
 21
2.7
 31
0.0
  0
LINE
  8
Base
 10
-2.4
 20
2.7
 30
0.0
 11
-2.4
 21
-2.7
 31
0.0
  0
LINE
  8
Base
 10
-2.4
 20
-2.7
 30
0.0
 11
-4.4
 21
-2.7
 31
0.0
  0
ENDSEC
  0
EOF
