  0
SECTION
  2
HEADER
  9
$ACADVER
  1
AC1009
  9
$EXTMAX
 10
11.0
 20
21.0
 30
0.0
  9
$EXTMIN
 10
-15.0
 20
-1.5
 30
0.0
  9
$INSUNITS
 70
     4
  9
$LUNITS
 70
     2
  9
$LUPREC
 70
     4
  9
$MEASUREMENT
 70
     1
  0
ENDSEC
  0
SECTION
  2
TABLES
  0
TABLE
  2
LAYER
 70
     1
  0
LAYER
  2
0
 70
     0
 62
     7
  6
Continuous
  0
LAYER
  2
SupportsCapteurs
 70
     0
 62
    70
  6
Continuous
  0
LAYER
  2
DiodesLazer
 70
     0
 62
    70
  6
Continuous
  0
ENDTAB
  0
TABLE
  2
APPID
 70
     1
  0
APPID
  2
ACAD
 70
     0
  0
ENDTAB
  0
ENDSEC
  0
SECTION
  2
ENTITIES
  0
CIRCLE
  8
DiodesLazer
 10
6.8998468635
 20
10.1099982439
 30
0.0
 40
0.3
  0
CIRCLE
  8
DiodesLazer
 10
6.8998468635
 20
12.6499982439
 30
0.0
 40
0.3
  0
CIRCLE
  8
DiodesLazer
 10
-6.5352016547
 20
10.0895112924
 30
0.0
 40
0.3
  0
CIRCLE
  8
DiodesLazer
 10
-6.5352016547
 20
12.6295112924
 30
0.0
 40
0.3
  0
CIRCLE
  8
DiodesLazer
 10
8.1698468417318
 20
11.379996436563
 30
0.0
 40
0.3
  0
CIRCLE
  8
DiodesLazer
 10
-5.2652015515152
 20
11.3595106346765
 30
0.0
 40
0.3
  0
CIRCLE
  8
DiodesLazer
 10
-2.0
 20
10.1100046332184
 30
0.0
 40
0.3
  0
CIRCLE
  8
DiodesLazer
 10
-2.0
 20
12.6500046332184
 30
0.0
 40
0.3
  0
CIRCLE
  8
DiodesLazer
 10
-0.73
 20
11.3800046332184
 30
0.0
 40
0.3
  0
POLYLINE
  8
DiodesLazer
 66
     1
 10
0.0
 20
0.0
 30
0.0
 70
     1
  0
VERTEX
  8
DiodesLazer
 10
-10.0
 20
2.5
 42
0.4142135623731
  0
VERTEX
  8
DiodesLazer
 10
-9.0
 20
1.5
 42
0.0
  0
VERTEX
  8
DiodesLazer
 10
-4.0
 20
1.5
 42
0.4142135623731
  0
VERTEX
  8
DiodesLazer
 10
-2.0
 20
3.4999999246054
 42
0.0
  0
VERTEX
  8
DiodesLazer
 10
-2.0
 20
5.0
 42
0.4142135623731
  0
VERTEX
  8
DiodesLazer
 10
-3.0
 20
6.0
 42
0.0
  0
VERTEX
  8
DiodesLazer
 10
-8.0
 20
6.0
 42
0.4142135623731
  0
VERTEX
  8
DiodesLazer
 10
-10.0
 20
4.0
 42
0.0
  0
SEQEND
  0
POLYLINE
  8
DiodesLazer
 66
     1
 10
0.0
 20
0.0
 30
0.0
 70
     1
  0
VERTEX
  8
DiodesLazer
 10
-12.0
 20
3.5
 42
0.0
  0
VERTEX
  8
DiodesLazer
 10
-15.0
 20
0.5
 42
0.0
  0
VERTEX
  8
DiodesLazer
 10
-15.0
 20
0.0
 42
0.0
  0
VERTEX
  8
DiodesLazer
 10
-14.0
 20
0.0
 42
0.0
  0
VERTEX
  8
DiodesLazer
 10
-12.7071067811866
 20
0.0
 42
-1.0
  0
VERTEX
  8
DiodesLazer
 10
-12.0000000000001
 20
-0.7071067811865
 42
0.0
  0
VERTEX
  8
DiodesLazer
 10
-12.0
 20
-1.5
 42
0.0
  0
VERTEX
  8
DiodesLazer
 10
-8.0
 20
-1.5
 42
0.0
  0
VERTEX
  8
DiodesLazer
 10
-8.0
 20
-0.7071067811865
 42
-1.0
  0
VERTEX
  8
DiodesLazer
 10
-7.2928932188135
 20
0.0
 42
0.0
  0
VERTEX
  8
DiodesLazer
 10
1.0
 20
0.0
 42
0.0
  0
VERTEX
  8
DiodesLazer
 10
1.0
 20
0.5
 42
0.0
  0
VERTEX
  8
DiodesLazer
 10
0.0
 20
1.5
 42
0.0
  0
VERTEX
  8
DiodesLazer
 10
0.0
 20
4.0
 42
0.0
  0
VERTEX
  8
DiodesLazer
 10
0.0
 20
7.0
 42
0.0
  0
VERTEX
  8
DiodesLazer
 10
1.0
 20
8.0
 42
0.0
  0
VERTEX
  8
DiodesLazer
 10
4.0
 20
8.0
 42
0.0
  0
VERTEX
  8
DiodesLazer
 10
10.0
 20
8.0
 42
0.0
  0
VERTEX
  8
DiodesLazer
 10
10.0
 20
17.0
 42
0.0
  0
VERTEX
  8
DiodesLazer
 10
11.0
 20
18.0
 42
0.0
  0
VERTEX
  8
DiodesLazer
 10
11.0
 20
19.0
 42
0.0
  0
VERTEX
  8
DiodesLazer
 10
10.7071067811865
 20
19.0
 42
-0.4142135623731
  0
VERTEX
  8
DiodesLazer
 10
10.0
 20
19.0
 42
-0.4142135623731
  0
VERTEX
  8
DiodesLazer
 10
10.0
 20
19.7071067811865
 42
0.0
  0
VERTEX
  8
DiodesLazer
 10
10.0
 20
21.0
 42
0.0
  0
VERTEX
  8
DiodesLazer
 10
2.0
 20
21.0
 42
0.0
  0
VERTEX
  8
DiodesLazer
 10
2.0
 20
19.7071067811866
 42
-0.4142135623731
  0
VERTEX
  8
DiodesLazer
 10
2.0
 20
19.0
 42
-0.4142135623731
  0
VERTEX
  8
DiodesLazer
 10
1.2928932188135
 20
19.0
 42
0.0
  0
VERTEX
  8
DiodesLazer
 10
-4.2928932188135
 20
19.0
 42
-0.4142135623731
  0
VERTEX
  8
DiodesLazer
 10
-5.0
 20
19.0
 42
-0.4142135623731
  0
VERTEX
  8
DiodesLazer
 10
-5.0
 20
19.7071067811865
 42
0.0
  0
VERTEX
  8
DiodesLazer
 10
-5.0
 20
21.0
 42
0.0
  0
VERTEX
  8
DiodesLazer
 10
-10.0
 20
21.0
 42
0.0
  0
VERTEX
  8
DiodesLazer
 10
-10.0
 20
19.7071067811866
 42
-0.4142135623731
  0
VERTEX
  8
DiodesLazer
 10
-10.0
 20
19.0
 42
-0.4142135623731
  0
VERTEX
  8
DiodesLazer
 10
-10.7071067811865
 20
19.0
 42
0.0
  0
VERTEX
  8
DiodesLazer
 10
-11.0
 20
19.0
 42
0.0
  0
VERTEX
  8
DiodesLazer
 10
-11.0
 20
18.0
 42
0.0
  0
VERTEX
  8
DiodesLazer
 10
-10.0
 20
17.0
 42
0.0
  0
VERTEX
  8
DiodesLazer
 10
-10.0
 20
8.7071067811866
 42
-1.0
  0
VERTEX
  8
DiodesLazer
 10
-10.7071067811866
 20
8.0
 42
0.0
  0
VERTEX
  8
DiodesLazer
 10
-13.0
 20
8.0
 42
0.0
  0
VERTEX
  8
DiodesLazer
 10
-13.0
 20
7.5
 42
0.0
  0
VERTEX
  8
DiodesLazer
 10
-12.0
 20
6.5
 42
0.0
  0
SEQEND
  0
ENDSEC
  0
EOF
