  0
SECTION
  2
HEADER
  9
$ACADVER
  1
AC1009
  9
$INSBASE
 10
0.0
 20
0.0
 30
0.0
  9
$EXTMIN
 10
0.0
 20
0.0
 30
0.0
  9
$EXTMAX
 10
0.0
 20
0.0
 30
0.0
  0
ENDSEC
  0
SECTION
  2
TABLES
  0
TABLE
  2
VPORT
 70
0
  0
ENDTAB
  0
TABLE
  2
LTYPE
 70
1
  0
LTYPE
  2
CONTINUOUS
 70
0
  3
Solid line
 72
65
 73
0
 40
0.0
  0
ENDTAB
  0
TABLE
  2
LAYER
 70
1
  0
LAYER
  2
0
 70
64
 62
7
  6
continuous
  0
ENDTAB
  0
TABLE
  2
STYLE
 70
1
  0
STYLE
  2
STANDARD
 70
0
 40
0
 41
1.0
 50
0.0
 71
0
 42
1
 3
ARIAL.TTF
 4

  0
ENDTAB
  0
TABLE
  2
VIEW
 70
0
  0
ENDTAB
  0
ENDSEC
  0
SECTION
  2
BLOCKS
  0
BLOCK
  8
SupportsCapteurs
  2
POCKET030
 70
0
 10
0.0
 20
0.0
 30
0.0
  3
POCKET030
  0
POLYLINE
  8
SupportsCapteurs
 62
0
 70
0
 66
1
 10
0.0
 20
0.0
 30
0.0
  0
VERTEX
  8
SupportsCapteurs
 10
-28.7326716627
 20
-9.0
 30
0.0
  0
VERTEX
  8
SupportsCapteurs
 10
-28.7314219231
 20
-9.04997916927
 30
0.0
  0
VERTEX
  8
SupportsCapteurs
 10
-28.727675828
 20
-9.09983341665
 30
0.0
  0
VERTEX
  8
SupportsCapteurs
 10
-28.7214427407
 20
-9.14943813247
 30
0.0
  0
VERTEX
  8
SupportsCapteurs
 10
-28.7127382406
 20
-9.1986693308
 30
0.0
  0
VERTEX
  8
SupportsCapteurs
 10
-28.7015840844
 20
-9.24740395925
 30
0.0
  0
VERTEX
  8
SupportsCapteurs
 10
-28.6880081519
 20
-9.29552020666
 30
0.0
  0
VERTEX
  8
SupportsCapteurs
 10
-28.6720443756
 20
-9.34289780746
 30
0.0
  0
VERTEX
  8
SupportsCapteurs
 10
-28.6537326567
 20
-9.38941834231
 30
0.0
  0
VERTEX
  8
SupportsCapteurs
 10
-28.6331187651
 20
-9.43496553411
 30
0.0
  0
VERTEX
  8
SupportsCapteurs
 10
-28.6102542246
 20
-9.4794255386
 30
0.0
  0
VERTEX
  8
SupportsCapteurs
 10
-28.5851961848
 20
-9.52268722893
 30
0.0
  0
VERTEX
  8
SupportsCapteurs
 10
-28.5580072776
 20
-9.5646424734
 30
0.0
  0
VERTEX
  8
SupportsCapteurs
 10
-28.5287554613
 20
-9.60518640574
 30
0.0
  0
VERTEX
  8
SupportsCapteurs
 10
-28.49751385
 20
-9.64421768724
 30
0.0
  0
VERTEX
  8
SupportsCapteurs
 10
-28.4643605316
 20
-9.68163876002
 30
0.0
  0
VERTEX
  8
SupportsCapteurs
 10
-28.4293783721
 20
-9.7173560909
 30
0.0
  0
VERTEX
  8
SupportsCapteurs
 10
-28.3926548086
 20
-9.75128040514
 30
0.0
  0
VERTEX
  8
SupportsCapteurs
 10
-28.354281631
 20
-9.78332690963
 30
0.0
  0
VERTEX
  8
SupportsCapteurs
 10
-28.3143547522
 20
-9.81341550479
 30
0.0
  0
VERTEX
  8
SupportsCapteurs
 10
-28.2729739686
 20
-9.84147098481
 30
0.0
  0
VERTEX
  8
SupportsCapteurs
 10
-28.2302427106
 20
-9.86742322559
 30
0.0
  0
VERTEX
  8
SupportsCapteurs
 10
-28.1862677842
 20
-9.89120736006
 30
0.0
  0
VERTEX
  8
SupportsCapteurs
 10
-28.1411591036
 20
-9.91276394026
 30
0.0
  0
VERTEX
  8
SupportsCapteurs
 10
-28.0950294172
 20
-9.93203908597
 30
0.0
  0
VERTEX
  8
SupportsCapteurs
 10
-28.0479940251
 20
-9.94898461936
 30
0.0
  0
VERTEX
  8
SupportsCapteurs
 10
-28.0001704914
 20
-9.96355818542
 30
0.0
  0
VERTEX
  8
SupportsCapteurs
 10
-27.9516783498
 20
-9.97572335783
 30
0.0
  0
VERTEX
  8
SupportsCapteurs
 10
-27.9026388056
 20
-9.98544972999
 30
0.0
  0
VERTEX
  8
SupportsCapteurs
 10
-27.8531744321
 20
-9.99271299104
 30
0.0
  0
VERTEX
  8
SupportsCapteurs
 10
-27.8034088644
 20
-9.9974949866
 30
0.0
  0
VERTEX
  8
SupportsCapteurs
 10
-27.7534664905
 20
-9.99978376419
 30
0.0
  0
VERTEX
  8
SupportsCapteurs
 10
-27.7326716627
 20
-10.0
 30
0.0
  0
SEQEND
  8
SupportsCapteurs
  0
POLYLINE
  8
SupportsCapteurs
 62
0
 70
0
 66
1
 10
0.0
 20
0.0
 30
0.0
  0
VERTEX
  8
SupportsCapteurs
 10
-23.7326716627
 20
-10.0
 30
0.0
  0
VERTEX
  8
SupportsCapteurs
 10
-23.6826924935
 20
-9.99875026039
 30
0.0
  0
VERTEX
  8
SupportsCapteurs
 10
-23.6328382461
 20
-9.99500416528
 30
0.0
  0
VERTEX
  8
SupportsCapteurs
 10
-23.5832335303
 20
-9.98877107794
 30
0.0
  0
VERTEX
  8
SupportsCapteurs
 10
-23.5340023319
 20
-9.98006657784
 30
0.0
  0
VERTEX
  8
SupportsCapteurs
 10
-23.4852677035
 20
-9.96891242171
 30
0.0
  0
VERTEX
  8
SupportsCapteurs
 10
-23.4371514561
 20
-9.95533648913
 30
0.0
  0
VERTEX
  8
SupportsCapteurs
 10
-23.3897738553
 20
-9.93937271285
 30
0.0
  0
VERTEX
  8
SupportsCapteurs
 10
-23.3432533204
 20
-9.921060994
 30
0.0
  0
VERTEX
  8
SupportsCapteurs
 10
-23.2977061286
 20
-9.90044710235
 30
0.0
  0
VERTEX
  8
SupportsCapteurs
 10
-23.2532461241
 20
-9.87758256189
 30
0.0
  0
VERTEX
  8
SupportsCapteurs
 10
-23.2099844338
 20
-9.85252452206
 30
0.0
  0
VERTEX
  8
SupportsCapteurs
 10
-23.1680291893
 20
-9.82533561491
 30
0.0
  0
VERTEX
  8
SupportsCapteurs
 10
-23.127485257
 20
-9.79608379855
 30
0.0
  0
VERTEX
  8
SupportsCapteurs
 10
-23.0884539755
 20
-9.76484218728
 30
0.0
  0
VERTEX
  8
SupportsCapteurs
 10
-23.0510329027
 20
-9.73168886887
 30
0.0
  0
VERTEX
  8
SupportsCapteurs
 10
-23.0153155718
 20
-9.69670670935
 30
0.0
  0
VERTEX
  8
SupportsCapteurs
 10
-22.9813912576
 20
-9.65998314588
 30
0.0
  0
VERTEX
  8
SupportsCapteurs
 10
-22.9493447531
 20
-9.62160996827
 30
0.0
  0
VERTEX
  8
SupportsCapteurs
 10
-22.9192561579
 20
-9.58168308946
 30
0.0
  0
VERTEX
  8
SupportsCapteurs
 10
-22.8912006779
 20
-9.54030230587
 30
0.0
  0
VERTEX
  8
SupportsCapteurs
 10
-22.8652484371
 20
-9.49757104789
 30
0.0
  0
VERTEX
  8
SupportsCapteurs
 10
-22.8414643027
 20
-9.45359612143
 30
0.0
  0
VERTEX
  8
SupportsCapteurs
 10
-22.8199077225
 20
-9.40848744088
 30
0.0
  0
VERTEX
  8
SupportsCapteurs
 10
-22.8006325768
 20
-9.36235775448
 30
0.0
  0
VERTEX
  8
SupportsCapteurs
 10
-22.7836870434
 20
-9.3153223624
 30
0.0
  0
VERTEX
  8
SupportsCapteurs
 10
-22.7691134773
 20
-9.26749882862
 30
0.0
  0
VERTEX
  8
SupportsCapteurs
 10
-22.7569483049
 20
-9.21900668709
 30
0.0
  0
VERTEX
  8
SupportsCapteurs
 10
-22.7472219327
 20
-9.1699671429
 30
0.0
  0
VERTEX
  8
SupportsCapteurs
 10
-22.7399586717
 20
-9.12050276937
 30
0.0
  0
VERTEX
  8
SupportsCapteurs
 10
-22.7351766761
 20
-9.07073720167
 30
0.0
  0
VERTEX
  8
SupportsCapteurs
 10
-22.7328878985
 20
-9.0207948278
 30
0.0
  0
VERTEX
  8
SupportsCapteurs
 10
-22.7326716627
 20
-9.0
 30
0.0
  0
SEQEND
  8
SupportsCapteurs
  0
LINE
  8
SupportsCapteurs
 62
0
 10
-28.7326716627
 20
-1.0
 30
0.0
 11
-30.7326716627
 21
-1.0
 31
0.0
  0
LINE
  8
SupportsCapteurs
 62
0
 10
-28.7326716627
 20
-9.0
 30
0.0
 11
-28.7326716627
 21
-1.0
 31
0.0
  0
LINE
  8
SupportsCapteurs
 62
0
 10
-23.7326716627
 20
-10.0
 30
0.0
 11
-27.7326716627
 21
-10.0
 31
0.0
  0
LINE
  8
SupportsCapteurs
 62
0
 10
-22.7326716627
 20
-1.0
 30
0.0
 11
-22.7326716627
 21
-9.0
 31
0.0
  0
LINE
  8
SupportsCapteurs
 62
0
 10
-20.7326716627
 20
-1.0
 30
0.0
 11
-22.7326716627
 21
-1.0
 31
0.0
  0
LINE
  8
SupportsCapteurs
 62
0
 10
-20.7326716627
 20
-1.0
 30
0.0
 11
-20.7326716627
 21
-20.0
 31
0.0
  0
LINE
  8
SupportsCapteurs
 62
0
 10
-20.7326716627
 20
-20.0
 30
0.0
 11
-30.7326716627
 21
-20.0
 31
0.0
  0
LINE
  8
SupportsCapteurs
 62
0
 10
-30.7326716627
 20
-1.0
 30
0.0
 11
-30.7326716627
 21
-20.0
 31
0.0
  0
ENDBLK
  0
BLOCK
  8
DiodesLazer
  2
CLONE088
 70
0
 10
0.0
 20
0.0
 30
0.0
  3
CLONE088
  0
POLYLINE
  8
DiodesLazer
 62
0
 70
0
 66
1
 10
0.0
 20
0.0
 30
0.0
  0
VERTEX
  8
DiodesLazer
 10
-26.5794560628
 20
-14.7599985428
 30
0.0
  0
VERTEX
  8
DiodesLazer
 10
-26.6294523823
 20
-14.7594730997
 30
0.0
  0
VERTEX
  8
DiodesLazer
 10
-26.6794266312
 20
-14.757897507
 30
0.0
  0
VERTEX
  8
DiodesLazer
 10
-26.7293567542
 20
-14.75527246
 30
0.0
  0
VERTEX
  8
DiodesLazer
 10
-26.7792207152
 20
-14.7515991173
 30
0.0
  0
VERTEX
  8
DiodesLazer
 10
-26.8289965074
 20
-14.7468791
 30
0.0
  0
VERTEX
  8
DiodesLazer
 10
-26.8786621629
 20
-14.7411144913
 30
0.0
  0
VERTEX
  8
DiodesLazer
 10
-26.9281957625
 20
-14.7343078353
 30
0.0
  0
VERTEX
  8
DiodesLazer
 10
-26.9775754451
 20
-14.726462136
 30
0.0
  0
VERTEX
  8
DiodesLazer
 10
-27.0267794177
 20
-14.717580856
 30
0.0
  0
VERTEX
  8
DiodesLazer
 10
-27.0757859648
 20
-14.7076679149
 30
0.0
  0
VERTEX
  8
DiodesLazer
 10
-27.1245734579
 20
-14.6967276878
 30
0.0
  0
VERTEX
  8
DiodesLazer
 10
-27.1731203653
 20
-14.6847650029
 30
0.0
  0
VERTEX
  8
DiodesLazer
 10
-27.2214052615
 20
-14.6717851397
 30
0.0
  0
VERTEX
  8
DiodesLazer
 10
-27.2694068367
 20
-14.6577938269
 30
0.0
  0
VERTEX
  8
DiodesLazer
 10
-27.3171039059
 20
-14.6427972392
 30
0.0
  0
VERTEX
  8
DiodesLazer
 10
-27.3644754187
 20
-14.6268019952
 30
0.0
  0
VERTEX
  8
DiodesLazer
 10
-27.4115004683
 20
-14.6098151543
 30
0.0
  0
VERTEX
  8
DiodesLazer
 10
-27.4581583007
 20
-14.5918442132
 30
0.0
  0
VERTEX
  8
DiodesLazer
 10
-27.5044283243
 20
-14.5728971033
 30
0.0
  0
VERTEX
  8
DiodesLazer
 10
-27.5502901182
 20
-14.5529821866
 30
0.0
  0
VERTEX
  8
DiodesLazer
 10
-27.5957234421
 20
-14.5321082523
 30
0.0
  0
VERTEX
  8
DiodesLazer
 10
-27.6407082446
 20
-14.5102845129
 30
0.0
  0
VERTEX
  8
DiodesLazer
 10
-27.6852246721
 20
-14.4875205999
 30
0.0
  0
VERTEX
  8
DiodesLazer
 10
-27.7292530779
 20
-14.4638265599
 30
0.0
  0
VERTEX
  8
DiodesLazer
 10
-27.7727740307
 20
-14.4392128499
 30
0.0
  0
VERTEX
  8
DiodesLazer
 10
-27.8157683232
 20
-14.413690333
 30
0.0
  0
VERTEX
  8
DiodesLazer
 10
-27.8582169802
 20
-14.387270273
 30
0.0
  0
VERTEX
  8
DiodesLazer
 10
-27.9001012677
 20
-14.3599643303
 30
0.0
  0
VERTEX
  8
DiodesLazer
 10
-27.9414027007
 20
-14.3317845558
 30
0.0
  0
VERTEX
  8
DiodesLazer
 10
-27.9821030511
 20
-14.3027433863
 30
0.0
  0
VERTEX
  8
DiodesLazer
 10
-28.0221843566
 20
-14.2728536388
 30
0.0
  0
VERTEX
  8
DiodesLazer
 10
-28.0616289277
 20
-14.2421285048
 30
0.0
  0
VERTEX
  8
DiodesLazer
 10
-28.1004193562
 20
-14.2105815443
 30
0.0
  0
VERTEX
  8
DiodesLazer
 10
-28.1385385222
 20
-14.1782266802
 30
0.0
  0
VERTEX
  8
DiodesLazer
 10
-28.1759696026
 20
-14.1450781919
 30
0.0
  0
VERTEX
  8
DiodesLazer
 10
-28.2126960775
 20
-14.111150709
 30
0.0
  0
VERTEX
  8
DiodesLazer
 10
-28.2487017382
 20
-14.076459205
 30
0.0
  0
VERTEX
  8
DiodesLazer
 10
-28.2839706941
 20
-14.0410189905
 30
0.0
  0
VERTEX
  8
DiodesLazer
 10
-28.3184873797
 20
-14.0048457066
 30
0.0
  0
VERTEX
  8
DiodesLazer
 10
-28.3522365615
 20
-13.9679553179
 30
0.0
  0
VERTEX
  8
DiodesLazer
 10
-28.3852033448
 20
-13.9303641055
 30
0.0
  0
VERTEX
  8
DiodesLazer
 10
-28.4173731801
 20
-13.8920886597
 30
0.0
  0
VERTEX
  8
DiodesLazer
 10
-28.4487318697
 20
-13.8531458729
 30
0.0
  0
VERTEX
  8
DiodesLazer
 10
-28.4792655738
 20
-13.8135529321
 30
0.0
  0
VERTEX
  8
DiodesLazer
 10
-28.5089608168
 20
-13.7733273109
 30
0.0
  0
VERTEX
  8
DiodesLazer
 10
-28.537804493
 20
-13.7324867625
 30
0.0
  0
VERTEX
  8
DiodesLazer
 10
-28.5657838728
 20
-13.6910493114
 30
0.0
  0
VERTEX
  8
DiodesLazer
 10
-28.5928866078
 20
-13.6490332453
 30
0.0
  0
VERTEX
  8
DiodesLazer
 10
-28.6191007365
 20
-13.6064571075
 30
0.0
  0
VERTEX
  8
DiodesLazer
 10
-28.6444146897
 20
-13.5633396885
 30
0.0
  0
VERTEX
  8
DiodesLazer
 10
-28.6688172954
 20
-13.5197000174
 30
0.0
  0
VERTEX
  8
DiodesLazer
 10
-28.6922977839
 20
-13.4755573542
 30
0.0
  0
VERTEX
  8
DiodesLazer
 10
-28.7148457923
 20
-13.4309311806
 30
0.0
  0
VERTEX
  8
DiodesLazer
 10
-28.7364513694
 20
-13.3858411918
 30
0.0
  0
VERTEX
  8
DiodesLazer
 10
-28.7571049798
 20
-13.3403072876
 30
0.0
  0
VERTEX
  8
DiodesLazer
 10
-28.7767975083
 20
-13.2943495639
 30
0.0
  0
VERTEX
  8
DiodesLazer
 10
-28.795520264
 20
-13.2479883034
 30
0.0
  0
VERTEX
  8
DiodesLazer
 10
-28.8132649837
 20
-13.2012439671
 30
0.0
  0
VERTEX
  8
DiodesLazer
 10
-28.8300238361
 20
-13.154137185
 30
0.0
  0
VERTEX
  8
DiodesLazer
 10
-28.8457894248
 20
-13.106688747
 30
0.0
  0
VERTEX
  8
DiodesLazer
 10
-28.860554792
 20
-13.058919594
 30
0.0
  0
VERTEX
  8
DiodesLazer
 10
-28.8743134211
 20
-13.0108508081
 30
0.0
  0
VERTEX
  8
DiodesLazer
 10
-28.88705924
 20
-12.9625036039
 30
0.0
  0
VERTEX
  8
DiodesLazer
 10
-28.8987866234
 20
-12.9138993188
 30
0.0
  0
VERTEX
  8
DiodesLazer
 10
-28.9094903956
 20
-12.8650594036
 30
0.0
  0
VERTEX
  8
DiodesLazer
 10
-28.9191658327
 20
-12.8160054132
 30
0.0
  0
VERTEX
  8
DiodesLazer
 10
-28.9278086645
 20
-12.766758997
 30
0.0
  0
VERTEX
  8
DiodesLazer
 10
-28.9354150766
 20
-12.7173418892
 30
0.0
  0
VERTEX
  8
DiodesLazer
 10
-28.941981712
 20
-12.6677758993
 30
0.0
  0
VERTEX
  8
DiodesLazer
 10
-28.9475056727
 20
-12.6180829027
 30
0.0
  0
VERTEX
  8
DiodesLazer
 10
-28.9519845207
 20
-12.5682848307
 30
0.0
  0
VERTEX
  8
DiodesLazer
 10
-28.9554162794
 20
-12.5184036611
 30
0.0
  0
VERTEX
  8
DiodesLazer
 10
-28.9577994341
 20
-12.4684614082
 30
0.0
  0
VERTEX
  8
DiodesLazer
 10
-28.9591329331
 20
-12.4184801133
 30
0.0
  0
VERTEX
  8
DiodesLazer
 10
-28.9594161879
 20
-12.3684818352
 30
0.0
  0
VERTEX
  8
DiodesLazer
 10
-28.9586490734
 20
-12.3184886397
 30
0.0
  0
VERTEX
  8
DiodesLazer
 10
-28.9568319283
 20
-12.2685225909
 30
0.0
  0
VERTEX
  8
DiodesLazer
 10
-28.9539655544
 20
-12.2186057405
 30
0.0
  0
VERTEX
  8
DiodesLazer
 10
-28.9500512169
 20
-12.1687601187
 30
0.0
  0
VERTEX
  8
DiodesLazer
 10
-28.9450906432
 20
-12.1190077241
 30
0.0
  0
VERTEX
  8
DiodesLazer
 10
-28.9390860227
 20
-12.0693705145
 30
0.0
  0
VERTEX
  8
DiodesLazer
 10
-28.9320400054
 20
-12.0198703963
 30
0.0
  0
VERTEX
  8
DiodesLazer
 10
-28.923955701
 20
-11.970529216
 30
0.0
  0
VERTEX
  8
DiodesLazer
 10
-28.9148366774
 20
-11.9213687496
 30
0.0
  0
VERTEX
  8
DiodesLazer
 10
-28.9046869591
 20
-11.8724106933
 30
0.0
  0
VERTEX
  8
DiodesLazer
 10
-28.8935110256
 20
-11.8236766543
 30
0.0
  0
VERTEX
  8
DiodesLazer
 10
-28.8813138092
 20
-11.7751881405
 30
0.0
  0
VERTEX
  8
DiodesLazer
 10
-28.8681006931
 20
-11.7269665519
 30
0.0
  0
VERTEX
  8
DiodesLazer
 10
-28.8538775086
 20
-11.6790331702
 30
0.0
  0
VERTEX
  8
DiodesLazer
 10
-28.8386505329
 20
-11.6314091504
 30
0.0
  0
VERTEX
  8
DiodesLazer
 10
-28.8224264864
 20
-11.5841155106
 30
0.0
  0
VERTEX
  8
DiodesLazer
 10
-28.8052125292
 20
-11.5371731232
 30
0.0
  0
VERTEX
  8
DiodesLazer
 10
-28.7870162585
 20
-11.4906027057
 30
0.0
  0
VERTEX
  8
DiodesLazer
 10
-28.767845705
 20
-11.4444248113
 30
0.0
  0
VERTEX
  8
DiodesLazer
 10
-28.7477093294
 20
-11.39865982
 30
0.0
  0
VERTEX
  8
DiodesLazer
 10
-28.7266160185
 20
-11.3533279296
 30
0.0
  0
VERTEX
  8
DiodesLazer
 10
-28.7045750817
 20
-11.3084491466
 30
0.0
  0
VERTEX
  8
DiodesLazer
 10
-28.6815962464
 20
-11.2640432779
 30
0.0
  0
VERTEX
  8
DiodesLazer
 10
-28.6576896541
 20
-11.2201299212
 30
0.0
  0
VERTEX
  8
DiodesLazer
 10
-28.6328658555
 20
-11.1767284572
 30
0.0
  0
VERTEX
  8
DiodesLazer
 10
-28.6071358063
 20
-11.1338580406
 30
0.0
  0
VERTEX
  8
DiodesLazer
 10
-28.5805108622
 20
-11.0915375916
 30
0.0
  0
VERTEX
  8
DiodesLazer
 10
-28.5530027737
 20
-11.0497857878
 30
0.0
  0
VERTEX
  8
DiodesLazer
 10
-28.5246236812
 20
-11.0086210558
 30
0.0
  0
VERTEX
  8
DiodesLazer
 10
-28.4953861093
 20
-10.9680615631
 30
0.0
  0
VERTEX
  8
DiodesLazer
 10
-28.4776496667
 20
-10.9443051751
 30
0.0
  0
SEQEND
  8
DiodesLazer
  0
POLYLINE
  8
DiodesLazer
 62
0
 70
0
 66
1
 10
0.0
 20
0.0
 30
0.0
  0
VERTEX
  8
DiodesLazer
 10
-24.6812189819
 20
-13.8156661859
 30
0.0
  0
VERTEX
  8
DiodesLazer
 10
-24.7117967265
 20
-13.855225124
 30
0.0
  0
VERTEX
  8
DiodesLazer
 10
-24.7431987326
 20
-13.8941329904
 30
0.0
  0
VERTEX
  8
DiodesLazer
 10
-24.7754111413
 20
-13.9323726136
 30
0.0
  0
VERTEX
  8
DiodesLazer
 10
-24.8084197361
 20
-13.969927117
 30
0.0
  0
VERTEX
  8
DiodesLazer
 10
-24.842209949
 20
-14.0067799264
 30
0.0
  0
VERTEX
  8
DiodesLazer
 10
-24.8767668673
 20
-14.0429147773
 30
0.0
  0
VERTEX
  8
DiodesLazer
 10
-24.9120752396
 20
-14.0783157222
 30
0.0
  0
VERTEX
  8
DiodesLazer
 10
-24.9481194831
 20
-14.1129671373
 30
0.0
  0
VERTEX
  8
DiodesLazer
 10
-24.9848836901
 20
-14.1468537295
 30
0.0
  0
VERTEX
  8
DiodesLazer
 10
-25.0223516352
 20
-14.1799605436
 30
0.0
  0
VERTEX
  8
DiodesLazer
 10
-25.0605067825
 20
-14.2122729682
 30
0.0
  0
VERTEX
  8
DiodesLazer
 10
-25.0993322927
 20
-14.2437767428
 30
0.0
  0
VERTEX
  8
DiodesLazer
 10
-25.1388110307
 20
-14.2744579635
 30
0.0
  0
VERTEX
  8
DiodesLazer
 10
-25.178925573
 20
-14.3043030896
 30
0.0
  0
VERTEX
  8
DiodesLazer
 10
-25.2196582156
 20
-14.3332989493
 30
0.0
  0
VERTEX
  8
DiodesLazer
 10
-25.2609909817
 20
-14.3614327456
 30
0.0
  0
VERTEX
  8
DiodesLazer
 10
-25.3029056296
 20
-14.3886920622
 30
0.0
  0
VERTEX
  8
DiodesLazer
 10
-25.3453836609
 20
-14.4150648685
 30
0.0
  0
VERTEX
  8
DiodesLazer
 10
-25.3884063284
 20
-14.4405395252
 30
0.0
  0
VERTEX
  8
DiodesLazer
 10
-25.4319546447
 20
-14.4651047893
 30
0.0
  0
VERTEX
  8
DiodesLazer
 10
-25.4760093903
 20
-14.4887498193
 30
0.0
  0
VERTEX
  8
DiodesLazer
 10
-25.5205511221
 20
-14.5114641799
 30
0.0
  0
VERTEX
  8
DiodesLazer
 10
-25.5655601824
 20
-14.5332378463
 30
0.0
  0
VERTEX
  8
DiodesLazer
 10
-25.6110167069
 20
-14.554061209
 30
0.0
  0
VERTEX
  8
DiodesLazer
 10
-25.656900634
 20
-14.5739250778
 30
0.0
  0
VERTEX
  8
DiodesLazer
 10
-25.7031917134
 20
-14.5928206862
 30
0.0
  0
VERTEX
  8
DiodesLazer
 10
-25.7498695153
 20
-14.6107396948
 30
0.0
  0
VERTEX
  8
DiodesLazer
 10
-25.7969134389
 20
-14.6276741953
 30
0.0
  0
VERTEX
  8
DiodesLazer
 10
-25.844302722
 20
-14.6436167138
 30
0.0
  0
VERTEX
  8
DiodesLazer
 10
-25.89201645
 20
-14.6585602144
 30
0.0
  0
VERTEX
  8
DiodesLazer
 10
-25.9400335651
 20
-14.6724981019
 30
0.0
  0
VERTEX
  8
DiodesLazer
 10
-25.9883328756
 20
-14.6854242251
 30
0.0
  0
VERTEX
  8
DiodesLazer
 10
-26.0368930652
 20
-14.6973328791
 30
0.0
  0
VERTEX
  8
DiodesLazer
 10
-26.0856927025
 20
-14.7082188082
 30
0.0
  0
VERTEX
  8
DiodesLazer
 10
-26.1347102504
 20
-14.7180772081
 30
0.0
  0
VERTEX
  8
DiodesLazer
 10
-26.1839240757
 20
-14.7269037279
 30
0.0
  0
VERTEX
  8
DiodesLazer
 10
-26.2333124585
 20
-14.7346944721
 30
0.0
  0
VERTEX
  8
DiodesLazer
 10
-26.282853602
 20
-14.7414460024
 30
0.0
  0
VERTEX
  8
DiodesLazer
 10
-26.3325256417
 20
-14.7471553391
 30
0.0
  0
VERTEX
  8
DiodesLazer
 10
-26.3823066555
 20
-14.7518199624
 30
0.0
  0
VERTEX
  8
DiodesLazer
 10
-26.4321746734
 20
-14.7554378137
 30
0.0
  0
VERTEX
  8
DiodesLazer
 10
-26.4821076866
 20
-14.7580072963
 30
0.0
  0
VERTEX
  8
DiodesLazer
 10
-26.532083658
 20
-14.7595272762
 30
0.0
  0
VERTEX
  8
DiodesLazer
 10
-26.5794560628
 20
-14.7599985428
 30
0.0
  0
SEQEND
  8
DiodesLazer
  0
POLYLINE
  8
DiodesLazer
 62
0
 70
1
 66
1
 10
0.0
 20
0.0
 30
0.0
  0
VERTEX
  8
DiodesLazer
 10
-26.5794366062
 20
-14.7599728179
 30
0.0
  0
VERTEX
  8
DiodesLazer
 10
-26.5294402815
 20
-14.7594478794
 30
0.0
  0
VERTEX
  8
DiodesLazer
 10
-26.4794660166
 20
-14.7578727911
 30
0.0
  0
VERTEX
  8
DiodesLazer
 10
-26.4295358671
 20
-14.7552482481
 30
0.0
  0
VERTEX
  8
DiodesLazer
 10
-26.379671869
 20
-14.7515754086
 30
0.0
  0
VERTEX
  8
DiodesLazer
 10
-26.3298960292
 20
-14.7468558937
 30
0.0
  0
VERTEX
  8
DiodesLazer
 10
-26.2802303155
 20
-14.7410917863
 30
0.0
  0
VERTEX
  8
DiodesLazer
 10
-26.2306966472
 20
-14.7342856302
 30
0.0
  0
VERTEX
  8
DiodesLazer
 10
-26.1813168854
 20
-14.7264404292
 30
0.0
  0
VERTEX
  8
DiodesLazer
 10
-26.1321128232
 20
-14.7175596459
 30
0.0
  0
VERTEX
  8
DiodesLazer
 10
-26.0831061761
 20
-14.7076471994
 30
0.0
  0
VERTEX
  8
DiodesLazer
 10
-26.0343185726
 20
-14.6967074647
 30
0.0
  0
VERTEX
  8
DiodesLazer
 10
-25.9857715444
 20
-14.6847452697
 30
0.0
  0
VERTEX
  8
DiodesLazer
 10
-25.9374865172
 20
-14.6717658939
 30
0.0
  0
VERTEX
  8
DiodesLazer
 10
-25.8894848008
 20
-14.6577750655
 30
0.0
  0
VERTEX
  8
DiodesLazer
 10
-25.8417875803
 20
-14.6427789593
 30
0.0
  0
VERTEX
  8
DiodesLazer
 10
-25.794415906
 20
-14.6267841934
 30
0.0
  0
VERTEX
  8
DiodesLazer
 10
-25.747390685
 20
-14.609797827
 30
0.0
  0
VERTEX
  8
DiodesLazer
 10
-25.7007326712
 20
-14.5918273569
 30
0.0
  0
VERTEX
  8
DiodesLazer
 10
-25.6544624564
 20
-14.572880714
 30
0.0
  0
VERTEX
  8
DiodesLazer
 10
-25.6086004615
 20
-14.5529662602
 30
0.0
  0
VERTEX
  8
DiodesLazer
 10
-25.5631669269
 20
-14.5320927844
 30
0.0
  0
VERTEX
  8
DiodesLazer
 10
-25.5181819042
 20
-14.510269499
 30
0.0
  0
VERTEX
  8
DiodesLazer
 10
-25.473665247
 20
-14.4875060353
 30
0.0
  0
VERTEX
  8
DiodesLazer
 10
-25.429636602
 20
-14.4638124397
 30
0.0
  0
VERTEX
  8
DiodesLazer
 10
-25.3861154007
 20
-14.439199169
 30
0.0
  0
VERTEX
  8
DiodesLazer
 10
-25.3431208507
 20
-14.4136770859
 30
0.0
  0
VERTEX
  8
DiodesLazer
 10
-25.300671927
 20
-14.3872574544
 30
0.0
  0
VERTEX
  8
DiodesLazer
 10
-25.2587873639
 20
-14.3599519344
 30
0.0
  0
VERTEX
  8
DiodesLazer
 10
-25.2174856466
 20
-14.3317725767
 30
0.0
  0
VERTEX
  8
DiodesLazer
 10
-25.176785003
 20
-14.302731818
 30
0.0
  0
VERTEX
  8
DiodesLazer
 10
-25.1367033958
 20
-14.2728424751
 30
0.0
  0
VERTEX
  8
DiodesLazer
 10
-25.0972585146
 20
-14.2421177391
 30
0.0
  0
VERTEX
  8
DiodesLazer
 10
-25.0584677678
 20
-14.2105711701
 30
0.0
  0
VERTEX
  8
DiodesLazer
 10
-25.0203482752
 20
-14.1782166908
 30
0.0
  0
VERTEX
  8
DiodesLazer
 10
-24.9829168603
 20
-14.1450685803
 30
0.0
  0
VERTEX
  8
DiodesLazer
 10
-24.946190043
 20
-14.1111414681
 30
0.0
  0
VERTEX
  8
DiodesLazer
 10
-24.9101840321
 20
-14.0764503275
 30
0.0
  0
VERTEX
  8
DiodesLazer
 10
-24.8749147185
 20
-14.0410104689
 30
0.0
  0
VERTEX
  8
DiodesLazer
 10
-24.8403976679
 20
-14.0048375334
 30
0.0
  0
VERTEX
  8
DiodesLazer
 10
-24.8066481137
 20
-13.9679474853
 30
0.0
  0
VERTEX
  8
DiodesLazer
 10
-24.773680951
 20
-13.9303566056
 30
0.0
  0
VERTEX
  8
DiodesLazer
 10
-24.7415107294
 20
-13.8920814845
 30
0.0
  0
VERTEX
  8
DiodesLazer
 10
-24.7101516468
 20
-13.8531390142
 30
0.0
  0
VERTEX
  8
DiodesLazer
 10
-24.6796175431
 20
-13.8135463815
 30
0.0
  0
VERTEX
  8
DiodesLazer
 10
-24.6499218942
 20
-13.7733210601
 30
0.0
  0
VERTEX
  8
DiodesLazer
 10
-24.6210778057
 20
-13.7324808028
 30
0.0
  0
VERTEX
  8
DiodesLazer
 10
-24.5930980077
 20
-13.6910436341
 30
0.0
  0
VERTEX
  8
DiodesLazer
 10
-24.5659948487
 20
-13.6490278415
 30
0.0
  0
VERTEX
  8
DiodesLazer
 10
-24.5397802902
 20
-13.6064519683
 30
0.0
  0
VERTEX
  8
DiodesLazer
 10
-24.5144659018
 20
-13.5633348047
 30
0.0
  0
VERTEX
  8
DiodesLazer
 10
-24.4900628557
 20
-13.51969538
 30
0.0
  0
VERTEX
  8
DiodesLazer
 10
-24.4665819217
 20
-13.4755529538
 30
0.0
  0
VERTEX
  8
DiodesLazer
 10
-24.4440334629
 20
-13.4309270078
 30
0.0
  0
VERTEX
  8
DiodesLazer
 10
-24.4224274308
 20
-13.385837237
 30
0.0
  0
VERTEX
  8
DiodesLazer
 10
-24.4017733608
 20
-13.3403035413
 30
0.0
  0
VERTEX
  8
DiodesLazer
 10
-24.3820803684
 20
-13.2943460163
 30
0.0
  0
VERTEX
  8
DiodesLazer
 10
-24.3633571449
 20
-13.2479849448
 30
0.0
  0
VERTEX
  8
DiodesLazer
 10
-24.3456119534
 20
-13.2012407876
 30
0.0
  0
VERTEX
  8
DiodesLazer
 10
-24.3288526256
 20
-13.1541341746
 30
0.0
  0
VERTEX
  8
DiodesLazer
 10
-24.3130865579
 20
-13.1066858958
 30
0.0
  0
VERTEX
  8
DiodesLazer
 10
-24.2983207086
 20
-13.0589168917
 30
0.0
  0
VERTEX
  8
DiodesLazer
 10
-24.2845615944
 20
-13.0108482447
 30
0.0
  0
VERTEX
  8
DiodesLazer
 10
-24.2718152876
 20
-12.9625011691
 30
0.0
  0
VERTEX
  8
DiodesLazer
 10
-24.2600874136
 20
-12.9138970024
 30
0.0
  0
VERTEX
  8
DiodesLazer
 10
-24.2493831485
 20
-12.8650571952
 30
0.0
  0
VERTEX
  8
DiodesLazer
 10
-24.2397072163
 20
-12.8160033025
 30
0.0
  0
VERTEX
  8
DiodesLazer
 10
-24.2310638875
 20
-12.7667569735
 30
0.0
  0
VERTEX
  8
DiodesLazer
 10
-24.2234569766
 20
-12.7173399425
 30
0.0
  0
VERTEX
  8
DiodesLazer
 10
-24.2168898409
 20
-12.6677740189
 30
0.0
  0
VERTEX
  8
DiodesLazer
 10
-24.2113653787
 20
-12.618081078
 30
0.0
  0
VERTEX
  8
DiodesLazer
 10
-24.2068860281
 20
-12.5682830513
 30
0.0
  0
VERTEX
  8
DiodesLazer
 10
-24.203453766
 20
-12.5184019162
 30
0.0
  0
VERTEX
  8
DiodesLazer
 10
-24.2010701073
 20
-12.4684596874
 30
0.0
  0
VERTEX
  8
DiodesLazer
 10
-24.1997361038
 20
-12.418478406
 30
0.0
  0
VERTEX
  8
DiodesLazer
 10
-24.1994523444
 20
-12.3684801307
 30
0.0
  0
VERTEX
  8
DiodesLazer
 10
-24.2002189543
 20
-12.3184869275
 30
0.0
  0
VERTEX
  8
DiodesLazer
 10
-24.2020355952
 20
-12.2685208604
 30
0.0
  0
VERTEX
  8
DiodesLazer
 10
-24.2049014652
 20
-12.218603981
 30
0.0
  0
VERTEX
  8
DiodesLazer
 10
-24.2088152997
 20
-12.1687583197
 30
0.0
  0
VERTEX
  8
DiodesLazer
 10
-24.2137753712
 20
-12.1190058751
 30
0.0
  0
VERTEX
  8
DiodesLazer
 10
-24.2197794907
 20
-12.0693686048
 30
0.0
  0
VERTEX
  8
DiodesLazer
 10
-24.2268250084
 20
-12.0198684156
 30
0.0
  0
VERTEX
  8
DiodesLazer
 10
-24.2349088148
 20
-11.9705271537
 30
0.0
  0
VERTEX
  8
DiodesLazer
 10
-24.2440273423
 20
-11.9213665952
 30
0.0
  0
VERTEX
  8
DiodesLazer
 10
-24.2541765665
 20
-11.8724084366
 30
0.0
  0
VERTEX
  8
DiodesLazer
 10
-24.2653520081
 20
-11.8236742847
 30
0.0
  0
VERTEX
  8
DiodesLazer
 10
-24.2775487351
 20
-11.7751856479
 30
0.0
  0
VERTEX
  8
DiodesLazer
 10
-24.2907613646
 20
-11.7269639258
 30
0.0
  0
VERTEX
  8
DiodesLazer
 10
-24.3049840653
 20
-11.6790304006
 30
0.0
  0
VERTEX
  8
DiodesLazer
 10
-24.3202105603
 20
-11.6314062271
 30
0.0
  0
VERTEX
  8
DiodesLazer
 10
-24.3364341295
 20
-11.5841124236
 30
0.0
  0
VERTEX
  8
DiodesLazer
 10
-24.3536476129
 20
-11.5371698625
 30
0.0
  0
VERTEX
  8
DiodesLazer
 10
-24.3718434136
 20
-11.4905992613
 30
0.0
  0
VERTEX
  8
DiodesLazer
 10
-24.3910135011
 20
-11.4444211735
 30
0.0
  0
VERTEX
  8
DiodesLazer
 10
-24.4111494148
 20
-11.3986559789
 30
0.0
  0
VERTEX
  8
DiodesLazer
 10
-24.4322422681
 20
-11.3533238756
 30
0.0
  0
VERTEX
  8
DiodesLazer
 10
-24.454282752
 20
-11.3084448702
 30
0.0
  0
VERTEX
  8
DiodesLazer
 10
-24.4772611391
 20
-11.2640387695
 30
0.0
  0
VERTEX
  8
DiodesLazer
 10
-24.5011672883
 20
-11.2201251716
 30
0.0
  0
VERTEX
  8
DiodesLazer
 10
-24.5259906488
 20
-11.1767234571
 30
0.0
  0
VERTEX
  8
DiodesLazer
 10
-24.5517202653
 20
-11.1338527807
 30
0.0
  0
VERTEX
  8
DiodesLazer
 10
-24.5783447823
 20
-11.091532063
 30
0.0
  0
VERTEX
  8
DiodesLazer
 10
-24.6058524494
 20
-11.0497799816
 30
0.0
  0
VERTEX
  8
DiodesLazer
 10
-24.6342311264
 20
-11.0086149632
 30
0.0
  0
VERTEX
  8
DiodesLazer
 10
-24.6634682889
 20
-10.9680551754
 30
0.0
  0
VERTEX
  8
DiodesLazer
 10
-24.6935510334
 20
-10.9281185189
 30
0.0
  0
VERTEX
  8
DiodesLazer
 10
-24.7244660832
 20
-10.888822619
 30
0.0
  0
VERTEX
  8
DiodesLazer
 10
-24.7561997945
 20
-10.8501848186
 30
0.0
  0
VERTEX
  8
DiodesLazer
 10
-24.7887381619
 20
-10.8122221698
 30
0.0
  0
VERTEX
  8
DiodesLazer
 10
-24.8220668251
 20
-10.7749514271
 30
0.0
  0
VERTEX
  8
DiodesLazer
 10
-24.8561710749
 20
-10.7383890394
 30
0.0
  0
VERTEX
  8
DiodesLazer
 10
-24.8910358599
 20
-10.702551143
 30
0.0
  0
VERTEX
  8
DiodesLazer
 10
-24.926645793
 20
-10.6674535544
 30
0.0
  0
VERTEX
  8
DiodesLazer
 10
-24.9629851581
 20
-10.6331117636
 30
0.0
  0
VERTEX
  8
DiodesLazer
 10
-25.0000379173
 20
-10.5995409268
 30
0.0
  0
VERTEX
  8
DiodesLazer
 10
-25.037787718
 20
-10.5667558601
 30
0.0
  0
VERTEX
  8
DiodesLazer
 10
-25.0762178998
 20
-10.5347710327
 30
0.0
  0
VERTEX
  8
DiodesLazer
 10
-25.115311502
 20
-10.5036005607
 30
0.0
  0
VERTEX
  8
DiodesLazer
 10
-25.1550512711
 20
-10.4732582008
 30
0.0
  0
VERTEX
  8
DiodesLazer
 10
-25.1954196685
 20
-10.4437573443
 30
0.0
  0
VERTEX
  8
DiodesLazer
 10
-25.2363988783
 20
-10.4151110108
 30
0.0
  0
VERTEX
  8
DiodesLazer
 10
-25.2779708147
 20
-10.3873318431
 30
0.0
  0
VERTEX
  8
DiodesLazer
 10
-25.3201171305
 20
-10.3604321011
 30
0.0
  0
VERTEX
  8
DiodesLazer
 10
-25.362819225
 20
-10.3344236567
 30
0.0
  0
VERTEX
  8
DiodesLazer
 10
-25.4060582522
 20
-10.3093179885
 30
0.0
  0
VERTEX
  8
DiodesLazer
 10
-25.4498151291
 20
-10.2851261763
 30
0.0
  0
VERTEX
  8
DiodesLazer
 10
-25.4940705442
 20
-10.261858897
 30
0.0
  0
VERTEX
  8
DiodesLazer
 10
-25.538804966
 20
-10.2395264193
 30
0.0
  0
VERTEX
  8
DiodesLazer
 10
-25.5839986515
 20
-10.2181385993
 30
0.0
  0
VERTEX
  8
DiodesLazer
 10
-25.6296316551
 20
-10.1977048763
 30
0.0
  0
VERTEX
  8
DiodesLazer
 10
-25.6756838372
 20
-10.1782342684
 30
0.0
  0
VERTEX
  8
DiodesLazer
 10
-25.7221348734
 20
-10.1597353687
 30
0.0
  0
VERTEX
  8
DiodesLazer
 10
-25.768964263
 20
-10.1422163414
 30
0.0
  0
VERTEX
  8
DiodesLazer
 10
-25.8161513387
 20
-10.1256849183
 30
0.0
  0
VERTEX
  8
DiodesLazer
 10
-25.8636752748
 20
-10.1101483955
 30
0.0
  0
VERTEX
  8
DiodesLazer
 10
-25.9115150975
 20
-10.0956136296
 30
0.0
  0
VERTEX
  8
DiodesLazer
 10
-25.9596496932
 20
-10.0820870354
 30
0.0
  0
VERTEX
  8
DiodesLazer
 10
-26.0080578184
 20
-10.0695745828
 30
0.0
  0
VERTEX
  8
DiodesLazer
 10
-26.0567181087
 20
-10.0580817938
 30
0.0
  0
VERTEX
  8
DiodesLazer
 10
-26.1056090886
 20
-10.0476137408
 30
0.0
  0
VERTEX
  8
DiodesLazer
 10
-26.1547091808
 20
-10.0381750436
 30
0.0
  0
VERTEX
  8
DiodesLazer
 10
-26.2039967155
 20
-10.0297698679
 30
0.0
  0
VERTEX
  8
DiodesLazer
 10
-26.2534499403
 20
-10.0224019233
 30
0.0
  0
VERTEX
  8
DiodesLazer
 10
-26.3030470297
 20
-10.0160744613
 30
0.0
  0
VERTEX
  8
DiodesLazer
 10
-26.3527660947
 20
-10.0107902747
 30
0.0
  0
VERTEX
  8
DiodesLazer
 10
-26.4025851924
 20
-10.0065516954
 30
0.0
  0
VERTEX
  8
DiodesLazer
 10
-26.4524823359
 20
-10.0033605942
 30
0.0
  0
VERTEX
  8
DiodesLazer
 10
-26.5024355036
 20
-10.0012183793
 30
0.0
  0
VERTEX
  8
DiodesLazer
 10
-26.5524226495
 20
-10.0001259963
 30
0.0
  0
VERTEX
  8
DiodesLazer
 10
-26.6024217123
 20
-10.0000839272
 30
0.0
  0
VERTEX
  8
DiodesLazer
 10
-26.6524106257
 20
-10.0010921906
 30
0.0
  0
VERTEX
  8
DiodesLazer
 10
-26.7023673276
 20
-10.0031503415
 30
0.0
  0
VERTEX
  8
DiodesLazer
 10
-26.7522697704
 20
-10.0062574716
 30
0.0
  0
VERTEX
  8
DiodesLazer
 10
-26.8020959302
 20
-10.0104122096
 30
0.0
  0
VERTEX
  8
DiodesLazer
 10
-26.851823817
 20
-10.0156127218
 30
0.0
  0
VERTEX
  8
DiodesLazer
 10
-26.901431484
 20
-10.0218567131
 30
0.0
  0
VERTEX
  8
DiodesLazer
 10
-26.9508970375
 20
-10.0291414278
 30
0.0
  0
VERTEX
  8
DiodesLazer
 10
-27.0001986466
 20
-10.0374636508
 30
0.0
  0
VERTEX
  8
DiodesLazer
 10
-27.0493145526
 20
-10.0468197093
 30
0.0
  0
VERTEX
  8
DiodesLazer
 10
-27.0982230789
 20
-10.0572054741
 30
0.0
  0
VERTEX
  8
DiodesLazer
 10
-27.1469026403
 20
-10.0686163615
 30
0.0
  0
VERTEX
  8
DiodesLazer
 10
-27.1953317528
 20
-10.0810473355
 30
0.0
  0
VERTEX
  8
DiodesLazer
 10
-27.2434890428
 20
-10.0944929099
 30
0.0
  0
VERTEX
  8
DiodesLazer
 10
-27.2913532568
 20
-10.1089471506
 30
0.0
  0
VERTEX
  8
DiodesLazer
 10
-27.3389032704
 20
-10.1244036785
 30
0.0
  0
VERTEX
  8
DiodesLazer
 10
-27.3861180982
 20
-10.140855672
 30
0.0
  0
VERTEX
  8
DiodesLazer
 10
-27.4329769025
 20
-10.1582958703
 30
0.0
  0
VERTEX
  8
DiodesLazer
 10
-27.4794590027
 20
-10.1767165763
 30
0.0
  0
VERTEX
  8
DiodesLazer
 10
-27.5255438847
 20
-10.1961096603
 30
0.0
  0
VERTEX
  8
DiodesLazer
 10
-27.5712112094
 20
-10.2164665635
 30
0.0
  0
VERTEX
  8
DiodesLazer
 10
-27.6164408222
 20
-10.2377783015
 30
0.0
  0
VERTEX
  8
DiodesLazer
 10
-27.6612127616
 20
-10.2600354688
 30
0.0
  0
VERTEX
  8
DiodesLazer
 10
-27.7055072681
 20
-10.2832282424
 30
0.0
  0
VERTEX
  8
DiodesLazer
 10
-27.7493047929
 20
-10.3073463865
 30
0.0
  0
VERTEX
  8
DiodesLazer
 10
-27.7925860066
 20
-10.3323792568
 30
0.0
  0
VERTEX
  8
DiodesLazer
 10
-27.8353318075
 20
-10.3583158055
 30
0.0
  0
VERTEX
  8
DiodesLazer
 10
-27.8775233303
 20
-10.3851445858
 30
0.0
  0
VERTEX
  8
DiodesLazer
 10
-27.9191419544
 20
-10.4128537572
 30
0.0
  0
VERTEX
  8
DiodesLazer
 10
-27.960169312
 20
-10.4414310906
 30
0.0
  0
VERTEX
  8
DiodesLazer
 10
-28.0005872962
 20
-10.4708639737
 30
0.0
  0
VERTEX
  8
DiodesLazer
 10
-28.040378069
 20
-10.5011394167
 30
0.0
  0
VERTEX
  8
DiodesLazer
 10
-28.0795240693
 20
-10.5322440581
 30
0.0
  0
VERTEX
  8
DiodesLazer
 10
-28.1180080205
 20
-10.5641641701
 30
0.0
  0
VERTEX
  8
DiodesLazer
 10
-28.1558129383
 20
-10.5968856653
 30
0.0
  0
VERTEX
  8
DiodesLazer
 10
-28.1929221379
 20
-10.6303941024
 30
0.0
  0
VERTEX
  8
DiodesLazer
 10
-28.2293192417
 20
-10.6646746929
 30
0.0
  0
VERTEX
  8
DiodesLazer
 10
-28.2649881863
 20
-10.6997123076
 30
0.0
  0
VERTEX
  8
DiodesLazer
 10
-28.2999132297
 20
-10.735491483
 30
0.0
  0
VERTEX
  8
DiodesLazer
 10
-28.3340789582
 20
-10.7719964286
 30
0.0
  0
VERTEX
  8
DiodesLazer
 10
-28.3674702932
 20
-10.8092110332
 30
0.0
  0
VERTEX
  8
DiodesLazer
 10
-28.4000724979
 20
-10.8471188728
 30
0.0
  0
VERTEX
  8
DiodesLazer
 10
-28.4318711837
 20
-10.8857032173
 30
0.0
  0
VERTEX
  8
DiodesLazer
 10
-28.4628523166
 20
-10.9249470378
 30
0.0
  0
VERTEX
  8
DiodesLazer
 10
-28.4930022237
 20
-10.9648330148
 30
0.0
  0
VERTEX
  8
DiodesLazer
 10
-28.5223075986
 20
-11.005343545
 30
0.0
  0
VERTEX
  8
DiodesLazer
 10
-28.5507555077
 20
-11.0464607496
 30
0.0
  0
VERTEX
  8
DiodesLazer
 10
-28.578333396
 20
-11.0881664822
 30
0.0
  0
VERTEX
  8
DiodesLazer
 10
-28.6050290923
 20
-11.1304423364
 30
0.0
  0
VERTEX
  8
DiodesLazer
 10
-28.6308308149
 20
-11.1732696544
 30
0.0
  0
VERTEX
  8
DiodesLazer
 10
-28.6557271764
 20
-11.2166295349
 30
0.0
  0
VERTEX
  8
DiodesLazer
 10
-28.6797071893
 20
-11.2605028416
 30
0.0
  0
VERTEX
  8
DiodesLazer
 10
-28.7027602702
 20
-11.3048702115
 30
0.0
  0
VERTEX
  8
DiodesLazer
 10
-28.7248762449
 20
-11.3497120637
 30
0.0
  0
VERTEX
  8
DiodesLazer
 10
-28.746045353
 20
-11.3950086079
 30
0.0
  0
VERTEX
  8
DiodesLazer
 10
-28.7662582516
 20
-11.4407398531
 30
0.0
  0
VERTEX
  8
DiodesLazer
 10
-28.7855060201
 20
-11.4868856163
 30
0.0
  0
VERTEX
  8
DiodesLazer
 10
-28.8037801637
 20
-11.5334255317
 30
0.0
  0
VERTEX
  8
DiodesLazer
 10
-28.8210726175
 20
-11.5803390596
 30
0.0
  0
VERTEX
  8
DiodesLazer
 10
-28.8373757494
 20
-11.6276054952
 30
0.0
  0
VERTEX
  8
DiodesLazer
 10
-28.8526823645
 20
-11.6752039783
 30
0.0
  0
VERTEX
  8
DiodesLazer
 10
-28.8669857074
 20
-11.7231135017
 30
0.0
  0
VERTEX
  8
DiodesLazer
 10
-28.8802794654
 20
-11.7713129213
 30
0.0
  0
VERTEX
  8
DiodesLazer
 10
-28.8925577715
 20
-11.8197809649
 30
0.0
  0
VERTEX
  8
DiodesLazer
 10
-28.9038152068
 20
-11.8684962418
 30
0.0
  0
VERTEX
  8
DiodesLazer
 10
-28.9140468031
 20
-11.9174372521
 30
0.0
  0
VERTEX
  8
DiodesLazer
 10
-28.9232480448
 20
-11.9665823964
 30
0.0
  0
VERTEX
  8
DiodesLazer
 10
-28.9314148709
 20
-12.0159099851
 30
0.0
  0
VERTEX
  8
DiodesLazer
 10
-28.9385436773
 20
-12.065398248
 30
0.0
  0
VERTEX
  8
DiodesLazer
 10
-28.9446313176
 20
-12.1150253443
 30
0.0
  0
VERTEX
  8
DiodesLazer
 10
-28.9496751052
 20
-12.1647693717
 30
0.0
  0
VERTEX
  8
DiodesLazer
 10
-28.9536728141
 20
-12.2146083763
 30
0.0
  0
VERTEX
  8
DiodesLazer
 10
-28.9566226799
 20
-12.2645203623
 30
0.0
  0
VERTEX
  8
DiodesLazer
 10
-28.9585234008
 20
-12.3144833017
 30
0.0
  0
VERTEX
  8
DiodesLazer
 10
-28.9593741378
 20
-12.364475144
 30
0.0
  0
VERTEX
  8
DiodesLazer
 10
-28.9591745156
 20
-12.414473826
 30
0.0
  0
VERTEX
  8
DiodesLazer
 10
-28.9579246223
 20
-12.4644572815
 30
0.0
  0
VERTEX
  8
DiodesLazer
 10
-28.9556250094
 20
-12.5144034508
 30
0.0
  0
VERTEX
  8
DiodesLazer
 10
-28.9522766918
 20
-12.564290291
 30
0.0
  0
VERTEX
  8
DiodesLazer
 10
-28.9478811474
 20
-12.6140957851
 30
0.0
  0
VERTEX
  8
DiodesLazer
 10
-28.942440316
 20
-12.6637979521
 30
0.0
  0
VERTEX
  8
DiodesLazer
 10
-28.9359565988
 20
-12.7133748567
 30
0.0
  0
VERTEX
  8
DiodesLazer
 10
-28.9284328574
 20
-12.7628046186
 30
0.0
  0
VERTEX
  8
DiodesLazer
 10
-28.9198724122
 20
-12.8120654228
 30
0.0
  0
VERTEX
  8
DiodesLazer
 10
-28.9102790413
 20
-12.8611355287
 30
0.0
  0
VERTEX
  8
DiodesLazer
 10
-28.8996569787
 20
-12.9099932797
 30
0.0
  0
VERTEX
  8
DiodesLazer
 10
-28.8880109121
 20
-12.9586171133
 30
0.0
  0
VERTEX
  8
DiodesLazer
 10
-28.8753459816
 20
-13.0069855698
 30
0.0
  0
VERTEX
  8
DiodesLazer
 10
-28.8616677764
 20
-13.0550773025
 30
0.0
  0
VERTEX
  8
DiodesLazer
 10
-28.8469823334
 20
-13.1028710868
 30
0.0
  0
VERTEX
  8
DiodesLazer
 10
-28.8312961338
 20
-13.1503458295
 30
0.0
  0
VERTEX
  8
DiodesLazer
 10
-28.8146161004
 20
-13.1974805782
 30
0.0
  0
VERTEX
  8
DiodesLazer
 10
-28.7969495948
 20
-13.2442545307
 30
0.0
  0
VERTEX
  8
DiodesLazer
 10
-28.7783044139
 20
-13.290647044
 30
0.0
  0
VERTEX
  8
DiodesLazer
 10
-28.7586887865
 20
-13.3366376431
 30
0.0
  0
VERTEX
  8
DiodesLazer
 10
-28.7381113696
 20
-13.3822060309
 30
0.0
  0
VERTEX
  8
DiodesLazer
 10
-28.7165812448
 20
-13.4273320963
 30
0.0
  0
VERTEX
  8
DiodesLazer
 10
-28.6941079142
 20
-13.4719959236
 30
0.0
  0
VERTEX
  8
DiodesLazer
 10
-28.6707012961
 20
-13.5161778009
 30
0.0
  0
VERTEX
  8
DiodesLazer
 10
-28.6463717206
 20
-13.5598582291
 30
0.0
  0
VERTEX
  8
DiodesLazer
 10
-28.6211299254
 20
-13.6030179305
 30
0.0
  0
VERTEX
  8
DiodesLazer
 10
-28.5949870505
 20
-13.6456378572
 30
0.0
  0
VERTEX
  8
DiodesLazer
 10
-28.5679546338
 20
-13.6876991993
 30
0.0
  0
VERTEX
  8
DiodesLazer
 10
-28.5400446056
 20
-13.7291833936
 30
0.0
  0
VERTEX
  8
DiodesLazer
 10
-28.5112692837
 20
-13.7700721317
 30
0.0
  0
VERTEX
  8
DiodesLazer
 10
-28.4816413677
 20
-13.8103473678
 30
0.0
  0
VERTEX
  8
DiodesLazer
 10
-28.4511739335
 20
-13.8499913271
 30
0.0
  0
VERTEX
  8
DiodesLazer
 10
-28.4198804274
 20
-13.8889865131
 30
0.0
  0
VERTEX
  8
DiodesLazer
 10
-28.3877746605
 20
-13.9273157158
 30
0.0
  0
VERTEX
  8
DiodesLazer
 10
-28.3548708022
 20
-13.9649620193
 30
0.0
  0
VERTEX
  8
DiodesLazer
 10
-28.3211833742
 20
-14.0019088087
 30
0.0
  0
VERTEX
  8
DiodesLazer
 10
-28.286727244
 20
-14.0381397781
 30
0.0
  0
VERTEX
  8
DiodesLazer
 10
-28.2515176184
 20
-14.0736389374
 30
0.0
  0
VERTEX
  8
DiodesLazer
 10
-28.2155700365
 20
-14.1083906196
 30
0.0
  0
VERTEX
  8
DiodesLazer
 10
-28.1789003636
 20
-14.1423794874
 30
0.0
  0
VERTEX
  8
DiodesLazer
 10
-28.1415247831
 20
-14.1755905404
 30
0.0
  0
VERTEX
  8
DiodesLazer
 10
-28.1034597904
 20
-14.2080091212
 30
0.0
  0
VERTEX
  8
DiodesLazer
 10
-28.0647221849
 20
-14.2396209223
 30
0.0
  0
VERTEX
  8
DiodesLazer
 10
-28.0253290629
 20
-14.2704119924
 30
0.0
  0
VERTEX
  8
DiodesLazer
 10
-27.9852978101
 20
-14.3003687421
 30
0.0
  0
VERTEX
  8
DiodesLazer
 10
-27.9446460938
 20
-14.3294779505
 30
0.0
  0
VERTEX
  8
DiodesLazer
 10
-27.903391855
 20
-14.3577267705
 30
0.0
  0
VERTEX
  8
DiodesLazer
 10
-27.8615533007
 20
-14.385102735
 30
0.0
  0
VERTEX
  8
DiodesLazer
 10
-27.8191488959
 20
-14.4115937619
 30
0.0
  0
VERTEX
  8
DiodesLazer
 10
-27.7761973552
 20
-14.4371881597
 30
0.0
  0
VERTEX
  8
DiodesLazer
 10
-27.7327176346
 20
-14.4618746328
 30
0.0
  0
VERTEX
  8
DiodesLazer
 10
-27.6887289234
 20
-14.485642286
 30
0.0
  0
VERTEX
  8
DiodesLazer
 10
-27.6442506354
 20
-14.5084806299
 30
0.0
  0
VERTEX
  8
DiodesLazer
 10
-27.5993024006
 20
-14.5303795849
 30
0.0
  0
VERTEX
  8
DiodesLazer
 10
-27.5539040561
 20
-14.5513294864
 30
0.0
  0
VERTEX
  8
DiodesLazer
 10
-27.508075638
 20
-14.5713210883
 30
0.0
  0
VERTEX
  8
DiodesLazer
 10
-27.461837372
 20
-14.5903455676
 30
0.0
  0
VERTEX
  8
DiodesLazer
 10
-27.4152096648
 20
-14.6083945282
 30
0.0
  0
VERTEX
  8
DiodesLazer
 10
-27.368213095
 20
-14.6254600042
 30
0.0
  0
VERTEX
  8
DiodesLazer
 10
-27.3208684037
 20
-14.6415344642
 30
0.0
  0
VERTEX
  8
DiodesLazer
 10
-27.273196486
 20
-14.6566108139
 30
0.0
  0
VERTEX
  8
DiodesLazer
 10
-27.2252183813
 20
-14.6706823994
 30
0.0
  0
VERTEX
  8
DiodesLazer
 10
-27.1769552641
 20
-14.6837430106
 30
0.0
  0
VERTEX
  8
DiodesLazer
 10
-27.1284284345
 20
-14.6957868833
 30
0.0
  0
VERTEX
  8
DiodesLazer
 10
-27.0796593094
 20
-14.706808702
 30
0.0
  0
VERTEX
  8
DiodesLazer
 10
-27.0306694123
 20
-14.7168036025
 30
0.0
  0
VERTEX
  8
DiodesLazer
 10
-26.9814803643
 20
-14.7257671736
 30
0.0
  0
VERTEX
  8
DiodesLazer
 10
-26.9321138743
 20
-14.7336954594
 30
0.0
  0
VERTEX
  8
DiodesLazer
 10
-26.8825917295
 20
-14.7405849608
 30
0.0
  0
VERTEX
  8
DiodesLazer
 10
-26.8329357859
 20
-14.7464326373
 30
0.0
  0
VERTEX
  8
DiodesLazer
 10
-26.7831679585
 20
-14.751235908
 30
0.0
  0
VERTEX
  8
DiodesLazer
 10
-26.7333102117
 20
-14.7549926531
 30
0.0
  0
VERTEX
  8
DiodesLazer
 10
-26.6833845495
 20
-14.7577012146
 30
0.0
  0
VERTEX
  8
DiodesLazer
 10
-26.6334130059
 20
-14.759360397
 30
0.0
  0
VERTEX
  8
DiodesLazer
 10
-26.5834176353
 20
-14.7599694683
 30
0.0
  0
SEQEND
  8
DiodesLazer
  0
POLYLINE
  8
DiodesLazer
 62
0
 70
1
 66
1
 10
0.0
 20
0.0
 30
0.0
  0
VERTEX
  8
DiodesLazer
 10
-26.5794576776
 20
-15.0799985427
 30
0.0
  0
VERTEX
  8
DiodesLazer
 10
-26.6294548175
 20
-15.0795353407
 30
0.0
  0
VERTEX
  8
DiodesLazer
 10
-26.6794348074
 20
-15.078146398
 30
0.0
  0
VERTEX
  8
DiodesLazer
 10
-26.729380508
 20
-15.0758321911
 30
0.0
  0
VERTEX
  8
DiodesLazer
 10
-26.7792747915
 20
-15.0725935134
 30
0.0
  0
VERTEX
  8
DiodesLazer
 10
-26.8291005478
 20
-15.0684314756
 30
0.0
  0
VERTEX
  8
DiodesLazer
 10
-26.8788406905
 20
-15.063347505
 30
0.0
  0
VERTEX
  8
DiodesLazer
 10
-26.9284781625
 20
-15.057343345
 30
0.0
  0
VERTEX
  8
DiodesLazer
 10
-26.9779959416
 20
-15.0504210546
 30
0.0
  0
VERTEX
  8
DiodesLazer
 10
-27.0273770471
 20
-15.0425830076
 30
0.0
  0
VERTEX
  8
DiodesLazer
 10
-27.0766045448
 20
-15.0338318919
 30
0.0
  0
VERTEX
  8
DiodesLazer
 10
-27.1256615533
 20
-15.0241707084
 30
0.0
  0
VERTEX
  8
DiodesLazer
 10
-27.1745312499
 20
-15.0136027703
 30
0.0
  0
VERTEX
  8
DiodesLazer
 10
-27.2231968757
 20
-15.0021317016
 30
0.0
  0
VERTEX
  8
DiodesLazer
 10
-27.2716417421
 20
-14.9897614359
 30
0.0
  0
VERTEX
  8
DiodesLazer
 10
-27.3198492362
 20
-14.9764962154
 30
0.0
  0
VERTEX
  8
DiodesLazer
 10
-27.3678028262
 20
-14.962340589
 30
0.0
  0
VERTEX
  8
DiodesLazer
 10
-27.4154860677
 20
-14.9472994111
 30
0.0
  0
VERTEX
  8
DiodesLazer
 10
-27.462882609
 20
-14.9313778397
 30
0.0
  0
VERTEX
  8
DiodesLazer
 10
-27.5099761964
 20
-14.9145813347
 30
0.0
  0
VERTEX
  8
DiodesLazer
 10
-27.5567506804
 20
-14.896915656
 30
0.0
  0
VERTEX
  8
DiodesLazer
 10
-27.6031900208
 20
-14.8783868617
 30
0.0
  0
VERTEX
  8
DiodesLazer
 10
-27.6492782924
 20
-14.8590013058
 30
0.0
  0
VERTEX
  8
DiodesLazer
 10
-27.6949996902
 20
-14.838765636
 30
0.0
  0
VERTEX
  8
DiodesLazer
 10
-27.7403385354
 20
-14.8176867918
 30
0.0
  0
VERTEX
  8
DiodesLazer
 10
-27.78527928
 20
-14.7957720015
 30
0.0
  0
VERTEX
  8
DiodesLazer
 10
-27.8298065126
 20
-14.7730287804
 30
0.0
  0
VERTEX
  8
DiodesLazer
 10
-27.8739049638
 20
-14.7494649276
 30
0.0
  0
VERTEX
  8
DiodesLazer
 10
-27.9175595111
 20
-14.7250885238
 30
0.0
  0
VERTEX
  8
DiodesLazer
 10
-27.9607551841
 20
-14.6999079284
 30
0.0
  0
VERTEX
  8
DiodesLazer
 10
-28.00347717
 20
-14.6739317763
 30
0.0
  0
VERTEX
  8
DiodesLazer
 10
-28.0457108183
 20
-14.6471689755
 30
0.0
  0
VERTEX
  8
DiodesLazer
 10
-28.0874416461
 20
-14.6196287037
 30
0.0
  0
VERTEX
  8
DiodesLazer
 10
-28.1286553426
 20
-14.591320405
 30
0.0
  0
VERTEX
  8
DiodesLazer
 10
-28.1693377747
 20
-14.5622537872
 30
0.0
  0
VERTEX
  8
DiodesLazer
 10
-28.2094749914
 20
-14.5324388179
 30
0.0
  0
VERTEX
  8
DiodesLazer
 10
-28.2490532285
 20
-14.5018857214
 30
0.0
  0
VERTEX
  8
DiodesLazer
 10
-28.2880589137
 20
-14.4706049753
 30
0.0
  0
VERTEX
  8
DiodesLazer
 10
-28.3264786709
 20
-14.4386073064
 30
0.0
  0
VERTEX
  8
DiodesLazer
 10
-28.364299325
 20
-14.4059036876
 30
0.0
  0
VERTEX
  8
DiodesLazer
 10
-28.4015079063
 20
-14.3725053339
 30
0.0
  0
VERTEX
  8
DiodesLazer
 10
-28.438091655
 20
-14.3384236982
 30
0.0
  0
VERTEX
  8
DiodesLazer
 10
-28.4740380256
 20
-14.3036704682
 30
0.0
  0
VERTEX
  8
DiodesLazer
 10
-28.5093346912
 20
-14.2682575616
 30
0.0
  0
VERTEX
  8
DiodesLazer
 10
-28.5439695476
 20
-14.2321971225
 30
0.0
  0
VERTEX
  8
DiodesLazer
 10
-28.5779307178
 20
-14.1955015167
 30
0.0
  0
VERTEX
  8
DiodesLazer
 10
-28.6112065554
 20
-14.1581833283
 30
0.0
  0
VERTEX
  8
DiodesLazer
 10
-28.6437856494
 20
-14.1202553546
 30
0.0
  0
VERTEX
  8
DiodesLazer
 10
-28.6756568275
 20
-14.081730602
 30
0.0
  0
VERTEX
  8
DiodesLazer
 10
-28.7068091604
 20
-14.0426222818
 30
0.0
  0
VERTEX
  8
DiodesLazer
 10
-28.737231965
 20
-14.0029438051
 30
0.0
  0
VERTEX
  8
DiodesLazer
 10
-28.7669148086
 20
-13.9627087786
 30
0.0
  0
VERTEX
  8
DiodesLazer
 10
-28.7958475123
 20
-13.9219310002
 30
0.0
  0
VERTEX
  8
DiodesLazer
 10
-28.8240201541
 20
-13.8806244534
 30
0.0
  0
VERTEX
  8
DiodesLazer
 10
-28.8514230731
 20
-13.8388033034
 30
0.0
  0
VERTEX
  8
DiodesLazer
 10
-28.878046872
 20
-13.7964818917
 30
0.0
  0
VERTEX
  8
DiodesLazer
 10
-28.9038824209
 20
-13.7536747314
 30
0.0
  0
VERTEX
  8
DiodesLazer
 10
-28.92892086
 20
-13.7103965023
 30
0.0
  0
VERTEX
  8
DiodesLazer
 10
-28.9531536031
 20
-13.6666620454
 30
0.0
  0
VERTEX
  8
DiodesLazer
 10
-28.9765723401
 20
-13.6224863585
 30
0.0
  0
VERTEX
  8
DiodesLazer
 10
-28.9991690402
 20
-13.5778845906
 30
0.0
  0
VERTEX
  8
DiodesLazer
 10
-29.0209359543
 20
-13.5328720367
 30
0.0
  0
VERTEX
  8
DiodesLazer
 10
-29.041865618
 20
-13.4874641328
 30
0.0
  0
VERTEX
  8
DiodesLazer
 10
-29.061950854
 20
-13.4416764506
 30
0.0
  0
VERTEX
  8
DiodesLazer
 10
-29.0811847746
 20
-13.3955246916
 30
0.0
  0
VERTEX
  8
DiodesLazer
 10
-29.0995607839
 20
-13.3490246826
 30
0.0
  0
VERTEX
  8
DiodesLazer
 10
-29.1170725804
 20
-13.3021923696
 30
0.0
  0
VERTEX
  8
DiodesLazer
 10
-29.1337141587
 20
-13.2550438126
 30
0.0
  0
VERTEX
  8
DiodesLazer
 10
-29.1494798121
 20
-13.20759518
 30
0.0
  0
VERTEX
  8
DiodesLazer
 10
-29.1643641341
 20
-13.1598627433
 30
0.0
  0
VERTEX
  8
DiodesLazer
 10
-29.1783620205
 20
-13.1118628711
 30
0.0
  0
VERTEX
  8
DiodesLazer
 10
-29.1914686711
 20
-13.0636120238
 30
0.0
  0
VERTEX
  8
DiodesLazer
 10
-29.2036795912
 20
-13.0151267479
 30
0.0
  0
VERTEX
  8
DiodesLazer
 10
-29.2149905935
 20
-12.9664236701
 30
0.0
  0
VERTEX
  8
DiodesLazer
 10
-29.225397799
 20
-12.9175194921
 30
0.0
  0
VERTEX
  8
DiodesLazer
 10
-29.2348976389
 20
-12.8684309843
 30
0.0
  0
VERTEX
  8
DiodesLazer
 10
-29.2434868555
 20
-12.8191749804
 30
0.0
  0
VERTEX
  8
DiodesLazer
 10
-29.2511625033
 20
-12.7697683717
 30
0.0
  0
VERTEX
  8
DiodesLazer
 10
-29.25792195
 20
-12.7202281008
 30
0.0
  0
VERTEX
  8
DiodesLazer
 10
-29.2637628778
 20
-12.6705711565
 30
0.0
  0
VERTEX
  8
DiodesLazer
 10
-29.2686832836
 20
-12.6208145674
 30
0.0
  0
VERTEX
  8
DiodesLazer
 10
-29.27268148
 20
-12.5709753962
 30
0.0
  0
VERTEX
  8
DiodesLazer
 10
-29.2757560961
 20
-12.5210707342
 30
0.0
  0
VERTEX
  8
DiodesLazer
 10
-29.2779060774
 20
-12.4711176949
 30
0.0
  0
VERTEX
  8
DiodesLazer
 10
-29.2791306866
 20
-12.4211334085
 30
0.0
  0
VERTEX
  8
DiodesLazer
 10
-29.2794295039
 20
-12.3711350159
 30
0.0
  0
VERTEX
  8
DiodesLazer
 10
-29.2788024266
 20
-12.3211396628
 30
0.0
  0
VERTEX
  8
DiodesLazer
 10
-29.2772496699
 20
-12.2711644939
 30
0.0
  0
VERTEX
  8
DiodesLazer
 10
-29.2747717663
 20
-12.2212266471
 30
0.0
  0
VERTEX
  8
DiodesLazer
 10
-29.2713695654
 20
-12.1713432472
 30
0.0
  0
VERTEX
  8
DiodesLazer
 10
-29.2670442341
 20
-12.1215314005
 30
0.0
  0
VERTEX
  8
DiodesLazer
 10
-29.2617972555
 20
-12.0718081889
 30
0.0
  0
VERTEX
  8
DiodesLazer
 10
-29.2556304289
 20
-12.0221906637
 30
0.0
  0
VERTEX
  8
DiodesLazer
 10
-29.2485458692
 20
-11.9726958401
 30
0.0
  0
VERTEX
  8
DiodesLazer
 10
-29.2405460058
 20
-11.923340691
 30
0.0
  0
VERTEX
  8
DiodesLazer
 10
-29.2316335821
 20
-11.8741421416
 30
0.0
  0
VERTEX
  8
DiodesLazer
 10
-29.2218116544
 20
-11.8251170634
 30
0.0
  0
VERTEX
  8
DiodesLazer
 10
-29.2110835908
 20
-11.7762822684
 30
0.0
  0
VERTEX
  8
DiodesLazer
 10
-29.1994530704
 20
-11.7276545032
 30
0.0
  0
VERTEX
  8
DiodesLazer
 10
-29.1869240814
 20
-11.6792504435
 30
0.0
  0
VERTEX
  8
DiodesLazer
 10
-29.1735009204
 20
-11.6310866884
 30
0.0
  0
VERTEX
  8
DiodesLazer
 10
-29.1591881906
 20
-11.5831797544
 30
0.0
  0
VERTEX
  8
DiodesLazer
 10
-29.1439908002
 20
-11.5355460701
 30
0.0
  0
VERTEX
  8
DiodesLazer
 10
-29.1279139607
 20
-11.4882019703
 30
0.0
  0
VERTEX
  8
DiodesLazer
 10
-29.1109631853
 20
-11.4411636905
 30
0.0
  0
VERTEX
  8
DiodesLazer
 10
-29.0931442869
 20
-11.3944473613
 30
0.0
  0
VERTEX
  8
DiodesLazer
 10
-29.074463376
 20
-11.3480690029
 30
0.0
  0
VERTEX
  8
DiodesLazer
 10
-29.0549268587
 20
-11.3020445198
 30
0.0
  0
VERTEX
  8
DiodesLazer
 10
-29.0345414348
 20
-11.2563896948
 30
0.0
  0
VERTEX
  8
DiodesLazer
 10
-29.0133140947
 20
-11.2111201842
 30
0.0
  0
VERTEX
  8
DiodesLazer
 10
-28.991252118
 20
-11.166251512
 30
0.0
  0
VERTEX
  8
DiodesLazer
 10
-28.9683630703
 20
-11.1217990649
 30
0.0
  0
VERTEX
  8
DiodesLazer
 10
-28.9446548008
 20
-11.0777780868
 30
0.0
  0
VERTEX
  8
DiodesLazer
 10
-28.9201354397
 20
-11.0342036737
 30
0.0
  0
VERTEX
  8
DiodesLazer
 10
-28.8948133952
 20
-10.9910907681
 30
0.0
  0
VERTEX
  8
DiodesLazer
 10
-28.8686973511
 20
-10.9484541548
 30
0.0
  0
VERTEX
  8
DiodesLazer
 10
-28.8417962631
 20
-10.9063084549
 30
0.0
  0
VERTEX
  8
DiodesLazer
 10
-28.8141193563
 20
-10.8646681213
 30
0.0
  0
VERTEX
  8
DiodesLazer
 10
-28.7856761218
 20
-10.8235474334
 30
0.0
  0
VERTEX
  8
DiodesLazer
 10
-28.7564763137
 20
-10.7829604927
 30
0.0
  0
VERTEX
  8
DiodesLazer
 10
-28.7265299451
 20
-10.7429212174
 30
0.0
  0
VERTEX
  8
DiodesLazer
 10
-28.6958472856
 20
-10.703443338
 30
0.0
  0
VERTEX
  8
DiodesLazer
 10
-28.6644388569
 20
-10.6645403926
 30
0.0
  0
VERTEX
  8
DiodesLazer
 10
-28.6323154299
 20
-10.6262257218
 30
0.0
  0
VERTEX
  8
DiodesLazer
 10
-28.5994880205
 20
-10.5885124649
 30
0.0
  0
VERTEX
  8
DiodesLazer
 10
-28.565967886
 20
-10.5514135547
 30
0.0
  0
VERTEX
  8
DiodesLazer
 10
-28.5317665214
 20
-10.5149417133
 30
0.0
  0
VERTEX
  8
DiodesLazer
 10
-28.4968956552
 20
-10.4791094479
 30
0.0
  0
VERTEX
  8
DiodesLazer
 10
-28.4613672455
 20
-10.4439290462
 30
0.0
  0
VERTEX
  8
DiodesLazer
 10
-28.4251934759
 20
-10.4094125726
 30
0.0
  0
VERTEX
  8
DiodesLazer
 10
-28.3883867513
 20
-10.3755718637
 30
0.0
  0
VERTEX
  8
DiodesLazer
 10
-28.3509596938
 20
-10.3424185242
 30
0.0
  0
VERTEX
  8
DiodesLazer
 10
-28.312925138
 20
-10.3099639233
 30
0.0
  0
VERTEX
  8
DiodesLazer
 10
-28.2742961269
 20
-10.2782191905
 30
0.0
  0
VERTEX
  8
DiodesLazer
 10
-28.2350859074
 20
-10.247195212
 30
0.0
  0
VERTEX
  8
DiodesLazer
 10
-28.1953079257
 20
-10.2169026266
 30
0.0
  0
VERTEX
  8
DiodesLazer
 10
-28.1549758228
 20
-10.1873518224
 30
0.0
  0
VERTEX
  8
DiodesLazer
 10
-28.1141034295
 20
-10.1585529332
 30
0.0
  0
VERTEX
  8
DiodesLazer
 10
-28.0727047619
 20
-10.1305158348
 30
0.0
  0
VERTEX
  8
DiodesLazer
 10
-28.0307940169
 20
-10.103250142
 30
0.0
  0
VERTEX
  8
DiodesLazer
 10
-27.9883855666
 20
-10.0767652047
 30
0.0
  0
VERTEX
  8
DiodesLazer
 10
-27.945493954
 20
-10.0510701055
 30
0.0
  0
VERTEX
  8
DiodesLazer
 10
-27.9021338878
 20
-10.0261736557
 30
0.0
  0
VERTEX
  8
DiodesLazer
 10
-27.8583202372
 20
-10.002084393
 30
0.0
  0
VERTEX
  8
DiodesLazer
 10
-27.8140680271
 20
-9.97881057824
 30
0.0
  0
VERTEX
  8
DiodesLazer
 10
-27.7693924326
 20
-9.95636019263
 30
0.0
  0
VERTEX
  8
DiodesLazer
 10
-27.7243087742
 20
-9.93474093496
 30
0.0
  0
VERTEX
  8
DiodesLazer
 10
-27.6788325122
 20
-9.91396021903
 30
0.0
  0
VERTEX
  8
DiodesLazer
 10
-27.6329792417
 20
-9.89402517109
 30
0.0
  0
VERTEX
  8
DiodesLazer
 10
-27.5867646868
 20
-9.87494262739
 30
0.0
  0
VERTEX
  8
DiodesLazer
 10
-27.5402046958
 20
-9.8567191318
 30
0.0
  0
VERTEX
  8
DiodesLazer
 10
-27.4933152352
 20
-9.83936093364
 30
0.0
  0
VERTEX
  8
DiodesLazer
 10
-27.4461123847
 20
-9.82287398548
 30
0.0
  0
VERTEX
  8
DiodesLazer
 10
-27.3986123313
 20
-9.80726394113
 30
0.0
  0
VERTEX
  8
DiodesLazer
 10
-27.3508313641
 20
-9.79253615366
 30
0.0
  0
VERTEX
  8
DiodesLazer
 10
-27.3027858683
 20
-9.77869567361
 30
0.0
  0
VERTEX
  8
DiodesLazer
 10
-27.2544923199
 20
-9.76574724724
 30
0.0
  0
VERTEX
  8
DiodesLazer
 10
-27.2059672802
 20
-9.7536953149
 30
0.0
  0
VERTEX
  8
DiodesLazer
 10
-27.1572273895
 20
-9.74254400951
 30
0.0
  0
VERTEX
  8
DiodesLazer
 10
-27.108289362
 20
-9.73229715513
 30
0.0
  0
VERTEX
  8
DiodesLazer
 10
-27.0591699799
 20
-9.72295826568
 30
0.0
  0
VERTEX
  8
DiodesLazer
 10
-27.0098860874
 20
-9.7145305437
 30
0.0
  0
VERTEX
  8
DiodesLazer
 10
-26.9604545853
 20
-9.70701687927
 30
0.0
  0
VERTEX
  8
DiodesLazer
 10
-26.9108924249
 20
-9.70041984903
 30
0.0
  0
VERTEX
  8
DiodesLazer
 10
-26.8612166023
 20
-9.69474171525
 30
0.0
  0
VERTEX
  8
DiodesLazer
 10
-26.8114441526
 20
-9.68998442514
 30
0.0
  0
VERTEX
  8
DiodesLazer
 10
-26.7615921441
 20
-9.68614961007
 30
0.0
  0
VERTEX
  8
DiodesLazer
 10
-26.7116776724
 20
-9.6832385851
 30
0.0
  0
VERTEX
  8
DiodesLazer
 10
-26.6617178543
 20
-9.68125234851
 30
0.0
  0
VERTEX
  8
DiodesLazer
 10
-26.6117298224
 20
-9.68019158142
 30
0.0
  0
VERTEX
  8
DiodesLazer
 10
-26.561730719
 20
-9.6800566476
 30
0.0
  0
VERTEX
  8
DiodesLazer
 10
-26.5117376898
 20
-9.68084759331
 30
0.0
  0
VERTEX
  8
DiodesLazer
 10
-26.461767879
 20
-9.68256414733
 30
0.0
  0
VERTEX
  8
DiodesLazer
 10
-26.4118384223
 20
-9.68520572101
 30
0.0
  0
VERTEX
  8
DiodesLazer
 10
-26.3619664419
 20
-9.68877140847
 30
0.0
  0
VERTEX
  8
DiodesLazer
 10
-26.3121690402
 20
-9.69325998696
 30
0.0
  0
VERTEX
  8
DiodesLazer
 10
-26.2624632939
 20
-9.69866991722
 30
0.0
  0
VERTEX
  8
DiodesLazer
 10
-26.2128662485
 20
-9.70499934406
 30
0.0
  0
VERTEX
  8
DiodesLazer
 10
-26.1633949121
 20
-9.71224609694
 30
0.0
  0
VERTEX
  8
DiodesLazer
 10
-26.1140662496
 20
-9.72040769076
 30
0.0
  0
VERTEX
  8
DiodesLazer
 10
-26.0648971771
 20
-9.72948132672
 30
0.0
  0
VERTEX
  8
DiodesLazer
 10
-26.0159045561
 20
-9.73946389323
 30
0.0
  0
VERTEX
  8
DiodesLazer
 10
-25.9671051871
 20
-9.750351967
 30
0.0
  0
VERTEX
  8
DiodesLazer
 10
-25.918515805
 20
-9.76214181423
 30
0.0
  0
VERTEX
  8
DiodesLazer
 10
-25.8701530721
 20
-9.77482939189
 30
0.0
  0
VERTEX
  8
DiodesLazer
 10
-25.8220335734
 20
-9.78841034908
 30
0.0
  0
VERTEX
  8
DiodesLazer
 10
-25.7741738102
 20
-9.80288002854
 30
0.0
  0
VERTEX
  8
DiodesLazer
 10
-25.7265901949
 20
-9.81823346823
 30
0.0
  0
VERTEX
  8
DiodesLazer
 10
-25.6792990451
 20
-9.83446540308
 30
0.0
  0
VERTEX
  8
DiodesLazer
 10
-25.6323165783
 20
-9.85157026674
 30
0.0
  0
VERTEX
  8
DiodesLazer
 10
-25.5856589057
 20
-9.8695421935
 30
0.0
  0
VERTEX
  8
DiodesLazer
 10
-25.5393420277
 20
-9.88837502033
 30
0.0
  0
VERTEX
  8
DiodesLazer
 10
-25.4933818274
 20
-9.90806228897
 30
0.0
  0
VERTEX
  8
DiodesLazer
 10
-25.4477940659
 20
-9.92859724816
 30
0.0
  0
VERTEX
  8
DiodesLazer
 10
-25.4025943762
 20
-9.94997285591
 30
0.0
  0
VERTEX
  8
DiodesLazer
 10
-25.3577982585
 20
-9.97218178199
 30
0.0
  0
VERTEX
  8
DiodesLazer
 10
-25.3134210746
 20
-9.99521641039
 30
0.0
  0
VERTEX
  8
DiodesLazer
 10
-25.2694780425
 20
-10.0190688419
 30
0.0
  0
VERTEX
  8
DiodesLazer
 10
-25.2259842315
 20
-10.043730897
 30
0.0
  0
VERTEX
  8
DiodesLazer
 10
-25.1829545567
 20
-10.0691941184
 30
0.0
  0
VERTEX
  8
DiodesLazer
 10
-25.1404037741
 20
-10.095449774
 30
0.0
  0
VERTEX
  8
DiodesLazer
 10
-25.0983464754
 20
-10.1224888602
 30
0.0
  0
VERTEX
  8
DiodesLazer
 10
-25.0567970832
 20
-10.1503021046
 30
0.0
  0
VERTEX
  8
DiodesLazer
 10
-25.0157698458
 20
-10.1788799692
 30
0.0
  0
VERTEX
  8
DiodesLazer
 10
-24.9752788325
 20
-10.208212654
 30
0.0
  0
VERTEX
  8
DiodesLazer
 10
-24.9353379287
 20
-10.2382901001
 30
0.0
  0
VERTEX
  8
DiodesLazer
 10
-24.8959608313
 20
-10.2691019931
 30
0.0
  0
VERTEX
  8
DiodesLazer
 10
-24.8571610435
 20
-10.3006377668
 30
0.0
  0
VERTEX
  8
DiodesLazer
 10
-24.8189518709
 20
-10.3328866069
 30
0.0
  0
VERTEX
  8
DiodesLazer
 10
-24.7813464163
 20
-10.3658374543
 30
0.0
  0
VERTEX
  8
DiodesLazer
 10
-24.7443575757
 20
-10.3994790093
 30
0.0
  0
VERTEX
  8
DiodesLazer
 10
-24.7079980335
 20
-10.4337997355
 30
0.0
  0
VERTEX
  8
DiodesLazer
 10
-24.6722802582
 20
-10.4687878633
 30
0.0
  0
VERTEX
  8
DiodesLazer
 10
-24.6372164985
 20
-10.5044313944
 30
0.0
  0
VERTEX
  8
DiodesLazer
 10
-24.6028187786
 20
-10.5407181057
 30
0.0
  0
VERTEX
  8
DiodesLazer
 10
-24.5690988943
 20
-10.5776355536
 30
0.0
  0
VERTEX
  8
DiodesLazer
 10
-24.5360684091
 20
-10.6151710782
 30
0.0
  0
VERTEX
  8
DiodesLazer
 10
-24.50373865
 20
-10.6533118075
 30
0.0
  0
VERTEX
  8
DiodesLazer
 10
-24.4721207037
 20
-10.6920446621
 30
0.0
  0
VERTEX
  8
DiodesLazer
 10
-24.4412254127
 20
-10.7313563595
 30
0.0
  0
VERTEX
  8
DiodesLazer
 10
-24.411063372
 20
-10.7712334188
 30
0.0
  0
VERTEX
  8
DiodesLazer
 10
-24.3816449248
 20
-10.811662165
 30
0.0
  0
VERTEX
  8
DiodesLazer
 10
-24.3529801594
 20
-10.8526287341
 30
0.0
  0
VERTEX
  8
DiodesLazer
 10
-24.3250789058
 20
-10.8941190776
 30
0.0
  0
VERTEX
  8
DiodesLazer
 10
-24.297950732
 20
-10.9361189674
 30
0.0
  0
VERTEX
  8
DiodesLazer
 10
-24.271604941
 20
-10.9786140006
 30
0.0
  0
VERTEX
  8
DiodesLazer
 10
-24.2460505673
 20
-11.0215896047
 30
0.0
  0
VERTEX
  8
DiodesLazer
 10
-24.2212963744
 20
-11.0650310421
 30
0.0
  0
VERTEX
  8
DiodesLazer
 10
-24.1973508509
 20
-11.1089234157
 30
0.0
  0
VERTEX
  8
DiodesLazer
 10
-24.1742222085
 20
-11.1532516737
 30
0.0
  0
VERTEX
  8
DiodesLazer
 10
-24.1519183785
 20
-11.1980006147
 30
0.0
  0
VERTEX
  8
DiodesLazer
 10
-24.1304470095
 20
-11.2431548933
 30
0.0
  0
VERTEX
  8
DiodesLazer
 10
-24.1098154647
 20
-11.2886990248
 30
0.0
  0
VERTEX
  8
DiodesLazer
 10
-24.090030819
 20
-11.3346173909
 30
0.0
  0
VERTEX
  8
DiodesLazer
 10
-24.0710998571
 20
-11.3808942452
 30
0.0
  0
VERTEX
  8
DiodesLazer
 10
-24.0530290711
 20
-11.427513718
 30
0.0
  0
VERTEX
  8
DiodesLazer
 10
-24.0358246577
 20
-11.4744598224
 30
0.0
  0
VERTEX
  8
DiodesLazer
 10
-24.0194925168
 20
-11.5217164593
 30
0.0
  0
VERTEX
  8
DiodesLazer
 10
-24.0040382492
 20
-11.5692674232
 30
0.0
  0
VERTEX
  8
DiodesLazer
 10
-23.9894671545
 20
-11.6170964076
 30
0.0
  0
VERTEX
  8
DiodesLazer
 10
-23.9757842295
 20
-11.6651870109
 30
0.0
  0
VERTEX
  8
DiodesLazer
 10
-23.9629941665
 20
-11.7135227414
 30
0.0
  0
VERTEX
  8
DiodesLazer
 10
-23.9511013514
 20
-11.7620870236
 30
0.0
  0
VERTEX
  8
DiodesLazer
 10
-23.9401098627
 20
-11.8108632035
 30
0.0
  0
VERTEX
  8
DiodesLazer
 10
-23.9300234695
 20
-11.8598345546
 30
0.0
  0
VERTEX
  8
DiodesLazer
 10
-23.9208456309
 20
-11.9089842834
 30
0.0
  0
VERTEX
  8
DiodesLazer
 10
-23.912579494
 20
-11.958295535
 30
0.0
  0
VERTEX
  8
DiodesLazer
 10
-23.9052278936
 20
-12.0077513994
 30
0.0
  0
VERTEX
  8
DiodesLazer
 10
-23.8987933508
 20
-12.057334917
 30
0.0
  0
VERTEX
  8
DiodesLazer
 10
-23.893278072
 20
-12.1070290842
 30
0.0
  0
VERTEX
  8
DiodesLazer
 10
-23.8886839487
 20
-12.1568168597
 30
0.0
  0
VERTEX
  8
DiodesLazer
 10
-23.8850125562
 20
-12.2066811699
 30
0.0
  0
VERTEX
  8
DiodesLazer
 10
-23.8822651536
 20
-12.2566049151
 30
0.0
  0
VERTEX
  8
DiodesLazer
 10
-23.880442683
 20
-12.3065709752
 30
0.0
  0
VERTEX
  8
DiodesLazer
 10
-23.8795457695
 20
-12.3565622154
 30
0.0
  0
VERTEX
  8
DiodesLazer
 10
-23.8795747205
 20
-12.4065614926
 30
0.0
  0
VERTEX
  8
DiodesLazer
 10
-23.8805295262
 20
-12.4565516606
 30
0.0
  0
VERTEX
  8
DiodesLazer
 10
-23.8824098591
 20
-12.5065155767
 30
0.0
  0
VERTEX
  8
DiodesLazer
 10
-23.8852150744
 20
-12.5564361067
 30
0.0
  0
VERTEX
  8
DiodesLazer
 10
-23.8889442102
 20
-12.6062961318
 30
0.0
  0
VERTEX
  8
DiodesLazer
 10
-23.8935959876
 20
-12.6560785537
 30
0.0
  0
VERTEX
  8
DiodesLazer
 10
-23.8991688114
 20
-12.7057663006
 30
0.0
  0
VERTEX
  8
DiodesLazer
 10
-23.9056607705
 20
-12.7553423333
 30
0.0
  0
VERTEX
  8
DiodesLazer
 10
-23.9130696387
 20
-12.804789651
 30
0.0
  0
VERTEX
  8
DiodesLazer
 10
-23.9213928753
 20
-12.8540912969
 30
0.0
  0
VERTEX
  8
DiodesLazer
 10
-23.930627626
 20
-12.9032303642
 30
0.0
  0
VERTEX
  8
DiodesLazer
 10
-23.940770724
 20
-12.9521900018
 30
0.0
  0
VERTEX
  8
DiodesLazer
 10
-23.951818691
 20
-13.0009534203
 30
0.0
  0
VERTEX
  8
DiodesLazer
 10
-23.9637677384
 20
-13.0495038974
 30
0.0
  0
VERTEX
  8
DiodesLazer
 10
-23.9766137684
 20
-13.0978247838
 30
0.0
  0
VERTEX
  8
DiodesLazer
 10
-23.9903523759
 20
-13.1458995092
 30
0.0
  0
VERTEX
  8
DiodesLazer
 10
-24.0049788495
 20
-13.1937115874
 30
0.0
  0
VERTEX
  8
DiodesLazer
 10
-24.0204881736
 20
-13.2412446225
 30
0.0
  0
VERTEX
  8
DiodesLazer
 10
-24.0368750294
 20
-13.2884823142
 30
0.0
  0
VERTEX
  8
DiodesLazer
 10
-24.0541337975
 20
-13.3354084634
 30
0.0
  0
VERTEX
  8
DiodesLazer
 10
-24.0722585595
 20
-13.3820069779
 30
0.0
  0
VERTEX
  8
DiodesLazer
 10
-24.0912430999
 20
-13.428261878
 30
0.0
  0
VERTEX
  8
DiodesLazer
 10
-24.1110809085
 20
-13.4741573016
 30
0.0
  0
VERTEX
  8
DiodesLazer
 10
-24.1317651822
 20
-13.51967751
 30
0.0
  0
VERTEX
  8
DiodesLazer
 10
-24.1532888281
 20
-13.5648068932
 30
0.0
  0
VERTEX
  8
DiodesLazer
 10
-24.1756444649
 20
-13.6095299751
 30
0.0
  0
VERTEX
  8
DiodesLazer
 10
-24.1988244265
 20
-13.6538314191
 30
0.0
  0
VERTEX
  8
DiodesLazer
 10
-24.2228207638
 20
-13.697696033
 30
0.0
  0
VERTEX
  8
DiodesLazer
 10
-24.2476252479
 20
-13.7411087745
 30
0.0
  0
VERTEX
  8
DiodesLazer
 10
-24.2732293726
 20
-13.7840547563
 30
0.0
  0
VERTEX
  8
DiodesLazer
 10
-24.2996243577
 20
-13.8265192511
 30
0.0
  0
VERTEX
  8
DiodesLazer
 10
-24.3268011516
 20
-13.8684876967
 30
0.0
  0
VERTEX
  8
DiodesLazer
 10
-24.3547504347
 20
-13.9099457011
 30
0.0
  0
VERTEX
  8
DiodesLazer
 10
-24.3834626225
 20
-13.9508790473
 30
0.0
  0
VERTEX
  8
DiodesLazer
 10
-24.4129278688
 20
-13.9912736981
 30
0.0
  0
VERTEX
  8
DiodesLazer
 10
-24.4431360693
 20
-14.0311158012
 30
0.0
  0
VERTEX
  8
DiodesLazer
 10
-24.4740768647
 20
-14.0703916938
 30
0.0
  0
VERTEX
  8
DiodesLazer
 10
-24.5057396447
 20
-14.109087907
 30
0.0
  0
VERTEX
  8
DiodesLazer
 10
-24.5381135513
 20
-14.147191171
 30
0.0
  0
VERTEX
  8
DiodesLazer
 10
-24.5711874827
 20
-14.1846884192
 30
0.0
  0
VERTEX
  8
DiodesLazer
 10
-24.6049500969
 20
-14.2215667928
 30
0.0
  0
VERTEX
  8
DiodesLazer
 10
-24.6393898158
 20
-14.2578136453
 30
0.0
  0
VERTEX
  8
DiodesLazer
 10
-24.6744948293
 20
-14.2934165466
 30
0.0
  0
VERTEX
  8
DiodesLazer
 10
-24.7102530989
 20
-14.3283632877
 30
0.0
  0
VERTEX
  8
DiodesLazer
 10
-24.7466523621
 20
-14.3626418844
 30
0.0
  0
VERTEX
  8
DiodesLazer
 10
-24.7836801368
 20
-14.3962405817
 30
0.0
  0
VERTEX
  8
DiodesLazer
 10
-24.8213237251
 20
-14.4291478577
 30
0.0
  0
VERTEX
  8
DiodesLazer
 10
-24.8595702181
 20
-14.4613524277
 30
0.0
  0
VERTEX
  8
DiodesLazer
 10
-24.8984065001
 20
-14.4928432479
 30
0.0
  0
VERTEX
  8
DiodesLazer
 10
-24.9378192531
 20
-14.5236095192
 30
0.0
  0
VERTEX
  8
DiodesLazer
 10
-24.9777949615
 20
-14.5536406913
 30
0.0
  0
VERTEX
  8
DiodesLazer
 10
-25.0183199166
 20
-14.5829264655
 30
0.0
  0
VERTEX
  8
DiodesLazer
 10
-25.0593802213
 20
-14.6114567991
 30
0.0
  0
VERTEX
  8
DiodesLazer
 10
-25.100961795
 20
-14.6392219082
 30
0.0
  0
VERTEX
  8
DiodesLazer
 10
-25.1430503784
 20
-14.6662122715
 30
0.0
  0
VERTEX
  8
DiodesLazer
 10
-25.185631538
 20
-14.6924186332
 30
0.0
  0
VERTEX
  8
DiodesLazer
 10
-25.2286906719
 20
-14.7178320067
 30
0.0
  0
VERTEX
  8
DiodesLazer
 10
-25.2722130138
 20
-14.7424436769
 30
0.0
  0
VERTEX
  8
DiodesLazer
 10
-25.3161836388
 20
-14.7662452039
 30
0.0
  0
VERTEX
  8
DiodesLazer
 10
-25.3605874684
 20
-14.7892284255
 30
0.0
  0
VERTEX
  8
DiodesLazer
 10
-25.4054092753
 20
-14.8113854602
 30
0.0
  0
VERTEX
  8
DiodesLazer
 10
-25.4506336888
 20
-14.8327087097
 30
0.0
  0
VERTEX
  8
DiodesLazer
 10
-25.4962452005
 20
-14.8531908619
 30
0.0
  0
VERTEX
  8
DiodesLazer
 10
-25.542228169
 20
-14.8728248928
 30
0.0
  0
VERTEX
  8
DiodesLazer
 10
-25.5885668254
 20
-14.8916040694
 30
0.0
  0
VERTEX
  8
DiodesLazer
 10
-25.6352452792
 20
-14.9095219518
 30
0.0
  0
VERTEX
  8
DiodesLazer
 10
-25.682247523
 20
-14.9265723956
 30
0.0
  0
VERTEX
  8
DiodesLazer
 10
-25.7295574386
 20
-14.9427495536
 30
0.0
  0
VERTEX
  8
DiodesLazer
 10
-25.7771588022
 20
-14.9580478785
 30
0.0
  0
VERTEX
  8
DiodesLazer
 10
-25.82503529
 20
-14.9724621239
 30
0.0
  0
VERTEX
  8
DiodesLazer
 10
-25.873170484
 20
-14.9859873468
 30
0.0
  0
VERTEX
  8
DiodesLazer
 10
-25.9215478773
 20
-14.9986189091
 30
0.0
  0
VERTEX
  8
DiodesLazer
 10
-25.9701508802
 20
-15.0103524791
 30
0.0
  0
VERTEX
  8
DiodesLazer
 10
-26.0189628254
 20
-15.0211840331
 30
0.0
  0
VERTEX
  8
DiodesLazer
 10
-26.0679669741
 20
-15.0311098566
 30
0.0
  0
VERTEX
  8
DiodesLazer
 10
-26.1171465214
 20
-15.0401265459
 30
0.0
  0
VERTEX
  8
DiodesLazer
 10
-26.1664846024
 20
-15.0482310088
 30
0.0
  0
VERTEX
  8
DiodesLazer
 10
-26.2159642978
 20
-15.0554204661
 30
0.0
  0
VERTEX
  8
DiodesLazer
 10
-26.2655686398
 20
-15.0616924525
 30
0.0
  0
VERTEX
  8
DiodesLazer
 10
-26.3152806177
 20
-15.067044817
 30
0.0
  0
VERTEX
  8
DiodesLazer
 10
-26.3650831841
 20
-15.0714757242
 30
0.0
  0
VERTEX
  8
DiodesLazer
 10
-26.4149592603
 20
-15.0749836546
 30
0.0
  0
VERTEX
  8
DiodesLazer
 10
-26.4648917426
 20
-15.0775674053
 30
0.0
  0
VERTEX
  8
DiodesLazer
 10
-26.5148635078
 20
-15.0792260903
 30
0.0
  0
VERTEX
  8
DiodesLazer
 10
-26.5648574194
 20
-15.0799591407
 30
0.0
  0
SEQEND
  8
DiodesLazer
  0
POLYLINE
  8
DiodesLazer
 62
0
 70
1
 66
1
 10
0.0
 20
0.0
 30
0.0
  0
VERTEX
  8
DiodesLazer
 10
-26.5794347921
 20
-14.4004678068
 30
0.0
  0
VERTEX
  8
DiodesLazer
 10
-26.529439892
 20
-14.3998494304
 30
0.0
  0
VERTEX
  8
DiodesLazer
 10
-26.4794756002
 20
-14.3979941752
 30
0.0
  0
VERTEX
  8
DiodesLazer
 10
-26.4295725126
 20
-14.3949031773
 30
0.0
  0
VERTEX
  8
DiodesLazer
 10
-26.3797611874
 20
-14.3905783296
 30
0.0
  0
VERTEX
  8
DiodesLazer
 10
-26.3300721269
 20
-14.3850222802
 30
0.0
  0
VERTEX
  8
DiodesLazer
 10
-26.2805357582
 20
-14.3782384316
 30
0.0
  0
VERTEX
  8
DiodesLazer
 10
-26.2311824152
 20
-14.3702309378
 30
0.0
  0
VERTEX
  8
DiodesLazer
 10
-26.1820423196
 20
-14.3610047022
 30
0.0
  0
VERTEX
  8
DiodesLazer
 10
-26.1331455624
 20
-14.3505653746
 30
0.0
  0
VERTEX
  8
DiodesLazer
 10
-26.0845220859
 20
-14.3389193475
 30
0.0
  0
VERTEX
  8
DiodesLazer
 10
-26.0362016646
 20
-14.3260737524
 30
0.0
  0
VERTEX
  8
DiodesLazer
 10
-25.9882138879
 20
-14.3120364553
 30
0.0
  0
VERTEX
  8
DiodesLazer
 10
-25.9405881412
 20
-14.2968160521
 30
0.0
  0
VERTEX
  8
DiodesLazer
 10
-25.8933535883
 20
-14.2804218629
 30
0.0
  0
VERTEX
  8
DiodesLazer
 10
-25.8465391535
 20
-14.262863927
 30
0.0
  0
VERTEX
  8
DiodesLazer
 10
-25.8001735038
 20
-14.2441529958
 30
0.0
  0
VERTEX
  8
DiodesLazer
 10
-25.7542850313
 20
-14.2243005271
 30
0.0
  0
VERTEX
  8
DiodesLazer
 10
-25.7089018359
 20
-14.2033186777
 30
0.0
  0
VERTEX
  8
DiodesLazer
 10
-25.6640517084
 20
-14.1812202959
 30
0.0
  0
VERTEX
  8
DiodesLazer
 10
-25.6197621127
 20
-14.1580189136
 30
0.0
  0
VERTEX
  8
DiodesLazer
 10
-25.5760601698
 20
-14.1337287384
 30
0.0
  0
VERTEX
  8
DiodesLazer
 10
-25.5329726408
 20
-14.1083646444
 30
0.0
  0
VERTEX
  8
DiodesLazer
 10
-25.4905259104
 20
-14.0819421634
 30
0.0
  0
VERTEX
  8
DiodesLazer
 10
-25.4487459711
 20
-14.0544774753
 30
0.0
  0
VERTEX
  8
DiodesLazer
 10
-25.4076584069
 20
-14.0259873982
 30
0.0
  0
VERTEX
  8
DiodesLazer
 10
-25.367288378
 20
-13.9964893781
 30
0.0
  0
VERTEX
  8
DiodesLazer
 10
-25.3276606051
 20
-13.9660014783
 30
0.0
  0
VERTEX
  8
DiodesLazer
 10
-25.2887993544
 20
-13.934542368
 30
0.0
  0
VERTEX
  8
DiodesLazer
 10
-25.2507284228
 20
-13.9021313115
 30
0.0
  0
VERTEX
  8
DiodesLazer
 10
-25.213471123
 20
-13.8687881557
 30
0.0
  0
VERTEX
  8
DiodesLazer
 10
-25.1770502698
 20
-13.8345333184
 30
0.0
  0
VERTEX
  8
DiodesLazer
 10
-25.1414881657
 20
-13.7993877758
 30
0.0
  0
VERTEX
  8
DiodesLazer
 10
-25.1068065871
 20
-13.7633730493
 30
0.0
  0
VERTEX
  8
DiodesLazer
 10
-25.0730267714
 20
-13.7265111926
 30
0.0
  0
VERTEX
  8
DiodesLazer
 10
-25.0401694039
 20
-13.6888247782
 30
0.0
  0
VERTEX
  8
DiodesLazer
 10
-25.008254605
 20
-13.6503368837
 30
0.0
  0
VERTEX
  8
DiodesLazer
 10
-24.9773019176
 20
-13.6110710771
 30
0.0
  0
VERTEX
  8
DiodesLazer
 10
-24.9473302959
 20
-13.571051403
 30
0.0
  0
VERTEX
  8
DiodesLazer
 10
-24.918358093
 20
-13.5303023676
 30
0.0
  0
VERTEX
  8
DiodesLazer
 10
-24.8904030502
 20
-13.4888489238
 30
0.0
  0
VERTEX
  8
DiodesLazer
 10
-24.8634822859
 20
-13.4467164557
 30
0.0
  0
VERTEX
  8
DiodesLazer
 10
-24.837612285
 20
-13.4039307632
 30
0.0
  0
VERTEX
  8
DiodesLazer
 10
-24.8128088893
 20
-13.3605180464
 30
0.0
  0
VERTEX
  8
DiodesLazer
 10
-24.789087287
 20
-13.3165048892
 30
0.0
  0
VERTEX
  8
DiodesLazer
 10
-24.7664620043
 20
-13.2719182431
 30
0.0
  0
VERTEX
  8
DiodesLazer
 10
-24.7449468958
 20
-13.2267854111
 30
0.0
  0
VERTEX
  8
DiodesLazer
 10
-24.7245551364
 20
-13.1811340303
 30
0.0
  0
VERTEX
  8
DiodesLazer
 10
-24.705299213
 20
-13.1349920555
 30
0.0
  0
VERTEX
  8
DiodesLazer
 10
-24.6871909171
 20
-13.088387742
 30
0.0
  0
VERTEX
  8
DiodesLazer
 10
-24.6702413373
 20
-13.041349628
 30
0.0
  0
VERTEX
  8
DiodesLazer
 10
-24.6544608528
 20
-12.9939065175
 30
0.0
  0
VERTEX
  8
DiodesLazer
 10
-24.6398591268
 20
-12.9460874625
 30
0.0
  0
VERTEX
  8
DiodesLazer
 10
-24.6264451007
 20
-12.8979217452
 30
0.0
  0
VERTEX
  8
DiodesLazer
 10
-24.6142269887
 20
-12.8494388599
 30
0.0
  0
VERTEX
  8
DiodesLazer
 10
-24.6032122726
 20
-12.8006684955
 30
0.0
  0
VERTEX
  8
DiodesLazer
 10
-24.5934076973
 20
-12.7516405165
 30
0.0
  0
VERTEX
  8
DiodesLazer
 10
-24.5848192665
 20
-12.7023849454
 30
0.0
  0
VERTEX
  8
DiodesLazer
 10
-24.5774522396
 20
-12.6529319441
 30
0.0
  0
VERTEX
  8
DiodesLazer
 10
-24.5713111277
 20
-12.6033117953
 30
0.0
  0
VERTEX
  8
DiodesLazer
 10
-24.5663996914
 20
-12.5535548841
 30
0.0
  0
VERTEX
  8
DiodesLazer
 10
-24.5627209382
 20
-12.5036916792
 30
0.0
  0
VERTEX
  8
DiodesLazer
 10
-24.5602771207
 20
-12.4537527147
 30
0.0
  0
VERTEX
  8
DiodesLazer
 10
-24.5590697355
 20
-12.4037685708
 30
0.0
  0
VERTEX
  8
DiodesLazer
 10
-24.5590995219
 20
-12.3537698554
 30
0.0
  0
VERTEX
  8
DiodesLazer
 10
-24.5603664617
 20
-12.3037871856
 30
0.0
  0
VERTEX
  8
DiodesLazer
 10
-24.5628697791
 20
-12.2538511683
 30
0.0
  0
VERTEX
  8
DiodesLazer
 10
-24.5666079411
 20
-12.203992382
 30
0.0
  0
VERTEX
  8
DiodesLazer
 10
-24.5715786587
 20
-12.154241358
 30
0.0
  0
VERTEX
  8
DiodesLazer
 10
-24.577778888
 20
-12.1046285615
 30
0.0
  0
VERTEX
  8
DiodesLazer
 10
-24.5852048322
 20
-12.055184373
 30
0.0
  0
VERTEX
  8
DiodesLazer
 10
-24.5938519442
 20
-12.0059390699
 30
0.0
  0
VERTEX
  8
DiodesLazer
 10
-24.6037149288
 20
-11.9569228077
 30
0.0
  0
VERTEX
  8
DiodesLazer
 10
-24.6147877464
 20
-11.9081656018
 30
0.0
  0
VERTEX
  8
DiodesLazer
 10
-24.6270636164
 20
-11.8596973087
 30
0.0
  0
VERTEX
  8
DiodesLazer
 10
-24.6405350218
 20
-11.8115476082
 30
0.0
  0
VERTEX
  8
DiodesLazer
 10
-24.6551937132
 20
-11.7637459849
 30
0.0
  0
VERTEX
  8
DiodesLazer
 10
-24.6710307144
 20
-11.7163217103
 30
0.0
  0
VERTEX
  8
DiodesLazer
 10
-24.6880363275
 20
-11.6693038249
 30
0.0
  0
VERTEX
  8
DiodesLazer
 10
-24.706200139
 20
-11.6227211203
 30
0.0
  0
VERTEX
  8
DiodesLazer
 10
-24.7255110263
 20
-11.5766021214
 30
0.0
  0
VERTEX
  8
DiodesLazer
 10
-24.7459571643
 20
-11.5309750695
 30
0.0
  0
VERTEX
  8
DiodesLazer
 10
-24.7675260327
 20
-11.4858679045
 30
0.0
  0
VERTEX
  8
DiodesLazer
 10
-24.7902044237
 20
-11.4413082478
 30
0.0
  0
VERTEX
  8
DiodesLazer
 10
-24.8139784502
 20
-11.3973233858
 30
0.0
  0
VERTEX
  8
DiodesLazer
 10
-24.8388335541
 20
-11.3539402528
 30
0.0
  0
VERTEX
  8
DiodesLazer
 10
-24.8647545152
 20
-11.3111854145
 30
0.0
  0
VERTEX
  8
DiodesLazer
 10
-24.8917254607
 20
-11.269085052
 30
0.0
  0
VERTEX
  8
DiodesLazer
 10
-24.9197298749
 20
-11.2276649456
 30
0.0
  0
VERTEX
  8
DiodesLazer
 10
-24.9487506091
 20
-11.1869504592
 30
0.0
  0
VERTEX
  8
DiodesLazer
 10
-24.9787698925
 20
-11.1469665243
 30
0.0
  0
VERTEX
  8
DiodesLazer
 10
-25.0097693426
 20
-11.1077376253
 30
0.0
  0
VERTEX
  8
DiodesLazer
 10
-25.0417299767
 20
-11.0692877842
 30
0.0
  0
VERTEX
  8
DiodesLazer
 10
-25.0746322238
 20
-11.0316405457
 30
0.0
  0
VERTEX
  8
DiodesLazer
 10
-25.1084559359
 20
-10.9948189634
 30
0.0
  0
VERTEX
  8
DiodesLazer
 10
-25.1431804009
 20
-10.9588455851
 30
0.0
  0
VERTEX
  8
DiodesLazer
 10
-25.1787843553
 20
-10.9237424392
 30
0.0
  0
VERTEX
  8
DiodesLazer
 10
-25.2152459969
 20
-10.8895310212
 30
0.0
  0
VERTEX
  8
DiodesLazer
 10
-25.2525429981
 20
-10.8562322807
 30
0.0
  0
VERTEX
  8
DiodesLazer
 10
-25.2906525201
 20
-10.8238666082
 30
0.0
  0
VERTEX
  8
DiodesLazer
 10
-25.3295512263
 20
-10.7924538229
 30
0.0
  0
VERTEX
  8
DiodesLazer
 10
-25.369215297
 20
-10.7620131607
 30
0.0
  0
VERTEX
  8
DiodesLazer
 10
-25.4096204438
 20
-10.7325632619
 30
0.0
  0
VERTEX
  8
DiodesLazer
 10
-25.4507419243
 20
-10.7041221604
 30
0.0
  0
VERTEX
  8
DiodesLazer
 10
-25.4925545578
 20
-10.676707272
 30
0.0
  0
VERTEX
  8
DiodesLazer
 10
-25.5350327401
 20
-10.6503353845
 30
0.0
  0
VERTEX
  8
DiodesLazer
 10
-25.5781504596
 20
-10.6250226467
 30
0.0
  0
VERTEX
  8
DiodesLazer
 10
-25.6218813128
 20
-10.600784559
 30
0.0
  0
VERTEX
  8
DiodesLazer
 10
-25.6661985212
 20
-10.5776359637
 30
0.0
  0
VERTEX
  8
DiodesLazer
 10
-25.7110749469
 20
-10.5555910359
 30
0.0
  0
VERTEX
  8
DiodesLazer
 10
-25.7564831096
 20
-10.5346632749
 30
0.0
  0
VERTEX
  8
DiodesLazer
 10
-25.8023952035
 20
-10.5148654958
 30
0.0
  0
VERTEX
  8
DiodesLazer
 10
-25.8487831142
 20
-10.496209822
 30
0.0
  0
VERTEX
  8
DiodesLazer
 10
-25.8956184358
 20
-10.4787076773
 30
0.0
  0
VERTEX
  8
DiodesLazer
 10
-25.9428724886
 20
-10.4623697792
 30
0.0
  0
VERTEX
  8
DiodesLazer
 10
-25.9905163364
 20
-10.4472061322
 30
0.0
  0
VERTEX
  8
DiodesLazer
 10
-26.0385208043
 20
-10.4332260219
 30
0.0
  0
VERTEX
  8
DiodesLazer
 10
-26.0868564966
 20
-10.4204380091
 30
0.0
  0
VERTEX
  8
DiodesLazer
 10
-26.1354938148
 20
-10.4088499245
 30
0.0
  0
VERTEX
  8
DiodesLazer
 10
-26.1844029755
 20
-10.3984688641
 30
0.0
  0
VERTEX
  8
DiodesLazer
 10
-26.2335540292
 20
-10.3893011849
 30
0.0
  0
VERTEX
  8
DiodesLazer
 10
-26.282916878
 20
-10.3813525006
 30
0.0
  0
VERTEX
  8
DiodesLazer
 10
-26.3324612944
 20
-10.3746276787
 30
0.0
  0
VERTEX
  8
DiodesLazer
 10
-26.3821569396
 20
-10.3691308372
 30
0.0
  0
VERTEX
  8
DiodesLazer
 10
-26.4319733824
 20
-10.3648653421
 30
0.0
  0
VERTEX
  8
DiodesLazer
 10
-26.4818801175
 20
-10.3618338053
 30
0.0
  0
VERTEX
  8
DiodesLazer
 10
-26.5318465843
 20
-10.3600380832
 30
0.0
  0
VERTEX
  8
DiodesLazer
 10
-26.5818421857
 20
-10.3594792755
 30
0.0
  0
VERTEX
  8
DiodesLazer
 10
-26.6318363067
 20
-10.3601577243
 30
0.0
  0
VERTEX
  8
DiodesLazer
 10
-26.6817983331
 20
-10.3620730143
 30
0.0
  0
VERTEX
  8
DiodesLazer
 10
-26.7316976706
 20
-10.3652239724
 30
0.0
  0
VERTEX
  8
DiodesLazer
 10
-26.7815037632
 20
-10.3696086694
 30
0.0
  0
VERTEX
  8
DiodesLazer
 10
-26.8311861118
 20
-10.37522442
 30
0.0
  0
VERTEX
  8
DiodesLazer
 10
-26.8807142934
 20
-10.3820677857
 30
0.0
  0
VERTEX
  8
DiodesLazer
 10
-26.9300579791
 20
-10.3901345757
 30
0.0
  0
VERTEX
  8
DiodesLazer
 10
-26.9791869532
 20
-10.3994198503
 30
0.0
  0
VERTEX
  8
DiodesLazer
 10
-27.0280711314
 20
-10.4099179238
 30
0.0
  0
VERTEX
  8
DiodesLazer
 10
-27.0766805793
 20
-10.4216223675
 30
0.0
  0
VERTEX
  8
DiodesLazer
 10
-27.1249855306
 20
-10.4345260142
 30
0.0
  0
VERTEX
  8
DiodesLazer
 10
-27.1729564057
 20
-10.4486209622
 30
0.0
  0
VERTEX
  8
DiodesLazer
 10
-27.2205638295
 20
-10.4638985806
 30
0.0
  0
VERTEX
  8
DiodesLazer
 10
-27.2677786494
 20
-10.480349514
 30
0.0
  0
VERTEX
  8
DiodesLazer
 10
-27.3145719531
 20
-10.4979636886
 30
0.0
  0
VERTEX
  8
DiodesLazer
 10
-27.3609150867
 20
-10.5167303183
 30
0.0
  0
VERTEX
  8
DiodesLazer
 10
-27.4067796718
 20
-10.5366379112
 30
0.0
  0
VERTEX
  8
DiodesLazer
 10
-27.452137623
 20
-10.557674277
 30
0.0
  0
VERTEX
  8
DiodesLazer
 10
-27.4969611652
 20
-10.5798265339
 30
0.0
  0
VERTEX
  8
DiodesLazer
 10
-27.5412228506
 20
-10.6030811169
 30
0.0
  0
VERTEX
  8
DiodesLazer
 10
-27.5848955753
 20
-10.627423786
 30
0.0
  0
VERTEX
  8
DiodesLazer
 10
-27.6279525963
 20
-10.6528396348
 30
0.0
  0
VERTEX
  8
DiodesLazer
 10
-27.6703675473
 20
-10.6793130998
 30
0.0
  0
VERTEX
  8
DiodesLazer
 10
-27.7121144554
 20
-10.70682797
 30
0.0
  0
VERTEX
  8
DiodesLazer
 10
-27.7531677569
 20
-10.7353673966
 30
0.0
  0
VERTEX
  8
DiodesLazer
 10
-27.7935023124
 20
-10.7649139031
 30
0.0
  0
VERTEX
  8
DiodesLazer
 10
-27.8330934231
 20
-10.7954493969
 30
0.0
  0
VERTEX
  8
DiodesLazer
 10
-27.8719168451
 20
-10.8269551793
 30
0.0
  0
VERTEX
  8
DiodesLazer
 10
-27.9099488048
 20
-10.8594119577
 30
0.0
  0
VERTEX
  8
DiodesLazer
 10
-27.9471660131
 20
-10.8927998571
 30
0.0
  0
VERTEX
  8
DiodesLazer
 10
-27.9835456801
 20
-10.9270984322
 30
0.0
  0
VERTEX
  8
DiodesLazer
 10
-28.0190655285
 20
-10.9622866801
 30
0.0
  0
VERTEX
  8
DiodesLazer
 10
-28.0537038075
 20
-10.9983430534
 30
0.0
  0
VERTEX
  8
DiodesLazer
 10
-28.0874393063
 20
-11.0352454726
 30
0.0
  0
VERTEX
  8
DiodesLazer
 10
-28.1202513668
 20
-11.0729713405
 30
0.0
  0
VERTEX
  8
DiodesLazer
 10
-28.1521198965
 20
-11.1114975554
 30
0.0
  0
VERTEX
  8
DiodesLazer
 10
-28.1830253805
 20
-11.1508005258
 30
0.0
  0
VERTEX
  8
DiodesLazer
 10
-28.2129488937
 20
-11.1908561843
 30
0.0
  0
VERTEX
  8
DiodesLazer
 10
-28.2418721125
 20
-11.2316400026
 30
0.0
  0
VERTEX
  8
DiodesLazer
 10
-28.2697773254
 20
-11.2731270067
 30
0.0
  0
VERTEX
  8
DiodesLazer
 10
-28.2966474448
 20
-11.3152917919
 30
0.0
  0
VERTEX
  8
DiodesLazer
 10
-28.3224660166
 20
-11.3581085383
 30
0.0
  0
VERTEX
  8
DiodesLazer
 10
-28.3472172306
 20
-11.4015510271
 30
0.0
  0
VERTEX
  8
DiodesLazer
 10
-28.3708859304
 20
-11.4455926559
 30
0.0
  0
VERTEX
  8
DiodesLazer
 10
-28.3934576223
 20
-11.4902064559
 30
0.0
  0
VERTEX
  8
DiodesLazer
 10
-28.4149184846
 20
-11.5353651075
 30
0.0
  0
VERTEX
  8
DiodesLazer
 10
-28.4352553755
 20
-11.5810409576
 30
0.0
  0
VERTEX
  8
DiodesLazer
 10
-28.4544558418
 20
-11.6272060366
 30
0.0
  0
VERTEX
  8
DiodesLazer
 10
-28.4725081258
 20
-11.6738320751
 30
0.0
  0
VERTEX
  8
DiodesLazer
 10
-28.4894011734
 20
-11.7208905214
 30
0.0
  0
VERTEX
  8
DiodesLazer
 10
-28.5051246398
 20
-11.7683525591
 30
0.0
  0
VERTEX
  8
DiodesLazer
 10
-28.5196688968
 20
-11.8161891247
 30
0.0
  0
VERTEX
  8
DiodesLazer
 10
-28.5330250383
 20
-11.8643709253
 30
0.0
  0
VERTEX
  8
DiodesLazer
 10
-28.5451848854
 20
-11.9128684566
 30
0.0
  0
VERTEX
  8
DiodesLazer
 10
-28.5561409921
 20
-11.9616520209
 30
0.0
  0
VERTEX
  8
DiodesLazer
 10
-28.5658866493
 20
-12.0106917455
 30
0.0
  0
VERTEX
  8
DiodesLazer
 10
-28.5744158893
 20
-12.0599576007
 30
0.0
  0
VERTEX
  8
DiodesLazer
 10
-28.5817234892
 20
-12.1094194184
 30
0.0
  0
VERTEX
  8
DiodesLazer
 10
-28.5878049741
 20
-12.1590469104
 30
0.0
  0
VERTEX
  8
DiodesLazer
 10
-28.59265662
 20
-12.2088096872
 30
0.0
  0
VERTEX
  8
DiodesLazer
 10
-28.5962754559
 20
-12.2586772763
 30
0.0
  0
VERTEX
  8
DiodesLazer
 10
-28.598659266
 20
-12.3086191413
 30
0.0
  0
VERTEX
  8
DiodesLazer
 10
-28.5998065904
 20
-12.3586046999
 30
0.0
  0
VERTEX
  8
DiodesLazer
 10
-28.5997167265
 20
-12.4086033433
 30
0.0
  0
VERTEX
  8
DiodesLazer
 10
-28.5983897295
 20
-12.4585844548
 30
0.0
  0
VERTEX
  8
DiodesLazer
 10
-28.5958264118
 20
-12.5085174281
 30
0.0
  0
VERTEX
  8
DiodesLazer
 10
-28.5920283432
 20
-12.5583716867
 30
0.0
  0
VERTEX
  8
DiodesLazer
 10
-28.5869978494
 20
-12.608116702
 30
0.0
  0
VERTEX
  8
DiodesLazer
 10
-28.5807380109
 20
-12.6577220127
 30
0.0
  0
VERTEX
  8
DiodesLazer
 10
-28.5732526608
 20
-12.7071572426
 30
0.0
  0
VERTEX
  8
DiodesLazer
 10
-28.5645463829
 20
-12.7563921199
 30
0.0
  0
VERTEX
  8
DiodesLazer
 10
-28.5546245085
 20
-12.8053964956
 30
0.0
  0
VERTEX
  8
DiodesLazer
 10
-28.5434931132
 20
-12.8541403615
 30
0.0
  0
VERTEX
  8
DiodesLazer
 10
-28.5311590135
 20
-12.9025938691
 30
0.0
  0
VERTEX
  8
DiodesLazer
 10
-28.5176297622
 20
-12.9507273479
 30
0.0
  0
VERTEX
  8
DiodesLazer
 10
-28.5029136439
 20
-12.9985113231
 30
0.0
  0
VERTEX
  8
DiodesLazer
 10
-28.4870196701
 20
-13.045916534
 30
0.0
  0
VERTEX
  8
DiodesLazer
 10
-28.4699575736
 20
-13.0929139519
 30
0.0
  0
VERTEX
  8
DiodesLazer
 10
-28.4517378023
 20
-13.1394747976
 30
0.0
  0
VERTEX
  8
DiodesLazer
 10
-28.4323715133
 20
-13.1855705596
 30
0.0
  0
VERTEX
  8
DiodesLazer
 10
-28.4118705655
 20
-13.2311730109
 30
0.0
  0
VERTEX
  8
DiodesLazer
 10
-28.3902475128
 20
-13.2762542266
 30
0.0
  0
VERTEX
  8
DiodesLazer
 10
-28.3675155962
 20
-13.3207866012
 30
0.0
  0
VERTEX
  8
DiodesLazer
 10
-28.3436887355
 20
-13.3647428651
 30
0.0
  0
VERTEX
  8
DiodesLazer
 10
-28.3187815213
 20
-13.4080961015
 30
0.0
  0
VERTEX
  8
DiodesLazer
 10
-28.2928092056
 20
-13.4508197628
 30
0.0
  0
VERTEX
  8
DiodesLazer
 10
-28.2657876926
 20
-13.4928876872
 30
0.0
  0
VERTEX
  8
DiodesLazer
 10
-28.2377335291
 20
-13.5342741141
 30
0.0
  0
VERTEX
  8
DiodesLazer
 10
-28.2086638941
 20
-13.5749537004
 30
0.0
  0
VERTEX
  8
DiodesLazer
 10
-28.1785965885
 20
-13.6149015358
 30
0.0
  0
VERTEX
  8
DiodesLazer
 10
-28.1475500241
 20
-13.6540931582
 30
0.0
  0
VERTEX
  8
DiodesLazer
 10
-28.1155432125
 20
-13.6925045684
 30
0.0
  0
VERTEX
  8
DiodesLazer
 10
-28.082595753
 20
-13.730112245
 30
0.0
  0
VERTEX
  8
DiodesLazer
 10
-28.0487278213
 20
-13.7668931588
 30
0.0
  0
VERTEX
  8
DiodesLazer
 10
-28.0139601564
 20
-13.8028247869
 30
0.0
  0
VERTEX
  8
DiodesLazer
 10
-27.9783140485
 20
-13.8378851265
 30
0.0
  0
VERTEX
  8
DiodesLazer
 10
-27.9418113255
 20
-13.8720527082
 30
0.0
  0
VERTEX
  8
DiodesLazer
 10
-27.9044743401
 20
-13.9053066094
 30
0.0
  0
VERTEX
  8
DiodesLazer
 10
-27.8663259557
 20
-13.9376264669
 30
0.0
  0
VERTEX
  8
DiodesLazer
 10
-27.8273895326
 20
-13.9689924896
 30
0.0
  0
VERTEX
  8
DiodesLazer
 10
-27.7876889136
 20
-13.9993854703
 30
0.0
  0
VERTEX
  8
DiodesLazer
 10
-27.7472484096
 20
-14.0287867978
 30
0.0
  0
VERTEX
  8
DiodesLazer
 10
-27.7060927845
 20
-14.0571784681
 30
0.0
  0
VERTEX
  8
DiodesLazer
 10
-27.66424724
 20
-14.0845430954
 30
0.0
  0
VERTEX
  8
DiodesLazer
 10
-27.6217374005
 20
-14.110863923
 30
0.0
  0
VERTEX
  8
DiodesLazer
 10
-27.5785892969
 20
-14.1361248331
 30
0.0
  0
VERTEX
  8
DiodesLazer
 10
-27.5348293512
 20
-14.1603103572
 30
0.0
  0
VERTEX
  8
DiodesLazer
 10
-27.4904843599
 20
-14.1834056851
 30
0.0
  0
VERTEX
  8
DiodesLazer
 10
-27.4455814779
 20
-14.2053966744
 30
0.0
  0
VERTEX
  8
DiodesLazer
 10
-27.4001482016
 20
-14.2262698588
 30
0.0
  0
VERTEX
  8
DiodesLazer
 10
-27.3542123522
 20
-14.2460124565
 30
0.0
  0
VERTEX
  8
DiodesLazer
 10
-27.3078020588
 20
-14.2646123781
 30
0.0
  0
VERTEX
  8
DiodesLazer
 10
-27.2609457407
 20
-14.2820582338
 30
0.0
  0
VERTEX
  8
DiodesLazer
 10
-27.2136720907
 20
-14.2983393406
 30
0.0
  0
VERTEX
  8
DiodesLazer
 10
-27.166010057
 20
-14.3134457287
 30
0.0
  0
VERTEX
  8
DiodesLazer
 10
-27.1179888255
 20
-14.3273681478
 30
0.0
  0
VERTEX
  8
DiodesLazer
 10
-27.0696378023
 20
-14.3400980722
 30
0.0
  0
VERTEX
  8
DiodesLazer
 10
-27.0209865953
 20
-14.3516277068
 30
0.0
  0
VERTEX
  8
DiodesLazer
 10
-26.9720649961
 20
-14.3619499914
 30
0.0
  0
VERTEX
  8
DiodesLazer
 10
-26.9229029622
 20
-14.3710586051
 30
0.0
  0
VERTEX
  8
DiodesLazer
 10
-26.8735305981
 20
-14.3789479702
 30
0.0
  0
VERTEX
  8
DiodesLazer
 10
-26.8239781371
 20
-14.3856132557
 30
0.0
  0
VERTEX
  8
DiodesLazer
 10
-26.7742759228
 20
-14.39105038
 30
0.0
  0
VERTEX
  8
DiodesLazer
 10
-26.7244543906
 20
-14.3952560136
 30
0.0
  0
VERTEX
  8
DiodesLazer
 10
-26.6745440489
 20
-14.3982275813
 30
0.0
  0
VERTEX
  8
DiodesLazer
 10
-26.6245754605
 20
-14.3999632633
 30
0.0
  0
SEQEND
  8
DiodesLazer
  0
POLYLINE
  8
DiodesLazer
 62
0
 70
0
 66
1
 10
0.0
 20
0.0
 30
0.0
  0
VERTEX
  8
DiodesLazer
 10
-26.5794347921
 20
-14.4004678068
 30
0.0
  0
VERTEX
  8
DiodesLazer
 10
-26.5794341323
 20
-14.3504678068
 30
0.0
  0
VERTEX
  8
DiodesLazer
 10
-26.5794335148
 20
-14.3004678068
 30
0.0
  0
VERTEX
  8
DiodesLazer
 10
-26.5794329309
 20
-14.2504678068
 30
0.0
  0
VERTEX
  8
DiodesLazer
 10
-26.5794323745
 20
-14.2004678068
 30
0.0
  0
VERTEX
  8
DiodesLazer
 10
-26.5794318414
 20
-14.1504678068
 30
0.0
  0
VERTEX
  8
DiodesLazer
 10
-26.5794313284
 20
-14.1004678068
 30
0.0
  0
VERTEX
  8
DiodesLazer
 10
-26.5794308331
 20
-14.0504678068
 30
0.0
  0
VERTEX
  8
DiodesLazer
 10
-26.5794303535
 20
-14.0004678068
 30
0.0
  0
VERTEX
  8
DiodesLazer
 10
-26.5794298879
 20
-13.9504678068
 30
0.0
  0
VERTEX
  8
DiodesLazer
 10
-26.5794294353
 20
-13.9004678068
 30
0.0
  0
VERTEX
  8
DiodesLazer
 10
-26.5794289944
 20
-13.8504678068
 30
0.0
  0
VERTEX
  8
DiodesLazer
 10
-26.5794285643
 20
-13.8004678068
 30
0.0
  0
VERTEX
  8
DiodesLazer
 10
-26.5794281444
 20
-13.7504678068
 30
0.0
  0
VERTEX
  8
DiodesLazer
 10
-26.5794277339
 20
-13.7004678068
 30
0.0
  0
VERTEX
  8
DiodesLazer
 10
-26.5794273323
 20
-13.6504678068
 30
0.0
  0
VERTEX
  8
DiodesLazer
 10
-26.5794269391
 20
-13.6004678068
 30
0.0
  0
VERTEX
  8
DiodesLazer
 10
-26.5794265539
 20
-13.5504678068
 30
0.0
  0
VERTEX
  8
DiodesLazer
 10
-26.5794261762
 20
-13.5004678068
 30
0.0
  0
VERTEX
  8
DiodesLazer
 10
-26.5794258057
 20
-13.4504678068
 30
0.0
  0
VERTEX
  8
DiodesLazer
 10
-26.5794254422
 20
-13.4004678068
 30
0.0
  0
VERTEX
  8
DiodesLazer
 10
-26.5794250853
 20
-13.3504678068
 30
0.0
  0
VERTEX
  8
DiodesLazer
 10
-26.5794247348
 20
-13.3004678068
 30
0.0
  0
VERTEX
  8
DiodesLazer
 10
-26.5794243905
 20
-13.2504678068
 30
0.0
  0
VERTEX
  8
DiodesLazer
 10
-26.5794240522
 20
-13.2004678068
 30
0.0
  0
VERTEX
  8
DiodesLazer
 10
-26.5794237198
 20
-13.1504678068
 30
0.0
  0
VERTEX
  8
DiodesLazer
 10
-26.5794233931
 20
-13.1004678068
 30
0.0
  0
VERTEX
  8
DiodesLazer
 10
-26.5794230719
 20
-13.0504678068
 30
0.0
  0
VERTEX
  8
DiodesLazer
 10
-26.5794227561
 20
-13.0004678068
 30
0.0
  0
VERTEX
  8
DiodesLazer
 10
-26.5794224456
 20
-12.9504678068
 30
0.0
  0
VERTEX
  8
DiodesLazer
 10
-26.5794221403
 20
-12.9004678068
 30
0.0
  0
VERTEX
  8
DiodesLazer
 10
-26.5794218401
 20
-12.8504678068
 30
0.0
  0
VERTEX
  8
DiodesLazer
 10
-26.579421545
 20
-12.8004678068
 30
0.0
  0
VERTEX
  8
DiodesLazer
 10
-26.5794212548
 20
-12.7504678068
 30
0.0
  0
VERTEX
  8
DiodesLazer
 10
-26.5794209696
 20
-12.7004678068
 30
0.0
  0
VERTEX
  8
DiodesLazer
 10
-26.5794206892
 20
-12.6504678068
 30
0.0
  0
VERTEX
  8
DiodesLazer
 10
-26.5794204136
 20
-12.6004678068
 30
0.0
  0
VERTEX
  8
DiodesLazer
 10
-26.5794201428
 20
-12.5504678068
 30
0.0
  0
VERTEX
  8
DiodesLazer
 10
-26.5794198767
 20
-12.5004678068
 30
0.0
  0
VERTEX
  8
DiodesLazer
 10
-26.5794196154
 20
-12.4504678068
 30
0.0
  0
VERTEX
  8
DiodesLazer
 10
-26.5794193588
 20
-12.4004678068
 30
0.0
  0
VERTEX
  8
DiodesLazer
 10
-26.5794192549
 20
-12.3799657563
 30
0.0
  0
SEQEND
  8
DiodesLazer
  0
ENDBLK
  0
BLOCK
  8
Base
  2
PAD034
 70
0
 10
0.0
 20
0.0
 30
0.0
  3
PAD034
  0
POLYLINE
  8
Base
 62
0
 70
0
 66
1
 10
0.0
 20
0.0
 30
0.0
  0
VERTEX
  8
Base
 10
-31.6724125142
 20
0.0
 30
0.0
  0
VERTEX
  8
Base
 10
-31.6943248126
 20
0.0
 30
0.0
  0
SEQEND
  8
Base
  0
POLYLINE
  8
Base
 62
0
 70
0
 66
1
 10
0.0
 20
0.0
 30
0.0
  0
VERTEX
  8
Base
 10
-31.6724125142
 20
1.5
 30
0.0
  0
VERTEX
  8
Base
 10
-31.6943248126
 20
1.5
 30
0.0
  0
SEQEND
  8
Base
  0
POLYLINE
  8
Base
 62
0
 70
0
 66
1
 10
0.0
 20
0.0
 30
0.0
  0
VERTEX
  8
Base
 10
-30.0677899674
 20
0.0
 30
0.0
  0
VERTEX
  8
Base
 10
-30.1177899674
 20
0.0
 30
0.0
  0
VERTEX
  8
Base
 10
-30.1677899674
 20
0.0
 30
0.0
  0
VERTEX
  8
Base
 10
-30.2177899674
 20
0.0
 30
0.0
  0
VERTEX
  8
Base
 10
-30.2677899674
 20
0.0
 30
0.0
  0
VERTEX
  8
Base
 10
-30.3177899674
 20
0.0
 30
0.0
  0
VERTEX
  8
Base
 10
-30.3677899674
 20
0.0
 30
0.0
  0
VERTEX
  8
Base
 10
-30.4177899674
 20
0.0
 30
0.0
  0
VERTEX
  8
Base
 10
-30.4677899674
 20
0.0
 30
0.0
  0
VERTEX
  8
Base
 10
-30.5177899674
 20
0.0
 30
0.0
  0
VERTEX
  8
Base
 10
-30.5677899674
 20
0.0
 30
0.0
  0
VERTEX
  8
Base
 10
-30.6177899674
 20
0.0
 30
0.0
  0
VERTEX
  8
Base
 10
-30.6677899674
 20
0.0
 30
0.0
  0
VERTEX
  8
Base
 10
-30.7177899674
 20
0.0
 30
0.0
  0
VERTEX
  8
Base
 10
-30.7677899674
 20
0.0
 30
0.0
  0
VERTEX
  8
Base
 10
-30.8177899674
 20
0.0
 30
0.0
  0
VERTEX
  8
Base
 10
-30.8677899674
 20
0.0
 30
0.0
  0
VERTEX
  8
Base
 10
-30.9177899674
 20
0.0
 30
0.0
  0
VERTEX
  8
Base
 10
-30.9677899674
 20
0.0
 30
0.0
  0
VERTEX
  8
Base
 10
-31.0177899674
 20
0.0
 30
0.0
  0
VERTEX
  8
Base
 10
-31.0677899674
 20
0.0
 30
0.0
  0
VERTEX
  8
Base
 10
-31.1177899674
 20
0.0
 30
0.0
  0
VERTEX
  8
Base
 10
-31.1677899674
 20
0.0
 30
0.0
  0
VERTEX
  8
Base
 10
-31.2177899674
 20
0.0
 30
0.0
  0
VERTEX
  8
Base
 10
-31.2677899674
 20
0.0
 30
0.0
  0
VERTEX
  8
Base
 10
-31.3177899674
 20
0.0
 30
0.0
  0
VERTEX
  8
Base
 10
-31.3677899674
 20
0.0
 30
0.0
  0
VERTEX
  8
Base
 10
-31.4177899674
 20
0.0
 30
0.0
  0
VERTEX
  8
Base
 10
-31.4677899674
 20
0.0
 30
0.0
  0
VERTEX
  8
Base
 10
-31.5156198237
 20
0.0
 30
0.0
  0
SEQEND
  8
Base
  0
POLYLINE
  8
Base
 62
0
 70
0
 66
1
 10
0.0
 20
0.0
 30
0.0
  0
VERTEX
  8
Base
 10
-30.0677899674
 20
1.5
 30
0.0
  0
VERTEX
  8
Base
 10
-30.1177899674
 20
1.5
 30
0.0
  0
VERTEX
  8
Base
 10
-30.1677899674
 20
1.5
 30
0.0
  0
VERTEX
  8
Base
 10
-30.2177899674
 20
1.5
 30
0.0
  0
VERTEX
  8
Base
 10
-30.2677899674
 20
1.5
 30
0.0
  0
VERTEX
  8
Base
 10
-30.3177899674
 20
1.5
 30
0.0
  0
VERTEX
  8
Base
 10
-30.3677899674
 20
1.5
 30
0.0
  0
VERTEX
  8
Base
 10
-30.4177899674
 20
1.5
 30
0.0
  0
VERTEX
  8
Base
 10
-30.4677899674
 20
1.5
 30
0.0
  0
VERTEX
  8
Base
 10
-30.5177899674
 20
1.5
 30
0.0
  0
VERTEX
  8
Base
 10
-30.5677899674
 20
1.5
 30
0.0
  0
VERTEX
  8
Base
 10
-30.6177899674
 20
1.5
 30
0.0
  0
VERTEX
  8
Base
 10
-30.6677899674
 20
1.5
 30
0.0
  0
VERTEX
  8
Base
 10
-30.7177899674
 20
1.5
 30
0.0
  0
VERTEX
  8
Base
 10
-30.7677899674
 20
1.5
 30
0.0
  0
VERTEX
  8
Base
 10
-30.8177899674
 20
1.5
 30
0.0
  0
VERTEX
  8
Base
 10
-30.8677899674
 20
1.5
 30
0.0
  0
VERTEX
  8
Base
 10
-30.9177899674
 20
1.5
 30
0.0
  0
VERTEX
  8
Base
 10
-30.9677899674
 20
1.5
 30
0.0
  0
VERTEX
  8
Base
 10
-31.0177899674
 20
1.5
 30
0.0
  0
VERTEX
  8
Base
 10
-31.0677899674
 20
1.5
 30
0.0
  0
VERTEX
  8
Base
 10
-31.1177899674
 20
1.5
 30
0.0
  0
VERTEX
  8
Base
 10
-31.1677899674
 20
1.5
 30
0.0
  0
VERTEX
  8
Base
 10
-31.2177899674
 20
1.5
 30
0.0
  0
VERTEX
  8
Base
 10
-31.2677899674
 20
1.5
 30
0.0
  0
VERTEX
  8
Base
 10
-31.3177899674
 20
1.5
 30
0.0
  0
VERTEX
  8
Base
 10
-31.3677899674
 20
1.5
 30
0.0
  0
VERTEX
  8
Base
 10
-31.4177899674
 20
1.5
 30
0.0
  0
VERTEX
  8
Base
 10
-31.4677899674
 20
1.5
 30
0.0
  0
VERTEX
  8
Base
 10
-31.5156198237
 20
1.5
 30
0.0
  0
SEQEND
  8
Base
  0
POLYLINE
  8
Base
 62
0
 70
0
 66
1
 10
0.0
 20
0.0
 30
0.0
  0
VERTEX
  8
Base
 10
-4.30068205897
 20
0.0
 30
0.0
  0
VERTEX
  8
Base
 10
-4.35068205897
 20
0.0
 30
0.0
  0
VERTEX
  8
Base
 10
-4.40068205897
 20
0.0
 30
0.0
  0
VERTEX
  8
Base
 10
-4.45068205897
 20
0.0
 30
0.0
  0
VERTEX
  8
Base
 10
-4.50068205897
 20
0.0
 30
0.0
  0
VERTEX
  8
Base
 10
-4.55068205897
 20
0.0
 30
0.0
  0
VERTEX
  8
Base
 10
-4.60068205897
 20
0.0
 30
0.0
  0
VERTEX
  8
Base
 10
-4.65068205897
 20
0.0
 30
0.0
  0
VERTEX
  8
Base
 10
-4.70068205897
 20
0.0
 30
0.0
  0
VERTEX
  8
Base
 10
-4.75068205897
 20
0.0
 30
0.0
  0
VERTEX
  8
Base
 10
-4.80068205897
 20
0.0
 30
0.0
  0
VERTEX
  8
Base
 10
-4.85068205897
 20
0.0
 30
0.0
  0
VERTEX
  8
Base
 10
-4.90068205897
 20
0.0
 30
0.0
  0
VERTEX
  8
Base
 10
-4.95068205897
 20
0.0
 30
0.0
  0
VERTEX
  8
Base
 10
-5.00068205897
 20
0.0
 30
0.0
  0
VERTEX
  8
Base
 10
-5.05068205897
 20
0.0
 30
0.0
  0
VERTEX
  8
Base
 10
-5.10068205897
 20
0.0
 30
0.0
  0
VERTEX
  8
Base
 10
-5.15068205897
 20
0.0
 30
0.0
  0
VERTEX
  8
Base
 10
-5.20068205897
 20
0.0
 30
0.0
  0
VERTEX
  8
Base
 10
-5.25068205897
 20
0.0
 30
0.0
  0
VERTEX
  8
Base
 10
-5.30068205897
 20
0.0
 30
0.0
  0
VERTEX
  8
Base
 10
-5.35068205897
 20
0.0
 30
0.0
  0
VERTEX
  8
Base
 10
-5.40068205897
 20
0.0
 30
0.0
  0
VERTEX
  8
Base
 10
-5.45068205897
 20
0.0
 30
0.0
  0
VERTEX
  8
Base
 10
-5.50068205897
 20
0.0
 30
0.0
  0
VERTEX
  8
Base
 10
-5.55068205897
 20
0.0
 30
0.0
  0
VERTEX
  8
Base
 10
-5.60068205897
 20
0.0
 30
0.0
  0
VERTEX
  8
Base
 10
-5.65068205897
 20
0.0
 30
0.0
  0
VERTEX
  8
Base
 10
-5.70068205897
 20
0.0
 30
0.0
  0
VERTEX
  8
Base
 10
-5.75068205897
 20
0.0
 30
0.0
  0
VERTEX
  8
Base
 10
-5.80068205897
 20
0.0
 30
0.0
  0
VERTEX
  8
Base
 10
-5.85068205897
 20
0.0
 30
0.0
  0
VERTEX
  8
Base
 10
-5.90068205897
 20
0.0
 30
0.0
  0
VERTEX
  8
Base
 10
-5.95068205897
 20
0.0
 30
0.0
  0
VERTEX
  8
Base
 10
-6.00068205897
 20
0.0
 30
0.0
  0
VERTEX
  8
Base
 10
-6.05068205897
 20
0.0
 30
0.0
  0
VERTEX
  8
Base
 10
-6.10068205897
 20
0.0
 30
0.0
  0
VERTEX
  8
Base
 10
-6.15068205897
 20
0.0
 30
0.0
  0
VERTEX
  8
Base
 10
-6.20068205897
 20
0.0
 30
0.0
  0
VERTEX
  8
Base
 10
-6.25068205897
 20
0.0
 30
0.0
  0
VERTEX
  8
Base
 10
-6.30068205897
 20
0.0
 30
0.0
  0
VERTEX
  8
Base
 10
-6.35068205897
 20
0.0
 30
0.0
  0
VERTEX
  8
Base
 10
-6.40068205897
 20
0.0
 30
0.0
  0
VERTEX
  8
Base
 10
-6.45068205897
 20
0.0
 30
0.0
  0
VERTEX
  8
Base
 10
-6.50068205897
 20
0.0
 30
0.0
  0
VERTEX
  8
Base
 10
-6.55068205897
 20
0.0
 30
0.0
  0
VERTEX
  8
Base
 10
-6.60068205897
 20
0.0
 30
0.0
  0
VERTEX
  8
Base
 10
-6.65068205897
 20
0.0
 30
0.0
  0
VERTEX
  8
Base
 10
-6.70068205897
 20
0.0
 30
0.0
  0
VERTEX
  8
Base
 10
-6.75068205897
 20
0.0
 30
0.0
  0
VERTEX
  8
Base
 10
-6.80068205897
 20
0.0
 30
0.0
  0
VERTEX
  8
Base
 10
-6.85068205897
 20
0.0
 30
0.0
  0
VERTEX
  8
Base
 10
-6.90068205897
 20
0.0
 30
0.0
  0
VERTEX
  8
Base
 10
-6.95068205897
 20
0.0
 30
0.0
  0
VERTEX
  8
Base
 10
-7.00068205897
 20
0.0
 30
0.0
  0
VERTEX
  8
Base
 10
-7.05068205897
 20
0.0
 30
0.0
  0
VERTEX
  8
Base
 10
-7.10068205897
 20
0.0
 30
0.0
  0
VERTEX
  8
Base
 10
-7.15068205897
 20
0.0
 30
0.0
  0
VERTEX
  8
Base
 10
-7.20068205897
 20
0.0
 30
0.0
  0
VERTEX
  8
Base
 10
-7.25068205897
 20
0.0
 30
0.0
  0
VERTEX
  8
Base
 10
-7.30068205897
 20
0.0
 30
0.0
  0
VERTEX
  8
Base
 10
-7.35068205897
 20
0.0
 30
0.0
  0
VERTEX
  8
Base
 10
-7.40068205897
 20
0.0
 30
0.0
  0
VERTEX
  8
Base
 10
-7.45068205897
 20
0.0
 30
0.0
  0
VERTEX
  8
Base
 10
-7.50068205897
 20
0.0
 30
0.0
  0
VERTEX
  8
Base
 10
-7.55068205897
 20
0.0
 30
0.0
  0
VERTEX
  8
Base
 10
-7.60068205897
 20
0.0
 30
0.0
  0
VERTEX
  8
Base
 10
-7.65068205897
 20
0.0
 30
0.0
  0
VERTEX
  8
Base
 10
-7.70068205897
 20
0.0
 30
0.0
  0
VERTEX
  8
Base
 10
-7.75068205897
 20
0.0
 30
0.0
  0
VERTEX
  8
Base
 10
-7.80068205897
 20
0.0
 30
0.0
  0
VERTEX
  8
Base
 10
-7.85068205897
 20
0.0
 30
0.0
  0
VERTEX
  8
Base
 10
-7.90068205897
 20
0.0
 30
0.0
  0
VERTEX
  8
Base
 10
-7.95068205897
 20
0.0
 30
0.0
  0
VERTEX
  8
Base
 10
-8.00068205897
 20
0.0
 30
0.0
  0
VERTEX
  8
Base
 10
-8.05068205897
 20
0.0
 30
0.0
  0
VERTEX
  8
Base
 10
-8.10068205897
 20
0.0
 30
0.0
  0
VERTEX
  8
Base
 10
-8.15068205897
 20
0.0
 30
0.0
  0
VERTEX
  8
Base
 10
-8.20068205897
 20
0.0
 30
0.0
  0
VERTEX
  8
Base
 10
-8.25068205897
 20
0.0
 30
0.0
  0
VERTEX
  8
Base
 10
-8.30068205897
 20
0.0
 30
0.0
  0
VERTEX
  8
Base
 10
-8.35068205897
 20
0.0
 30
0.0
  0
VERTEX
  8
Base
 10
-8.40068205897
 20
0.0
 30
0.0
  0
VERTEX
  8
Base
 10
-8.45068205897
 20
0.0
 30
0.0
  0
VERTEX
  8
Base
 10
-8.50068205897
 20
0.0
 30
0.0
  0
VERTEX
  8
Base
 10
-8.55068205897
 20
0.0
 30
0.0
  0
VERTEX
  8
Base
 10
-8.60068205897
 20
0.0
 30
0.0
  0
VERTEX
  8
Base
 10
-8.65068205897
 20
0.0
 30
0.0
  0
VERTEX
  8
Base
 10
-8.70068205897
 20
0.0
 30
0.0
  0
VERTEX
  8
Base
 10
-8.75068205897
 20
0.0
 30
0.0
  0
VERTEX
  8
Base
 10
-8.80068205897
 20
0.0
 30
0.0
  0
VERTEX
  8
Base
 10
-8.85068205897
 20
0.0
 30
0.0
  0
VERTEX
  8
Base
 10
-8.90068205897
 20
0.0
 30
0.0
  0
VERTEX
  8
Base
 10
-8.95068205897
 20
0.0
 30
0.0
  0
VERTEX
  8
Base
 10
-9.00068205897
 20
0.0
 30
0.0
  0
VERTEX
  8
Base
 10
-9.05068205897
 20
0.0
 30
0.0
  0
VERTEX
  8
Base
 10
-9.10068205897
 20
0.0
 30
0.0
  0
VERTEX
  8
Base
 10
-9.15068205897
 20
0.0
 30
0.0
  0
VERTEX
  8
Base
 10
-9.20068205897
 20
0.0
 30
0.0
  0
VERTEX
  8
Base
 10
-9.25068205897
 20
0.0
 30
0.0
  0
VERTEX
  8
Base
 10
-9.30068205897
 20
0.0
 30
0.0
  0
VERTEX
  8
Base
 10
-9.35068205897
 20
0.0
 30
0.0
  0
VERTEX
  8
Base
 10
-9.40068205897
 20
0.0
 30
0.0
  0
VERTEX
  8
Base
 10
-9.45068205897
 20
0.0
 30
0.0
  0
VERTEX
  8
Base
 10
-9.50068205897
 20
0.0
 30
0.0
  0
VERTEX
  8
Base
 10
-9.55068205897
 20
0.0
 30
0.0
  0
VERTEX
  8
Base
 10
-9.60068205897
 20
0.0
 30
0.0
  0
VERTEX
  8
Base
 10
-9.65068205897
 20
0.0
 30
0.0
  0
VERTEX
  8
Base
 10
-9.70068205897
 20
0.0
 30
0.0
  0
VERTEX
  8
Base
 10
-9.75068205897
 20
0.0
 30
0.0
  0
VERTEX
  8
Base
 10
-9.80068205897
 20
0.0
 30
0.0
  0
VERTEX
  8
Base
 10
-9.85068205897
 20
0.0
 30
0.0
  0
VERTEX
  8
Base
 10
-9.90068205897
 20
0.0
 30
0.0
  0
VERTEX
  8
Base
 10
-9.95068205897
 20
0.0
 30
0.0
  0
VERTEX
  8
Base
 10
-10.000682059
 20
0.0
 30
0.0
  0
VERTEX
  8
Base
 10
-10.050682059
 20
0.0
 30
0.0
  0
VERTEX
  8
Base
 10
-10.100682059
 20
0.0
 30
0.0
  0
VERTEX
  8
Base
 10
-10.150682059
 20
0.0
 30
0.0
  0
VERTEX
  8
Base
 10
-10.200682059
 20
0.0
 30
0.0
  0
VERTEX
  8
Base
 10
-10.250682059
 20
0.0
 30
0.0
  0
VERTEX
  8
Base
 10
-10.300682059
 20
0.0
 30
0.0
  0
VERTEX
  8
Base
 10
-10.350682059
 20
0.0
 30
0.0
  0
VERTEX
  8
Base
 10
-10.400682059
 20
0.0
 30
0.0
  0
VERTEX
  8
Base
 10
-10.450682059
 20
0.0
 30
0.0
  0
VERTEX
  8
Base
 10
-10.500682059
 20
0.0
 30
0.0
  0
VERTEX
  8
Base
 10
-10.550682059
 20
0.0
 30
0.0
  0
VERTEX
  8
Base
 10
-10.600682059
 20
0.0
 30
0.0
  0
VERTEX
  8
Base
 10
-10.650682059
 20
0.0
 30
0.0
  0
VERTEX
  8
Base
 10
-10.700682059
 20
0.0
 30
0.0
  0
VERTEX
  8
Base
 10
-10.750682059
 20
0.0
 30
0.0
  0
VERTEX
  8
Base
 10
-10.800682059
 20
0.0
 30
0.0
  0
VERTEX
  8
Base
 10
-10.850682059
 20
0.0
 30
0.0
  0
VERTEX
  8
Base
 10
-10.900682059
 20
0.0
 30
0.0
  0
VERTEX
  8
Base
 10
-10.950682059
 20
0.0
 30
0.0
  0
VERTEX
  8
Base
 10
-11.000682059
 20
0.0
 30
0.0
  0
VERTEX
  8
Base
 10
-11.050682059
 20
0.0
 30
0.0
  0
VERTEX
  8
Base
 10
-11.100682059
 20
0.0
 30
0.0
  0
VERTEX
  8
Base
 10
-11.150682059
 20
0.0
 30
0.0
  0
VERTEX
  8
Base
 10
-11.200682059
 20
0.0
 30
0.0
  0
VERTEX
  8
Base
 10
-11.250682059
 20
0.0
 30
0.0
  0
VERTEX
  8
Base
 10
-11.300682059
 20
0.0
 30
0.0
  0
VERTEX
  8
Base
 10
-11.350682059
 20
0.0
 30
0.0
  0
VERTEX
  8
Base
 10
-11.400682059
 20
0.0
 30
0.0
  0
VERTEX
  8
Base
 10
-11.450682059
 20
0.0
 30
0.0
  0
VERTEX
  8
Base
 10
-11.500682059
 20
0.0
 30
0.0
  0
VERTEX
  8
Base
 10
-11.550682059
 20
0.0
 30
0.0
  0
VERTEX
  8
Base
 10
-11.600682059
 20
0.0
 30
0.0
  0
VERTEX
  8
Base
 10
-11.6391707648
 20
0.0
 30
0.0
  0
SEQEND
  8
Base
  0
POLYLINE
  8
Base
 62
0
 70
0
 66
1
 10
0.0
 20
0.0
 30
0.0
  0
VERTEX
  8
Base
 10
-4.30068205897
 20
1.5
 30
0.0
  0
VERTEX
  8
Base
 10
-4.35068205897
 20
1.5
 30
0.0
  0
VERTEX
  8
Base
 10
-4.40068205897
 20
1.5
 30
0.0
  0
VERTEX
  8
Base
 10
-4.45068205897
 20
1.5
 30
0.0
  0
VERTEX
  8
Base
 10
-4.50068205897
 20
1.5
 30
0.0
  0
VERTEX
  8
Base
 10
-4.55068205897
 20
1.5
 30
0.0
  0
VERTEX
  8
Base
 10
-4.60068205897
 20
1.5
 30
0.0
  0
VERTEX
  8
Base
 10
-4.65068205897
 20
1.5
 30
0.0
  0
VERTEX
  8
Base
 10
-4.70068205897
 20
1.5
 30
0.0
  0
VERTEX
  8
Base
 10
-4.75068205897
 20
1.5
 30
0.0
  0
VERTEX
  8
Base
 10
-4.80068205897
 20
1.5
 30
0.0
  0
VERTEX
  8
Base
 10
-4.85068205897
 20
1.5
 30
0.0
  0
VERTEX
  8
Base
 10
-4.90068205897
 20
1.5
 30
0.0
  0
VERTEX
  8
Base
 10
-4.95068205897
 20
1.5
 30
0.0
  0
VERTEX
  8
Base
 10
-5.00068205897
 20
1.5
 30
0.0
  0
VERTEX
  8
Base
 10
-5.05068205897
 20
1.5
 30
0.0
  0
VERTEX
  8
Base
 10
-5.10068205897
 20
1.5
 30
0.0
  0
VERTEX
  8
Base
 10
-5.15068205897
 20
1.5
 30
0.0
  0
VERTEX
  8
Base
 10
-5.20068205897
 20
1.5
 30
0.0
  0
VERTEX
  8
Base
 10
-5.25068205897
 20
1.5
 30
0.0
  0
VERTEX
  8
Base
 10
-5.30068205897
 20
1.5
 30
0.0
  0
VERTEX
  8
Base
 10
-5.35068205897
 20
1.5
 30
0.0
  0
VERTEX
  8
Base
 10
-5.40068205897
 20
1.5
 30
0.0
  0
VERTEX
  8
Base
 10
-5.45068205897
 20
1.5
 30
0.0
  0
VERTEX
  8
Base
 10
-5.50068205897
 20
1.5
 30
0.0
  0
VERTEX
  8
Base
 10
-5.55068205897
 20
1.5
 30
0.0
  0
VERTEX
  8
Base
 10
-5.60068205897
 20
1.5
 30
0.0
  0
VERTEX
  8
Base
 10
-5.65068205897
 20
1.5
 30
0.0
  0
VERTEX
  8
Base
 10
-5.70068205897
 20
1.5
 30
0.0
  0
VERTEX
  8
Base
 10
-5.75068205897
 20
1.5
 30
0.0
  0
VERTEX
  8
Base
 10
-5.80068205897
 20
1.5
 30
0.0
  0
VERTEX
  8
Base
 10
-5.85068205897
 20
1.5
 30
0.0
  0
VERTEX
  8
Base
 10
-5.90068205897
 20
1.5
 30
0.0
  0
VERTEX
  8
Base
 10
-5.95068205897
 20
1.5
 30
0.0
  0
VERTEX
  8
Base
 10
-6.00068205897
 20
1.5
 30
0.0
  0
VERTEX
  8
Base
 10
-6.05068205897
 20
1.5
 30
0.0
  0
VERTEX
  8
Base
 10
-6.10068205897
 20
1.5
 30
0.0
  0
VERTEX
  8
Base
 10
-6.15068205897
 20
1.5
 30
0.0
  0
VERTEX
  8
Base
 10
-6.20068205897
 20
1.5
 30
0.0
  0
VERTEX
  8
Base
 10
-6.25068205897
 20
1.5
 30
0.0
  0
VERTEX
  8
Base
 10
-6.30068205897
 20
1.5
 30
0.0
  0
VERTEX
  8
Base
 10
-6.35068205897
 20
1.5
 30
0.0
  0
VERTEX
  8
Base
 10
-6.40068205897
 20
1.5
 30
0.0
  0
VERTEX
  8
Base
 10
-6.45068205897
 20
1.5
 30
0.0
  0
VERTEX
  8
Base
 10
-6.50068205897
 20
1.5
 30
0.0
  0
VERTEX
  8
Base
 10
-6.55068205897
 20
1.5
 30
0.0
  0
VERTEX
  8
Base
 10
-6.60068205897
 20
1.5
 30
0.0
  0
VERTEX
  8
Base
 10
-6.65068205897
 20
1.5
 30
0.0
  0
VERTEX
  8
Base
 10
-6.70068205897
 20
1.5
 30
0.0
  0
VERTEX
  8
Base
 10
-6.75068205897
 20
1.5
 30
0.0
  0
VERTEX
  8
Base
 10
-6.80068205897
 20
1.5
 30
0.0
  0
VERTEX
  8
Base
 10
-6.85068205897
 20
1.5
 30
0.0
  0
VERTEX
  8
Base
 10
-6.90068205897
 20
1.5
 30
0.0
  0
VERTEX
  8
Base
 10
-6.95068205897
 20
1.5
 30
0.0
  0
VERTEX
  8
Base
 10
-7.00068205897
 20
1.5
 30
0.0
  0
VERTEX
  8
Base
 10
-7.05068205897
 20
1.5
 30
0.0
  0
VERTEX
  8
Base
 10
-7.10068205897
 20
1.5
 30
0.0
  0
VERTEX
  8
Base
 10
-7.15068205897
 20
1.5
 30
0.0
  0
VERTEX
  8
Base
 10
-7.20068205897
 20
1.5
 30
0.0
  0
VERTEX
  8
Base
 10
-7.25068205897
 20
1.5
 30
0.0
  0
VERTEX
  8
Base
 10
-7.30068205897
 20
1.5
 30
0.0
  0
VERTEX
  8
Base
 10
-7.35068205897
 20
1.5
 30
0.0
  0
VERTEX
  8
Base
 10
-7.40068205897
 20
1.5
 30
0.0
  0
VERTEX
  8
Base
 10
-7.45068205897
 20
1.5
 30
0.0
  0
VERTEX
  8
Base
 10
-7.50068205897
 20
1.5
 30
0.0
  0
VERTEX
  8
Base
 10
-7.55068205897
 20
1.5
 30
0.0
  0
VERTEX
  8
Base
 10
-7.60068205897
 20
1.5
 30
0.0
  0
VERTEX
  8
Base
 10
-7.65068205897
 20
1.5
 30
0.0
  0
VERTEX
  8
Base
 10
-7.70068205897
 20
1.5
 30
0.0
  0
VERTEX
  8
Base
 10
-7.75068205897
 20
1.5
 30
0.0
  0
VERTEX
  8
Base
 10
-7.80068205897
 20
1.5
 30
0.0
  0
VERTEX
  8
Base
 10
-7.85068205897
 20
1.5
 30
0.0
  0
VERTEX
  8
Base
 10
-7.90068205897
 20
1.5
 30
0.0
  0
VERTEX
  8
Base
 10
-7.95068205897
 20
1.5
 30
0.0
  0
VERTEX
  8
Base
 10
-8.00068205897
 20
1.5
 30
0.0
  0
VERTEX
  8
Base
 10
-8.05068205897
 20
1.5
 30
0.0
  0
VERTEX
  8
Base
 10
-8.10068205897
 20
1.5
 30
0.0
  0
VERTEX
  8
Base
 10
-8.15068205897
 20
1.5
 30
0.0
  0
VERTEX
  8
Base
 10
-8.20068205897
 20
1.5
 30
0.0
  0
VERTEX
  8
Base
 10
-8.25068205897
 20
1.5
 30
0.0
  0
VERTEX
  8
Base
 10
-8.30068205897
 20
1.5
 30
0.0
  0
VERTEX
  8
Base
 10
-8.35068205897
 20
1.5
 30
0.0
  0
VERTEX
  8
Base
 10
-8.40068205897
 20
1.5
 30
0.0
  0
VERTEX
  8
Base
 10
-8.45068205897
 20
1.5
 30
0.0
  0
VERTEX
  8
Base
 10
-8.50068205897
 20
1.5
 30
0.0
  0
VERTEX
  8
Base
 10
-8.55068205897
 20
1.5
 30
0.0
  0
VERTEX
  8
Base
 10
-8.60068205897
 20
1.5
 30
0.0
  0
VERTEX
  8
Base
 10
-8.65068205897
 20
1.5
 30
0.0
  0
VERTEX
  8
Base
 10
-8.70068205897
 20
1.5
 30
0.0
  0
VERTEX
  8
Base
 10
-8.75068205897
 20
1.5
 30
0.0
  0
VERTEX
  8
Base
 10
-8.80068205897
 20
1.5
 30
0.0
  0
VERTEX
  8
Base
 10
-8.85068205897
 20
1.5
 30
0.0
  0
VERTEX
  8
Base
 10
-8.90068205897
 20
1.5
 30
0.0
  0
VERTEX
  8
Base
 10
-8.95068205897
 20
1.5
 30
0.0
  0
VERTEX
  8
Base
 10
-9.00068205897
 20
1.5
 30
0.0
  0
VERTEX
  8
Base
 10
-9.05068205897
 20
1.5
 30
0.0
  0
VERTEX
  8
Base
 10
-9.10068205897
 20
1.5
 30
0.0
  0
VERTEX
  8
Base
 10
-9.15068205897
 20
1.5
 30
0.0
  0
VERTEX
  8
Base
 10
-9.20068205897
 20
1.5
 30
0.0
  0
VERTEX
  8
Base
 10
-9.25068205897
 20
1.5
 30
0.0
  0
VERTEX
  8
Base
 10
-9.30068205897
 20
1.5
 30
0.0
  0
VERTEX
  8
Base
 10
-9.35068205897
 20
1.5
 30
0.0
  0
VERTEX
  8
Base
 10
-9.40068205897
 20
1.5
 30
0.0
  0
VERTEX
  8
Base
 10
-9.45068205897
 20
1.5
 30
0.0
  0
VERTEX
  8
Base
 10
-9.50068205897
 20
1.5
 30
0.0
  0
VERTEX
  8
Base
 10
-9.55068205897
 20
1.5
 30
0.0
  0
VERTEX
  8
Base
 10
-9.60068205897
 20
1.5
 30
0.0
  0
VERTEX
  8
Base
 10
-9.65068205897
 20
1.5
 30
0.0
  0
VERTEX
  8
Base
 10
-9.70068205897
 20
1.5
 30
0.0
  0
VERTEX
  8
Base
 10
-9.75068205897
 20
1.5
 30
0.0
  0
VERTEX
  8
Base
 10
-9.80068205897
 20
1.5
 30
0.0
  0
VERTEX
  8
Base
 10
-9.85068205897
 20
1.5
 30
0.0
  0
VERTEX
  8
Base
 10
-9.90068205897
 20
1.5
 30
0.0
  0
VERTEX
  8
Base
 10
-9.95068205897
 20
1.5
 30
0.0
  0
VERTEX
  8
Base
 10
-10.000682059
 20
1.5
 30
0.0
  0
VERTEX
  8
Base
 10
-10.050682059
 20
1.5
 30
0.0
  0
VERTEX
  8
Base
 10
-10.100682059
 20
1.5
 30
0.0
  0
VERTEX
  8
Base
 10
-10.150682059
 20
1.5
 30
0.0
  0
VERTEX
  8
Base
 10
-10.200682059
 20
1.5
 30
0.0
  0
VERTEX
  8
Base
 10
-10.250682059
 20
1.5
 30
0.0
  0
VERTEX
  8
Base
 10
-10.300682059
 20
1.5
 30
0.0
  0
VERTEX
  8
Base
 10
-10.350682059
 20
1.5
 30
0.0
  0
VERTEX
  8
Base
 10
-10.400682059
 20
1.5
 30
0.0
  0
VERTEX
  8
Base
 10
-10.450682059
 20
1.5
 30
0.0
  0
VERTEX
  8
Base
 10
-10.500682059
 20
1.5
 30
0.0
  0
VERTEX
  8
Base
 10
-10.550682059
 20
1.5
 30
0.0
  0
VERTEX
  8
Base
 10
-10.600682059
 20
1.5
 30
0.0
  0
VERTEX
  8
Base
 10
-10.650682059
 20
1.5
 30
0.0
  0
VERTEX
  8
Base
 10
-10.700682059
 20
1.5
 30
0.0
  0
VERTEX
  8
Base
 10
-10.750682059
 20
1.5
 30
0.0
  0
VERTEX
  8
Base
 10
-10.800682059
 20
1.5
 30
0.0
  0
VERTEX
  8
Base
 10
-10.850682059
 20
1.5
 30
0.0
  0
VERTEX
  8
Base
 10
-10.900682059
 20
1.5
 30
0.0
  0
VERTEX
  8
Base
 10
-10.950682059
 20
1.5
 30
0.0
  0
VERTEX
  8
Base
 10
-11.000682059
 20
1.5
 30
0.0
  0
VERTEX
  8
Base
 10
-11.050682059
 20
1.5
 30
0.0
  0
VERTEX
  8
Base
 10
-11.100682059
 20
1.5
 30
0.0
  0
VERTEX
  8
Base
 10
-11.150682059
 20
1.5
 30
0.0
  0
VERTEX
  8
Base
 10
-11.200682059
 20
1.5
 30
0.0
  0
VERTEX
  8
Base
 10
-11.250682059
 20
1.5
 30
0.0
  0
VERTEX
  8
Base
 10
-11.300682059
 20
1.5
 30
0.0
  0
VERTEX
  8
Base
 10
-11.350682059
 20
1.5
 30
0.0
  0
VERTEX
  8
Base
 10
-11.400682059
 20
1.5
 30
0.0
  0
VERTEX
  8
Base
 10
-11.450682059
 20
1.5
 30
0.0
  0
VERTEX
  8
Base
 10
-11.500682059
 20
1.5
 30
0.0
  0
VERTEX
  8
Base
 10
-11.550682059
 20
1.5
 30
0.0
  0
VERTEX
  8
Base
 10
-11.600682059
 20
1.5
 30
0.0
  0
VERTEX
  8
Base
 10
-11.6391707648
 20
1.5
 30
0.0
  0
SEQEND
  8
Base
  0
POLYLINE
  8
Base
 62
0
 70
0
 66
1
 10
0.0
 20
0.0
 30
0.0
  0
VERTEX
  8
Base
 10
22.3159329343
 20
0.0
 30
0.0
  0
VERTEX
  8
Base
 10
22.2659329343
 20
0.0
 30
0.0
  0
VERTEX
  8
Base
 10
22.2159329343
 20
0.0
 30
0.0
  0
VERTEX
  8
Base
 10
22.1659329343
 20
0.0
 30
0.0
  0
VERTEX
  8
Base
 10
22.1159329343
 20
0.0
 30
0.0
  0
VERTEX
  8
Base
 10
22.0659329343
 20
0.0
 30
0.0
  0
VERTEX
  8
Base
 10
22.0159329343
 20
0.0
 30
0.0
  0
VERTEX
  8
Base
 10
21.9659329343
 20
0.0
 30
0.0
  0
VERTEX
  8
Base
 10
21.9159329343
 20
0.0
 30
0.0
  0
VERTEX
  8
Base
 10
21.8659329343
 20
0.0
 30
0.0
  0
VERTEX
  8
Base
 10
21.8159329343
 20
0.0
 30
0.0
  0
VERTEX
  8
Base
 10
21.7659329343
 20
0.0
 30
0.0
  0
VERTEX
  8
Base
 10
21.7159329343
 20
0.0
 30
0.0
  0
VERTEX
  8
Base
 10
21.6659329343
 20
0.0
 30
0.0
  0
VERTEX
  8
Base
 10
21.6159329343
 20
0.0
 30
0.0
  0
VERTEX
  8
Base
 10
21.5659329343
 20
0.0
 30
0.0
  0
VERTEX
  8
Base
 10
21.5159329343
 20
0.0
 30
0.0
  0
VERTEX
  8
Base
 10
21.4659329343
 20
0.0
 30
0.0
  0
VERTEX
  8
Base
 10
21.4159329343
 20
0.0
 30
0.0
  0
VERTEX
  8
Base
 10
21.3659329343
 20
0.0
 30
0.0
  0
VERTEX
  8
Base
 10
21.3159329343
 20
0.0
 30
0.0
  0
VERTEX
  8
Base
 10
21.2659329343
 20
0.0
 30
0.0
  0
VERTEX
  8
Base
 10
21.2159329343
 20
0.0
 30
0.0
  0
VERTEX
  8
Base
 10
21.1659329343
 20
0.0
 30
0.0
  0
VERTEX
  8
Base
 10
21.1159329343
 20
0.0
 30
0.0
  0
VERTEX
  8
Base
 10
21.0659329343
 20
0.0
 30
0.0
  0
VERTEX
  8
Base
 10
21.0159329343
 20
0.0
 30
0.0
  0
VERTEX
  8
Base
 10
20.9659329343
 20
0.0
 30
0.0
  0
VERTEX
  8
Base
 10
20.9159329343
 20
0.0
 30
0.0
  0
VERTEX
  8
Base
 10
20.8659329343
 20
0.0
 30
0.0
  0
VERTEX
  8
Base
 10
20.8159329343
 20
0.0
 30
0.0
  0
VERTEX
  8
Base
 10
20.7659329343
 20
0.0
 30
0.0
  0
VERTEX
  8
Base
 10
20.7159329343
 20
0.0
 30
0.0
  0
VERTEX
  8
Base
 10
20.6659329343
 20
0.0
 30
0.0
  0
VERTEX
  8
Base
 10
20.6159329343
 20
0.0
 30
0.0
  0
VERTEX
  8
Base
 10
20.5659329343
 20
0.0
 30
0.0
  0
VERTEX
  8
Base
 10
20.5159329343
 20
0.0
 30
0.0
  0
VERTEX
  8
Base
 10
20.4659329343
 20
0.0
 30
0.0
  0
VERTEX
  8
Base
 10
20.4159329343
 20
0.0
 30
0.0
  0
VERTEX
  8
Base
 10
20.3659329343
 20
0.0
 30
0.0
  0
VERTEX
  8
Base
 10
20.3159329343
 20
0.0
 30
0.0
  0
VERTEX
  8
Base
 10
20.2659329343
 20
0.0
 30
0.0
  0
VERTEX
  8
Base
 10
20.2159329343
 20
0.0
 30
0.0
  0
VERTEX
  8
Base
 10
20.1659329343
 20
0.0
 30
0.0
  0
VERTEX
  8
Base
 10
20.1159329343
 20
0.0
 30
0.0
  0
VERTEX
  8
Base
 10
20.0659329343
 20
0.0
 30
0.0
  0
VERTEX
  8
Base
 10
20.0159329343
 20
0.0
 30
0.0
  0
VERTEX
  8
Base
 10
19.9659329343
 20
0.0
 30
0.0
  0
VERTEX
  8
Base
 10
19.9159329343
 20
0.0
 30
0.0
  0
VERTEX
  8
Base
 10
19.8659329343
 20
0.0
 30
0.0
  0
VERTEX
  8
Base
 10
19.8159329343
 20
0.0
 30
0.0
  0
VERTEX
  8
Base
 10
19.7659329343
 20
0.0
 30
0.0
  0
VERTEX
  8
Base
 10
19.7159329343
 20
0.0
 30
0.0
  0
VERTEX
  8
Base
 10
19.6659329343
 20
0.0
 30
0.0
  0
VERTEX
  8
Base
 10
19.6159329343
 20
0.0
 30
0.0
  0
VERTEX
  8
Base
 10
19.5659329343
 20
0.0
 30
0.0
  0
VERTEX
  8
Base
 10
19.5159329343
 20
0.0
 30
0.0
  0
VERTEX
  8
Base
 10
19.4659329343
 20
0.0
 30
0.0
  0
VERTEX
  8
Base
 10
19.4159329343
 20
0.0
 30
0.0
  0
VERTEX
  8
Base
 10
19.3659329343
 20
0.0
 30
0.0
  0
VERTEX
  8
Base
 10
19.3159329343
 20
0.0
 30
0.0
  0
VERTEX
  8
Base
 10
19.2659329343
 20
0.0
 30
0.0
  0
VERTEX
  8
Base
 10
19.2159329343
 20
0.0
 30
0.0
  0
VERTEX
  8
Base
 10
19.1659329343
 20
0.0
 30
0.0
  0
VERTEX
  8
Base
 10
19.1159329343
 20
0.0
 30
0.0
  0
VERTEX
  8
Base
 10
19.0659329343
 20
0.0
 30
0.0
  0
VERTEX
  8
Base
 10
19.0159329343
 20
0.0
 30
0.0
  0
VERTEX
  8
Base
 10
18.9659329343
 20
0.0
 30
0.0
  0
VERTEX
  8
Base
 10
18.9159329343
 20
0.0
 30
0.0
  0
VERTEX
  8
Base
 10
18.8659329343
 20
0.0
 30
0.0
  0
VERTEX
  8
Base
 10
18.8159329343
 20
0.0
 30
0.0
  0
VERTEX
  8
Base
 10
18.7659329343
 20
0.0
 30
0.0
  0
VERTEX
  8
Base
 10
18.7159329343
 20
0.0
 30
0.0
  0
VERTEX
  8
Base
 10
18.6659329343
 20
0.0
 30
0.0
  0
VERTEX
  8
Base
 10
18.6159329343
 20
0.0
 30
0.0
  0
VERTEX
  8
Base
 10
18.5659329343
 20
0.0
 30
0.0
  0
VERTEX
  8
Base
 10
18.5159329343
 20
0.0
 30
0.0
  0
VERTEX
  8
Base
 10
18.4659329343
 20
0.0
 30
0.0
  0
VERTEX
  8
Base
 10
18.4159329343
 20
0.0
 30
0.0
  0
VERTEX
  8
Base
 10
18.3659329343
 20
0.0
 30
0.0
  0
VERTEX
  8
Base
 10
18.3159329343
 20
0.0
 30
0.0
  0
VERTEX
  8
Base
 10
18.2659329343
 20
0.0
 30
0.0
  0
VERTEX
  8
Base
 10
18.2159329343
 20
0.0
 30
0.0
  0
VERTEX
  8
Base
 10
18.1659329343
 20
0.0
 30
0.0
  0
VERTEX
  8
Base
 10
18.1159329343
 20
0.0
 30
0.0
  0
VERTEX
  8
Base
 10
18.0659329343
 20
0.0
 30
0.0
  0
VERTEX
  8
Base
 10
18.0159329343
 20
0.0
 30
0.0
  0
VERTEX
  8
Base
 10
17.9659329343
 20
0.0
 30
0.0
  0
VERTEX
  8
Base
 10
17.9159329343
 20
0.0
 30
0.0
  0
VERTEX
  8
Base
 10
17.8659329343
 20
0.0
 30
0.0
  0
VERTEX
  8
Base
 10
17.8159329343
 20
0.0
 30
0.0
  0
VERTEX
  8
Base
 10
17.7659329343
 20
0.0
 30
0.0
  0
VERTEX
  8
Base
 10
17.7159329343
 20
0.0
 30
0.0
  0
VERTEX
  8
Base
 10
17.6659329343
 20
0.0
 30
0.0
  0
VERTEX
  8
Base
 10
17.6159329343
 20
0.0
 30
0.0
  0
VERTEX
  8
Base
 10
17.5659329343
 20
0.0
 30
0.0
  0
VERTEX
  8
Base
 10
17.5159329343
 20
0.0
 30
0.0
  0
VERTEX
  8
Base
 10
17.4659329343
 20
0.0
 30
0.0
  0
VERTEX
  8
Base
 10
17.4159329343
 20
0.0
 30
0.0
  0
VERTEX
  8
Base
 10
17.3659329343
 20
0.0
 30
0.0
  0
VERTEX
  8
Base
 10
17.3159329343
 20
0.0
 30
0.0
  0
VERTEX
  8
Base
 10
17.2659329343
 20
0.0
 30
0.0
  0
VERTEX
  8
Base
 10
17.2159329343
 20
0.0
 30
0.0
  0
VERTEX
  8
Base
 10
17.1659329343
 20
0.0
 30
0.0
  0
VERTEX
  8
Base
 10
17.1159329343
 20
0.0
 30
0.0
  0
VERTEX
  8
Base
 10
17.0659329343
 20
0.0
 30
0.0
  0
VERTEX
  8
Base
 10
17.0159329343
 20
0.0
 30
0.0
  0
VERTEX
  8
Base
 10
16.9659329343
 20
0.0
 30
0.0
  0
VERTEX
  8
Base
 10
16.9159329343
 20
0.0
 30
0.0
  0
VERTEX
  8
Base
 10
16.8659329343
 20
0.0
 30
0.0
  0
VERTEX
  8
Base
 10
16.8159329343
 20
0.0
 30
0.0
  0
VERTEX
  8
Base
 10
16.7659329343
 20
0.0
 30
0.0
  0
VERTEX
  8
Base
 10
16.7159329343
 20
0.0
 30
0.0
  0
VERTEX
  8
Base
 10
16.6659329343
 20
0.0
 30
0.0
  0
VERTEX
  8
Base
 10
16.6159329343
 20
0.0
 30
0.0
  0
VERTEX
  8
Base
 10
16.5659329343
 20
0.0
 30
0.0
  0
VERTEX
  8
Base
 10
16.5159329343
 20
0.0
 30
0.0
  0
VERTEX
  8
Base
 10
16.4659329343
 20
0.0
 30
0.0
  0
VERTEX
  8
Base
 10
16.4159329343
 20
0.0
 30
0.0
  0
VERTEX
  8
Base
 10
16.3659329343
 20
0.0
 30
0.0
  0
VERTEX
  8
Base
 10
16.3159329343
 20
0.0
 30
0.0
  0
VERTEX
  8
Base
 10
16.2659329343
 20
0.0
 30
0.0
  0
VERTEX
  8
Base
 10
16.2159329343
 20
0.0
 30
0.0
  0
VERTEX
  8
Base
 10
16.1659329343
 20
0.0
 30
0.0
  0
VERTEX
  8
Base
 10
16.1159329343
 20
0.0
 30
0.0
  0
VERTEX
  8
Base
 10
16.0659329343
 20
0.0
 30
0.0
  0
VERTEX
  8
Base
 10
16.0159329343
 20
0.0
 30
0.0
  0
VERTEX
  8
Base
 10
15.9659329343
 20
0.0
 30
0.0
  0
VERTEX
  8
Base
 10
15.9159329343
 20
0.0
 30
0.0
  0
VERTEX
  8
Base
 10
15.8659329343
 20
0.0
 30
0.0
  0
VERTEX
  8
Base
 10
15.8159329343
 20
0.0
 30
0.0
  0
VERTEX
  8
Base
 10
15.7659329343
 20
0.0
 30
0.0
  0
VERTEX
  8
Base
 10
15.7159329343
 20
0.0
 30
0.0
  0
VERTEX
  8
Base
 10
15.6659329343
 20
0.0
 30
0.0
  0
VERTEX
  8
Base
 10
15.6159329343
 20
0.0
 30
0.0
  0
VERTEX
  8
Base
 10
15.589755853
 20
0.0
 30
0.0
  0
SEQEND
  8
Base
  0
POLYLINE
  8
Base
 62
0
 70
0
 66
1
 10
0.0
 20
0.0
 30
0.0
  0
VERTEX
  8
Base
 10
22.3159329343
 20
1.5
 30
0.0
  0
VERTEX
  8
Base
 10
22.2659329343
 20
1.5
 30
0.0
  0
VERTEX
  8
Base
 10
22.2159329343
 20
1.5
 30
0.0
  0
VERTEX
  8
Base
 10
22.1659329343
 20
1.5
 30
0.0
  0
VERTEX
  8
Base
 10
22.1159329343
 20
1.5
 30
0.0
  0
VERTEX
  8
Base
 10
22.0659329343
 20
1.5
 30
0.0
  0
VERTEX
  8
Base
 10
22.0159329343
 20
1.5
 30
0.0
  0
VERTEX
  8
Base
 10
21.9659329343
 20
1.5
 30
0.0
  0
VERTEX
  8
Base
 10
21.9159329343
 20
1.5
 30
0.0
  0
VERTEX
  8
Base
 10
21.8659329343
 20
1.5
 30
0.0
  0
VERTEX
  8
Base
 10
21.8159329343
 20
1.5
 30
0.0
  0
VERTEX
  8
Base
 10
21.7659329343
 20
1.5
 30
0.0
  0
VERTEX
  8
Base
 10
21.7159329343
 20
1.5
 30
0.0
  0
VERTEX
  8
Base
 10
21.6659329343
 20
1.5
 30
0.0
  0
VERTEX
  8
Base
 10
21.6159329343
 20
1.5
 30
0.0
  0
VERTEX
  8
Base
 10
21.5659329343
 20
1.5
 30
0.0
  0
VERTEX
  8
Base
 10
21.5159329343
 20
1.5
 30
0.0
  0
VERTEX
  8
Base
 10
21.4659329343
 20
1.5
 30
0.0
  0
VERTEX
  8
Base
 10
21.4159329343
 20
1.5
 30
0.0
  0
VERTEX
  8
Base
 10
21.3659329343
 20
1.5
 30
0.0
  0
VERTEX
  8
Base
 10
21.3159329343
 20
1.5
 30
0.0
  0
VERTEX
  8
Base
 10
21.2659329343
 20
1.5
 30
0.0
  0
VERTEX
  8
Base
 10
21.2159329343
 20
1.5
 30
0.0
  0
VERTEX
  8
Base
 10
21.1659329343
 20
1.5
 30
0.0
  0
VERTEX
  8
Base
 10
21.1159329343
 20
1.5
 30
0.0
  0
VERTEX
  8
Base
 10
21.0659329343
 20
1.5
 30
0.0
  0
VERTEX
  8
Base
 10
21.0159329343
 20
1.5
 30
0.0
  0
VERTEX
  8
Base
 10
20.9659329343
 20
1.5
 30
0.0
  0
VERTEX
  8
Base
 10
20.9159329343
 20
1.5
 30
0.0
  0
VERTEX
  8
Base
 10
20.8659329343
 20
1.5
 30
0.0
  0
VERTEX
  8
Base
 10
20.8159329343
 20
1.5
 30
0.0
  0
VERTEX
  8
Base
 10
20.7659329343
 20
1.5
 30
0.0
  0
VERTEX
  8
Base
 10
20.7159329343
 20
1.5
 30
0.0
  0
VERTEX
  8
Base
 10
20.6659329343
 20
1.5
 30
0.0
  0
VERTEX
  8
Base
 10
20.6159329343
 20
1.5
 30
0.0
  0
VERTEX
  8
Base
 10
20.5659329343
 20
1.5
 30
0.0
  0
VERTEX
  8
Base
 10
20.5159329343
 20
1.5
 30
0.0
  0
VERTEX
  8
Base
 10
20.4659329343
 20
1.5
 30
0.0
  0
VERTEX
  8
Base
 10
20.4159329343
 20
1.5
 30
0.0
  0
VERTEX
  8
Base
 10
20.3659329343
 20
1.5
 30
0.0
  0
VERTEX
  8
Base
 10
20.3159329343
 20
1.5
 30
0.0
  0
VERTEX
  8
Base
 10
20.2659329343
 20
1.5
 30
0.0
  0
VERTEX
  8
Base
 10
20.2159329343
 20
1.5
 30
0.0
  0
VERTEX
  8
Base
 10
20.1659329343
 20
1.5
 30
0.0
  0
VERTEX
  8
Base
 10
20.1159329343
 20
1.5
 30
0.0
  0
VERTEX
  8
Base
 10
20.0659329343
 20
1.5
 30
0.0
  0
VERTEX
  8
Base
 10
20.0159329343
 20
1.5
 30
0.0
  0
VERTEX
  8
Base
 10
19.9659329343
 20
1.5
 30
0.0
  0
VERTEX
  8
Base
 10
19.9159329343
 20
1.5
 30
0.0
  0
VERTEX
  8
Base
 10
19.8659329343
 20
1.5
 30
0.0
  0
VERTEX
  8
Base
 10
19.8159329343
 20
1.5
 30
0.0
  0
VERTEX
  8
Base
 10
19.7659329343
 20
1.5
 30
0.0
  0
VERTEX
  8
Base
 10
19.7159329343
 20
1.5
 30
0.0
  0
VERTEX
  8
Base
 10
19.6659329343
 20
1.5
 30
0.0
  0
VERTEX
  8
Base
 10
19.6159329343
 20
1.5
 30
0.0
  0
VERTEX
  8
Base
 10
19.5659329343
 20
1.5
 30
0.0
  0
VERTEX
  8
Base
 10
19.5159329343
 20
1.5
 30
0.0
  0
VERTEX
  8
Base
 10
19.4659329343
 20
1.5
 30
0.0
  0
VERTEX
  8
Base
 10
19.4159329343
 20
1.5
 30
0.0
  0
VERTEX
  8
Base
 10
19.3659329343
 20
1.5
 30
0.0
  0
VERTEX
  8
Base
 10
19.3159329343
 20
1.5
 30
0.0
  0
VERTEX
  8
Base
 10
19.2659329343
 20
1.5
 30
0.0
  0
VERTEX
  8
Base
 10
19.2159329343
 20
1.5
 30
0.0
  0
VERTEX
  8
Base
 10
19.1659329343
 20
1.5
 30
0.0
  0
VERTEX
  8
Base
 10
19.1159329343
 20
1.5
 30
0.0
  0
VERTEX
  8
Base
 10
19.0659329343
 20
1.5
 30
0.0
  0
VERTEX
  8
Base
 10
19.0159329343
 20
1.5
 30
0.0
  0
VERTEX
  8
Base
 10
18.9659329343
 20
1.5
 30
0.0
  0
VERTEX
  8
Base
 10
18.9159329343
 20
1.5
 30
0.0
  0
VERTEX
  8
Base
 10
18.8659329343
 20
1.5
 30
0.0
  0
VERTEX
  8
Base
 10
18.8159329343
 20
1.5
 30
0.0
  0
VERTEX
  8
Base
 10
18.7659329343
 20
1.5
 30
0.0
  0
VERTEX
  8
Base
 10
18.7159329343
 20
1.5
 30
0.0
  0
VERTEX
  8
Base
 10
18.6659329343
 20
1.5
 30
0.0
  0
VERTEX
  8
Base
 10
18.6159329343
 20
1.5
 30
0.0
  0
VERTEX
  8
Base
 10
18.5659329343
 20
1.5
 30
0.0
  0
VERTEX
  8
Base
 10
18.5159329343
 20
1.5
 30
0.0
  0
VERTEX
  8
Base
 10
18.4659329343
 20
1.5
 30
0.0
  0
VERTEX
  8
Base
 10
18.4159329343
 20
1.5
 30
0.0
  0
VERTEX
  8
Base
 10
18.3659329343
 20
1.5
 30
0.0
  0
VERTEX
  8
Base
 10
18.3159329343
 20
1.5
 30
0.0
  0
VERTEX
  8
Base
 10
18.2659329343
 20
1.5
 30
0.0
  0
VERTEX
  8
Base
 10
18.2159329343
 20
1.5
 30
0.0
  0
VERTEX
  8
Base
 10
18.1659329343
 20
1.5
 30
0.0
  0
VERTEX
  8
Base
 10
18.1159329343
 20
1.5
 30
0.0
  0
VERTEX
  8
Base
 10
18.0659329343
 20
1.5
 30
0.0
  0
VERTEX
  8
Base
 10
18.0159329343
 20
1.5
 30
0.0
  0
VERTEX
  8
Base
 10
17.9659329343
 20
1.5
 30
0.0
  0
VERTEX
  8
Base
 10
17.9159329343
 20
1.5
 30
0.0
  0
VERTEX
  8
Base
 10
17.8659329343
 20
1.5
 30
0.0
  0
VERTEX
  8
Base
 10
17.8159329343
 20
1.5
 30
0.0
  0
VERTEX
  8
Base
 10
17.7659329343
 20
1.5
 30
0.0
  0
VERTEX
  8
Base
 10
17.7159329343
 20
1.5
 30
0.0
  0
VERTEX
  8
Base
 10
17.6659329343
 20
1.5
 30
0.0
  0
VERTEX
  8
Base
 10
17.6159329343
 20
1.5
 30
0.0
  0
VERTEX
  8
Base
 10
17.5659329343
 20
1.5
 30
0.0
  0
VERTEX
  8
Base
 10
17.5159329343
 20
1.5
 30
0.0
  0
VERTEX
  8
Base
 10
17.4659329343
 20
1.5
 30
0.0
  0
VERTEX
  8
Base
 10
17.4159329343
 20
1.5
 30
0.0
  0
VERTEX
  8
Base
 10
17.3659329343
 20
1.5
 30
0.0
  0
VERTEX
  8
Base
 10
17.3159329343
 20
1.5
 30
0.0
  0
VERTEX
  8
Base
 10
17.2659329343
 20
1.5
 30
0.0
  0
VERTEX
  8
Base
 10
17.2159329343
 20
1.5
 30
0.0
  0
VERTEX
  8
Base
 10
17.1659329343
 20
1.5
 30
0.0
  0
VERTEX
  8
Base
 10
17.1159329343
 20
1.5
 30
0.0
  0
VERTEX
  8
Base
 10
17.0659329343
 20
1.5
 30
0.0
  0
VERTEX
  8
Base
 10
17.0159329343
 20
1.5
 30
0.0
  0
VERTEX
  8
Base
 10
16.9659329343
 20
1.5
 30
0.0
  0
VERTEX
  8
Base
 10
16.9159329343
 20
1.5
 30
0.0
  0
VERTEX
  8
Base
 10
16.8659329343
 20
1.5
 30
0.0
  0
VERTEX
  8
Base
 10
16.8159329343
 20
1.5
 30
0.0
  0
VERTEX
  8
Base
 10
16.7659329343
 20
1.5
 30
0.0
  0
VERTEX
  8
Base
 10
16.7159329343
 20
1.5
 30
0.0
  0
VERTEX
  8
Base
 10
16.6659329343
 20
1.5
 30
0.0
  0
VERTEX
  8
Base
 10
16.6159329343
 20
1.5
 30
0.0
  0
VERTEX
  8
Base
 10
16.5659329343
 20
1.5
 30
0.0
  0
VERTEX
  8
Base
 10
16.5159329343
 20
1.5
 30
0.0
  0
VERTEX
  8
Base
 10
16.4659329343
 20
1.5
 30
0.0
  0
VERTEX
  8
Base
 10
16.4159329343
 20
1.5
 30
0.0
  0
VERTEX
  8
Base
 10
16.3659329343
 20
1.5
 30
0.0
  0
VERTEX
  8
Base
 10
16.3159329343
 20
1.5
 30
0.0
  0
VERTEX
  8
Base
 10
16.2659329343
 20
1.5
 30
0.0
  0
VERTEX
  8
Base
 10
16.2159329343
 20
1.5
 30
0.0
  0
VERTEX
  8
Base
 10
16.1659329343
 20
1.5
 30
0.0
  0
VERTEX
  8
Base
 10
16.1159329343
 20
1.5
 30
0.0
  0
VERTEX
  8
Base
 10
16.0659329343
 20
1.5
 30
0.0
  0
VERTEX
  8
Base
 10
16.0159329343
 20
1.5
 30
0.0
  0
VERTEX
  8
Base
 10
15.9659329343
 20
1.5
 30
0.0
  0
VERTEX
  8
Base
 10
15.9159329343
 20
1.5
 30
0.0
  0
VERTEX
  8
Base
 10
15.8659329343
 20
1.5
 30
0.0
  0
VERTEX
  8
Base
 10
15.8159329343
 20
1.5
 30
0.0
  0
VERTEX
  8
Base
 10
15.7659329343
 20
1.5
 30
0.0
  0
VERTEX
  8
Base
 10
15.7159329343
 20
1.5
 30
0.0
  0
VERTEX
  8
Base
 10
15.6659329343
 20
1.5
 30
0.0
  0
VERTEX
  8
Base
 10
15.6159329343
 20
1.5
 30
0.0
  0
VERTEX
  8
Base
 10
15.589755853
 20
1.5
 30
0.0
  0
SEQEND
  8
Base
  0
POLYLINE
  8
Base
 62
0
 70
0
 66
1
 10
0.0
 20
0.0
 30
0.0
  0
VERTEX
  8
Base
 10
38.1226305555
 20
0.0
 30
0.0
  0
VERTEX
  8
Base
 10
38.0726305555
 20
0.0
 30
0.0
  0
VERTEX
  8
Base
 10
38.0226305555
 20
0.0
 30
0.0
  0
VERTEX
  8
Base
 10
37.9726305555
 20
0.0
 30
0.0
  0
VERTEX
  8
Base
 10
37.9226305555
 20
0.0
 30
0.0
  0
VERTEX
  8
Base
 10
37.8726305555
 20
0.0
 30
0.0
  0
VERTEX
  8
Base
 10
37.8226305555
 20
0.0
 30
0.0
  0
VERTEX
  8
Base
 10
37.7726305555
 20
0.0
 30
0.0
  0
VERTEX
  8
Base
 10
37.7226305555
 20
0.0
 30
0.0
  0
VERTEX
  8
Base
 10
37.6726305555
 20
0.0
 30
0.0
  0
VERTEX
  8
Base
 10
37.6226305555
 20
0.0
 30
0.0
  0
VERTEX
  8
Base
 10
37.5726305555
 20
0.0
 30
0.0
  0
VERTEX
  8
Base
 10
37.5226305555
 20
0.0
 30
0.0
  0
VERTEX
  8
Base
 10
37.4726305555
 20
0.0
 30
0.0
  0
VERTEX
  8
Base
 10
37.4226305555
 20
0.0
 30
0.0
  0
VERTEX
  8
Base
 10
37.3726305555
 20
0.0
 30
0.0
  0
VERTEX
  8
Base
 10
37.3226305555
 20
0.0
 30
0.0
  0
VERTEX
  8
Base
 10
37.2726305555
 20
0.0
 30
0.0
  0
VERTEX
  8
Base
 10
37.2391334873
 20
0.0
 30
0.0
  0
SEQEND
  8
Base
  0
POLYLINE
  8
Base
 62
0
 70
0
 66
1
 10
0.0
 20
0.0
 30
0.0
  0
VERTEX
  8
Base
 10
38.1226305555
 20
1.5
 30
0.0
  0
VERTEX
  8
Base
 10
38.0726305555
 20
1.5
 30
0.0
  0
VERTEX
  8
Base
 10
38.0226305555
 20
1.5
 30
0.0
  0
VERTEX
  8
Base
 10
37.9726305555
 20
1.5
 30
0.0
  0
VERTEX
  8
Base
 10
37.9226305555
 20
1.5
 30
0.0
  0
VERTEX
  8
Base
 10
37.8726305555
 20
1.5
 30
0.0
  0
VERTEX
  8
Base
 10
37.8226305555
 20
1.5
 30
0.0
  0
VERTEX
  8
Base
 10
37.7726305555
 20
1.5
 30
0.0
  0
VERTEX
  8
Base
 10
37.7226305555
 20
1.5
 30
0.0
  0
VERTEX
  8
Base
 10
37.6726305555
 20
1.5
 30
0.0
  0
VERTEX
  8
Base
 10
37.6226305555
 20
1.5
 30
0.0
  0
VERTEX
  8
Base
 10
37.5726305555
 20
1.5
 30
0.0
  0
VERTEX
  8
Base
 10
37.5226305555
 20
1.5
 30
0.0
  0
VERTEX
  8
Base
 10
37.4726305555
 20
1.5
 30
0.0
  0
VERTEX
  8
Base
 10
37.4226305555
 20
1.5
 30
0.0
  0
VERTEX
  8
Base
 10
37.3726305555
 20
1.5
 30
0.0
  0
VERTEX
  8
Base
 10
37.3226305555
 20
1.5
 30
0.0
  0
VERTEX
  8
Base
 10
37.2726305555
 20
1.5
 30
0.0
  0
VERTEX
  8
Base
 10
37.2391334873
 20
1.5
 30
0.0
  0
SEQEND
  8
Base
  0
LINE
  8
Base
 62
0
 10
-31.5156198228
 20
0.0
 30
0.0
 11
-31.6724125143
 21
0.0
 31
0.0
  0
LINE
  8
Base
 62
0
 10
-31.5156198228
 20
1.5
 30
0.0
 11
-31.6724125143
 21
1.5
 31
0.0
  0
LINE
  8
Base
 62
0
 10
-11.6391707648
 20
0.0
 30
0.0
 11
-30.0677899674
 21
0.0
 31
0.0
  0
LINE
  8
Base
 62
0
 10
-11.6391707648
 20
1.5
 30
0.0
 11
-30.0677899674
 21
1.5
 31
0.0
  0
LINE
  8
Base
 62
0
 10
5.64453689703
 20
0.0
 30
0.0
 11
-4.30068205897
 21
0.0
 31
0.0
  0
LINE
  8
Base
 62
0
 10
5.64453689703
 20
1.5
 30
0.0
 11
-4.30068205897
 21
1.5
 31
0.0
  0
LINE
  8
Base
 62
0
 10
15.589755853
 20
0.0
 30
0.0
 11
5.64453689703
 21
0.0
 31
0.0
  0
LINE
  8
Base
 62
0
 10
15.589755853
 20
1.5
 30
0.0
 11
5.64453689703
 21
1.5
 31
0.0
  0
LINE
  8
Base
 62
0
 10
37.2391334873
 20
0.0
 30
0.0
 11
22.3159329343
 21
0.0
 31
0.0
  0
LINE
  8
Base
 62
0
 10
37.2391334873
 20
1.5
 30
0.0
 11
22.3159329343
 21
1.5
 31
0.0
  0
LINE
  8
Base
 62
0
 10
-31.6724125143
 20
0.0
 30
0.0
 11
-31.6724125143
 21
1.5
 31
0.0
  0
LINE
  8
Base
 62
0
 10
-31.5156198232
 20
0.0
 30
0.0
 11
-31.5156198232
 21
1.5
 31
0.0
  0
LINE
  8
Base
 62
0
 10
-30.0677899674
 20
0.0
 30
0.0
 11
-30.0677899674
 21
1.5
 31
0.0
  0
LINE
  8
Base
 62
0
 10
-11.6391707648
 20
0.0
 30
0.0
 11
-11.6391707648
 21
1.5
 31
0.0
  0
LINE
  8
Base
 62
0
 10
-4.30068205897
 20
0.0
 30
0.0
 11
-4.30068205897
 21
1.5
 31
0.0
  0
LINE
  8
Base
 62
0
 10
15.589755853
 20
0.0
 30
0.0
 11
15.589755853
 21
1.5
 31
0.0
  0
LINE
  8
Base
 62
0
 10
22.3159329343
 20
0.0
 30
0.0
 11
22.3159329343
 21
1.5
 31
0.0
  0
LINE
  8
Base
 62
0
 10
37.2391334873
 20
0.0
 30
0.0
 11
37.2391334873
 21
1.5
 31
0.0
  0
LINE
  8
Base
 62
0
 10
5.64453689703
 20
0.0
 30
0.0
 11
5.64453689703
 21
1.5
 31
0.0
  0
LINE
  8
Base
 62
0
 10
-31.6943248126
 20
1.5
 30
0.0
 11
-31.6943248126
 21
0.0
 31
0.0
  0
LINE
  8
Base
 62
0
 10
38.1226305555
 20
1.5
 30
0.0
 11
38.1226305555
 21
0.0
 31
0.0
  0
ENDBLK
  0
ENDSEC
  0
SECTION
  2
ENTITIES
  0
INSERT
  2
POCKET030
  8
SupportsCapteurs
 62
0
 10
0.0
 20
0.0
 30
0.0
  0
INSERT
  2
CLONE088
  8
DiodesLazer
 62
0
 10
0.0
 20
0.0
 30
0.0
  0
INSERT
  2
PAD034
  8
Base
 62
0
 10
0.0
 20
0.0
 30
0.0
  0
ENDSEC
  0
EOF
