  0
SECTION
  2
HEADER
  9
$ACADVER
  1
AC1009
  9
$EXTMAX
 10
35.0
 20
54.0
 30
0.0
  9
$EXTMIN
 10
-35.0
 20
28.8612499237061
 30
0.0
  9
$INSUNITS
 70
     4
  9
$LUNITS
 70
     2
  9
$LUPREC
 70
     4
  9
$MEASUREMENT
 70
     1
  0
ENDSEC
  0
SECTION
  2
TABLES
  0
TABLE
  2
LAYER
 70
     1
  0
LAYER
  2
0
 70
     0
 62
     7
  6
Continuous
  0
LAYER
  2
Base
 70
     0
 62
    70
  6
Continuous
  0
LAYER
  2
SupportsCapteurs
 70
     0
 62
    70
  6
Continuous
  0
LAYER
  2
DiodesLazer
 70
     0
 62
    70
  6
Continuous
  0
ENDTAB
  0
TABLE
  2
APPID
 70
     1
  0
APPID
  2
ACAD
 70
     0
  0
ENDTAB
  0
ENDSEC
  0
SECTION
  2
ENTITIES
  0
POLYLINE
  8
Base
 66
     1
 10
0.0
 20
0.0
 30
0.0
 70
     1
  0
VERTEX
  8
Base
 10
-27.5273473338869
 20
29.6292608559477
 42
0.0
  0
VERTEX
  8
Base
 10
-27.3284429548235
 20
29.6501665486006
 42
0.0
  0
VERTEX
  8
Base
 10
-26.0355644908214
 20
29.7860535508538
 42
0.0
  0
VERTEX
  8
Base
 10
-26.1208156869869
 20
30.597197593694
 42
0.0
  0
VERTEX
  8
Base
 10
-26.6434363399869
 20
35.569803825794
 42
0.0
  0
VERTEX
  8
Base
 10
-27.0055537353552
 20
39.0152612653801
 42
0.0
  0
VERTEX
  8
Base
 10
-23.9175113290815
 20
42.1033038558119
 42
0.0
  0
VERTEX
  8
Base
 10
-23.5222502219751
 20
42.4985649864902
 42
0.0
  0
VERTEX
  8
Base
 10
-15.2247448713916
 20
40.2752551286084
 42
0.0
  0
VERTEX
  8
Base
 10
-14.0
 20
41.5
 42
0.0
  0
VERTEX
  8
Base
 10
-23.9705379868609
 20
44.1715976016832
 42
0.0
  0
VERTEX
  8
Base
 10
-24.978171532488
 20
43.163963995965
 42
0.0
  0
VERTEX
  8
Base
 10
-28.5721200938276
 20
39.5700152202973
 42
0.0
  0
VERTEX
  8
Base
 10
-28.135219848
 20
35.4130174577
 42
0.0
  0
VERTEX
  8
Base
 10
-27.612599195
 20
30.4404112256
 42
0.0
  0
SEQEND
  0
POLYLINE
  8
Base
 66
     1
 10
0.0
 20
0.0
 30
0.0
 70
     1
  0
VERTEX
  8
Base
 10
-32.1021480526417
 20
29.1484299249002
 42
0.0
  0
VERTEX
  8
Base
 10
-32.3010524317268
 20
29.127524232245
 42
0.0
  0
VERTEX
  8
Base
 10
-33.9452189537
 20
28.9547153673
 42
0.0
  0
VERTEX
  8
Base
 10
-34.8344812023178
 20
28.8612501387064
 42
-0.0722956668859
  0
VERTEX
  8
Base
 10
-34.9999999999898
 20
30.0000000008797
 42
0.0
  0
VERTEX
  8
Base
 10
-35.0
 20
31.5
 42
-0.1989122815547
  0
VERTEX
  8
Base
 10
-33.8388349999928
 20
34.3033000000469
 42
0.0
  0
VERTEX
  8
Base
 10
-32.7575659526046
 20
35.3845691119175
 42
0.0
  0
VERTEX
  8
Base
 10
-32.7100226059354
 20
34.9322059288963
 42
0.0
  0
VERTEX
  8
Base
 10
-32.1874019529354
 20
29.9595996967963
 42
0.0
  0
SEQEND
  0
POLYLINE
  8
Base
 66
     1
 10
0.0
 20
0.0
 30
0.0
 70
     1
  0
VERTEX
  8
Base
 10
13.3926619581242
 20
53.4069042510473
 42
-0.0270355765425
  0
VERTEX
  8
Base
 10
14.3879091017031
 20
52.985892121128
 42
0.0
  0
VERTEX
  8
Base
 10
11.8786796564404
 20
43.6213203435596
 42
0.0
  0
VERTEX
  8
Base
 10
10.6539347850488
 20
44.8460652149512
 42
0.0
  0
VERTEX
  8
Base
 10
12.5959807787551
 20
52.0938795340986
 42
0.0777482024982
  0
VERTEX
  8
Base
 10
10.0000000640183
 20
52.49999999998
 42
0.0
  0
VERTEX
  8
Base
 10
-0.0000000000015
 20
52.49999999999
 42
0.0
  0
VERTEX
  8
Base
 10
-10.0000000000179
 20
52.49999999998
 42
0.0777482024982
  0
VERTEX
  8
Base
 10
-12.595980778755
 20
52.0938795340986
 42
0.0
  0
VERTEX
  8
Base
 10
-10.6539347850488
 20
44.8460652149512
 42
0.0
  0
VERTEX
  8
Base
 10
-11.8786796564404
 20
43.6213203435596
 42
0.0
  0
VERTEX
  8
Base
 10
-14.3879091017031
 20
52.985892121128
 42
-0.0270355765425
  0
VERTEX
  8
Base
 10
-13.3926619581242
 20
53.4069042510473
 42
-0.0867508228717
  0
VERTEX
  8
Base
 10
-10.0000000000194
 20
53.99999999998
 42
0.0
  0
VERTEX
  8
Base
 10
0.0
 20
53.99999999999
 42
0.0
  0
VERTEX
  8
Base
 10
10.0000000000194
 20
53.99999999998
 42
-0.0867508228717
  0
SEQEND
  0
POLYLINE
  8
Base
 66
     1
 10
0.0
 20
0.0
 30
0.0
 70
     1
  0
VERTEX
  8
Base
 10
32.7100226059354
 20
34.9322059288963
 42
0.0
  0
VERTEX
  8
Base
 10
32.1874019529354
 20
29.9595996967963
 42
0.0
  0
VERTEX
  8
Base
 10
32.1021480526417
 20
29.1484299249002
 42
0.0
  0
VERTEX
  8
Base
 10
32.3010524317268
 20
29.127524232245
 42
0.0
  0
VERTEX
  8
Base
 10
33.9452189537
 20
28.9547153673
 42
0.0
  0
VERTEX
  8
Base
 10
34.8344812023178
 20
28.8612501387064
 42
0.0722956668859
  0
VERTEX
  8
Base
 10
34.9999999999898
 20
30.0000000008797
 42
0.0
  0
VERTEX
  8
Base
 10
35.0
 20
31.5
 42
0.1989122815547
  0
VERTEX
  8
Base
 10
33.8388349999928
 20
34.3033000000469
 42
0.0
  0
VERTEX
  8
Base
 10
32.7575659526046
 20
35.3845691119175
 42
0.0
  0
SEQEND
  0
POLYLINE
  8
Base
 66
     1
 10
0.0
 20
0.0
 30
0.0
 70
     1
  0
VERTEX
  8
Base
 10
27.5273473339182
 20
29.629260855989
 42
0.0
  0
VERTEX
  8
Base
 10
27.3284429548548
 20
29.6501665486416
 42
0.0
  0
VERTEX
  8
Base
 10
26.0355644908525
 20
29.7860535508929
 42
0.0
  0
VERTEX
  8
Base
 10
26.1208156870168
 20
30.5971975937332
 42
0.0
  0
VERTEX
  8
Base
 10
26.6434363400093
 20
35.569803825834
 42
0.0
  0
VERTEX
  8
Base
 10
27.0055537353724
 20
39.0152612654206
 42
0.0
  0
VERTEX
  8
Base
 10
23.9175113290941
 20
42.1033038558478
 42
0.0
  0
VERTEX
  8
Base
 10
23.5222502219871
 20
42.4985649865255
 42
0.0
  0
VERTEX
  8
Base
 10
15.2247448714069
 20
40.2752551286313
 42
0.0
  0
VERTEX
  8
Base
 10
14.0000000000135
 20
41.500000000021
 42
0.0
  0
VERTEX
  8
Base
 10
23.9705379868704
 20
44.1715976017192
 42
0.0
  0
VERTEX
  8
Base
 10
24.978171532499
 20
43.1639639960025
 42
0.0
  0
VERTEX
  8
Base
 10
28.572120093844
 20
39.5700152203402
 42
0.0
  0
VERTEX
  8
Base
 10
28.1352198480226
 20
35.4130174577422
 42
0.0
  0
VERTEX
  8
Base
 10
27.6125991950301
 20
30.4404112256414
 42
0.0
  0
SEQEND
  0
POLYLINE
  8
DiodesLazer
 66
     1
 10
0.0
 20
0.0
 30
0.0
 70
     1
  0
VERTEX
  8
DiodesLazer
 10
-26.0355638258738
 20
29.7860472240418
 42
0.0
  0
SEQEND
  0
ENDSEC
  0
EOF
