  0
SECTION
  2
HEADER
  9
$ACADVER
  1
AC1009
  9
$EXTMAX
 10
35.0
 20
54.0
 30
0.0
  9
$EXTMIN
 10
-35.0
 20
28.8612499237061
 30
0.0
  9
$INSUNITS
 70
     4
  9
$LUNITS
 70
     2
  9
$LUPREC
 70
     4
  9
$MEASUREMENT
 70
     1
  0
ENDSEC
  0
SECTION
  2
TABLES
  0
TABLE
  2
LAYER
 70
     1
  0
LAYER
  2
0
 70
     0
 62
     7
  6
Continuous
  0
LAYER
  2
Base
 70
     0
 62
    70
  6
Continuous
  0
LAYER
  2
SupportsCapteurs
 70
     0
 62
    70
  6
Continuous
  0
LAYER
  2
DiodesLazer
 70
     0
 62
    70
  6
Continuous
  0
ENDTAB
  0
TABLE
  2
APPID
 70
     1
  0
APPID
  2
ACAD
 70
     0
  0
ENDTAB
  0
ENDSEC
  0
SECTION
  2
ENTITIES
  0
POLYLINE
  8
Base
 66
     1
 10
0.0
 20
0.0
 30
0.0
 70
     1
  0
VERTEX
  8
Base
 10
0.0
 20
53.99999999999
 42
0.0
  0
VERTEX
  8
Base
 10
-10.0000000000194
 20
53.99999999998
 42
0.0867508228717
  0
VERTEX
  8
Base
 10
-13.3926619581242
 20
53.4069042510473
 42
0.0530597422042
  0
VERTEX
  8
Base
 10
-15.2964064241135
 20
52.4822215922904
 42
0.0568665134098
  0
VERTEX
  8
Base
 10
-17.071068
 20
51.071068
 42
0.0
  0
VERTEX
  8
Base
 10
-20.8998051215886
 20
47.2423306500814
 42
0.0
  0
VERTEX
  8
Base
 10
-22.5674187811581
 20
45.5747168910623
 42
0.0
  0
VERTEX
  8
Base
 10
-23.5639580122839
 20
44.578177600507
 42
0.0
  0
VERTEX
  8
Base
 10
-24.978171532488
 20
43.163963995965
 42
0.0
  0
VERTEX
  8
Base
 10
-29.7549750496061
 20
38.3871601939781
 42
0.0
  0
VERTEX
  8
Base
 10
-31.5747281311804
 20
36.5674070038812
 42
0.0
  0
VERTEX
  8
Base
 10
-33.8388349999928
 20
34.3033000000469
 42
0.1989122815547
  0
VERTEX
  8
Base
 10
-35.0
 20
31.5
 42
0.0
  0
VERTEX
  8
Base
 10
-34.9999999999898
 20
30.0000000008797
 42
0.0722956668859
  0
VERTEX
  8
Base
 10
-34.8344812023178
 20
28.8612501387064
 42
0.0
  0
VERTEX
  8
Base
 10
-33.9452189537
 20
28.9547153673
 42
0.0
  0
VERTEX
  8
Base
 10
-32.3010524317268
 20
29.127524232245
 42
0.0
  0
VERTEX
  8
Base
 10
-27.3284429548235
 20
29.6501665486006
 42
0.0
  0
VERTEX
  8
Base
 10
-25.6761728674054
 20
29.8238271325946
 42
0.0
  0
VERTEX
  8
Base
 10
-20.1421356237
 20
35.3578643763
 42
0.0
  0
VERTEX
  8
Base
 10
-19.7177674216641
 20
35.7822325783359
 42
0.0
  0
VERTEX
  8
Base
 10
-16.1822335157615
 20
39.3177664842385
 42
0.0
  0
VERTEX
  8
Base
 10
-6.6822346509817
 20
48.8177653490183
 42
0.0
  0
VERTEX
  8
Base
 10
-6.0
 20
49.5
 42
0.0
  0
VERTEX
  8
Base
 10
0.0
 20
49.5
 42
0.0
  0
VERTEX
  8
Base
 10
6.0
 20
49.5
 42
0.0
  0
VERTEX
  8
Base
 10
6.6822346509817
 20
48.8177653490183
 42
0.0
  0
VERTEX
  8
Base
 10
16.1822335157615
 20
39.3177664842385
 42
0.0
  0
VERTEX
  8
Base
 10
19.7177674216641
 20
35.7822325783359
 42
0.0
  0
VERTEX
  8
Base
 10
20.1421356237
 20
35.3578643763
 42
0.0
  0
VERTEX
  8
Base
 10
25.6761728674054
 20
29.8238271325946
 42
0.0
  0
VERTEX
  8
Base
 10
27.3284429548235
 20
29.6501665486006
 42
0.0
  0
VERTEX
  8
Base
 10
32.3010524317268
 20
29.127524232245
 42
0.0
  0
VERTEX
  8
Base
 10
33.9452189537
 20
28.9547153673
 42
0.0
  0
VERTEX
  8
Base
 10
34.8344812023178
 20
28.8612501387064
 42
0.0722956668859
  0
VERTEX
  8
Base
 10
34.9999999999898
 20
30.0000000008797
 42
0.0
  0
VERTEX
  8
Base
 10
35.0
 20
31.5
 42
0.1989122815547
  0
VERTEX
  8
Base
 10
33.8388349999928
 20
34.3033000000469
 42
0.0
  0
VERTEX
  8
Base
 10
31.5747281311804
 20
36.5674070038812
 42
0.0
  0
VERTEX
  8
Base
 10
29.7549750496061
 20
38.3871601939781
 42
0.0
  0
VERTEX
  8
Base
 10
24.978171532488
 20
43.163963995965
 42
0.0
  0
VERTEX
  8
Base
 10
23.5639580122839
 20
44.578177600507
 42
0.0
  0
VERTEX
  8
Base
 10
22.5674187811581
 20
45.5747168910623
 42
0.0
  0
VERTEX
  8
Base
 10
20.8998051215886
 20
47.2423306500814
 42
0.0
  0
VERTEX
  8
Base
 10
17.071068
 20
51.071068
 42
0.0568665134098
  0
VERTEX
  8
Base
 10
15.2964064241135
 20
52.4822215922904
 42
0.0530597422042
  0
VERTEX
  8
Base
 10
13.3926619581242
 20
53.4069042510473
 42
0.0867508228717
  0
VERTEX
  8
Base
 10
10.0000000000194
 20
53.99999999998
 42
0.0
  0
SEQEND
  0
ENDSEC
  0
EOF
