  0
SECTION
  2
HEADER
  9
$ACADVER
  1
AC1009
  9
$EXTMAX
 10
35.0
 20
54.0
 30
0.0
  9
$EXTMIN
 10
-35.0
 20
28.8612499237061
 30
0.0
  9
$INSUNITS
 70
     4
  9
$LUNITS
 70
     2
  9
$LUPREC
 70
     4
  9
$MEASUREMENT
 70
     1
  0
ENDSEC
  0
SECTION
  2
TABLES
  0
TABLE
  2
LAYER
 70
     1
  0
LAYER
  2
0
 70
     0
 62
     7
  6
Continuous
  0
LAYER
  2
Base
 70
     0
 62
    70
  6
Continuous
  0
ENDTAB
  0
TABLE
  2
APPID
 70
     1
  0
APPID
  2
ACAD
 70
     0
  0
ENDTAB
  0
ENDSEC
  0
SECTION
  2
ENTITIES
  0
POLYLINE
  8
Base
 66
     1
 10
0.0
 20
0.0
 30
0.0
 70
     1
  0
VERTEX
  8
Base
 10
-14.4623790012
 20
42.1640751533
 42
0.0
  0
VERTEX
  8
Base
 10
-14.4173892265
 20
42.3589492669
 42
0.0
  0
VERTEX
  8
Base
 10
-19.2892383746104
 20
43.4837071433551
 42
0.0
  0
VERTEX
  8
Base
 10
-19.2252541394276
 20
43.7608526053457
 42
-0.1638650768577
  0
VERTEX
  8
Base
 10
-19.9863356856825
 20
44.9788364280499
 42
0.0
  0
VERTEX
  8
Base
 10
-22.5674187811581
 20
45.5747168910623
 42
0.0
  0
VERTEX
  8
Base
 10
-23.5639580122839
 20
44.5781776005069
 42
0.0
  0
VERTEX
  8
Base
 10
-22.0465404085643
 20
43.0607599967874
 42
-0.163866127957
  0
VERTEX
  8
Base
 10
-20.6103110428436
 20
43.0607556313729
 42
0.0
  0
VERTEX
  8
Base
 10
-20.4091839103
 20
43.2618811296
 42
0.0
  0
VERTEX
  8
Base
 10
-16.8736533096
 20
39.726344503
 42
0.0
  0
VERTEX
  8
Base
 10
-16.7322315406
 20
39.8677654465
 42
0.0
  0
VERTEX
  8
Base
 10
-16.3786784513
 20
39.5142117546
 42
0.0
  0
VERTEX
  8
Base
 10
-16.1822335157615
 20
39.3177664842385
 42
0.0
  0
VERTEX
  8
Base
 10
-13.5472090241747
 20
41.9527909758254
 42
0.0
  0
VERTEX
  8
Base
 10
-13.9751940319
 20
42.051599353
 42
0.0
  0
SEQEND
  0
POLYLINE
  8
Base
 66
     1
 10
0.0
 20
0.0
 30
0.0
 70
     1
  0
VERTEX
  8
Base
 10
-23.6618883198
 20
40.0092031522
 42
0.0
  0
VERTEX
  8
Base
 10
-23.4607611872
 20
40.2103286503
 42
-0.1638650768577
  0
VERTEX
  8
Base
 10
-23.4607568218231
 20
41.6465492853
 42
0.0
  0
VERTEX
  8
Base
 10
-24.9781715324881
 20
43.163963995965
 42
0.0
  0
VERTEX
  8
Base
 10
-29.7549750496061
 20
38.3871601939781
 42
0.0
  0
VERTEX
  8
Base
 10
-29.5342543124513
 20
36.2871390623693
 42
-0.163866127957
  0
VERTEX
  8
Base
 10
-28.418097369282
 20
35.3832870450609
 42
0.0
  0
VERTEX
  8
Base
 10
-28.135219848
 20
35.4130174577
 42
0.0
  0
VERTEX
  8
Base
 10
-27.612599195
 20
30.4404112256
 42
0.0
  0
VERTEX
  8
Base
 10
-27.4136941533
 20
30.4613106135
 42
0.0
  0
VERTEX
  8
Base
 10
-27.3614320306
 20
29.9640494441
 42
0.0
  0
VERTEX
  8
Base
 10
-27.3284429548235
 20
29.6501665486006
 42
0.0
  0
VERTEX
  8
Base
 10
-25.6761728674054
 20
29.8238271325946
 42
0.0
  0
VERTEX
  8
Base
 10
-20.1421356237
 20
35.3578643763
 42
0.0
  0
VERTEX
  8
Base
 10
-19.7177674216641
 20
35.7822325783358
 42
0.0
  0
VERTEX
  8
Base
 10
-19.9142153701
 20
35.9786808616
 42
0.0
  0
VERTEX
  8
Base
 10
-20.2677684594
 20
36.3322345535
 42
0.0
  0
VERTEX
  8
Base
 10
-20.1263472749
 20
36.4736560814
 42
0.0
  0
SEQEND
  0
POLYLINE
  8
Base
 66
     1
 10
0.0
 20
0.0
 30
0.0
 70
     1
  0
VERTEX
  8
Base
 10
-12.8504360294
 20
46.9234490465
 42
0.0
  0
VERTEX
  8
Base
 10
-13.3376209988
 20
47.0359248467
 42
0.0
  0
VERTEX
  8
Base
 10
-13.3826118642
 20
46.8410509849
 42
0.0
  0
VERTEX
  8
Base
 10
-18.2544610124
 20
47.9658088614
 42
0.0
  0
VERTEX
  8
Base
 10
-18.3184452474675
 20
47.6886633993315
 42
0.163866127957
  0
VERTEX
  8
Base
 10
-19.5364364742465
 20
46.9275772265055
 42
0.0
  0
VERTEX
  8
Base
 10
-20.8998051215886
 20
47.2423306500814
 42
0.0
  0
VERTEX
  8
Base
 10
-17.071068
 20
51.071068
 42
-0.0568665134098
  0
VERTEX
  8
Base
 10
-15.2964064241135
 20
52.4822215922904
 42
0.0
  0
VERTEX
  8
Base
 10
-13.9607402474231
 20
51.1465554156
 42
0.1638650768577
  0
VERTEX
  8
Base
 10
-13.9607446128
 20
49.7103347806
 42
0.0
  0
VERTEX
  8
Base
 10
-14.1618717454
 20
49.5092092825
 42
0.0
  0
VERTEX
  8
Base
 10
-11.1936310934867
 20
46.5409445099342
 42
0.0
  0
VERTEX
  8
Base
 10
-11.3888811212
 20
46.5860216459
 42
0.0
  0
VERTEX
  8
Base
 10
-11.8760660906
 20
46.6984974461
 42
0.0
  0
VERTEX
  8
Base
 10
-12.36325106
 20
46.8109732463
 42
0.0
  0
SEQEND
  0
POLYLINE
  8
Base
 66
     1
 10
0.0
 20
0.0
 30
0.0
 70
     1
  0
VERTEX
  8
Base
 10
-32.3863058467
 20
29.9386893865
 42
0.0
  0
VERTEX
  8
Base
 10
-32.1874019529
 20
29.9595996968
 42
0.0
  0
VERTEX
  8
Base
 10
-32.7100226059354
 20
34.9322059288963
 42
0.0
  0
VERTEX
  8
Base
 10
-32.4271450846896
 20
34.961936341401
 42
-0.1638650768577
  0
VERTEX
  8
Base
 10
-31.5232985618322
 20
36.0780864995507
 42
0.0
  0
VERTEX
  8
Base
 10
-31.5747281311804
 20
36.5674070038813
 42
0.0
  0
VERTEX
  8
Base
 10
-33.8388349999928
 20
34.3033000000469
 42
0.1989122815547
  0
VERTEX
  8
Base
 10
-35.0
 20
31.5
 42
0.0
  0
VERTEX
  8
Base
 10
-34.9999999999898
 20
30.0000000008797
 42
0.0722956668859
  0
VERTEX
  8
Base
 10
-34.8344812023178
 20
28.8612501387064
 42
0.0
  0
VERTEX
  8
Base
 10
-33.9452189537
 20
28.9547153673
 42
0.0
  0
VERTEX
  8
Base
 10
-32.3010524317268
 20
29.127524232245
 42
0.0
  0
VERTEX
  8
Base
 10
-32.334043724
 20
29.4414282172
 42
0.0
  0
SEQEND
  0
POLYLINE
  8
Base
 66
     1
 10
0.0
 20
0.0
 30
0.0
 70
     1
  0
VERTEX
  8
Base
 10
14.4623790012
 20
42.1640751533
 42
0.0
  0
VERTEX
  8
Base
 10
14.4173892265
 20
42.3589492669
 42
0.0
  0
VERTEX
  8
Base
 10
19.2892383746104
 20
43.4837071433551
 42
0.0
  0
VERTEX
  8
Base
 10
19.2252541394276
 20
43.7608526053457
 42
0.1638650768577
  0
VERTEX
  8
Base
 10
19.9863356856825
 20
44.9788364280499
 42
0.0
  0
VERTEX
  8
Base
 10
22.5674187811581
 20
45.5747168910623
 42
0.0
  0
VERTEX
  8
Base
 10
23.5639580122839
 20
44.5781776005069
 42
0.0
  0
VERTEX
  8
Base
 10
22.0465404085643
 20
43.0607599967874
 42
0.163866127957
  0
VERTEX
  8
Base
 10
20.6103110428436
 20
43.0607556313729
 42
0.0
  0
VERTEX
  8
Base
 10
20.4091839103
 20
43.2618811296
 42
0.0
  0
VERTEX
  8
Base
 10
16.8736533096
 20
39.726344503
 42
0.0
  0
VERTEX
  8
Base
 10
16.7322315406
 20
39.8677654465
 42
0.0
  0
VERTEX
  8
Base
 10
16.3786784513
 20
39.5142117546
 42
0.0
  0
VERTEX
  8
Base
 10
16.1822335157615
 20
39.3177664842385
 42
0.0
  0
VERTEX
  8
Base
 10
13.5472090241747
 20
41.9527909758254
 42
0.0
  0
VERTEX
  8
Base
 10
13.9751940319
 20
42.051599353
 42
0.0
  0
SEQEND
  0
POLYLINE
  8
Base
 66
     1
 10
0.0
 20
0.0
 30
0.0
 70
     1
  0
VERTEX
  8
Base
 10
23.6618883198
 20
40.0092031522
 42
0.0
  0
VERTEX
  8
Base
 10
23.4607611872
 20
40.2103286503
 42
0.1638650768577
  0
VERTEX
  8
Base
 10
23.4607568218231
 20
41.6465492853
 42
0.0
  0
VERTEX
  8
Base
 10
24.9781715324881
 20
43.163963995965
 42
0.0
  0
VERTEX
  8
Base
 10
29.7549750496061
 20
38.3871601939781
 42
0.0
  0
VERTEX
  8
Base
 10
29.5342543124513
 20
36.2871390623693
 42
0.163866127957
  0
VERTEX
  8
Base
 10
28.418097369282
 20
35.3832870450609
 42
0.0
  0
VERTEX
  8
Base
 10
28.135219848
 20
35.4130174577
 42
0.0
  0
VERTEX
  8
Base
 10
27.612599195
 20
30.4404112256
 42
0.0
  0
VERTEX
  8
Base
 10
27.4136941533
 20
30.4613106135
 42
0.0
  0
VERTEX
  8
Base
 10
27.3614320306
 20
29.9640494441
 42
0.0
  0
VERTEX
  8
Base
 10
27.3284429548235
 20
29.6501665486006
 42
0.0
  0
VERTEX
  8
Base
 10
25.6761728674054
 20
29.8238271325946
 42
0.0
  0
VERTEX
  8
Base
 10
20.1421356237
 20
35.3578643763
 42
0.0
  0
VERTEX
  8
Base
 10
19.7177674216641
 20
35.7822325783358
 42
0.0
  0
VERTEX
  8
Base
 10
19.9142153701
 20
35.9786808616
 42
0.0
  0
VERTEX
  8
Base
 10
20.2677684594
 20
36.3322345535
 42
0.0
  0
VERTEX
  8
Base
 10
20.1263472749
 20
36.4736560814
 42
0.0
  0
SEQEND
  0
POLYLINE
  8
Base
 66
     1
 10
0.0
 20
0.0
 30
0.0
 70
     1
  0
VERTEX
  8
Base
 10
12.8504360294
 20
46.9234490465
 42
0.0
  0
VERTEX
  8
Base
 10
13.3376209988
 20
47.0359248467
 42
0.0
  0
VERTEX
  8
Base
 10
13.3826118642
 20
46.8410509849
 42
0.0
  0
VERTEX
  8
Base
 10
18.2544610124
 20
47.9658088614
 42
0.0
  0
VERTEX
  8
Base
 10
18.3184452474675
 20
47.6886633993315
 42
-0.163866127957
  0
VERTEX
  8
Base
 10
19.5364364742465
 20
46.9275772265055
 42
0.0
  0
VERTEX
  8
Base
 10
20.8998051215886
 20
47.2423306500814
 42
0.0
  0
VERTEX
  8
Base
 10
17.071068
 20
51.071068
 42
0.0568665134098
  0
VERTEX
  8
Base
 10
15.2964064241135
 20
52.4822215922904
 42
0.0
  0
VERTEX
  8
Base
 10
13.9607402474231
 20
51.1465554156
 42
-0.1638650768577
  0
VERTEX
  8
Base
 10
13.9607446128
 20
49.7103347806
 42
0.0
  0
VERTEX
  8
Base
 10
14.1618717454
 20
49.5092092825
 42
0.0
  0
VERTEX
  8
Base
 10
11.1936310934867
 20
46.5409445099342
 42
0.0
  0
VERTEX
  8
Base
 10
11.3888811212
 20
46.5860216459
 42
0.0
  0
VERTEX
  8
Base
 10
11.8760660906
 20
46.6984974461
 42
0.0
  0
VERTEX
  8
Base
 10
12.36325106
 20
46.8109732463
 42
0.0
  0
SEQEND
  0
POLYLINE
  8
Base
 66
     1
 10
0.0
 20
0.0
 30
0.0
 70
     1
  0
VERTEX
  8
Base
 10
32.3863058467
 20
29.9386893865
 42
0.0
  0
VERTEX
  8
Base
 10
32.1874019529
 20
29.9595996968
 42
0.0
  0
VERTEX
  8
Base
 10
32.7100226059354
 20
34.9322059288963
 42
0.0
  0
VERTEX
  8
Base
 10
32.4271450846896
 20
34.961936341401
 42
0.1638650768577
  0
VERTEX
  8
Base
 10
31.5232985618322
 20
36.0780864995507
 42
0.0
  0
VERTEX
  8
Base
 10
31.5747281311804
 20
36.5674070038813
 42
0.0
  0
VERTEX
  8
Base
 10
33.8388349999928
 20
34.3033000000469
 42
-0.1989122815547
  0
VERTEX
  8
Base
 10
35.0
 20
31.5
 42
0.0
  0
VERTEX
  8
Base
 10
34.9999999999898
 20
30.0000000008797
 42
-0.0722956668859
  0
VERTEX
  8
Base
 10
34.8344812023178
 20
28.8612501387064
 42
0.0
  0
VERTEX
  8
Base
 10
33.9452189537
 20
28.9547153673
 42
0.0
  0
VERTEX
  8
Base
 10
32.3010524317268
 20
29.127524232245
 42
0.0
  0
VERTEX
  8
Base
 10
32.334043724
 20
29.4414282172
 42
0.0
  0
SEQEND
  0
CIRCLE
  8
Base
 10
-16.0
 20
49.5
 30
0.0
 40
0.75
  0
POLYLINE
  8
Base
 66
     1
 10
0.0
 20
0.0
 30
0.0
 70
     1
  0
VERTEX
  8
Base
 10
-25.0596437828701
 20
40.5535189295368
 42
-0.0259736686023
  0
VERTEX
  8
Base
 10
-25.0784061612473
 20
40.9424089544152
 42
0.0
  0
VERTEX
  8
Base
 10
-28.1884060461217
 20
37.8324088840732
 42
0.0
  0
VERTEX
  8
Base
 10
-28.1239532179289
 20
37.2191801365541
 42
-0.0389750754768
  0
VERTEX
  8
Base
 10
-27.6785847764467
 20
36.8418226968518
 42
-0.2975275469764
  0
VERTEX
  8
Base
 10
-26.6434363399869
 20
35.569803825794
 42
0.0
  0
VERTEX
  8
Base
 10
-26.2067242285143
 20
31.4145961150453
 42
0.0
  0
VERTEX
  8
Base
 10
-21.7080656176525
 20
35.9132547259071
 42
-0.0050008516359
  0
VERTEX
  8
Base
 10
-21.7161578695562
 20
35.9421472343684
 42
0.0
  0
VERTEX
  8
Base
 10
-24.7225493954618
 20
38.948543884303
 42
-0.2975284207546
  0
SEQEND
  0
POLYLINE
  8
Base
 66
     1
 10
0.0
 20
0.0
 30
0.0
 70
     1
  0
VERTEX
  8
Base
 10
25.0596437828701
 20
40.5535189295368
 42
0.0259736686023
  0
VERTEX
  8
Base
 10
25.0784061612473
 20
40.9424089544152
 42
0.0
  0
VERTEX
  8
Base
 10
28.1884060461217
 20
37.8324088840732
 42
0.0
  0
VERTEX
  8
Base
 10
28.1239532179289
 20
37.2191801365541
 42
0.0389750754768
  0
VERTEX
  8
Base
 10
27.6785847764467
 20
36.8418226968518
 42
0.2975275469764
  0
VERTEX
  8
Base
 10
26.6434363399869
 20
35.569803825794
 42
0.0
  0
VERTEX
  8
Base
 10
26.2067242285143
 20
31.4145961150453
 42
0.0
  0
VERTEX
  8
Base
 10
21.7080656176525
 20
35.9132547259071
 42
0.0050008516359
  0
VERTEX
  8
Base
 10
21.7161578695562
 20
35.9421472343684
 42
0.0
  0
VERTEX
  8
Base
 10
24.7225493954618
 20
38.948543884303
 42
0.2975284207546
  0
SEQEND
  0
CIRCLE
  8
Base
 10
16.0
 20
49.5
 30
0.0
 40
0.75
  0
POLYLINE
  8
Base
 66
     1
 10
0.0
 20
0.0
 30
0.0
 70
     1
  0
VERTEX
  8
Base
 10
7.23222586442
 20
49.3677597703
 42
0.0
  0
VERTEX
  8
Base
 10
6.87867391035
 20
49.0142049432
 42
0.0
  0
VERTEX
  8
Base
 10
6.6822346509817
 20
48.8177653490183
 42
0.0
  0
VERTEX
  8
Base
 10
5.6464466094067
 20
49.8535533905933
 42
0.0
  0
VERTEX
  8
Base
 10
8.2928932188134
 20
52.5
 42
0.0
  0
VERTEX
  8
Base
 10
-8.2928932188134
 20
52.5
 42
0.0
  0
VERTEX
  8
Base
 10
-5.6464466094067
 20
49.8535533905933
 42
0.0
  0
VERTEX
  8
Base
 10
-6.6822346509817
 20
48.8177653490183
 42
0.0
  0
VERTEX
  8
Base
 10
-6.87867391035
 20
49.0142049432
 42
0.0
  0
VERTEX
  8
Base
 10
-7.23222586442
 20
49.3677597703
 42
0.0
  0
VERTEX
  8
Base
 10
-7.37364779526
 20
49.2263389887
 42
0.0
  0
VERTEX
  8
Base
 10
-10.9091673359
 20
52.7618872599
 42
0.0
  0
VERTEX
  8
Base
 10
-11.1102944684436
 20
52.5607617616729
 42
0.163866127957
  0
VERTEX
  8
Base
 10
-12.5465238341643
 20
52.5607661270874
 42
0.0
  0
VERTEX
  8
Base
 10
-13.3926619581242
 20
53.4069042510473
 42
-0.0867508228717
  0
VERTEX
  8
Base
 10
-10.0000000000194
 20
53.99999999998
 42
0.0
  0
VERTEX
  8
Base
 10
0.0
 20
53.99999999999
 42
0.0
  0
VERTEX
  8
Base
 10
10.0000000000194
 20
53.99999999998
 42
-0.0867508228717
  0
VERTEX
  8
Base
 10
13.3926619581242
 20
53.4069042510473
 42
0.0
  0
VERTEX
  8
Base
 10
12.5465238341643
 20
52.5607661270874
 42
0.163866127957
  0
VERTEX
  8
Base
 10
11.1102944684436
 20
52.5607617616729
 42
0.0
  0
VERTEX
  8
Base
 10
10.9091673359
 20
52.7618872599
 42
0.0
  0
VERTEX
  8
Base
 10
7.37364779526
 20
49.2263389887
 42
0.0
  0
SEQEND
  0
ENDSEC
  0
EOF
