  0
SECTION
  2
HEADER
  9
$ACADVER
  1
AC1009
  9
$EXTMAX
 10
-1.5
 20
21.0
 30
0.0
  9
$EXTMIN
 10
-12.5
 20
-2.0
 30
0.0
  9
$INSUNITS
 70
     4
  9
$LUNITS
 70
     2
  9
$LUPREC
 70
     4
  9
$MEASUREMENT
 70
     1
  0
ENDSEC
  0
SECTION
  2
TABLES
  0
TABLE
  2
LAYER
 70
     1
  0
LAYER
  2
0
 70
     0
 62
     7
  6
Continuous
  0
LAYER
  2
SupportsCapteurs
 70
     0
 62
    70
  6
Continuous
  0
LAYER
  2
DiodesLazer
 70
     0
 62
    70
  6
Continuous
  0
ENDTAB
  0
TABLE
  2
APPID
 70
     1
  0
APPID
  2
ACAD
 70
     0
  0
ENDTAB
  0
ENDSEC
  0
SECTION
  2
ENTITIES
  0
CIRCLE
  8
DiodesLazer
 10
-6.302529992
 20
10.0895112924
 30
0.0
 40
0.3
  0
CIRCLE
  8
DiodesLazer
 10
-6.302529992
 20
12.6295112924
 30
0.0
 40
0.3
  0
CIRCLE
  8
DiodesLazer
 10
-5.0325298888152
 20
11.3595106346765
 30
0.0
 40
0.3
  0
LINE
  8
DiodesLazer
 10
-1.5
 20
0.0
 30
0.0
 11
-2.5
 21
0.0
 31
0.0
  0
LINE
  8
DiodesLazer
 10
-2.5
 20
0.0
 30
0.0
 11
-2.5
 21
-1.0
 31
0.0
  0
LINE
  8
DiodesLazer
 10
-2.5
 20
-1.0
 30
0.0
 11
-4.0
 21
-1.0
 31
0.0
  0
LINE
  8
DiodesLazer
 10
-4.0
 20
-1.0
 30
0.0
 11
-4.5
 21
-1.0
 31
0.0
  0
LINE
  8
DiodesLazer
 10
-4.5
 20
-1.0
 30
0.0
 11
-4.5
 21
-2.0
 31
0.0
  0
LINE
  8
DiodesLazer
 10
-4.5
 20
-2.0
 30
0.0
 11
-6.5
 21
-2.0
 31
0.0
  0
LINE
  8
DiodesLazer
 10
-6.5
 20
-2.0
 30
0.0
 11
-6.5
 21
-1.0
 31
0.0
  0
LINE
  8
DiodesLazer
 10
-6.5
 20
-1.0
 30
0.0
 11
-6.5
 21
0.0
 31
0.0
  0
LINE
  8
DiodesLazer
 10
-6.5
 20
0.0
 30
0.0
 11
-7.5
 21
0.0
 31
0.0
  0
LINE
  8
DiodesLazer
 10
-7.5
 20
0.0
 30
0.0
 11
-7.5
 21
0.5
 31
0.0
  0
LINE
  8
DiodesLazer
 10
-7.5
 20
0.5
 30
0.0
 11
-6.0
 21
2.0
 31
0.0
  0
LINE
  8
DiodesLazer
 10
-6.0
 20
2.0
 30
0.0
 11
-6.0
 21
5.0
 31
0.0
  0
LINE
  8
DiodesLazer
 10
-6.0
 20
5.0
 30
0.0
 11
-9.0
 21
8.0
 31
0.0
  0
LINE
  8
DiodesLazer
 10
-9.0
 20
8.0
 30
0.0
 11
-11.5
 21
8.0
 31
0.0
  0
LINE
  8
DiodesLazer
 10
-11.5
 20
8.0
 30
0.0
 11
-11.5
 21
17.0
 31
0.0
  0
LINE
  8
DiodesLazer
 10
-11.5
 20
17.0
 30
0.0
 11
-12.5
 21
18.0
 31
0.0
  0
LINE
  8
DiodesLazer
 10
-12.5
 20
18.0
 30
0.0
 11
-12.5
 21
19.0
 31
0.0
  0
LINE
  8
DiodesLazer
 10
-12.5
 20
19.0
 30
0.0
 11
-11.5
 21
19.0
 31
0.0
  0
LINE
  8
DiodesLazer
 10
-11.5
 20
19.0
 30
0.0
 11
-11.5
 21
21.0
 31
0.0
  0
LINE
  8
DiodesLazer
 10
-11.5
 20
21.0
 30
0.0
 11
-3.5
 21
21.0
 31
0.0
  0
LINE
  8
DiodesLazer
 10
-3.5
 20
21.0
 30
0.0
 11
-3.5
 21
19.0
 31
0.0
  0
LINE
  8
DiodesLazer
 10
-3.5
 20
19.0
 30
0.0
 11
-1.5
 21
19.0
 31
0.0
  0
LINE
  8
DiodesLazer
 10
-1.5
 20
19.0
 30
0.0
 11
-1.5
 21
8.0
 31
0.0
  0
LINE
  8
DiodesLazer
 10
-1.5
 20
8.0
 30
0.0
 11
-2.5
 21
7.0
 31
0.0
  0
LINE
  8
DiodesLazer
 10
-2.5
 20
7.0
 30
0.0
 11
-3.0
 21
6.5
 31
0.0
  0
LINE
  8
DiodesLazer
 10
-3.0
 20
6.5
 30
0.0
 11
-3.0
 21
2.0
 31
0.0
  0
LINE
  8
DiodesLazer
 10
-3.0
 20
2.0
 30
0.0
 11
-1.5
 21
0.5
 31
0.0
  0
LINE
  8
DiodesLazer
 10
-1.5
 20
0.5
 30
0.0
 11
-1.5
 21
0.0
 31
0.0
  0
ENDSEC
  0
EOF
