  0
SECTION
  2
HEADER
  9
$ACADVER
  1
AC1009
  9
$EXTMAX
 10
42.5
 20
22.0
 30
0.0
  9
$EXTMIN
 10
-36.0
 20
-1.0
 30
0.0
  9
$INSUNITS
 70
     4
  9
$LUNITS
 70
     2
  9
$LUPREC
 70
     4
  9
$MEASUREMENT
 70
     1
  0
ENDSEC
  0
SECTION
  2
TABLES
  0
TABLE
  2
LAYER
 70
     1
  0
LAYER
  2
0
 70
     0
 62
     7
  6
Continuous
  0
LAYER
  2
SupportsMoteurs
 70
     0
 62
    70
  6
Continuous
  0
LAYER
  2
Entretoises
 70
     0
 62
    70
  6
Continuous
  0
LAYER
  2
PCBTurbin
 70
     0
 62
    70
  6
Continuous
  0
LAYER
  2
MainBoard
 70
     0
 62
    70
  6
Continuous
  0
LAYER
  2
Capteurs-PCB6
 70
     0
 62
    70
  6
Continuous
  0
LAYER
  2
Capteurs-PCB45
 70
     0
 62
    70
  6
Continuous
  0
ENDTAB
  0
TABLE
  2
APPID
 70
     1
  0
APPID
  2
ACAD
 70
     0
  0
ENDTAB
  0
ENDSEC
  0
SECTION
  2
ENTITIES
  0
CIRCLE
  8
Capteurs-PCB45
 10
0.0
 20
8.5
 30
0.0
 40
3.1
  0
POLYLINE
  8
Capteurs-PCB45
 66
     1
 10
0.0
 20
0.0
 30
0.0
 70
     1
  0
VERTEX
  8
Capteurs-PCB45
 10
0.5
 20
18.25
 42
0.0
  0
VERTEX
  8
Capteurs-PCB45
 10
-0.4999999933702
 20
18.24999999999
 42
0.4142135685454
  0
VERTEX
  8
Capteurs-PCB45
 10
-1.75
 20
17.0
 42
0.4142135623731
  0
VERTEX
  8
Capteurs-PCB45
 10
-0.5
 20
15.75
 42
0.0
  0
VERTEX
  8
Capteurs-PCB45
 10
0.4999999999442
 20
15.7499999999601
 42
0.1316525018887
  0
VERTEX
  8
Capteurs-PCB45
 10
1.124999999999
 20
15.9174680000024
 42
0.5773502691896
  0
VERTEX
  8
Capteurs-PCB45
 10
1.1250000000012
 20
18.0825319999797
 42
0.131652491517
  0
SEQEND
  0
POLYLINE
  8
Capteurs-PCB45
 66
     1
 10
0.0
 20
0.0
 30
0.0
 70
     1
  0
VERTEX
  8
Capteurs-PCB45
 10
29.0
 20
13.21
 42
1.0
  0
VERTEX
  8
Capteurs-PCB45
 10
29.71
 20
12.5
 42
0.0
  0
VERTEX
  8
Capteurs-PCB45
 10
31.79
 20
12.5
 42
1.0
  0
VERTEX
  8
Capteurs-PCB45
 10
32.5
 20
13.21
 42
0.0
  0
VERTEX
  8
Capteurs-PCB45
 10
32.5
 20
13.29
 42
1.0
  0
VERTEX
  8
Capteurs-PCB45
 10
31.79
 20
14.0
 42
0.0
  0
VERTEX
  8
Capteurs-PCB45
 10
29.71
 20
14.0
 42
1.0
  0
VERTEX
  8
Capteurs-PCB45
 10
29.0
 20
13.29
 42
0.0
  0
SEQEND
  0
POLYLINE
  8
Capteurs-PCB45
 66
     1
 10
0.0
 20
0.0
 30
0.0
 70
     1
  0
VERTEX
  8
Capteurs-PCB45
 10
-35.0
 20
13.21
 42
1.0
  0
VERTEX
  8
Capteurs-PCB45
 10
-34.29
 20
12.5
 42
0.0
  0
VERTEX
  8
Capteurs-PCB45
 10
-32.21
 20
12.5
 42
1.0
  0
VERTEX
  8
Capteurs-PCB45
 10
-31.5
 20
13.21
 42
0.0
  0
VERTEX
  8
Capteurs-PCB45
 10
-31.5
 20
13.29
 42
1.0
  0
VERTEX
  8
Capteurs-PCB45
 10
-32.21
 20
14.0
 42
0.0
  0
VERTEX
  8
Capteurs-PCB45
 10
-34.29
 20
14.0
 42
1.0
  0
VERTEX
  8
Capteurs-PCB45
 10
-35.0
 20
13.29
 42
0.0
  0
SEQEND
  0
POLYLINE
  8
Capteurs-PCB45
 66
     1
 10
0.0
 20
0.0
 30
0.0
 70
     1
  0
VERTEX
  8
Capteurs-PCB45
 10
-23.8084075135631
 20
11.9679525896901
 42
-0.4762522361836
  0
VERTEX
  8
Capteurs-PCB45
 10
-22.0
 20
10.5
 42
-0.114443733769
  0
VERTEX
  8
Capteurs-PCB45
 10
-22.1531308996725
 20
9.8397397281504
 42
0.0
  0
VERTEX
  8
Capteurs-PCB45
 10
-24.4083490843452
 20
5.2393059038901
 42
-0.4342160978954
  0
VERTEX
  8
Capteurs-PCB45
 10
-30.0
 20
3.5358983848623
 42
-0.5773502691896
  0
VERTEX
  8
Capteurs-PCB45
 10
-30.0
 20
10.4641016151378
 42
-0.0792947925351
  0
VERTEX
  8
Capteurs-PCB45
 10
-28.8224201649759
 20
10.9145402121119
 42
0.0
  0
SEQEND
  0
POLYLINE
  8
Capteurs-PCB45
 66
     1
 10
0.0
 20
0.0
 30
0.0
 70
     1
  0
VERTEX
  8
Capteurs-PCB45
 10
-10.444
 20
8.808
 42
0.0
  0
VERTEX
  8
Capteurs-PCB45
 10
-15.592
 20
10.744
 42
0.2244873527691
  0
VERTEX
  8
Capteurs-PCB45
 10
-19.0
 20
10.4641016151378
 42
0.5773502691896
  0
VERTEX
  8
Capteurs-PCB45
 10
-19.0
 20
3.5358983848623
 42
0.1316524975874
  0
VERTEX
  8
Capteurs-PCB45
 10
-17.0
 20
3.0
 42
0.0
  0
VERTEX
  8
Capteurs-PCB45
 10
-11.5
 20
3.0
 42
0.4142135623731
  0
VERTEX
  8
Capteurs-PCB45
 10
-8.5
 20
6.0
 42
0.3123764818362
  0
SEQEND
  0
POLYLINE
  8
Capteurs-PCB45
 66
     1
 10
0.0
 20
0.0
 30
0.0
 70
     1
  0
VERTEX
  8
Capteurs-PCB45
 10
-32.8943937184492
 20
19.1379291456328
 42
0.0
  0
VERTEX
  8
Capteurs-PCB45
 10
-34.2887873580535
 20
18.2758583400108
 42
0.5673518760897
  0
VERTEX
  8
Capteurs-PCB45
 10
-34.25
 20
15.7009618943233
 42
0.5255340060766
  0
VERTEX
  8
Capteurs-PCB45
 10
-32.0189048707939
 20
16.7626032471959
 42
0.0
  0
VERTEX
  8
Capteurs-PCB45
 10
-31.7594524725733
 20
18.3813013916583
 42
0.0397541894523
  0
VERTEX
  8
Capteurs-PCB45
 10
-31.75
 20
18.5
 42
0.5773502691896
  0
VERTEX
  8
Capteurs-PCB45
 10
-32.875
 20
19.1495190528383
 42
0.0075314139299
  0
SEQEND
  0
CIRCLE
  8
Capteurs-PCB45
 10
-8.0
 20
11.0
 30
0.0
 40
1.5
  0
POLYLINE
  8
Capteurs-PCB45
 66
     1
 10
0.0
 20
0.0
 30
0.0
 70
     1
  0
VERTEX
  8
Capteurs-PCB45
 10
-3.5940074256999
 20
10.5749965359001
 42
1.000006983585
  0
VERTEX
  8
Capteurs-PCB45
 10
-5.0662526119684
 20
11.4249930720842
 42
0.4142131465278
  0
VERTEX
  8
Capteurs-PCB45
 10
-2.9250000000037
 20
3.4337520000042
 42
1.0000001987634
  0
VERTEX
  8
Capteurs-PCB45
 10
-2.0749999999879
 20
4.9059949999908
 42
-0.4142132650453
  0
SEQEND
  0
POLYLINE
  8
Capteurs-PCB45
 66
     1
 10
0.0
 20
0.0
 30
0.0
 70
     1
  0
VERTEX
  8
Capteurs-PCB45
 10
0.0000039999958
 20
4.3500000000039
 42
1.000006983585
  0
VERTEX
  8
Capteurs-PCB45
 10
0.0000079996658
 20
2.650000000004
 42
0.4142131465278
  0
VERTEX
  8
Capteurs-PCB45
 10
5.8499994698703
 20
8.4999996939252
 42
1.0000001987634
  0
VERTEX
  8
Capteurs-PCB45
 10
4.1499996313302
 20
8.4999997871624
 42
-0.4142132650453
  0
SEQEND
  0
POLYLINE
  8
Capteurs-PCB45
 66
     1
 10
0.0
 20
0.0
 30
0.0
 70
     1
  0
VERTEX
  8
Capteurs-PCB45
 10
3.5940034257042
 20
10.575003464096
 42
1.000006983585
  0
VERTEX
  8
Capteurs-PCB45
 10
5.0662446123026
 20
11.4250069279118
 42
0.4142131465278
  0
VERTEX
  8
Capteurs-PCB45
 10
-2.9249994698666
 20
13.5662483060706
 42
1.0000001987634
  0
VERTEX
  8
Capteurs-PCB45
 10
-2.0749996313423
 20
12.0940052128468
 42
-0.4142132650453
  0
SEQEND
  0
CIRCLE
  8
Capteurs-PCB45
 10
-22.5
 20
3.5
 30
0.0
 40
1.0
  0
CIRCLE
  8
Capteurs-PCB45
 10
-6.5
 20
3.5
 30
0.0
 40
1.0
  0
CIRCLE
  8
Capteurs-PCB45
 10
-32.5
 20
3.0
 30
0.0
 40
0.75
  0
CIRCLE
  8
Capteurs-PCB45
 10
-20.0
 20
12.0
 30
0.0
 40
0.75
  0
POLYLINE
  8
Capteurs-PCB45
 66
     1
 10
0.0
 20
0.0
 30
0.0
 70
     1
  0
VERTEX
  8
Capteurs-PCB45
 10
23.8084075135631
 20
11.9679525896901
 42
0.4762522361836
  0
VERTEX
  8
Capteurs-PCB45
 10
22.0
 20
10.5
 42
0.114443733769
  0
VERTEX
  8
Capteurs-PCB45
 10
22.1531308996725
 20
9.8397397281504
 42
0.0
  0
VERTEX
  8
Capteurs-PCB45
 10
24.4083490843452
 20
5.2393059038901
 42
0.4342160978954
  0
VERTEX
  8
Capteurs-PCB45
 10
30.0
 20
3.5358983848623
 42
0.5773502691896
  0
VERTEX
  8
Capteurs-PCB45
 10
30.0
 20
10.4641016151378
 42
0.0792947925351
  0
VERTEX
  8
Capteurs-PCB45
 10
28.8224201649759
 20
10.9145402121119
 42
0.0
  0
SEQEND
  0
POLYLINE
  8
Capteurs-PCB45
 66
     1
 10
0.0
 20
0.0
 30
0.0
 70
     1
  0
VERTEX
  8
Capteurs-PCB45
 10
10.444
 20
8.808
 42
0.0
  0
VERTEX
  8
Capteurs-PCB45
 10
15.592
 20
10.744
 42
-0.2244873527691
  0
VERTEX
  8
Capteurs-PCB45
 10
19.0
 20
10.4641016151378
 42
-0.5773502691896
  0
VERTEX
  8
Capteurs-PCB45
 10
19.0
 20
3.5358983848623
 42
-0.1316524975874
  0
VERTEX
  8
Capteurs-PCB45
 10
17.0
 20
3.0
 42
0.0
  0
VERTEX
  8
Capteurs-PCB45
 10
11.5
 20
3.0
 42
-0.4142135623731
  0
VERTEX
  8
Capteurs-PCB45
 10
8.5
 20
6.0
 42
-0.3123764818362
  0
SEQEND
  0
CIRCLE
  8
Capteurs-PCB45
 10
22.5
 20
3.5
 30
0.0
 40
1.0
  0
CIRCLE
  8
Capteurs-PCB45
 10
20.0
 20
12.0
 30
0.0
 40
0.75
  0
CIRCLE
  8
Capteurs-PCB45
 10
8.0
 20
11.0
 30
0.0
 40
1.5
  0
CIRCLE
  8
Capteurs-PCB45
 10
6.5
 20
3.5
 30
0.0
 40
1.0
  0
POLYLINE
  8
Capteurs-PCB45
 66
     1
 10
0.0
 20
0.0
 30
0.0
 70
     1
  0
VERTEX
  8
Capteurs-PCB45
 10
30.5015925940574
 20
15.9601244723976
 42
0.2466682287215
  0
VERTEX
  8
Capteurs-PCB45
 10
30.75
 20
15.5669872981078
 42
0.3568503959869
  0
VERTEX
  8
Capteurs-PCB45
 10
31.3748006081926
 20
15.6690551343525
 42
0.0
  0
VERTEX
  8
Capteurs-PCB45
 10
32.338079637927
 20
16.7599847836076
 42
0.1828315206097
  0
VERTEX
  8
Capteurs-PCB45
 10
32.6180339887499
 20
17.5
 42
0.5773502691896
  0
VERTEX
  8
Capteurs-PCB45
 10
30.9409830056251
 20
18.4682458365519
 42
0.2894590311898
  0
VERTEX
  8
Capteurs-PCB45
 10
30.385527159823
 20
17.4108356096423
 42
0.0
  0
SEQEND
  0
POLYLINE
  8
Capteurs-PCB45
 66
     1
 10
0.0
 20
0.0
 30
0.0
 70
     1
  0
VERTEX
  8
Capteurs-PCB45
 10
34.0612474899497
 20
2.7525050201006
 42
-0.1525043487889
  0
VERTEX
  8
Capteurs-PCB45
 10
33.625
 20
2.8504809471617
 42
-0.4745893814177
  0
VERTEX
  8
Capteurs-PCB45
 10
33.4387525100503
 20
3.9974949798994
 42
0.0
  0
VERTEX
  8
Capteurs-PCB45
 10
35.5033400268007
 20
6.3266532797318
 42
-0.0806597648045
  0
VERTEX
  8
Capteurs-PCB45
 10
36.0
 20
6.7320508075689
 42
-0.5773502691896
  0
VERTEX
  8
Capteurs-PCB45
 10
39.0
 20
5.0
 42
-0.3904660030989
  0
VERTEX
  8
Capteurs-PCB45
 10
37.1633266398659
 20
3.0066800536015
 42
0.0
  0
SEQEND
  0
ARC
  8
Capteurs-PCB45
 10
9.855
 20
0.645
 30
0.0
 40
0.5020458146424
 50
45.0000000000007
 51
225.0
  0
LINE
  8
Capteurs-PCB45
 10
9.5
 20
0.29
 30
0.0
 11
9.5
 21
-0.5
 31
0.0
  0
ARC
  8
Capteurs-PCB45
 10
9.0
 20
-0.5
 30
0.0
 40
0.5
 50
-90.0
 51
0.0
  0
LINE
  8
Capteurs-PCB45
 10
9.0
 20
-1.0
 30
0.0
 11
7.0
 21
-1.0
 31
0.0
  0
ARC
  8
Capteurs-PCB45
 10
7.0
 20
-0.5
 30
0.0
 40
0.5
 50
180.000000000001
 51
270.000000000001
  0
LINE
  8
Capteurs-PCB45
 10
6.5
 20
-0.5
 30
0.0
 11
6.4999999999998
 21
-0.2
 31
0.0
  0
LINE
  8
Capteurs-PCB45
 10
6.4999999999998
 20
-0.2
 30
0.0
 11
7.5
 21
-0.2
 31
0.0
  0
ARC
  8
Capteurs-PCB45
 10
7.5
 20
0.3
 30
0.0
 40
0.5
 50
270.0
 51
450.0
  0
LINE
  8
Capteurs-PCB45
 10
7.5
 20
0.8
 30
0.0
 11
6.5
 21
0.8
 31
0.0
  0
LINE
  8
Capteurs-PCB45
 10
6.5
 20
0.8
 30
0.0
 11
6.5
 21
1.0
 31
0.0
  0
ARC
  8
Capteurs-PCB45
 10
6.0
 20
1.0
 30
0.0
 40
0.5
 50
360.0
 51
540.0
  0
LINE
  8
Capteurs-PCB45
 10
5.5
 20
1.0
 30
0.0
 11
-0.00000000003
 21
1.0000000018188
 31
0.0
  0
LINE
  8
Capteurs-PCB45
 10
-0.00000000003
 20
1.0000000018188
 30
0.0
 11
-5.5
 21
1.0
 31
0.0
  0
ARC
  8
Capteurs-PCB45
 10
-6.0
 20
1.0
 30
0.0
 40
0.5
 50
0.0
 51
180.0
  0
LINE
  8
Capteurs-PCB45
 10
-6.5
 20
1.0
 30
0.0
 11
-6.5
 21
0.8
 31
0.0
  0
LINE
  8
Capteurs-PCB45
 10
-6.5
 20
0.8
 30
0.0
 11
-7.5
 21
0.8
 31
0.0
  0
ARC
  8
Capteurs-PCB45
 10
-7.5
 20
0.3
 30
0.0
 40
0.5
 50
90.0
 51
270.0
  0
LINE
  8
Capteurs-PCB45
 10
-7.5
 20
-0.2
 30
0.0
 11
-6.4999999999998
 21
-0.2
 31
0.0
  0
LINE
  8
Capteurs-PCB45
 10
-6.4999999999998
 20
-0.2
 30
0.0
 11
-6.5
 21
-0.5
 31
0.0
  0
ARC
  8
Capteurs-PCB45
 10
-7.0
 20
-0.5
 30
0.0
 40
0.5
 50
269.999999999999
 51
359.999999999999
  0
LINE
  8
Capteurs-PCB45
 10
-7.0
 20
-1.0
 30
0.0
 11
-9.0
 21
-1.0
 31
0.0
  0
ARC
  8
Capteurs-PCB45
 10
-9.0
 20
-0.5
 30
0.0
 40
0.5
 50
180.0
 51
270.0
  0
LINE
  8
Capteurs-PCB45
 10
-9.5
 20
-0.5
 30
0.0
 11
-9.5
 21
0.29
 31
0.0
  0
ARC
  8
Capteurs-PCB45
 10
-9.855
 20
0.645
 30
0.0
 40
0.5020458146424
 50
315.0
 51
494.999999999999
  0
LINE
  8
Capteurs-PCB45
 10
-10.21
 20
1.0
 30
0.0
 11
-11.0
 21
1.0
 31
0.0
  0
LINE
  8
Capteurs-PCB45
 10
-11.0
 20
1.0
 30
0.0
 11
-29.5
 21
1.0
 31
0.0
  0
ARC
  8
Capteurs-PCB45
 10
-30.0
 20
1.0
 30
0.0
 40
0.5
 50
0.0
 51
180.0
  0
LINE
  8
Capteurs-PCB45
 10
-30.5
 20
1.0
 30
0.0
 11
-30.5
 21
0.8
 31
0.0
  0
LINE
  8
Capteurs-PCB45
 10
-30.5
 20
0.8
 30
0.0
 11
-31.5
 21
0.8
 31
0.0
  0
ARC
  8
Capteurs-PCB45
 10
-31.5
 20
0.3
 30
0.0
 40
0.5
 50
90.0
 51
270.0
  0
LINE
  8
Capteurs-PCB45
 10
-31.5
 20
-0.2
 30
0.0
 11
-30.4999999999998
 21
-0.2
 31
0.0
  0
LINE
  8
Capteurs-PCB45
 10
-30.4999999999998
 20
-0.2
 30
0.0
 11
-30.5
 21
-0.5
 31
0.0
  0
ARC
  8
Capteurs-PCB45
 10
-31.0
 20
-0.5
 30
0.0
 40
0.5
 50
-90.0
 51
0.0
  0
LINE
  8
Capteurs-PCB45
 10
-31.0
 20
-1.0
 30
0.0
 11
-33.0
 21
-1.0
 31
0.0
  0
ARC
  8
Capteurs-PCB45
 10
-33.0
 20
-0.5
 30
0.0
 40
0.5
 50
180.0
 51
270.0
  0
LINE
  8
Capteurs-PCB45
 10
-33.5
 20
-0.5
 30
0.0
 11
-33.5
 21
0.29
 31
0.0
  0
ARC
  8
Capteurs-PCB45
 10
-33.855
 20
0.645
 30
0.0
 40
0.5020458146424
 50
315.000000000001
 51
494.999999999999
  0
LINE
  8
Capteurs-PCB45
 10
-34.21
 20
1.0
 30
0.0
 11
-35.0
 21
1.0
 31
0.0
  0
LINE
  8
Capteurs-PCB45
 10
-35.0
 20
1.0
 30
0.0
 11
-36.0
 21
1.0
 31
0.0
  0
LINE
  8
Capteurs-PCB45
 10
-36.0
 20
1.0
 30
0.0
 11
-36.0
 21
2.0
 31
0.0
  0
LINE
  8
Capteurs-PCB45
 10
-36.0
 20
2.0
 30
0.0
 11
-34.0
 21
4.0
 31
0.0
  0
LINE
  8
Capteurs-PCB45
 10
-34.0
 20
4.0
 30
0.0
 11
-34.0
 21
10.0
 31
0.0
  0
LINE
  8
Capteurs-PCB45
 10
-34.0
 20
10.0
 30
0.0
 11
-36.0
 21
12.0
 31
0.0
  0
LINE
  8
Capteurs-PCB45
 10
-36.0
 20
12.0
 30
0.0
 11
-36.0
 21
14.5
 31
0.0
  0
LINE
  8
Capteurs-PCB45
 10
-36.0
 20
14.5
 30
0.0
 11
-36.0
 21
20.0
 31
0.0
  0
LINE
  8
Capteurs-PCB45
 10
-36.0
 20
20.0
 30
0.0
 11
-35.0
 21
20.0
 31
0.0
  0
LINE
  8
Capteurs-PCB45
 10
-35.0
 20
20.0
 30
0.0
 11
-34.21
 21
20.0
 31
0.0
  0
ARC
  8
Capteurs-PCB45
 10
-33.855
 20
20.355
 30
0.0
 40
0.5020458146424
 50
225.000000000001
 51
404.999999999999
  0
LINE
  8
Capteurs-PCB45
 10
-33.5
 20
20.71
 30
0.0
 11
-33.5
 21
21.5
 31
0.0
  0
ARC
  8
Capteurs-PCB45
 10
-33.0
 20
21.5
 30
0.0
 40
0.5
 50
90.0
 51
180.0
  0
LINE
  8
Capteurs-PCB45
 10
-33.0
 20
22.0
 30
0.0
 11
-31.0
 21
22.0
 31
0.0
  0
ARC
  8
Capteurs-PCB45
 10
-31.0
 20
21.5
 30
0.0
 40
0.5
 50
0.0
 51
90.0
  0
LINE
  8
Capteurs-PCB45
 10
-30.5
 20
21.5
 30
0.0
 11
-30.4999999999998
 21
21.2
 31
0.0
  0
LINE
  8
Capteurs-PCB45
 10
-30.4999999999998
 20
21.2
 30
0.0
 11
-31.5
 21
21.2
 31
0.0
  0
ARC
  8
Capteurs-PCB45
 10
-31.5
 20
20.7
 30
0.0
 40
0.5
 50
90.0
 51
270.0
  0
LINE
  8
Capteurs-PCB45
 10
-31.5
 20
20.2
 30
0.0
 11
-30.5
 21
20.2
 31
0.0
  0
LINE
  8
Capteurs-PCB45
 10
-30.5
 20
20.2
 30
0.0
 11
-30.5
 21
14.0
 31
0.0
  0
ARC
  8
Capteurs-PCB45
 10
-30.0
 20
14.0
 30
0.0
 40
0.5
 50
180.0
 51
360.0
  0
LINE
  8
Capteurs-PCB45
 10
-29.5
 20
14.0
 30
0.0
 11
-15.0
 21
14.0
 31
0.0
  0
LINE
  8
Capteurs-PCB45
 10
-15.0
 20
14.0
 30
0.0
 11
-15.0
 21
13.21
 31
0.0
  0
ARC
  8
Capteurs-PCB45
 10
-14.645
 20
12.855
 30
0.0
 40
0.5020458146424
 50
135.0
 51
315.0
  0
LINE
  8
Capteurs-PCB45
 10
-14.29
 20
12.5
 30
0.0
 11
-11.71
 21
12.5
 31
0.0
  0
ARC
  8
Capteurs-PCB45
 10
-11.355
 20
12.855
 30
0.0
 40
0.5020458146424
 50
225.0
 51
405.0
  0
LINE
  8
Capteurs-PCB45
 10
-11.0
 20
13.21
 30
0.0
 11
-11.0
 21
14.0
 31
0.0
  0
LINE
  8
Capteurs-PCB45
 10
-11.0
 20
14.0
 30
0.0
 11
-6.4807406984079
 21
14.0
 31
0.0
  0
ARC
  8
Capteurs-PCB45
 10
-0.0000000000001
 20
8.5
 30
0.0
 40
8.5
 50
120.0
 51
139.679784930029
  0
ARC
  8
Capteurs-PCB45
 10
0.0
 20
8.5
 30
0.0
 40
8.5
 50
110.667316493512
 51
120.0
  0
LINE
  8
Capteurs-PCB45
 10
-3.0
 20
16.4529868602934
 30
0.0
 11
-3.0
 21
20.0
 31
0.0
  0
LINE
  8
Capteurs-PCB45
 10
-3.0
 20
20.0
 30
0.0
 11
-2.21
 21
20.0
 31
0.0
  0
ARC
  8
Capteurs-PCB45
 10
-1.855
 20
20.355
 30
0.0
 40
0.5020458146424
 50
225.0
 51
405.0
  0
LINE
  8
Capteurs-PCB45
 10
-1.5
 20
20.71
 30
0.0
 11
-1.5
 21
21.5
 31
0.0
  0
ARC
  8
Capteurs-PCB45
 10
-1.0
 20
21.5
 30
0.0
 40
0.5
 50
90.0
 51
180.0
  0
LINE
  8
Capteurs-PCB45
 10
-1.0
 20
22.0
 30
0.0
 11
1.0
 21
22.0
 31
0.0
  0
ARC
  8
Capteurs-PCB45
 10
1.0
 20
21.5
 30
0.0
 40
0.5
 50
0.0
 51
90.0
  0
LINE
  8
Capteurs-PCB45
 10
1.5
 20
21.5
 30
0.0
 11
1.5000000000002
 21
21.2
 31
0.0
  0
LINE
  8
Capteurs-PCB45
 10
1.5000000000002
 20
21.2
 30
0.0
 11
0.5
 21
21.2
 31
0.0
  0
ARC
  8
Capteurs-PCB45
 10
0.5
 20
20.7
 30
0.0
 40
0.5
 50
90.0
 51
270.0
  0
LINE
  8
Capteurs-PCB45
 10
0.5
 20
20.2
 30
0.0
 11
1.5
 21
20.2
 31
0.0
  0
LINE
  8
Capteurs-PCB45
 10
1.5
 20
20.2
 30
0.0
 11
1.5
 21
20.0
 31
0.0
  0
ARC
  8
Capteurs-PCB45
 10
2.0
 20
20.0
 30
0.0
 40
0.5
 50
180.0
 51
360.0
  0
LINE
  8
Capteurs-PCB45
 10
2.5
 20
20.0
 30
0.0
 11
3.5
 21
20.0
 31
0.0
  0
LINE
  8
Capteurs-PCB45
 10
3.5
 20
20.0
 30
0.0
 11
3.5
 21
19.0
 31
0.0
  0
LINE
  8
Capteurs-PCB45
 10
3.5
 20
19.0
 30
0.0
 11
3.0
 21
18.5
 31
0.0
  0
LINE
  8
Capteurs-PCB45
 10
3.0
 20
18.5
 30
0.0
 11
3.0
 21
16.4529868602934
 31
0.0
  0
ARC
  8
Capteurs-PCB45
 10
0.0
 20
8.5
 30
0.0
 40
8.5
 50
60.0000000000002
 51
69.3326835064876
  0
ARC
  8
Capteurs-PCB45
 10
0.0000000000001
 20
8.5
 30
0.0
 40
8.5
 50
40.3202150699711
 51
60.0000000000004
  0
LINE
  8
Capteurs-PCB45
 10
6.4807406984079
 20
14.0
 30
0.0
 11
11.0
 21
14.0
 31
0.0
  0
LINE
  8
Capteurs-PCB45
 10
11.0
 20
14.0
 30
0.0
 11
11.0
 21
13.21
 31
0.0
  0
ARC
  8
Capteurs-PCB45
 10
11.355
 20
12.855
 30
0.0
 40
0.5020458146424
 50
135.0
 51
315.0
  0
LINE
  8
Capteurs-PCB45
 10
11.71
 20
12.5
 30
0.0
 11
14.29
 21
12.5
 31
0.0
  0
ARC
  8
Capteurs-PCB45
 10
14.645
 20
12.855
 30
0.0
 40
0.5020458146424
 50
225.0
 51
405.0
  0
LINE
  8
Capteurs-PCB45
 10
15.0
 20
13.21
 30
0.0
 11
15.0
 21
14.0
 31
0.0
  0
LINE
  8
Capteurs-PCB45
 10
15.0
 20
14.0
 30
0.0
 11
27.5
 21
14.0
 31
0.0
  0
LINE
  8
Capteurs-PCB45
 10
27.5
 20
14.0
 30
0.0
 11
29.0
 21
15.5
 31
0.0
  0
LINE
  8
Capteurs-PCB45
 10
29.0
 20
15.5
 30
0.0
 11
29.0
 21
20.0
 31
0.0
  0
LINE
  8
Capteurs-PCB45
 10
29.0
 20
20.0
 30
0.0
 11
29.79
 21
20.0
 31
0.0
  0
ARC
  8
Capteurs-PCB45
 10
30.145
 20
20.355
 30
0.0
 40
0.5020458146424
 50
225.0
 51
405.0
  0
LINE
  8
Capteurs-PCB45
 10
30.5
 20
20.71
 30
0.0
 11
30.5
 21
21.5
 31
0.0
  0
ARC
  8
Capteurs-PCB45
 10
31.0
 20
21.5
 30
0.0
 40
0.5
 50
90.0
 51
180.0
  0
LINE
  8
Capteurs-PCB45
 10
31.0
 20
22.0
 30
0.0
 11
33.0
 21
22.0
 31
0.0
  0
ARC
  8
Capteurs-PCB45
 10
33.0
 20
21.5
 30
0.0
 40
0.5
 50
0.0
 51
90.0
  0
LINE
  8
Capteurs-PCB45
 10
33.5
 20
21.5
 30
0.0
 11
33.5000000000002
 21
21.2
 31
0.0
  0
LINE
  8
Capteurs-PCB45
 10
33.5000000000002
 20
21.2
 30
0.0
 11
32.5
 21
21.2
 31
0.0
  0
ARC
  8
Capteurs-PCB45
 10
32.5
 20
20.7
 30
0.0
 40
0.5
 50
90.0
 51
270.0
  0
LINE
  8
Capteurs-PCB45
 10
32.5
 20
20.2
 30
0.0
 11
33.5
 21
20.2
 31
0.0
  0
LINE
  8
Capteurs-PCB45
 10
33.5
 20
20.2
 30
0.0
 11
33.5
 21
14.0
 31
0.0
  0
LINE
  8
Capteurs-PCB45
 10
33.5
 20
14.0
 30
0.0
 11
33.5
 21
9.0
 31
0.0
  0
LINE
  8
Capteurs-PCB45
 10
33.5
 20
9.0
 30
0.0
 11
42.5
 21
9.0
 31
0.0
  0
LINE
  8
Capteurs-PCB45
 10
42.5
 20
9.0
 30
0.0
 11
42.5
 21
8.0
 31
0.0
  0
LINE
  8
Capteurs-PCB45
 10
42.5
 20
8.0
 30
0.0
 11
41.0
 21
6.5
 31
0.0
  0
LINE
  8
Capteurs-PCB45
 10
41.0
 20
6.5
 30
0.0
 11
41.0
 21
3.5
 31
0.0
  0
LINE
  8
Capteurs-PCB45
 10
41.0
 20
3.5
 30
0.0
 11
42.5
 21
2.0
 31
0.0
  0
LINE
  8
Capteurs-PCB45
 10
42.5
 20
2.0
 30
0.0
 11
42.5
 21
1.0
 31
0.0
  0
LINE
  8
Capteurs-PCB45
 10
42.5
 20
1.0
 30
0.0
 11
41.71
 21
1.0
 31
0.0
  0
ARC
  8
Capteurs-PCB45
 10
41.355
 20
0.645
 30
0.0
 40
0.5020458146425
 50
45.0000000000009
 51
224.999999999999
  0
LINE
  8
Capteurs-PCB45
 10
41.0
 20
0.29
 30
0.0
 11
41.0
 21
-0.5
 31
0.0
  0
ARC
  8
Capteurs-PCB45
 10
40.5
 20
-0.5
 30
0.0
 40
0.5
 50
270.0
 51
360.0
  0
LINE
  8
Capteurs-PCB45
 10
40.5
 20
-1.0
 30
0.0
 11
38.5
 21
-1.0
 31
0.0
  0
ARC
  8
Capteurs-PCB45
 10
38.5
 20
-0.5
 30
0.0
 40
0.5
 50
180.0
 51
270.0
  0
LINE
  8
Capteurs-PCB45
 10
38.0
 20
-0.5
 30
0.0
 11
37.9999999999998
 21
-0.2
 31
0.0
  0
LINE
  8
Capteurs-PCB45
 10
37.9999999999998
 20
-0.2
 30
0.0
 11
39.0
 21
-0.2
 31
0.0
  0
ARC
  8
Capteurs-PCB45
 10
39.0
 20
0.3
 30
0.0
 40
0.5
 50
270.0
 51
450.0
  0
LINE
  8
Capteurs-PCB45
 10
39.0
 20
0.8
 30
0.0
 11
38.0
 21
0.8
 31
0.0
  0
LINE
  8
Capteurs-PCB45
 10
38.0
 20
0.8
 30
0.0
 11
38.0
 21
1.0
 31
0.0
  0
ARC
  8
Capteurs-PCB45
 10
37.5
 20
1.0
 30
0.0
 40
0.5
 50
360.0
 51
540.0
  0
LINE
  8
Capteurs-PCB45
 10
37.0
 20
1.0
 30
0.0
 11
11.0
 21
1.0
 31
0.0
  0
LINE
  8
Capteurs-PCB45
 10
11.0
 20
1.0
 30
0.0
 11
10.21
 21
1.0
 31
0.0
  0
LINE
  8
Capteurs-PCB45
 10
10.21
 20
1.0
 30
0.0
 11
11.0
 21
1.0
 31
0.0
  0
ENDSEC
  0
EOF
