  0
SECTION
  2
HEADER
  9
$ACADVER
  1
AC1009
  9
$EXTMAX
 10
46.5
 20
22.0
 30
0.0
  9
$EXTMIN
 10
-36.0
 20
-1.0
 30
0.0
  9
$INSUNITS
 70
     4
  9
$LUNITS
 70
     2
  9
$LUPREC
 70
     4
  9
$MEASUREMENT
 70
     1
  0
ENDSEC
  0
SECTION
  2
TABLES
  0
TABLE
  2
LAYER
 70
     1
  0
LAYER
  2
0
 70
     0
 62
     7
  6
Continuous
  0
LAYER
  2
Calque1
 70
     0
 62
    70
  6
Continuous
  0
ENDTAB
  0
TABLE
  2
APPID
 70
     1
  0
APPID
  2
ACAD
 70
     0
  0
ENDTAB
  0
ENDSEC
  0
SECTION
  2
ENTITIES
  0
CIRCLE
  8
Calque1
 10
0.0
 20
8.5
 30
0.0
 40
3.5
  0
POLYLINE
  8
Calque1
 66
     1
 10
0.0
 20
0.0
 30
0.0
 70
     1
  0
VERTEX
  8
Calque1
 10
-35.0
 20
13.29
 42
0.0
  0
VERTEX
  8
Calque1
 10
-35.0
 20
13.21
 42
1.0
  0
VERTEX
  8
Calque1
 10
-34.29
 20
12.5
 42
0.0
  0
VERTEX
  8
Calque1
 10
-32.21
 20
12.5
 42
1.0
  0
VERTEX
  8
Calque1
 10
-31.5
 20
13.21
 42
0.0
  0
VERTEX
  8
Calque1
 10
-31.5
 20
13.29
 42
1.0
  0
VERTEX
  8
Calque1
 10
-32.21
 20
14.0
 42
0.0
  0
VERTEX
  8
Calque1
 10
-34.29
 20
14.0
 42
1.0
  0
SEQEND
  0
POLYLINE
  8
Calque1
 66
     1
 10
0.0
 20
0.0
 30
0.0
 70
     1
  0
VERTEX
  8
Calque1
 10
29.0
 20
13.21
 42
1.0
  0
VERTEX
  8
Calque1
 10
29.71
 20
12.5
 42
0.0
  0
VERTEX
  8
Calque1
 10
31.79
 20
12.5
 42
1.0
  0
VERTEX
  8
Calque1
 10
32.5
 20
13.21
 42
0.0
  0
VERTEX
  8
Calque1
 10
32.5
 20
13.29
 42
1.0
  0
VERTEX
  8
Calque1
 10
31.79
 20
14.0
 42
0.0
  0
VERTEX
  8
Calque1
 10
29.71
 20
14.0
 42
1.0
  0
VERTEX
  8
Calque1
 10
29.0
 20
13.29
 42
0.0
  0
SEQEND
  0
POLYLINE
  8
Calque1
 66
     1
 10
0.0
 20
0.0
 30
0.0
 70
     1
  0
VERTEX
  8
Calque1
 10
-2.4591970312796
 20
5.1571195113601
 42
0.3282044915849
  0
VERTEX
  8
Calque1
 10
2.4591970312796
 20
5.1571195113601
 42
-0.9996623033904
  0
VERTEX
  8
Calque1
 10
3.467049002664
 20
3.7880928227052
 42
-0.3282597545704
  0
VERTEX
  8
Calque1
 10
-3.467049002664
 20
3.7880928227052
 42
-0.9996623033904
  0
SEQEND
  0
POLYLINE
  8
Calque1
 66
     1
 10
0.0
 20
0.0
 30
0.0
 70
     1
  0
VERTEX
  8
Calque1
 10
4.1246179406173
 20
8.0417131423205
 42
0.3282044915849
  0
VERTEX
  8
Calque1
 10
1.6654209093377
 20
12.3011673463193
 42
-0.9996623033904
  0
VERTEX
  8
Calque1
 10
2.3471068144795
 20
13.8585061011199
 42
-0.3282597545704
  0
VERTEX
  8
Calque1
 10
5.8141558171435
 20
7.8534010761749
 42
-0.9996623033904
  0
SEQEND
  0
POLYLINE
  8
Calque1
 66
     1
 10
0.0
 20
0.0
 30
0.0
 70
     1
  0
VERTEX
  8
Calque1
 10
-1.6654209093377
 20
12.3011673463193
 42
0.3282044915849
  0
VERTEX
  8
Calque1
 10
-4.1246179406173
 20
8.0417131423205
 42
-0.9996623033904
  0
VERTEX
  8
Calque1
 10
-5.8141558171435
 20
7.8534010761749
 42
-0.3282597545704
  0
VERTEX
  8
Calque1
 10
-2.3471068144795
 20
13.8585061011199
 42
-0.9996623033904
  0
SEQEND
  0
POLYLINE
  8
Calque1
 66
     1
 10
0.0
 20
0.0
 30
0.0
 70
     1
  0
VERTEX
  8
Calque1
 10
-1.0
 20
19.0
 42
0.1316524975874
  0
VERTEX
  8
Calque1
 10
-1.5
 20
18.8660254037844
 42
0.5773502691896
  0
VERTEX
  8
Calque1
 10
-1.5
 20
17.1339745962156
 42
0.1316524975874
  0
VERTEX
  8
Calque1
 10
-1.0
 20
17.0
 42
0.0
  0
VERTEX
  8
Calque1
 10
1.0
 20
17.0
 42
0.4142135623731
  0
VERTEX
  8
Calque1
 10
2.0
 20
18.0
 42
0.4142135623731
  0
VERTEX
  8
Calque1
 10
1.0
 20
19.0
 42
0.0
  0
SEQEND
  0
POLYLINE
  8
Calque1
 66
     1
 10
0.0
 20
0.0
 30
0.0
 70
     1
  0
VERTEX
  8
Calque1
 10
29.5
 20
17.5
 42
0.0
  0
VERTEX
  8
Calque1
 10
29.50000000001
 20
16.5000000066298
 42
0.4142135685454
  0
VERTEX
  8
Calque1
 10
30.75
 20
15.25
 42
0.4142135623731
  0
VERTEX
  8
Calque1
 10
32.0
 20
16.5
 42
0.0
  0
VERTEX
  8
Calque1
 10
32.0000000000399
 20
17.4999999999442
 42
0.1316525018887
  0
VERTEX
  8
Calque1
 10
31.8325319999976
 20
18.124999999999
 42
0.5773502691896
  0
VERTEX
  8
Calque1
 10
29.6674680000203
 20
18.1250000000012
 42
0.131652491517
  0
SEQEND
  0
CIRCLE
  8
Calque1
 10
12.9150261324
 20
10.15
 30
0.0
 40
1.0
  0
CIRCLE
  8
Calque1
 10
-12.9150261324
 20
10.15
 30
0.0
 40
1.0
  0
POLYLINE
  8
Calque1
 66
     1
 10
0.0
 20
0.0
 30
0.0
 70
     1
  0
VERTEX
  8
Calque1
 10
-19.19075808055
 20
12.5
 42
0.0
  0
VERTEX
  8
Calque1
 10
-19.5
 20
12.5
 42
0.0
  0
VERTEX
  8
Calque1
 10
-27.5
 20
12.5
 42
0.4142135623731
  0
VERTEX
  8
Calque1
 10
-32.0
 20
8.0
 42
0.0
  0
VERTEX
  8
Calque1
 10
-32.0
 20
7.0
 42
0.4142135623731
  0
VERTEX
  8
Calque1
 10
-27.5
 20
2.5
 42
0.0
  0
VERTEX
  8
Calque1
 10
-25.5
 20
2.5
 42
0.1622776601684
  0
VERTEX
  8
Calque1
 10
-24.0
 20
3.0
 42
0.0
  0
VERTEX
  8
Calque1
 10
-16.5
 20
10.5
 42
0.3156039623922
  0
VERTEX
  8
Calque1
 10
-16.5
 20
11.3561387814126
 42
0.1841767057923
  0
SEQEND
  0
POLYLINE
  8
Calque1
 66
     1
 10
0.0
 20
0.0
 30
0.0
 70
     1
  0
VERTEX
  8
Calque1
 10
-10.5801294359329
 20
8.8591939759064
 42
0.0
  0
VERTEX
  8
Calque1
 10
-10.5720347994412
 20
8.8661385101441
 42
-0.3214507105806
  0
VERTEX
  8
Calque1
 10
-8.482285438676
 20
9.0484831235548
 42
-0.1366575884084
  0
VERTEX
  8
Calque1
 10
-7.8139497845495
 20
8.3511431807101
 42
0.0
  0
VERTEX
  8
Calque1
 10
-7.1558825121031
 20
6.2542605954881
 42
0.085055198702
  0
VERTEX
  8
Calque1
 10
-6.0
 20
4.0
 42
-0.535183758488
  0
VERTEX
  8
Calque1
 10
-6.9250618190361
 20
2.5
 42
-0.0176960445992
  0
VERTEX
  8
Calque1
 10
-7.0
 20
2.5
 42
0.0
  0
VERTEX
  8
Calque1
 10
-19.0
 20
2.5
 42
0.0
  0
VERTEX
  8
Calque1
 10
-19.0749381809639
 20
2.5
 42
-0.535183758488
  0
VERTEX
  8
Calque1
 10
-20.0
 20
4.0
 42
0.0
  0
VERTEX
  8
Calque1
 10
-16.0
 20
8.0
 42
-0.2778489838179
  0
VERTEX
  8
Calque1
 10
-14.1907612146173
 20
8.0
 42
0.3215958621963
  0
VERTEX
  8
Calque1
 10
-11.287200022065
 20
8.2525854025776
 42
0.0
  0
SEQEND
  0
POLYLINE
  8
Calque1
 66
     1
 10
0.0
 20
0.0
 30
0.0
 70
     1
  0
VERTEX
  8
Calque1
 10
10.5801294359329
 20
8.8591939759064
 42
0.0
  0
VERTEX
  8
Calque1
 10
10.5720347994412
 20
8.8661385101441
 42
0.3214507105806
  0
VERTEX
  8
Calque1
 10
8.482285438676
 20
9.0484831235549
 42
0.1366575884084
  0
VERTEX
  8
Calque1
 10
7.8139497845495
 20
8.3511431807101
 42
0.0
  0
VERTEX
  8
Calque1
 10
7.1558825121031
 20
6.2542605954881
 42
-0.085055198702
  0
VERTEX
  8
Calque1
 10
6.0
 20
4.0
 42
0.535183758488
  0
VERTEX
  8
Calque1
 10
6.9250618190361
 20
2.5
 42
0.0176960445992
  0
VERTEX
  8
Calque1
 10
7.0
 20
2.5
 42
0.0
  0
VERTEX
  8
Calque1
 10
19.0
 20
2.5
 42
0.0
  0
VERTEX
  8
Calque1
 10
19.0749381809639
 20
2.5
 42
0.535183758488
  0
VERTEX
  8
Calque1
 10
20.0
 20
4.0
 42
0.0
  0
VERTEX
  8
Calque1
 10
16.0
 20
8.0
 42
0.2778489838179
  0
VERTEX
  8
Calque1
 10
14.1907612146173
 20
8.0
 42
-0.3215958621963
  0
VERTEX
  8
Calque1
 10
11.287200022065
 20
8.2525854025776
 42
0.0
  0
SEQEND
  0
POLYLINE
  8
Calque1
 66
     1
 10
0.0
 20
0.0
 30
0.0
 70
     1
  0
VERTEX
  8
Calque1
 10
33.057253278322
 20
6.057253278322
 42
-0.1862730236928
  0
VERTEX
  8
Calque1
 10
35.2569956289038
 20
7.0
 42
0.0
  0
VERTEX
  8
Calque1
 10
35.5
 20
7.0
 42
0.0
  0
VERTEX
  8
Calque1
 10
42.5
 20
7.0
 42
0.0
  0
VERTEX
  8
Calque1
 10
43.0
 20
6.5
 42
0.0
  0
VERTEX
  8
Calque1
 10
43.0
 20
3.5
 42
0.0
  0
VERTEX
  8
Calque1
 10
42.0
 20
2.5
 42
0.0
  0
VERTEX
  8
Calque1
 10
32.0
 20
2.5
 42
0.0
  0
VERTEX
  8
Calque1
 10
31.9250618190361
 20
2.5
 42
-0.535183758488
  0
VERTEX
  8
Calque1
 10
31.0
 20
4.0
 42
0.0
  0
VERTEX
  8
Calque1
 10
33.0000000000001
 20
6.0000000000001
 42
-0.0060908822251
  0
SEQEND
  0
POLYLINE
  8
Calque1
 66
     1
 10
0.0
 20
0.0
 30
0.0
 70
     1
  0
VERTEX
  8
Calque1
 10
1.0
 20
20.2
 42
0.0
  0
VERTEX
  8
Calque1
 10
1.0
 20
20.0
 42
1.0
  0
VERTEX
  8
Calque1
 10
2.0
 20
20.0
 42
0.0
  0
VERTEX
  8
Calque1
 10
3.0
 20
20.0
 42
0.0
  0
VERTEX
  8
Calque1
 10
3.0
 20
18.5
 42
0.0
  0
VERTEX
  8
Calque1
 10
3.0
 20
16.4529868602934
 42
-0.0407440374526
  0
VERTEX
  8
Calque1
 10
4.25
 20
15.8612159321677
 42
-0.0860809383131
  0
VERTEX
  8
Calque1
 10
6.4807406984079
 20
14.0
 42
0.0
  0
VERTEX
  8
Calque1
 10
11.0
 20
14.0
 42
0.0
  0
VERTEX
  8
Calque1
 10
11.0
 20
13.21
 42
1.0
  0
VERTEX
  8
Calque1
 10
11.71
 20
12.5
 42
0.0
  0
VERTEX
  8
Calque1
 10
14.29
 20
12.5
 42
1.0
  0
VERTEX
  8
Calque1
 10
15.0
 20
13.21
 42
0.0
  0
VERTEX
  8
Calque1
 10
15.0
 20
14.0
 42
0.0
  0
VERTEX
  8
Calque1
 10
27.29
 20
14.0
 42
1.0
  0
VERTEX
  8
Calque1
 10
28.0
 20
14.71
 42
0.0
  0
VERTEX
  8
Calque1
 10
28.0
 20
20.0
 42
0.0
  0
VERTEX
  8
Calque1
 10
28.0
 20
21.5
 42
-0.4142135623731
  0
VERTEX
  8
Calque1
 10
28.5
 20
22.0
 42
0.0
  0
VERTEX
  8
Calque1
 10
30.5
 20
22.0
 42
-0.4142135623731
  0
VERTEX
  8
Calque1
 10
31.0
 20
21.5
 42
0.0
  0
VERTEX
  8
Calque1
 10
31.0000000000002
 20
21.2
 42
0.0
  0
VERTEX
  8
Calque1
 10
30.0
 20
21.2
 42
1.0
  0
VERTEX
  8
Calque1
 10
30.0
 20
20.2
 42
0.0
  0
VERTEX
  8
Calque1
 10
31.0
 20
20.2
 42
0.0
  0
VERTEX
  8
Calque1
 10
31.0
 20
20.0
 42
1.0
  0
VERTEX
  8
Calque1
 10
32.0
 20
20.0
 42
0.0
  0
VERTEX
  8
Calque1
 10
33.5
 20
20.0
 42
0.0
  0
VERTEX
  8
Calque1
 10
33.5
 20
14.5
 42
0.0
  0
VERTEX
  8
Calque1
 10
33.5
 20
9.0
 42
1.0
  0
VERTEX
  8
Calque1
 10
34.5
 20
9.0
 42
0.0
  0
VERTEX
  8
Calque1
 10
46.5
 20
9.0
 42
0.0
  0
VERTEX
  8
Calque1
 10
46.5
 20
8.0
 42
0.0
  0
VERTEX
  8
Calque1
 10
45.0
 20
6.5
 42
0.0
  0
VERTEX
  8
Calque1
 10
45.0
 20
3.5
 42
0.0
  0
VERTEX
  8
Calque1
 10
46.5
 20
2.0
 42
0.0
  0
VERTEX
  8
Calque1
 10
46.5
 20
1.0
 42
0.0
  0
VERTEX
  8
Calque1
 10
45.0
 20
1.0
 42
1.0
  0
VERTEX
  8
Calque1
 10
44.0
 20
1.0
 42
0.0
  0
VERTEX
  8
Calque1
 10
44.0
 20
0.8
 42
0.0
  0
VERTEX
  8
Calque1
 10
43.0
 20
0.8
 42
1.0
  0
VERTEX
  8
Calque1
 10
43.0
 20
-0.2
 42
0.0
  0
VERTEX
  8
Calque1
 10
44.0000000000002
 20
-0.2
 42
0.0
  0
VERTEX
  8
Calque1
 10
44.0
 20
-0.5
 42
-0.4142135623731
  0
VERTEX
  8
Calque1
 10
43.5
 20
-1.0
 42
0.0
  0
VERTEX
  8
Calque1
 10
41.5
 20
-1.0
 42
-0.4142135623731
  0
VERTEX
  8
Calque1
 10
41.0
 20
-0.5
 42
0.0
  0
VERTEX
  8
Calque1
 10
41.0
 20
0.29
 42
1.0
  0
VERTEX
  8
Calque1
 10
40.29
 20
1.0
 42
0.0
  0
VERTEX
  8
Calque1
 10
10.21
 20
1.0
 42
1.0
  0
VERTEX
  8
Calque1
 10
9.5
 20
0.29
 42
0.0
  0
VERTEX
  8
Calque1
 10
9.5
 20
-0.5
 42
-0.4142135623731
  0
VERTEX
  8
Calque1
 10
9.0
 20
-1.0
 42
0.0
  0
VERTEX
  8
Calque1
 10
7.0
 20
-1.0
 42
-0.4142135623731
  0
VERTEX
  8
Calque1
 10
6.5
 20
-0.5
 42
0.0
  0
VERTEX
  8
Calque1
 10
6.4999999999998
 20
-0.2
 42
0.0
  0
VERTEX
  8
Calque1
 10
7.5
 20
-0.2
 42
1.0
  0
VERTEX
  8
Calque1
 10
7.5
 20
0.8
 42
0.0
  0
VERTEX
  8
Calque1
 10
6.5
 20
0.8
 42
0.0
  0
VERTEX
  8
Calque1
 10
6.5
 20
1.0
 42
1.0
  0
VERTEX
  8
Calque1
 10
5.5
 20
1.0
 42
0.0
  0
VERTEX
  8
Calque1
 10
-0.00000000003
 20
1.0000000018188
 42
0.0
  0
VERTEX
  8
Calque1
 10
-5.5
 20
1.0
 42
1.0
  0
VERTEX
  8
Calque1
 10
-6.5
 20
1.0
 42
0.0
  0
VERTEX
  8
Calque1
 10
-6.5
 20
0.8
 42
0.0
  0
VERTEX
  8
Calque1
 10
-7.5
 20
0.8
 42
1.0
  0
VERTEX
  8
Calque1
 10
-7.5
 20
-0.2
 42
0.0
  0
VERTEX
  8
Calque1
 10
-6.4999999999998
 20
-0.2
 42
0.0
  0
VERTEX
  8
Calque1
 10
-6.5
 20
-0.5
 42
-0.4142135623731
  0
VERTEX
  8
Calque1
 10
-7.0
 20
-1.0
 42
0.0
  0
VERTEX
  8
Calque1
 10
-9.0
 20
-1.0
 42
-0.4142135623731
  0
VERTEX
  8
Calque1
 10
-9.5
 20
-0.5
 42
0.0
  0
VERTEX
  8
Calque1
 10
-9.5
 20
0.29
 42
1.0
  0
VERTEX
  8
Calque1
 10
-10.21
 20
1.0
 42
0.0
  0
VERTEX
  8
Calque1
 10
-29.79
 20
1.0
 42
1.0
  0
VERTEX
  8
Calque1
 10
-30.5
 20
0.29
 42
0.0
  0
VERTEX
  8
Calque1
 10
-30.5
 20
-0.5
 42
-0.4142135623731
  0
VERTEX
  8
Calque1
 10
-31.0
 20
-1.0
 42
0.0
  0
VERTEX
  8
Calque1
 10
-33.0
 20
-1.0
 42
-0.4142135623731
  0
VERTEX
  8
Calque1
 10
-33.5
 20
-0.5
 42
0.0
  0
VERTEX
  8
Calque1
 10
-33.5000000000002
 20
-0.2
 42
0.0
  0
VERTEX
  8
Calque1
 10
-32.5
 20
-0.2
 42
1.0
  0
VERTEX
  8
Calque1
 10
-32.5
 20
0.8
 42
0.0
  0
VERTEX
  8
Calque1
 10
-33.5
 20
0.8
 42
0.0
  0
VERTEX
  8
Calque1
 10
-33.5
 20
1.0
 42
1.0
  0
VERTEX
  8
Calque1
 10
-34.5
 20
1.0
 42
0.0
  0
VERTEX
  8
Calque1
 10
-36.0
 20
1.0
 42
0.0
  0
VERTEX
  8
Calque1
 10
-36.0
 20
2.0
 42
0.0
  0
VERTEX
  8
Calque1
 10
-34.0
 20
4.0
 42
0.0
  0
VERTEX
  8
Calque1
 10
-34.0
 20
10.0
 42
0.0
  0
VERTEX
  8
Calque1
 10
-36.0
 20
12.0
 42
0.0
  0
VERTEX
  8
Calque1
 10
-36.0
 20
14.5
 42
0.0
  0
VERTEX
  8
Calque1
 10
-36.0
 20
20.0
 42
0.0
  0
VERTEX
  8
Calque1
 10
-34.5
 20
20.0
 42
1.0
  0
VERTEX
  8
Calque1
 10
-33.5
 20
20.0
 42
0.0
  0
VERTEX
  8
Calque1
 10
-33.5
 20
20.2
 42
0.0
  0
VERTEX
  8
Calque1
 10
-32.5
 20
20.2
 42
1.0
  0
VERTEX
  8
Calque1
 10
-32.5
 20
21.2
 42
0.0
  0
VERTEX
  8
Calque1
 10
-33.5000000000002
 20
21.2
 42
0.0
  0
VERTEX
  8
Calque1
 10
-33.5
 20
21.5
 42
-0.4142135623731
  0
VERTEX
  8
Calque1
 10
-33.0
 20
22.0
 42
0.0
  0
VERTEX
  8
Calque1
 10
-31.0
 20
22.0
 42
-0.4142135623731
  0
VERTEX
  8
Calque1
 10
-30.5
 20
21.5
 42
0.0
  0
VERTEX
  8
Calque1
 10
-30.5
 20
14.71
 42
1.0
  0
VERTEX
  8
Calque1
 10
-29.79
 20
14.0
 42
0.0
  0
VERTEX
  8
Calque1
 10
-15.0
 20
14.0
 42
0.0
  0
VERTEX
  8
Calque1
 10
-15.0
 20
13.21
 42
1.0
  0
VERTEX
  8
Calque1
 10
-14.29
 20
12.5
 42
0.0
  0
VERTEX
  8
Calque1
 10
-11.71
 20
12.5
 42
1.0
  0
VERTEX
  8
Calque1
 10
-11.0
 20
13.21
 42
0.0
  0
VERTEX
  8
Calque1
 10
-11.0
 20
14.0
 42
0.0
  0
VERTEX
  8
Calque1
 10
-6.4807406984079
 20
14.0
 42
-0.0860809383131
  0
VERTEX
  8
Calque1
 10
-4.25
 20
15.8612159321677
 42
-0.0407440374526
  0
VERTEX
  8
Calque1
 10
-3.0
 20
16.4529868602934
 42
0.0
  0
VERTEX
  8
Calque1
 10
-3.0
 20
20.0
 42
0.0
  0
VERTEX
  8
Calque1
 10
-2.21
 20
20.0
 42
1.0
  0
VERTEX
  8
Calque1
 10
-1.5
 20
20.71
 42
0.0
  0
VERTEX
  8
Calque1
 10
-1.5
 20
21.5
 42
-0.4142135623731
  0
VERTEX
  8
Calque1
 10
-1.0
 20
22.0
 42
0.0
  0
VERTEX
  8
Calque1
 10
1.0
 20
22.0
 42
-0.4142135623731
  0
VERTEX
  8
Calque1
 10
1.5
 20
21.5
 42
0.0
  0
VERTEX
  8
Calque1
 10
1.5000000000002
 20
21.2
 42
0.0
  0
VERTEX
  8
Calque1
 10
0.5
 20
21.2
 42
1.0
  0
VERTEX
  8
Calque1
 10
0.5
 20
20.2
 42
0.0
  0
SEQEND
  0
POLYLINE
  8
Calque1
 66
     1
 10
0.0
 20
0.0
 30
0.0
 70
     1
  0
VERTEX
  8
Calque1
 10
27.9701798362504
 20
11.5298201637496
 42
0.1893384065294
  0
VERTEX
  8
Calque1
 10
25.7064268850023
 20
12.5
 42
0.0
  0
VERTEX
  8
Calque1
 10
25.4999999999999
 20
12.5
 42
0.0
  0
VERTEX
  8
Calque1
 10
19.5
 20
12.5
 42
0.0
  0
VERTEX
  8
Calque1
 10
19.19075808055
 20
12.5
 42
0.1841767057923
  0
VERTEX
  8
Calque1
 10
16.5
 20
11.3561387814126
 42
0.3156039623922
  0
VERTEX
  8
Calque1
 10
16.5
 20
10.5
 42
0.0
  0
VERTEX
  8
Calque1
 10
24.0
 20
3.0
 42
0.1622776601684
  0
VERTEX
  8
Calque1
 10
25.5
 20
2.5
 42
0.1622776601684
  0
VERTEX
  8
Calque1
 10
27.0
 20
3.0
 42
0.0
  0
VERTEX
  8
Calque1
 10
30.5
 20
6.5
 42
0.3597769610865
  0
VERTEX
  8
Calque1
 10
30.5000000000001
 20
9.0
 42
0.0
  0
VERTEX
  8
Calque1
 10
28.0
 20
11.5
 42
0.0031298717559
  0
SEQEND
  0
POLYLINE
  8
Calque1
 66
     1
 10
0.0
 20
0.0
 30
0.0
 70
     1
  0
VERTEX
  8
Calque1
 10
-33.29
 20
15.5
 42
0.0
  0
VERTEX
  8
Calque1
 10
-33.21
 20
15.5
 42
1.0
  0
VERTEX
  8
Calque1
 10
-32.5
 20
16.21
 42
0.0
  0
VERTEX
  8
Calque1
 10
-32.5
 20
17.79
 42
1.0
  0
VERTEX
  8
Calque1
 10
-33.21
 20
18.5
 42
0.0
  0
VERTEX
  8
Calque1
 10
-33.29
 20
18.5
 42
1.0
  0
VERTEX
  8
Calque1
 10
-34.0
 20
17.79
 42
0.0
  0
VERTEX
  8
Calque1
 10
-34.0
 20
16.21
 42
1.0
  0
SEQEND
  0
ENDSEC
  0
EOF
