  0
SECTION
  2
HEADER
  9
$ACADVER
  1
AC1009
  9
$INSBASE
 10
0.0
 20
0.0
 30
0.0
  9
$EXTMIN
 10
0.0
 20
0.0
 30
0.0
  9
$EXTMAX
 10
0.0
 20
0.0
 30
0.0
  0
ENDSEC
  0
SECTION
  2
TABLES
  0
TABLE
  2
VPORT
 70
0
  0
ENDTAB
  0
TABLE
  2
LTYPE
 70
1
  0
LTYPE
  2
CONTINUOUS
 70
0
  3
Solid line
 72
65
 73
0
 40
0.0
  0
ENDTAB
  0
TABLE
  2
LAYER
 70
1
  0
LAYER
  2
0
 70
64
 62
7
  6
continuous
  0
ENDTAB
  0
TABLE
  2
STYLE
 70
1
  0
STYLE
  2
STANDARD
 70
0
 40
0
 41
1.0
 50
0.0
 71
0
 42
1
 3
ARIAL.TTF
 4

  0
ENDTAB
  0
TABLE
  2
VIEW
 70
0
  0
ENDTAB
  0
ENDSEC
  0
SECTION
  2
BLOCKS
  0
BLOCK
  8
SupportsMoteurs
  2
CLONE090
 70
0
 10
0.0
 20
0.0
 30
0.0
  3
CLONE090
  0
ARC
  8
SupportsMoteurs
 62
0
 10
8.50000014109
 20
-1.29941027271e-07
 30
0.0
 40
7.00000020748
 50
115.33978769
 51
-150.000002209
  0
ARC
  8
SupportsMoteurs
 62
0
 10
8.50000033863
 20
6.66049141618e-07
 30
0.0
 40
7.00000077655
 50
-149.999997375
 51
-115.339787273
  0
LINE
  8
SupportsMoteurs
 62
0
 10
1.5
 20
13.0
 30
0.0
 11
5.504101
 21
6.326499
 31
0.0
  0
LINE
  8
SupportsMoteurs
 62
0
 10
5.504101
 20
-6.326499
 30
0.0
 11
1.5
 21
-13.0
 31
0.0
  0
LINE
  8
SupportsMoteurs
 62
0
 10
1.0
 20
13.0
 30
0.0
 11
1.5
 21
13.0
 31
0.0
  0
LINE
  8
SupportsMoteurs
 62
0
 10
1.5
 20
-13.0
 30
0.0
 11
1.0
 21
-13.0
 31
0.0
  0
LINE
  8
SupportsMoteurs
 62
0
 10
1.0
 20
13.8
 30
0.0
 11
1.0
 21
13.0
 31
0.0
  0
LINE
  8
SupportsMoteurs
 62
0
 10
1.0
 20
-13.0
 30
0.0
 11
1.0
 21
-13.8
 31
0.0
  0
ARC
  8
SupportsMoteurs
 62
0
 10
0.99999992507
 20
14.4
 30
0.0
 40
0.6
 50
-89.9999928568
 51
89.9999928568
  0
ARC
  8
SupportsMoteurs
 62
0
 10
0.99999992507
 20
-14.4
 30
0.0
 40
0.6
 50
-89.9999928568
 51
89.9999928568
  0
LINE
  8
SupportsMoteurs
 62
0
 10
0.0
 20
15.0
 30
0.0
 11
1.0
 21
15.0
 31
0.0
  0
LINE
  8
SupportsMoteurs
 62
0
 10
1.0
 20
-15.0
 30
0.0
 11
0.0
 21
-15.0
 31
0.0
  0
LINE
  8
SupportsMoteurs
 62
0
 10
0.0
 20
18.0
 30
0.0
 11
0.0
 21
15.0
 31
0.0
  0
LINE
  8
SupportsMoteurs
 62
0
 10
0.0
 20
-15.0
 30
0.0
 11
0.0
 21
-18.0
 31
0.0
  0
LINE
  8
SupportsMoteurs
 62
0
 10
1.0
 20
18.0
 30
0.0
 11
0.0
 21
18.0
 31
0.0
  0
LINE
  8
SupportsMoteurs
 62
0
 10
0.0
 20
-18.0
 30
0.0
 11
1.0
 21
-18.0
 31
0.0
  0
ARC
  8
SupportsMoteurs
 62
0
 10
1.00000041387
 20
14.400000776
 30
0.0
 40
3.59999922403
 50
75.2199990515
 51
90.000006558
  0
ARC
  8
SupportsMoteurs
 62
0
 10
1.00000041387
 20
-14.400000776
 30
0.0
 40
3.59999922403
 50
-90.000006558
 51
-75.2199990515
  0
LINE
  8
SupportsMoteurs
 62
0
 10
9.988268
 20
15.562602
 30
0.0
 11
1.91839
 21
17.880885
 31
0.0
  0
LINE
  8
SupportsMoteurs
 62
0
 10
1.91839
 20
-17.880885
 30
0.0
 11
9.988268
 21
-15.562602
 31
0.0
  0
LINE
  8
SupportsMoteurs
 62
0
 10
11.913435
 20
16.380558
 30
0.0
 11
9.988268
 21
15.562602
 31
0.0
  0
LINE
  8
SupportsMoteurs
 62
0
 10
9.988268
 20
-15.562602
 30
0.0
 11
11.913435
 21
-16.380558
 31
0.0
  0
ARC
  8
SupportsMoteurs
 62
0
 10
12.5000009126
 20
15.0000001622
 30
0.0
 40
1.49999983776
 50
90.0000348586
 51
113.019474745
  0
ARC
  8
SupportsMoteurs
 62
0
 10
12.5000009126
 20
-15.0000001622
 30
0.0
 40
1.49999983776
 50
-113.019474745
 51
-90.0000348586
  0
LINE
  8
SupportsMoteurs
 62
0
 10
13.5
 20
16.5
 30
0.0
 11
12.5
 21
16.5
 31
0.0
  0
LINE
  8
SupportsMoteurs
 62
0
 10
12.5
 20
-16.5
 30
0.0
 11
13.5
 21
-16.5
 31
0.0
  0
ARC
  8
SupportsMoteurs
 62
0
 10
13.5
 20
16.0
 30
0.0
 40
0.5
 50
-0.0
 51
90.0
  0
ARC
  8
SupportsMoteurs
 62
0
 10
13.5
 20
-16.0
 30
0.0
 40
0.5
 50
-90.0
 51
0.0
  0
LINE
  8
SupportsMoteurs
 62
0
 10
14.0
 20
15.0
 30
0.0
 11
14.0
 21
16.0
 31
0.0
  0
LINE
  8
SupportsMoteurs
 62
0
 10
14.0
 20
-16.0
 30
0.0
 11
14.0
 21
-15.0
 31
0.0
  0
LINE
  8
SupportsMoteurs
 62
0
 10
13.559017
 20
15.0
 30
0.0
 11
14.0
 21
15.0
 31
0.0
  0
LINE
  8
SupportsMoteurs
 62
0
 10
14.0
 20
-15.0
 30
0.0
 11
13.559017
 21
-15.0
 31
0.0
  0
ARC
  8
SupportsMoteurs
 62
0
 10
13.0000000292
 20
14.5000000171
 30
0.0
 40
0.74999997101
 50
41.8103151248
 51
150.000000229
  0
ARC
  8
SupportsMoteurs
 62
0
 10
13.0000000292
 20
-14.5000000171
 30
0.0
 40
0.74999997101
 50
-150.000000229
 51
-41.8103151248
  0
ARC
  8
SupportsMoteurs
 62
0
 10
13.0000000299
 20
14.4999999647
 30
0.0
 40
0.749999997782
 50
149.999996786
 51
-131.81031811
  0
ARC
  8
SupportsMoteurs
 62
0
 10
13.0000000299
 20
-14.4999999647
 30
0.0
 40
0.749999997782
 50
131.81031811
 51
-149.999996786
  0
LINE
  8
SupportsMoteurs
 62
0
 10
12.5
 20
12.059017
 30
0.0
 11
12.5
 21
13.940983
 31
0.0
  0
LINE
  8
SupportsMoteurs
 62
0
 10
12.5
 20
-13.940983
 30
0.0
 11
12.5
 21
-12.059017
 31
0.0
  0
ARC
  8
SupportsMoteurs
 62
0
 10
13.000000044
 20
11.5000001678
 30
0.0
 40
0.749999908412
 50
131.810325662
 51
150.000010767
  0
ARC
  8
SupportsMoteurs
 62
0
 10
13.000000044
 20
-11.5000001678
 30
0.0
 40
0.749999908412
 50
-150.000010767
 51
-131.810325662
  0
ARC
  8
SupportsMoteurs
 62
0
 10
13.0000000264
 20
11.4999999847
 30
0.0
 40
0.749999984747
 50
149.999997982
 51
-90.0000019091
  0
ARC
  8
SupportsMoteurs
 62
0
 10
13.0000000264
 20
-11.4999999847
 30
0.0
 40
0.749999984747
 50
90.0000019091
 51
-149.999997982
  0
ARC
  8
SupportsMoteurs
 62
0
 10
13.0000000028
 20
11.5000000063
 30
0.0
 40
0.750000006289
 50
-90.0
 51
-41.8103151106
  0
ARC
  8
SupportsMoteurs
 62
0
 10
13.0000000028
 20
-11.5000000063
 30
0.0
 40
0.750000006289
 50
41.8103151106
 51
90.0
  0
LINE
  8
SupportsMoteurs
 62
0
 10
14.0
 20
11.0
 30
0.0
 11
13.559017
 21
11.0
 31
0.0
  0
LINE
  8
SupportsMoteurs
 62
0
 10
13.559017
 20
-11.0
 30
0.0
 11
14.0
 21
-11.0
 31
0.0
  0
LINE
  8
SupportsMoteurs
 62
0
 10
14.0
 20
8.0
 30
0.0
 11
14.0
 21
11.0
 31
0.0
  0
LINE
  8
SupportsMoteurs
 62
0
 10
14.0
 20
-11.0
 30
0.0
 11
14.0
 21
-5.5
 31
0.0
  0
LINE
  8
SupportsMoteurs
 62
0
 10
14.0
 20
5.5
 30
0.0
 11
14.0
 21
8.0
 31
0.0
  0
ARC
  8
SupportsMoteurs
 62
0
 10
14.5000002145
 20
-5.50000031522
 30
0.0
 40
0.500000214491
 50
109.696654439
 51
179.999963878
  0
ARC
  8
SupportsMoteurs
 62
0
 10
14.5000002145
 20
5.50000031522
 30
0.0
 40
0.500000214491
 50
-179.999963878
 51
-109.696654439
  0
LINE
  8
SupportsMoteurs
 62
0
 10
14.33148
 20
-5.029255
 30
0.0
 11
20.0
 21
-3.0
 31
0.0
  0
LINE
  8
SupportsMoteurs
 62
0
 10
20.0
 20
3.0
 30
0.0
 11
14.33148
 21
5.029255
 31
0.0
  0
LINE
  8
SupportsMoteurs
 62
0
 10
20.0
 20
-3.0
 30
0.0
 11
20.0
 21
-2.7
 31
0.0
  0
LINE
  8
SupportsMoteurs
 62
0
 10
20.0
 20
2.7
 30
0.0
 11
20.0
 21
3.0
 31
0.0
  0
ARC
  8
SupportsMoteurs
 62
0
 10
20.0000000112
 20
-2.1
 30
0.0
 40
0.6
 50
90.0000012074
 51
-90.0000012074
  0
ARC
  8
SupportsMoteurs
 62
0
 10
20.0000000042
 20
2.1
 30
0.0
 40
0.6
 50
90.0
 51
-90.0
  0
LINE
  8
SupportsMoteurs
 62
0
 10
20.0
 20
-1.5
 30
0.0
 11
21.0
 21
-1.5
 31
0.0
  0
LINE
  8
SupportsMoteurs
 62
0
 10
21.0
 20
1.5
 30
0.0
 11
20.0
 21
1.5
 31
0.0
  0
LINE
  8
SupportsMoteurs
 62
0
 10
21.0
 20
-1.5
 30
0.0
 11
21.0
 21
1.5
 31
0.0
  0
ARC
  8
SupportsMoteurs
 62
0
 10
8.50000009637
 20
9.01919761098e-07
 30
0.0
 40
5.84999980148
 50
-29.9999321575
 51
29.9999909225
  0
ARC
  8
SupportsMoteurs
 62
0
 10
12.8301269155
 20
2.50000014632
 30
0.0
 40
0.850000352285
 50
29.9999749013
 51
-150.000002321
  0
ARC
  8
SupportsMoteurs
 62
0
 10
8.50000018202
 20
-5.98079361813e-07
 30
0.0
 40
4.14999977273
 50
-29.9999285088
 51
30.0000113462
  0
ARC
  8
SupportsMoteurs
 62
0
 10
12.830127032
 20
-2.49999964075
 30
0.0
 40
0.849999602307
 50
149.999701145
 51
-29.9994985973
  0
CIRCLE
  8
SupportsMoteurs
 62
0
 10
11.0
 20
4.330127
 30
0.0
 40
0.85
  0
CIRCLE
  8
SupportsMoteurs
 62
0
 10
8.5
 20
0.0
 30
0.0
 40
3.1
  0
CIRCLE
  8
SupportsMoteurs
 62
0
 10
11.0
 20
-4.330127
 30
0.0
 40
0.85
  0
ARC
  8
SupportsMoteurs
 62
0
 10
8.50000016895
 20
-5.0
 30
0.0
 40
0.85
 50
-90.0000113908
 51
90.0
  0
ARC
  8
SupportsMoteurs
 62
0
 10
8.49999992692
 20
-3.28011307005e-07
 30
0.0
 40
4.14999967199
 50
-149.999938846
 51
-89.9999987926
  0
ARC
  8
SupportsMoteurs
 62
0
 10
4.16987303198
 20
-2.50000035926
 30
0.0
 40
0.850000236281
 50
29.9997074289
 51
-149.999492314
  0
ARC
  8
SupportsMoteurs
 62
0
 10
8.49999967069
 20
1.73221929689e-07
 30
0.0
 40
5.85000017322
 50
-149.999919855
 51
-89.9999966933
  0
ARC
  8
SupportsMoteurs
 62
0
 10
8.50000039103
 20
6.00642104942e-08
 30
0.0
 40
4.14999993994
 50
90.0000606179
 51
150.000000479
  0
ARC
  8
SupportsMoteurs
 62
0
 10
8.49999993603
 20
5.00000000001
 30
0.0
 40
0.850000000023
 50
-90.0002653149
 51
90.0005349422
  0
ARC
  8
SupportsMoteurs
 62
0
 10
8.50000023288
 20
6.56911808505e-07
 30
0.0
 40
5.84999934309
 50
90.0000806308
 51
150.000003715
  0
ARC
  8
SupportsMoteurs
 62
0
 10
4.16987341553
 20
2.49999985369
 30
0.0
 40
0.849999919272
 50
149.99998547
 51
-29.9999917534
  0
CIRCLE
  8
SupportsMoteurs
 62
0
 10
10.15
 20
12.915026
 30
0.0
 40
1.0
  0
CIRCLE
  8
SupportsMoteurs
 62
0
 10
5.0
 20
13.4
 30
0.0
 40
1.8
  0
CIRCLE
  8
SupportsMoteurs
 62
0
 10
7.5
 20
9.4
 30
0.0
 40
1.8
  0
CIRCLE
  8
SupportsMoteurs
 62
0
 10
3.5
 20
0.0
 30
0.0
 40
0.85
  0
LINE
  8
SupportsMoteurs
 62
0
 10
18.25
 20
-0.5
 30
0.0
 11
18.25
 21
0.5
 31
0.0
  0
ARC
  8
SupportsMoteurs
 62
0
 10
17.0000000197
 20
0.500000019712
 30
0.0
 40
1.24999998029
 50
-1.20741826973e-06
 51
90.0
  0
ARC
  8
SupportsMoteurs
 62
0
 10
17.0
 20
0.5
 30
0.0
 40
1.25
 50
90.0
 51
-180.0
  0
LINE
  8
SupportsMoteurs
 62
0
 10
15.75
 20
0.5
 30
0.0
 11
15.75
 21
-0.5
 31
0.0
  0
ARC
  8
SupportsMoteurs
 62
0
 10
16.999999838
 20
-0.500000468216
 30
0.0
 40
1.24999983804
 50
179.999978536
 51
-150.000020495
  0
ARC
  8
SupportsMoteurs
 62
0
 10
17.0
 20
-0.499999858394
 30
0.0
 40
1.25000028321
 50
-150.0
 51
-30.0
  0
ARC
  8
SupportsMoteurs
 62
0
 10
17.000000067
 20
-0.500000442778
 30
0.0
 40
1.24999993298
 50
-29.9999783385
 51
2.02939678982e-05
  0
CIRCLE
  8
SupportsMoteurs
 62
0
 10
7.5
 20
-9.4
 30
0.0
 40
1.8
  0
CIRCLE
  8
SupportsMoteurs
 62
0
 10
5.0
 20
-13.4
 30
0.0
 40
1.8
  0
CIRCLE
  8
SupportsMoteurs
 62
0
 10
10.15
 20
-12.915026
 30
0.0
 40
1.0
  0
ENDBLK
  0
ENDSEC
  0
SECTION
  2
ENTITIES
  0
INSERT
  2
CLONE090
  8
SupportsMoteurs
 62
0
 10
0.0
 20
0.0
 30
0.0
  0
ENDSEC
  0
EOF
