  0
SECTION
  2
HEADER
  9
$ACADVER
  1
AC1009
  9
$EXTMAX
 10
42.5
 20
22.0
 30
0.0
  9
$EXTMIN
 10
-36.0
 20
-1.0
 30
0.0
  9
$INSUNITS
 70
     4
  9
$LUNITS
 70
     2
  9
$LUPREC
 70
     4
  9
$MEASUREMENT
 70
     1
  0
ENDSEC
  0
SECTION
  2
TABLES
  0
TABLE
  2
LAYER
 70
     1
  0
LAYER
  2
0
 70
     0
 62
     7
  6
Continuous
  0
LAYER
  2
SupportsMoteurs
 70
     0
 62
    70
  6
Continuous
  0
LAYER
  2
Entretoises
 70
     0
 62
    70
  6
Continuous
  0
LAYER
  2
PCBTurbin
 70
     0
 62
    70
  6
Continuous
  0
LAYER
  2
MainBoard
 70
     0
 62
    70
  6
Continuous
  0
LAYER
  2
Capteurs-PCB6
 70
     0
 62
    70
  6
Continuous
  0
LAYER
  2
Capteurs-PCB45
 70
     0
 62
    70
  6
Continuous
  0
ENDTAB
  0
TABLE
  2
APPID
 70
     1
  0
APPID
  2
ACAD
 70
     0
  0
ENDTAB
  0
ENDSEC
  0
SECTION
  2
ENTITIES
  0
CIRCLE
  8
Capteurs-PCB45
 10
0.0
 20
8.5
 30
0.0
 40
3.5
  0
CIRCLE
  8
Capteurs-PCB45
 10
-8.0
 20
11.0
 30
0.0
 40
1.5
  0
CIRCLE
  8
Capteurs-PCB45
 10
-22.5
 20
3.5
 30
0.0
 40
1.0
  0
CIRCLE
  8
Capteurs-PCB45
 10
-6.5
 20
3.5
 30
0.0
 40
1.0
  0
CIRCLE
  8
Capteurs-PCB45
 10
-32.5
 20
3.0
 30
0.0
 40
0.75
  0
CIRCLE
  8
Capteurs-PCB45
 10
-20.0
 20
12.0
 30
0.0
 40
0.75
  0
CIRCLE
  8
Capteurs-PCB45
 10
22.5
 20
3.5
 30
0.0
 40
1.0
  0
CIRCLE
  8
Capteurs-PCB45
 10
20.0
 20
12.0
 30
0.0
 40
0.75
  0
CIRCLE
  8
Capteurs-PCB45
 10
8.0
 20
11.0
 30
0.0
 40
1.5
  0
CIRCLE
  8
Capteurs-PCB45
 10
6.5
 20
3.5
 30
0.0
 40
1.0
  0
POLYLINE
  8
Capteurs-PCB45
 66
     1
 10
0.0
 20
0.0
 30
0.0
 70
     1
  0
VERTEX
  8
Capteurs-PCB45
 10
33.625
 20
2.8504809471617
 42
-0.4745893814177
  0
VERTEX
  8
Capteurs-PCB45
 10
33.4387525100503
 20
3.9974949798994
 42
0.0
  0
VERTEX
  8
Capteurs-PCB45
 10
35.5033400268007
 20
6.3266532797318
 42
-0.0806597648045
  0
VERTEX
  8
Capteurs-PCB45
 10
36.0
 20
6.7320508075689
 42
-0.5773502691896
  0
VERTEX
  8
Capteurs-PCB45
 10
39.0
 20
5.0
 42
-0.3904660030989
  0
VERTEX
  8
Capteurs-PCB45
 10
37.1633266398659
 20
3.0066800536015
 42
0.0
  0
VERTEX
  8
Capteurs-PCB45
 10
34.0612474899497
 20
2.7525050201006
 42
-0.1525043487889
  0
SEQEND
  0
POLYLINE
  8
Capteurs-PCB45
 66
     1
 10
0.0
 20
0.0
 30
0.0
 70
     1
  0
VERTEX
  8
Capteurs-PCB45
 10
-35.0
 20
13.29
 42
0.0
  0
VERTEX
  8
Capteurs-PCB45
 10
-35.0
 20
13.21
 42
1.0
  0
VERTEX
  8
Capteurs-PCB45
 10
-34.29
 20
12.5
 42
0.0
  0
VERTEX
  8
Capteurs-PCB45
 10
-32.21
 20
12.5
 42
1.0
  0
VERTEX
  8
Capteurs-PCB45
 10
-31.5
 20
13.21
 42
0.0
  0
VERTEX
  8
Capteurs-PCB45
 10
-31.5
 20
13.29
 42
1.0
  0
VERTEX
  8
Capteurs-PCB45
 10
-32.21
 20
14.0
 42
0.0
  0
VERTEX
  8
Capteurs-PCB45
 10
-34.29
 20
14.0
 42
1.0
  0
SEQEND
  0
POLYLINE
  8
Capteurs-PCB45
 66
     1
 10
0.0
 20
0.0
 30
0.0
 70
     1
  0
VERTEX
  8
Capteurs-PCB45
 10
-22.0
 20
10.5
 42
-0.114443733769
  0
VERTEX
  8
Capteurs-PCB45
 10
-22.1531308996725
 20
9.8397397281504
 42
0.0
  0
VERTEX
  8
Capteurs-PCB45
 10
-24.4083490843452
 20
5.2393059038901
 42
-0.4342160978954
  0
VERTEX
  8
Capteurs-PCB45
 10
-30.0
 20
3.5358983848623
 42
-0.5773502691896
  0
VERTEX
  8
Capteurs-PCB45
 10
-30.0
 20
10.4641016151378
 42
-0.0792947925351
  0
VERTEX
  8
Capteurs-PCB45
 10
-28.8224201649759
 20
10.9145402121119
 42
0.0
  0
VERTEX
  8
Capteurs-PCB45
 10
-23.8084075135631
 20
11.9679525896901
 42
-0.4762522361836
  0
SEQEND
  0
POLYLINE
  8
Capteurs-PCB45
 66
     1
 10
0.0
 20
0.0
 30
0.0
 70
     1
  0
VERTEX
  8
Capteurs-PCB45
 10
22.0
 20
10.5
 42
0.114443733769
  0
VERTEX
  8
Capteurs-PCB45
 10
22.1531308996725
 20
9.8397397281504
 42
0.0
  0
VERTEX
  8
Capteurs-PCB45
 10
24.4083490843452
 20
5.2393059038901
 42
0.4342160978954
  0
VERTEX
  8
Capteurs-PCB45
 10
30.0
 20
3.5358983848623
 42
0.5773502691896
  0
VERTEX
  8
Capteurs-PCB45
 10
30.0
 20
10.4641016151378
 42
0.0792947925351
  0
VERTEX
  8
Capteurs-PCB45
 10
28.8224201649759
 20
10.9145402121119
 42
0.0
  0
VERTEX
  8
Capteurs-PCB45
 10
23.8084075135631
 20
11.9679525896901
 42
0.4762522361836
  0
SEQEND
  0
POLYLINE
  8
Capteurs-PCB45
 66
     1
 10
0.0
 20
0.0
 30
0.0
 70
     1
  0
VERTEX
  8
Capteurs-PCB45
 10
29.0
 20
13.21
 42
1.0
  0
VERTEX
  8
Capteurs-PCB45
 10
29.71
 20
12.5
 42
0.0
  0
VERTEX
  8
Capteurs-PCB45
 10
31.79
 20
12.5
 42
1.0
  0
VERTEX
  8
Capteurs-PCB45
 10
32.5
 20
13.21
 42
0.0
  0
VERTEX
  8
Capteurs-PCB45
 10
32.5
 20
13.29
 42
1.0
  0
VERTEX
  8
Capteurs-PCB45
 10
31.79
 20
14.0
 42
0.0
  0
VERTEX
  8
Capteurs-PCB45
 10
29.71
 20
14.0
 42
1.0
  0
VERTEX
  8
Capteurs-PCB45
 10
29.0
 20
13.29
 42
0.0
  0
SEQEND
  0
POLYLINE
  8
Capteurs-PCB45
 66
     1
 10
0.0
 20
0.0
 30
0.0
 70
     1
  0
VERTEX
  8
Capteurs-PCB45
 10
-17.0
 20
3.0
 42
0.0
  0
VERTEX
  8
Capteurs-PCB45
 10
-11.5
 20
3.0
 42
0.4142135623731
  0
VERTEX
  8
Capteurs-PCB45
 10
-8.5
 20
6.0
 42
0.3123764818362
  0
VERTEX
  8
Capteurs-PCB45
 10
-10.444
 20
8.808
 42
0.0
  0
VERTEX
  8
Capteurs-PCB45
 10
-15.592
 20
10.744
 42
0.2244873527691
  0
VERTEX
  8
Capteurs-PCB45
 10
-19.0
 20
10.4641016151378
 42
0.5773502691896
  0
VERTEX
  8
Capteurs-PCB45
 10
-19.0
 20
3.5358983848623
 42
0.1316524975874
  0
SEQEND
  0
POLYLINE
  8
Capteurs-PCB45
 66
     1
 10
0.0
 20
0.0
 30
0.0
 70
     1
  0
VERTEX
  8
Capteurs-PCB45
 10
17.0
 20
3.0
 42
0.0
  0
VERTEX
  8
Capteurs-PCB45
 10
11.5
 20
3.0
 42
-0.4142135623731
  0
VERTEX
  8
Capteurs-PCB45
 10
8.5
 20
6.0
 42
-0.3123764818362
  0
VERTEX
  8
Capteurs-PCB45
 10
10.444
 20
8.808
 42
0.0
  0
VERTEX
  8
Capteurs-PCB45
 10
15.592
 20
10.744
 42
-0.2244873527691
  0
VERTEX
  8
Capteurs-PCB45
 10
19.0
 20
10.4641016151378
 42
-0.5773502691896
  0
VERTEX
  8
Capteurs-PCB45
 10
19.0
 20
3.5358983848623
 42
-0.1316524975874
  0
SEQEND
  0
POLYLINE
  8
Capteurs-PCB45
 66
     1
 10
0.0
 20
0.0
 30
0.0
 70
     1
  0
VERTEX
  8
Capteurs-PCB45
 10
2.9244992926808
 20
3.4334625313313
 42
0.0001723685998
  0
SEQEND
  0
POLYLINE
  8
Capteurs-PCB45
 66
     1
 10
0.0
 20
0.0
 30
0.0
 70
     1
  0
VERTEX
  8
Capteurs-PCB45
 10
-2.4591970312796
 20
5.1571195113601
 42
0.3282044915849
  0
VERTEX
  8
Capteurs-PCB45
 10
2.4591970312796
 20
5.1571195113601
 42
-0.9996623033904
  0
VERTEX
  8
Capteurs-PCB45
 10
3.467049002664
 20
3.7880928227052
 42
-0.3282597545704
  0
VERTEX
  8
Capteurs-PCB45
 10
-3.467049002664
 20
3.7880928227052
 42
-0.9996623033904
  0
SEQEND
  0
POLYLINE
  8
Capteurs-PCB45
 66
     1
 10
0.0
 20
0.0
 30
0.0
 70
     1
  0
VERTEX
  8
Capteurs-PCB45
 10
4.1246179406173
 20
8.0417131423205
 42
0.3282044915849
  0
VERTEX
  8
Capteurs-PCB45
 10
1.6654209093377
 20
12.3011673463193
 42
-0.9996623033904
  0
VERTEX
  8
Capteurs-PCB45
 10
2.3471068144795
 20
13.8585061011199
 42
-0.3282597545704
  0
VERTEX
  8
Capteurs-PCB45
 10
5.8141558171435
 20
7.8534010761749
 42
-0.9996623033904
  0
SEQEND
  0
POLYLINE
  8
Capteurs-PCB45
 66
     1
 10
0.0
 20
0.0
 30
0.0
 70
     1
  0
VERTEX
  8
Capteurs-PCB45
 10
-1.6654209093377
 20
12.3011673463193
 42
0.3282044915849
  0
VERTEX
  8
Capteurs-PCB45
 10
-4.1246179406173
 20
8.0417131423205
 42
-0.9996623033904
  0
VERTEX
  8
Capteurs-PCB45
 10
-5.8141558171435
 20
7.8534010761749
 42
-0.3282597545704
  0
VERTEX
  8
Capteurs-PCB45
 10
-2.3471068144795
 20
13.8585061011199
 42
-0.9996623033904
  0
SEQEND
  0
POLYLINE
  8
Capteurs-PCB45
 66
     1
 10
0.0
 20
0.0
 30
0.0
 70
     1
  0
VERTEX
  8
Capteurs-PCB45
 10
-1.0
 20
19.0
 42
0.1316524975874
  0
VERTEX
  8
Capteurs-PCB45
 10
-1.5
 20
18.8660254037844
 42
0.5773502691896
  0
VERTEX
  8
Capteurs-PCB45
 10
-1.5
 20
17.1339745962156
 42
0.1316524975874
  0
VERTEX
  8
Capteurs-PCB45
 10
-1.0
 20
17.0
 42
0.0
  0
VERTEX
  8
Capteurs-PCB45
 10
1.0
 20
17.0
 42
0.4142135623731
  0
VERTEX
  8
Capteurs-PCB45
 10
2.0
 20
18.0
 42
0.4142135623731
  0
VERTEX
  8
Capteurs-PCB45
 10
1.0
 20
19.0
 42
0.0
  0
SEQEND
  0
POLYLINE
  8
Capteurs-PCB45
 66
     1
 10
0.0
 20
0.0
 30
0.0
 70
     1
  0
VERTEX
  8
Capteurs-PCB45
 10
29.5
 20
17.5
 42
0.0
  0
VERTEX
  8
Capteurs-PCB45
 10
29.50000000001
 20
16.5000000066298
 42
0.4142135685454
  0
VERTEX
  8
Capteurs-PCB45
 10
30.75
 20
15.25
 42
0.4142135623731
  0
VERTEX
  8
Capteurs-PCB45
 10
32.0
 20
16.5
 42
0.0
  0
VERTEX
  8
Capteurs-PCB45
 10
32.0000000000399
 20
17.4999999999442
 42
0.1316525018887
  0
VERTEX
  8
Capteurs-PCB45
 10
31.8325319999976
 20
18.124999999999
 42
0.5773502691896
  0
VERTEX
  8
Capteurs-PCB45
 10
29.6674680000203
 20
18.1250000000012
 42
0.131652491517
  0
SEQEND
  0
POLYLINE
  8
Capteurs-PCB45
 66
     1
 10
0.0
 20
0.0
 30
0.0
 70
     1
  0
VERTEX
  8
Capteurs-PCB45
 10
-34.5
 20
17.5
 42
0.0
  0
VERTEX
  8
Capteurs-PCB45
 10
-34.49999999999
 20
16.5000000066298
 42
0.4142135685454
  0
VERTEX
  8
Capteurs-PCB45
 10
-33.25
 20
15.25
 42
0.4142135623731
  0
VERTEX
  8
Capteurs-PCB45
 10
-32.0
 20
16.5
 42
0.0
  0
VERTEX
  8
Capteurs-PCB45
 10
-31.9999999999601
 20
17.4999999999442
 42
0.1316525018887
  0
VERTEX
  8
Capteurs-PCB45
 10
-32.1674680000024
 20
18.124999999999
 42
0.5773502691896
  0
VERTEX
  8
Capteurs-PCB45
 10
-34.3325319999797
 20
18.1250000000012
 42
0.131652491517
  0
SEQEND
  0
POLYLINE
  8
Capteurs-PCB45
 66
     1
 10
0.0
 20
0.0
 30
0.0
 70
     1
  0
VERTEX
  8
Capteurs-PCB45
 10
38.0
 20
-0.5
 42
0.0
  0
VERTEX
  8
Capteurs-PCB45
 10
37.9999999999998
 20
-0.2
 42
0.0
  0
VERTEX
  8
Capteurs-PCB45
 10
39.0
 20
-0.2
 42
1.0
  0
VERTEX
  8
Capteurs-PCB45
 10
39.0
 20
0.8
 42
0.0
  0
VERTEX
  8
Capteurs-PCB45
 10
38.0
 20
0.8
 42
0.0
  0
VERTEX
  8
Capteurs-PCB45
 10
38.0
 20
1.0
 42
1.0
  0
VERTEX
  8
Capteurs-PCB45
 10
37.0
 20
1.0
 42
0.0
  0
VERTEX
  8
Capteurs-PCB45
 10
11.0
 20
1.0
 42
0.0
  0
VERTEX
  8
Capteurs-PCB45
 10
10.21
 20
1.0
 42
1.0
  0
VERTEX
  8
Capteurs-PCB45
 10
9.5
 20
0.29
 42
0.0
  0
VERTEX
  8
Capteurs-PCB45
 10
9.5
 20
-0.5
 42
-0.4142135623731
  0
VERTEX
  8
Capteurs-PCB45
 10
9.0
 20
-1.0
 42
0.0
  0
VERTEX
  8
Capteurs-PCB45
 10
7.0
 20
-1.0
 42
-0.4142135623731
  0
VERTEX
  8
Capteurs-PCB45
 10
6.5
 20
-0.5
 42
0.0
  0
VERTEX
  8
Capteurs-PCB45
 10
6.4999999999998
 20
-0.2
 42
0.0
  0
VERTEX
  8
Capteurs-PCB45
 10
7.5
 20
-0.2
 42
1.0
  0
VERTEX
  8
Capteurs-PCB45
 10
7.5
 20
0.8
 42
0.0
  0
VERTEX
  8
Capteurs-PCB45
 10
6.5
 20
0.8
 42
0.0
  0
VERTEX
  8
Capteurs-PCB45
 10
6.5
 20
1.0
 42
1.0
  0
VERTEX
  8
Capteurs-PCB45
 10
5.5
 20
1.0
 42
0.0
  0
VERTEX
  8
Capteurs-PCB45
 10
-0.00000000003
 20
1.0000000018188
 42
0.0
  0
VERTEX
  8
Capteurs-PCB45
 10
-5.5
 20
1.0
 42
1.0
  0
VERTEX
  8
Capteurs-PCB45
 10
-6.5
 20
1.0
 42
0.0
  0
VERTEX
  8
Capteurs-PCB45
 10
-6.5
 20
0.8
 42
0.0
  0
VERTEX
  8
Capteurs-PCB45
 10
-7.5
 20
0.8
 42
1.0
  0
VERTEX
  8
Capteurs-PCB45
 10
-7.5
 20
-0.2
 42
0.0
  0
VERTEX
  8
Capteurs-PCB45
 10
-6.4999999999998
 20
-0.2
 42
0.0
  0
VERTEX
  8
Capteurs-PCB45
 10
-6.5
 20
-0.5
 42
-0.4142135623731
  0
VERTEX
  8
Capteurs-PCB45
 10
-7.0
 20
-1.0
 42
0.0
  0
VERTEX
  8
Capteurs-PCB45
 10
-9.0
 20
-1.0
 42
-0.4142135623731
  0
VERTEX
  8
Capteurs-PCB45
 10
-9.5
 20
-0.5
 42
0.0
  0
VERTEX
  8
Capteurs-PCB45
 10
-9.5
 20
0.29
 42
1.0
  0
VERTEX
  8
Capteurs-PCB45
 10
-10.21
 20
1.0
 42
0.0
  0
VERTEX
  8
Capteurs-PCB45
 10
-11.0
 20
1.0
 42
0.0
  0
VERTEX
  8
Capteurs-PCB45
 10
-29.5
 20
1.0
 42
1.0
  0
VERTEX
  8
Capteurs-PCB45
 10
-30.5
 20
1.0
 42
0.0
  0
VERTEX
  8
Capteurs-PCB45
 10
-30.5
 20
0.8
 42
0.0
  0
VERTEX
  8
Capteurs-PCB45
 10
-31.5
 20
0.8
 42
1.0
  0
VERTEX
  8
Capteurs-PCB45
 10
-31.5
 20
-0.2
 42
0.0
  0
VERTEX
  8
Capteurs-PCB45
 10
-30.4999999999998
 20
-0.2
 42
0.0
  0
VERTEX
  8
Capteurs-PCB45
 10
-30.5
 20
-0.5
 42
-0.4142135623731
  0
VERTEX
  8
Capteurs-PCB45
 10
-31.0
 20
-1.0
 42
0.0
  0
VERTEX
  8
Capteurs-PCB45
 10
-33.0
 20
-1.0
 42
-0.4142135623731
  0
VERTEX
  8
Capteurs-PCB45
 10
-33.5
 20
-0.5
 42
0.0
  0
VERTEX
  8
Capteurs-PCB45
 10
-33.5
 20
0.29
 42
1.0
  0
VERTEX
  8
Capteurs-PCB45
 10
-34.21
 20
1.0
 42
0.0
  0
VERTEX
  8
Capteurs-PCB45
 10
-35.0
 20
1.0
 42
0.0
  0
VERTEX
  8
Capteurs-PCB45
 10
-36.0
 20
1.0
 42
0.0
  0
VERTEX
  8
Capteurs-PCB45
 10
-36.0
 20
2.0
 42
0.0
  0
VERTEX
  8
Capteurs-PCB45
 10
-34.0
 20
4.0
 42
0.0
  0
VERTEX
  8
Capteurs-PCB45
 10
-34.0
 20
10.0
 42
0.0
  0
VERTEX
  8
Capteurs-PCB45
 10
-36.0
 20
12.0
 42
0.0
  0
VERTEX
  8
Capteurs-PCB45
 10
-36.0
 20
14.5
 42
0.0
  0
VERTEX
  8
Capteurs-PCB45
 10
-36.0
 20
20.0
 42
0.0
  0
VERTEX
  8
Capteurs-PCB45
 10
-35.0
 20
20.0
 42
0.0
  0
VERTEX
  8
Capteurs-PCB45
 10
-34.21
 20
20.0
 42
1.0
  0
VERTEX
  8
Capteurs-PCB45
 10
-33.5
 20
20.71
 42
0.0
  0
VERTEX
  8
Capteurs-PCB45
 10
-33.5
 20
21.5
 42
-0.4142135623731
  0
VERTEX
  8
Capteurs-PCB45
 10
-33.0
 20
22.0
 42
0.0
  0
VERTEX
  8
Capteurs-PCB45
 10
-31.0
 20
22.0
 42
-0.4142135623731
  0
VERTEX
  8
Capteurs-PCB45
 10
-30.5
 20
21.5
 42
0.0
  0
VERTEX
  8
Capteurs-PCB45
 10
-30.4999999999998
 20
21.2
 42
0.0
  0
VERTEX
  8
Capteurs-PCB45
 10
-31.5
 20
21.2
 42
1.0
  0
VERTEX
  8
Capteurs-PCB45
 10
-31.5
 20
20.2
 42
0.0
  0
VERTEX
  8
Capteurs-PCB45
 10
-30.5
 20
20.2
 42
0.0
  0
VERTEX
  8
Capteurs-PCB45
 10
-30.5
 20
14.71
 42
1.0
  0
VERTEX
  8
Capteurs-PCB45
 10
-29.79
 20
14.0
 42
0.0
  0
VERTEX
  8
Capteurs-PCB45
 10
-15.0
 20
14.0
 42
0.0
  0
VERTEX
  8
Capteurs-PCB45
 10
-15.0
 20
13.21
 42
1.0
  0
VERTEX
  8
Capteurs-PCB45
 10
-14.29
 20
12.5
 42
0.0
  0
VERTEX
  8
Capteurs-PCB45
 10
-11.71
 20
12.5
 42
1.0
  0
VERTEX
  8
Capteurs-PCB45
 10
-11.0
 20
13.21
 42
0.0
  0
VERTEX
  8
Capteurs-PCB45
 10
-11.0
 20
14.0
 42
0.0
  0
VERTEX
  8
Capteurs-PCB45
 10
-6.4807406984079
 20
14.0
 42
-0.0860809383131
  0
VERTEX
  8
Capteurs-PCB45
 10
-4.25
 20
15.8612159321677
 42
-0.0407440374526
  0
VERTEX
  8
Capteurs-PCB45
 10
-3.0
 20
16.4529868602934
 42
0.0
  0
VERTEX
  8
Capteurs-PCB45
 10
-3.0
 20
20.0
 42
0.0
  0
VERTEX
  8
Capteurs-PCB45
 10
-2.21
 20
20.0
 42
1.0
  0
VERTEX
  8
Capteurs-PCB45
 10
-1.5
 20
20.71
 42
0.0
  0
VERTEX
  8
Capteurs-PCB45
 10
-1.5
 20
21.5
 42
-0.4142135623731
  0
VERTEX
  8
Capteurs-PCB45
 10
-1.0
 20
22.0
 42
0.0
  0
VERTEX
  8
Capteurs-PCB45
 10
1.0
 20
22.0
 42
-0.4142135623731
  0
VERTEX
  8
Capteurs-PCB45
 10
1.5
 20
21.5
 42
0.0
  0
VERTEX
  8
Capteurs-PCB45
 10
1.5000000000002
 20
21.2
 42
0.0
  0
VERTEX
  8
Capteurs-PCB45
 10
0.5
 20
21.2
 42
1.0
  0
VERTEX
  8
Capteurs-PCB45
 10
0.5
 20
20.2
 42
0.0
  0
VERTEX
  8
Capteurs-PCB45
 10
1.5
 20
20.2
 42
0.0
  0
VERTEX
  8
Capteurs-PCB45
 10
1.5
 20
20.0
 42
1.0
  0
VERTEX
  8
Capteurs-PCB45
 10
2.5
 20
20.0
 42
0.0
  0
VERTEX
  8
Capteurs-PCB45
 10
3.5
 20
20.0
 42
0.0
  0
VERTEX
  8
Capteurs-PCB45
 10
3.5
 20
19.0
 42
0.0
  0
VERTEX
  8
Capteurs-PCB45
 10
3.0
 20
18.5
 42
0.0
  0
VERTEX
  8
Capteurs-PCB45
 10
3.0
 20
16.4529868602934
 42
-0.0407440374526
  0
VERTEX
  8
Capteurs-PCB45
 10
4.25
 20
15.8612159321677
 42
-0.0860809383131
  0
VERTEX
  8
Capteurs-PCB45
 10
6.4807406984079
 20
14.0
 42
0.0
  0
VERTEX
  8
Capteurs-PCB45
 10
11.0
 20
14.0
 42
0.0
  0
VERTEX
  8
Capteurs-PCB45
 10
11.0
 20
13.21
 42
1.0
  0
VERTEX
  8
Capteurs-PCB45
 10
11.71
 20
12.5
 42
0.0
  0
VERTEX
  8
Capteurs-PCB45
 10
14.29
 20
12.5
 42
1.0
  0
VERTEX
  8
Capteurs-PCB45
 10
15.0
 20
13.21
 42
0.0
  0
VERTEX
  8
Capteurs-PCB45
 10
15.0
 20
14.0
 42
0.0
  0
VERTEX
  8
Capteurs-PCB45
 10
27.29
 20
14.0
 42
1.0
  0
VERTEX
  8
Capteurs-PCB45
 10
28.0
 20
14.71
 42
0.0
  0
VERTEX
  8
Capteurs-PCB45
 10
28.0
 20
20.0
 42
0.0
  0
VERTEX
  8
Capteurs-PCB45
 10
28.0
 20
21.5
 42
-0.4142135623731
  0
VERTEX
  8
Capteurs-PCB45
 10
28.5
 20
22.0
 42
0.0
  0
VERTEX
  8
Capteurs-PCB45
 10
30.5
 20
22.0
 42
-0.4142135623731
  0
VERTEX
  8
Capteurs-PCB45
 10
31.0
 20
21.5
 42
0.0
  0
VERTEX
  8
Capteurs-PCB45
 10
31.0000000000002
 20
21.2
 42
0.0
  0
VERTEX
  8
Capteurs-PCB45
 10
30.0
 20
21.2
 42
1.0
  0
VERTEX
  8
Capteurs-PCB45
 10
30.0
 20
20.2
 42
0.0
  0
VERTEX
  8
Capteurs-PCB45
 10
31.0
 20
20.2
 42
0.0
  0
VERTEX
  8
Capteurs-PCB45
 10
31.0
 20
20.0
 42
1.0
  0
VERTEX
  8
Capteurs-PCB45
 10
32.0
 20
20.0
 42
0.0
  0
VERTEX
  8
Capteurs-PCB45
 10
33.5
 20
20.0
 42
0.0
  0
VERTEX
  8
Capteurs-PCB45
 10
33.5
 20
14.5
 42
0.0
  0
VERTEX
  8
Capteurs-PCB45
 10
33.5
 20
9.0
 42
1.0
  0
VERTEX
  8
Capteurs-PCB45
 10
34.5
 20
9.0
 42
0.0
  0
VERTEX
  8
Capteurs-PCB45
 10
42.5
 20
9.0
 42
0.0
  0
VERTEX
  8
Capteurs-PCB45
 10
42.5
 20
8.0
 42
0.0
  0
VERTEX
  8
Capteurs-PCB45
 10
41.0
 20
6.5
 42
0.0
  0
VERTEX
  8
Capteurs-PCB45
 10
41.0
 20
3.5
 42
0.0
  0
VERTEX
  8
Capteurs-PCB45
 10
42.5
 20
2.0
 42
0.0
  0
VERTEX
  8
Capteurs-PCB45
 10
42.5
 20
1.0
 42
0.0
  0
VERTEX
  8
Capteurs-PCB45
 10
41.71
 20
1.0
 42
1.0
  0
VERTEX
  8
Capteurs-PCB45
 10
41.0
 20
0.29
 42
0.0
  0
VERTEX
  8
Capteurs-PCB45
 10
41.0
 20
-0.5
 42
-0.4142135623731
  0
VERTEX
  8
Capteurs-PCB45
 10
40.5
 20
-1.0
 42
0.0
  0
VERTEX
  8
Capteurs-PCB45
 10
38.5
 20
-1.0
 42
-0.4142135623731
  0
SEQEND
  0
ENDSEC
  0
EOF
