  0
SECTION
  2
HEADER
  9
$ACADVER
  1
AC1009
  9
$INSBASE
 10
0.0
 20
0.0
 30
0.0
  9
$EXTMIN
 10
0.0
 20
0.0
 30
0.0
  9
$EXTMAX
 10
0.0
 20
0.0
 30
0.0
  0
ENDSEC
  0
SECTION
  2
TABLES
  0
TABLE
  2
VPORT
 70
0
  0
ENDTAB
  0
TABLE
  2
LTYPE
 70
1
  0
LTYPE
  2
CONTINUOUS
 70
0
  3
Solid line
 72
65
 73
0
 40
0.0
  0
ENDTAB
  0
TABLE
  2
LAYER
 70
1
  0
LAYER
  2
0
 70
64
 62
7
  6
continuous
  0
ENDTAB
  0
TABLE
  2
STYLE
 70
1
  0
STYLE
  2
STANDARD
 70
0
 40
0
 41
1.0
 50
0.0
 71
0
 42
1
 3
ARIAL.TTF
 4

  0
ENDTAB
  0
TABLE
  2
VIEW
 70
0
  0
ENDTAB
  0
ENDSEC
  0
SECTION
  2
BLOCKS
  0
BLOCK
  8
SupportsMoteurs
  2
CLONE091
 70
0
 10
0.0
 20
0.0
 30
0.0
  3
CLONE091
  0
ARC
  8
SupportsMoteurs
 62
0
 10
15.5000005847
 20
6.99999990892
 30
0.0
 40
1.50000058469
 50
155.948481941
 51
179.99999648
  0
LINE
  8
SupportsMoteurs
 62
0
 10
14.130231
 20
7.611337
 30
0.0
 11
15.369769
 21
10.388664
 31
0.0
  0
LINE
  8
SupportsMoteurs
 62
0
 10
14.0
 20
5.809475
 30
0.0
 11
14.0
 21
7.0
 31
0.0
  0
ARC
  8
SupportsMoteurs
 62
0
 10
14.0000008003
 20
11.000000796
 30
0.0
 40
1.49999919969
 50
-24.0515293289
 51
-3.04020152078e-05
  0
ARC
  8
SupportsMoteurs
 62
0
 10
19.0000008629
 20
5.80947481417
 30
0.0
 40
5.00000086287
 50
179.999997909
 51
-151.044978181
  0
LINE
  8
SupportsMoteurs
 62
0
 10
15.5
 20
11.0
 30
0.0
 11
15.5
 21
15.0
 31
0.0
  0
ARC
  8
SupportsMoteurs
 62
0
 10
8.5000008497
 20
-2.22044604925e-16
 30
0.0
 40
6.99999904934
 50
-28.955024674
 51
28.955024674
  0
ARC
  8
SupportsMoteurs
 62
0
 10
14.0
 20
15.0
 30
0.0
 40
1.5
 50
-0.0
 51
90.0
  0
ARC
  8
SupportsMoteurs
 62
0
 10
19.0000008629
 20
-5.80947481417
 30
0.0
 40
5.00000086287
 50
151.044978181
 51
-179.999997909
  0
LINE
  8
SupportsMoteurs
 62
0
 10
14.0
 20
16.5
 30
0.0
 11
12.5
 21
16.5
 31
0.0
  0
LINE
  8
SupportsMoteurs
 62
0
 10
14.0
 20
-7.0
 30
0.0
 11
14.0
 21
-5.809475
 31
0.0
  0
ARC
  8
SupportsMoteurs
 62
0
 10
12.5000009126
 20
15.0000001622
 30
0.0
 40
1.49999983776
 50
90.0000348586
 51
113.019474745
  0
ARC
  8
SupportsMoteurs
 62
0
 10
15.5000005847
 20
-6.99999990892
 30
0.0
 40
1.50000058469
 50
-179.99999648
 51
-155.948481941
  0
LINE
  8
SupportsMoteurs
 62
0
 10
11.913435
 20
16.380558
 30
0.0
 11
9.172391
 21
15.215957
 31
0.0
  0
LINE
  8
SupportsMoteurs
 62
0
 10
15.369769
 20
-10.388664
 30
0.0
 11
14.130231
 21
-7.611337
 31
0.0
  0
ARC
  8
SupportsMoteurs
 62
0
 10
10.1499996946
 20
12.9150262822
 30
0.0
 40
2.50000018561
 50
113.019441423
 51
-139.373111626
  0
ARC
  8
SupportsMoteurs
 62
0
 10
14.0000008003
 20
-11.000000796
 30
0.0
 40
1.49999919969
 50
3.04020152078e-05
 51
24.0515293289
  0
LINE
  8
SupportsMoteurs
 62
0
 10
8.252585
 20
11.2872
 30
0.0
 11
8.866139
 21
10.572035
 31
0.0
  0
LINE
  8
SupportsMoteurs
 62
0
 10
15.5
 20
-15.0
 30
0.0
 11
15.5
 21
-11.0
 31
0.0
  0
ARC
  8
SupportsMoteurs
 62
0
 10
7.50000016056
 20
9.40000047755
 30
0.0
 40
1.80000006957
 50
-61.7800815582
 51
40.6268733182
  0
ARC
  8
SupportsMoteurs
 62
0
 10
14.0
 20
-15.0
 30
0.0
 40
1.5
 50
-90.0
 51
0.0
  0
LINE
  8
SupportsMoteurs
 62
0
 10
8.351143
 20
7.81395
 30
0.0
 11
5.26813
 21
6.209269
 31
0.0
  0
LINE
  8
SupportsMoteurs
 62
0
 10
12.5
 20
-16.5
 30
0.0
 11
14.0
 21
-16.5
 31
0.0
  0
ARC
  8
SupportsMoteurs
 62
0
 10
8.49999966619
 20
-1.7763568394e-15
 30
0.0
 40
7.00000021811
 50
117.496579077
 51
-117.496579077
  0
ARC
  8
SupportsMoteurs
 62
0
 10
12.5000009126
 20
-15.0000001622
 30
0.0
 40
1.49999983776
 50
-113.019474745
 51
-90.0000348586
  0
LINE
  8
SupportsMoteurs
 62
0
 10
5.26813
 20
-6.209269
 30
0.0
 11
8.351143
 21
-7.81395
 31
0.0
  0
LINE
  8
SupportsMoteurs
 62
0
 10
9.172391
 20
-15.215957
 30
0.0
 11
11.913435
 21
-16.380558
 31
0.0
  0
ARC
  8
SupportsMoteurs
 62
0
 10
7.50000016056
 20
-9.40000047755
 30
0.0
 40
1.80000006957
 50
-40.6268733182
 51
61.7800815582
  0
ARC
  8
SupportsMoteurs
 62
0
 10
10.1499996946
 20
-12.9150262822
 30
0.0
 40
2.50000018561
 50
139.373111626
 51
-113.019441423
  0
LINE
  8
SupportsMoteurs
 62
0
 10
8.866139
 20
-10.572035
 30
0.0
 11
8.252585
 21
-11.2872
 31
0.0
  0
ARC
  8
SupportsMoteurs
 62
0
 10
8.50000009637
 20
-9.01919761098e-07
 30
0.0
 40
5.84999980148
 50
-29.9999909225
 51
29.9999321575
  0
ARC
  8
SupportsMoteurs
 62
0
 10
12.8301269155
 20
-2.50000014632
 30
0.0
 40
0.850000352285
 50
150.000002321
 51
-29.9999749013
  0
ARC
  8
SupportsMoteurs
 62
0
 10
8.50000018202
 20
5.98079361813e-07
 30
0.0
 40
4.14999977273
 50
-30.0000113462
 51
29.9999285088
  0
ARC
  8
SupportsMoteurs
 62
0
 10
12.830127032
 20
2.49999964075
 30
0.0
 40
0.849999602307
 50
29.9994985973
 51
-149.999701145
  0
CIRCLE
  8
SupportsMoteurs
 62
0
 10
11.0
 20
-4.330127
 30
0.0
 40
0.85
  0
CIRCLE
  8
SupportsMoteurs
 62
0
 10
8.5
 20
0.0
 30
0.0
 40
3.1
  0
ARC
  8
SupportsMoteurs
 62
0
 10
8.49999992692
 20
3.28011307005e-07
 30
0.0
 40
4.14999967199
 50
89.9999987926
 51
149.999938846
  0
ARC
  8
SupportsMoteurs
 62
0
 10
4.16987303198
 20
2.50000035926
 30
0.0
 40
0.850000236281
 50
149.999492314
 51
-29.9997074289
  0
ARC
  8
SupportsMoteurs
 62
0
 10
8.49999967069
 20
-1.73221929689e-07
 30
0.0
 40
5.85000017322
 50
89.9999966933
 51
149.999919855
  0
ARC
  8
SupportsMoteurs
 62
0
 10
8.50000016895
 20
5.0
 30
0.0
 40
0.85
 50
-90.0000113908
 51
90.0000113908
  0
ARC
  8
SupportsMoteurs
 62
0
 10
4.16987341553
 20
-2.49999985369
 30
0.0
 40
0.849999919272
 50
29.9999917534
 51
-149.99998547
  0
ARC
  8
SupportsMoteurs
 62
0
 10
8.50000039103
 20
-6.00642104942e-08
 30
0.0
 40
4.14999993994
 50
-150.000000479
 51
-90.0000606179
  0
ARC
  8
SupportsMoteurs
 62
0
 10
8.49999993603
 20
-5.00000000001
 30
0.0
 40
0.850000000023
 50
-90.0005349422
 51
90.0002653149
  0
ARC
  8
SupportsMoteurs
 62
0
 10
8.50000023288
 20
-6.56911808505e-07
 30
0.0
 40
5.84999934309
 50
-150.000003715
 51
-90.0000806308
  0
CIRCLE
  8
SupportsMoteurs
 62
0
 10
3.5
 20
0.0
 30
0.0
 40
0.85
  0
CIRCLE
  8
SupportsMoteurs
 62
0
 10
10.15
 20
-12.915026
 30
0.0
 40
1.0
  0
ARC
  8
SupportsMoteurs
 62
0
 10
13.0000000264
 20
-11.4999999847
 30
0.0
 40
0.749999984747
 50
90.0000019091
 51
-149.999997982
  0
LINE
  8
SupportsMoteurs
 62
0
 10
13.5
 20
-10.75
 30
0.0
 11
13.0
 21
-10.75
 31
0.0
  0
ARC
  8
SupportsMoteurs
 62
0
 10
13.4999999736
 20
-11.4999999847
 30
0.0
 40
0.749999984747
 50
-30.0000020183
 51
89.9999980909
  0
ARC
  8
SupportsMoteurs
 62
0
 10
13.499999956
 20
-11.5000001678
 30
0.0
 40
0.749999908412
 50
-48.1896743375
 51
-29.9999892333
  0
LINE
  8
SupportsMoteurs
 62
0
 10
14.0
 20
-13.940983
 30
0.0
 11
14.0
 21
-12.059017
 31
0.0
  0
ARC
  8
SupportsMoteurs
 62
0
 10
13.4999999701
 20
-14.4999999647
 30
0.0
 40
0.749999997782
 50
-30.0000032141
 51
48.1896818901
  0
ARC
  8
SupportsMoteurs
 62
0
 10
13.4999999736
 20
-14.5000000458
 30
0.0
 40
0.749999954241
 50
-89.9999980909
 51
-29.9999979817
  0
LINE
  8
SupportsMoteurs
 62
0
 10
13.0
 20
-15.25
 30
0.0
 11
13.5
 21
-15.25
 31
0.0
  0
ARC
  8
SupportsMoteurs
 62
0
 10
13.0000000264
 20
-14.5000000458
 30
0.0
 40
0.749999954241
 50
-150.000002018
 51
-90.0000019091
  0
ARC
  8
SupportsMoteurs
 62
0
 10
13.0000000299
 20
-14.4999999647
 30
0.0
 40
0.749999997782
 50
131.81031811
 51
-149.999996786
  0
LINE
  8
SupportsMoteurs
 62
0
 10
12.5
 20
-12.059017
 30
0.0
 11
12.5
 21
-13.940983
 31
0.0
  0
ARC
  8
SupportsMoteurs
 62
0
 10
13.000000044
 20
-11.5000001678
 30
0.0
 40
0.749999908412
 50
-150.000010767
 51
-131.810325662
  0
LINE
  8
SupportsMoteurs
 62
0
 10
13.0
 20
10.75
 30
0.0
 11
13.5
 21
10.75
 31
0.0
  0
ARC
  8
SupportsMoteurs
 62
0
 10
13.0000000264
 20
11.4999999847
 30
0.0
 40
0.749999984747
 50
149.999997982
 51
-90.0000019091
  0
ARC
  8
SupportsMoteurs
 62
0
 10
13.000000044
 20
11.5000001678
 30
0.0
 40
0.749999908412
 50
131.810325662
 51
150.000010767
  0
LINE
  8
SupportsMoteurs
 62
0
 10
12.5
 20
13.940983
 30
0.0
 11
12.5
 21
12.059017
 31
0.0
  0
ARC
  8
SupportsMoteurs
 62
0
 10
13.0000000299
 20
14.4999999647
 30
0.0
 40
0.749999997782
 50
149.999996786
 51
-131.81031811
  0
ARC
  8
SupportsMoteurs
 62
0
 10
13.0000000264
 20
14.5000000458
 30
0.0
 40
0.749999954241
 50
90.0000019091
 51
150.000002018
  0
LINE
  8
SupportsMoteurs
 62
0
 10
13.5
 20
15.25
 30
0.0
 11
13.0
 21
15.25
 31
0.0
  0
ARC
  8
SupportsMoteurs
 62
0
 10
13.4999999736
 20
14.5000000458
 30
0.0
 40
0.749999954241
 50
29.9999979817
 51
89.9999980909
  0
ARC
  8
SupportsMoteurs
 62
0
 10
13.4999999701
 20
14.4999999647
 30
0.0
 40
0.749999997782
 50
-48.1896818901
 51
30.0000032141
  0
LINE
  8
SupportsMoteurs
 62
0
 10
14.0
 20
12.059017
 30
0.0
 11
14.0
 21
13.940983
 31
0.0
  0
ARC
  8
SupportsMoteurs
 62
0
 10
13.499999956
 20
11.5000001678
 30
0.0
 40
0.749999908412
 50
29.9999892333
 51
48.1896743375
  0
ARC
  8
SupportsMoteurs
 62
0
 10
13.4999999736
 20
11.4999999847
 30
0.0
 40
0.749999984747
 50
-89.9999980909
 51
30.0000020183
  0
CIRCLE
  8
SupportsMoteurs
 62
0
 10
10.15
 20
12.915026
 30
0.0
 40
1.0
  0
CIRCLE
  8
SupportsMoteurs
 62
0
 10
11.0
 20
4.330127
 30
0.0
 40
0.85
  0
ENDBLK
  0
ENDSEC
  0
SECTION
  2
ENTITIES
  0
INSERT
  2
CLONE091
  8
SupportsMoteurs
 62
0
 10
0.0
 20
0.0
 30
0.0
  0
ENDSEC
  0
EOF
