  0
SECTION
  2
HEADER
  9
$ACADVER
  1
AC1009
  9
$EXTMAX
 10
16.5
 20
17.0
 30
0.0
  9
$EXTMIN
 10
-16.5
 20
1.0
 30
0.0
  9
$INSUNITS
 70
     4
  9
$LUNITS
 70
     2
  9
$LUPREC
 70
     4
  9
$MEASUREMENT
 70
     1
  0
ENDSEC
  0
SECTION
  2
TABLES
  0
TABLE
  2
LAYER
 70
     1
  0
LAYER
  2
0
 70
     0
 62
     7
  6
Continuous
  0
LAYER
  2
SupportsMoteurs
 70
     0
 62
    70
  6
Continuous
  0
ENDTAB
  0
TABLE
  2
APPID
 70
     1
  0
APPID
  2
ACAD
 70
     0
  0
ENDTAB
  0
ENDSEC
  0
SECTION
  2
ENTITIES
  0
CIRCLE
  8
SupportsMoteurs
 10
-12.9150261324
 20
10.15
 30
0.0
 40
1.0
  0
POLYLINE
  8
SupportsMoteurs
 66
     1
 10
0.0
 20
0.0
 30
0.0
 70
     1
  0
VERTEX
  8
SupportsMoteurs
 10
-10.75
 20
13.5
 42
0.5773502691896
  0
VERTEX
  8
SupportsMoteurs
 10
-11.875
 20
14.1495190528383
 42
0.0795345451426
  0
VERTEX
  8
SupportsMoteurs
 10
-12.059016994375
 20
14.0
 42
0.0
  0
VERTEX
  8
SupportsMoteurs
 10
-13.9409830056251
 20
14.0
 42
0.3550502914305
  0
VERTEX
  8
SupportsMoteurs
 10
-14.875
 20
14.1495190528383
 42
0.2679491924311
  0
VERTEX
  8
SupportsMoteurs
 10
-15.25
 20
13.5
 42
0.0
  0
VERTEX
  8
SupportsMoteurs
 10
-15.25
 20
13.0
 42
0.2679491924311
  0
VERTEX
  8
SupportsMoteurs
 10
-14.875
 20
12.3504809471617
 42
0.3550502914305
  0
VERTEX
  8
SupportsMoteurs
 10
-13.9409830056251
 20
12.5
 42
0.0
  0
VERTEX
  8
SupportsMoteurs
 10
-12.0590169943749
 20
12.5
 42
0.0795345451426
  0
VERTEX
  8
SupportsMoteurs
 10
-11.875
 20
12.3504809471617
 42
0.5773502691896
  0
VERTEX
  8
SupportsMoteurs
 10
-10.75
 20
13.0
 42
0.0
  0
SEQEND
  0
CIRCLE
  8
SupportsMoteurs
 10
12.9150261324
 20
10.15
 30
0.0
 40
1.0
  0
POLYLINE
  8
SupportsMoteurs
 66
     1
 10
0.0
 20
0.0
 30
0.0
 70
     1
  0
VERTEX
  8
SupportsMoteurs
 10
10.75
 20
13.5
 42
-0.5773502691896
  0
VERTEX
  8
SupportsMoteurs
 10
11.875
 20
14.1495190528383
 42
-0.0795345451426
  0
VERTEX
  8
SupportsMoteurs
 10
12.059016994375
 20
14.0
 42
0.0
  0
VERTEX
  8
SupportsMoteurs
 10
13.9409830056251
 20
14.0
 42
-0.3550502914305
  0
VERTEX
  8
SupportsMoteurs
 10
14.875
 20
14.1495190528383
 42
-0.2679491924311
  0
VERTEX
  8
SupportsMoteurs
 10
15.25
 20
13.5
 42
0.0
  0
VERTEX
  8
SupportsMoteurs
 10
15.25
 20
13.0
 42
-0.2679491924311
  0
VERTEX
  8
SupportsMoteurs
 10
14.875
 20
12.3504809471617
 42
-0.3550502914305
  0
VERTEX
  8
SupportsMoteurs
 10
13.9409830056251
 20
12.5
 42
0.0
  0
VERTEX
  8
SupportsMoteurs
 10
12.0590169943749
 20
12.5
 42
-0.0795345451426
  0
VERTEX
  8
SupportsMoteurs
 10
11.875
 20
12.3504809471617
 42
-0.5773502691896
  0
VERTEX
  8
SupportsMoteurs
 10
10.75
 20
13.0
 42
0.0
  0
SEQEND
  0
POLYLINE
  8
SupportsMoteurs
 66
     1
 10
0.0
 20
0.0
 30
0.0
 70
     1
  0
VERTEX
  8
SupportsMoteurs
 10
0.0
 20
2.0
 42
-0.1316524975874
  0
VERTEX
  8
SupportsMoteurs
 10
-3.25
 20
2.8708348754012
 42
-0.5773502691896
  0
VERTEX
  8
SupportsMoteurs
 10
-3.25
 20
14.1291651245989
 42
-0.1316524975874
  0
VERTEX
  8
SupportsMoteurs
 10
0.0
 20
15.0
 42
-0.1316524975874
  0
VERTEX
  8
SupportsMoteurs
 10
3.25
 20
14.1291651245989
 42
-0.5773502691896
  0
VERTEX
  8
SupportsMoteurs
 10
3.25
 20
2.8708348754012
 42
-0.1316524975874
  0
SEQEND
  0
POLYLINE
  8
SupportsMoteurs
 66
     1
 10
0.0
 20
0.0
 30
0.0
 70
     1
  0
VERTEX
  8
SupportsMoteurs
 10
7.8139497845495
 20
8.3511431807101
 42
-0.1366575884084
  0
VERTEX
  8
SupportsMoteurs
 10
8.482285438676
 20
9.0484831235548
 42
-0.3214507105806
  0
VERTEX
  8
SupportsMoteurs
 10
10.5720347994412
 20
8.8661385101441
 42
0.0
  0
VERTEX
  8
SupportsMoteurs
 10
11.287200022065
 20
8.2525854025776
 42
0.5073698129874
  0
VERTEX
  8
SupportsMoteurs
 10
15.2159567056777
 20
9.1723914398104
 42
0.0
  0
VERTEX
  8
SupportsMoteurs
 10
16.3805583439666
 20
11.9134348638862
 42
0.1007803884642
  0
VERTEX
  8
SupportsMoteurs
 10
16.5
 20
12.5
 42
0.0
  0
VERTEX
  8
SupportsMoteurs
 10
16.5
 20
14.0
 42
0.4142135623731
  0
VERTEX
  8
SupportsMoteurs
 10
15.0
 20
15.5
 42
0.0
  0
VERTEX
  8
SupportsMoteurs
 10
11.0
 20
15.5
 42
0.1053314293847
  0
VERTEX
  8
SupportsMoteurs
 10
10.388663604716
 20
15.3697692549481
 42
0.0
  0
VERTEX
  8
SupportsMoteurs
 10
7.6113365563515
 20
14.1302308169373
 42
-0.1053314984621
  0
VERTEX
  8
SupportsMoteurs
 10
7.0
 20
14.0
 42
0.0
  0
VERTEX
  8
SupportsMoteurs
 10
6.7307406984079
 20
14.0
 42
-0.1779931982612
  0
VERTEX
  8
SupportsMoteurs
 10
6.3161903967923
 20
14.1882105157482
 42
0.0786777978979
  0
VERTEX
  8
SupportsMoteurs
 10
4.25
 20
15.8612159321677
 42
0.1316524975874
  0
VERTEX
  8
SupportsMoteurs
 10
0.0
 20
17.0
 42
0.1316524975874
  0
VERTEX
  8
SupportsMoteurs
 10
-4.25
 20
15.8612159321677
 42
0.0786777978979
  0
VERTEX
  8
SupportsMoteurs
 10
-6.3161903967923
 20
14.1882105157483
 42
-0.1779931982612
  0
VERTEX
  8
SupportsMoteurs
 10
-6.7307406984079
 20
14.0
 42
0.0
  0
VERTEX
  8
SupportsMoteurs
 10
-7.0
 20
14.0
 42
-0.1053314984621
  0
VERTEX
  8
SupportsMoteurs
 10
-7.6113365563515
 20
14.1302308169373
 42
0.0
  0
VERTEX
  8
SupportsMoteurs
 10
-10.388663604716
 20
15.3697692549481
 42
0.1053314293847
  0
VERTEX
  8
SupportsMoteurs
 10
-11.0
 20
15.5
 42
0.0
  0
VERTEX
  8
SupportsMoteurs
 10
-15.0
 20
15.5
 42
0.4142135623731
  0
VERTEX
  8
SupportsMoteurs
 10
-16.5
 20
14.0
 42
0.0
  0
VERTEX
  8
SupportsMoteurs
 10
-16.5
 20
12.5
 42
0.1007803884642
  0
VERTEX
  8
SupportsMoteurs
 10
-16.3805583439666
 20
11.9134348638862
 42
0.0
  0
VERTEX
  8
SupportsMoteurs
 10
-15.2159567056777
 20
9.1723914398104
 42
0.5073698129874
  0
VERTEX
  8
SupportsMoteurs
 10
-11.287200022065
 20
8.2525854025776
 42
0.0
  0
VERTEX
  8
SupportsMoteurs
 10
-10.5720347994412
 20
8.8661385101441
 42
-0.3214507105806
  0
VERTEX
  8
SupportsMoteurs
 10
-8.482285438676
 20
9.0484831235548
 42
-0.1366575884084
  0
VERTEX
  8
SupportsMoteurs
 10
-7.8139497845495
 20
8.3511431807101
 42
0.0
  0
VERTEX
  8
SupportsMoteurs
 10
-7.1558825121031
 20
6.2542605954881
 42
0.1879421896233
  0
VERTEX
  8
SupportsMoteurs
 10
-3.75
 20
2.0048094716167
 42
0.1316524975874
  0
VERTEX
  8
SupportsMoteurs
 10
0.0
 20
1.0
 42
0.1316524975874
  0
VERTEX
  8
SupportsMoteurs
 10
3.75
 20
2.0048094716167
 42
0.1879421896233
  0
VERTEX
  8
SupportsMoteurs
 10
7.1558824796193
 20
6.254260491981
 42
0.0
  0
SEQEND
  0
ENDSEC
  0
EOF
