  0
SECTION
  2
HEADER
  9
$ACADVER
  1
AC1009
  9
$INSBASE
 10
0.0
 20
0.0
 30
0.0
  9
$EXTMIN
 10
0.0
 20
0.0
 30
0.0
  9
$EXTMAX
 10
0.0
 20
0.0
 30
0.0
  0
ENDSEC
  0
SECTION
  2
TABLES
  0
TABLE
  2
VPORT
 70
0
  0
ENDTAB
  0
TABLE
  2
LTYPE
 70
1
  0
LTYPE
  2
CONTINUOUS
 70
0
  3
Solid line
 72
65
 73
0
 40
0.0
  0
ENDTAB
  0
TABLE
  2
LAYER
 70
1
  0
LAYER
  2
0
 70
64
 62
7
  6
continuous
  0
ENDTAB
  0
TABLE
  2
STYLE
 70
1
  0
STYLE
  2
STANDARD
 70
0
 40
0
 41
1.0
 50
0.0
 71
0
 42
1
 3
ARIAL.TTF
 4

  0
ENDTAB
  0
TABLE
  2
VIEW
 70
0
  0
ENDTAB
  0
ENDSEC
  0
SECTION
  2
BLOCKS
  0
BLOCK
  8
Base
  2
PAD034
 70
0
 10
0.0
 20
0.0
 30
0.0
  3
PAD034
  0
LINE
  8
Base
 62
0
 10
23.635547
 20
-35.126206
 30
0.0
 11
9.272202
 21
-42.453887
 31
0.0
  0
ARC
  8
Base
 62
0
 10
20.000000071
 20
-28.0000010218
 30
0.0
 40
7.99999992896
 50
-62.9708745956
 51
7.34443860949e-06
  0
LINE
  8
Base
 62
0
 10
28.0
 20
-27.0
 30
0.0
 11
28.0
 21
-28.0
 31
0.0
  0
ARC
  8
Base
 62
0
 10
24.6000002629
 20
-26.9999999265
 30
0.0
 40
3.39999973709
 50
-1.20741826973e-06
 51
71.0753534523
  0
ARC
  8
Base
 62
0
 10
27.0000003976
 20
-19.9999998303
 30
0.0
 40
4.00000039762
 50
-179.999997585
 51
-108.924643982
  0
LINE
  8
Base
 62
0
 10
23.0
 20
20.0
 30
0.0
 11
23.0
 21
-20.0
 31
0.0
  0
ARC
  8
Base
 62
0
 10
25.9999999415
 20
20.0000000585
 30
0.0
 40
2.99999994154
 50
89.9999988836
 51
-179.999999146
  0
ARC
  8
Base
 62
0
 10
26.0000030664
 20
31.8284191196
 30
0.0
 40
8.82841911955
 50
-90.0000199005
 51
-45.0000008532
  0
LINE
  8
Base
 62
0
 10
33.828427
 20
27.171574
 30
0.0
 11
32.242638
 21
25.585784
 31
0.0
  0
ARC
  8
Base
 62
0
 10
31.0000002993
 20
30.0000011255
 30
0.0
 40
3.99999970069
 50
-45.0000043028
 51
-1.61089689396e-05
  0
LINE
  8
Base
 62
0
 10
35.0
 20
31.5
 30
0.0
 11
35.0
 21
30.0
 31
0.0
  0
ARC
  8
Base
 62
0
 10
31.0355326266
 20
31.4999998464
 30
0.0
 40
3.9644673734
 50
2.09130978915e-06
 51
45.0000079736
  0
LINE
  8
Base
 62
0
 10
17.071068
 20
51.071068
 30
0.0
 11
33.838834
 21
34.303302
 31
0.0
  0
ARC
  8
Base
 62
0
 10
10.0000004267
 20
44.0000001217
 30
0.0
 40
9.99999987828
 50
45.0000012355
 51
90.0000024447
  0
LINE
  8
Base
 62
0
 10
0.0
 20
54.0
 30
0.0
 11
10.0
 21
54.0
 31
0.0
  0
LINE
  8
Base
 62
0
 10
-10.0
 20
54.0
 30
0.0
 11
0.0
 21
54.0
 31
0.0
  0
ARC
  8
Base
 62
0
 10
-10.0000011501
 20
43.999999454
 30
0.0
 40
10.000000546
 50
89.9999934103
 51
135.000005283
  0
LINE
  8
Base
 62
0
 10
-33.838835
 20
34.3033
 30
0.0
 11
-17.07107
 21
51.071067
 31
0.0
  0
ARC
  8
Base
 62
0
 10
-31.0355337007
 20
31.4999992913
 30
0.0
 40
3.96446629931
 50
135.000006035
 51
179.999989755
  0
LINE
  8
Base
 62
0
 10
-35.0
 20
30.0
 30
0.0
 11
-35.0
 21
31.5
 31
0.0
  0
ARC
  8
Base
 62
0
 10
-30.9999996017
 20
30.0000004145
 30
0.0
 40
4.00000039826
 50
-179.999994085
 51
-134.999979579
  0
LINE
  8
Base
 62
0
 10
-32.242636
 20
25.585783
 30
0.0
 11
-33.828426
 21
27.171572
 31
0.0
  0
ARC
  8
Base
 62
0
 10
-26.0000026213
 20
31.8284177797
 30
0.0
 40
8.82841777973
 50
-134.99999357
 51
-89.9999894776
  0
ARC
  8
Base
 62
0
 10
-26.0000000837
 20
19.9999999163
 30
0.0
 40
3.00000008368
 50
1.7075472925e-06
 51
90.0000175003
  0
LINE
  8
Base
 62
0
 10
-23.0
 20
-20.0
 30
0.0
 11
-23.0
 21
20.0
 31
0.0
  0
ARC
  8
Base
 62
0
 10
-27.0000000507
 20
-19.9999990781
 30
0.0
 40
4.00000005067
 50
-71.0753595673
 51
-1.32266044535e-05
  0
ARC
  8
Base
 62
0
 10
-24.5999999005
 20
-26.9999991853
 30
0.0
 40
3.40000009947
 50
108.92465091
 51
-179.99998626
  0
LINE
  8
Base
 62
0
 10
-28.0
 20
-28.0
 30
0.0
 11
-28.0
 21
-27.0
 31
0.0
  0
ARC
  8
Base
 62
0
 10
-19.9999999156
 20
-27.9999993555
 30
0.0
 40
8.00000008442
 50
-179.999995324
 51
-117.029069805
  0
LINE
  8
Base
 62
0
 10
-9.27219
 20
-42.453879
 30
0.0
 11
-23.63554
 21
-35.126208
 31
0.0
  0
ARC
  8
Base
 62
0
 10
-6.999974733
 20
-37.9999996647
 30
0.0
 40
5.00000033529
 50
-117.02910307
 51
-89.9999686821
  0
LINE
  8
Base
 62
0
 10
0.0
 20
-43.0
 30
0.0
 11
-6.999972
 21
-43.0
 31
0.0
  0
LINE
  8
Base
 62
0
 10
7.0
 20
-43.0
 30
0.0
 11
0.0
 21
-43.0
 31
0.0
  0
ARC
  8
Base
 62
0
 10
7.00000256472
 20
-38.0000002908
 30
0.0
 40
4.99999970925
 50
-90.0000293896
 51
-62.9710969329
  0
LINE
  8
Base
 62
0
 10
8.136099
 20
-40.226945
 30
0.0
 11
8.136095
 21
-40.226948
 31
0.0
  0
LINE
  8
Base
 62
0
 10
8.136103
 20
-40.226944
 30
0.0
 11
8.136099
 21
-40.226945
 31
0.0
  0
LINE
  8
Base
 62
0
 10
8.136095
 20
-40.226948
 30
0.0
 11
8.136103
 21
-40.226944
 31
0.0
  0
ARC
  8
Base
 62
0
 10
7.00000257155
 20
-38.0000015972
 30
0.0
 40
2.4999984028
 50
-90.000013099
 51
-62.9711645839
  0
LINE
  8
Base
 62
0
 10
7.000002
 20
-40.5
 30
0.0
 11
7.0
 21
-40.5
 31
0.0
  0
LINE
  8
Base
 62
0
 10
7.0
 20
-40.5
 30
0.0
 11
0.0
 21
-40.5
 31
0.0
  0
LINE
  8
Base
 62
0
 10
0.0
 20
-40.5
 30
0.0
 11
-6.999972
 21
-40.5
 31
0.0
  0
ARC
  8
Base
 62
0
 10
-6.99997282634
 20
-37.999997502
 30
0.0
 40
2.50000249796
 50
-117.02911545
 51
-89.9999810617
  0
LINE
  8
Base
 62
0
 10
-8.136082
 20
-40.226939
 30
0.0
 11
-8.136084
 21
-40.226938
 31
0.0
  0
LINE
  8
Base
 62
0
 10
-8.136084
 20
-40.226938
 30
0.0
 11
-22.499434
 21
-32.899268
 31
0.0
  0
ARC
  8
Base
 62
0
 10
-20.000000067
 20
-27.999999761
 30
0.0
 40
5.49999993304
 50
-179.999997439
 51
-117.029071931
  0
LINE
  8
Base
 62
0
 10
-25.5
 20
-28.0
 30
0.0
 11
-25.5
 21
-27.0
 31
0.0
  0
ARC
  8
Base
 62
0
 10
-24.5999996796
 20
-26.9999995432
 30
0.0
 40
0.900000320447
 50
108.924666263
 51
-179.999970922
  0
ARC
  8
Base
 62
0
 10
-27.0000003323
 20
-19.9999990769
 30
0.0
 40
6.50000033234
 50
-71.0753544989
 51
-8.14448150296e-06
  0
LINE
  8
Base
 62
0
 10
-20.5
 20
-20.0
 30
0.0
 11
-20.5
 21
20.0
 31
0.0
  0
ARC
  8
Base
 62
0
 10
-26.0000002368
 20
19.9999997632
 30
0.0
 40
5.50000023675
 50
2.56132093875e-06
 51
90.0000183685
  0
ARC
  8
Base
 62
0
 10
-26.0000034518
 20
31.828417962
 30
0.0
 40
6.32841796204
 50
-134.999990949
 51
-89.9999868562
  0
LINE
  8
Base
 62
0
 10
-30.47487
 20
27.35355
 30
0.0
 11
-32.06066
 21
28.939339
 31
0.0
  0
ARC
  8
Base
 62
0
 10
-30.9999993721
 20
29.9999996036
 30
0.0
 40
1.5000006279
 50
179.999984847
 51
-135.000000655
  0
LINE
  8
Base
 62
0
 10
-32.5
 20
30.0
 30
0.0
 11
-32.5
 21
31.5
 31
0.0
  0
ARC
  8
Base
 62
0
 10
-31.0355333842
 20
31.5000000661
 30
0.0
 40
1.46446661578
 50
135.000018864
 51
-179.9999973
  0
LINE
  8
Base
 62
0
 10
-32.071068
 20
32.535534
 30
0.0
 11
-15.303303
 21
49.3033
 31
0.0
  0
ARC
  8
Base
 62
0
 10
-10.0000008108
 20
43.999998862
 30
0.0
 40
7.50000113803
 50
89.9999938058
 51
135.000005678
  0
LINE
  8
Base
 62
0
 10
-10.0
 20
51.5
 30
0.0
 11
0.0
 21
51.5
 31
0.0
  0
LINE
  8
Base
 62
0
 10
0.0
 20
51.5
 30
0.0
 11
10.0
 21
51.5
 31
0.0
  0
ARC
  8
Base
 62
0
 10
10.00000032
 20
44.0000000913
 30
0.0
 40
7.49999990871
 50
45.0000012355
 51
90.0000024447
  0
LINE
  8
Base
 62
0
 10
15.303301
 20
49.303301
 30
0.0
 11
32.071067
 21
32.535535
 31
0.0
  0
ARC
  8
Base
 62
0
 10
31.0355323568
 20
31.4999996405
 30
0.0
 40
1.46446764316
 50
1.41066557644e-05
 51
45.0000198162
  0
LINE
  8
Base
 62
0
 10
32.5
 20
31.5
 30
0.0
 11
32.5
 21
30.0
 31
0.0
  0
ARC
  8
Base
 62
0
 10
30.999999748
 20
30.000000448
 30
0.0
 40
1.50000025204
 50
-45.0000052917
 51
-1.70968039426e-05
  0
LINE
  8
Base
 62
0
 10
32.06066
 20
28.93934
 30
0.0
 11
30.474871
 21
27.353551
 31
0.0
  0
ARC
  8
Base
 62
0
 10
26.0000030705
 20
31.8284188824
 30
0.0
 40
6.32841888241
 50
-90.000018746
 51
-44.9999996987
  0
ARC
  8
Base
 62
0
 10
26.0000003928
 20
19.9999996072
 30
0.0
 40
5.50000039283
 50
89.9999936749
 51
179.999995995
  0
LINE
  8
Base
 62
0
 10
20.5
 20
20.0
 30
0.0
 11
20.5
 21
-20.0
 31
0.0
  0
ARC
  8
Base
 62
0
 10
27.0000004586
 20
-19.9999999867
 30
0.0
 40
6.50000045863
 50
180.0
 51
-108.924646296
  0
ARC
  8
Base
 62
0
 10
24.6000002902
 20
-27.000000107
 30
0.0
 40
0.899999709818
 50
6.77661823177e-06
 51
71.0753615037
  0
LINE
  8
Base
 62
0
 10
25.5
 20
-27.0
 30
0.0
 11
25.5
 21
-28.0
 31
0.0
  0
ARC
  8
Base
 62
0
 10
19.9999994614
 20
-28.0000004308
 30
0.0
 40
5.50000053856
 50
-62.9708774262
 51
4.51774548785e-06
  0
LINE
  8
Base
 62
0
 10
22.499438
 20
-32.899267
 30
0.0
 11
22.499439
 21
-32.899266
 31
0.0
  0
LINE
  8
Base
 62
0
 10
22.499439
 20
-32.899266
 30
0.0
 11
8.136099
 21
-40.226945
 31
0.0
  0
ENDBLK
  0
ENDSEC
  0
SECTION
  2
ENTITIES
  0
INSERT
  2
PAD034
  8
Base
 62
0
 10
0.0
 20
0.0
 30
0.0
  0
ENDSEC
  0
EOF
