  0
SECTION
  2
HEADER
  9
$ACADVER
  1
AC1009
  9
$EXTMAX
 10
35.0
 20
54.0
 30
0.0
  9
$EXTMIN
 10
-35.0
 20
-43.0
 30
0.0
  9
$INSUNITS
 70
     4
  9
$LUNITS
 70
     2
  9
$LUPREC
 70
     4
  9
$MEASUREMENT
 70
     1
  0
ENDSEC
  0
SECTION
  2
TABLES
  0
TABLE
  2
LAYER
 70
     1
  0
LAYER
  2
0
 70
     0
 62
     7
  6
Continuous
  0
LAYER
  2
Base
 70
     0
 62
    70
  6
Continuous
  0
ENDTAB
  0
TABLE
  2
APPID
 70
     1
  0
APPID
  2
ACAD
 70
     0
  0
ENDTAB
  0
ENDSEC
  0
SECTION
  2
ENTITIES
  0
POLYLINE
  8
Base
 66
     1
 10
0.0
 20
0.0
 30
0.0
 70
     1
  0
VERTEX
  8
Base
 10
-9.2722021800143
 20
-42.4538871674867
 42
0.1184858116766
  0
VERTEX
  8
Base
 10
-7.0
 20
-43.0
 42
0.0
  0
VERTEX
  8
Base
 10
0.0
 20
-43.0
 42
0.0
  0
VERTEX
  8
Base
 10
6.9999723627529
 20
-42.9999999999998
 42
0.1184867051382
  0
VERTEX
  8
Base
 10
9.27219008249
 20
-42.4538785045
 42
0.0
  0
VERTEX
  8
Base
 10
23.6355401954324
 20
-35.1262080087186
 42
0.281892221517
  0
VERTEX
  8
Base
 10
28.0
 20
-28.0
 42
0.0
  0
VERTEX
  8
Base
 10
28.00000000002
 20
-27.0000000025173
 42
0.3204650882191
  0
VERTEX
  8
Base
 10
25.7027026877151
 20
-23.7837831513452
 42
-0.3204650090378
  0
VERTEX
  8
Base
 10
23.0
 20
-20.0
 42
0.0
  0
VERTEX
  8
Base
 10
23.0
 20
19.9999999888
 42
-0.4142136436639
  0
VERTEX
  8
Base
 10
26.0000008326632
 20
22.9999999887903
 42
0.1989123859444
  0
VERTEX
  8
Base
 10
32.2426364329
 20
25.5857826162
 42
0.0
  0
VERTEX
  8
Base
 10
33.8284264940048
 20
27.1715721203126
 42
0.198912433081
  0
VERTEX
  8
Base
 10
35.0
 20
30.0
 42
0.0
  0
VERTEX
  8
Base
 10
35.0000000000099
 20
31.4999999997042
 42
0.1989122935426
  0
VERTEX
  8
Base
 10
33.8388348073
 20
34.3033004402
 42
0.0
  0
VERTEX
  8
Base
 10
17.0710696586199
 20
51.071067267711
 42
0.1989124212324
  0
VERTEX
  8
Base
 10
10.0000000000259
 20
53.9999999999999
 42
0.0
  0
VERTEX
  8
Base
 10
0.0
 20
54.0
 42
0.0
  0
VERTEX
  8
Base
 10
-9.99999999999
 20
54.0
 42
0.1989123728645
  0
VERTEX
  8
Base
 10
-17.0710679303272
 20
51.0710675883638
 42
0.0
  0
VERTEX
  8
Base
 10
-33.8388339184
 20
34.3033016003
 42
0.1989123934751
  0
VERTEX
  8
Base
 10
-35.00000000001
 20
31.5000000035677
 42
0.0
  0
VERTEX
  8
Base
 10
-35.0
 20
30.0
 42
0.1989123137691
  0
VERTEX
  8
Base
 10
-33.8284273312415
 20
27.1715736140491
 42
0.0
  0
VERTEX
  8
Base
 10
-32.2426375486
 20
25.5857838314
 42
0.1989124537775
  0
VERTEX
  8
Base
 10
-26.0000001616459
 20
22.9999999545905
 42
-0.4142135737872
  0
VERTEX
  8
Base
 10
-23.0
 20
19.9999999993035
 42
0.0
  0
VERTEX
  8
Base
 10
-23.0
 20
-20.0
 42
-0.3204650437974
  0
VERTEX
  8
Base
 10
-25.7027026505217
 20
-23.7837836785931
 42
0.3204650491122
  0
VERTEX
  8
Base
 10
-28.00000000002
 20
-27.0000000209
 42
0.0
  0
VERTEX
  8
Base
 10
-28.0
 20
-28.0
 42
0.2818920158546
  0
VERTEX
  8
Base
 10
-23.6355468456433
 20
-35.1262059940117
 42
0.0
  0
SEQEND
  0
POLYLINE
  8
Base
 66
     1
 10
0.0
 20
0.0
 30
0.0
 70
     1
  0
VERTEX
  8
Base
 10
-8.1361025915859
 20
-40.226943583744
 42
0.0000003662642
  0
VERTEX
  8
Base
 10
-8.136099328986
 20
-40.2269452481919
 42
0.1184854402705
  0
VERTEX
  8
Base
 10
-7.0000015015795
 20
-40.5000000000004
 42
0.0
  0
VERTEX
  8
Base
 10
-7.0
 20
-40.5
 42
0.0
  0
VERTEX
  8
Base
 10
0.0
 20
-40.5
 42
0.0
  0
VERTEX
  8
Base
 10
6.9999723627528
 20
-40.4999999999998
 42
0.1184867051382
  0
VERTEX
  8
Base
 10
8.1360820036577
 20
-40.2269392522499
 42
0.0
  0
VERTEX
  8
Base
 10
8.1360842712825
 20
-40.2269380953869
 42
0.0
  0
VERTEX
  8
Base
 10
22.499434384225
 20
-32.8992675996055
 42
0.281892221517
  0
VERTEX
  8
Base
 10
25.5
 20
-27.9999998498067
 42
0.0
  0
VERTEX
  8
Base
 10
25.50000000002
 20
-27.0000000024674
 42
0.3204650882191
  0
VERTEX
  8
Base
 10
24.8918918127009
 20
-26.1486479941974
 42
-0.3204650090378
  0
VERTEX
  8
Base
 10
20.5
 20
-20.0000003922717
 42
0.0
  0
VERTEX
  8
Base
 10
20.5
 20
19.9999999888
 42
-0.4142136436639
  0
VERTEX
  8
Base
 10
26.0000015265401
 20
25.4999999887902
 42
0.1989123859444
  0
VERTEX
  8
Base
 10
30.47486982846
 20
27.3535499176927
 42
0.0
  0
VERTEX
  8
Base
 10
32.0606598514934
 20
28.9393393837339
 42
0.198912433081
  0
VERTEX
  8
Base
 10
32.5
 20
29.9999999239346
 42
0.0
  0
VERTEX
  8
Base
 10
32.5000000000099
 20
31.4999999997208
 42
0.1989122935426
  0
VERTEX
  8
Base
 10
32.0710676736465
 20
32.5355336679208
 42
0.0
  0
VERTEX
  8
Base
 10
15.3033026171569
 20
49.3033004032413
 42
0.1989124212324
  0
VERTEX
  8
Base
 10
10.0000003256694
 20
51.4999999999999
 42
0.0
  0
VERTEX
  8
Base
 10
0.0
 20
51.5
 42
0.0
  0
VERTEX
  8
Base
 10
-9.99999999999
 20
51.5
 42
0.1989123728645
  0
VERTEX
  8
Base
 10
-15.3033009214857
 20
49.3033006912725
 42
0.0
  0
VERTEX
  8
Base
 10
-32.0710669654341
 20
32.5355346473332
 42
0.1989123934751
  0
VERTEX
  8
Base
 10
-32.50000000001
 20
31.4999997174036
 42
0.0
  0
VERTEX
  8
Base
 10
-32.5
 20
30.0000000000166
 42
0.1989123137691
  0
VERTEX
  8
Base
 10
-32.0606602490403
 20
28.9393404377806
 42
0.0
  0
VERTEX
  8
Base
 10
-30.4748705956294
 20
27.3535507843621
 42
0.1989124537775
  0
VERTEX
  8
Base
 10
-26.0000009852782
 20
25.4999999545903
 42
-0.4142135737872
  0
VERTEX
  8
Base
 10
-20.5
 20
20.0000000365737
 42
0.0
  0
VERTEX
  8
Base
 10
-20.5
 20
-20.0
 42
-0.3204650437974
  0
VERTEX
  8
Base
 10
-24.8918918079864
 20
-26.1486485325811
 42
0.3204650491122
  0
VERTEX
  8
Base
 10
-25.50000000002
 20
-27.0000000208924
 42
0.0
  0
VERTEX
  8
Base
 10
-25.5
 20
-27.99999999995
 42
0.2818920158546
  0
VERTEX
  8
Base
 10
-22.4994384561672
 20
-32.8992669002415
 42
0.0
  0
VERTEX
  8
Base
 10
-22.499439378936
 20
-32.8992664294765
 42
0.0
  0
VERTEX
  8
Base
 10
-8.136099328986
 20
-40.2269452481919
 42
0.0
  0
VERTEX
  8
Base
 10
-8.136094713307
 20
-40.2269476029516
 42
0.0
  0
SEQEND
  0
ENDSEC
  0
EOF
