  0
SECTION
  2
HEADER
  9
$ACADVER
  1
AC1009
  9
$EXTMAX
 10
35.0
 20
54.0
 30
0.0
  9
$EXTMIN
 10
-35.0
 20
-43.0
 30
0.0
  9
$INSUNITS
 70
     4
  9
$LUNITS
 70
     2
  9
$LUPREC
 70
     4
  9
$MEASUREMENT
 70
     1
  0
ENDSEC
  0
SECTION
  2
TABLES
  0
TABLE
  2
LAYER
 70
     1
  0
LAYER
  2
0
 70
     0
 62
     7
  6
Continuous
  0
LAYER
  2
Base
 70
     0
 62
    70
  6
Continuous
  0
ENDTAB
  0
TABLE
  2
APPID
 70
     1
  0
APPID
  2
ACAD
 70
     0
  0
ENDTAB
  0
ENDSEC
  0
SECTION
  2
ENTITIES
  0
POLYLINE
  8
Base
 66
     1
 10
0.0
 20
0.0
 30
0.0
 70
     1
  0
VERTEX
  8
Base
 10
-22.0
 20
-35.0
 42
0.0
  0
VERTEX
  8
Base
 10
-18.5
 20
-35.0
 42
0.0
  0
VERTEX
  8
Base
 10
-18.5
 20
-28.5
 42
0.0
  0
VERTEX
  8
Base
 10
-22.0
 20
-28.5
 42
0.0
  0
SEQEND
  0
POLYLINE
  8
Base
 66
     1
 10
0.0
 20
0.0
 30
0.0
 70
     1
  0
VERTEX
  8
Base
 10
22.0
 20
-35.0
 42
0.0
  0
VERTEX
  8
Base
 10
18.5
 20
-35.0
 42
0.0
  0
VERTEX
  8
Base
 10
18.5
 20
-28.5
 42
0.0
  0
VERTEX
  8
Base
 10
22.0
 20
-28.5
 42
0.0
  0
SEQEND
  0
POLYLINE
  8
Base
 66
     1
 10
0.0
 20
0.0
 30
0.0
 70
     1
  0
VERTEX
  8
Base
 10
-35.0
 20
31.5
 42
-0.1989122549971
  0
VERTEX
  8
Base
 10
-33.838835
 20
34.3033
 42
0.0
  0
VERTEX
  8
Base
 10
-17.071068
 20
51.071068
 42
-0.1989123728623
  0
VERTEX
  8
Base
 10
-10.0000000000194
 20
53.99999999998
 42
0.0
  0
VERTEX
  8
Base
 10
10.0000000000194
 20
53.99999999998
 42
-0.1989123728623
  0
VERTEX
  8
Base
 10
17.071068
 20
51.071068
 42
0.0
  0
VERTEX
  8
Base
 10
33.838835
 20
34.3033
 42
-0.1989122549971
  0
VERTEX
  8
Base
 10
35.0
 20
31.5
 42
0.0
  0
VERTEX
  8
Base
 10
34.9999999999898
 20
30.0000000008797
 42
-0.1989121108512
  0
VERTEX
  8
Base
 10
33.828427
 20
27.171574
 42
0.0
  0
VERTEX
  8
Base
 10
32.2426380000526
 20
25.585784000071
 42
-0.1989124537789
  0
VERTEX
  8
Base
 10
25.9999999999546
 20
23.00000000004
 42
0.4142124986218
  0
VERTEX
  8
Base
 10
22.99999999998
 20
20.0000000516
 42
0.0
  0
VERTEX
  8
Base
 10
22.99999999998
 20
-19.9999999993874
 42
0.3204650439157
  0
VERTEX
  8
Base
 10
25.7027030000085
 20
-23.7837840000135
 42
-0.3204650489582
  0
VERTEX
  8
Base
 10
28.0
 20
-27.0
 42
0.0
  0
VERTEX
  8
Base
 10
28.0
 20
-28.0000020576773
 42
-0.2818919464431
  0
VERTEX
  8
Base
 10
23.6355469999916
 20
-35.1262060000256
 42
0.0
  0
VERTEX
  8
Base
 10
9.2722019999865
 20
-42.4538870000546
 42
-0.1184855515799
  0
VERTEX
  8
Base
 10
7.0000051299028
 20
-43.00000000002
 42
0.0
  0
VERTEX
  8
Base
 10
-6.9999999999963
 20
-43.00000000002
 42
-0.1184855515799
  0
VERTEX
  8
Base
 10
-9.2722019999865
 20
-42.4538870000546
 42
0.0
  0
VERTEX
  8
Base
 10
-23.6355469999916
 20
-35.1262060000256
 42
-0.2818919464431
  0
VERTEX
  8
Base
 10
-28.0
 20
-28.0000020576773
 42
0.0
  0
VERTEX
  8
Base
 10
-28.0
 20
-27.0
 42
-0.3204650489582
  0
VERTEX
  8
Base
 10
-25.7027030000085
 20
-23.7837840000135
 42
0.3204650439157
  0
VERTEX
  8
Base
 10
-22.99999999998
 20
-19.9999999993874
 42
0.0
  0
VERTEX
  8
Base
 10
-22.99999999998
 20
20.0000000516
 42
0.4142124986218
  0
VERTEX
  8
Base
 10
-25.9999999999546
 20
23.00000000004
 42
-0.1989124537789
  0
VERTEX
  8
Base
 10
-32.2426380000526
 20
25.585784000071
 42
0.0
  0
VERTEX
  8
Base
 10
-33.828427
 20
27.171574
 42
-0.1989121108512
  0
VERTEX
  8
Base
 10
-34.9999999999898
 20
30.0000000008797
 42
0.0
  0
SEQEND
  0
POLYLINE
  8
Base
 66
     1
 10
0.0
 20
0.0
 30
0.0
 70
     1
  0
VERTEX
  8
Base
 10
-25.5
 20
-27.0
 42
-0.3204650492854
  0
VERTEX
  8
Base
 10
-24.8918920000135
 20
-26.1486489999856
 42
0.3204650443618
  0
VERTEX
  8
Base
 10
-20.49999999997
 20
-19.9999999867
 42
0.0
  0
VERTEX
  8
Base
 10
-20.4999999999749
 20
-13.5
 42
0.0
  0
VERTEX
  8
Base
 10
-18.5
 20
-13.5
 42
0.4142135623731
  0
VERTEX
  8
Base
 10
-16.5
 20
-11.5
 42
0.0
  0
VERTEX
  8
Base
 10
-16.5
 20
-4.5
 42
0.4142135623731
  0
VERTEX
  8
Base
 10
-18.5
 20
-2.5
 42
0.0
  0
VERTEX
  8
Base
 10
-20.4999999999831
 20
-2.5
 42
0.0
  0
VERTEX
  8
Base
 10
-20.4999999999869
 20
2.5
 42
0.0
  0
VERTEX
  8
Base
 10
-18.5
 20
2.5
 42
0.4142135623731
  0
VERTEX
  8
Base
 10
-16.5
 20
4.5
 42
0.0
  0
VERTEX
  8
Base
 10
-16.5
 20
11.5
 42
0.4142135623731
  0
VERTEX
  8
Base
 10
-18.5
 20
13.5
 42
0.0
  0
VERTEX
  8
Base
 10
-20.4999999999951
 20
13.5
 42
0.0
  0
VERTEX
  8
Base
 10
-20.5
 20
20.0
 42
0.4142135742356
  0
VERTEX
  8
Base
 10
-26.0000009999661
 20
25.50000000003
 42
-0.1989124537761
  0
VERTEX
  8
Base
 10
-30.4748709999496
 20
27.3535509999674
 42
0.0
  0
VERTEX
  8
Base
 10
-32.06066
 20
28.93934
 42
-0.1989123138326
  0
VERTEX
  8
Base
 10
-32.5000000000399
 20
30.0000000004015
 42
0.0
  0
VERTEX
  8
Base
 10
-32.5
 20
31.5
 42
-0.1989122139067
  0
VERTEX
  8
Base
 10
-32.0710677146552
 20
32.5355342852581
 42
0.0
  0
VERTEX
  8
Base
 10
-24.0
 20
40.606601999955
 42
0.0
  0
VERTEX
  8
Base
 10
-24.0
 20
36.0
 42
0.4142135623731
  0
VERTEX
  8
Base
 10
-22.0
 20
34.0
 42
0.0
  0
VERTEX
  8
Base
 10
-18.5
 20
34.0
 42
0.4142135623731
  0
VERTEX
  8
Base
 10
-16.5
 20
36.0
 42
0.0
  0
VERTEX
  8
Base
 10
-16.5
 20
48.1066019999938
 42
0.0
  0
VERTEX
  8
Base
 10
-15.303301
 20
49.303301
 42
-0.1989123728623
  0
VERTEX
  8
Base
 10
-9.9999999999895
 20
51.50000000001
 42
0.0
  0
VERTEX
  8
Base
 10
9.9999999999895
 20
51.50000000001
 42
-0.1989123728623
  0
VERTEX
  8
Base
 10
15.303301
 20
49.303301
 42
0.0
  0
VERTEX
  8
Base
 10
16.5
 20
48.1066019999938
 42
0.0
  0
VERTEX
  8
Base
 10
16.5
 20
36.0
 42
0.4142135623731
  0
VERTEX
  8
Base
 10
18.5
 20
34.0
 42
0.0
  0
VERTEX
  8
Base
 10
22.0
 20
34.0
 42
0.4142135623731
  0
VERTEX
  8
Base
 10
24.0
 20
36.0
 42
0.0
  0
VERTEX
  8
Base
 10
24.0
 20
40.606601999955
 42
0.0
  0
VERTEX
  8
Base
 10
32.0710677146552
 20
32.5355342852581
 42
-0.1989122139067
  0
VERTEX
  8
Base
 10
32.5
 20
31.5
 42
0.0
  0
VERTEX
  8
Base
 10
32.5000000000399
 20
30.0000000004015
 42
-0.1989123138326
  0
VERTEX
  8
Base
 10
32.06066
 20
28.93934
 42
0.0
  0
VERTEX
  8
Base
 10
30.4748709999496
 20
27.3535509999674
 42
-0.1989124537761
  0
VERTEX
  8
Base
 10
26.0000009999661
 20
25.50000000003
 42
0.4142135742356
  0
VERTEX
  8
Base
 10
20.5
 20
20.0
 42
0.0
  0
VERTEX
  8
Base
 10
20.4999999999951
 20
13.5
 42
0.0
  0
VERTEX
  8
Base
 10
18.5
 20
13.5
 42
0.4142135623731
  0
VERTEX
  8
Base
 10
16.5
 20
11.5
 42
0.0
  0
VERTEX
  8
Base
 10
16.5
 20
4.5
 42
0.4142135623731
  0
VERTEX
  8
Base
 10
18.5
 20
2.5
 42
0.0
  0
VERTEX
  8
Base
 10
20.4999999999869
 20
2.5
 42
0.0
  0
VERTEX
  8
Base
 10
20.4999999999831
 20
-2.5
 42
0.0
  0
VERTEX
  8
Base
 10
18.5
 20
-2.5
 42
0.4142135623731
  0
VERTEX
  8
Base
 10
16.5
 20
-4.5
 42
0.0
  0
VERTEX
  8
Base
 10
16.5
 20
-11.5
 42
0.4142135623731
  0
VERTEX
  8
Base
 10
18.5
 20
-13.5
 42
0.0
  0
VERTEX
  8
Base
 10
20.4999999999749
 20
-13.5
 42
0.0
  0
VERTEX
  8
Base
 10
20.49999999997
 20
-19.9999999867
 42
0.3204650443618
  0
VERTEX
  8
Base
 10
24.8918920000135
 20
-26.1486489999856
 42
-0.3204650492854
  0
VERTEX
  8
Base
 10
25.5
 20
-27.0
 42
0.0
  0
VERTEX
  8
Base
 10
25.49999999996
 20
-28.00000148229
 42
-0.1914013030463
  0
VERTEX
  8
Base
 10
24.0
 20
-31.7749176557242
 42
0.0
  0
VERTEX
  8
Base
 10
24.0
 20
-28.5
 42
0.4142135623731
  0
VERTEX
  8
Base
 10
22.0
 20
-26.5
 42
0.0
  0
VERTEX
  8
Base
 10
18.5
 20
-26.5
 42
0.4142135623731
  0
VERTEX
  8
Base
 10
16.5
 20
-28.5
 42
0.0
  0
VERTEX
  8
Base
 10
16.5
 20
-35.5
 42
0.0549310121406
  0
VERTEX
  8
Base
 10
16.5479886173372
 20
-35.9354900250922
 42
0.0
  0
VERTEX
  8
Base
 10
8.1360989999919
 20
-40.2269450000022
 42
-0.1184851215845
  0
VERTEX
  8
Base
 10
7.0000031427375
 20
-40.5
 42
0.0
  0
VERTEX
  8
Base
 10
-7.0000031427375
 20
-40.5
 42
-0.1184851215845
  0
VERTEX
  8
Base
 10
-8.1360989999919
 20
-40.2269450000022
 42
0.0
  0
VERTEX
  8
Base
 10
-16.5479886173372
 20
-35.9354900250922
 42
0.0549310121406
  0
VERTEX
  8
Base
 10
-16.5
 20
-35.5
 42
0.0
  0
VERTEX
  8
Base
 10
-16.5
 20
-28.5
 42
0.4142135623731
  0
VERTEX
  8
Base
 10
-18.5
 20
-26.5
 42
0.0
  0
VERTEX
  8
Base
 10
-22.0
 20
-26.5
 42
0.4142135623731
  0
VERTEX
  8
Base
 10
-24.0
 20
-28.5
 42
0.0
  0
VERTEX
  8
Base
 10
-24.0
 20
-31.7749176557242
 42
-0.1914013030463
  0
VERTEX
  8
Base
 10
-25.49999999996
 20
-28.00000148229
 42
0.0
  0
SEQEND
  0
POLYLINE
  8
Base
 66
     1
 10
0.0
 20
0.0
 30
0.0
 70
     1
  0
VERTEX
  8
Base
 10
-22.0
 20
-4.5
 42
0.0
  0
VERTEX
  8
Base
 10
-22.0
 20
-11.5
 42
0.0
  0
VERTEX
  8
Base
 10
-18.5
 20
-11.5
 42
0.0
  0
VERTEX
  8
Base
 10
-18.5
 20
-4.5
 42
0.0
  0
SEQEND
  0
POLYLINE
  8
Base
 66
     1
 10
0.0
 20
0.0
 30
0.0
 70
     1
  0
VERTEX
  8
Base
 10
-22.0
 20
36.0
 42
0.0
  0
VERTEX
  8
Base
 10
-18.5
 20
36.0
 42
0.0
  0
VERTEX
  8
Base
 10
-18.5
 20
46.1066019999835
 42
0.0
  0
VERTEX
  8
Base
 10
-22.0
 20
42.6066019999654
 42
0.0
  0
SEQEND
  0
POLYLINE
  8
Base
 66
     1
 10
0.0
 20
0.0
 30
0.0
 70
     1
  0
VERTEX
  8
Base
 10
-18.5
 20
11.5
 42
0.0
  0
VERTEX
  8
Base
 10
-22.0
 20
11.5
 42
0.0
  0
VERTEX
  8
Base
 10
-22.0
 20
4.5
 42
0.0
  0
VERTEX
  8
Base
 10
-18.5
 20
4.5
 42
0.0
  0
SEQEND
  0
POLYLINE
  8
Base
 66
     1
 10
0.0
 20
0.0
 30
0.0
 70
     1
  0
VERTEX
  8
Base
 10
22.0
 20
-11.5
 42
0.0
  0
VERTEX
  8
Base
 10
18.5
 20
-11.5
 42
0.0
  0
VERTEX
  8
Base
 10
18.5
 20
-4.5
 42
0.0
  0
VERTEX
  8
Base
 10
22.0
 20
-4.5
 42
0.0
  0
SEQEND
  0
POLYLINE
  8
Base
 66
     1
 10
0.0
 20
0.0
 30
0.0
 70
     1
  0
VERTEX
  8
Base
 10
22.0
 20
4.5
 42
0.0
  0
VERTEX
  8
Base
 10
18.5
 20
4.5
 42
0.0
  0
VERTEX
  8
Base
 10
18.5
 20
11.5
 42
0.0
  0
VERTEX
  8
Base
 10
22.0
 20
11.5
 42
0.0
  0
SEQEND
  0
POLYLINE
  8
Base
 66
     1
 10
0.0
 20
0.0
 30
0.0
 70
     1
  0
VERTEX
  8
Base
 10
22.0
 20
36.0
 42
0.0
  0
VERTEX
  8
Base
 10
18.5
 20
36.0
 42
0.0
  0
VERTEX
  8
Base
 10
18.5
 20
46.1066019999835
 42
0.0
  0
VERTEX
  8
Base
 10
22.0
 20
42.6066019999654
 42
0.0
  0
SEQEND
  0
ENDSEC
  0
EOF
