  0
SECTION
  2
HEADER
  9
$ACADVER
  1
AC1009
  9
$EXTMAX
 10
35.0
 20
54.0
 30
0.0
  9
$EXTMIN
 10
-35.0
 20
-43.0
 30
0.0
  9
$INSUNITS
 70
     4
  9
$LUNITS
 70
     2
  9
$LUPREC
 70
     4
  9
$MEASUREMENT
 70
     1
  0
ENDSEC
  0
SECTION
  2
TABLES
  0
TABLE
  2
LAYER
 70
     1
  0
LAYER
  2
0
 70
     0
 62
     7
  6
Continuous
  0
LAYER
  2
Base
 70
     0
 62
    70
  6
Continuous
  0
ENDTAB
  0
TABLE
  2
APPID
 70
     1
  0
APPID
  2
ACAD
 70
     0
  0
ENDTAB
  0
ENDSEC
  0
SECTION
  2
ENTITIES
  0
POLYLINE
  8
Base
 66
     1
 10
0.0
 20
0.0
 30
0.0
 70
     1
  0
VERTEX
  8
Base
 10
-22.99999999998
 20
-19.9999999988874
 42
-0.3204650438762
  0
VERTEX
  8
Base
 10
-25.7027030000085
 20
-23.7837840000135
 42
0.3204650489582
  0
VERTEX
  8
Base
 10
-28.0
 20
-27.0
 42
0.0
  0
VERTEX
  8
Base
 10
-28.0
 20
-28.0000020576773
 42
0.2818919558675
  0
VERTEX
  8
Base
 10
-23.635547
 20
-35.126206
 42
0.0
  0
VERTEX
  8
Base
 10
-9.2722019999865
 20
-42.4538870000546
 42
0.1184855515799
  0
VERTEX
  8
Base
 10
-7.0
 20
-43.0
 42
0.0
  0
VERTEX
  8
Base
 10
6.9999750000006
 20
-43.0000000000371
 42
0.1179184570538
  0
VERTEX
  8
Base
 10
9.262217651826
 20
-42.4589665378318
 42
0.0005597559895
  0
VERTEX
  8
Base
 10
9.27219
 20
-42.453879
 42
0.0
  0
VERTEX
  8
Base
 10
23.6355400000211
 20
-35.1262080000239
 42
0.2818922212334
  0
VERTEX
  8
Base
 10
28.0
 20
-28.0
 42
0.0
  0
VERTEX
  8
Base
 10
28.0
 20
-27.0
 42
0.3204650489582
  0
VERTEX
  8
Base
 10
25.7027030000085
 20
-23.7837840000135
 42
-0.3204650215633
  0
VERTEX
  8
Base
 10
22.99999999998
 20
-19.9999999993874
 42
0.0
  0
VERTEX
  8
Base
 10
23.00000000002
 20
20.0000000057307
 42
-0.4142136431026
  0
VERTEX
  8
Base
 10
26.0000009999564
 20
22.9999999999702
 42
0.1989123618906
  0
VERTEX
  8
Base
 10
32.242636
 20
25.585783
 42
0.0
  0
VERTEX
  8
Base
 10
33.0355574681004
 20
26.3787039681254
 42
0.0
  0
VERTEX
  8
Base
 10
33.8284259999582
 20
27.1715720000415
 42
0.1989124331787
  0
VERTEX
  8
Base
 10
35.0
 20
30.0
 42
0.0
  0
VERTEX
  8
Base
 10
35.0000000000099
 20
31.5000000002018
 42
0.198912293532
  0
VERTEX
  8
Base
 10
33.838835
 20
34.3033
 42
0.0
  0
VERTEX
  8
Base
 10
17.0710699999907
 20
51.0710670000029
 42
0.1210806765681
  0
VERTEX
  8
Base
 10
12.9878736754621
 20
53.5431972282711
 42
0.0760012588436
  0
VERTEX
  8
Base
 10
10.0000000000194
 20
53.99999999998
 42
0.0
  0
VERTEX
  8
Base
 10
-10.0000000000194
 20
53.99999999998
 42
0.1989123728623
  0
VERTEX
  8
Base
 10
-17.071068
 20
51.071068
 42
0.0
  0
VERTEX
  8
Base
 10
-33.8388349999928
 20
34.3033000000469
 42
0.1989122815547
  0
VERTEX
  8
Base
 10
-35.0
 20
31.5
 42
0.0
  0
VERTEX
  8
Base
 10
-34.9999999999898
 20
30.0000000008797
 42
0.1989121108512
  0
VERTEX
  8
Base
 10
-33.828427
 20
27.171574
 42
0.0
  0
VERTEX
  8
Base
 10
-32.2426380000526
 20
25.585784000071
 42
0.1989124537789
  0
VERTEX
  8
Base
 10
-25.9999999999546
 20
23.00000000004
 42
-0.4142135724445
  0
VERTEX
  8
Base
 10
-23.0
 20
20.0
 42
0.0
  0
SEQEND
  0
POLYLINE
  8
Base
 66
     1
 10
0.0
 20
0.0
 30
0.0
 70
     1
  0
VERTEX
  8
Base
 10
-4.4
 20
-2.7
 42
0.0
  0
VERTEX
  8
Base
 10
-4.9
 20
-4.0
 42
0.0
  0
VERTEX
  8
Base
 10
-17.5
 20
-4.0
 42
0.0
  0
VERTEX
  8
Base
 10
-17.5
 20
4.0
 42
0.0
  0
VERTEX
  8
Base
 10
-4.9
 20
4.0
 42
0.0
  0
VERTEX
  8
Base
 10
-4.4
 20
2.7
 42
0.0
  0
VERTEX
  8
Base
 10
-2.4
 20
2.7
 42
0.0
  0
VERTEX
  8
Base
 10
-2.4
 20
-2.7
 42
0.0
  0
SEQEND
  0
POLYLINE
  8
Base
 66
     1
 10
0.0
 20
0.0
 30
0.0
 70
     1
  0
VERTEX
  8
Base
 10
4.4
 20
2.7
 42
0.0
  0
VERTEX
  8
Base
 10
4.9
 20
4.0
 42
0.0
  0
VERTEX
  8
Base
 10
17.499999999992
 20
4.0
 42
0.0
  0
VERTEX
  8
Base
 10
17.499999999988
 20
-4.0
 42
0.0
  0
VERTEX
  8
Base
 10
4.9
 20
-4.0
 42
0.0
  0
VERTEX
  8
Base
 10
4.4
 20
-2.7
 42
0.0
  0
VERTEX
  8
Base
 10
2.4
 20
-2.7
 42
0.0
  0
VERTEX
  8
Base
 10
2.4
 20
2.7
 42
0.0
  0
SEQEND
  0
POLYLINE
  8
Base
 66
     1
 10
0.0
 20
0.0
 30
0.0
 70
     1
  0
VERTEX
  8
Base
 10
-8.25
 20
-40.5
 42
0.5773502691896
  0
VERTEX
  8
Base
 10
-9.375
 20
-39.8504809471617
 42
0.5773502691896
  0
VERTEX
  8
Base
 10
-9.375
 20
-41.1495190528383
 42
0.5773502691896
  0
SEQEND
  0
POLYLINE
  8
Base
 66
     1
 10
0.0
 20
0.0
 30
0.0
 70
     1
  0
VERTEX
  8
Base
 10
9.75
 20
-40.5
 42
0.5773502691896
  0
VERTEX
  8
Base
 10
8.625
 20
-39.8504809471617
 42
0.5773502691896
  0
VERTEX
  8
Base
 10
8.625
 20
-41.1495190528383
 42
0.5773502691896
  0
SEQEND
  0
POLYLINE
  8
Base
 66
     1
 10
0.0
 20
0.0
 30
0.0
 70
     1
  0
VERTEX
  8
Base
 10
-33.5000000000001
 20
31.4999996206039
 42
-0.1989122549971
  0
VERTEX
  8
Base
 10
-32.7781746378422
 20
33.2426400185982
 42
0.0
  0
VERTEX
  8
Base
 10
-28.5104074554812
 20
37.5104074554812
 42
0.0
  0
VERTEX
  8
Base
 10
-17.5687680794145
 20
26.5687680794145
 42
0.0
  0
VERTEX
  8
Base
 10
-18.9999999999867
 20
20.0000073497071
 42
0.0
  0
VERTEX
  8
Base
 10
-19.0
 20
16.0
 42
0.0
  0
VERTEX
  8
Base
 10
-21.49999999998
 20
16.0
 42
0.0
  0
VERTEX
  8
Base
 10
-21.4999999999825
 20
20.0000027883902
 42
0.4142124986218
  0
VERTEX
  8
Base
 10
-26.0000005209542
 20
24.5000000000399
 42
-0.1989124537789
  0
VERTEX
  8
Base
 10
-31.1819778440657
 20
26.6464441876438
 42
0.0
  0
VERTEX
  8
Base
 10
-32.7677672043363
 20
28.2322345478963
 42
-0.1989120063904
  0
VERTEX
  8
Base
 10
-33.4999999999898
 20
30.0000000008899
 42
0.0
  0
SEQEND
  0
POLYLINE
  8
Base
 66
     1
 10
0.0
 20
0.0
 30
0.0
 70
     1
  0
VERTEX
  8
Base
 10
12.4409830056251
 20
-37.0317541634481
 42
0.5773502691896
  0
VERTEX
  8
Base
 10
12.4409830056251
 20
-38.9682458365519
 42
0.5773502691896
  0
VERTEX
  8
Base
 10
14.1180339887499
 20
-38.0
 42
0.5773502691896
  0
SEQEND
  0
POLYLINE
  8
Base
 66
     1
 10
0.0
 20
0.0
 30
0.0
 70
     1
  0
VERTEX
  8
Base
 10
-13.5590169943749
 20
-37.0317541634481
 42
0.5773502691896
  0
VERTEX
  8
Base
 10
-13.5590169943749
 20
-38.9682458365519
 42
0.5773502691896
  0
VERTEX
  8
Base
 10
-11.8819660112501
 20
-38.0
 42
0.5773502691896
  0
SEQEND
  0
POLYLINE
  8
Base
 66
     1
 10
0.0
 20
0.0
 30
0.0
 70
     1
  0
VERTEX
  8
Base
 10
3.3698013526326
 20
-4.2
 42
0.0
  0
VERTEX
  8
Base
 10
3.4999815906954
 20
-4.5384686189633
 42
0.3103288092888
  0
VERTEX
  8
Base
 10
4.9
 20
-5.5
 42
0.0
  0
VERTEX
  8
Base
 10
17.4999999999873
 20
-5.5
 42
0.0
  0
VERTEX
  8
Base
 10
17.49999999998
 20
-20.0000000467997
 42
0.0
  0
VERTEX
  8
Base
 10
15.6195443408782
 20
-28.4684051930737
 42
-0.506672397336
  0
VERTEX
  8
Base
 10
-8.0
 20
-38.856406460551
 42
-0.2101876170211
  0
VERTEX
  8
Base
 10
-15.6195443408782
 20
-28.4684051930737
 42
0.0
  0
VERTEX
  8
Base
 10
-17.5
 20
-20.0
 42
0.0
  0
VERTEX
  8
Base
 10
-17.5
 20
-5.5
 42
0.0
  0
VERTEX
  8
Base
 10
-4.9
 20
-5.5
 42
0.3103288092888
  0
VERTEX
  8
Base
 10
-3.4999815906954
 20
-4.5384686189633
 42
0.0
  0
VERTEX
  8
Base
 10
-3.3698013526326
 20
-4.2
 42
0.0
  0
VERTEX
  8
Base
 10
-2.4
 20
-4.2
 42
0.4142135623731
  0
VERTEX
  8
Base
 10
-0.9
 20
-2.7
 42
0.0
  0
VERTEX
  8
Base
 10
-0.9
 20
2.7
 42
0.4142135623731
  0
VERTEX
  8
Base
 10
-2.4
 20
4.2
 42
0.0
  0
VERTEX
  8
Base
 10
-3.3698013526326
 20
4.2
 42
0.0
  0
VERTEX
  8
Base
 10
-3.4999815906954
 20
4.5384686189633
 42
0.3103288092888
  0
VERTEX
  8
Base
 10
-4.9
 20
5.5
 42
0.0
  0
VERTEX
  8
Base
 10
-17.5
 20
5.5
 42
0.0
  0
VERTEX
  8
Base
 10
-17.5
 20
20.0
 42
0.0
  0
VERTEX
  8
Base
 10
-15.6195443408782
 20
28.4684051930737
 42
-0.2101876170211
  0
VERTEX
  8
Base
 10
-8.0
 20
38.856406460551
 42
-0.506672397336
  0
VERTEX
  8
Base
 10
15.6195443408782
 20
28.4684051930737
 42
0.0
  0
VERTEX
  8
Base
 10
17.5
 20
20.0
 42
0.0
  0
VERTEX
  8
Base
 10
17.4999999999927
 20
5.5
 42
0.0
  0
VERTEX
  8
Base
 10
4.9
 20
5.5
 42
0.3103288092888
  0
VERTEX
  8
Base
 10
3.4999815906954
 20
4.5384686189633
 42
0.0
  0
VERTEX
  8
Base
 10
3.3698013526326
 20
4.2
 42
0.0
  0
VERTEX
  8
Base
 10
2.4
 20
4.2
 42
0.4142135623731
  0
VERTEX
  8
Base
 10
0.9
 20
2.7
 42
0.0
  0
VERTEX
  8
Base
 10
0.9
 20
-2.7
 42
0.4142135623731
  0
VERTEX
  8
Base
 10
2.4
 20
-4.2
 42
0.0
  0
SEQEND
  0
POLYLINE
  8
Base
 66
     1
 10
0.0
 20
0.0
 30
0.0
 70
     1
  0
VERTEX
  8
Base
 10
-18.9999999999895
 20
11.5
 42
0.0
  0
VERTEX
  8
Base
 10
-18.5
 20
11.5
 42
0.0
  0
VERTEX
  8
Base
 10
-18.5
 20
4.5
 42
0.0
  0
VERTEX
  8
Base
 10
-18.9999999999918
 20
4.5
 42
0.0
  0
VERTEX
  8
Base
 10
-18.9999999999948
 20
-4.5
 42
0.0
  0
VERTEX
  8
Base
 10
-18.5
 20
-4.5
 42
0.0
  0
VERTEX
  8
Base
 10
-18.5
 20
-11.5
 42
0.0
  0
VERTEX
  8
Base
 10
-18.9999999999972
 20
-11.5
 42
0.0
  0
VERTEX
  8
Base
 10
-19.0
 20
-14.5
 42
0.0
  0
VERTEX
  8
Base
 10
-21.49999999998
 20
-14.5
 42
0.0
  0
VERTEX
  8
Base
 10
-21.49999999998
 20
-11.5
 42
0.0
  0
VERTEX
  8
Base
 10
-22.0
 20
-11.5
 42
0.0
  0
VERTEX
  8
Base
 10
-22.0
 20
-4.5
 42
0.0
  0
VERTEX
  8
Base
 10
-21.49999999998
 20
-4.5
 42
0.0
  0
VERTEX
  8
Base
 10
-21.49999999998
 20
4.5
 42
0.0
  0
VERTEX
  8
Base
 10
-22.0
 20
4.5
 42
0.0
  0
VERTEX
  8
Base
 10
-22.0
 20
11.5
 42
0.0
  0
VERTEX
  8
Base
 10
-21.49999999998
 20
11.5
 42
0.0
  0
VERTEX
  8
Base
 10
-21.5
 20
14.5
 42
0.0
  0
VERTEX
  8
Base
 10
-18.9999999999885
 20
14.5
 42
0.0
  0
SEQEND
  0
POLYLINE
  8
Base
 66
     1
 10
0.0
 20
0.0
 30
0.0
 70
     1
  0
VERTEX
  8
Base
 10
18.9999999999895
 20
11.5
 42
0.0
  0
VERTEX
  8
Base
 10
18.5
 20
11.5
 42
0.0
  0
VERTEX
  8
Base
 10
18.5
 20
4.5
 42
0.0
  0
VERTEX
  8
Base
 10
18.9999999999918
 20
4.5
 42
0.0
  0
VERTEX
  8
Base
 10
18.9999999999948
 20
-4.5
 42
0.0
  0
VERTEX
  8
Base
 10
18.5
 20
-4.5
 42
0.0
  0
VERTEX
  8
Base
 10
18.5
 20
-11.5
 42
0.0
  0
VERTEX
  8
Base
 10
18.9999999999972
 20
-11.5
 42
0.0
  0
VERTEX
  8
Base
 10
19.0
 20
-14.5
 42
0.0
  0
VERTEX
  8
Base
 10
21.49999999998
 20
-14.5
 42
0.0
  0
VERTEX
  8
Base
 10
21.49999999998
 20
-11.5
 42
0.0
  0
VERTEX
  8
Base
 10
22.0
 20
-11.5
 42
0.0
  0
VERTEX
  8
Base
 10
22.0
 20
-4.5
 42
0.0
  0
VERTEX
  8
Base
 10
21.49999999998
 20
-4.5
 42
0.0
  0
VERTEX
  8
Base
 10
21.49999999998
 20
4.5
 42
0.0
  0
VERTEX
  8
Base
 10
22.0
 20
4.5
 42
0.0
  0
VERTEX
  8
Base
 10
22.0
 20
11.5
 42
0.0
  0
VERTEX
  8
Base
 10
21.49999999998
 20
11.5
 42
0.0
  0
VERTEX
  8
Base
 10
21.5
 20
14.5
 42
0.0
  0
VERTEX
  8
Base
 10
18.9999999999885
 20
14.5
 42
0.0
  0
SEQEND
  0
POLYLINE
  8
Base
 66
     1
 10
0.0
 20
0.0
 30
0.0
 70
     1
  0
VERTEX
  8
Base
 10
-21.75
 20
45.9330127018922
 42
0.2679491924311
  0
VERTEX
  8
Base
 10
-22.0
 20
45.5
 42
0.0
  0
VERTEX
  8
Base
 10
-22.0
 20
44.0208152992317
 42
0.0
  0
VERTEX
  8
Base
 10
-27.4497473153294
 20
38.571067658889
 42
0.0
  0
VERTEX
  8
Base
 10
-17.1892550570675
 20
28.3105754006271
 42
0.0
  0
VERTEX
  8
Base
 10
-17.0988333933438
 20
28.7255733232178
 42
-0.0985349378671
  0
VERTEX
  8
Base
 10
-14.3698246726693
 20
34.987899622881
 42
0.0
  0
VERTEX
  8
Base
 10
-17.8911501880406
 20
48.1296653562356
 42
0.0
  0
VERTEX
  8
Base
 10
-20.0208154172667
 20
46.0
 42
0.0
  0
VERTEX
  8
Base
 10
-21.5000000781424
 20
46.0
 42
0.131652457839
  0
SEQEND
  0
POLYLINE
  8
Base
 66
     1
 10
0.0
 20
0.0
 30
0.0
 70
     1
  0
VERTEX
  8
Base
 10
21.75
 20
45.9330127018922
 42
-0.2679491924311
  0
VERTEX
  8
Base
 10
22.0
 20
45.5
 42
0.0
  0
VERTEX
  8
Base
 10
22.0
 20
44.0208152992317
 42
0.0
  0
VERTEX
  8
Base
 10
27.4497473153294
 20
38.571067658889
 42
0.0
  0
VERTEX
  8
Base
 10
17.1892550570675
 20
28.3105754006271
 42
0.0
  0
VERTEX
  8
Base
 10
17.0988333933438
 20
28.7255733232178
 42
0.0985349378671
  0
VERTEX
  8
Base
 10
14.3698246726693
 20
34.987899622881
 42
0.0
  0
VERTEX
  8
Base
 10
17.8911501880406
 20
48.1296653562356
 42
0.0
  0
VERTEX
  8
Base
 10
20.0208154172667
 20
46.0
 42
0.0
  0
VERTEX
  8
Base
 10
21.5000000781424
 20
46.0
 42
-0.131652457839
  0
SEQEND
  0
POLYLINE
  8
Base
 66
     1
 10
0.0
 20
0.0
 30
0.0
 70
     1
  0
VERTEX
  8
Base
 10
-22.0
 20
-34.4999999271642
 42
0.2679492314637
  0
VERTEX
  8
Base
 10
-21.75
 20
-34.9330127018922
 42
0.1316524975874
  0
VERTEX
  8
Base
 10
-21.5
 20
-35.0
 42
0.0
  0
VERTEX
  8
Base
 10
-20.5821853300595
 20
-35.0
 42
0.0
  0
VERTEX
  8
Base
 10
-16.9283630206405
 20
-36.8640535553663
 42
0.0
  0
VERTEX
  8
Base
 10
-16.5594414464218
 20
-37.0522645612219
 42
0.5195655442228
  0
VERTEX
  8
Base
 10
-14.35
 20
-35.5
 42
0.1164610728668
  0
VERTEX
  8
Base
 10
-14.5242745027713
 20
-34.76193885292
 42
-0.0055033615276
  0
VERTEX
  8
Base
 10
-14.7356299340888
 20
-34.4398734337694
 42
-0.0890386892952
  0
VERTEX
  8
Base
 10
-17.0988333933438
 20
-28.7255733232178
 42
0.0
  0
VERTEX
  8
Base
 10
-18.9999999999867
 20
-20.0000073497071
 42
0.0
  0
VERTEX
  8
Base
 10
-18.9999999999987
 20
-16.0
 42
0.0
  0
VERTEX
  8
Base
 10
-21.5
 20
-16.0
 42
0.0
  0
VERTEX
  8
Base
 10
-21.49999999998
 20
-20.0000000626038
 42
-0.3204650439157
  0
VERTEX
  8
Base
 10
-25.2162164603363
 20
-25.2027029006973
 42
0.3204650489582
  0
VERTEX
  8
Base
 10
-26.5
 20
-27.0
 42
0.0
  0
VERTEX
  8
Base
 10
-26.5
 20
-28.0000018634614
 42
0.2818919464431
  0
VERTEX
  8
Base
 10
-22.9538825453619
 20
-33.7900422483491
 42
0.0
  0
VERTEX
  8
Base
 10
-22.0
 20
-34.276680075673
 42
0.0
  0
SEQEND
  0
POLYLINE
  8
Base
 66
     1
 10
0.0
 20
0.0
 30
0.0
 70
     1
  0
VERTEX
  8
Base
 10
22.0
 20
-34.4999999271642
 42
-0.2679492314637
  0
VERTEX
  8
Base
 10
21.75
 20
-34.9330127018922
 42
-0.1316524975874
  0
VERTEX
  8
Base
 10
21.5
 20
-35.0
 42
0.0
  0
VERTEX
  8
Base
 10
20.5821853300595
 20
-35.0
 42
0.0
  0
VERTEX
  8
Base
 10
16.9283630206405
 20
-36.8640535553663
 42
0.0
  0
VERTEX
  8
Base
 10
16.5594414464218
 20
-37.0522645612219
 42
-0.5195655442228
  0
VERTEX
  8
Base
 10
14.35
 20
-35.5
 42
-0.1164610728668
  0
VERTEX
  8
Base
 10
14.5242745027713
 20
-34.76193885292
 42
0.0055033615276
  0
VERTEX
  8
Base
 10
14.7356299340888
 20
-34.4398734337694
 42
0.0890386892952
  0
VERTEX
  8
Base
 10
17.0988333933438
 20
-28.7255733232178
 42
0.0
  0
VERTEX
  8
Base
 10
18.9999999999867
 20
-20.0000073497071
 42
0.0
  0
VERTEX
  8
Base
 10
18.9999999999987
 20
-16.0
 42
0.0
  0
VERTEX
  8
Base
 10
21.5
 20
-16.0
 42
0.0
  0
VERTEX
  8
Base
 10
21.49999999998
 20
-20.0000000626038
 42
0.3204650439157
  0
VERTEX
  8
Base
 10
25.2162164603363
 20
-25.2027029006973
 42
-0.3204650489582
  0
VERTEX
  8
Base
 10
26.5
 20
-27.0000000000001
 42
0.0
  0
VERTEX
  8
Base
 10
26.5
 20
-28.0000018634614
 42
-0.2818919464431
  0
VERTEX
  8
Base
 10
22.9538825453619
 20
-33.7900422483491
 42
0.0
  0
VERTEX
  8
Base
 10
22.0
 20
-34.276680075673
 42
0.0
  0
SEQEND
  0
POLYLINE
  8
Base
 66
     1
 10
0.0
 20
0.0
 30
0.0
 70
     1
  0
VERTEX
  8
Base
 10
33.5000000000001
 20
31.4999996206039
 42
0.1989122549971
  0
VERTEX
  8
Base
 10
32.7781746378422
 20
33.2426400185982
 42
0.0
  0
VERTEX
  8
Base
 10
28.5104074554812
 20
37.5104074554812
 42
0.0
  0
VERTEX
  8
Base
 10
17.5687680794145
 20
26.5687680794145
 42
0.0
  0
VERTEX
  8
Base
 10
18.9999999999867
 20
20.0000073497071
 42
0.0
  0
VERTEX
  8
Base
 10
19.0
 20
16.0
 42
0.0
  0
VERTEX
  8
Base
 10
21.49999999998
 20
16.0
 42
0.0
  0
VERTEX
  8
Base
 10
21.4999999999825
 20
20.0000027883902
 42
-0.4142124986218
  0
VERTEX
  8
Base
 10
26.0000005209542
 20
24.5000000000399
 42
0.1989124537789
  0
VERTEX
  8
Base
 10
31.1819778440657
 20
26.6464441876438
 42
0.0
  0
VERTEX
  8
Base
 10
32.7677672087905
 20
28.2322345523505
 42
0.1989120057356
  0
VERTEX
  8
Base
 10
33.4999999999898
 20
30.0000000008899
 42
0.0
  0
SEQEND
  0
POLYLINE
  8
Base
 66
     1
 10
0.0
 20
0.0
 30
0.0
 70
     1
  0
VERTEX
  8
Base
 10
-16.0104077965923
 20
50.0104078598481
 42
0.0
  0
VERTEX
  8
Base
 10
-16.6664053320845
 20
49.3544102852332
 42
0.0
  0
VERTEX
  8
Base
 10
-13.2147367827998
 20
36.4726078884149
 42
-0.083254128034
  0
VERTEX
  8
Base
 10
-8.75
 20
40.1554445662277
 42
-0.1316524975874
  0
VERTEX
  8
Base
 10
0.0
 20
42.5
 42
-0.1316524975874
  0
VERTEX
  8
Base
 10
8.75
 20
40.1554445662277
 42
-0.083254128034
  0
VERTEX
  8
Base
 10
13.2147367827998
 20
36.4726078884149
 42
0.0
  0
VERTEX
  8
Base
 10
16.6664053320845
 20
49.3544102852332
 42
0.0
  0
VERTEX
  8
Base
 10
16.0104077965923
 20
50.0104078598481
 42
0.1989123728623
  0
VERTEX
  8
Base
 10
10.0000000640183
 20
52.49999999998
 42
0.0
  0
VERTEX
  8
Base
 10
0.0
 20
52.49999999998
 42
0.0
  0
VERTEX
  8
Base
 10
-10.0000000640183
 20
52.49999999998
 42
0.1989123728623
  0
SEQEND
  0
ENDSEC
  0
EOF
