  0
SECTION
  2
HEADER
  9
$ACADVER
  1
AC1009
  9
$EXTMAX
 10
13.9043769836426
 20
51.5499992370605
 30
0.0
  9
$EXTMIN
 10
-13.9051246643066
 20
40.5948753356934
 30
0.0
  9
$INSUNITS
 70
     4
  9
$LUNITS
 70
     2
  9
$LUPREC
 70
     4
  9
$MEASUREMENT
 70
     1
  0
ENDSEC
  0
SECTION
  2
TABLES
  0
TABLE
  2
LAYER
 70
     1
  0
LAYER
  2
0
 70
     0
 62
     7
  6
Continuous
  0
LAYER
  2
Par_defaut
 70
     0
 62
    70
  6
Continuous
  0
ENDTAB
  0
TABLE
  2
APPID
 70
     1
  0
APPID
  2
ACAD
 70
     0
  0
ENDTAB
  0
ENDSEC
  0
SECTION
  2
ENTITIES
  0
CIRCLE
  8
Par_defaut
 10
-10.0
 20
44.5
 30
0.0
 40
3.0
  0
CIRCLE
  8
Par_defaut
 10
-1.27
 20
47.77
 30
0.0
 40
0.55
  0
CIRCLE
  8
Par_defaut
 10
-1.27
 20
45.23
 30
0.0
 40
0.55
  0
POLYLINE
  8
Par_defaut
 66
     1
 10
0.0
 20
0.0
 30
0.0
 70
     1
  0
VERTEX
  8
Par_defaut
 10
-3.87867965635
 20
50.207106781
 42
0.0
  0
VERTEX
  8
Par_defaut
 10
-4.5857864375
 20
50.9142135622
 42
0.0
  0
VERTEX
  8
Par_defaut
 10
-7.4142135623
 20
48.0857864375
 42
0.0
  0
VERTEX
  8
Par_defaut
 10
-6.7071067811
 20
47.3786796563
 42
0.0
  0
SEQEND
  0
CIRCLE
  8
Par_defaut
 10
10.0
 20
44.5
 30
0.0
 40
3.0
  0
CIRCLE
  8
Par_defaut
 10
1.27
 20
47.77
 30
0.0
 40
0.55
  0
CIRCLE
  8
Par_defaut
 10
1.27
 20
45.23
 30
0.0
 40
0.55
  0
POLYLINE
  8
Par_defaut
 66
     1
 10
0.0
 20
0.0
 30
0.0
 70
     1
  0
VERTEX
  8
Par_defaut
 10
3.87867965635
 20
50.207106781
 42
0.0
  0
VERTEX
  8
Par_defaut
 10
4.5857864375
 20
50.9142135622
 42
0.0
  0
VERTEX
  8
Par_defaut
 10
7.4142135623
 20
48.0857864375
 42
0.0
  0
VERTEX
  8
Par_defaut
 10
6.7071067811
 20
47.3786796563
 42
0.0
  0
SEQEND
  0
POLYLINE
  8
Par_defaut
 66
     1
 10
0.0
 20
0.0
 30
0.0
 70
     1
  0
VERTEX
  8
Par_defaut
 10
12.6333494258644
 20
47.3836558049288
 42
0.0
  0
VERTEX
  8
Par_defaut
 10
9.2310430740275
 20
50.4906360010086
 42
0.0541679892631
  0
VERTEX
  8
Par_defaut
 10
8.5250000004863
 20
51.0074028850462
 42
0.1316525033001
  0
VERTEX
  8
Par_defaut
 10
6.5
 20
51.55
 42
0.0
  0
VERTEX
  8
Par_defaut
 10
0.0
 20
51.55
 42
0.0
  0
VERTEX
  8
Par_defaut
 10
-6.5
 20
51.55
 42
0.1316525033001
  0
VERTEX
  8
Par_defaut
 10
-8.5250000004863
 20
51.0074028850462
 42
0.0541679892631
  0
VERTEX
  8
Par_defaut
 10
-9.2310430740275
 20
50.4906360010086
 42
0.0
  0
VERTEX
  8
Par_defaut
 10
-12.6333491636221
 20
47.383656044408
 42
0.1481996083423
  0
VERTEX
  8
Par_defaut
 10
-13.7911238223713
 20
45.4366857335569
 42
0.3340050323554
  0
VERTEX
  8
Par_defaut
 10
-11.9525624189767
 20
41.1180626853828
 42
0.2351337806802
  0
VERTEX
  8
Par_defaut
 10
-8.4787115491531
 20
40.9033791624193
 42
0.0
  0
VERTEX
  8
Par_defaut
 10
-6.9926382508047
 20
41.5319542188353
 42
-0.1003740638834
  0
VERTEX
  8
Par_defaut
 10
0.0
 20
42.9500000000079
 42
-0.1003740638834
  0
VERTEX
  8
Par_defaut
 10
6.9926382508047
 20
41.5319542188353
 42
0.0
  0
VERTEX
  8
Par_defaut
 10
8.4787115491531
 20
40.9033791624193
 42
0.2351337806802
  0
VERTEX
  8
Par_defaut
 10
11.9525624189767
 20
41.1180626853828
 42
0.3340050323554
  0
VERTEX
  8
Par_defaut
 10
13.7911238223713
 20
45.4366857335569
 42
0.1481996083423
  0
SEQEND
  0
ENDSEC
  0
EOF
