  0
SECTION
  2
HEADER
  9
$ACADVER
  1
AC1009
  9
$EXTMAX
 10
14.3998422622681
 20
51.4500007629395
 30
0.0
  9
$EXTMIN
 10
-14.3999996185303
 20
40.5999984741211
 30
0.0
  9
$INSUNITS
 70
     4
  9
$LUNITS
 70
     2
  9
$LUPREC
 70
     4
  9
$MEASUREMENT
 70
     1
  0
ENDSEC
  0
SECTION
  2
TABLES
  0
TABLE
  2
LAYER
 70
     1
  0
LAYER
  2
0
 70
     0
 62
     7
  6
Continuous
  0
LAYER
  2
Par_defaut
 70
     0
 62
    70
  6
Continuous
  0
ENDTAB
  0
TABLE
  2
APPID
 70
     1
  0
APPID
  2
ACAD
 70
     0
  0
ENDTAB
  0
ENDSEC
  0
SECTION
  2
ENTITIES
  0
POLYLINE
  8
Par_defaut
 66
     1
 10
0.0
 20
0.0
 30
0.0
 70
     1
  0
VERTEX
  8
Par_defaut
 10
-9.53553390595
 20
44.5502525316
 42
0.0
  0
VERTEX
  8
Par_defaut
 10
-10.2426406871
 20
45.2573593128
 42
0.0
  0
VERTEX
  8
Par_defaut
 10
-13.0710678119
 20
42.4289321881
 42
0.0
  0
VERTEX
  8
Par_defaut
 10
-12.3639610307
 20
41.7218254069
 42
0.0
  0
SEQEND
  0
POLYLINE
  8
Par_defaut
 66
     1
 10
0.0
 20
0.0
 30
0.0
 70
     1
  0
VERTEX
  8
Par_defaut
 10
9.53553390595
 20
44.5502525316
 42
0.0
  0
VERTEX
  8
Par_defaut
 10
10.2426406871
 20
45.2573593128
 42
0.0
  0
VERTEX
  8
Par_defaut
 10
13.0710678119
 20
42.4289321881
 42
0.0
  0
VERTEX
  8
Par_defaut
 10
12.3639610307
 20
41.7218254069
 42
0.0
  0
SEQEND
  0
CIRCLE
  8
Par_defaut
 10
-6.5
 20
46.5
 30
0.0
 40
3.0
  0
CIRCLE
  8
Par_defaut
 10
6.5
 20
46.5
 30
0.0
 40
3.0
  0
CIRCLE
  8
Par_defaut
 10
1.27
 20
47.77
 30
0.0
 40
0.55
  0
CIRCLE
  8
Par_defaut
 10
-1.27
 20
47.77
 30
0.0
 40
0.55
  0
CIRCLE
  8
Par_defaut
 10
1.27
 20
45.23
 30
0.0
 40
0.55
  0
CIRCLE
  8
Par_defaut
 10
-1.27
 20
45.23
 30
0.0
 40
0.55
  0
POLYLINE
  8
Par_defaut
 66
     1
 10
0.0
 20
0.0
 30
0.0
 70
     1
  0
VERTEX
  8
Par_defaut
 10
-8.4749999995077
 20
50.9208003452327
 42
-0.1316525033001
  0
VERTEX
  8
Par_defaut
 10
-6.5000000011162
 20
51.45
 42
0.0
  0
VERTEX
  8
Par_defaut
 10
0.0
 20
51.45
 42
0.0
  0
VERTEX
  8
Par_defaut
 10
6.4999999994385
 20
51.45
 42
-0.1316525033001
  0
VERTEX
  8
Par_defaut
 10
8.4749999995137
 20
50.9208003452293
 42
-0.0791316781663
  0
VERTEX
  8
Par_defaut
 10
9.4399355923044
 20
50.1380444797427
 42
0.0
  0
VERTEX
  8
Par_defaut
 10
13.6584337234139
 20
45.4367921575713
 42
-0.4764510926756
  0
VERTEX
  8
Par_defaut
 10
12.95
 20
40.9885263290251
 42
-0.1316525023515
  0
VERTEX
  8
Par_defaut
 10
11.5000000009366
 20
40.6
 42
0.0
  0
VERTEX
  8
Par_defaut
 10
9.0797852397668
 20
40.6
 42
0.2688894597004
  0
VERTEX
  8
Par_defaut
 10
-9.025000000004
 20
40.631758538316
 42
0.0008770751341
  0
VERTEX
  8
Par_defaut
 10
-9.0797852397668
 20
40.6
 42
0.0
  0
VERTEX
  8
Par_defaut
 10
-11.4999999438042
 20
40.6
 42
-0.1316525023515
  0
VERTEX
  8
Par_defaut
 10
-12.95
 20
40.9885263290251
 42
-0.4764510926756
  0
VERTEX
  8
Par_defaut
 10
-13.6584337234139
 20
45.4367921575713
 42
0.0
  0
VERTEX
  8
Par_defaut
 10
-9.4399354269157
 20
50.138044664058
 42
-0.0791316781663
  0
SEQEND
  0
ENDSEC
  0
EOF
