  0
SECTION
  2
HEADER
  9
$ACADVER
  1
AC1009
  9
$EXTMAX
 10
21.0
 20
6.0
 30
0.0
  9
$EXTMIN
 10
-21.0
 20
0.0
 30
0.0
  9
$INSUNITS
 70
     4
  9
$LUNITS
 70
     2
  9
$LUPREC
 70
     4
  9
$MEASUREMENT
 70
     1
  0
ENDSEC
  0
SECTION
  2
TABLES
  0
TABLE
  2
LAYER
 70
     1
  0
LAYER
  2
0
 70
     0
 62
     7
  6
Continuous
  0
LAYER
  2
Par_defaut
 70
     0
 62
    70
  6
Continuous
  0
ENDTAB
  0
TABLE
  2
APPID
 70
     1
  0
APPID
  2
ACAD
 70
     0
  0
ENDTAB
  0
ENDSEC
  0
SECTION
  2
ENTITIES
  0
POLYLINE
  8
Par_defaut
 66
     1
 10
0.0
 20
0.0
 30
0.0
 70
     1
  0
VERTEX
  8
Par_defaut
 10
16.5
 20
4.5
 42
-1.0
  0
VERTEX
  8
Par_defaut
 10
16.5
 20
1.5
 42
0.0
  0
VERTEX
  8
Par_defaut
 10
8.5
 20
1.5
 42
-1.0
  0
VERTEX
  8
Par_defaut
 10
8.5
 20
4.5
 42
0.0
  0
SEQEND
  0
POLYLINE
  8
Par_defaut
 66
     1
 10
0.0
 20
0.0
 30
0.0
 70
     1
  0
VERTEX
  8
Par_defaut
 10
-16.5
 20
4.5
 42
1.0
  0
VERTEX
  8
Par_defaut
 10
-16.5
 20
1.5
 42
0.0
  0
VERTEX
  8
Par_defaut
 10
-8.5
 20
1.5
 42
1.0
  0
VERTEX
  8
Par_defaut
 10
-8.5
 20
4.5
 42
0.0
  0
SEQEND
  0
POLYLINE
  8
Par_defaut
 66
     1
 10
0.0
 20
0.0
 30
0.0
 70
     1
  0
VERTEX
  8
Par_defaut
 10
-4.0
 20
4.5
 42
1.0
  0
VERTEX
  8
Par_defaut
 10
-4.0
 20
1.5
 42
0.0
  0
VERTEX
  8
Par_defaut
 10
4.0
 20
1.5
 42
1.0
  0
VERTEX
  8
Par_defaut
 10
4.0
 20
4.5
 42
0.0
  0
SEQEND
  0
POLYLINE
  8
Par_defaut
 66
     1
 10
0.0
 20
0.0
 30
0.0
 70
     1
  0
VERTEX
  8
Par_defaut
 10
-19.5
 20
4.5
 42
0.0
  0
VERTEX
  8
Par_defaut
 10
-21.0
 20
4.5
 42
0.0
  0
VERTEX
  8
Par_defaut
 10
-21.0
 20
1.5
 42
0.0
  0
VERTEX
  8
Par_defaut
 10
-19.5
 20
1.5
 42
-0.4142135623731
  0
VERTEX
  8
Par_defaut
 10
-19.0
 20
1.0
 42
-0.4142135623731
  0
VERTEX
  8
Par_defaut
 10
-19.5
 20
0.5
 42
0.0
  0
VERTEX
  8
Par_defaut
 10
-19.5
 20
0.0
 42
0.0
  0
VERTEX
  8
Par_defaut
 10
-17.5
 20
0.0
 42
0.0
  0
VERTEX
  8
Par_defaut
 10
-17.0
 20
0.5
 42
0.0
  0
VERTEX
  8
Par_defaut
 10
-1.5
 20
0.5
 42
0.0
  0
VERTEX
  8
Par_defaut
 10
-1.0
 20
0.0
 42
0.0
  0
VERTEX
  8
Par_defaut
 10
0.0
 20
0.0
 42
0.0
  0
VERTEX
  8
Par_defaut
 10
1.0
 20
0.0
 42
0.0
  0
VERTEX
  8
Par_defaut
 10
1.5
 20
0.5
 42
0.0
  0
VERTEX
  8
Par_defaut
 10
17.0
 20
0.5
 42
0.0
  0
VERTEX
  8
Par_defaut
 10
17.5
 20
0.0
 42
0.0
  0
VERTEX
  8
Par_defaut
 10
19.5
 20
0.0
 42
0.0
  0
VERTEX
  8
Par_defaut
 10
19.5
 20
0.5
 42
-0.4142135623731
  0
VERTEX
  8
Par_defaut
 10
19.0
 20
1.0
 42
-0.4142135623731
  0
VERTEX
  8
Par_defaut
 10
19.5
 20
1.5
 42
0.0
  0
VERTEX
  8
Par_defaut
 10
21.0
 20
1.5
 42
0.0
  0
VERTEX
  8
Par_defaut
 10
21.0
 20
4.5
 42
0.0
  0
VERTEX
  8
Par_defaut
 10
19.5
 20
4.5
 42
-0.4142135623731
  0
VERTEX
  8
Par_defaut
 10
19.0
 20
5.0
 42
-0.4142135623731
  0
VERTEX
  8
Par_defaut
 10
19.5
 20
5.5
 42
0.0
  0
VERTEX
  8
Par_defaut
 10
19.5
 20
6.0
 42
0.0
  0
VERTEX
  8
Par_defaut
 10
17.5
 20
6.0
 42
0.0
  0
VERTEX
  8
Par_defaut
 10
17.0
 20
5.5
 42
0.0
  0
VERTEX
  8
Par_defaut
 10
1.5
 20
5.5
 42
0.0
  0
VERTEX
  8
Par_defaut
 10
1.0
 20
6.0
 42
0.0
  0
VERTEX
  8
Par_defaut
 10
0.0
 20
6.0
 42
0.0
  0
VERTEX
  8
Par_defaut
 10
-1.0
 20
6.0
 42
0.0
  0
VERTEX
  8
Par_defaut
 10
-1.5
 20
5.5
 42
0.0
  0
VERTEX
  8
Par_defaut
 10
-17.0
 20
5.5
 42
0.0
  0
VERTEX
  8
Par_defaut
 10
-17.5
 20
6.0
 42
0.0
  0
VERTEX
  8
Par_defaut
 10
-19.5
 20
6.0
 42
0.0
  0
VERTEX
  8
Par_defaut
 10
-19.5
 20
5.5
 42
-0.4142135623731
  0
VERTEX
  8
Par_defaut
 10
-19.0
 20
5.0
 42
-0.4142135623731
  0
SEQEND
  0
ENDSEC
  0
EOF
