  0
SECTION
  2
HEADER
  9
$ACADVER
  1
AC1009
  9
$EXTMAX
 10
35.0
 20
54.0
 30
0.0
  9
$EXTMIN
 10
-35.0
 20
-43.0
 30
0.0
  9
$INSUNITS
 70
     4
  9
$LUNITS
 70
     2
  9
$LUPREC
 70
     4
  9
$MEASUREMENT
 70
     1
  0
ENDSEC
  0
SECTION
  2
TABLES
  0
TABLE
  2
LAYER
 70
     1
  0
LAYER
  2
0
 70
     0
 62
     7
  6
Continuous
  0
LAYER
  2
MainBoard
 70
     0
 62
    70
  6
Continuous
  0
ENDTAB
  0
TABLE
  2
APPID
 70
     1
  0
APPID
  2
ACAD
 70
     0
  0
ENDTAB
  0
ENDSEC
  0
SECTION
  2
ENTITIES
  0
CIRCLE
  8
MainBoard
 10
12.99
 20
13.55
 30
0.0
 40
0.4
  0
CIRCLE
  8
MainBoard
 10
14.01
 20
11.01
 30
0.0
 40
0.4
  0
CIRCLE
  8
MainBoard
 10
-11.5
 20
31.5
 30
0.0
 40
0.4
  0
CIRCLE
  8
MainBoard
 10
10.45
 20
13.55
 30
0.0
 40
0.4
  0
CIRCLE
  8
MainBoard
 10
11.47
 20
11.01
 30
0.0
 40
0.4
  0
CIRCLE
  8
MainBoard
 10
16.55
 20
11.01
 30
0.0
 40
0.4
  0
CIRCLE
  8
MainBoard
 10
15.53
 20
13.55
 30
0.0
 40
0.4
  0
CIRCLE
  8
MainBoard
 10
-10.45
 20
11.01
 30
0.0
 40
0.4
  0
CIRCLE
  8
MainBoard
 10
-15.53
 20
11.01
 30
0.0
 40
0.4
  0
CIRCLE
  8
MainBoard
 10
-16.55
 20
13.55
 30
0.0
 40
0.4
  0
CIRCLE
  8
MainBoard
 10
-12.99
 20
11.01
 30
0.0
 40
0.4
  0
CIRCLE
  8
MainBoard
 10
-11.47
 20
13.55
 30
0.0
 40
0.4
  0
CIRCLE
  8
MainBoard
 10
-14.01
 20
13.55
 30
0.0
 40
0.4
  0
CIRCLE
  8
MainBoard
 10
-16.54
 20
-35.5
 30
0.0
 40
0.4
  0
CIRCLE
  8
MainBoard
 10
-14.0
 20
-35.5
 30
0.0
 40
0.4
  0
CIRCLE
  8
MainBoard
 10
-11.46
 20
-35.5
 30
0.0
 40
0.4
  0
POLYLINE
  8
MainBoard
 66
     1
 10
0.0
 20
0.0
 30
0.0
 70
     1
  0
VERTEX
  8
MainBoard
 10
-6.0
 20
49.5
 42
0.0
  0
VERTEX
  8
MainBoard
 10
-9.535534
 20
45.964466
 42
0.0
  0
VERTEX
  8
MainBoard
 10
-8.828427
 20
45.257359
 42
0.0
  0
VERTEX
  8
MainBoard
 10
-5.292893
 20
48.792893
 42
0.0
  0
SEQEND
  0
POLYLINE
  8
MainBoard
 66
     1
 10
0.0
 20
0.0
 30
0.0
 70
     1
  0
VERTEX
  8
MainBoard
 10
32.453436
 20
29.111508
 42
0.0
  0
VERTEX
  8
MainBoard
 10
32.348908
 20
28.116986
 42
0.0
  0
VERTEX
  8
MainBoard
 10
24.392732
 20
28.953214
 42
0.0
  0
VERTEX
  8
MainBoard
 10
24.497261
 20
29.947736
 42
0.0
  0
SEQEND
  0
POLYLINE
  8
MainBoard
 66
     1
 10
0.0
 20
0.0
 30
0.0
 70
     1
  0
VERTEX
  8
MainBoard
 10
-32.453436
 20
29.111508
 42
0.0
  0
VERTEX
  8
MainBoard
 10
-32.348908
 20
28.116986
 42
0.0
  0
VERTEX
  8
MainBoard
 10
-24.392732
 20
28.953214
 42
0.0
  0
VERTEX
  8
MainBoard
 10
-24.497261
 20
29.947736
 42
0.0
  0
SEQEND
  0
POLYLINE
  8
MainBoard
 66
     1
 10
0.0
 20
0.0
 30
0.0
 70
     1
  0
VERTEX
  8
MainBoard
 10
-19.435029
 20
34.650758
 42
0.0
  0
VERTEX
  8
MainBoard
 10
-13.778175
 20
40.307612
 42
0.0
  0
VERTEX
  8
MainBoard
 10
-14.485281
 20
41.014719
 42
0.0
  0
VERTEX
  8
MainBoard
 10
-20.142136
 20
35.357864
 42
0.0
  0
SEQEND
  0
POLYLINE
  8
MainBoard
 66
     1
 10
0.0
 20
0.0
 30
0.0
 70
     1
  0
VERTEX
  8
MainBoard
 10
19.435029
 20
34.650758
 42
0.0
  0
VERTEX
  8
MainBoard
 10
13.778175
 20
40.307612
 42
0.0
  0
VERTEX
  8
MainBoard
 10
14.485281
 20
41.014719
 42
0.0
  0
VERTEX
  8
MainBoard
 10
20.142136
 20
35.357864
 42
0.0
  0
SEQEND
  0
POLYLINE
  8
MainBoard
 66
     1
 10
0.0
 20
0.0
 30
0.0
 70
     1
  0
VERTEX
  8
MainBoard
 10
5.292893
 20
48.792893
 42
0.0
  0
VERTEX
  8
MainBoard
 10
6.0
 20
49.5
 42
0.0
  0
VERTEX
  8
MainBoard
 10
9.535534
 20
45.964466
 42
0.0
  0
VERTEX
  8
MainBoard
 10
8.828427
 20
45.257359
 42
0.0
  0
SEQEND
  0
POLYLINE
  8
MainBoard
 66
     1
 10
0.0
 20
0.0
 30
0.0
 70
     1
  0
VERTEX
  8
MainBoard
 10
-33.8388350000252
 20
34.3032999999826
 42
0.1989122935251
  0
VERTEX
  8
MainBoard
 10
-35.0
 20
31.5
 42
0.0
  0
VERTEX
  8
MainBoard
 10
-35.0
 20
30.0
 42
0.1989124332509
  0
VERTEX
  8
MainBoard
 10
-33.8284260000408
 20
27.171571999999
 42
0.0
  0
VERTEX
  8
MainBoard
 10
-32.242636
 20
25.585783
 42
0.1989123859413
  0
VERTEX
  8
MainBoard
 10
-26.0000010000027
 20
22.9999999999601
 42
-0.4142136438557
  0
VERTEX
  8
MainBoard
 10
-23.00000000002
 20
19.9999999894287
 42
0.0
  0
VERTEX
  8
MainBoard
 10
-23.0
 20
-20.0
 42
-0.3204650088583
  0
VERTEX
  8
MainBoard
 10
-25.7027029999651
 20
-23.7837830000197
 42
0.3204650883157
  0
VERTEX
  8
MainBoard
 10
-27.9999999999599
 20
-27.000000000148
 42
0.0
  0
VERTEX
  8
MainBoard
 10
-28.00000000004
 20
-28.0000000020928
 42
0.2818922210243
  0
VERTEX
  8
MainBoard
 10
-23.63554
 20
-35.126208
 42
0.0
  0
VERTEX
  8
MainBoard
 10
-9.2721899999956
 20
-42.453879000042
 42
0.1184867051364
  0
VERTEX
  8
MainBoard
 10
-6.999972
 20
-43.0
 42
0.0
  0
VERTEX
  8
MainBoard
 10
0.0
 20
-43.0
 42
0.0
  0
VERTEX
  8
MainBoard
 10
6.9999999999963
 20
-42.9999999999593
 42
0.1184858116788
  0
VERTEX
  8
MainBoard
 10
9.272202
 20
-42.453887
 42
0.0
  0
VERTEX
  8
MainBoard
 10
23.6355470000068
 20
-35.1262060000318
 42
0.2818920160691
  0
VERTEX
  8
MainBoard
 10
28.0
 20
-28.0
 42
0.0
  0
VERTEX
  8
MainBoard
 10
28.0
 20
-27.0
 42
0.3204650488491
  0
VERTEX
  8
MainBoard
 10
25.7027030000376
 20
-23.7837840000135
 42
-0.3204650439351
  0
VERTEX
  8
MainBoard
 10
22.99999999998
 20
-19.9999999996988
 42
0.0
  0
VERTEX
  8
MainBoard
 10
22.99999999999
 20
20.0000000258
 42
-0.4142135648912
  0
VERTEX
  8
MainBoard
 10
25.9999999999925
 20
23.00000000001
 42
0.1989124537775
  0
VERTEX
  8
MainBoard
 10
32.2426380000308
 20
25.5857840000492
 42
0.0
  0
VERTEX
  8
MainBoard
 10
33.828427
 20
27.171574
 42
0.1989123138196
  0
VERTEX
  8
MainBoard
 10
34.9999999999798
 20
30.0000000009819
 42
0.0
  0
VERTEX
  8
MainBoard
 10
35.0
 20
31.5
 42
0.1989123931713
  0
VERTEX
  8
MainBoard
 10
33.838834
 20
34.303302
 42
0.0
  0
VERTEX
  8
MainBoard
 10
17.0710680000351
 20
51.0710680000143
 42
0.1989123728636
  0
VERTEX
  8
MainBoard
 10
10.0
 20
54.0
 42
0.0
  0
VERTEX
  8
MainBoard
 10
0.0
 20
54.0
 42
0.0
  0
VERTEX
  8
MainBoard
 10
-10.0000000000454
 20
53.9999999999999
 42
0.1989124212347
  0
VERTEX
  8
MainBoard
 10
-17.07107
 20
51.071067
 42
0.0
  0
SEQEND
  0
CIRCLE
  8
MainBoard
 10
-14.04
 20
31.5
 30
0.0
 40
0.4
  0
CIRCLE
  8
MainBoard
 10
-16.58
 20
31.5
 30
0.0
 40
0.4
  0
POLYLINE
  8
MainBoard
 66
     1
 10
0.0
 20
0.0
 30
0.0
 70
     1
  0
VERTEX
  8
MainBoard
 10
-19.5
 20
30.29
 42
1.0
  0
VERTEX
  8
MainBoard
 10
-20.21
 20
31.0
 42
0.0
  0
VERTEX
  8
MainBoard
 10
-20.29
 20
31.0
 42
1.0
  0
VERTEX
  8
MainBoard
 10
-21.0
 20
30.29
 42
0.0
  0
VERTEX
  8
MainBoard
 10
-21.0
 20
28.71
 42
1.0
  0
VERTEX
  8
MainBoard
 10
-20.29
 20
28.0
 42
0.0
  0
VERTEX
  8
MainBoard
 10
-20.21
 20
28.0
 42
1.0
  0
VERTEX
  8
MainBoard
 10
-19.5
 20
28.71
 42
0.0
  0
SEQEND
  0
POLYLINE
  8
MainBoard
 66
     1
 10
0.0
 20
0.0
 30
0.0
 70
     1
  0
VERTEX
  8
MainBoard
 10
-19.5
 20
0.79
 42
1.0
  0
VERTEX
  8
MainBoard
 10
-20.21
 20
1.5
 42
0.0
  0
VERTEX
  8
MainBoard
 10
-20.29
 20
1.5
 42
1.0
  0
VERTEX
  8
MainBoard
 10
-21.0
 20
0.79
 42
0.0
  0
VERTEX
  8
MainBoard
 10
-21.0
 20
-0.79
 42
1.0
  0
VERTEX
  8
MainBoard
 10
-20.29
 20
-1.5
 42
0.0
  0
VERTEX
  8
MainBoard
 10
-20.21
 20
-1.5
 42
1.0
  0
VERTEX
  8
MainBoard
 10
-19.5
 20
-0.79
 42
0.0
  0
SEQEND
  0
POLYLINE
  8
MainBoard
 66
     1
 10
0.0
 20
0.0
 30
0.0
 70
     1
  0
VERTEX
  8
MainBoard
 10
-19.5
 20
-31.21
 42
1.0
  0
VERTEX
  8
MainBoard
 10
-20.21
 20
-30.5
 42
0.0
  0
VERTEX
  8
MainBoard
 10
-20.29
 20
-30.5
 42
1.0
  0
VERTEX
  8
MainBoard
 10
-21.0
 20
-31.21
 42
0.0
  0
VERTEX
  8
MainBoard
 10
-21.0
 20
-32.79
 42
1.0
  0
VERTEX
  8
MainBoard
 10
-20.29
 20
-33.5
 42
0.0
  0
VERTEX
  8
MainBoard
 10
-20.21
 20
-33.5
 42
1.0
  0
VERTEX
  8
MainBoard
 10
-19.5
 20
-32.79
 42
0.0
  0
SEQEND
  0
POLYLINE
  8
MainBoard
 66
     1
 10
0.0
 20
0.0
 30
0.0
 70
     1
  0
VERTEX
  8
MainBoard
 10
19.5
 20
30.29
 42
-1.0
  0
VERTEX
  8
MainBoard
 10
20.21
 20
31.0
 42
0.0
  0
VERTEX
  8
MainBoard
 10
20.29
 20
31.0
 42
-1.0
  0
VERTEX
  8
MainBoard
 10
21.0
 20
30.29
 42
0.0
  0
VERTEX
  8
MainBoard
 10
21.0
 20
28.71
 42
-1.0
  0
VERTEX
  8
MainBoard
 10
20.29
 20
28.0
 42
0.0
  0
VERTEX
  8
MainBoard
 10
20.21
 20
28.0
 42
-1.0
  0
VERTEX
  8
MainBoard
 10
19.5
 20
28.71
 42
0.0
  0
SEQEND
  0
POLYLINE
  8
MainBoard
 66
     1
 10
0.0
 20
0.0
 30
0.0
 70
     1
  0
VERTEX
  8
MainBoard
 10
19.5
 20
0.79
 42
-1.0
  0
VERTEX
  8
MainBoard
 10
20.21
 20
1.5
 42
0.0
  0
VERTEX
  8
MainBoard
 10
20.29
 20
1.5
 42
-1.0
  0
VERTEX
  8
MainBoard
 10
21.0
 20
0.79
 42
0.0
  0
VERTEX
  8
MainBoard
 10
21.0
 20
-0.79
 42
-1.0
  0
VERTEX
  8
MainBoard
 10
20.29
 20
-1.5
 42
0.0
  0
VERTEX
  8
MainBoard
 10
20.21
 20
-1.5
 42
-1.0
  0
VERTEX
  8
MainBoard
 10
19.5
 20
-0.79
 42
0.0
  0
SEQEND
  0
POLYLINE
  8
MainBoard
 66
     1
 10
0.0
 20
0.0
 30
0.0
 70
     1
  0
VERTEX
  8
MainBoard
 10
19.5
 20
-31.21
 42
-1.0
  0
VERTEX
  8
MainBoard
 10
20.21
 20
-30.5
 42
0.0
  0
VERTEX
  8
MainBoard
 10
20.29
 20
-30.5
 42
-1.0
  0
VERTEX
  8
MainBoard
 10
21.0
 20
-31.21
 42
0.0
  0
VERTEX
  8
MainBoard
 10
21.0
 20
-32.79
 42
-1.0
  0
VERTEX
  8
MainBoard
 10
20.29
 20
-33.5
 42
0.0
  0
VERTEX
  8
MainBoard
 10
20.21
 20
-33.5
 42
-1.0
  0
VERTEX
  8
MainBoard
 10
19.5
 20
-32.79
 42
0.0
  0
SEQEND
  0
POLYLINE
  8
MainBoard
 66
     1
 10
0.0
 20
0.0
 30
0.0
 70
     1
  0
VERTEX
  8
MainBoard
 10
-13.5
 20
-34.0
 42
0.0
  0
VERTEX
  8
MainBoard
 10
13.5
 20
-34.0
 42
0.0
  0
VERTEX
  8
MainBoard
 10
13.5
 20
-14.0
 42
0.0
  0
VERTEX
  8
MainBoard
 10
-13.5
 20
-14.0
 42
0.0
  0
SEQEND
  0
POLYLINE
  8
MainBoard
 66
     1
 10
0.0
 20
0.0
 30
0.0
 70
     1
  0
VERTEX
  8
MainBoard
 10
-8.0
 20
8.5
 42
0.4142135623731
  0
VERTEX
  8
MainBoard
 10
-9.0
 20
9.5
 42
0.0
  0
VERTEX
  8
MainBoard
 10
-18.0
 20
9.5
 42
0.4142135623731
  0
VERTEX
  8
MainBoard
 10
-19.0
 20
8.5
 42
0.0
  0
VERTEX
  8
MainBoard
 10
-19.0
 20
5.5
 42
0.4142135623731
  0
VERTEX
  8
MainBoard
 10
-18.0
 20
4.5
 42
0.0
  0
VERTEX
  8
MainBoard
 10
-9.0
 20
4.5
 42
0.4142135623731
  0
VERTEX
  8
MainBoard
 10
-8.0
 20
5.5
 42
0.0
  0
SEQEND
  0
POLYLINE
  8
MainBoard
 66
     1
 10
0.0
 20
0.0
 30
0.0
 70
     1
  0
VERTEX
  8
MainBoard
 10
19.0
 20
5.5
 42
-0.4142135623731
  0
VERTEX
  8
MainBoard
 10
18.0
 20
4.5
 42
0.0
  0
VERTEX
  8
MainBoard
 10
9.0
 20
4.5
 42
-0.4142135623731
  0
VERTEX
  8
MainBoard
 10
8.0
 20
5.5
 42
0.0
  0
VERTEX
  8
MainBoard
 10
8.0
 20
8.5
 42
-0.4142135623731
  0
VERTEX
  8
MainBoard
 10
9.0
 20
9.5
 42
0.0
  0
VERTEX
  8
MainBoard
 10
18.0
 20
9.5
 42
-0.4142135623731
  0
VERTEX
  8
MainBoard
 10
19.0
 20
8.5
 42
0.0
  0
SEQEND
  0
ENDSEC
  0
EOF
