  0
SECTION
  2
HEADER
  9
$ACADVER
  1
AC1009
  9
$EXTMAX
 10
35.0
 20
54.0
 30
0.0
  9
$EXTMIN
 10
-35.0
 20
-43.0
 30
0.0
  9
$INSUNITS
 70
     4
  9
$LUNITS
 70
     2
  9
$LUPREC
 70
     4
  9
$MEASUREMENT
 70
     1
  0
ENDSEC
  0
SECTION
  2
TABLES
  0
TABLE
  2
LAYER
 70
     1
  0
LAYER
  2
0
 70
     0
 62
     7
  6
Continuous
  0
LAYER
  2
Connecteurs
 70
     0
 62
    70
  6
Continuous
  0
ENDTAB
  0
TABLE
  2
APPID
 70
     1
  0
APPID
  2
ACAD
 70
     0
  0
ENDTAB
  0
ENDSEC
  0
SECTION
  2
ENTITIES
  0
CIRCLE
  8
Connecteurs
 10
8.49
 20
14.55
 30
0.0
 40
0.4
  0
CIRCLE
  8
Connecteurs
 10
-6.97
 20
14.55
 30
0.0
 40
0.4
  0
CIRCLE
  8
Connecteurs
 10
-9.51
 20
14.55
 30
0.0
 40
0.4
  0
CIRCLE
  8
Connecteurs
 10
-8.49
 20
12.01
 30
0.0
 40
0.4
  0
CIRCLE
  8
Connecteurs
 10
-12.05
 20
14.55
 30
0.0
 40
0.4
  0
CIRCLE
  8
Connecteurs
 10
-11.03
 20
12.01
 30
0.0
 40
0.4
  0
CIRCLE
  8
Connecteurs
 10
-5.95
 20
12.01
 30
0.0
 40
0.4
  0
CIRCLE
  8
Connecteurs
 10
18.0
 20
32.5
 30
0.0
 40
1.0
  0
CIRCLE
  8
Connecteurs
 10
9.51
 20
12.01
 30
0.0
 40
0.4
  0
CIRCLE
  8
Connecteurs
 10
11.03
 20
14.55
 30
0.0
 40
0.4
  0
CIRCLE
  8
Connecteurs
 10
12.05
 20
12.01
 30
0.0
 40
0.4
  0
CIRCLE
  8
Connecteurs
 10
6.97
 20
12.01
 30
0.0
 40
0.4
  0
CIRCLE
  8
Connecteurs
 10
5.95
 20
14.55
 30
0.0
 40
0.4
  0
CIRCLE
  8
Connecteurs
 10
-18.0
 20
32.5
 30
0.0
 40
1.0
  0
CIRCLE
  8
Connecteurs
 10
18.0
 20
-32.5
 30
0.0
 40
1.0
  0
CIRCLE
  8
Connecteurs
 10
-18.0
 20
-32.5
 30
0.0
 40
1.0
  0
POLYLINE
  8
Connecteurs
 66
     1
 10
0.0
 20
0.0
 30
0.0
 70
     1
  0
VERTEX
  8
Connecteurs
 10
-35.0
 20
31.5
 42
0.0
  0
VERTEX
  8
Connecteurs
 10
-35.00000000002
 20
30.0000000014551
 42
0.1989124331783
  0
VERTEX
  8
Connecteurs
 10
-33.828426
 20
27.171572
 42
0.0
  0
VERTEX
  8
Connecteurs
 10
-32.2426359999174
 20
25.5857829999275
 42
0.1989123859426
  0
VERTEX
  8
Connecteurs
 10
-26.0000010000136
 20
22.9999999999799
 42
-0.4142136431049
  0
VERTEX
  8
Connecteurs
 10
-23.0
 20
20.0
 42
0.0
  0
VERTEX
  8
Connecteurs
 10
-23.0000000000101
 20
-20.0000000014912
 42
-0.3204650089343
  0
VERTEX
  8
Connecteurs
 10
-25.7027029999885
 20
-23.7837829999812
 42
0.3204650882724
  0
VERTEX
  8
Connecteurs
 10
-28.0
 20
-27.0
 42
0.0
  0
VERTEX
  8
Connecteurs
 10
-27.99999999998
 20
-28.0000000083928
 42
0.2818922212362
  0
VERTEX
  8
Connecteurs
 10
-23.63554
 20
-35.126208
 42
0.0
  0
VERTEX
  8
Connecteurs
 10
-9.2721899999838
 20
-42.4538789999797
 42
0.1184867051373
  0
VERTEX
  8
Connecteurs
 10
-6.999972
 20
-43.0
 42
0.0
  0
VERTEX
  8
Connecteurs
 10
0.0
 20
-43.0
 42
0.0
  0
VERTEX
  8
Connecteurs
 10
6.9999999999963
 20
-42.9999999999593
 42
0.1184858116788
  0
VERTEX
  8
Connecteurs
 10
9.272202
 20
-42.453887
 42
0.0
  0
VERTEX
  8
Connecteurs
 10
23.6355470000453
 20
-35.1262060000406
 42
0.2818920159773
  0
VERTEX
  8
Connecteurs
 10
28.0
 20
-28.0
 42
0.0
  0
VERTEX
  8
Connecteurs
 10
28.0
 20
-27.0
 42
0.3204650489617
  0
VERTEX
  8
Connecteurs
 10
25.7027029999949
 20
-23.7837839999982
 42
-0.3204650438773
  0
VERTEX
  8
Connecteurs
 10
23.00000000001
 20
-19.9999999988988
 42
0.0
  0
VERTEX
  8
Connecteurs
 10
23.0
 20
20.0
 42
-0.4142135724452
  0
VERTEX
  8
Connecteurs
 10
26.0000000000493
 20
22.99999999995
 42
0.1989124537775
  0
VERTEX
  8
Connecteurs
 10
32.2426380000308
 20
25.5857840000492
 42
0.0
  0
VERTEX
  8
Connecteurs
 10
33.828427
 20
27.171574
 42
0.1989123138273
  0
VERTEX
  8
Connecteurs
 10
35.0
 20
30.0
 42
0.0
  0
VERTEX
  8
Connecteurs
 10
35.00000000003
 20
31.5000000025982
 42
0.198912393301
  0
VERTEX
  8
Connecteurs
 10
33.838834
 20
34.303302
 42
0.0
  0
VERTEX
  8
Connecteurs
 10
17.0710680000351
 20
51.0710680000143
 42
0.1989123728636
  0
VERTEX
  8
Connecteurs
 10
10.0
 20
54.0
 42
0.0
  0
VERTEX
  8
Connecteurs
 10
0.0
 20
54.0
 42
0.0
  0
VERTEX
  8
Connecteurs
 10
-9.9999999999978
 20
53.9999999999999
 42
0.1989124212333
  0
VERTEX
  8
Connecteurs
 10
-17.07107
 20
51.071067
 42
0.0
  0
VERTEX
  8
Connecteurs
 10
-33.8388349999995
 20
34.3032999999548
 42
0.1989122935296
  0
SEQEND
  0
POLYLINE
  8
Connecteurs
 66
     1
 10
0.0
 20
0.0
 30
0.0
 70
     1
  0
VERTEX
  8
Connecteurs
 10
-15.0
 20
-27.5
 42
0.4142135623731
  0
VERTEX
  8
Connecteurs
 10
-14.0
 20
-28.5
 42
0.0
  0
VERTEX
  8
Connecteurs
 10
14.0
 20
-28.5
 42
0.4142135623731
  0
VERTEX
  8
Connecteurs
 10
15.0
 20
-27.5
 42
0.0
  0
VERTEX
  8
Connecteurs
 10
15.0
 20
-9.5
 42
0.4142135623731
  0
VERTEX
  8
Connecteurs
 10
14.0
 20
-8.5
 42
0.0
  0
VERTEX
  8
Connecteurs
 10
-14.0
 20
-8.5
 42
0.4142135623731
  0
VERTEX
  8
Connecteurs
 10
-15.0
 20
-9.5
 42
0.0
  0
SEQEND
  0
CIRCLE
  8
Connecteurs
 10
-16.5
 20
9.96
 30
0.0
 40
0.4
  0
CIRCLE
  8
Connecteurs
 10
-16.5
 20
12.5
 30
0.0
 40
0.4
  0
CIRCLE
  8
Connecteurs
 10
-16.5
 20
15.04
 30
0.0
 40
0.4
  0
CIRCLE
  8
Connecteurs
 10
-12.54
 20
-32.5
 30
0.0
 40
0.4
  0
CIRCLE
  8
Connecteurs
 10
-10.0
 20
-32.5
 30
0.0
 40
0.4
  0
CIRCLE
  8
Connecteurs
 10
-7.46
 20
-32.5
 30
0.0
 40
0.4
  0
POLYLINE
  8
Connecteurs
 66
     1
 10
0.0
 20
0.0
 30
0.0
 70
     1
  0
VERTEX
  8
Connecteurs
 10
3.5
 20
9.0
 42
-0.4142135623731
  0
VERTEX
  8
Connecteurs
 10
4.5
 20
10.0
 42
0.0
  0
VERTEX
  8
Connecteurs
 10
13.5
 20
10.0
 42
-0.4142135623731
  0
VERTEX
  8
Connecteurs
 10
14.5
 20
9.0
 42
0.0
  0
VERTEX
  8
Connecteurs
 10
14.5
 20
5.0
 42
-0.4142135623731
  0
VERTEX
  8
Connecteurs
 10
13.5
 20
4.0
 42
0.0
  0
VERTEX
  8
Connecteurs
 10
-13.5
 20
4.0
 42
-0.4142135623731
  0
VERTEX
  8
Connecteurs
 10
-14.5
 20
5.0
 42
0.0
  0
VERTEX
  8
Connecteurs
 10
-14.5
 20
9.0
 42
-0.4142135623731
  0
VERTEX
  8
Connecteurs
 10
-13.5
 20
10.0
 42
0.0
  0
VERTEX
  8
Connecteurs
 10
-4.5
 20
10.0
 42
-0.4142135623731
  0
VERTEX
  8
Connecteurs
 10
-3.5
 20
9.0
 42
0.4142135623731
  0
VERTEX
  8
Connecteurs
 10
-2.5
 20
8.0
 42
0.0
  0
VERTEX
  8
Connecteurs
 10
2.5
 20
8.0
 42
0.4142135623731
  0
SEQEND
  0
POLYLINE
  8
Connecteurs
 66
     1
 10
0.0
 20
0.0
 30
0.0
 70
     1
  0
VERTEX
  8
Connecteurs
 10
-21.0
 20
-1.5
 42
0.0
  0
VERTEX
  8
Connecteurs
 10
-19.5
 20
-1.5
 42
1.0
  0
VERTEX
  8
Connecteurs
 10
-19.5
 20
-0.5
 42
0.0
  0
VERTEX
  8
Connecteurs
 10
-19.5
 20
0.5
 42
1.0
  0
VERTEX
  8
Connecteurs
 10
-19.5
 20
1.5
 42
0.0
  0
VERTEX
  8
Connecteurs
 10
-21.0
 20
1.5
 42
1.0
  0
VERTEX
  8
Connecteurs
 10
-21.0
 20
0.5
 42
0.0
  0
VERTEX
  8
Connecteurs
 10
-21.0
 20
-0.5
 42
1.0
  0
SEQEND
  0
POLYLINE
  8
Connecteurs
 66
     1
 10
0.0
 20
0.0
 30
0.0
 70
     1
  0
VERTEX
  8
Connecteurs
 10
21.0
 20
-1.5
 42
0.0
  0
VERTEX
  8
Connecteurs
 10
19.5
 20
-1.5
 42
-1.0
  0
VERTEX
  8
Connecteurs
 10
19.5
 20
-0.5
 42
0.0
  0
VERTEX
  8
Connecteurs
 10
19.5
 20
0.5
 42
-1.0
  0
VERTEX
  8
Connecteurs
 10
19.5
 20
1.5
 42
0.0
  0
VERTEX
  8
Connecteurs
 10
21.0
 20
1.5
 42
-1.0
  0
VERTEX
  8
Connecteurs
 10
21.0
 20
0.5
 42
0.0
  0
VERTEX
  8
Connecteurs
 10
21.0
 20
-0.5
 42
-1.0
  0
SEQEND
  0
ENDSEC
  0
EOF
