  0
SECTION
  2
HEADER
  9
$ACADVER
  1
AC1009
  9
$INSBASE
 10
0.0
 20
0.0
 30
0.0
  9
$EXTMIN
 10
0.0
 20
0.0
 30
0.0
  9
$EXTMAX
 10
0.0
 20
0.0
 30
0.0
  0
ENDSEC
  0
SECTION
  2
TABLES
  0
TABLE
  2
VPORT
 70
0
  0
ENDTAB
  0
TABLE
  2
LTYPE
 70
1
  0
LTYPE
  2
CONTINUOUS
 70
0
  3
Solid line
 72
65
 73
0
 40
0.0
  0
ENDTAB
  0
TABLE
  2
LAYER
 70
1
  0
LAYER
  2
0
 70
64
 62
7
  6
continuous
  0
ENDTAB
  0
TABLE
  2
STYLE
 70
1
  0
STYLE
  2
STANDARD
 70
0
 40
0
 41
1.0
 50
0.0
 71
0
 42
1
 3
ARIAL.TTF
 4

  0
ENDTAB
  0
TABLE
  2
VIEW
 70
0
  0
ENDTAB
  0
ENDSEC
  0
SECTION
  2
BLOCKS
  0
BLOCK
  8
MainBoard
  2
PAD037
 70
0
 10
0.0
 20
0.0
 30
0.0
  3
PAD037
  0
ARC
  8
MainBoard
 62
0
 10
-31.0355337004
 20
31.4999992911
 30
0.0
 40
3.96446629963
 50
135.000006037
 51
179.999989755
  0
LINE
  8
MainBoard
 62
0
 10
-17.07107
 20
51.071067
 30
0.0
 11
-33.838835
 21
34.3033
 31
0.0
  0
ARC
  8
MainBoard
 62
0
 10
-10.0000011502
 20
43.9999994541
 30
0.0
 40
10.0000005459
 50
89.9999934101
 51
135.000005283
  0
LINE
  8
MainBoard
 62
0
 10
0.0
 20
54.0
 30
0.0
 11
-10.0
 21
54.0
 31
0.0
  0
LINE
  8
MainBoard
 62
0
 10
10.0
 20
54.0
 30
0.0
 11
0.0
 21
54.0
 31
0.0
  0
ARC
  8
MainBoard
 62
0
 10
10.0000004267
 20
44.0000001217
 30
0.0
 40
9.99999987832
 50
45.0000012356
 51
90.0000024446
  0
LINE
  8
MainBoard
 62
0
 10
33.838834
 20
34.303302
 30
0.0
 11
17.071068
 21
51.071068
 31
0.0
  0
ARC
  8
MainBoard
 62
0
 10
31.0355326218
 20
31.4999998444
 30
0.0
 40
3.9644673782
 50
2.25887274392e-06
 51
45.0000079449
  0
LINE
  8
MainBoard
 62
0
 10
35.0
 20
30.0
 30
0.0
 11
35.0
 21
31.5
 31
0.0
  0
ARC
  8
MainBoard
 62
0
 10
31.000000299
 20
30.0000011256
 30
0.0
 40
3.99999970098
 50
-45.0000043011
 51
-1.61089689396e-05
  0
LINE
  8
MainBoard
 62
0
 10
32.242638
 20
25.585784
 30
0.0
 11
33.828427
 21
27.171574
 31
0.0
  0
ARC
  8
MainBoard
 62
0
 10
26.0000030664
 20
31.8284191196
 30
0.0
 40
8.82841911955
 50
-90.0000199005
 51
-45.0000008532
  0
ARC
  8
MainBoard
 62
0
 10
25.9999999742
 20
20.0000000258
 30
0.0
 40
2.99999997421
 50
89.9999995074
 51
180.0
  0
LINE
  8
MainBoard
 62
0
 10
23.0
 20
-20.0
 30
0.0
 11
23.0
 21
20.0
 31
0.0
  0
ARC
  8
MainBoard
 62
0
 10
27.0000003964
 20
-19.9999998311
 30
0.0
 40
4.00000039642
 50
-179.999997585
 51
-108.92464397
  0
ARC
  8
MainBoard
 62
0
 10
24.600000261
 20
-26.9999999279
 30
0.0
 40
3.39999973904
 50
-1.20741826973e-06
 51
71.0753534289
  0
LINE
  8
MainBoard
 62
0
 10
28.0
 20
-28.0
 30
0.0
 11
28.0
 21
-27.0
 31
0.0
  0
ARC
  8
MainBoard
 62
0
 10
20.0000000755
 20
-28.0000010246
 30
0.0
 40
7.99999992451
 50
-62.9708746151
 51
7.34443860949e-06
  0
LINE
  8
MainBoard
 62
0
 10
9.272202
 20
-42.453887
 30
0.0
 11
23.635547
 21
-35.126206
 31
0.0
  0
ARC
  8
MainBoard
 62
0
 10
7.00000256474
 20
-38.0000002908
 30
0.0
 40
4.99999970916
 50
-90.0000293898
 51
-62.9710969326
  0
LINE
  8
MainBoard
 62
0
 10
0.0
 20
-43.0
 30
0.0
 11
7.0
 21
-43.0
 31
0.0
  0
LINE
  8
MainBoard
 62
0
 10
-6.999972
 20
-43.0
 30
0.0
 11
0.0
 21
-43.0
 31
0.0
  0
ARC
  8
MainBoard
 62
0
 10
-6.99997473299
 20
-37.9999996647
 30
0.0
 40
5.00000033534
 50
-117.02910307
 51
-89.9999686823
  0
LINE
  8
MainBoard
 62
0
 10
-23.63554
 20
-35.126208
 30
0.0
 11
-9.27219
 21
-42.453879
 31
0.0
  0
ARC
  8
MainBoard
 62
0
 10
-19.9999999054
 20
-27.9999993492
 30
0.0
 40
8.00000009464
 50
-179.999995324
 51
-117.02906985
  0
LINE
  8
MainBoard
 62
0
 10
-28.0
 20
-27.0
 30
0.0
 11
-28.0
 21
-28.0
 31
0.0
  0
ARC
  8
MainBoard
 62
0
 10
-24.5999999012
 20
-26.9999991848
 30
0.0
 40
3.40000009876
 50
108.924650901
 51
-179.99998626
  0
ARC
  8
MainBoard
 62
0
 10
-27.0000000522
 20
-19.999999077
 30
0.0
 40
4.00000005223
 50
-71.0753595513
 51
-1.32266044535e-05
  0
LINE
  8
MainBoard
 62
0
 10
-23.0
 20
20.0
 30
0.0
 11
-23.0
 21
-20.0
 31
0.0
  0
ARC
  8
MainBoard
 62
0
 10
-26.000000088
 20
19.999999912
 30
0.0
 40
3.00000008798
 50
1.47877933347e-06
 51
90.0000174184
  0
ARC
  8
MainBoard
 62
0
 10
-26.0000026213
 20
31.8284177798
 30
0.0
 40
8.82841777984
 50
-134.99999357
 51
-89.9999894779
  0
LINE
  8
MainBoard
 62
0
 10
-33.828426
 20
27.171572
 30
0.0
 11
-32.242636
 21
25.585783
 31
0.0
  0
ARC
  8
MainBoard
 62
0
 10
-30.9999996045
 20
30.0000004133
 30
0.0
 40
4.00000039552
 50
-179.999994085
 51
-134.999979563
  0
LINE
  8
MainBoard
 62
0
 10
-35.0
 20
31.5
 30
0.0
 11
-35.0
 21
30.0
 31
0.0
  0
LINE
  8
MainBoard
 62
0
 10
-15.0
 20
-9.5
 30
0.0
 11
-15.0
 21
-27.5
 31
0.0
  0
ARC
  8
MainBoard
 62
0
 10
-14.0
 20
-27.5
 30
0.0
 40
1.0
 50
-180.0
 51
-90.0
  0
LINE
  8
MainBoard
 62
0
 10
-14.0
 20
-28.5
 30
0.0
 11
14.0
 21
-28.5
 31
0.0
  0
ARC
  8
MainBoard
 62
0
 10
14.0
 20
-27.5
 30
0.0
 40
1.0
 50
-90.0
 51
-0.0
  0
LINE
  8
MainBoard
 62
0
 10
15.0
 20
-27.5
 30
0.0
 11
15.0
 21
-9.5
 31
0.0
  0
ARC
  8
MainBoard
 62
0
 10
14.0
 20
-9.5
 30
0.0
 40
1.0
 50
-0.0
 51
90.0
  0
LINE
  8
MainBoard
 62
0
 10
14.0
 20
-8.5
 30
0.0
 11
-14.0
 21
-8.5
 31
0.0
  0
ARC
  8
MainBoard
 62
0
 10
-14.0
 20
-9.5
 30
0.0
 40
1.0
 50
90.0
 51
180.0
  0
ARC
  8
MainBoard
 62
0
 10
-4.5
 20
9.0
 30
0.0
 40
1.0
 50
0.0
 51
90.0
  0
LINE
  8
MainBoard
 62
0
 10
-4.5
 20
10.0
 30
0.0
 11
-13.5
 21
10.0
 31
0.0
  0
ARC
  8
MainBoard
 62
0
 10
-13.5
 20
9.0
 30
0.0
 40
1.0
 50
90.0
 51
180.0
  0
LINE
  8
MainBoard
 62
0
 10
-14.5
 20
9.0
 30
0.0
 11
-14.5
 21
5.0
 31
0.0
  0
ARC
  8
MainBoard
 62
0
 10
-13.5
 20
5.0
 30
0.0
 40
1.0
 50
180.0
 51
-90.0
  0
LINE
  8
MainBoard
 62
0
 10
-13.5
 20
4.0
 30
0.0
 11
13.5
 21
4.0
 31
0.0
  0
ARC
  8
MainBoard
 62
0
 10
13.5
 20
5.0
 30
0.0
 40
1.0
 50
-90.0
 51
0.0
  0
LINE
  8
MainBoard
 62
0
 10
14.5
 20
5.0
 30
0.0
 11
14.5
 21
9.0
 31
0.0
  0
ARC
  8
MainBoard
 62
0
 10
13.5
 20
9.0
 30
0.0
 40
1.0
 50
-0.0
 51
90.0
  0
LINE
  8
MainBoard
 62
0
 10
13.5
 20
10.0
 30
0.0
 11
4.5
 21
10.0
 31
0.0
  0
ARC
  8
MainBoard
 62
0
 10
4.5
 20
9.0
 30
0.0
 40
1.0
 50
90.0
 51
180.0
  0
ARC
  8
MainBoard
 62
0
 10
2.5
 20
9.0
 30
0.0
 40
1.0
 50
-90.0
 51
0.0
  0
LINE
  8
MainBoard
 62
0
 10
2.5
 20
8.0
 30
0.0
 11
-2.5
 21
8.0
 31
0.0
  0
ARC
  8
MainBoard
 62
0
 10
-2.5
 20
9.0
 30
0.0
 40
1.0
 50
180.0
 51
-90.0
  0
LINE
  8
MainBoard
 62
0
 10
19.435029
 20
34.650758
 30
0.0
 11
13.778175
 21
40.307612
 31
0.0
  0
LINE
  8
MainBoard
 62
0
 10
20.142136
 20
35.357864
 30
0.0
 11
19.435029
 21
34.650758
 31
0.0
  0
LINE
  8
MainBoard
 62
0
 10
14.485281
 20
41.014719
 30
0.0
 11
20.142136
 21
35.357864
 31
0.0
  0
LINE
  8
MainBoard
 62
0
 10
13.778175
 20
40.307612
 30
0.0
 11
14.485281
 21
41.014719
 31
0.0
  0
LINE
  8
MainBoard
 62
0
 10
-20.142136
 20
35.357864
 30
0.0
 11
-19.435029
 21
34.650758
 31
0.0
  0
LINE
  8
MainBoard
 62
0
 10
-19.435029
 20
34.650758
 30
0.0
 11
-13.778175
 21
40.307612
 31
0.0
  0
LINE
  8
MainBoard
 62
0
 10
-13.778175
 20
40.307612
 30
0.0
 11
-14.485281
 21
41.014719
 31
0.0
  0
LINE
  8
MainBoard
 62
0
 10
-14.485281
 20
41.014719
 30
0.0
 11
-20.142136
 21
35.357864
 31
0.0
  0
LINE
  8
MainBoard
 62
0
 10
-24.392732
 20
28.953214
 30
0.0
 11
-24.497261
 21
29.947736
 31
0.0
  0
LINE
  8
MainBoard
 62
0
 10
-24.497261
 20
29.947736
 30
0.0
 11
-32.453436
 21
29.111508
 31
0.0
  0
LINE
  8
MainBoard
 62
0
 10
-32.453436
 20
29.111508
 30
0.0
 11
-32.348908
 21
28.116986
 31
0.0
  0
LINE
  8
MainBoard
 62
0
 10
-32.348908
 20
28.116986
 30
0.0
 11
-24.392732
 21
28.953214
 31
0.0
  0
LINE
  8
MainBoard
 62
0
 10
32.348908
 20
28.116986
 30
0.0
 11
24.392732
 21
28.953214
 31
0.0
  0
LINE
  8
MainBoard
 62
0
 10
32.453436
 20
29.111508
 30
0.0
 11
32.348908
 21
28.116986
 31
0.0
  0
LINE
  8
MainBoard
 62
0
 10
24.497261
 20
29.947736
 30
0.0
 11
32.453436
 21
29.111508
 31
0.0
  0
LINE
  8
MainBoard
 62
0
 10
24.392732
 20
28.953214
 30
0.0
 11
24.497261
 21
29.947736
 31
0.0
  0
LINE
  8
MainBoard
 62
0
 10
-9.535534
 20
45.964466
 30
0.0
 11
-8.828427
 21
45.257359
 31
0.0
  0
LINE
  8
MainBoard
 62
0
 10
-8.828427
 20
45.257359
 30
0.0
 11
-5.292893
 21
48.792893
 31
0.0
  0
LINE
  8
MainBoard
 62
0
 10
-5.292893
 20
48.792893
 30
0.0
 11
-6.0
 21
49.5
 31
0.0
  0
LINE
  8
MainBoard
 62
0
 10
-6.0
 20
49.5
 30
0.0
 11
-9.535534
 21
45.964466
 31
0.0
  0
LINE
  8
MainBoard
 62
0
 10
6.0
 20
49.5
 30
0.0
 11
9.535534
 21
45.964466
 31
0.0
  0
LINE
  8
MainBoard
 62
0
 10
5.292893
 20
48.792893
 30
0.0
 11
6.0
 21
49.5
 31
0.0
  0
LINE
  8
MainBoard
 62
0
 10
8.828427
 20
45.257359
 30
0.0
 11
5.292893
 21
48.792893
 31
0.0
  0
LINE
  8
MainBoard
 62
0
 10
9.535534
 20
45.964466
 30
0.0
 11
8.828427
 21
45.257359
 31
0.0
  0
LINE
  8
MainBoard
 62
0
 10
-19.5
 20
-0.5
 30
0.0
 11
-19.5
 21
0.5
 31
0.0
  0
ARC
  8
MainBoard
 62
0
 10
-19.5
 20
1.0
 30
0.0
 40
0.5
 50
-90.0
 51
90.0
  0
LINE
  8
MainBoard
 62
0
 10
-19.5
 20
1.5
 30
0.0
 11
-21.0
 21
1.5
 31
0.0
  0
ARC
  8
MainBoard
 62
0
 10
-21.0
 20
1.0
 30
0.0
 40
0.5
 50
90.0
 51
-90.0
  0
LINE
  8
MainBoard
 62
0
 10
-21.0
 20
0.5
 30
0.0
 11
-21.0
 21
-0.5
 31
0.0
  0
ARC
  8
MainBoard
 62
0
 10
-21.0
 20
-1.0
 30
0.0
 40
0.5
 50
90.0
 51
-90.0
  0
LINE
  8
MainBoard
 62
0
 10
-21.0
 20
-1.5
 30
0.0
 11
-19.5
 21
-1.5
 31
0.0
  0
ARC
  8
MainBoard
 62
0
 10
-19.5
 20
-1.0
 30
0.0
 40
0.5
 50
-90.0
 51
90.0
  0
ARC
  8
MainBoard
 62
0
 10
21.0
 20
-1.0
 30
0.0
 40
0.5
 50
-90.0
 51
90.0
  0
LINE
  8
MainBoard
 62
0
 10
21.0
 20
0.5
 30
0.0
 11
21.0
 21
-0.5
 31
0.0
  0
ARC
  8
MainBoard
 62
0
 10
21.0
 20
1.0
 30
0.0
 40
0.5
 50
-90.0
 51
90.0
  0
LINE
  8
MainBoard
 62
0
 10
19.5
 20
1.5
 30
0.0
 11
21.0
 21
1.5
 31
0.0
  0
ARC
  8
MainBoard
 62
0
 10
19.5
 20
1.0
 30
0.0
 40
0.5
 50
90.0
 51
-90.0
  0
LINE
  8
MainBoard
 62
0
 10
19.5
 20
-0.5
 30
0.0
 11
19.5
 21
0.5
 31
0.0
  0
ARC
  8
MainBoard
 62
0
 10
19.5
 20
-1.0
 30
0.0
 40
0.5
 50
90.0
 51
-90.0
  0
LINE
  8
MainBoard
 62
0
 10
21.0
 20
-1.5
 30
0.0
 11
19.5
 21
-1.5
 31
0.0
  0
CIRCLE
  8
MainBoard
 62
0
 10
-18.0
 20
-32.5
 30
0.0
 40
1.0
  0
CIRCLE
  8
MainBoard
 62
0
 10
18.0
 20
-32.5
 30
0.0
 40
1.0
  0
CIRCLE
  8
MainBoard
 62
0
 10
-18.0
 20
32.5
 30
0.0
 40
1.0
  0
CIRCLE
  8
MainBoard
 62
0
 10
18.0
 20
32.5
 30
0.0
 40
1.0
  0
CIRCLE
  8
MainBoard
 62
0
 10
8.49
 20
14.55
 30
0.0
 40
0.4
  0
CIRCLE
  8
MainBoard
 62
0
 10
9.51
 20
12.01
 30
0.0
 40
0.4
  0
CIRCLE
  8
MainBoard
 62
0
 10
-16.5
 20
15.04
 30
0.0
 40
0.4
  0
CIRCLE
  8
MainBoard
 62
0
 10
-16.5
 20
12.5
 30
0.0
 40
0.4
  0
CIRCLE
  8
MainBoard
 62
0
 10
-16.5
 20
9.96
 30
0.0
 40
0.4
  0
CIRCLE
  8
MainBoard
 62
0
 10
5.95
 20
14.55
 30
0.0
 40
0.4
  0
CIRCLE
  8
MainBoard
 62
0
 10
6.97
 20
12.01
 30
0.0
 40
0.4
  0
CIRCLE
  8
MainBoard
 62
0
 10
12.05
 20
12.01
 30
0.0
 40
0.4
  0
CIRCLE
  8
MainBoard
 62
0
 10
11.03
 20
14.55
 30
0.0
 40
0.4
  0
CIRCLE
  8
MainBoard
 62
0
 10
-5.95
 20
12.01
 30
0.0
 40
0.4
  0
CIRCLE
  8
MainBoard
 62
0
 10
-11.03
 20
12.01
 30
0.0
 40
0.4
  0
CIRCLE
  8
MainBoard
 62
0
 10
-12.05
 20
14.55
 30
0.0
 40
0.4
  0
CIRCLE
  8
MainBoard
 62
0
 10
-8.49
 20
12.01
 30
0.0
 40
0.4
  0
CIRCLE
  8
MainBoard
 62
0
 10
-6.97
 20
14.55
 30
0.0
 40
0.4
  0
CIRCLE
  8
MainBoard
 62
0
 10
-9.51
 20
14.55
 30
0.0
 40
0.4
  0
CIRCLE
  8
MainBoard
 62
0
 10
-12.54
 20
-32.5
 30
0.0
 40
0.4
  0
CIRCLE
  8
MainBoard
 62
0
 10
-10.0
 20
-32.5
 30
0.0
 40
0.4
  0
CIRCLE
  8
MainBoard
 62
0
 10
-7.46
 20
-32.5
 30
0.0
 40
0.4
  0
ENDBLK
  0
ENDSEC
  0
SECTION
  2
ENTITIES
  0
INSERT
  2
PAD037
  8
MainBoard
 62
0
 10
0.0
 20
0.0
 30
0.0
  0
ENDSEC
  0
EOF
