  0
SECTION
  2
HEADER
  9
$ACADVER
  1
AC1009
  9
$EXTMAX
 10
22.5
 20
34.0
 30
0.0
  9
$EXTMIN
 10
-22.5
 20
-35.0
 30
0.0
  9
$INSUNITS
 70
     4
  9
$LUNITS
 70
     2
  9
$LUPREC
 70
     4
  9
$MEASUREMENT
 70
     1
  0
ENDSEC
  0
SECTION
  2
TABLES
  0
TABLE
  2
LAYER
 70
     1
  0
LAYER
  2
0
 70
     0
 62
     7
  6
Continuous
  0
LAYER
  2
PCBTurbin
 70
     0
 62
    70
  6
Continuous
  0
ENDTAB
  0
TABLE
  2
APPID
 70
     1
  0
APPID
  2
ACAD
 70
     0
  0
ENDTAB
  0
ENDSEC
  0
SECTION
  2
ENTITIES
  0
CIRCLE
  8
PCBTurbin
 10
0.0
 20
25.0
 30
0.0
 40
1.5
  0
CIRCLE
  8
PCBTurbin
 10
4.25
 20
25.0
 30
0.0
 40
0.8
  0
CIRCLE
  8
PCBTurbin
 10
0.0
 20
21.5
 30
0.0
 40
0.8
  0
CIRCLE
  8
PCBTurbin
 10
-4.25
 20
25.0
 30
0.0
 40
0.8
  0
CIRCLE
  8
PCBTurbin
 10
0.0
 20
28.5
 30
0.0
 40
0.8
  0
CIRCLE
  8
PCBTurbin
 10
0.0
 20
-25.0
 30
0.0
 40
1.5
  0
CIRCLE
  8
PCBTurbin
 10
-16.54
 20
-33.0
 30
0.0
 40
0.4
  0
CIRCLE
  8
PCBTurbin
 10
-14.0
 20
-33.0
 30
0.0
 40
0.4
  0
CIRCLE
  8
PCBTurbin
 10
-11.46
 20
-33.0
 30
0.0
 40
0.4
  0
CIRCLE
  8
PCBTurbin
 10
-4.25
 20
-25.0
 30
0.0
 40
0.8
  0
CIRCLE
  8
PCBTurbin
 10
4.25
 20
-25.0
 30
0.0
 40
0.8
  0
CIRCLE
  8
PCBTurbin
 10
0.0
 20
-21.5
 30
0.0
 40
0.8
  0
CIRCLE
  8
PCBTurbin
 10
0.0
 20
-28.5
 30
0.0
 40
0.8
  0
POLYLINE
  8
PCBTurbin
 66
     1
 10
0.0
 20
0.0
 30
0.0
 70
     1
  0
VERTEX
  8
PCBTurbin
 10
-9.4999999999922
 20
-24.1339750000205
 42
-0.3201905448934
  0
VERTEX
  8
PCBTurbin
 10
-8.3436999999964
 20
-24.2455000000228
 42
0.0
  0
VERTEX
  8
PCBTurbin
 10
-5.4821060000059
 20
-26.734650999972
 42
0.0024749446292
  0
VERTEX
  8
PCBTurbin
 10
-5.4646650000066
 20
-26.7888359999944
 42
0.0890286452994
  0
VERTEX
  8
PCBTurbin
 10
-4.5015049999959
 20
-28.5775629999797
 42
-0.2575817367428
  0
VERTEX
  8
PCBTurbin
 10
-5.5000000000029
 20
-30.2320509999802
 42
-0.1316524975874
  0
VERTEX
  8
PCBTurbin
 10
-6.5000000000005
 20
-30.49999999998
 42
0.0
  0
VERTEX
  8
PCBTurbin
 10
-9.5
 20
-30.5
 42
-0.4142135623731
  0
VERTEX
  8
PCBTurbin
 10
-11.0
 20
-29.0
 42
-0.0622577713175
  0
VERTEX
  8
PCBTurbin
 10
-10.9538460000009
 20
-28.630768999994
 42
0.0
  0
VERTEX
  8
PCBTurbin
 10
-9.969231
 20
-24.753846
 42
-0.2023163869045
  0
SEQEND
  0
POLYLINE
  8
PCBTurbin
 66
     1
 10
0.0
 20
0.0
 30
0.0
 70
     1
  0
VERTEX
  8
PCBTurbin
 10
-9.4999999999922
 20
24.1339750000205
 42
0.3201905448934
  0
VERTEX
  8
PCBTurbin
 10
-8.3437
 20
24.2455
 42
0.0
  0
VERTEX
  8
PCBTurbin
 10
-5.4821060000091
 20
26.7346509999233
 42
-0.0024749446292
  0
VERTEX
  8
PCBTurbin
 10
-5.4646650000066
 20
26.7888359999944
 42
-0.0890286452994
  0
VERTEX
  8
PCBTurbin
 10
-4.5015049999959
 20
28.5775629999787
 42
0.2575817367425
  0
VERTEX
  8
PCBTurbin
 10
-5.5000000000029
 20
30.2320509999802
 42
0.1316524975874
  0
VERTEX
  8
PCBTurbin
 10
-6.5
 20
30.5
 42
0.0
  0
VERTEX
  8
PCBTurbin
 10
-9.5
 20
30.5
 42
0.4142135623731
  0
VERTEX
  8
PCBTurbin
 10
-10.9999999999999
 20
29.0000000001948
 42
0.0622577713175
  0
VERTEX
  8
PCBTurbin
 10
-10.953846
 20
28.630769
 42
0.0
  0
VERTEX
  8
PCBTurbin
 10
-9.9692309999945
 20
24.7538460000389
 42
0.2023163869045
  0
SEQEND
  0
POLYLINE
  8
PCBTurbin
 66
     1
 10
0.0
 20
0.0
 30
0.0
 70
     1
  0
VERTEX
  8
PCBTurbin
 10
9.4999999999967
 20
24.1339750000232
 42
-0.3201905448972
  0
VERTEX
  8
PCBTurbin
 10
8.3436999999898
 20
24.2455000000286
 42
0.0
  0
VERTEX
  8
PCBTurbin
 10
5.4821059999959
 20
26.7346510000369
 42
0.0024749446266
  0
VERTEX
  8
PCBTurbin
 10
5.4646650000003
 20
26.7888360000135
 42
0.0890286452999
  0
VERTEX
  8
PCBTurbin
 10
4.5015049999954
 20
28.5775629999661
 42
-0.2575817367465
  0
VERTEX
  8
PCBTurbin
 10
5.5000000000059
 20
30.2320509999819
 42
-0.131652497587
  0
VERTEX
  8
PCBTurbin
 10
6.5000000000005
 20
30.49999999998
 42
0.0
  0
VERTEX
  8
PCBTurbin
 10
9.5
 20
30.5
 42
-0.4142135623731
  0
VERTEX
  8
PCBTurbin
 10
11.0
 20
29.0
 42
-0.0622577713185
  0
VERTEX
  8
PCBTurbin
 10
10.9538459999996
 20
28.6307689999889
 42
0.0
  0
VERTEX
  8
PCBTurbin
 10
9.969231
 20
24.753846
 42
-0.2023163869064
  0
SEQEND
  0
POLYLINE
  8
PCBTurbin
 66
     1
 10
0.0
 20
0.0
 30
0.0
 70
     1
  0
VERTEX
  8
PCBTurbin
 10
9.4999999999967
 20
-24.1339750000232
 42
0.3201905448972
  0
VERTEX
  8
PCBTurbin
 10
8.3437
 20
-24.2455
 42
0.0
  0
VERTEX
  8
PCBTurbin
 10
5.4821060000023
 20
-26.734650999958
 42
-0.0024749446266
  0
VERTEX
  8
PCBTurbin
 10
5.4646650000004
 20
-26.7888360000135
 42
-0.0890286452999
  0
VERTEX
  8
PCBTurbin
 10
4.5015049999954
 20
-28.5775629999661
 42
0.2575817367465
  0
VERTEX
  8
PCBTurbin
 10
5.5000000000059
 20
-30.2320509999819
 42
0.131652497587
  0
VERTEX
  8
PCBTurbin
 10
6.5
 20
-30.5
 42
0.0
  0
VERTEX
  8
PCBTurbin
 10
9.5
 20
-30.5
 42
0.4142135623731
  0
VERTEX
  8
PCBTurbin
 10
10.9999999999999
 20
-29.0000000001951
 42
0.0622577713185
  0
VERTEX
  8
PCBTurbin
 10
10.953846
 20
-28.630769
 42
0.0
  0
VERTEX
  8
PCBTurbin
 10
9.9692309999958
 20
-24.753846000044
 42
0.2023163869059
  0
SEQEND
  0
POLYLINE
  8
PCBTurbin
 66
     1
 10
0.0
 20
0.0
 30
0.0
 70
     1
  0
VERTEX
  8
PCBTurbin
 10
1.9999999999994
 20
-19.6090350000094
 42
-0.0421117087899
  0
VERTEX
  8
PCBTurbin
 10
2.8749999999983
 20
-20.0203540000019
 42
-0.0962008492685
  0
VERTEX
  8
PCBTurbin
 10
4.5298239999921
 20
-21.4583629999908
 42
0.1758816418748
  0
VERTEX
  8
PCBTurbin
 10
9.5
 20
-19.0
 42
0.0
  0
VERTEX
  8
PCBTurbin
 10
10.25
 20
-19.0
 42
0.0
  0
VERTEX
  8
PCBTurbin
 10
10.25
 20
-8.0
 42
0.0
  0
VERTEX
  8
PCBTurbin
 10
19.0
 20
-8.0
 42
0.0
  0
VERTEX
  8
PCBTurbin
 10
19.5
 20
-8.5
 42
0.0
  0
VERTEX
  8
PCBTurbin
 10
19.5
 20
-9.5
 42
1.0
  0
VERTEX
  8
PCBTurbin
 10
19.5
 20
-11.0
 42
0.0
  0
VERTEX
  8
PCBTurbin
 10
22.5
 20
-11.0
 42
0.0
  0
VERTEX
  8
PCBTurbin
 10
22.5
 20
-15.0
 42
0.0
  0
VERTEX
  8
PCBTurbin
 10
19.5000000000167
 20
-14.999999999995
 42
0.3203240360926
  0
VERTEX
  8
PCBTurbin
 10
18.7906650000114
 20
-15.5063939999953
 42
-0.1193507179505
  0
VERTEX
  8
PCBTurbin
 10
14.5
 20
-24.0
 42
0.5173318968934
  0
VERTEX
  8
PCBTurbin
 10
16.5
 20
-29.0
 42
0.0
  0
VERTEX
  8
PCBTurbin
 10
19.5
 20
-30.0
 42
0.0
  0
VERTEX
  8
PCBTurbin
 10
19.5
 20
-30.5
 42
1.0
  0
VERTEX
  8
PCBTurbin
 10
19.5
 20
-31.5
 42
0.0
  0
VERTEX
  8
PCBTurbin
 10
21.0
 20
-31.5
 42
0.0
  0
VERTEX
  8
PCBTurbin
 10
21.0
 20
-35.0
 42
0.0
  0
VERTEX
  8
PCBTurbin
 10
19.5
 20
-35.0
 42
0.0
  0
VERTEX
  8
PCBTurbin
 10
5.5
 20
-34.0
 42
0.3454344150309
  0
VERTEX
  8
PCBTurbin
 10
-5.5
 20
-34.0
 42
0.0
  0
VERTEX
  8
PCBTurbin
 10
-19.5
 20
-35.0
 42
0.0
  0
VERTEX
  8
PCBTurbin
 10
-21.0
 20
-35.0
 42
0.0
  0
VERTEX
  8
PCBTurbin
 10
-21.0
 20
-31.5
 42
0.0
  0
VERTEX
  8
PCBTurbin
 10
-19.5
 20
-31.5
 42
1.0
  0
VERTEX
  8
PCBTurbin
 10
-19.5
 20
-30.5
 42
0.0
  0
VERTEX
  8
PCBTurbin
 10
-19.5
 20
-30.0
 42
0.0
  0
VERTEX
  8
PCBTurbin
 10
-16.5
 20
-29.0
 42
0.5173318968934
  0
VERTEX
  8
PCBTurbin
 10
-14.5
 20
-24.0
 42
-0.1193507179483
  0
VERTEX
  8
PCBTurbin
 10
-18.790665000017
 20
-15.5063939999951
 42
0.3203240360917
  0
VERTEX
  8
PCBTurbin
 10
-19.5
 20
-15.0
 42
0.0
  0
VERTEX
  8
PCBTurbin
 10
-22.5
 20
-15.0
 42
0.0
  0
VERTEX
  8
PCBTurbin
 10
-22.5
 20
-11.0
 42
0.0
  0
VERTEX
  8
PCBTurbin
 10
-19.5
 20
-11.0
 42
1.0
  0
VERTEX
  8
PCBTurbin
 10
-19.5
 20
-9.5
 42
0.0
  0
VERTEX
  8
PCBTurbin
 10
-19.5
 20
-8.5
 42
0.0
  0
VERTEX
  8
PCBTurbin
 10
-19.0
 20
-8.0
 42
0.0
  0
VERTEX
  8
PCBTurbin
 10
-10.25
 20
-8.0
 42
0.0
  0
VERTEX
  8
PCBTurbin
 10
-10.25
 20
-19.0
 42
0.0
  0
VERTEX
  8
PCBTurbin
 10
-9.5
 20
-19.0
 42
0.1758816418748
  0
VERTEX
  8
PCBTurbin
 10
-4.5298239999921
 20
-21.4583629999908
 42
-0.0962008492671
  0
VERTEX
  8
PCBTurbin
 10
-2.8750000000157
 20
-20.0203540000119
 42
-0.0421117087864
  0
VERTEX
  8
PCBTurbin
 10
-2.0
 20
-19.609035
 42
0.0
  0
VERTEX
  8
PCBTurbin
 10
-2.0
 20
-19.0
 42
0.0
  0
VERTEX
  8
PCBTurbin
 10
2.0
 20
-19.0
 42
0.0
  0
SEQEND
  0
POLYLINE
  8
PCBTurbin
 66
     1
 10
0.0
 20
0.0
 30
0.0
 70
     1
  0
VERTEX
  8
PCBTurbin
 10
1.9999999999995
 20
19.6090350000094
 42
0.0421117087899
  0
VERTEX
  8
PCBTurbin
 10
2.875000000007
 20
20.0203540000069
 42
0.096200849268
  0
VERTEX
  8
PCBTurbin
 10
4.5298239999921
 20
21.4583629999908
 42
-0.1758816418748
  0
VERTEX
  8
PCBTurbin
 10
9.5
 20
19.0
 42
0.0
  0
VERTEX
  8
PCBTurbin
 10
10.25
 20
19.0
 42
0.0
  0
VERTEX
  8
PCBTurbin
 10
10.25
 20
8.0
 42
0.0
  0
VERTEX
  8
PCBTurbin
 10
19.0
 20
8.0
 42
0.0
  0
VERTEX
  8
PCBTurbin
 10
19.5
 20
8.5
 42
0.0
  0
VERTEX
  8
PCBTurbin
 10
19.5
 20
9.5
 42
-1.0
  0
VERTEX
  8
PCBTurbin
 10
19.5
 20
11.0
 42
0.0
  0
VERTEX
  8
PCBTurbin
 10
22.5
 20
11.0
 42
0.0
  0
VERTEX
  8
PCBTurbin
 10
22.5
 20
15.0
 42
0.0
  0
VERTEX
  8
PCBTurbin
 10
19.5000000000167
 20
14.999999999995
 42
-0.3203240360926
  0
VERTEX
  8
PCBTurbin
 10
18.7906650000114
 20
15.5063939999952
 42
0.1193507179505
  0
VERTEX
  8
PCBTurbin
 10
14.5
 20
24.0
 42
-0.6726243818984
  0
VERTEX
  8
PCBTurbin
 10
15.5
 20
27.0
 42
0.0
  0
VERTEX
  8
PCBTurbin
 10
19.5
 20
27.5
 42
0.0
  0
VERTEX
  8
PCBTurbin
 10
19.5
 20
28.0
 42
-1.0
  0
VERTEX
  8
PCBTurbin
 10
19.5
 20
29.0
 42
0.0
  0
VERTEX
  8
PCBTurbin
 10
21.0
 20
29.0
 42
0.0
  0
VERTEX
  8
PCBTurbin
 10
21.0
 20
32.5
 42
0.0
  0
VERTEX
  8
PCBTurbin
 10
19.5
 20
32.5
 42
0.0
  0
VERTEX
  8
PCBTurbin
 10
5.5
 20
34.0
 42
-0.3454344150309
  0
VERTEX
  8
PCBTurbin
 10
-5.5
 20
34.0
 42
0.0
  0
VERTEX
  8
PCBTurbin
 10
-19.5
 20
32.5
 42
0.0
  0
VERTEX
  8
PCBTurbin
 10
-21.0
 20
32.5
 42
0.0
  0
VERTEX
  8
PCBTurbin
 10
-21.0
 20
29.0
 42
0.0
  0
VERTEX
  8
PCBTurbin
 10
-19.5
 20
29.0
 42
-1.0
  0
VERTEX
  8
PCBTurbin
 10
-19.5
 20
28.0
 42
0.0
  0
VERTEX
  8
PCBTurbin
 10
-19.5
 20
27.5
 42
0.0
  0
VERTEX
  8
PCBTurbin
 10
-15.5
 20
27.0
 42
-0.6726243818984
  0
VERTEX
  8
PCBTurbin
 10
-14.5000000000989
 20
23.999999999894
 42
0.1193507179483
  0
VERTEX
  8
PCBTurbin
 10
-18.7906650000034
 20
15.5063940000296
 42
-0.3203240360912
  0
VERTEX
  8
PCBTurbin
 10
-19.5000000000167
 20
14.999999999995
 42
0.0
  0
VERTEX
  8
PCBTurbin
 10
-22.5
 20
15.0
 42
0.0
  0
VERTEX
  8
PCBTurbin
 10
-22.5
 20
11.0
 42
0.0
  0
VERTEX
  8
PCBTurbin
 10
-19.5
 20
11.0
 42
-1.0
  0
VERTEX
  8
PCBTurbin
 10
-19.5
 20
9.5
 42
0.0
  0
VERTEX
  8
PCBTurbin
 10
-19.5
 20
8.5
 42
0.0
  0
VERTEX
  8
PCBTurbin
 10
-19.0
 20
8.0
 42
0.0
  0
VERTEX
  8
PCBTurbin
 10
-10.25
 20
8.0
 42
0.0
  0
VERTEX
  8
PCBTurbin
 10
-10.25
 20
19.0
 42
0.0
  0
VERTEX
  8
PCBTurbin
 10
-9.5
 20
19.0
 42
-0.1758816418748
  0
VERTEX
  8
PCBTurbin
 10
-4.5298240000021
 20
21.4583629999908
 42
0.0962008492671
  0
VERTEX
  8
PCBTurbin
 10
-2.8750000000158
 20
20.0203540000119
 42
0.0421117087907
  0
VERTEX
  8
PCBTurbin
 10
-2.0
 20
19.609035
 42
0.0
  0
VERTEX
  8
PCBTurbin
 10
-2.0
 20
19.0
 42
0.0
  0
VERTEX
  8
PCBTurbin
 10
2.0
 20
19.0
 42
0.0
  0
SEQEND
  0
CIRCLE
  8
PCBTurbin
 10
-16.54
 20
31.5
 30
0.0
 40
0.4
  0
CIRCLE
  8
PCBTurbin
 10
-14.0
 20
31.5
 30
0.0
 40
0.4
  0
CIRCLE
  8
PCBTurbin
 10
-11.46
 20
31.5
 30
0.0
 40
0.4
  0
ENDSEC
  0
EOF
