  0
SECTION
  2
HEADER
  9
$ACADVER
  1
AC1009
  9
$EXTMAX
 10
22.5
 20
35.0
 30
0.0
  9
$EXTMIN
 10
-22.5
 20
7.5
 30
0.0
  9
$INSUNITS
 70
     4
  9
$LUNITS
 70
     2
  9
$LUPREC
 70
     4
  9
$MEASUREMENT
 70
     1
  0
ENDSEC
  0
SECTION
  2
TABLES
  0
TABLE
  2
LAYER
 70
     1
  0
LAYER
  2
0
 70
     0
 62
     7
  6
Continuous
  0
LAYER
  2
SupportsTurbines
 70
     0
 62
    70
  6
Continuous
  0
ENDTAB
  0
TABLE
  2
APPID
 70
     1
  0
APPID
  2
ACAD
 70
     0
  0
ENDTAB
  0
ENDSEC
  0
SECTION
  2
ENTITIES
  0
CIRCLE
  8
SupportsTurbines
 10
-4.25
 20
25.0
 30
0.0
 40
0.8
  0
CIRCLE
  8
SupportsTurbines
 10
18.0
 20
32.5
 30
0.0
 40
1.0
  0
CIRCLE
  8
SupportsTurbines
 10
4.25
 20
25.0
 30
0.0
 40
0.8
  0
CIRCLE
  8
SupportsTurbines
 10
0.0
 20
21.5
 30
0.0
 40
0.8
  0
CIRCLE
  8
SupportsTurbines
 10
0.0
 20
25.0
 30
0.0
 40
2.0
  0
CIRCLE
  8
SupportsTurbines
 10
0.0
 20
28.5
 30
0.0
 40
0.8
  0
CIRCLE
  8
SupportsTurbines
 10
15.5
 20
11.5
 30
0.0
 40
1.25
  0
POLYLINE
  8
SupportsTurbines
 66
     1
 10
0.0
 20
0.0
 30
0.0
 70
     1
  0
VERTEX
  8
SupportsTurbines
 10
4.8525104430801
 20
28.0847434901137
 42
-0.0869975021026
  0
VERTEX
  8
SupportsTurbines
 10
5.6124860801609
 20
26.25
 42
0.0
  0
VERTEX
  8
SupportsTurbines
 10
12.2815684781952
 20
26.25
 42
0.0
  0
VERTEX
  8
SupportsTurbines
 10
12.0417949875389
 20
27.5447768495442
 42
-0.2469725183643
  0
VERTEX
  8
SupportsTurbines
 10
12.7322330470336
 20
29.7677669529664
 42
0.0
  0
VERTEX
  8
SupportsTurbines
 10
14.4644660940673
 20
31.5
 42
0.0
  0
VERTEX
  8
SupportsTurbines
 10
8.2677669529664
 20
31.5
 42
0.0
  0
SEQEND
  0
POLYLINE
  8
SupportsTurbines
 66
     1
 10
0.0
 20
0.0
 30
0.0
 70
     1
  0
VERTEX
  8
SupportsTurbines
 10
1.25
 20
19.3875139198391
 42
0.0869975021026
  0
VERTEX
  8
SupportsTurbines
 10
3.0847434901137
 20
20.1474895569199
 42
0.0
  0
VERTEX
  8
SupportsTurbines
 10
12.2322330470336
 20
11.0
 42
0.0
  0
VERTEX
  8
SupportsTurbines
 10
1.25
 20
11.0
 42
0.0
  0
SEQEND
  0
POLYLINE
  8
SupportsTurbines
 66
     1
 10
0.0
 20
0.0
 30
0.0
 70
     1
  0
VERTEX
  8
SupportsTurbines
 10
1.25
 20
30.6124860801609
 42
0.0
  0
VERTEX
  8
SupportsTurbines
 10
1.25
 20
31.5
 42
0.0
  0
VERTEX
  8
SupportsTurbines
 10
4.7322330470336
 20
31.5
 42
0.0
  0
VERTEX
  8
SupportsTurbines
 10
3.0847434901137
 20
29.8525104430801
 42
0.0869975021026
  0
SEQEND
  0
POLYLINE
  8
SupportsTurbines
 66
     1
 10
0.0
 20
0.0
 30
0.0
 70
     1
  0
VERTEX
  8
SupportsTurbines
 10
5.6124860801609
 20
23.75
 42
0.0
  0
VERTEX
  8
SupportsTurbines
 10
12.7445314411582
 20
23.75
 42
0.0
  0
VERTEX
  8
SupportsTurbines
 10
14.4574944041212
 20
14.5
 42
0.0
  0
VERTEX
  8
SupportsTurbines
 10
12.2677669529664
 20
14.5
 42
0.0
  0
VERTEX
  8
SupportsTurbines
 10
4.8525104430801
 20
21.9152565098863
 42
0.0869975021026
  0
SEQEND
  0
CIRCLE
  8
SupportsTurbines
 10
-18.0
 20
32.5
 30
0.0
 40
1.0
  0
CIRCLE
  8
SupportsTurbines
 10
-15.5
 20
11.5
 30
0.0
 40
1.25
  0
POLYLINE
  8
SupportsTurbines
 66
     1
 10
0.0
 20
0.0
 30
0.0
 70
     1
  0
VERTEX
  8
SupportsTurbines
 10
-4.8525104430801
 20
28.0847434901137
 42
0.0869975021026
  0
VERTEX
  8
SupportsTurbines
 10
-5.6124860801609
 20
26.25
 42
0.0
  0
VERTEX
  8
SupportsTurbines
 10
-12.2815684781952
 20
26.25
 42
0.0
  0
VERTEX
  8
SupportsTurbines
 10
-12.0417949875389
 20
27.5447768495442
 42
0.2469725183643
  0
VERTEX
  8
SupportsTurbines
 10
-12.7322330470336
 20
29.7677669529664
 42
0.0
  0
VERTEX
  8
SupportsTurbines
 10
-14.4644660940673
 20
31.5
 42
0.0
  0
VERTEX
  8
SupportsTurbines
 10
-8.2677669529664
 20
31.5
 42
0.0
  0
SEQEND
  0
POLYLINE
  8
SupportsTurbines
 66
     1
 10
0.0
 20
0.0
 30
0.0
 70
     1
  0
VERTEX
  8
SupportsTurbines
 10
-1.25
 20
19.3875139198391
 42
-0.0869975021026
  0
VERTEX
  8
SupportsTurbines
 10
-3.0847434901137
 20
20.1474895569199
 42
0.0
  0
VERTEX
  8
SupportsTurbines
 10
-12.2322330470336
 20
11.0
 42
0.0
  0
VERTEX
  8
SupportsTurbines
 10
-1.25
 20
11.0
 42
0.0
  0
SEQEND
  0
POLYLINE
  8
SupportsTurbines
 66
     1
 10
0.0
 20
0.0
 30
0.0
 70
     1
  0
VERTEX
  8
SupportsTurbines
 10
-1.25
 20
30.6124860801609
 42
0.0
  0
VERTEX
  8
SupportsTurbines
 10
-1.25
 20
31.5
 42
0.0
  0
VERTEX
  8
SupportsTurbines
 10
-4.7322330470336
 20
31.5
 42
0.0
  0
VERTEX
  8
SupportsTurbines
 10
-3.0847434901137
 20
29.8525104430801
 42
-0.0869975021026
  0
SEQEND
  0
POLYLINE
  8
SupportsTurbines
 66
     1
 10
0.0
 20
0.0
 30
0.0
 70
     1
  0
VERTEX
  8
SupportsTurbines
 10
-5.6124860801609
 20
23.75
 42
0.0
  0
VERTEX
  8
SupportsTurbines
 10
-12.7445314411582
 20
23.75
 42
0.0
  0
VERTEX
  8
SupportsTurbines
 10
-14.4574944041212
 20
14.5
 42
0.0
  0
VERTEX
  8
SupportsTurbines
 10
-12.2677669529664
 20
14.5
 42
0.0
  0
VERTEX
  8
SupportsTurbines
 10
-4.8525104430801
 20
21.9152565098863
 42
-0.0869975021026
  0
SEQEND
  0
POLYLINE
  8
SupportsTurbines
 66
     1
 10
0.0
 20
0.0
 30
0.0
 70
     1
  0
VERTEX
  8
SupportsTurbines
 10
0.0
 20
8.5
 42
0.0
  0
VERTEX
  8
SupportsTurbines
 10
17.5
 20
8.5
 42
0.0
  0
VERTEX
  8
SupportsTurbines
 10
18.5
 20
7.5
 42
0.0
  0
VERTEX
  8
SupportsTurbines
 10
19.5
 20
7.5
 42
0.0
  0
VERTEX
  8
SupportsTurbines
 10
19.5
 20
8.0
 42
-1.0
  0
VERTEX
  8
SupportsTurbines
 10
21.0
 20
8.0
 42
0.0
  0
VERTEX
  8
SupportsTurbines
 10
22.5
 20
8.0
 42
0.0
  0
VERTEX
  8
SupportsTurbines
 10
22.5
 20
12.0
 42
0.0
  0
VERTEX
  8
SupportsTurbines
 10
19.5
 20
12.0
 42
0.0
  0
VERTEX
  8
SupportsTurbines
 10
17.0
 20
14.5
 42
0.0
  0
VERTEX
  8
SupportsTurbines
 10
14.5
 20
28.0
 42
0.0
  0
VERTEX
  8
SupportsTurbines
 10
16.5
 20
30.0
 42
0.0
  0
VERTEX
  8
SupportsTurbines
 10
18.0
 20
30.0
 42
0.4142135623731
  0
VERTEX
  8
SupportsTurbines
 10
20.5
 20
32.5
 42
0.4142135543097
  0
VERTEX
  8
SupportsTurbines
 10
18.0000000688255
 20
35.0
 42
0.0
  0
VERTEX
  8
SupportsTurbines
 10
16.0
 20
35.0
 42
0.0
  0
VERTEX
  8
SupportsTurbines
 10
15.0
 20
34.0
 42
0.0
  0
VERTEX
  8
SupportsTurbines
 10
0.0
 20
34.0
 42
0.0
  0
VERTEX
  8
SupportsTurbines
 10
-15.0
 20
34.0
 42
0.0
  0
VERTEX
  8
SupportsTurbines
 10
-16.0
 20
35.0
 42
0.0
  0
VERTEX
  8
SupportsTurbines
 10
-18.0000000688255
 20
35.0
 42
0.4142135543097
  0
VERTEX
  8
SupportsTurbines
 10
-20.5
 20
32.5
 42
0.4142135623731
  0
VERTEX
  8
SupportsTurbines
 10
-18.0
 20
30.0
 42
0.0
  0
VERTEX
  8
SupportsTurbines
 10
-16.5
 20
30.0
 42
0.0
  0
VERTEX
  8
SupportsTurbines
 10
-14.5
 20
28.0
 42
0.0
  0
VERTEX
  8
SupportsTurbines
 10
-17.0
 20
14.5
 42
0.0
  0
VERTEX
  8
SupportsTurbines
 10
-19.5
 20
12.0
 42
0.0
  0
VERTEX
  8
SupportsTurbines
 10
-22.5
 20
12.0
 42
0.0
  0
VERTEX
  8
SupportsTurbines
 10
-22.5
 20
8.0
 42
0.0
  0
VERTEX
  8
SupportsTurbines
 10
-21.0
 20
8.0
 42
-1.0
  0
VERTEX
  8
SupportsTurbines
 10
-19.5
 20
8.0
 42
0.0
  0
VERTEX
  8
SupportsTurbines
 10
-19.5
 20
7.5
 42
0.0
  0
VERTEX
  8
SupportsTurbines
 10
-18.5
 20
7.5
 42
0.0
  0
VERTEX
  8
SupportsTurbines
 10
-17.5
 20
8.5
 42
0.0
  0
SEQEND
  0
ENDSEC
  0
EOF
