  0
SECTION
  2
HEADER
  9
$ACADVER
  1
AC1009
  9
$EXTMAX
 10
22.5
 20
33.0
 30
0.0
  9
$EXTMIN
 10
-22.5
 20
-38.0045051574707
 30
0.0
  9
$INSUNITS
 70
     4
  9
$LUNITS
 70
     2
  9
$LUPREC
 70
     4
  9
$MEASUREMENT
 70
     1
  0
ENDSEC
  0
SECTION
  2
TABLES
  0
TABLE
  2
LAYER
 70
     1
  0
LAYER
  2
0
 70
     0
 62
     7
  6
Continuous
  0
LAYER
  2
PCBTurbin
 70
     0
 62
    70
  6
Continuous
  0
ENDTAB
  0
TABLE
  2
APPID
 70
     1
  0
APPID
  2
ACAD
 70
     0
  0
ENDTAB
  0
ENDSEC
  0
SECTION
  2
ENTITIES
  0
CIRCLE
  8
PCBTurbin
 10
0.0
 20
25.0
 30
0.0
 40
1.5
  0
CIRCLE
  8
PCBTurbin
 10
0.0
 20
29.25
 30
0.0
 40
0.8
  0
CIRCLE
  8
PCBTurbin
 10
3.5
 20
25.0
 30
0.0
 40
0.8
  0
CIRCLE
  8
PCBTurbin
 10
0.0
 20
20.75
 30
0.0
 40
0.8
  0
CIRCLE
  8
PCBTurbin
 10
-3.5
 20
25.0
 30
0.0
 40
0.8
  0
CIRCLE
  8
PCBTurbin
 10
0.0
 20
-25.0
 30
0.0
 40
1.5
  0
CIRCLE
  8
PCBTurbin
 10
0.0
 20
-29.25
 30
0.0
 40
0.8
  0
CIRCLE
  8
PCBTurbin
 10
0.0
 20
-20.75
 30
0.0
 40
0.8
  0
CIRCLE
  8
PCBTurbin
 10
-3.5
 20
-25.0
 30
0.0
 40
0.8
  0
CIRCLE
  8
PCBTurbin
 10
3.5
 20
-25.0
 30
0.0
 40
0.8
  0
CIRCLE
  8
PCBTurbin
 10
-16.54
 20
31.5
 30
0.0
 40
0.4
  0
CIRCLE
  8
PCBTurbin
 10
-14.0
 20
31.5
 30
0.0
 40
0.4
  0
CIRCLE
  8
PCBTurbin
 10
-11.46
 20
31.5
 30
0.0
 40
0.4
  0
CIRCLE
  8
PCBTurbin
 10
-16.54
 20
-35.5
 30
0.0
 40
0.4
  0
CIRCLE
  8
PCBTurbin
 10
-14.0
 20
-35.5
 30
0.0
 40
0.4
  0
CIRCLE
  8
PCBTurbin
 10
-11.46
 20
-35.5
 30
0.0
 40
0.4
  0
POLYLINE
  8
PCBTurbin
 66
     1
 10
0.0
 20
0.0
 30
0.0
 70
     1
  0
VERTEX
  8
PCBTurbin
 10
-4.098050684327
 20
-29.0334204577117
 42
-0.1725904675706
  0
VERTEX
  8
PCBTurbin
 10
-4.7500000985999
 20
-29.799038355013
 42
-0.1316524975874
  0
VERTEX
  8
PCBTurbin
 10
-5.4999999102304
 20
-29.99999999998
 42
0.0
  0
VERTEX
  8
PCBTurbin
 10
-8.5000000000033
 20
-30.0
 42
-0.4142135623731
  0
VERTEX
  8
PCBTurbin
 10
-9.5
 20
-29.0
 42
-0.0622575005342
  0
VERTEX
  8
PCBTurbin
 10
-9.469230662055
 20
-28.7538461068317
 42
0.0
  0
VERTEX
  8
PCBTurbin
 10
-8.4846156044971
 20
-24.8769228802074
 42
-0.2023163869045
  0
VERTEX
  8
PCBTurbin
 10
-8.2499998608134
 20
-24.5669876215577
 42
-0.3201905448934
  0
VERTEX
  8
PCBTurbin
 10
-7.6718498859135
 20
-24.6227501191382
 42
0.0
  0
VERTEX
  8
PCBTurbin
 10
-5.5621044738438
 20
-26.4579073434366
 42
0.1310177084168
  0
SEQEND
  0
POLYLINE
  8
PCBTurbin
 66
     1
 10
0.0
 20
0.0
 30
0.0
 70
     1
  0
VERTEX
  8
PCBTurbin
 10
4.098050684327
 20
-29.0334204577117
 42
0.1725904675706
  0
VERTEX
  8
PCBTurbin
 10
4.7500000985999
 20
-29.799038355013
 42
0.1316524975874
  0
VERTEX
  8
PCBTurbin
 10
5.4999999102304
 20
-29.99999999998
 42
0.0
  0
VERTEX
  8
PCBTurbin
 10
8.5000000000033
 20
-30.0
 42
0.4142135623731
  0
VERTEX
  8
PCBTurbin
 10
9.5
 20
-29.0
 42
0.0622575005342
  0
VERTEX
  8
PCBTurbin
 10
9.469230662055
 20
-28.7538461068317
 42
0.0
  0
VERTEX
  8
PCBTurbin
 10
8.4846156044971
 20
-24.8769228802074
 42
0.2023163869045
  0
VERTEX
  8
PCBTurbin
 10
8.2499998608134
 20
-24.5669876215577
 42
0.3201905448934
  0
VERTEX
  8
PCBTurbin
 10
7.6718498859135
 20
-24.6227501191382
 42
0.0
  0
VERTEX
  8
PCBTurbin
 10
5.5621044738438
 20
-26.4579073434366
 42
-0.1310177084168
  0
SEQEND
  0
POLYLINE
  8
PCBTurbin
 66
     1
 10
0.0
 20
0.0
 30
0.0
 70
     1
  0
VERTEX
  8
PCBTurbin
 10
-4.098050684327
 20
29.0334204577117
 42
0.1725904675706
  0
VERTEX
  8
PCBTurbin
 10
-4.7500000985999
 20
29.799038355013
 42
0.1316524975874
  0
VERTEX
  8
PCBTurbin
 10
-5.4999999102304
 20
29.99999999998
 42
0.0
  0
VERTEX
  8
PCBTurbin
 10
-8.5000000000033
 20
30.0
 42
0.4142135623731
  0
VERTEX
  8
PCBTurbin
 10
-9.5
 20
29.0
 42
0.0622575005342
  0
VERTEX
  8
PCBTurbin
 10
-9.469230662055
 20
28.7538461068317
 42
0.0
  0
VERTEX
  8
PCBTurbin
 10
-8.4846156044971
 20
24.8769228802074
 42
0.2023163869045
  0
VERTEX
  8
PCBTurbin
 10
-8.2499998608134
 20
24.5669876215578
 42
0.3201905448934
  0
VERTEX
  8
PCBTurbin
 10
-7.6718498859135
 20
24.6227501191382
 42
0.0
  0
VERTEX
  8
PCBTurbin
 10
-5.5621044738438
 20
26.4579073434366
 42
-0.1310177084168
  0
SEQEND
  0
POLYLINE
  8
PCBTurbin
 66
     1
 10
0.0
 20
0.0
 30
0.0
 70
     1
  0
VERTEX
  8
PCBTurbin
 10
4.098050684327
 20
29.0334204577117
 42
-0.1725904675706
  0
VERTEX
  8
PCBTurbin
 10
4.7500000985999
 20
29.799038355013
 42
-0.1316524975874
  0
VERTEX
  8
PCBTurbin
 10
5.4999999102304
 20
29.99999999998
 42
0.0
  0
VERTEX
  8
PCBTurbin
 10
8.5000000000033
 20
30.0
 42
-0.4142135623731
  0
VERTEX
  8
PCBTurbin
 10
9.5
 20
29.0
 42
-0.0622575005342
  0
VERTEX
  8
PCBTurbin
 10
9.469230662055
 20
28.7538461068317
 42
0.0
  0
VERTEX
  8
PCBTurbin
 10
8.4846156044971
 20
24.8769228802074
 42
-0.2023163869045
  0
VERTEX
  8
PCBTurbin
 10
8.2499998608134
 20
24.5669876215577
 42
-0.3201905448934
  0
VERTEX
  8
PCBTurbin
 10
7.6718498859135
 20
24.6227501191382
 42
0.0
  0
VERTEX
  8
PCBTurbin
 10
5.5621044738438
 20
26.4579073434366
 42
0.1310177084168
  0
SEQEND
  0
POLYLINE
  8
PCBTurbin
 66
     1
 10
0.0
 20
0.0
 30
0.0
 70
     1
  0
VERTEX
  8
PCBTurbin
 10
14.8333333333333
 20
33.0
 42
0.0
  0
VERTEX
  8
PCBTurbin
 10
3.9022953298033
 20
33.0
 42
-0.2306051199654
  0
VERTEX
  8
PCBTurbin
 10
-3.9022953298033
 20
33.0
 42
0.0
  0
VERTEX
  8
PCBTurbin
 10
-14.8333333333333
 20
33.0
 42
0.0
  0
VERTEX
  8
PCBTurbin
 10
-18.0
 20
33.0
 42
0.0
  0
VERTEX
  8
PCBTurbin
 10
-19.5
 20
32.5
 42
0.0
  0
VERTEX
  8
PCBTurbin
 10
-21.0
 20
32.5
 42
0.0
  0
VERTEX
  8
PCBTurbin
 10
-21.0
 20
29.0
 42
0.0
  0
VERTEX
  8
PCBTurbin
 10
-19.5
 20
29.0
 42
-1.0
  0
VERTEX
  8
PCBTurbin
 10
-19.5
 20
28.0
 42
0.0
  0
VERTEX
  8
PCBTurbin
 10
-19.5
 20
27.5
 42
0.0
  0
VERTEX
  8
PCBTurbin
 10
-15.5
 20
27.0
 42
-0.6726243818984
  0
VERTEX
  8
PCBTurbin
 10
-14.5000000000989
 20
23.999999999894
 42
0.1193507179483
  0
VERTEX
  8
PCBTurbin
 10
-18.7906650000034
 20
15.5063940000296
 42
-0.3203240360912
  0
VERTEX
  8
PCBTurbin
 10
-19.5000000000167
 20
14.999999999995
 42
0.0
  0
VERTEX
  8
PCBTurbin
 10
-22.5
 20
15.0
 42
0.0
  0
VERTEX
  8
PCBTurbin
 10
-22.5
 20
11.0
 42
0.0
  0
VERTEX
  8
PCBTurbin
 10
-19.5
 20
11.0
 42
-1.0
  0
VERTEX
  8
PCBTurbin
 10
-19.5
 20
9.5
 42
0.0
  0
VERTEX
  8
PCBTurbin
 10
-19.5
 20
8.5
 42
0.0
  0
VERTEX
  8
PCBTurbin
 10
-19.0
 20
8.0
 42
0.0
  0
VERTEX
  8
PCBTurbin
 10
-10.25
 20
8.0
 42
0.0
  0
VERTEX
  8
PCBTurbin
 10
-10.25
 20
19.0
 42
0.0
  0
VERTEX
  8
PCBTurbin
 10
-9.5
 20
19.0
 42
-0.1758816418748
  0
VERTEX
  8
PCBTurbin
 10
-4.5298240000021
 20
21.4583629999908
 42
0.0962008492671
  0
VERTEX
  8
PCBTurbin
 10
-2.8750000000158
 20
20.0203540000119
 42
0.0421117087907
  0
VERTEX
  8
PCBTurbin
 10
-2.0
 20
19.609035
 42
0.0
  0
VERTEX
  8
PCBTurbin
 10
-2.0
 20
19.0
 42
0.0
  0
VERTEX
  8
PCBTurbin
 10
2.0
 20
19.0
 42
0.0
  0
VERTEX
  8
PCBTurbin
 10
1.9999999999995
 20
19.6090350000094
 42
0.0421117087899
  0
VERTEX
  8
PCBTurbin
 10
2.875000000007
 20
20.0203540000069
 42
0.096200849268
  0
VERTEX
  8
PCBTurbin
 10
4.5298239999921
 20
21.4583629999908
 42
-0.1758816418748
  0
VERTEX
  8
PCBTurbin
 10
9.5
 20
19.0
 42
0.0
  0
VERTEX
  8
PCBTurbin
 10
10.25
 20
19.0
 42
0.0
  0
VERTEX
  8
PCBTurbin
 10
10.25
 20
8.0
 42
0.0
  0
VERTEX
  8
PCBTurbin
 10
19.0
 20
8.0
 42
0.0
  0
VERTEX
  8
PCBTurbin
 10
19.5
 20
8.5
 42
0.0
  0
VERTEX
  8
PCBTurbin
 10
19.5
 20
9.5
 42
-1.0
  0
VERTEX
  8
PCBTurbin
 10
19.5
 20
11.0
 42
0.0
  0
VERTEX
  8
PCBTurbin
 10
22.5
 20
11.0
 42
0.0
  0
VERTEX
  8
PCBTurbin
 10
22.5
 20
15.0
 42
0.0
  0
VERTEX
  8
PCBTurbin
 10
19.5000000000167
 20
14.999999999995
 42
-0.3203240360926
  0
VERTEX
  8
PCBTurbin
 10
18.7906650000114
 20
15.5063939999952
 42
0.1193507179505
  0
VERTEX
  8
PCBTurbin
 10
14.5
 20
24.0
 42
-0.6726243818984
  0
VERTEX
  8
PCBTurbin
 10
15.5
 20
27.0
 42
0.0
  0
VERTEX
  8
PCBTurbin
 10
19.5
 20
27.5
 42
0.0
  0
VERTEX
  8
PCBTurbin
 10
19.5
 20
28.0
 42
-1.0
  0
VERTEX
  8
PCBTurbin
 10
19.5
 20
29.0
 42
0.0
  0
VERTEX
  8
PCBTurbin
 10
21.0
 20
29.0
 42
0.0
  0
VERTEX
  8
PCBTurbin
 10
21.0
 20
32.5
 42
0.0
  0
VERTEX
  8
PCBTurbin
 10
19.5
 20
32.5
 42
0.0
  0
VERTEX
  8
PCBTurbin
 10
18.0
 20
33.0
 42
0.0
  0
SEQEND
  0
POLYLINE
  8
PCBTurbin
 66
     1
 10
0.0
 20
0.0
 30
0.0
 70
     1
  0
VERTEX
  8
PCBTurbin
 10
17.4263094920934
 20
-37.605056703234
 42
-0.2529252815008
  0
VERTEX
  8
PCBTurbin
 10
16.5
 20
-38.0
 42
0.0
  0
VERTEX
  8
PCBTurbin
 10
9.5
 20
-37.0
 42
0.100889782899
  0
VERTEX
  8
PCBTurbin
 10
5.2163749876128
 20
-34.0
 42
0.0
  0
VERTEX
  8
PCBTurbin
 10
-5.2163749876128
 20
-34.0
 42
0.100889782899
  0
VERTEX
  8
PCBTurbin
 10
-9.5
 20
-37.0
 42
0.0
  0
VERTEX
  8
PCBTurbin
 10
-16.5
 20
-38.0
 42
-0.2529252815008
  0
VERTEX
  8
PCBTurbin
 10
-17.4263094526764
 20
-37.6050567527514
 42
0.0
  0
VERTEX
  8
PCBTurbin
 10
-17.9079499183945
 20
-37.0
 42
0.0
  0
VERTEX
  8
PCBTurbin
 10
-19.5000007759842
 20
-34.9999996041196
 42
0.0
  0
VERTEX
  8
PCBTurbin
 10
-21.0
 20
-35.0
 42
0.0
  0
VERTEX
  8
PCBTurbin
 10
-21.0
 20
-34.0
 42
0.0
  0
VERTEX
  8
PCBTurbin
 10
-21.0
 20
-31.5
 42
0.0
  0
VERTEX
  8
PCBTurbin
 10
-19.5
 20
-31.5
 42
1.0
  0
VERTEX
  8
PCBTurbin
 10
-19.5
 20
-30.5
 42
0.0
  0
VERTEX
  8
PCBTurbin
 10
-19.5
 20
-30.0
 42
0.0
  0
VERTEX
  8
PCBTurbin
 10
-16.5
 20
-29.0
 42
0.5173318968934
  0
VERTEX
  8
PCBTurbin
 10
-14.5
 20
-24.0
 42
-0.1193507179483
  0
VERTEX
  8
PCBTurbin
 10
-18.790665000017
 20
-15.5063939999951
 42
0.3203240360917
  0
VERTEX
  8
PCBTurbin
 10
-19.5
 20
-15.0
 42
0.0
  0
VERTEX
  8
PCBTurbin
 10
-22.5
 20
-15.0
 42
0.0
  0
VERTEX
  8
PCBTurbin
 10
-22.5
 20
-11.0
 42
0.0
  0
VERTEX
  8
PCBTurbin
 10
-19.5
 20
-11.0
 42
1.0
  0
VERTEX
  8
PCBTurbin
 10
-19.5
 20
-9.5
 42
0.0
  0
VERTEX
  8
PCBTurbin
 10
-19.5
 20
-8.5
 42
0.0
  0
VERTEX
  8
PCBTurbin
 10
-19.0
 20
-8.0
 42
0.0
  0
VERTEX
  8
PCBTurbin
 10
-10.25
 20
-8.0
 42
0.0
  0
VERTEX
  8
PCBTurbin
 10
-10.25
 20
-19.0
 42
0.0
  0
VERTEX
  8
PCBTurbin
 10
-9.5
 20
-19.0
 42
0.1758816418748
  0
VERTEX
  8
PCBTurbin
 10
-4.5298239999921
 20
-21.4583629999908
 42
-0.0962008492671
  0
VERTEX
  8
PCBTurbin
 10
-2.8750000000157
 20
-20.0203540000119
 42
-0.0421117087864
  0
VERTEX
  8
PCBTurbin
 10
-2.0
 20
-19.609035
 42
0.0
  0
VERTEX
  8
PCBTurbin
 10
-2.0
 20
-19.0
 42
0.0
  0
VERTEX
  8
PCBTurbin
 10
2.0
 20
-19.0
 42
0.0
  0
VERTEX
  8
PCBTurbin
 10
1.9999999999994
 20
-19.6090350000094
 42
-0.0421117087899
  0
VERTEX
  8
PCBTurbin
 10
2.8749999999983
 20
-20.0203540000019
 42
-0.0962008492685
  0
VERTEX
  8
PCBTurbin
 10
4.5298239999921
 20
-21.4583629999908
 42
0.1758816418748
  0
VERTEX
  8
PCBTurbin
 10
9.5
 20
-19.0
 42
0.0
  0
VERTEX
  8
PCBTurbin
 10
10.25
 20
-19.0
 42
0.0
  0
VERTEX
  8
PCBTurbin
 10
10.25
 20
-8.0
 42
0.0
  0
VERTEX
  8
PCBTurbin
 10
19.0
 20
-8.0
 42
0.0
  0
VERTEX
  8
PCBTurbin
 10
19.5
 20
-8.5
 42
0.0
  0
VERTEX
  8
PCBTurbin
 10
19.5
 20
-9.5
 42
1.0
  0
VERTEX
  8
PCBTurbin
 10
19.5
 20
-11.0
 42
0.0
  0
VERTEX
  8
PCBTurbin
 10
22.5
 20
-11.0
 42
0.0
  0
VERTEX
  8
PCBTurbin
 10
22.5
 20
-15.0
 42
0.0
  0
VERTEX
  8
PCBTurbin
 10
19.5000000000167
 20
-14.999999999995
 42
0.3203240360926
  0
VERTEX
  8
PCBTurbin
 10
18.7906650000114
 20
-15.5063939999953
 42
-0.1193507179505
  0
VERTEX
  8
PCBTurbin
 10
14.5
 20
-24.0
 42
0.5173318968934
  0
VERTEX
  8
PCBTurbin
 10
16.5
 20
-29.0
 42
0.0
  0
VERTEX
  8
PCBTurbin
 10
19.5
 20
-30.0
 42
0.0
  0
VERTEX
  8
PCBTurbin
 10
19.5
 20
-30.5
 42
1.0
  0
VERTEX
  8
PCBTurbin
 10
19.5
 20
-31.5
 42
0.0
  0
VERTEX
  8
PCBTurbin
 10
21.0
 20
-31.5
 42
0.0
  0
VERTEX
  8
PCBTurbin
 10
21.0
 20
-34.0
 42
0.0
  0
VERTEX
  8
PCBTurbin
 10
21.0
 20
-35.0
 42
0.0
  0
VERTEX
  8
PCBTurbin
 10
19.5000007759842
 20
-34.9999996041196
 42
0.0
  0
VERTEX
  8
PCBTurbin
 10
17.9079499183945
 20
-37.0
 42
0.0
  0
SEQEND
  0
ENDSEC
  0
EOF
