  0
SECTION
  2
HEADER
  9
$ACADVER
  1
AC1009
  9
$EXTMAX
 10
22.5
 20
35.0
 30
0.0
  9
$EXTMIN
 10
-22.5
 20
-35.0
 30
0.0
  9
$INSUNITS
 70
     4
  9
$LUNITS
 70
     2
  9
$LUPREC
 70
     4
  9
$MEASUREMENT
 70
     1
  0
ENDSEC
  0
SECTION
  2
TABLES
  0
TABLE
  2
LAYER
 70
     1
  0
LAYER
  2
0
 70
     0
 62
     7
  6
Continuous
  0
LAYER
  2
PCB001
 70
     0
 62
    70
  6
Continuous
  0
ENDTAB
  0
TABLE
  2
APPID
 70
     1
  0
APPID
  2
ACAD
 70
     0
  0
ENDTAB
  0
ENDSEC
  0
SECTION
  2
ENTITIES
  0
CIRCLE
  8
PCB001
 10
0.0
 20
25.0
 30
0.0
 40
2.0
  0
CIRCLE
  8
PCB001
 10
-18.0
 20
32.5
 30
0.0
 40
1.0
  0
CIRCLE
  8
PCB001
 10
18.0
 20
32.5
 30
0.0
 40
1.0
  0
CIRCLE
  8
PCB001
 10
-12.54
 20
-32.5
 30
0.0
 40
0.4
  0
CIRCLE
  8
PCB001
 10
-10.0
 20
-32.5
 30
0.0
 40
0.4
  0
CIRCLE
  8
PCB001
 10
-7.46
 20
-32.5
 30
0.0
 40
0.4
  0
CIRCLE
  8
PCB001
 10
-18.0
 20
-32.5
 30
0.0
 40
1.0
  0
CIRCLE
  8
PCB001
 10
18.0
 20
-32.5
 30
0.0
 40
1.0
  0
CIRCLE
  8
PCB001
 10
0.0
 20
-25.0
 30
0.0
 40
2.0
  0
POLYLINE
  8
PCB001
 66
     1
 10
0.0
 20
0.0
 30
0.0
 70
     1
  0
VERTEX
  8
PCB001
 10
-8.3436999749002
 20
-24.2454999820716
 42
0.0
  0
VERTEX
  8
PCB001
 10
-5.4821061317432
 20
-26.734650500909
 42
0.0024749446267
  0
VERTEX
  8
PCB001
 10
-5.4646651562609
 20
-26.7888361383725
 42
0.0890286453001
  0
VERTEX
  8
PCB001
 10
-4.5015045685097
 20
-28.5775629441963
 42
-0.2575817367428
  0
VERTEX
  8
PCB001
 10
-5.5
 20
-30.2320508075689
 42
-0.1316524975874
  0
VERTEX
  8
PCB001
 10
-6.5
 20
-30.5
 42
0.0
  0
VERTEX
  8
PCB001
 10
-9.5
 20
-30.5
 42
-0.4142135623731
  0
VERTEX
  8
PCB001
 10
-11.0
 20
-29.0
 42
-0.0622577712841
  0
VERTEX
  8
PCB001
 10
-10.9538461534836
 20
-28.6307692416351
 42
0.0
  0
VERTEX
  8
PCB001
 10
-9.969230769417
 20
-24.7538461545794
 42
-0.2023163869062
  0
VERTEX
  8
PCB001
 10
-9.5
 20
-24.1339745962156
 42
-0.3201905448948
  0
SEQEND
  0
POLYLINE
  8
PCB001
 66
     1
 10
0.0
 20
0.0
 30
0.0
 70
     1
  0
VERTEX
  8
PCB001
 10
8.3436999749002
 20
-24.2454999820716
 42
0.0
  0
VERTEX
  8
PCB001
 10
5.4821061317432
 20
-26.734650500909
 42
-0.0024749446267
  0
VERTEX
  8
PCB001
 10
5.4646651562609
 20
-26.7888361383725
 42
-0.0890286453001
  0
VERTEX
  8
PCB001
 10
4.5015045685097
 20
-28.5775629441963
 42
0.2575817367428
  0
VERTEX
  8
PCB001
 10
5.5
 20
-30.2320508075689
 42
0.1316524975874
  0
VERTEX
  8
PCB001
 10
6.5
 20
-30.5
 42
0.0
  0
VERTEX
  8
PCB001
 10
9.5
 20
-30.5
 42
0.4142135623731
  0
VERTEX
  8
PCB001
 10
11.0
 20
-29.0
 42
0.0622577712841
  0
VERTEX
  8
PCB001
 10
10.9538461534836
 20
-28.6307692416351
 42
0.0
  0
VERTEX
  8
PCB001
 10
9.969230769417
 20
-24.7538461545794
 42
0.2023163869062
  0
VERTEX
  8
PCB001
 10
9.5
 20
-24.1339745962156
 42
0.3201905448948
  0
SEQEND
  0
POLYLINE
  8
PCB001
 66
     1
 10
0.0
 20
0.0
 30
0.0
 70
     1
  0
VERTEX
  8
PCB001
 10
-8.3436999749002
 20
24.2454999820716
 42
0.0
  0
VERTEX
  8
PCB001
 10
-5.4821061317432
 20
26.734650500909
 42
-0.0024749446267
  0
VERTEX
  8
PCB001
 10
-5.4646651562609
 20
26.7888361383725
 42
-0.0890286453001
  0
VERTEX
  8
PCB001
 10
-4.5015045685097
 20
28.5775629441963
 42
0.2575817367428
  0
VERTEX
  8
PCB001
 10
-5.5
 20
30.2320508075689
 42
0.1316524975874
  0
VERTEX
  8
PCB001
 10
-6.5
 20
30.5
 42
0.0
  0
VERTEX
  8
PCB001
 10
-9.5
 20
30.5
 42
0.4142135623731
  0
VERTEX
  8
PCB001
 10
-11.0
 20
29.0
 42
0.0622577712841
  0
VERTEX
  8
PCB001
 10
-10.9538461534836
 20
28.6307692416351
 42
0.0
  0
VERTEX
  8
PCB001
 10
-9.969230769417
 20
24.7538461545794
 42
0.2023163869062
  0
VERTEX
  8
PCB001
 10
-9.5
 20
24.1339745962156
 42
0.3201905448948
  0
SEQEND
  0
POLYLINE
  8
PCB001
 66
     1
 10
0.0
 20
0.0
 30
0.0
 70
     1
  0
VERTEX
  8
PCB001
 10
8.3436999749002
 20
24.2454999820716
 42
0.0
  0
VERTEX
  8
PCB001
 10
5.4821061317432
 20
26.734650500909
 42
0.0024749446267
  0
VERTEX
  8
PCB001
 10
5.4646651562609
 20
26.7888361383725
 42
0.0890286453001
  0
VERTEX
  8
PCB001
 10
4.5015045685097
 20
28.5775629441963
 42
-0.2575817367428
  0
VERTEX
  8
PCB001
 10
5.5
 20
30.2320508075689
 42
-0.1316524975874
  0
VERTEX
  8
PCB001
 10
6.5
 20
30.5
 42
0.0
  0
VERTEX
  8
PCB001
 10
9.5
 20
30.5
 42
-0.4142135623731
  0
VERTEX
  8
PCB001
 10
11.0
 20
29.0
 42
-0.0622577712841
  0
VERTEX
  8
PCB001
 10
10.9538461534836
 20
28.6307692416351
 42
0.0
  0
VERTEX
  8
PCB001
 10
9.969230769417
 20
24.7538461545794
 42
-0.2023163869062
  0
VERTEX
  8
PCB001
 10
9.5
 20
24.1339745962156
 42
-0.3201905448948
  0
SEQEND
  0
CIRCLE
  8
PCB001
 10
-16.5
 20
9.96
 30
0.0
 40
0.4
  0
CIRCLE
  8
PCB001
 10
-16.5
 20
12.5
 30
0.0
 40
0.4
  0
CIRCLE
  8
PCB001
 10
-16.5
 20
15.04
 30
0.0
 40
0.4
  0
POLYLINE
  8
PCB001
 66
     1
 10
0.0
 20
0.0
 30
0.0
 70
     1
  0
VERTEX
  8
PCB001
 10
-2.0
 20
19.609035336788
 42
0.0
  0
VERTEX
  8
PCB001
 10
-2.0
 20
19.0
 42
0.0
  0
VERTEX
  8
PCB001
 10
2.0
 20
19.0
 42
0.0
  0
VERTEX
  8
PCB001
 10
2.0
 20
19.609035336788
 42
0.0421117087897
  0
VERTEX
  8
PCB001
 10
2.875
 20
20.0203539282395
 42
0.0962008492682
  0
VERTEX
  8
PCB001
 10
4.529824103369
 20
21.4583628654905
 42
-0.1758816418746
  0
VERTEX
  8
PCB001
 10
9.5
 20
19.0
 42
0.0
  0
VERTEX
  8
PCB001
 10
10.25
 20
19.0
 42
0.0
  0
VERTEX
  8
PCB001
 10
10.25
 20
8.0
 42
0.0
  0
VERTEX
  8
PCB001
 10
19.0
 20
8.0
 42
0.0
  0
VERTEX
  8
PCB001
 10
19.5
 20
8.5
 42
0.0
  0
VERTEX
  8
PCB001
 10
19.5
 20
9.5
 42
-1.0
  0
VERTEX
  8
PCB001
 10
19.5
 20
11.0
 42
0.0
  0
VERTEX
  8
PCB001
 10
22.5
 20
11.0
 42
0.0
  0
VERTEX
  8
PCB001
 10
22.5
 20
15.0
 42
0.0
  0
VERTEX
  8
PCB001
 10
19.5
 20
15.0
 42
-0.3203240360913
  0
VERTEX
  8
PCB001
 10
18.7906650660554
 20
15.5063938599177
 42
0.1193507179505
  0
VERTEX
  8
PCB001
 10
14.5
 20
24.0
 42
-0.3960823909753
  0
VERTEX
  8
PCB001
 10
14.5
 20
28.0
 42
0.0
  0
VERTEX
  8
PCB001
 10
16.5
 20
30.0
 42
0.0
  0
VERTEX
  8
PCB001
 10
18.0
 20
30.0
 42
0.4142135623731
  0
VERTEX
  8
PCB001
 10
20.5
 20
32.5
 42
0.4142135583413
  0
VERTEX
  8
PCB001
 10
18.0000000000135
 20
35.00000000001
 42
0.0
  0
VERTEX
  8
PCB001
 10
16.0
 20
35.0
 42
0.0
  0
VERTEX
  8
PCB001
 10
15.0
 20
34.0
 42
0.0
  0
VERTEX
  8
PCB001
 10
5.5
 20
34.0
 42
-0.3755961147191
  0
VERTEX
  8
PCB001
 10
-5.0
 20
34.0
 42
0.0
  0
VERTEX
  8
PCB001
 10
-15.0
 20
34.0
 42
0.0
  0
VERTEX
  8
PCB001
 10
-16.0
 20
35.0
 42
0.0
  0
VERTEX
  8
PCB001
 10
-18.0
 20
35.0
 42
0.4142135583413
  0
VERTEX
  8
PCB001
 10
-20.50000000001
 20
32.4999999656
 42
0.4142135623731
  0
VERTEX
  8
PCB001
 10
-18.0
 20
30.0
 42
0.0
  0
VERTEX
  8
PCB001
 10
-16.5
 20
30.0
 42
0.0
  0
VERTEX
  8
PCB001
 10
-14.5
 20
28.0
 42
-0.3960823909753
  0
VERTEX
  8
PCB001
 10
-14.5
 20
24.0
 42
0.1193507179505
  0
VERTEX
  8
PCB001
 10
-18.7906650660554
 20
15.5063938599177
 42
-0.3203240360913
  0
VERTEX
  8
PCB001
 10
-19.5
 20
15.0
 42
0.0
  0
VERTEX
  8
PCB001
 10
-22.5
 20
15.0
 42
0.0
  0
VERTEX
  8
PCB001
 10
-22.5
 20
11.0
 42
0.0
  0
VERTEX
  8
PCB001
 10
-19.5
 20
11.0
 42
-1.0
  0
VERTEX
  8
PCB001
 10
-19.5
 20
9.5
 42
0.0
  0
VERTEX
  8
PCB001
 10
-19.5
 20
8.5
 42
0.0
  0
VERTEX
  8
PCB001
 10
-19.0
 20
8.0
 42
0.0
  0
VERTEX
  8
PCB001
 10
-10.25
 20
8.0
 42
0.0
  0
VERTEX
  8
PCB001
 10
-10.25
 20
19.0
 42
0.0
  0
VERTEX
  8
PCB001
 10
-9.5
 20
19.0
 42
-0.1758816418746
  0
VERTEX
  8
PCB001
 10
-4.529824103369
 20
21.4583628654905
 42
0.0962008492682
  0
VERTEX
  8
PCB001
 10
-2.875
 20
20.0203539282395
 42
0.0421117087897
  0
SEQEND
  0
POLYLINE
  8
PCB001
 66
     1
 10
0.0
 20
0.0
 30
0.0
 70
     1
  0
VERTEX
  8
PCB001
 10
-2.0
 20
-19.609035336788
 42
0.0
  0
VERTEX
  8
PCB001
 10
-2.0
 20
-19.0
 42
0.0
  0
VERTEX
  8
PCB001
 10
2.0
 20
-19.0
 42
0.0
  0
VERTEX
  8
PCB001
 10
2.0
 20
-19.609035336788
 42
-0.0421117087897
  0
VERTEX
  8
PCB001
 10
2.875
 20
-20.0203539282395
 42
-0.0962008492682
  0
VERTEX
  8
PCB001
 10
4.529824103369
 20
-21.4583628654905
 42
0.1758816418746
  0
VERTEX
  8
PCB001
 10
9.5
 20
-19.0
 42
0.0
  0
VERTEX
  8
PCB001
 10
10.25
 20
-19.0
 42
0.0
  0
VERTEX
  8
PCB001
 10
10.25
 20
-8.0
 42
0.0
  0
VERTEX
  8
PCB001
 10
19.0
 20
-8.0
 42
0.0
  0
VERTEX
  8
PCB001
 10
19.5
 20
-8.5
 42
0.0
  0
VERTEX
  8
PCB001
 10
19.5
 20
-9.5
 42
1.0
  0
VERTEX
  8
PCB001
 10
19.5
 20
-11.0
 42
0.0
  0
VERTEX
  8
PCB001
 10
22.5
 20
-11.0
 42
0.0
  0
VERTEX
  8
PCB001
 10
22.5
 20
-15.0
 42
0.0
  0
VERTEX
  8
PCB001
 10
19.5
 20
-15.0
 42
0.3203240360913
  0
VERTEX
  8
PCB001
 10
18.7906650660554
 20
-15.5063938599177
 42
-0.1193507179505
  0
VERTEX
  8
PCB001
 10
14.5
 20
-24.0
 42
0.3960823909753
  0
VERTEX
  8
PCB001
 10
14.5
 20
-28.0
 42
0.0
  0
VERTEX
  8
PCB001
 10
16.5
 20
-30.0
 42
0.0
  0
VERTEX
  8
PCB001
 10
18.0
 20
-30.0
 42
-0.4142135623731
  0
VERTEX
  8
PCB001
 10
20.5
 20
-32.5
 42
-0.4142135583413
  0
VERTEX
  8
PCB001
 10
18.0000000000135
 20
-35.00000000001
 42
0.0
  0
VERTEX
  8
PCB001
 10
16.0
 20
-35.0
 42
0.0
  0
VERTEX
  8
PCB001
 10
15.0
 20
-34.0
 42
0.0
  0
VERTEX
  8
PCB001
 10
5.5
 20
-34.0
 42
0.3755961147191
  0
VERTEX
  8
PCB001
 10
-5.0
 20
-34.0
 42
0.0
  0
VERTEX
  8
PCB001
 10
-15.0
 20
-34.0
 42
0.0
  0
VERTEX
  8
PCB001
 10
-16.0
 20
-35.0
 42
0.0
  0
VERTEX
  8
PCB001
 10
-18.0
 20
-35.0
 42
-0.4142135583413
  0
VERTEX
  8
PCB001
 10
-20.50000000001
 20
-32.4999999656
 42
-0.4142135623731
  0
VERTEX
  8
PCB001
 10
-18.0
 20
-30.0
 42
0.0
  0
VERTEX
  8
PCB001
 10
-16.5
 20
-30.0
 42
0.0
  0
VERTEX
  8
PCB001
 10
-14.5
 20
-28.0
 42
0.3960823909753
  0
VERTEX
  8
PCB001
 10
-14.5
 20
-24.0
 42
-0.1193507179505
  0
VERTEX
  8
PCB001
 10
-18.7906650660554
 20
-15.5063938599177
 42
0.3203240360913
  0
VERTEX
  8
PCB001
 10
-19.5
 20
-15.0
 42
0.0
  0
VERTEX
  8
PCB001
 10
-22.5
 20
-15.0
 42
0.0
  0
VERTEX
  8
PCB001
 10
-22.5
 20
-11.0
 42
0.0
  0
VERTEX
  8
PCB001
 10
-19.5
 20
-11.0
 42
1.0
  0
VERTEX
  8
PCB001
 10
-19.5
 20
-9.5
 42
0.0
  0
VERTEX
  8
PCB001
 10
-19.5
 20
-8.5
 42
0.0
  0
VERTEX
  8
PCB001
 10
-19.0
 20
-8.0
 42
0.0
  0
VERTEX
  8
PCB001
 10
-10.25
 20
-8.0
 42
0.0
  0
VERTEX
  8
PCB001
 10
-10.25
 20
-19.0
 42
0.0
  0
VERTEX
  8
PCB001
 10
-9.5
 20
-19.0
 42
0.1758816418746
  0
VERTEX
  8
PCB001
 10
-4.529824103369
 20
-21.4583628654905
 42
-0.0962008492682
  0
VERTEX
  8
PCB001
 10
-2.875
 20
-20.0203539282395
 42
-0.0421117087897
  0
SEQEND
  0
CIRCLE
  8
PCB001
 10
-4.25
 20
-25.0
 30
0.0
 40
0.8
  0
CIRCLE
  8
PCB001
 10
4.25
 20
-25.0
 30
0.0
 40
0.8
  0
CIRCLE
  8
PCB001
 10
0.0
 20
-21.5
 30
0.0
 40
0.8
  0
CIRCLE
  8
PCB001
 10
0.0
 20
-28.5
 30
0.0
 40
0.8
  0
CIRCLE
  8
PCB001
 10
4.25
 20
25.0
 30
0.0
 40
0.8
  0
CIRCLE
  8
PCB001
 10
0.0
 20
21.5
 30
0.0
 40
0.8
  0
CIRCLE
  8
PCB001
 10
-4.25
 20
25.0
 30
0.0
 40
0.8
  0
CIRCLE
  8
PCB001
 10
0.0
 20
28.5
 30
0.0
 40
0.8
  0
ENDSEC
  0
EOF
