  0
SECTION
  2
HEADER
  9
$ACADVER
  1
AC1009
  9
$INSBASE
 10
0.0
 20
0.0
 30
0.0
  9
$EXTMIN
 10
0.0
 20
0.0
 30
0.0
  9
$EXTMAX
 10
0.0
 20
0.0
 30
0.0
  0
ENDSEC
  0
SECTION
  2
TABLES
  0
TABLE
  2
VPORT
 70
0
  0
ENDTAB
  0
TABLE
  2
LTYPE
 70
1
  0
LTYPE
  2
CONTINUOUS
 70
0
  3
Solid line
 72
65
 73
0
 40
0.0
  0
ENDTAB
  0
TABLE
  2
LAYER
 70
1
  0
LAYER
  2
0
 70
64
 62
7
  6
continuous
  0
ENDTAB
  0
TABLE
  2
STYLE
 70
1
  0
STYLE
  2
STANDARD
 70
0
 40
0
 41
1.0
 50
0.0
 71
0
 42
1
 3
ARIAL.TTF
 4

  0
ENDTAB
  0
TABLE
  2
VIEW
 70
0
  0
ENDTAB
  0
ENDSEC
  0
SECTION
  2
BLOCKS
  0
BLOCK
  8
PCBTurbin
  2
CUT009
 70
0
 10
0.0
 20
0.0
 30
0.0
  3
CUT009
  0
LINE
  8
PCBTurbin
 62
0
 10
-2.0
 20
19.609035
 30
0.0
 11
-2.0
 21
19.0
 31
0.0
  0
ARC
  8
PCBTurbin
 62
0
 10
2.42108499116e-06
 20
24.9999998675
 30
0.0
 40
5.75000103364
 50
-120.000021911
 51
-110.354428309
  0
LINE
  8
PCBTurbin
 62
0
 10
-2.0
 20
19.0
 30
0.0
 11
2.0
 21
19.0
 31
0.0
  0
ARC
  8
PCBTurbin
 62
0
 10
2.13241988511e-07
 20
24.999999837
 30
0.0
 40
5.74999990331
 50
-141.979974827
 51
-120.00000301
  0
LINE
  8
PCBTurbin
 62
0
 10
2.0
 20
19.0
 30
0.0
 11
2.0
 21
19.609035
 31
0.0
  0
ARC
  8
PCBTurbin
 62
0
 10
-3.62866442415
 20
13.3830621793
 30
0.0
 40
8.12542749188
 50
96.36755161
 51
136.268557545
  0
ARC
  8
PCBTurbin
 62
0
 10
-2.42108496162e-06
 20
24.9999998675
 30
0.0
 40
5.75000103364
 50
-69.6455716913
 51
-59.9999780895
  0
LINE
  8
PCBTurbin
 62
0
 10
-10.25
 20
19.0
 30
0.0
 11
-9.5
 21
19.0
 31
0.0
  0
ARC
  8
PCBTurbin
 62
0
 10
-2.13242033587e-07
 20
24.999999837
 30
0.0
 40
5.74999990331
 50
-59.9999969901
 51
-38.0200251729
  0
LINE
  8
PCBTurbin
 62
0
 10
-10.25
 20
8.0
 30
0.0
 11
-10.25
 21
19.0
 31
0.0
  0
ARC
  8
PCBTurbin
 62
0
 10
3.62866442414
 20
13.3830621793
 30
0.0
 40
8.12542749188
 50
43.731442455
 51
83.63244839
  0
LINE
  8
PCBTurbin
 62
0
 10
-19.0
 20
8.0
 30
0.0
 11
-10.25
 21
8.0
 31
0.0
  0
LINE
  8
PCBTurbin
 62
0
 10
9.5
 20
19.0
 30
0.0
 11
10.25
 21
19.0
 31
0.0
  0
LINE
  8
PCBTurbin
 62
0
 10
-19.5
 20
8.5
 30
0.0
 11
-19.0
 21
8.0
 31
0.0
  0
LINE
  8
PCBTurbin
 62
0
 10
10.25
 20
19.0
 30
0.0
 11
10.25
 21
8.0
 31
0.0
  0
LINE
  8
PCBTurbin
 62
0
 10
-19.5
 20
9.5
 30
0.0
 11
-19.5
 21
8.5
 31
0.0
  0
LINE
  8
PCBTurbin
 62
0
 10
10.25
 20
8.0
 30
0.0
 11
19.0
 21
8.0
 31
0.0
  0
ARC
  8
PCBTurbin
 62
0
 10
-19.5
 20
10.25
 30
0.0
 40
0.75
 50
-90.0
 51
90.0
  0
LINE
  8
PCBTurbin
 62
0
 10
19.0
 20
8.0
 30
0.0
 11
19.5
 21
8.5
 31
0.0
  0
LINE
  8
PCBTurbin
 62
0
 10
-22.5
 20
11.0
 30
0.0
 11
-19.5
 21
11.0
 31
0.0
  0
LINE
  8
PCBTurbin
 62
0
 10
19.5
 20
8.5
 30
0.0
 11
19.5
 21
9.5
 31
0.0
  0
LINE
  8
PCBTurbin
 62
0
 10
-22.5
 20
15.0
 30
0.0
 11
-22.5
 21
11.0
 31
0.0
  0
ARC
  8
PCBTurbin
 62
0
 10
19.5
 20
10.25
 30
0.0
 40
0.75
 50
90.0
 51
-90.0
  0
LINE
  8
PCBTurbin
 62
0
 10
-19.5
 20
15.0
 30
0.0
 11
-22.5
 21
15.0
 31
0.0
  0
LINE
  8
PCBTurbin
 62
0
 10
19.5
 20
11.0
 30
0.0
 11
22.5
 21
11.0
 31
0.0
  0
ARC
  8
PCBTurbin
 62
0
 10
-19.5000000651
 20
15.7500001163
 30
0.0
 40
0.750000116305
 50
-89.999995028
 51
-18.9539494793
  0
LINE
  8
PCBTurbin
 62
0
 10
22.5
 20
11.0
 30
0.0
 11
22.5
 21
15.0
 31
0.0
  0
ARC
  8
PCBTurbin
 62
0
 10
0.892513471454
 20
10.8937064744
 30
0.0
 40
20.216438879
 50
139.586537141
 51
166.810927425
  0
LINE
  8
PCBTurbin
 62
0
 10
22.5
 20
15.0
 30
0.0
 11
19.5
 21
15.0
 31
0.0
  0
ARC
  8
PCBTurbin
 62
0
 10
-16.6286448445
 20
26.0
 30
0.0
 40
2.92080962648
 50
-43.2152926925
 51
43.2152926926
  0
ARC
  8
PCBTurbin
 62
0
 10
19.5000000651
 20
15.7500001163
 30
0.0
 40
0.750000116305
 50
-161.046050521
 51
-90.000004972
  0
LINE
  8
PCBTurbin
 62
0
 10
-16.5
 20
30.0
 30
0.0
 11
-14.5
 21
28.0
 31
0.0
  0
ARC
  8
PCBTurbin
 62
0
 10
-0.892513471454
 20
10.8937064744
 30
0.0
 40
20.216438879
 50
13.1890725749
 51
40.4134628594
  0
LINE
  8
PCBTurbin
 62
0
 10
-18.0
 20
30.0
 30
0.0
 11
-16.5
 21
30.0
 31
0.0
  0
ARC
  8
PCBTurbin
 62
0
 10
16.6286448445
 20
26.0
 30
0.0
 40
2.92080962648
 50
136.784707307
 51
-136.784707307
  0
ARC
  8
PCBTurbin
 62
0
 10
-18.0
 20
32.5
 30
0.0
 40
2.5
 50
-180.0
 51
-90.0
  0
LINE
  8
PCBTurbin
 62
0
 10
14.5
 20
28.0
 30
0.0
 11
16.5
 21
30.0
 31
0.0
  0
ARC
  8
PCBTurbin
 62
0
 10
-17.9999999828
 20
32.4999999828
 30
0.0
 40
2.50000001721
 50
90.0000003944
 51
-180.0
  0
LINE
  8
PCBTurbin
 62
0
 10
16.5
 20
30.0
 30
0.0
 11
18.0
 21
30.0
 31
0.0
  0
LINE
  8
PCBTurbin
 62
0
 10
-16.0
 20
35.0
 30
0.0
 11
-18.0
 21
35.0
 31
0.0
  0
ARC
  8
PCBTurbin
 62
0
 10
18.0
 20
32.5
 30
0.0
 40
2.5
 50
-90.0
 51
0.0
  0
LINE
  8
PCBTurbin
 62
0
 10
-15.0
 20
34.0
 30
0.0
 11
-16.0
 21
35.0
 31
0.0
  0
ARC
  8
PCBTurbin
 62
0
 10
17.9999999828
 20
32.4999999828
 30
0.0
 40
2.50000001721
 50
-0.0
 51
89.9999996056
  0
LINE
  8
PCBTurbin
 62
0
 10
-5.0
 20
34.0
 30
0.0
 11
-15.0
 21
34.0
 31
0.0
  0
LINE
  8
PCBTurbin
 62
0
 10
18.0
 20
35.0
 30
0.0
 11
16.0
 21
35.0
 31
0.0
  0
ARC
  8
PCBTurbin
 62
0
 10
0.25
 20
40.0029503847
 30
0.0
 40
7.97482998698
 50
-131.171966668
 51
-48.8280333317
  0
LINE
  8
PCBTurbin
 62
0
 10
16.0
 20
35.0
 30
0.0
 11
15.0
 21
34.0
 31
0.0
  0
LINE
  8
PCBTurbin
 62
0
 10
15.0
 20
34.0
 30
0.0
 11
5.5
 21
34.0
 31
0.0
  0
LINE
  8
PCBTurbin
 62
0
 10
8.3437
 20
24.2455
 30
0.0
 11
5.482106
 21
26.734651
 31
0.0
  0
ARC
  8
PCBTurbin
 62
0
 10
8.99999974334
 20
25.0000002055
 30
0.0
 40
0.999999956589
 50
-131.018279167
 51
-59.9999815837
  0
ARC
  8
PCBTurbin
 62
0
 10
6.42472477228e-05
 20
24.9999977038
 30
0.0
 40
5.74993946377
 50
17.5586566003
 51
18.1258709687
  0
ARC
  8
PCBTurbin
 62
0
 10
9.00000064915
 20
25.0000004947
 30
0.0
 40
0.99999975412
 50
-60.0000348141
 51
-14.2500746117
  0
ARC
  8
PCBTurbin
 62
0
 10
-4.03324074139e-07
 20
25.0000015961
 30
0.0
 40
5.74999969521
 50
18.1256336912
 51
38.4758434583
  0
LINE
  8
PCBTurbin
 62
0
 10
10.953846
 20
28.630769
 30
0.0
 11
9.969231
 21
24.753846
 31
0.0
  0
ARC
  8
PCBTurbin
 62
0
 10
6.50000033955
 20
28.5000005151
 30
0.0
 40
1.99999989032
 50
120.000013046
 51
177.777441009
  0
ARC
  8
PCBTurbin
 62
0
 10
9.49999954952
 20
29.0000004313
 30
0.0
 40
1.50000045048
 50
-14.2500544202
 51
-1.64669897468e-05
  0
ARC
  8
PCBTurbin
 62
0
 10
6.49999964092
 20
28.5000000962
 30
0.0
 40
1.99999990378
 50
89.9999897131
 51
119.999989713
  0
ARC
  8
PCBTurbin
 62
0
 10
9.5
 20
29.0
 30
0.0
 40
1.5
 50
0.0
 51
90.0
  0
LINE
  8
PCBTurbin
 62
0
 10
6.5
 20
30.5
 30
0.0
 11
9.5
 21
30.5
 31
0.0
  0
CIRCLE
  8
PCBTurbin
 62
0
 10
4.25
 20
25.0
 30
0.0
 40
1.77
  0
CIRCLE
  8
PCBTurbin
 62
0
 10
0.0
 20
28.5
 30
0.0
 40
1.77
  0
CIRCLE
  8
PCBTurbin
 62
0
 10
0.0
 20
25.0
 30
0.0
 40
1.5
  0
CIRCLE
  8
PCBTurbin
 62
0
 10
0.0
 20
21.5
 30
0.0
 40
1.77
  0
CIRCLE
  8
PCBTurbin
 62
0
 10
-18.0
 20
32.5
 30
0.0
 40
1.0
  0
LINE
  8
PCBTurbin
 62
0
 10
-8.3437
 20
24.2455
 30
0.0
 11
-5.482106
 21
26.734651
 31
0.0
  0
ARC
  8
PCBTurbin
 62
0
 10
-8.99999974334
 20
25.0000002055
 30
0.0
 40
0.999999956589
 50
-120.000018416
 51
-48.9817208335
  0
ARC
  8
PCBTurbin
 62
0
 10
-6.42472042269e-05
 20
24.9999977037
 30
0.0
 40
5.74993946382
 50
161.874129031
 51
162.4413434
  0
ARC
  8
PCBTurbin
 62
0
 10
-9.00000064915
 20
25.0000004947
 30
0.0
 40
0.99999975412
 50
-165.749925388
 51
-119.999965186
  0
ARC
  8
PCBTurbin
 62
0
 10
4.03324009302e-07
 20
25.0000015961
 30
0.0
 40
5.74999969521
 50
141.524156542
 51
161.874366309
  0
LINE
  8
PCBTurbin
 62
0
 10
-10.953846
 20
28.630769
 30
0.0
 11
-9.969231
 21
24.753846
 31
0.0
  0
ARC
  8
PCBTurbin
 62
0
 10
-6.50000033955
 20
28.5000005151
 30
0.0
 40
1.99999989032
 50
2.22255899136
 51
59.9999869535
  0
ARC
  8
PCBTurbin
 62
0
 10
-9.49999954952
 20
29.0000004313
 30
0.0
 40
1.50000045048
 50
-179.999983533
 51
-165.74994558
  0
ARC
  8
PCBTurbin
 62
0
 10
-6.49999964092
 20
28.5000000962
 30
0.0
 40
1.99999990378
 50
60.0000102869
 51
90.0000102869
  0
ARC
  8
PCBTurbin
 62
0
 10
-9.5
 20
29.0
 30
0.0
 40
1.5
 50
90.0
 51
-180.0
  0
LINE
  8
PCBTurbin
 62
0
 10
-6.5
 20
30.5
 30
0.0
 11
-9.5
 21
30.5
 31
0.0
  0
CIRCLE
  8
PCBTurbin
 62
0
 10
-4.25
 20
25.0
 30
0.0
 40
1.77
  0
CIRCLE
  8
PCBTurbin
 62
0
 10
-16.5
 20
12.5
 30
0.0
 40
0.4
  0
CIRCLE
  8
PCBTurbin
 62
0
 10
-16.5
 20
15.04
 30
0.0
 40
0.4
  0
CIRCLE
  8
PCBTurbin
 62
0
 10
18.0
 20
32.5
 30
0.0
 40
1.0
  0
CIRCLE
  8
PCBTurbin
 62
0
 10
-16.5
 20
9.96
 30
0.0
 40
0.4
  0
CIRCLE
  8
PCBTurbin
 62
0
 10
4.25
 20
25.0
 30
0.0
 40
0.8
  0
CIRCLE
  8
PCBTurbin
 62
0
 10
0.0
 20
21.5
 30
0.0
 40
0.8
  0
CIRCLE
  8
PCBTurbin
 62
0
 10
-4.25
 20
25.0
 30
0.0
 40
0.8
  0
CIRCLE
  8
PCBTurbin
 62
0
 10
0.0
 20
28.5
 30
0.0
 40
0.8
  0
LINE
  8
PCBTurbin
 62
0
 10
-2.0
 20
-19.609035
 30
0.0
 11
-2.0
 21
-19.0
 31
0.0
  0
ARC
  8
PCBTurbin
 62
0
 10
2.42108525694e-06
 20
-24.9999998675
 30
0.0
 40
5.75000103364
 50
110.354428309
 51
120.00002191
  0
LINE
  8
PCBTurbin
 62
0
 10
-2.0
 20
-19.0
 30
0.0
 11
2.0
 21
-19.0
 31
0.0
  0
ARC
  8
PCBTurbin
 62
0
 10
2.13242061342e-07
 20
-24.999999837
 30
0.0
 40
5.74999990331
 50
120.00000301
 51
141.979974827
  0
LINE
  8
PCBTurbin
 62
0
 10
2.0
 20
-19.0
 30
0.0
 11
2.0
 21
-19.609035
 31
0.0
  0
ARC
  8
PCBTurbin
 62
0
 10
-3.62866442414
 20
-13.3830621793
 30
0.0
 40
8.12542749188
 50
-136.268557545
 51
-96.36755161
  0
ARC
  8
PCBTurbin
 62
0
 10
-2.4210850138e-06
 20
-24.9999998675
 30
0.0
 40
5.75000103364
 50
59.9999780895
 51
69.6455716913
  0
LINE
  8
PCBTurbin
 62
0
 10
-10.25
 20
-19.0
 30
0.0
 11
-9.5
 21
-19.0
 31
0.0
  0
ARC
  8
PCBTurbin
 62
0
 10
-2.13242053793e-07
 20
-24.999999837
 30
0.0
 40
5.74999990331
 50
38.0200251729
 51
59.9999969902
  0
LINE
  8
PCBTurbin
 62
0
 10
-10.25
 20
-8.0
 30
0.0
 11
-10.25
 21
-19.0
 31
0.0
  0
ARC
  8
PCBTurbin
 62
0
 10
3.62866442414
 20
-13.3830621793
 30
0.0
 40
8.12542749188
 50
-83.63244839
 51
-43.731442455
  0
LINE
  8
PCBTurbin
 62
0
 10
-19.0
 20
-8.0
 30
0.0
 11
-10.25
 21
-8.0
 31
0.0
  0
LINE
  8
PCBTurbin
 62
0
 10
9.5
 20
-19.0
 30
0.0
 11
10.25
 21
-19.0
 31
0.0
  0
LINE
  8
PCBTurbin
 62
0
 10
-19.5
 20
-8.5
 30
0.0
 11
-19.0
 21
-8.0
 31
0.0
  0
LINE
  8
PCBTurbin
 62
0
 10
10.25
 20
-19.0
 30
0.0
 11
10.25
 21
-8.0
 31
0.0
  0
LINE
  8
PCBTurbin
 62
0
 10
-19.5
 20
-9.5
 30
0.0
 11
-19.5
 21
-8.5
 31
0.0
  0
LINE
  8
PCBTurbin
 62
0
 10
10.25
 20
-8.0
 30
0.0
 11
19.0
 21
-8.0
 31
0.0
  0
ARC
  8
PCBTurbin
 62
0
 10
-19.5
 20
-10.25
 30
0.0
 40
0.75
 50
-90.0
 51
90.0
  0
LINE
  8
PCBTurbin
 62
0
 10
19.0
 20
-8.0
 30
0.0
 11
19.5
 21
-8.5
 31
0.0
  0
LINE
  8
PCBTurbin
 62
0
 10
-22.5
 20
-11.0
 30
0.0
 11
-19.5
 21
-11.0
 31
0.0
  0
LINE
  8
PCBTurbin
 62
0
 10
19.5
 20
-8.5
 30
0.0
 11
19.5
 21
-9.5
 31
0.0
  0
LINE
  8
PCBTurbin
 62
0
 10
-22.5
 20
-15.0
 30
0.0
 11
-22.5
 21
-11.0
 31
0.0
  0
ARC
  8
PCBTurbin
 62
0
 10
19.5
 20
-10.25
 30
0.0
 40
0.75
 50
90.0
 51
-90.0
  0
LINE
  8
PCBTurbin
 62
0
 10
-19.5
 20
-15.0
 30
0.0
 11
-22.5
 21
-15.0
 31
0.0
  0
LINE
  8
PCBTurbin
 62
0
 10
19.5
 20
-11.0
 30
0.0
 11
22.5
 21
-11.0
 31
0.0
  0
ARC
  8
PCBTurbin
 62
0
 10
-19.5000000651
 20
-15.7500001163
 30
0.0
 40
0.750000116305
 50
18.9539494793
 51
89.9999950281
  0
LINE
  8
PCBTurbin
 62
0
 10
22.5
 20
-11.0
 30
0.0
 11
22.5
 21
-15.0
 31
0.0
  0
ARC
  8
PCBTurbin
 62
0
 10
0.892513471454
 20
-10.8937064744
 30
0.0
 40
20.216438879
 50
-166.810927425
 51
-139.586537141
  0
LINE
  8
PCBTurbin
 62
0
 10
22.5
 20
-15.0
 30
0.0
 11
19.5
 21
-15.0
 31
0.0
  0
ARC
  8
PCBTurbin
 62
0
 10
-16.6286448445
 20
-26.0
 30
0.0
 40
2.92080962648
 50
-43.2152926925
 51
43.2152926926
  0
ARC
  8
PCBTurbin
 62
0
 10
19.5000000651
 20
-15.7500001163
 30
0.0
 40
0.750000116305
 50
90.000004972
 51
161.046050521
  0
LINE
  8
PCBTurbin
 62
0
 10
-16.5
 20
-30.0
 30
0.0
 11
-14.5
 21
-28.0
 31
0.0
  0
ARC
  8
PCBTurbin
 62
0
 10
-0.892513471454
 20
-10.8937064744
 30
0.0
 40
20.216438879
 50
-40.4134628594
 51
-13.1890725749
  0
LINE
  8
PCBTurbin
 62
0
 10
-18.0
 20
-30.0
 30
0.0
 11
-16.5
 21
-30.0
 31
0.0
  0
ARC
  8
PCBTurbin
 62
0
 10
16.6286448445
 20
-26.0
 30
0.0
 40
2.92080962648
 50
136.784707307
 51
-136.784707307
  0
ARC
  8
PCBTurbin
 62
0
 10
-18.0
 20
-32.5
 30
0.0
 40
2.5
 50
90.0
 51
-180.0
  0
LINE
  8
PCBTurbin
 62
0
 10
14.5
 20
-28.0
 30
0.0
 11
16.5
 21
-30.0
 31
0.0
  0
ARC
  8
PCBTurbin
 62
0
 10
-17.9999999828
 20
-32.4999999828
 30
0.0
 40
2.50000001721
 50
-180.0
 51
-90.0000003943
  0
LINE
  8
PCBTurbin
 62
0
 10
16.5
 20
-30.0
 30
0.0
 11
18.0
 21
-30.0
 31
0.0
  0
LINE
  8
PCBTurbin
 62
0
 10
-16.0
 20
-35.0
 30
0.0
 11
-18.0
 21
-35.0
 31
0.0
  0
ARC
  8
PCBTurbin
 62
0
 10
18.0
 20
-32.5
 30
0.0
 40
2.5
 50
-0.0
 51
90.0
  0
LINE
  8
PCBTurbin
 62
0
 10
-15.0
 20
-34.0
 30
0.0
 11
-16.0
 21
-35.0
 31
0.0
  0
ARC
  8
PCBTurbin
 62
0
 10
17.9999999828
 20
-32.4999999828
 30
0.0
 40
2.50000001721
 50
-89.9999996057
 51
0.0
  0
LINE
  8
PCBTurbin
 62
0
 10
-5.0
 20
-34.0
 30
0.0
 11
-15.0
 21
-34.0
 31
0.0
  0
LINE
  8
PCBTurbin
 62
0
 10
18.0
 20
-35.0
 30
0.0
 11
16.0
 21
-35.0
 31
0.0
  0
ARC
  8
PCBTurbin
 62
0
 10
0.25
 20
-40.0029503847
 30
0.0
 40
7.97482998698
 50
48.8280333317
 51
131.171966668
  0
LINE
  8
PCBTurbin
 62
0
 10
16.0
 20
-35.0
 30
0.0
 11
15.0
 21
-34.0
 31
0.0
  0
LINE
  8
PCBTurbin
 62
0
 10
15.0
 20
-34.0
 30
0.0
 11
5.5
 21
-34.0
 31
0.0
  0
CIRCLE
  8
PCBTurbin
 62
0
 10
0.0
 20
-21.5
 30
0.0
 40
1.77
  0
CIRCLE
  8
PCBTurbin
 62
0
 10
0.0
 20
-25.0
 30
0.0
 40
1.5
  0
CIRCLE
  8
PCBTurbin
 62
0
 10
0.0
 20
-28.5
 30
0.0
 40
1.77
  0
CIRCLE
  8
PCBTurbin
 62
0
 10
-12.54
 20
-32.5
 30
0.0
 40
0.4
  0
CIRCLE
  8
PCBTurbin
 62
0
 10
-10.0
 20
-32.5
 30
0.0
 40
0.4
  0
CIRCLE
  8
PCBTurbin
 62
0
 10
-7.46
 20
-32.5
 30
0.0
 40
0.4
  0
LINE
  8
PCBTurbin
 62
0
 10
-8.3437
 20
-24.2455
 30
0.0
 11
-5.482106
 21
-26.734651
 31
0.0
  0
ARC
  8
PCBTurbin
 62
0
 10
-8.99999974334
 20
-25.0000002055
 30
0.0
 40
0.999999956589
 50
48.9817208335
 51
120.000018416
  0
ARC
  8
PCBTurbin
 62
0
 10
-6.42473630781e-05
 20
-24.9999977038
 30
0.0
 40
5.74993946365
 50
-162.4413434
 51
-161.874129031
  0
ARC
  8
PCBTurbin
 62
0
 10
-9.00000064915
 20
-25.0000004947
 30
0.0
 40
0.99999975412
 50
119.999965186
 51
165.749925388
  0
ARC
  8
PCBTurbin
 62
0
 10
4.03324086129e-07
 20
-25.0000015961
 30
0.0
 40
5.74999969521
 50
-161.874366309
 51
-141.524156542
  0
LINE
  8
PCBTurbin
 62
0
 10
-10.953846
 20
-28.630769
 30
0.0
 11
-9.969231
 21
-24.753846
 31
0.0
  0
ARC
  8
PCBTurbin
 62
0
 10
-6.50000033955
 20
-28.5000005151
 30
0.0
 40
1.99999989032
 50
-59.9999869536
 51
-2.22255899139
  0
ARC
  8
PCBTurbin
 62
0
 10
-9.49999954952
 20
-29.0000004313
 30
0.0
 40
1.50000045048
 50
165.74994558
 51
179.999983533
  0
ARC
  8
PCBTurbin
 62
0
 10
-6.49999964092
 20
-28.5000000962
 30
0.0
 40
1.99999990378
 50
-90.0000102869
 51
-60.0000102869
  0
ARC
  8
PCBTurbin
 62
0
 10
-9.5
 20
-29.0
 30
0.0
 40
1.5
 50
-180.0
 51
-90.0
  0
LINE
  8
PCBTurbin
 62
0
 10
-6.5
 20
-30.5
 30
0.0
 11
-9.5
 21
-30.5
 31
0.0
  0
CIRCLE
  8
PCBTurbin
 62
0
 10
-4.25
 20
-25.0
 30
0.0
 40
1.77
  0
CIRCLE
  8
PCBTurbin
 62
0
 10
18.0
 20
-32.5
 30
0.0
 40
1.0
  0
LINE
  8
PCBTurbin
 62
0
 10
8.3437
 20
-24.2455
 30
0.0
 11
5.482106
 21
-26.734651
 31
0.0
  0
ARC
  8
PCBTurbin
 62
0
 10
8.99999974334
 20
-25.0000002055
 30
0.0
 40
0.999999956589
 50
59.9999815837
 51
131.018279167
  0
ARC
  8
PCBTurbin
 62
0
 10
6.42471873857e-05
 20
-24.9999977037
 30
0.0
 40
5.74993946384
 50
-18.1258709687
 51
-17.5586566003
  0
ARC
  8
PCBTurbin
 62
0
 10
9.00000064915
 20
-25.0000004947
 30
0.0
 40
0.99999975412
 50
14.2500746117
 51
60.000034814
  0
ARC
  8
PCBTurbin
 62
0
 10
-4.03323978215e-07
 20
-25.0000015961
 30
0.0
 40
5.74999969521
 50
-38.4758434583
 51
-18.1256336912
  0
LINE
  8
PCBTurbin
 62
0
 10
10.953846
 20
-28.630769
 30
0.0
 11
9.969231
 21
-24.753846
 31
0.0
  0
ARC
  8
PCBTurbin
 62
0
 10
6.50000033955
 20
-28.5000005151
 30
0.0
 40
1.99999989032
 50
-177.777441009
 51
-120.000013046
  0
ARC
  8
PCBTurbin
 62
0
 10
9.49999954952
 20
-29.0000004313
 30
0.0
 40
1.50000045048
 50
1.64669897468e-05
 51
14.2500544202
  0
ARC
  8
PCBTurbin
 62
0
 10
6.49999964092
 20
-28.5000000962
 30
0.0
 40
1.99999990378
 50
-119.999989713
 51
-89.9999897131
  0
ARC
  8
PCBTurbin
 62
0
 10
9.5
 20
-29.0
 30
0.0
 40
1.5
 50
-90.0
 51
0.0
  0
LINE
  8
PCBTurbin
 62
0
 10
6.5
 20
-30.5
 30
0.0
 11
9.5
 21
-30.5
 31
0.0
  0
CIRCLE
  8
PCBTurbin
 62
0
 10
4.25
 20
-25.0
 30
0.0
 40
1.77
  0
CIRCLE
  8
PCBTurbin
 62
0
 10
-18.0
 20
-32.5
 30
0.0
 40
1.0
  0
CIRCLE
  8
PCBTurbin
 62
0
 10
0.0
 20
-28.5
 30
0.0
 40
1.77
  0
CIRCLE
  8
PCBTurbin
 62
0
 10
-4.25
 20
-25.0
 30
0.0
 40
0.8
  0
CIRCLE
  8
PCBTurbin
 62
0
 10
4.25
 20
-25.0
 30
0.0
 40
0.8
  0
CIRCLE
  8
PCBTurbin
 62
0
 10
0.0
 20
-21.5
 30
0.0
 40
0.8
  0
CIRCLE
  8
PCBTurbin
 62
0
 10
0.0
 20
-28.5
 30
0.0
 40
0.8
  0
LINE
  8
PCBTurbin
 62
0
 10
0.8
 20
-28.5
 30
0.0
 11
1.77
 21
-28.5
 31
0.0
  0
LINE
  8
PCBTurbin
 62
0
 10
-3.45
 20
-25.0
 30
0.0
 11
-2.48
 21
-25.0
 31
0.0
  0
LINE
  8
PCBTurbin
 62
0
 10
5.05
 20
25.0
 30
0.0
 11
6.02
 21
25.0
 31
0.0
  0
LINE
  8
PCBTurbin
 62
0
 10
0.8
 20
28.5
 30
0.0
 11
1.77
 21
28.5
 31
0.0
  0
LINE
  8
PCBTurbin
 62
0
 10
0.8
 20
21.5
 30
0.0
 11
1.77
 21
21.5
 31
0.0
  0
LINE
  8
PCBTurbin
 62
0
 10
-3.45
 20
25.0
 30
0.0
 11
-2.48
 21
25.0
 31
0.0
  0
LINE
  8
PCBTurbin
 62
0
 10
0.8
 20
-21.5
 30
0.0
 11
1.77
 21
-21.5
 31
0.0
  0
LINE
  8
PCBTurbin
 62
0
 10
5.05
 20
-25.0
 30
0.0
 11
6.02
 21
-25.0
 31
0.0
  0
ENDBLK
  0
ENDSEC
  0
SECTION
  2
ENTITIES
  0
INSERT
  2
CUT009
  8
PCBTurbin
 62
0
 10
0.0
 20
0.0
 30
0.0
  0
ENDSEC
  0
EOF
