  0
SECTION
  2
HEADER
  9
$ACADVER
  1
AC1009
  9
$EXTMAX
 10
22.5
 20
35.0
 30
0.0
  9
$EXTMIN
 10
-22.5
 20
8.0
 30
0.0
  9
$INSUNITS
 70
     4
  9
$LUNITS
 70
     2
  9
$LUPREC
 70
     4
  9
$MEASUREMENT
 70
     1
  0
ENDSEC
  0
SECTION
  2
TABLES
  0
TABLE
  2
LAYER
 70
     1
  0
LAYER
  2
0
 70
     0
 62
     7
  6
Continuous
  0
LAYER
  2
SupportsTurbines
 70
     0
 62
    70
  6
Continuous
  0
ENDTAB
  0
TABLE
  2
APPID
 70
     1
  0
APPID
  2
ACAD
 70
     0
  0
ENDTAB
  0
ENDSEC
  0
SECTION
  2
ENTITIES
  0
CIRCLE
  8
SupportsTurbines
 10
0.0
 20
20.75
 30
0.0
 40
0.8
  0
CIRCLE
  8
SupportsTurbines
 10
18.0
 20
32.5
 30
0.0
 40
1.0
  0
CIRCLE
  8
SupportsTurbines
 10
0.0
 20
29.25
 30
0.0
 40
0.8
  0
CIRCLE
  8
SupportsTurbines
 10
3.5
 20
25.0
 30
0.0
 40
0.8
  0
CIRCLE
  8
SupportsTurbines
 10
0.0
 20
25.0
 30
0.0
 40
2.0
  0
CIRCLE
  8
SupportsTurbines
 10
-3.5
 20
25.0
 30
0.0
 40
0.8
  0
CIRCLE
  8
SupportsTurbines
 10
-18.0
 20
32.5
 30
0.0
 40
1.0
  0
CIRCLE
  8
SupportsTurbines
 10
8.0
 20
33.0
 30
0.0
 40
0.4
  0
CIRCLE
  8
SupportsTurbines
 10
10.54
 20
33.0
 30
0.0
 40
0.4
  0
CIRCLE
  8
SupportsTurbines
 10
13.08
 20
33.0
 30
0.0
 40
0.4
  0
POLYLINE
  8
SupportsTurbines
 66
     1
 10
0.0
 20
0.0
 30
0.0
 70
     1
  0
VERTEX
  8
SupportsTurbines
 10
14.5
 20
28.0
 42
0.0
  0
VERTEX
  8
SupportsTurbines
 10
19.0
 20
15.0
 42
0.0
  0
VERTEX
  8
SupportsTurbines
 10
19.5
 20
15.0
 42
0.0
  0
VERTEX
  8
SupportsTurbines
 10
22.5
 20
15.0
 42
0.0
  0
VERTEX
  8
SupportsTurbines
 10
22.5
 20
11.0
 42
0.0
  0
VERTEX
  8
SupportsTurbines
 10
21.0
 20
11.0
 42
1.0
  0
VERTEX
  8
SupportsTurbines
 10
19.5
 20
11.0
 42
0.0
  0
VERTEX
  8
SupportsTurbines
 10
19.5
 20
10.5
 42
0.0
  0
VERTEX
  8
SupportsTurbines
 10
18.5
 20
10.5
 42
0.0
  0
VERTEX
  8
SupportsTurbines
 10
11.0
 20
8.0
 42
0.0
  0
VERTEX
  8
SupportsTurbines
 10
10.25
 20
8.0
 42
0.0
  0
VERTEX
  8
SupportsTurbines
 10
10.25
 20
19.0
 42
0.0
  0
VERTEX
  8
SupportsTurbines
 10
-10.25
 20
19.0
 42
0.0
  0
VERTEX
  8
SupportsTurbines
 10
-10.25
 20
8.0
 42
0.0
  0
VERTEX
  8
SupportsTurbines
 10
-11.0
 20
8.0
 42
0.0
  0
VERTEX
  8
SupportsTurbines
 10
-18.5
 20
10.5
 42
0.0
  0
VERTEX
  8
SupportsTurbines
 10
-19.5
 20
10.5
 42
0.0
  0
VERTEX
  8
SupportsTurbines
 10
-19.5
 20
11.0
 42
1.0
  0
VERTEX
  8
SupportsTurbines
 10
-21.0
 20
11.0
 42
0.0
  0
VERTEX
  8
SupportsTurbines
 10
-22.5
 20
11.0
 42
0.0
  0
VERTEX
  8
SupportsTurbines
 10
-22.5
 20
15.0
 42
0.0
  0
VERTEX
  8
SupportsTurbines
 10
-19.5
 20
15.0
 42
0.0
  0
VERTEX
  8
SupportsTurbines
 10
-19.0
 20
15.0
 42
0.0
  0
VERTEX
  8
SupportsTurbines
 10
-14.5
 20
28.0
 42
0.0
  0
VERTEX
  8
SupportsTurbines
 10
-16.5
 20
30.0
 42
0.0
  0
VERTEX
  8
SupportsTurbines
 10
-18.0
 20
30.0
 42
-0.4142135623731
  0
VERTEX
  8
SupportsTurbines
 10
-20.5
 20
32.5
 42
-0.4142135543097
  0
VERTEX
  8
SupportsTurbines
 10
-18.0000000688255
 20
35.0
 42
0.0
  0
VERTEX
  8
SupportsTurbines
 10
-16.0
 20
35.0
 42
0.0
  0
VERTEX
  8
SupportsTurbines
 10
-15.0
 20
34.0
 42
0.0
  0
VERTEX
  8
SupportsTurbines
 10
15.0
 20
34.0
 42
0.0
  0
VERTEX
  8
SupportsTurbines
 10
16.0
 20
35.0
 42
0.0
  0
VERTEX
  8
SupportsTurbines
 10
18.0000000688255
 20
35.0
 42
-0.4142135543097
  0
VERTEX
  8
SupportsTurbines
 10
20.5
 20
32.5
 42
-0.4142135623731
  0
VERTEX
  8
SupportsTurbines
 10
18.0
 20
30.0
 42
0.0
  0
VERTEX
  8
SupportsTurbines
 10
16.5
 20
30.0
 42
0.0
  0
SEQEND
  0
ENDSEC
  0
EOF
