  0
SECTION
  2
HEADER
  9
$ACADVER
  1
AC1009
  9
$INSBASE
 10
0.0
 20
0.0
 30
0.0
  9
$EXTMIN
 10
0.0
 20
0.0
 30
0.0
  9
$EXTMAX
 10
0.0
 20
0.0
 30
0.0
  0
ENDSEC
  0
SECTION
  2
TABLES
  0
TABLE
  2
VPORT
 70
0
  0
ENDTAB
  0
TABLE
  2
LTYPE
 70
1
  0
LTYPE
  2
CONTINUOUS
 70
0
  3
Solid line
 72
65
 73
0
 40
0.0
  0
ENDTAB
  0
TABLE
  2
LAYER
 70
1
  0
LAYER
  2
0
 70
64
 62
7
  6
continuous
  0
ENDTAB
  0
TABLE
  2
STYLE
 70
1
  0
STYLE
  2
STANDARD
 70
0
 40
0
 41
1.0
 50
0.0
 71
0
 42
1
 3
ARIAL.TTF
 4

  0
ENDTAB
  0
TABLE
  2
VIEW
 70
0
  0
ENDTAB
  0
ENDSEC
  0
SECTION
  2
BLOCKS
  0
BLOCK
  8
Base
  2
PAD035
 70
0
 10
0.0
 20
0.0
 30
0.0
  3
PAD035
  0
LINE
  8
Base
 62
0
 10
-23.0
 20
20.0
 30
0.0
 11
-23.0
 21
-20.0
 31
0.0
  0
ARC
  8
Base
 62
0
 10
-27.0000003968
 20
-19.9999998308
 30
0.0
 40
4.00000039682
 50
-71.0753560258
 51
-2.41483653945e-06
  0
ARC
  8
Base
 62
0
 10
-24.6000002616
 20
-26.9999999274
 30
0.0
 40
3.39999973842
 50
108.924646564
 51
-179.999998793
  0
LINE
  8
Base
 62
0
 10
-28.0
 20
-27.0
 30
0.0
 11
-28.0
 21
-28.000002
 31
0.0
  0
ARC
  8
Base
 62
0
 10
-20.0000002521
 20
-28.0000011327
 30
0.0
 40
7.99999974795
 50
-179.999993784
 51
-117.02912461
  0
LINE
  8
Base
 62
0
 10
-23.635547
 20
-35.126206
 30
0.0
 11
-9.272202
 21
-42.453887
 31
0.0
  0
ARC
  8
Base
 62
0
 10
-6.99999956101
 20
-37.9999877933
 30
0.0
 40
5.00001220672
 50
-117.028868647
 51
-90.0000050304
  0
LINE
  8
Base
 62
0
 10
-7.0
 20
-43.0
 30
0.0
 11
6.999975
 21
-43.0
 31
0.0
  0
ARC
  8
Base
 62
0
 10
6.99996958059
 20
-37.9999782274
 30
0.0
 40
5.00002177264
 50
-89.9999378984
 51
-62.9709559718
  0
LINE
  8
Base
 62
0
 10
9.27219
 20
-42.453879
 30
0.0
 11
23.63554
 21
-35.126208
 31
0.0
  0
ARC
  8
Base
 62
0
 10
19.9999999087
 20
-27.9999993513
 30
0.0
 40
8.00000009129
 50
-62.9709301646
 51
-4.67631085055e-06
  0
LINE
  8
Base
 62
0
 10
28.0
 20
-28.0
 30
0.0
 11
28.0
 21
-26.999999
 31
0.0
  0
ARC
  8
Base
 62
0
 10
24.5999998767
 20
-26.9999992024
 30
0.0
 40
3.40000012329
 50
3.41509458501e-06
 51
71.0753488036
  0
ARC
  8
Base
 62
0
 10
27.0000000517
 20
-19.9999990773
 30
0.0
 40
4.00000005175
 50
-179.999986773
 51
-108.924640444
  0
LINE
  8
Base
 62
0
 10
23.0
 20
-20.0
 30
0.0
 11
23.0
 21
20.0
 31
0.0
  0
ARC
  8
Base
 62
0
 10
26.0000000866
 20
19.9999999134
 30
0.0
 40
3.00000008656
 50
89.9999825546
 51
179.999998292
  0
ARC
  8
Base
 62
0
 10
26.0000026213
 20
31.8284177797
 30
0.0
 40
8.82841777973
 50
-90.0000105224
 51
-45.0000064296
  0
LINE
  8
Base
 62
0
 10
32.242636
 20
25.585783
 30
0.0
 11
33.828426
 21
27.171572
 31
0.0
  0
ARC
  8
Base
 62
0
 10
30.9999996036
 20
30.0000004137
 30
0.0
 40
4.00000039644
 50
-45.000020432
 51
-5.91511733388e-06
  0
LINE
  8
Base
 62
0
 10
35.0
 20
30.0
 30
0.0
 11
35.0
 21
31.5
 31
0.0
  0
ARC
  8
Base
 62
0
 10
31.0355337005
 20
31.4999992912
 30
0.0
 40
3.9644662995
 50
1.0245283755e-05
 51
44.9999939637
  0
LINE
  8
Base
 62
0
 10
33.838835
 20
34.3033
 30
0.0
 11
17.07107
 21
51.071067
 31
0.0
  0
ARC
  8
Base
 62
0
 10
9.99999984156
 20
43.9999962949
 30
0.0
 40
10.0000037051
 50
45.0000022148
 51
89.9999990922
  0
LINE
  8
Base
 62
0
 10
10.0
 20
54.0
 30
0.0
 11
-10.0
 21
54.0
 31
0.0
  0
ARC
  8
Base
 62
0
 10
-10.0000004266
 20
44.0000001216
 30
0.0
 40
9.99999987838
 50
89.9999975555
 51
134.999998764
  0
LINE
  8
Base
 62
0
 10
-17.071068
 20
51.071068
 30
0.0
 11
-33.838835
 21
34.3033
 31
0.0
  0
ARC
  8
Base
 62
0
 10
-31.03553348
 20
31.4999991998
 30
0.0
 40
3.96446652005
 50
135.000007357
 51
179.999988419
  0
LINE
  8
Base
 62
0
 10
-35.0
 20
31.5
 30
0.0
 11
-35.0
 21
30.0
 31
0.0
  0
ARC
  8
Base
 62
0
 10
-31.0000003004
 20
30.0000011251
 30
0.0
 40
3.9999996996
 50
-179.999983868
 51
-134.999995691
  0
LINE
  8
Base
 62
0
 10
-33.828427
 20
27.171574
 30
0.0
 11
-32.242638
 21
25.585784
 31
0.0
  0
ARC
  8
Base
 62
0
 10
-26.0000030664
 20
31.8284191195
 30
0.0
 40
8.82841911952
 50
-134.999999147
 51
-89.9999800994
  0
ARC
  8
Base
 62
0
 10
-25.9999999484
 20
20.0000000516
 30
0.0
 40
2.99999994842
 50
-0.0
 51
90.0000009851
  0
ARC
  8
Base
 62
0
 10
1.87090628231e-07
 20
-24.9999998956
 30
0.0
 40
10.7499999246
 50
0.126284774602
 51
120.000001383
  0
ARC
  8
Base
 62
0
 10
3.92850003639e-08
 20
-25.0000000226
 30
0.0
 40
10.7499999607
 50
120.000000363
 51
0.0
  0
ARC
  8
Base
 62
0
 10
-0.000164996009222
 20
-24.9999494021
 30
0.0
 40
10.7501649961
 50
-0.000269674917638
 51
0.126013716773
  0
ARC
  8
Base
 62
0
 10
5.22566952995e-08
 20
24.9999998703
 30
0.0
 40
10.75000006
 50
0.126286020916
 51
120.000000137
  0
ARC
  8
Base
 62
0
 10
3.92850030284e-08
 20
24.9999999774
 30
0.0
 40
10.7499999607
 50
120.000000363
 51
0.0
  0
ARC
  8
Base
 62
0
 10
4.71824792356e-05
 20
25.0000508307
 30
0.0
 40
10.7499528176
 50
-0.000270920822391
 51
0.126014963041
  0
ARC
  8
Base
 62
0
 10
-6.50000025947
 20
47.5000002271
 30
0.0
 40
4.04999977291
 50
89.9999963293
 51
119.999997616
  0
ARC
  8
Base
 62
0
 10
-6.50000070711
 20
47.5000007106
 30
0.0
 40
4.0499991304
 50
119.999995552
 51
138.097927816
  0
LINE
  8
Base
 62
0
 10
-13.732862
 20
45.503578
 30
0.0
 11
-9.514364
 21
50.204831
 31
0.0
  0
ARC
  8
Base
 62
0
 10
-11.4999998876
 20
43.499999867
 30
0.0
 40
2.99999975798
 50
138.097931094
 51
-120.000005147
  0
ARC
  8
Base
 62
0
 10
-11.4999996337
 20
43.5000000008
 30
0.0
 40
3.00000000082
 50
-120.000008069
 51
-90.0000069957
  0
LINE
  8
Base
 62
0
 10
-9.052762
 20
40.5
 30
0.0
 11
-11.5
 21
40.5
 31
0.0
  0
ARC
  8
Base
 62
0
 10
4.17321759372e-07
 20
25.0000018911
 30
0.0
 40
17.9499985727
 50
120.000004168
 51
120.287032884
  0
ARC
  8
Base
 62
0
 10
-6.51388276651e-09
 20
25.0000000092
 30
0.0
 40
17.9499999906
 50
59.7129712774
 51
119.999999993
  0
LINE
  8
Base
 62
0
 10
11.5
 20
40.5
 30
0.0
 11
9.052762
 21
40.5
 31
0.0
  0
ARC
  8
Base
 62
0
 10
11.4999996337
 20
43.5000000008
 30
0.0
 40
3.00000000082
 50
-89.9999930043
 51
-59.9999919311
  0
ARC
  8
Base
 62
0
 10
11.4999998876
 20
43.499999867
 30
0.0
 40
2.99999975798
 50
-59.999994853
 51
41.9020689056
  0
LINE
  8
Base
 62
0
 10
9.514364
 20
50.20483
 30
0.0
 11
13.732862
 21
45.503578
 31
0.0
  0
ARC
  8
Base
 62
0
 10
6.49999756761
 20
47.5000002106
 30
0.0
 40
4.05000113316
 50
41.9020372563
 51
59.9999695207
  0
ARC
  8
Base
 62
0
 10
6.50000025947
 20
47.5000002271
 30
0.0
 40
4.04999977291
 50
60.0000023838
 51
90.0000036707
  0
LINE
  8
Base
 62
0
 10
0.0
 20
51.55
 30
0.0
 11
6.5
 21
51.55
 31
0.0
  0
LINE
  8
Base
 62
0
 10
-6.5
 20
51.55
 30
0.0
 11
0.0
 21
51.55
 31
0.0
  0
LINE
  8
Base
 62
0
 10
-4.4
 20
2.7
 30
0.0
 11
-2.4
 21
2.7
 31
0.0
  0
LINE
  8
Base
 62
0
 10
-2.4
 20
2.7
 30
0.0
 11
-2.4
 21
-2.7
 31
0.0
  0
LINE
  8
Base
 62
0
 10
-2.4
 20
-2.7
 30
0.0
 11
-4.4
 21
-2.7
 31
0.0
  0
LINE
  8
Base
 62
0
 10
-4.4
 20
-2.7
 30
0.0
 11
-4.9
 21
-4.0
 31
0.0
  0
LINE
  8
Base
 62
0
 10
-4.9
 20
-4.0
 30
0.0
 11
-19.4
 21
-4.0
 31
0.0
  0
LINE
  8
Base
 62
0
 10
-19.4
 20
-4.0
 30
0.0
 11
-19.4
 21
4.0
 31
0.0
  0
LINE
  8
Base
 62
0
 10
-19.4
 20
4.0
 30
0.0
 11
-4.9
 21
4.0
 31
0.0
  0
LINE
  8
Base
 62
0
 10
-4.9
 20
4.0
 30
0.0
 11
-4.4
 21
2.7
 31
0.0
  0
LINE
  8
Base
 62
0
 10
4.4
 20
2.7
 30
0.0
 11
4.9
 21
4.0
 31
0.0
  0
LINE
  8
Base
 62
0
 10
4.9
 20
4.0
 30
0.0
 11
19.4
 21
4.0
 31
0.0
  0
LINE
  8
Base
 62
0
 10
19.4
 20
4.0
 30
0.0
 11
19.4
 21
-4.0
 31
0.0
  0
LINE
  8
Base
 62
0
 10
19.4
 20
-4.0
 30
0.0
 11
4.9
 21
-4.0
 31
0.0
  0
LINE
  8
Base
 62
0
 10
4.9
 20
-4.0
 30
0.0
 11
4.4
 21
-2.7
 31
0.0
  0
LINE
  8
Base
 62
0
 10
4.4
 20
-2.7
 30
0.0
 11
2.4
 21
-2.7
 31
0.0
  0
LINE
  8
Base
 62
0
 10
2.4
 20
-2.7
 30
0.0
 11
2.4
 21
2.7
 31
0.0
  0
LINE
  8
Base
 62
0
 10
2.4
 20
2.7
 30
0.0
 11
4.4
 21
2.7
 31
0.0
  0
ARC
  8
Base
 62
0
 10
19.855
 20
6.855
 30
0.0
 40
0.502045814642
 50
135.0
 51
-45.0
  0
LINE
  8
Base
 62
0
 10
20.21
 20
6.5
 30
0.0
 11
20.29
 21
6.5
 31
0.0
  0
ARC
  8
Base
 62
0
 10
20.645
 20
6.855
 30
0.0
 40
0.502045814642
 50
-135.0
 51
45.0
  0
LINE
  8
Base
 62
0
 10
21.0
 20
7.21
 30
0.0
 11
21.0
 21
8.79
 31
0.0
  0
ARC
  8
Base
 62
0
 10
20.645
 20
9.145
 30
0.0
 40
0.502045814642
 50
-45.0
 51
135.0
  0
LINE
  8
Base
 62
0
 10
20.29
 20
9.5
 30
0.0
 11
20.21
 21
9.5
 31
0.0
  0
ARC
  8
Base
 62
0
 10
19.855
 20
9.145
 30
0.0
 40
0.502045814642
 50
45.0
 51
-135.0
  0
LINE
  8
Base
 62
0
 10
19.5
 20
8.79
 30
0.0
 11
19.5
 21
7.21
 31
0.0
  0
ARC
  8
Base
 62
0
 10
19.855
 20
-6.855
 30
0.0
 40
0.502045814642
 50
45.0
 51
-135.0
  0
LINE
  8
Base
 62
0
 10
19.5
 20
-8.79
 30
0.0
 11
19.5
 21
-7.21
 31
0.0
  0
ARC
  8
Base
 62
0
 10
19.855
 20
-9.145
 30
0.0
 40
0.502045814642
 50
135.0
 51
-45.0
  0
LINE
  8
Base
 62
0
 10
20.29
 20
-9.5
 30
0.0
 11
20.21
 21
-9.5
 31
0.0
  0
ARC
  8
Base
 62
0
 10
20.645
 20
-9.145
 30
0.0
 40
0.502045814642
 50
-135.0
 51
45.0
  0
LINE
  8
Base
 62
0
 10
21.0
 20
-7.21
 30
0.0
 11
21.0
 21
-8.79
 31
0.0
  0
ARC
  8
Base
 62
0
 10
20.645
 20
-6.855
 30
0.0
 40
0.502045814642
 50
-45.0
 51
135.0
  0
LINE
  8
Base
 62
0
 10
20.21
 20
-6.5
 30
0.0
 11
20.29
 21
-6.5
 31
0.0
  0
ARC
  8
Base
 62
0
 10
-19.855
 20
6.855
 30
0.0
 40
0.502045814642
 50
-135.0
 51
45.0
  0
LINE
  8
Base
 62
0
 10
-19.5
 20
8.79
 30
0.0
 11
-19.5
 21
7.21
 31
0.0
  0
ARC
  8
Base
 62
0
 10
-19.855
 20
9.145
 30
0.0
 40
0.502045814642
 50
-45.0
 51
135.0
  0
LINE
  8
Base
 62
0
 10
-20.29
 20
9.5
 30
0.0
 11
-20.21
 21
9.5
 31
0.0
  0
ARC
  8
Base
 62
0
 10
-20.645
 20
9.145
 30
0.0
 40
0.502045814642
 50
45.0
 51
-135.0
  0
LINE
  8
Base
 62
0
 10
-21.0
 20
7.21
 30
0.0
 11
-21.0
 21
8.79
 31
0.0
  0
ARC
  8
Base
 62
0
 10
-20.645
 20
6.855
 30
0.0
 40
0.502045814642
 50
135.0
 51
-45.0
  0
LINE
  8
Base
 62
0
 10
-20.21
 20
6.5
 30
0.0
 11
-20.29
 21
6.5
 31
0.0
  0
ARC
  8
Base
 62
0
 10
19.855
 20
-30.855
 30
0.0
 40
0.502045814642
 50
45.0
 51
-135.0
  0
LINE
  8
Base
 62
0
 10
19.5
 20
-32.79
 30
0.0
 11
19.5
 21
-31.21
 31
0.0
  0
ARC
  8
Base
 62
0
 10
19.855
 20
-33.145
 30
0.0
 40
0.502045814642
 50
135.0
 51
-45.0
  0
LINE
  8
Base
 62
0
 10
20.29
 20
-33.5
 30
0.0
 11
20.21
 21
-33.5
 31
0.0
  0
ARC
  8
Base
 62
0
 10
20.645
 20
-33.145
 30
0.0
 40
0.502045814642
 50
-135.0
 51
45.0
  0
LINE
  8
Base
 62
0
 10
21.0
 20
-31.21
 30
0.0
 11
21.0
 21
-32.79
 31
0.0
  0
ARC
  8
Base
 62
0
 10
20.645
 20
-30.855
 30
0.0
 40
0.502045814642
 50
-45.0
 51
135.0
  0
LINE
  8
Base
 62
0
 10
20.21
 20
-30.5
 30
0.0
 11
20.29
 21
-30.5
 31
0.0
  0
ARC
  8
Base
 62
0
 10
19.855
 20
40.645
 30
0.0
 40
0.502045814642
 50
45.0
 51
-135.0
  0
LINE
  8
Base
 62
0
 10
19.5
 20
38.71
 30
0.0
 11
19.5
 21
40.29
 31
0.0
  0
ARC
  8
Base
 62
0
 10
19.855
 20
38.355
 30
0.0
 40
0.502045814642
 50
135.0
 51
-45.0
  0
LINE
  8
Base
 62
0
 10
20.29
 20
38.0
 30
0.0
 11
20.21
 21
38.0
 31
0.0
  0
ARC
  8
Base
 62
0
 10
20.645
 20
38.355
 30
0.0
 40
0.502045814642
 50
-135.0
 51
45.0
  0
LINE
  8
Base
 62
0
 10
21.0
 20
40.29
 30
0.0
 11
21.0
 21
38.71
 31
0.0
  0
ARC
  8
Base
 62
0
 10
20.645
 20
40.645
 30
0.0
 40
0.502045814642
 50
-45.0
 51
135.0
  0
LINE
  8
Base
 62
0
 10
20.21
 20
41.0
 30
0.0
 11
20.29
 21
41.0
 31
0.0
  0
ARC
  8
Base
 62
0
 10
-19.855
 20
-30.855
 30
0.0
 40
0.502045814642
 50
-45.0
 51
135.0
  0
LINE
  8
Base
 62
0
 10
-20.21
 20
-30.5
 30
0.0
 11
-20.29
 21
-30.5
 31
0.0
  0
ARC
  8
Base
 62
0
 10
-20.645
 20
-30.855
 30
0.0
 40
0.502045814642
 50
45.0
 51
-135.0
  0
LINE
  8
Base
 62
0
 10
-21.0
 20
-31.21
 30
0.0
 11
-21.0
 21
-32.79
 31
0.0
  0
ARC
  8
Base
 62
0
 10
-20.645
 20
-33.145
 30
0.0
 40
0.502045814642
 50
135.0
 51
-45.0
  0
LINE
  8
Base
 62
0
 10
-20.29
 20
-33.5
 30
0.0
 11
-20.21
 21
-33.5
 31
0.0
  0
ARC
  8
Base
 62
0
 10
-19.855
 20
-33.145
 30
0.0
 40
0.502045814642
 50
-135.0
 51
45.0
  0
LINE
  8
Base
 62
0
 10
-19.5
 20
-32.79
 30
0.0
 11
-19.5
 21
-31.21
 31
0.0
  0
ARC
  8
Base
 62
0
 10
-19.855
 20
-6.855
 30
0.0
 40
0.502045814642
 50
-45.0
 51
135.0
  0
LINE
  8
Base
 62
0
 10
-20.21
 20
-6.5
 30
0.0
 11
-20.29
 21
-6.5
 31
0.0
  0
ARC
  8
Base
 62
0
 10
-20.645
 20
-6.855
 30
0.0
 40
0.502045814642
 50
45.0
 51
-135.0
  0
LINE
  8
Base
 62
0
 10
-21.0
 20
-7.21
 30
0.0
 11
-21.0
 21
-8.79
 31
0.0
  0
ARC
  8
Base
 62
0
 10
-20.645
 20
-9.145
 30
0.0
 40
0.502045814642
 50
135.0
 51
-45.0
  0
LINE
  8
Base
 62
0
 10
-20.29
 20
-9.5
 30
0.0
 11
-20.21
 21
-9.5
 31
0.0
  0
ARC
  8
Base
 62
0
 10
-19.855
 20
-9.145
 30
0.0
 40
0.502045814642
 50
-135.0
 51
45.0
  0
LINE
  8
Base
 62
0
 10
-19.5
 20
-8.79
 30
0.0
 11
-19.5
 21
-7.21
 31
0.0
  0
ARC
  8
Base
 62
0
 10
-19.855
 20
40.645
 30
0.0
 40
0.502045814642
 50
-45.0
 51
135.0
  0
LINE
  8
Base
 62
0
 10
-20.21
 20
41.0
 30
0.0
 11
-20.29
 21
41.0
 31
0.0
  0
ARC
  8
Base
 62
0
 10
-20.645
 20
40.645
 30
0.0
 40
0.502045814642
 50
45.0
 51
-135.0
  0
LINE
  8
Base
 62
0
 10
-21.0
 20
40.29
 30
0.0
 11
-21.0
 21
38.71
 31
0.0
  0
ARC
  8
Base
 62
0
 10
-20.645
 20
38.355
 30
0.0
 40
0.502045814642
 50
135.0
 51
-45.0
  0
LINE
  8
Base
 62
0
 10
-20.29
 20
38.0
 30
0.0
 11
-20.21
 21
38.0
 31
0.0
  0
ARC
  8
Base
 62
0
 10
-19.855
 20
38.355
 30
0.0
 40
0.502045814642
 50
-135.0
 51
45.0
  0
LINE
  8
Base
 62
0
 10
-19.5
 20
38.71
 30
0.0
 11
-19.5
 21
40.29
 31
0.0
  0
LINE
  8
Base
 62
0
 10
29.46987
 20
29.425093
 30
0.0
 11
29.365342
 21
28.430572
 31
0.0
  0
LINE
  8
Base
 62
0
 10
29.365342
 20
28.430572
 30
0.0
 11
31.354386
 21
28.221515
 31
0.0
  0
LINE
  8
Base
 62
0
 10
31.354386
 20
28.221515
 30
0.0
 11
31.458914
 21
29.216037
 31
0.0
  0
LINE
  8
Base
 62
0
 10
31.458914
 20
29.216037
 30
0.0
 11
29.46987
 21
29.425093
 31
0.0
  0
LINE
  8
Base
 62
0
 10
-29.46987
 20
29.425093
 30
0.0
 11
-29.365342
 21
28.430572
 31
0.0
  0
LINE
  8
Base
 62
0
 10
-29.365342
 20
28.430572
 30
0.0
 11
-31.354386
 21
28.221515
 31
0.0
  0
LINE
  8
Base
 62
0
 10
-31.354386
 20
28.221515
 30
0.0
 11
-31.458914
 21
29.216037
 31
0.0
  0
LINE
  8
Base
 62
0
 10
-31.458914
 20
29.216037
 30
0.0
 11
-29.46987
 21
29.425093
 31
0.0
  0
ENDBLK
  0
BLOCK
  8
SupportsMoteurs
  2
CLONE132
 70
0
 10
0.0
 20
0.0
 30
0.0
  3
CLONE132
  0
POLYLINE
  8
SupportsMoteurs
 62
0
 70
0
 66
1
 10
0.0
 20
0.0
 30
0.0
  0
VERTEX
  8
SupportsMoteurs
 10
19.5
 20
33.5
 30
0.0
  0
VERTEX
  8
SupportsMoteurs
 10
19.5
 20
33.55
 30
0.0
  0
VERTEX
  8
SupportsMoteurs
 10
19.5
 20
33.6
 30
0.0
  0
VERTEX
  8
SupportsMoteurs
 10
19.5
 20
33.65
 30
0.0
  0
VERTEX
  8
SupportsMoteurs
 10
19.5
 20
33.7
 30
0.0
  0
VERTEX
  8
SupportsMoteurs
 10
19.5
 20
33.75
 30
0.0
  0
VERTEX
  8
SupportsMoteurs
 10
19.5
 20
33.8
 30
0.0
  0
VERTEX
  8
SupportsMoteurs
 10
19.5
 20
33.85
 30
0.0
  0
VERTEX
  8
SupportsMoteurs
 10
19.5
 20
33.9
 30
0.0
  0
VERTEX
  8
SupportsMoteurs
 10
19.5
 20
33.95
 30
0.0
  0
VERTEX
  8
SupportsMoteurs
 10
19.5
 20
34.0
 30
0.0
  0
VERTEX
  8
SupportsMoteurs
 10
19.5
 20
34.05
 30
0.0
  0
VERTEX
  8
SupportsMoteurs
 10
19.5
 20
34.1
 30
0.0
  0
VERTEX
  8
SupportsMoteurs
 10
19.5
 20
34.15
 30
0.0
  0
VERTEX
  8
SupportsMoteurs
 10
19.5
 20
34.2
 30
0.0
  0
VERTEX
  8
SupportsMoteurs
 10
19.5
 20
34.25
 30
0.0
  0
VERTEX
  8
SupportsMoteurs
 10
19.5
 20
34.3
 30
0.0
  0
VERTEX
  8
SupportsMoteurs
 10
19.5
 20
34.35
 30
0.0
  0
VERTEX
  8
SupportsMoteurs
 10
19.5
 20
34.4
 30
0.0
  0
VERTEX
  8
SupportsMoteurs
 10
19.5
 20
34.45
 30
0.0
  0
VERTEX
  8
SupportsMoteurs
 10
19.5
 20
34.5
 30
0.0
  0
SEQEND
  8
SupportsMoteurs
  0
POLYLINE
  8
SupportsMoteurs
 62
0
 70
0
 66
1
 10
0.0
 20
0.0
 30
0.0
  0
VERTEX
  8
SupportsMoteurs
 10
21.0
 20
33.5
 30
0.0
  0
VERTEX
  8
SupportsMoteurs
 10
21.0
 20
33.55
 30
0.0
  0
VERTEX
  8
SupportsMoteurs
 10
21.0
 20
33.6
 30
0.0
  0
VERTEX
  8
SupportsMoteurs
 10
21.0
 20
33.65
 30
0.0
  0
VERTEX
  8
SupportsMoteurs
 10
21.0
 20
33.7
 30
0.0
  0
VERTEX
  8
SupportsMoteurs
 10
21.0
 20
33.75
 30
0.0
  0
VERTEX
  8
SupportsMoteurs
 10
21.0
 20
33.8
 30
0.0
  0
VERTEX
  8
SupportsMoteurs
 10
21.0
 20
33.85
 30
0.0
  0
VERTEX
  8
SupportsMoteurs
 10
21.0
 20
33.9
 30
0.0
  0
VERTEX
  8
SupportsMoteurs
 10
21.0
 20
33.95
 30
0.0
  0
VERTEX
  8
SupportsMoteurs
 10
21.0
 20
34.0
 30
0.0
  0
VERTEX
  8
SupportsMoteurs
 10
21.0
 20
34.05
 30
0.0
  0
VERTEX
  8
SupportsMoteurs
 10
21.0
 20
34.1
 30
0.0
  0
VERTEX
  8
SupportsMoteurs
 10
21.0
 20
34.15
 30
0.0
  0
VERTEX
  8
SupportsMoteurs
 10
21.0
 20
34.2
 30
0.0
  0
VERTEX
  8
SupportsMoteurs
 10
21.0
 20
34.25
 30
0.0
  0
VERTEX
  8
SupportsMoteurs
 10
21.0
 20
34.3
 30
0.0
  0
VERTEX
  8
SupportsMoteurs
 10
21.0
 20
34.35
 30
0.0
  0
VERTEX
  8
SupportsMoteurs
 10
21.0
 20
34.4
 30
0.0
  0
VERTEX
  8
SupportsMoteurs
 10
21.0
 20
34.45
 30
0.0
  0
VERTEX
  8
SupportsMoteurs
 10
21.0
 20
34.5
 30
0.0
  0
SEQEND
  8
SupportsMoteurs
  0
POLYLINE
  8
SupportsMoteurs
 62
0
 70
0
 66
1
 10
0.0
 20
0.0
 30
0.0
  0
VERTEX
  8
SupportsMoteurs
 10
19.5
 20
31.0
 30
0.0
  0
VERTEX
  8
SupportsMoteurs
 10
19.5
 20
31.05
 30
0.0
  0
VERTEX
  8
SupportsMoteurs
 10
19.5
 20
31.1
 30
0.0
  0
VERTEX
  8
SupportsMoteurs
 10
19.5
 20
31.15
 30
0.0
  0
VERTEX
  8
SupportsMoteurs
 10
19.5
 20
31.2
 30
0.0
  0
VERTEX
  8
SupportsMoteurs
 10
19.5
 20
31.25
 30
0.0
  0
VERTEX
  8
SupportsMoteurs
 10
19.5
 20
31.3
 30
0.0
  0
VERTEX
  8
SupportsMoteurs
 10
19.5
 20
31.35
 30
0.0
  0
VERTEX
  8
SupportsMoteurs
 10
19.5
 20
31.4
 30
0.0
  0
VERTEX
  8
SupportsMoteurs
 10
19.5
 20
31.45
 30
0.0
  0
VERTEX
  8
SupportsMoteurs
 10
19.5
 20
31.5
 30
0.0
  0
VERTEX
  8
SupportsMoteurs
 10
19.5
 20
31.55
 30
0.0
  0
VERTEX
  8
SupportsMoteurs
 10
19.5
 20
31.6
 30
0.0
  0
VERTEX
  8
SupportsMoteurs
 10
19.5
 20
31.65
 30
0.0
  0
VERTEX
  8
SupportsMoteurs
 10
19.5
 20
31.7
 30
0.0
  0
VERTEX
  8
SupportsMoteurs
 10
19.5
 20
31.75
 30
0.0
  0
VERTEX
  8
SupportsMoteurs
 10
19.5
 20
31.8
 30
0.0
  0
VERTEX
  8
SupportsMoteurs
 10
19.5
 20
31.85
 30
0.0
  0
VERTEX
  8
SupportsMoteurs
 10
19.5
 20
31.9
 30
0.0
  0
VERTEX
  8
SupportsMoteurs
 10
19.5
 20
31.95
 30
0.0
  0
VERTEX
  8
SupportsMoteurs
 10
19.5
 20
32.0
 30
0.0
  0
SEQEND
  8
SupportsMoteurs
  0
POLYLINE
  8
SupportsMoteurs
 62
0
 70
0
 66
1
 10
0.0
 20
0.0
 30
0.0
  0
VERTEX
  8
SupportsMoteurs
 10
21.0
 20
31.0
 30
0.0
  0
VERTEX
  8
SupportsMoteurs
 10
21.0
 20
31.05
 30
0.0
  0
VERTEX
  8
SupportsMoteurs
 10
21.0
 20
31.1
 30
0.0
  0
VERTEX
  8
SupportsMoteurs
 10
21.0
 20
31.15
 30
0.0
  0
VERTEX
  8
SupportsMoteurs
 10
21.0
 20
31.2
 30
0.0
  0
VERTEX
  8
SupportsMoteurs
 10
21.0
 20
31.25
 30
0.0
  0
VERTEX
  8
SupportsMoteurs
 10
21.0
 20
31.3
 30
0.0
  0
VERTEX
  8
SupportsMoteurs
 10
21.0
 20
31.35
 30
0.0
  0
VERTEX
  8
SupportsMoteurs
 10
21.0
 20
31.4
 30
0.0
  0
VERTEX
  8
SupportsMoteurs
 10
21.0
 20
31.45
 30
0.0
  0
VERTEX
  8
SupportsMoteurs
 10
21.0
 20
31.5
 30
0.0
  0
VERTEX
  8
SupportsMoteurs
 10
21.0
 20
31.55
 30
0.0
  0
VERTEX
  8
SupportsMoteurs
 10
21.0
 20
31.6
 30
0.0
  0
VERTEX
  8
SupportsMoteurs
 10
21.0
 20
31.65
 30
0.0
  0
VERTEX
  8
SupportsMoteurs
 10
21.0
 20
31.7
 30
0.0
  0
VERTEX
  8
SupportsMoteurs
 10
21.0
 20
31.75
 30
0.0
  0
VERTEX
  8
SupportsMoteurs
 10
21.0
 20
31.8
 30
0.0
  0
VERTEX
  8
SupportsMoteurs
 10
21.0
 20
31.85
 30
0.0
  0
VERTEX
  8
SupportsMoteurs
 10
21.0
 20
31.9
 30
0.0
  0
VERTEX
  8
SupportsMoteurs
 10
21.0
 20
31.95
 30
0.0
  0
VERTEX
  8
SupportsMoteurs
 10
21.0
 20
32.0
 30
0.0
  0
SEQEND
  8
SupportsMoteurs
  0
POLYLINE
  8
SupportsMoteurs
 62
0
 70
0
 66
1
 10
0.0
 20
0.0
 30
0.0
  0
VERTEX
  8
SupportsMoteurs
 10
19.5
 20
31.0
 30
0.0
  0
VERTEX
  8
SupportsMoteurs
 10
19.5
 20
30.95
 30
0.0
  0
VERTEX
  8
SupportsMoteurs
 10
19.5
 20
30.9
 30
0.0
  0
VERTEX
  8
SupportsMoteurs
 10
19.5
 20
30.85
 30
0.0
  0
VERTEX
  8
SupportsMoteurs
 10
19.5
 20
30.8
 30
0.0
  0
VERTEX
  8
SupportsMoteurs
 10
19.5
 20
30.75
 30
0.0
  0
VERTEX
  8
SupportsMoteurs
 10
19.5
 20
30.7
 30
0.0
  0
VERTEX
  8
SupportsMoteurs
 10
19.5
 20
30.65
 30
0.0
  0
VERTEX
  8
SupportsMoteurs
 10
19.5
 20
30.6
 30
0.0
  0
VERTEX
  8
SupportsMoteurs
 10
19.5
 20
30.55
 30
0.0
  0
VERTEX
  8
SupportsMoteurs
 10
19.5
 20
30.5
 30
0.0
  0
SEQEND
  8
SupportsMoteurs
  0
POLYLINE
  8
SupportsMoteurs
 62
0
 70
0
 66
1
 10
0.0
 20
0.0
 30
0.0
  0
VERTEX
  8
SupportsMoteurs
 10
21.0
 20
31.0
 30
0.0
  0
VERTEX
  8
SupportsMoteurs
 10
21.0
 20
30.95
 30
0.0
  0
VERTEX
  8
SupportsMoteurs
 10
21.0
 20
30.9
 30
0.0
  0
VERTEX
  8
SupportsMoteurs
 10
21.0
 20
30.85
 30
0.0
  0
VERTEX
  8
SupportsMoteurs
 10
21.0
 20
30.8
 30
0.0
  0
VERTEX
  8
SupportsMoteurs
 10
21.0
 20
30.75
 30
0.0
  0
VERTEX
  8
SupportsMoteurs
 10
21.0
 20
30.7
 30
0.0
  0
VERTEX
  8
SupportsMoteurs
 10
21.0
 20
30.65
 30
0.0
  0
VERTEX
  8
SupportsMoteurs
 10
21.0
 20
30.6
 30
0.0
  0
VERTEX
  8
SupportsMoteurs
 10
21.0
 20
30.55
 30
0.0
  0
VERTEX
  8
SupportsMoteurs
 10
21.0
 20
30.5
 30
0.0
  0
SEQEND
  8
SupportsMoteurs
  0
POLYLINE
  8
SupportsMoteurs
 62
0
 70
0
 66
1
 10
0.0
 20
0.0
 30
0.0
  0
VERTEX
  8
SupportsMoteurs
 10
19.5
 20
28.5
 30
0.0
  0
VERTEX
  8
SupportsMoteurs
 10
19.5
 20
28.45
 30
0.0
  0
VERTEX
  8
SupportsMoteurs
 10
19.5
 20
28.4
 30
0.0
  0
VERTEX
  8
SupportsMoteurs
 10
19.5
 20
28.35
 30
0.0
  0
VERTEX
  8
SupportsMoteurs
 10
19.5
 20
28.3
 30
0.0
  0
VERTEX
  8
SupportsMoteurs
 10
19.5
 20
28.25
 30
0.0
  0
VERTEX
  8
SupportsMoteurs
 10
19.5
 20
28.2
 30
0.0
  0
VERTEX
  8
SupportsMoteurs
 10
19.5
 20
28.15
 30
0.0
  0
VERTEX
  8
SupportsMoteurs
 10
19.5
 20
28.1
 30
0.0
  0
VERTEX
  8
SupportsMoteurs
 10
19.5
 20
28.05
 30
0.0
  0
VERTEX
  8
SupportsMoteurs
 10
19.5
 20
28.0
 30
0.0
  0
SEQEND
  8
SupportsMoteurs
  0
POLYLINE
  8
SupportsMoteurs
 62
0
 70
0
 66
1
 10
0.0
 20
0.0
 30
0.0
  0
VERTEX
  8
SupportsMoteurs
 10
21.0
 20
28.5
 30
0.0
  0
VERTEX
  8
SupportsMoteurs
 10
21.0
 20
28.45
 30
0.0
  0
VERTEX
  8
SupportsMoteurs
 10
21.0
 20
28.4
 30
0.0
  0
VERTEX
  8
SupportsMoteurs
 10
21.0
 20
28.35
 30
0.0
  0
VERTEX
  8
SupportsMoteurs
 10
21.0
 20
28.3
 30
0.0
  0
VERTEX
  8
SupportsMoteurs
 10
21.0
 20
28.25
 30
0.0
  0
VERTEX
  8
SupportsMoteurs
 10
21.0
 20
28.2
 30
0.0
  0
VERTEX
  8
SupportsMoteurs
 10
21.0
 20
28.15
 30
0.0
  0
VERTEX
  8
SupportsMoteurs
 10
21.0
 20
28.1
 30
0.0
  0
VERTEX
  8
SupportsMoteurs
 10
21.0
 20
28.05
 30
0.0
  0
VERTEX
  8
SupportsMoteurs
 10
21.0
 20
28.0
 30
0.0
  0
SEQEND
  8
SupportsMoteurs
  0
POLYLINE
  8
SupportsMoteurs
 62
0
 70
0
 66
1
 10
0.0
 20
0.0
 30
0.0
  0
VERTEX
  8
SupportsMoteurs
 10
19.5
 20
27.29
 30
0.0
  0
VERTEX
  8
SupportsMoteurs
 10
19.5
 20
27.34
 30
0.0
  0
VERTEX
  8
SupportsMoteurs
 10
19.5
 20
27.39
 30
0.0
  0
VERTEX
  8
SupportsMoteurs
 10
19.5
 20
27.44
 30
0.0
  0
VERTEX
  8
SupportsMoteurs
 10
19.5
 20
27.49
 30
0.0
  0
VERTEX
  8
SupportsMoteurs
 10
19.5
 20
27.54
 30
0.0
  0
VERTEX
  8
SupportsMoteurs
 10
19.5
 20
27.59
 30
0.0
  0
VERTEX
  8
SupportsMoteurs
 10
19.5
 20
27.64
 30
0.0
  0
VERTEX
  8
SupportsMoteurs
 10
19.5
 20
27.69
 30
0.0
  0
VERTEX
  8
SupportsMoteurs
 10
19.5
 20
27.74
 30
0.0
  0
VERTEX
  8
SupportsMoteurs
 10
19.5
 20
27.79
 30
0.0
  0
VERTEX
  8
SupportsMoteurs
 10
19.5
 20
27.84
 30
0.0
  0
VERTEX
  8
SupportsMoteurs
 10
19.5
 20
27.89
 30
0.0
  0
VERTEX
  8
SupportsMoteurs
 10
19.5
 20
27.94
 30
0.0
  0
VERTEX
  8
SupportsMoteurs
 10
19.5
 20
27.99
 30
0.0
  0
VERTEX
  8
SupportsMoteurs
 10
19.5
 20
28.0
 30
0.0
  0
SEQEND
  8
SupportsMoteurs
  0
POLYLINE
  8
SupportsMoteurs
 62
0
 70
0
 66
1
 10
0.0
 20
0.0
 30
0.0
  0
VERTEX
  8
SupportsMoteurs
 10
21.0
 20
27.29
 30
0.0
  0
VERTEX
  8
SupportsMoteurs
 10
21.0
 20
27.34
 30
0.0
  0
VERTEX
  8
SupportsMoteurs
 10
21.0
 20
27.39
 30
0.0
  0
VERTEX
  8
SupportsMoteurs
 10
21.0
 20
27.44
 30
0.0
  0
VERTEX
  8
SupportsMoteurs
 10
21.0
 20
27.49
 30
0.0
  0
VERTEX
  8
SupportsMoteurs
 10
21.0
 20
27.54
 30
0.0
  0
VERTEX
  8
SupportsMoteurs
 10
21.0
 20
27.59
 30
0.0
  0
VERTEX
  8
SupportsMoteurs
 10
21.0
 20
27.64
 30
0.0
  0
VERTEX
  8
SupportsMoteurs
 10
21.0
 20
27.69
 30
0.0
  0
VERTEX
  8
SupportsMoteurs
 10
21.0
 20
27.74
 30
0.0
  0
VERTEX
  8
SupportsMoteurs
 10
21.0
 20
27.79
 30
0.0
  0
VERTEX
  8
SupportsMoteurs
 10
21.0
 20
27.84
 30
0.0
  0
VERTEX
  8
SupportsMoteurs
 10
21.0
 20
27.89
 30
0.0
  0
VERTEX
  8
SupportsMoteurs
 10
21.0
 20
27.94
 30
0.0
  0
VERTEX
  8
SupportsMoteurs
 10
21.0
 20
27.99
 30
0.0
  0
VERTEX
  8
SupportsMoteurs
 10
21.0
 20
28.0
 30
0.0
  0
SEQEND
  8
SupportsMoteurs
  0
POLYLINE
  8
SupportsMoteurs
 62
0
 70
0
 66
1
 10
0.0
 20
0.0
 30
0.0
  0
VERTEX
  8
SupportsMoteurs
 10
19.5
 20
14.29
 30
0.0
  0
VERTEX
  8
SupportsMoteurs
 10
19.5
 20
14.34
 30
0.0
  0
VERTEX
  8
SupportsMoteurs
 10
19.5
 20
14.39
 30
0.0
  0
VERTEX
  8
SupportsMoteurs
 10
19.5
 20
14.44
 30
0.0
  0
VERTEX
  8
SupportsMoteurs
 10
19.5
 20
14.49
 30
0.0
  0
VERTEX
  8
SupportsMoteurs
 10
19.5
 20
14.54
 30
0.0
  0
VERTEX
  8
SupportsMoteurs
 10
19.5
 20
14.59
 30
0.0
  0
VERTEX
  8
SupportsMoteurs
 10
19.5
 20
14.64
 30
0.0
  0
VERTEX
  8
SupportsMoteurs
 10
19.5
 20
14.69
 30
0.0
  0
VERTEX
  8
SupportsMoteurs
 10
19.5
 20
14.74
 30
0.0
  0
VERTEX
  8
SupportsMoteurs
 10
19.5
 20
14.79
 30
0.0
  0
VERTEX
  8
SupportsMoteurs
 10
19.5
 20
14.84
 30
0.0
  0
VERTEX
  8
SupportsMoteurs
 10
19.5
 20
14.89
 30
0.0
  0
VERTEX
  8
SupportsMoteurs
 10
19.5
 20
14.94
 30
0.0
  0
VERTEX
  8
SupportsMoteurs
 10
19.5
 20
14.99
 30
0.0
  0
VERTEX
  8
SupportsMoteurs
 10
19.5
 20
15.0
 30
0.0
  0
SEQEND
  8
SupportsMoteurs
  0
POLYLINE
  8
SupportsMoteurs
 62
0
 70
0
 66
1
 10
0.0
 20
0.0
 30
0.0
  0
VERTEX
  8
SupportsMoteurs
 10
21.0
 20
14.29
 30
0.0
  0
VERTEX
  8
SupportsMoteurs
 10
21.0
 20
14.34
 30
0.0
  0
VERTEX
  8
SupportsMoteurs
 10
21.0
 20
14.39
 30
0.0
  0
VERTEX
  8
SupportsMoteurs
 10
21.0
 20
14.44
 30
0.0
  0
VERTEX
  8
SupportsMoteurs
 10
21.0
 20
14.49
 30
0.0
  0
VERTEX
  8
SupportsMoteurs
 10
21.0
 20
14.54
 30
0.0
  0
VERTEX
  8
SupportsMoteurs
 10
21.0
 20
14.59
 30
0.0
  0
VERTEX
  8
SupportsMoteurs
 10
21.0
 20
14.64
 30
0.0
  0
VERTEX
  8
SupportsMoteurs
 10
21.0
 20
14.69
 30
0.0
  0
VERTEX
  8
SupportsMoteurs
 10
21.0
 20
14.74
 30
0.0
  0
VERTEX
  8
SupportsMoteurs
 10
21.0
 20
14.79
 30
0.0
  0
VERTEX
  8
SupportsMoteurs
 10
21.0
 20
14.84
 30
0.0
  0
VERTEX
  8
SupportsMoteurs
 10
21.0
 20
14.89
 30
0.0
  0
VERTEX
  8
SupportsMoteurs
 10
21.0
 20
14.94
 30
0.0
  0
VERTEX
  8
SupportsMoteurs
 10
21.0
 20
14.99
 30
0.0
  0
VERTEX
  8
SupportsMoteurs
 10
21.0
 20
15.0
 30
0.0
  0
SEQEND
  8
SupportsMoteurs
  0
POLYLINE
  8
SupportsMoteurs
 62
0
 70
0
 66
1
 10
0.0
 20
0.0
 30
0.0
  0
VERTEX
  8
SupportsMoteurs
 10
19.5
 20
11.0
 30
0.0
  0
VERTEX
  8
SupportsMoteurs
 10
19.5
 20
11.05
 30
0.0
  0
VERTEX
  8
SupportsMoteurs
 10
19.5
 20
11.1
 30
0.0
  0
VERTEX
  8
SupportsMoteurs
 10
19.5
 20
11.15
 30
0.0
  0
VERTEX
  8
SupportsMoteurs
 10
19.5
 20
11.2
 30
0.0
  0
VERTEX
  8
SupportsMoteurs
 10
19.5
 20
11.25
 30
0.0
  0
VERTEX
  8
SupportsMoteurs
 10
19.5
 20
11.3
 30
0.0
  0
VERTEX
  8
SupportsMoteurs
 10
19.5
 20
11.35
 30
0.0
  0
VERTEX
  8
SupportsMoteurs
 10
19.5
 20
11.4
 30
0.0
  0
VERTEX
  8
SupportsMoteurs
 10
19.5
 20
11.45
 30
0.0
  0
VERTEX
  8
SupportsMoteurs
 10
19.5
 20
11.5
 30
0.0
  0
VERTEX
  8
SupportsMoteurs
 10
19.5
 20
11.55
 30
0.0
  0
VERTEX
  8
SupportsMoteurs
 10
19.5
 20
11.6
 30
0.0
  0
VERTEX
  8
SupportsMoteurs
 10
19.5
 20
11.65
 30
0.0
  0
VERTEX
  8
SupportsMoteurs
 10
19.5
 20
11.7
 30
0.0
  0
VERTEX
  8
SupportsMoteurs
 10
19.5
 20
11.71
 30
0.0
  0
SEQEND
  8
SupportsMoteurs
  0
POLYLINE
  8
SupportsMoteurs
 62
0
 70
0
 66
1
 10
0.0
 20
0.0
 30
0.0
  0
VERTEX
  8
SupportsMoteurs
 10
21.0
 20
11.0
 30
0.0
  0
VERTEX
  8
SupportsMoteurs
 10
21.0
 20
11.05
 30
0.0
  0
VERTEX
  8
SupportsMoteurs
 10
21.0
 20
11.1
 30
0.0
  0
VERTEX
  8
SupportsMoteurs
 10
21.0
 20
11.15
 30
0.0
  0
VERTEX
  8
SupportsMoteurs
 10
21.0
 20
11.2
 30
0.0
  0
VERTEX
  8
SupportsMoteurs
 10
21.0
 20
11.25
 30
0.0
  0
VERTEX
  8
SupportsMoteurs
 10
21.0
 20
11.3
 30
0.0
  0
VERTEX
  8
SupportsMoteurs
 10
21.0
 20
11.35
 30
0.0
  0
VERTEX
  8
SupportsMoteurs
 10
21.0
 20
11.4
 30
0.0
  0
VERTEX
  8
SupportsMoteurs
 10
21.0
 20
11.45
 30
0.0
  0
VERTEX
  8
SupportsMoteurs
 10
21.0
 20
11.5
 30
0.0
  0
VERTEX
  8
SupportsMoteurs
 10
21.0
 20
11.55
 30
0.0
  0
VERTEX
  8
SupportsMoteurs
 10
21.0
 20
11.6
 30
0.0
  0
VERTEX
  8
SupportsMoteurs
 10
21.0
 20
11.65
 30
0.0
  0
VERTEX
  8
SupportsMoteurs
 10
21.0
 20
11.7
 30
0.0
  0
VERTEX
  8
SupportsMoteurs
 10
21.0
 20
11.71
 30
0.0
  0
SEQEND
  8
SupportsMoteurs
  0
POLYLINE
  8
SupportsMoteurs
 62
0
 70
0
 66
1
 10
0.0
 20
0.0
 30
0.0
  0
VERTEX
  8
SupportsMoteurs
 10
19.5
 20
6.480741
 30
0.0
  0
VERTEX
  8
SupportsMoteurs
 10
19.5
 20
6.430741
 30
0.0
  0
VERTEX
  8
SupportsMoteurs
 10
19.5
 20
6.380741
 30
0.0
  0
VERTEX
  8
SupportsMoteurs
 10
19.5
 20
6.330741
 30
0.0
  0
VERTEX
  8
SupportsMoteurs
 10
19.5
 20
6.280741
 30
0.0
  0
VERTEX
  8
SupportsMoteurs
 10
19.5
 20
6.230741
 30
0.0
  0
VERTEX
  8
SupportsMoteurs
 10
19.5
 20
6.180741
 30
0.0
  0
VERTEX
  8
SupportsMoteurs
 10
19.5
 20
6.130741
 30
0.0
  0
VERTEX
  8
SupportsMoteurs
 10
19.5
 20
6.080741
 30
0.0
  0
VERTEX
  8
SupportsMoteurs
 10
19.5
 20
6.030741
 30
0.0
  0
VERTEX
  8
SupportsMoteurs
 10
19.5
 20
5.980741
 30
0.0
  0
VERTEX
  8
SupportsMoteurs
 10
19.5
 20
5.930741
 30
0.0
  0
VERTEX
  8
SupportsMoteurs
 10
19.5
 20
5.880741
 30
0.0
  0
VERTEX
  8
SupportsMoteurs
 10
19.5
 20
5.830741
 30
0.0
  0
VERTEX
  8
SupportsMoteurs
 10
19.5
 20
5.780741
 30
0.0
  0
VERTEX
  8
SupportsMoteurs
 10
19.5
 20
5.730741
 30
0.0
  0
VERTEX
  8
SupportsMoteurs
 10
19.5
 20
5.680741
 30
0.0
  0
VERTEX
  8
SupportsMoteurs
 10
19.5
 20
5.630741
 30
0.0
  0
VERTEX
  8
SupportsMoteurs
 10
19.5
 20
5.580741
 30
0.0
  0
VERTEX
  8
SupportsMoteurs
 10
19.5
 20
5.530741
 30
0.0
  0
VERTEX
  8
SupportsMoteurs
 10
19.5
 20
5.480741
 30
0.0
  0
VERTEX
  8
SupportsMoteurs
 10
19.5
 20
5.430741
 30
0.0
  0
VERTEX
  8
SupportsMoteurs
 10
19.5
 20
5.380741
 30
0.0
  0
VERTEX
  8
SupportsMoteurs
 10
19.5
 20
5.330741
 30
0.0
  0
VERTEX
  8
SupportsMoteurs
 10
19.5
 20
5.280741
 30
0.0
  0
VERTEX
  8
SupportsMoteurs
 10
19.5
 20
5.230741
 30
0.0
  0
VERTEX
  8
SupportsMoteurs
 10
19.5
 20
5.180741
 30
0.0
  0
VERTEX
  8
SupportsMoteurs
 10
19.5
 20
5.130741
 30
0.0
  0
VERTEX
  8
SupportsMoteurs
 10
19.5
 20
5.080741
 30
0.0
  0
VERTEX
  8
SupportsMoteurs
 10
19.5
 20
5.030741
 30
0.0
  0
VERTEX
  8
SupportsMoteurs
 10
19.5
 20
4.980741
 30
0.0
  0
VERTEX
  8
SupportsMoteurs
 10
19.5
 20
4.930741
 30
0.0
  0
VERTEX
  8
SupportsMoteurs
 10
19.5
 20
4.880741
 30
0.0
  0
VERTEX
  8
SupportsMoteurs
 10
19.5
 20
4.830741
 30
0.0
  0
VERTEX
  8
SupportsMoteurs
 10
19.5
 20
4.780741
 30
0.0
  0
VERTEX
  8
SupportsMoteurs
 10
19.5
 20
4.730741
 30
0.0
  0
VERTEX
  8
SupportsMoteurs
 10
19.5
 20
4.680741
 30
0.0
  0
VERTEX
  8
SupportsMoteurs
 10
19.5
 20
4.630741
 30
0.0
  0
VERTEX
  8
SupportsMoteurs
 10
19.5
 20
4.580741
 30
0.0
  0
VERTEX
  8
SupportsMoteurs
 10
19.5
 20
4.530741
 30
0.0
  0
VERTEX
  8
SupportsMoteurs
 10
19.5
 20
4.480741
 30
0.0
  0
VERTEX
  8
SupportsMoteurs
 10
19.5
 20
4.430741
 30
0.0
  0
VERTEX
  8
SupportsMoteurs
 10
19.5
 20
4.380741
 30
0.0
  0
VERTEX
  8
SupportsMoteurs
 10
19.5
 20
4.330741
 30
0.0
  0
VERTEX
  8
SupportsMoteurs
 10
19.5
 20
4.280741
 30
0.0
  0
VERTEX
  8
SupportsMoteurs
 10
19.5
 20
4.25
 30
0.0
  0
SEQEND
  8
SupportsMoteurs
  0
POLYLINE
  8
SupportsMoteurs
 62
0
 70
0
 66
1
 10
0.0
 20
0.0
 30
0.0
  0
VERTEX
  8
SupportsMoteurs
 10
21.0
 20
6.480741
 30
0.0
  0
VERTEX
  8
SupportsMoteurs
 10
21.0
 20
6.430741
 30
0.0
  0
VERTEX
  8
SupportsMoteurs
 10
21.0
 20
6.380741
 30
0.0
  0
VERTEX
  8
SupportsMoteurs
 10
21.0
 20
6.330741
 30
0.0
  0
VERTEX
  8
SupportsMoteurs
 10
21.0
 20
6.280741
 30
0.0
  0
VERTEX
  8
SupportsMoteurs
 10
21.0
 20
6.230741
 30
0.0
  0
VERTEX
  8
SupportsMoteurs
 10
21.0
 20
6.180741
 30
0.0
  0
VERTEX
  8
SupportsMoteurs
 10
21.0
 20
6.130741
 30
0.0
  0
VERTEX
  8
SupportsMoteurs
 10
21.0
 20
6.080741
 30
0.0
  0
VERTEX
  8
SupportsMoteurs
 10
21.0
 20
6.030741
 30
0.0
  0
VERTEX
  8
SupportsMoteurs
 10
21.0
 20
5.980741
 30
0.0
  0
VERTEX
  8
SupportsMoteurs
 10
21.0
 20
5.930741
 30
0.0
  0
VERTEX
  8
SupportsMoteurs
 10
21.0
 20
5.880741
 30
0.0
  0
VERTEX
  8
SupportsMoteurs
 10
21.0
 20
5.830741
 30
0.0
  0
VERTEX
  8
SupportsMoteurs
 10
21.0
 20
5.780741
 30
0.0
  0
VERTEX
  8
SupportsMoteurs
 10
21.0
 20
5.730741
 30
0.0
  0
VERTEX
  8
SupportsMoteurs
 10
21.0
 20
5.680741
 30
0.0
  0
VERTEX
  8
SupportsMoteurs
 10
21.0
 20
5.630741
 30
0.0
  0
VERTEX
  8
SupportsMoteurs
 10
21.0
 20
5.580741
 30
0.0
  0
VERTEX
  8
SupportsMoteurs
 10
21.0
 20
5.530741
 30
0.0
  0
VERTEX
  8
SupportsMoteurs
 10
21.0
 20
5.480741
 30
0.0
  0
VERTEX
  8
SupportsMoteurs
 10
21.0
 20
5.430741
 30
0.0
  0
VERTEX
  8
SupportsMoteurs
 10
21.0
 20
5.380741
 30
0.0
  0
VERTEX
  8
SupportsMoteurs
 10
21.0
 20
5.330741
 30
0.0
  0
VERTEX
  8
SupportsMoteurs
 10
21.0
 20
5.280741
 30
0.0
  0
VERTEX
  8
SupportsMoteurs
 10
21.0
 20
5.230741
 30
0.0
  0
VERTEX
  8
SupportsMoteurs
 10
21.0
 20
5.180741
 30
0.0
  0
VERTEX
  8
SupportsMoteurs
 10
21.0
 20
5.130741
 30
0.0
  0
VERTEX
  8
SupportsMoteurs
 10
21.0
 20
5.080741
 30
0.0
  0
VERTEX
  8
SupportsMoteurs
 10
21.0
 20
5.030741
 30
0.0
  0
VERTEX
  8
SupportsMoteurs
 10
21.0
 20
4.980741
 30
0.0
  0
VERTEX
  8
SupportsMoteurs
 10
21.0
 20
4.930741
 30
0.0
  0
VERTEX
  8
SupportsMoteurs
 10
21.0
 20
4.880741
 30
0.0
  0
VERTEX
  8
SupportsMoteurs
 10
21.0
 20
4.830741
 30
0.0
  0
VERTEX
  8
SupportsMoteurs
 10
21.0
 20
4.780741
 30
0.0
  0
VERTEX
  8
SupportsMoteurs
 10
21.0
 20
4.730741
 30
0.0
  0
VERTEX
  8
SupportsMoteurs
 10
21.0
 20
4.680741
 30
0.0
  0
VERTEX
  8
SupportsMoteurs
 10
21.0
 20
4.630741
 30
0.0
  0
VERTEX
  8
SupportsMoteurs
 10
21.0
 20
4.580741
 30
0.0
  0
VERTEX
  8
SupportsMoteurs
 10
21.0
 20
4.530741
 30
0.0
  0
VERTEX
  8
SupportsMoteurs
 10
21.0
 20
4.480741
 30
0.0
  0
VERTEX
  8
SupportsMoteurs
 10
21.0
 20
4.430741
 30
0.0
  0
VERTEX
  8
SupportsMoteurs
 10
21.0
 20
4.380741
 30
0.0
  0
VERTEX
  8
SupportsMoteurs
 10
21.0
 20
4.330741
 30
0.0
  0
VERTEX
  8
SupportsMoteurs
 10
21.0
 20
4.280741
 30
0.0
  0
VERTEX
  8
SupportsMoteurs
 10
21.0
 20
4.25
 30
0.0
  0
SEQEND
  8
SupportsMoteurs
  0
POLYLINE
  8
SupportsMoteurs
 62
0
 70
0
 66
1
 10
0.0
 20
0.0
 30
0.0
  0
VERTEX
  8
SupportsMoteurs
 10
19.5
 20
4.25
 30
0.0
  0
VERTEX
  8
SupportsMoteurs
 10
19.5
 20
4.2
 30
0.0
  0
VERTEX
  8
SupportsMoteurs
 10
19.5
 20
4.15
 30
0.0
  0
VERTEX
  8
SupportsMoteurs
 10
19.5
 20
4.1
 30
0.0
  0
VERTEX
  8
SupportsMoteurs
 10
19.5
 20
4.05
 30
0.0
  0
VERTEX
  8
SupportsMoteurs
 10
19.5
 20
4.0
 30
0.0
  0
VERTEX
  8
SupportsMoteurs
 10
19.5
 20
3.95
 30
0.0
  0
VERTEX
  8
SupportsMoteurs
 10
19.5
 20
3.9
 30
0.0
  0
VERTEX
  8
SupportsMoteurs
 10
19.5
 20
3.85
 30
0.0
  0
VERTEX
  8
SupportsMoteurs
 10
19.5
 20
3.8
 30
0.0
  0
VERTEX
  8
SupportsMoteurs
 10
19.5
 20
3.75
 30
0.0
  0
VERTEX
  8
SupportsMoteurs
 10
19.5
 20
3.7
 30
0.0
  0
VERTEX
  8
SupportsMoteurs
 10
19.5
 20
3.65
 30
0.0
  0
VERTEX
  8
SupportsMoteurs
 10
19.5
 20
3.6
 30
0.0
  0
VERTEX
  8
SupportsMoteurs
 10
19.5
 20
3.55
 30
0.0
  0
VERTEX
  8
SupportsMoteurs
 10
19.5
 20
3.5
 30
0.0
  0
SEQEND
  8
SupportsMoteurs
  0
POLYLINE
  8
SupportsMoteurs
 62
0
 70
0
 66
1
 10
0.0
 20
0.0
 30
0.0
  0
VERTEX
  8
SupportsMoteurs
 10
21.0
 20
4.25
 30
0.0
  0
VERTEX
  8
SupportsMoteurs
 10
21.0
 20
4.2
 30
0.0
  0
VERTEX
  8
SupportsMoteurs
 10
21.0
 20
4.15
 30
0.0
  0
VERTEX
  8
SupportsMoteurs
 10
21.0
 20
4.1
 30
0.0
  0
VERTEX
  8
SupportsMoteurs
 10
21.0
 20
4.05
 30
0.0
  0
VERTEX
  8
SupportsMoteurs
 10
21.0
 20
4.0
 30
0.0
  0
VERTEX
  8
SupportsMoteurs
 10
21.0
 20
3.95
 30
0.0
  0
VERTEX
  8
SupportsMoteurs
 10
21.0
 20
3.9
 30
0.0
  0
VERTEX
  8
SupportsMoteurs
 10
21.0
 20
3.85
 30
0.0
  0
VERTEX
  8
SupportsMoteurs
 10
21.0
 20
3.8
 30
0.0
  0
VERTEX
  8
SupportsMoteurs
 10
21.0
 20
3.75
 30
0.0
  0
VERTEX
  8
SupportsMoteurs
 10
21.0
 20
3.7
 30
0.0
  0
VERTEX
  8
SupportsMoteurs
 10
21.0
 20
3.65
 30
0.0
  0
VERTEX
  8
SupportsMoteurs
 10
21.0
 20
3.6
 30
0.0
  0
VERTEX
  8
SupportsMoteurs
 10
21.0
 20
3.55
 30
0.0
  0
VERTEX
  8
SupportsMoteurs
 10
21.0
 20
3.5
 30
0.0
  0
SEQEND
  8
SupportsMoteurs
  0
POLYLINE
  8
SupportsMoteurs
 62
0
 70
0
 66
1
 10
0.0
 20
0.0
 30
0.0
  0
VERTEX
  8
SupportsMoteurs
 10
19.5
 20
1.5
 30
0.0
  0
VERTEX
  8
SupportsMoteurs
 10
19.5
 20
1.55
 30
0.0
  0
VERTEX
  8
SupportsMoteurs
 10
19.5
 20
1.6
 30
0.0
  0
VERTEX
  8
SupportsMoteurs
 10
19.5
 20
1.65
 30
0.0
  0
VERTEX
  8
SupportsMoteurs
 10
19.5
 20
1.7
 30
0.0
  0
VERTEX
  8
SupportsMoteurs
 10
19.5
 20
1.75
 30
0.0
  0
VERTEX
  8
SupportsMoteurs
 10
19.5
 20
1.8
 30
0.0
  0
VERTEX
  8
SupportsMoteurs
 10
19.5
 20
1.85
 30
0.0
  0
VERTEX
  8
SupportsMoteurs
 10
19.5
 20
1.9
 30
0.0
  0
VERTEX
  8
SupportsMoteurs
 10
19.5
 20
1.95
 30
0.0
  0
VERTEX
  8
SupportsMoteurs
 10
19.5
 20
2.0
 30
0.0
  0
VERTEX
  8
SupportsMoteurs
 10
19.5
 20
2.05
 30
0.0
  0
VERTEX
  8
SupportsMoteurs
 10
19.5
 20
2.1
 30
0.0
  0
VERTEX
  8
SupportsMoteurs
 10
19.5
 20
2.15
 30
0.0
  0
VERTEX
  8
SupportsMoteurs
 10
19.5
 20
2.2
 30
0.0
  0
VERTEX
  8
SupportsMoteurs
 10
19.5
 20
2.25
 30
0.0
  0
VERTEX
  8
SupportsMoteurs
 10
19.5
 20
2.3
 30
0.0
  0
VERTEX
  8
SupportsMoteurs
 10
19.5
 20
2.35
 30
0.0
  0
VERTEX
  8
SupportsMoteurs
 10
19.5
 20
2.4
 30
0.0
  0
VERTEX
  8
SupportsMoteurs
 10
19.5
 20
2.45
 30
0.0
  0
VERTEX
  8
SupportsMoteurs
 10
19.5
 20
2.5
 30
0.0
  0
SEQEND
  8
SupportsMoteurs
  0
POLYLINE
  8
SupportsMoteurs
 62
0
 70
0
 66
1
 10
0.0
 20
0.0
 30
0.0
  0
VERTEX
  8
SupportsMoteurs
 10
21.0
 20
1.5
 30
0.0
  0
VERTEX
  8
SupportsMoteurs
 10
21.0
 20
1.55
 30
0.0
  0
VERTEX
  8
SupportsMoteurs
 10
21.0
 20
1.6
 30
0.0
  0
VERTEX
  8
SupportsMoteurs
 10
21.0
 20
1.65
 30
0.0
  0
VERTEX
  8
SupportsMoteurs
 10
21.0
 20
1.7
 30
0.0
  0
VERTEX
  8
SupportsMoteurs
 10
21.0
 20
1.75
 30
0.0
  0
VERTEX
  8
SupportsMoteurs
 10
21.0
 20
1.8
 30
0.0
  0
VERTEX
  8
SupportsMoteurs
 10
21.0
 20
1.85
 30
0.0
  0
VERTEX
  8
SupportsMoteurs
 10
21.0
 20
1.9
 30
0.0
  0
VERTEX
  8
SupportsMoteurs
 10
21.0
 20
1.95
 30
0.0
  0
VERTEX
  8
SupportsMoteurs
 10
21.0
 20
2.0
 30
0.0
  0
VERTEX
  8
SupportsMoteurs
 10
21.0
 20
2.05
 30
0.0
  0
VERTEX
  8
SupportsMoteurs
 10
21.0
 20
2.1
 30
0.0
  0
VERTEX
  8
SupportsMoteurs
 10
21.0
 20
2.15
 30
0.0
  0
VERTEX
  8
SupportsMoteurs
 10
21.0
 20
2.2
 30
0.0
  0
VERTEX
  8
SupportsMoteurs
 10
21.0
 20
2.25
 30
0.0
  0
VERTEX
  8
SupportsMoteurs
 10
21.0
 20
2.3
 30
0.0
  0
VERTEX
  8
SupportsMoteurs
 10
21.0
 20
2.35
 30
0.0
  0
VERTEX
  8
SupportsMoteurs
 10
21.0
 20
2.4
 30
0.0
  0
VERTEX
  8
SupportsMoteurs
 10
21.0
 20
2.45
 30
0.0
  0
VERTEX
  8
SupportsMoteurs
 10
21.0
 20
2.5
 30
0.0
  0
SEQEND
  8
SupportsMoteurs
  0
POLYLINE
  8
SupportsMoteurs
 62
0
 70
0
 66
1
 10
0.0
 20
0.0
 30
0.0
  0
VERTEX
  8
SupportsMoteurs
 10
19.5
 20
1.5
 30
0.0
  0
VERTEX
  8
SupportsMoteurs
 10
19.5
 20
1.45
 30
0.0
  0
VERTEX
  8
SupportsMoteurs
 10
19.5
 20
1.4
 30
0.0
  0
VERTEX
  8
SupportsMoteurs
 10
19.5
 20
1.35
 30
0.0
  0
VERTEX
  8
SupportsMoteurs
 10
19.5
 20
1.3
 30
0.0
  0
VERTEX
  8
SupportsMoteurs
 10
19.5
 20
1.25
 30
0.0
  0
VERTEX
  8
SupportsMoteurs
 10
19.5
 20
1.2
 30
0.0
  0
VERTEX
  8
SupportsMoteurs
 10
19.5
 20
1.15
 30
0.0
  0
VERTEX
  8
SupportsMoteurs
 10
19.5
 20
1.1
 30
0.0
  0
VERTEX
  8
SupportsMoteurs
 10
19.5
 20
1.05
 30
0.0
  0
VERTEX
  8
SupportsMoteurs
 10
19.5
 20
1.0
 30
0.0
  0
SEQEND
  8
SupportsMoteurs
  0
POLYLINE
  8
SupportsMoteurs
 62
0
 70
0
 66
1
 10
0.0
 20
0.0
 30
0.0
  0
VERTEX
  8
SupportsMoteurs
 10
21.0
 20
1.5
 30
0.0
  0
VERTEX
  8
SupportsMoteurs
 10
21.0
 20
1.45
 30
0.0
  0
VERTEX
  8
SupportsMoteurs
 10
21.0
 20
1.4
 30
0.0
  0
VERTEX
  8
SupportsMoteurs
 10
21.0
 20
1.35
 30
0.0
  0
VERTEX
  8
SupportsMoteurs
 10
21.0
 20
1.3
 30
0.0
  0
VERTEX
  8
SupportsMoteurs
 10
21.0
 20
1.25
 30
0.0
  0
VERTEX
  8
SupportsMoteurs
 10
21.0
 20
1.2
 30
0.0
  0
VERTEX
  8
SupportsMoteurs
 10
21.0
 20
1.15
 30
0.0
  0
VERTEX
  8
SupportsMoteurs
 10
21.0
 20
1.1
 30
0.0
  0
VERTEX
  8
SupportsMoteurs
 10
21.0
 20
1.05
 30
0.0
  0
VERTEX
  8
SupportsMoteurs
 10
21.0
 20
1.0
 30
0.0
  0
SEQEND
  8
SupportsMoteurs
  0
POLYLINE
  8
SupportsMoteurs
 62
0
 70
0
 66
1
 10
0.0
 20
0.0
 30
0.0
  0
VERTEX
  8
SupportsMoteurs
 10
19.5
 20
-1.0
 30
0.0
  0
VERTEX
  8
SupportsMoteurs
 10
19.5
 20
-1.05
 30
0.0
  0
VERTEX
  8
SupportsMoteurs
 10
19.5
 20
-1.1
 30
0.0
  0
VERTEX
  8
SupportsMoteurs
 10
19.5
 20
-1.15
 30
0.0
  0
VERTEX
  8
SupportsMoteurs
 10
19.5
 20
-1.2
 30
0.0
  0
VERTEX
  8
SupportsMoteurs
 10
19.5
 20
-1.25
 30
0.0
  0
VERTEX
  8
SupportsMoteurs
 10
19.5
 20
-1.3
 30
0.0
  0
VERTEX
  8
SupportsMoteurs
 10
19.5
 20
-1.35
 30
0.0
  0
VERTEX
  8
SupportsMoteurs
 10
19.5
 20
-1.4
 30
0.0
  0
VERTEX
  8
SupportsMoteurs
 10
19.5
 20
-1.45
 30
0.0
  0
VERTEX
  8
SupportsMoteurs
 10
19.5
 20
-1.5
 30
0.0
  0
SEQEND
  8
SupportsMoteurs
  0
POLYLINE
  8
SupportsMoteurs
 62
0
 70
0
 66
1
 10
0.0
 20
0.0
 30
0.0
  0
VERTEX
  8
SupportsMoteurs
 10
21.0
 20
-1.0
 30
0.0
  0
VERTEX
  8
SupportsMoteurs
 10
21.0
 20
-1.05
 30
0.0
  0
VERTEX
  8
SupportsMoteurs
 10
21.0
 20
-1.1
 30
0.0
  0
VERTEX
  8
SupportsMoteurs
 10
21.0
 20
-1.15
 30
0.0
  0
VERTEX
  8
SupportsMoteurs
 10
21.0
 20
-1.2
 30
0.0
  0
VERTEX
  8
SupportsMoteurs
 10
21.0
 20
-1.25
 30
0.0
  0
VERTEX
  8
SupportsMoteurs
 10
21.0
 20
-1.3
 30
0.0
  0
VERTEX
  8
SupportsMoteurs
 10
21.0
 20
-1.35
 30
0.0
  0
VERTEX
  8
SupportsMoteurs
 10
21.0
 20
-1.4
 30
0.0
  0
VERTEX
  8
SupportsMoteurs
 10
21.0
 20
-1.45
 30
0.0
  0
VERTEX
  8
SupportsMoteurs
 10
21.0
 20
-1.5
 30
0.0
  0
SEQEND
  8
SupportsMoteurs
  0
POLYLINE
  8
SupportsMoteurs
 62
0
 70
0
 66
1
 10
0.0
 20
0.0
 30
0.0
  0
VERTEX
  8
SupportsMoteurs
 10
19.5
 20
-2.21
 30
0.0
  0
VERTEX
  8
SupportsMoteurs
 10
19.5
 20
-2.16
 30
0.0
  0
VERTEX
  8
SupportsMoteurs
 10
19.5
 20
-2.11
 30
0.0
  0
VERTEX
  8
SupportsMoteurs
 10
19.5
 20
-2.06
 30
0.0
  0
VERTEX
  8
SupportsMoteurs
 10
19.5
 20
-2.01
 30
0.0
  0
VERTEX
  8
SupportsMoteurs
 10
19.5
 20
-1.96
 30
0.0
  0
VERTEX
  8
SupportsMoteurs
 10
19.5
 20
-1.91
 30
0.0
  0
VERTEX
  8
SupportsMoteurs
 10
19.5
 20
-1.86
 30
0.0
  0
VERTEX
  8
SupportsMoteurs
 10
19.5
 20
-1.81
 30
0.0
  0
VERTEX
  8
SupportsMoteurs
 10
19.5
 20
-1.76
 30
0.0
  0
VERTEX
  8
SupportsMoteurs
 10
19.5
 20
-1.71
 30
0.0
  0
VERTEX
  8
SupportsMoteurs
 10
19.5
 20
-1.66
 30
0.0
  0
VERTEX
  8
SupportsMoteurs
 10
19.5
 20
-1.61
 30
0.0
  0
VERTEX
  8
SupportsMoteurs
 10
19.5
 20
-1.56
 30
0.0
  0
VERTEX
  8
SupportsMoteurs
 10
19.5
 20
-1.51
 30
0.0
  0
VERTEX
  8
SupportsMoteurs
 10
19.5
 20
-1.5
 30
0.0
  0
SEQEND
  8
SupportsMoteurs
  0
POLYLINE
  8
SupportsMoteurs
 62
0
 70
0
 66
1
 10
0.0
 20
0.0
 30
0.0
  0
VERTEX
  8
SupportsMoteurs
 10
21.0
 20
-2.21
 30
0.0
  0
VERTEX
  8
SupportsMoteurs
 10
21.0
 20
-2.16
 30
0.0
  0
VERTEX
  8
SupportsMoteurs
 10
21.0
 20
-2.11
 30
0.0
  0
VERTEX
  8
SupportsMoteurs
 10
21.0
 20
-2.06
 30
0.0
  0
VERTEX
  8
SupportsMoteurs
 10
21.0
 20
-2.01
 30
0.0
  0
VERTEX
  8
SupportsMoteurs
 10
21.0
 20
-1.96
 30
0.0
  0
VERTEX
  8
SupportsMoteurs
 10
21.0
 20
-1.91
 30
0.0
  0
VERTEX
  8
SupportsMoteurs
 10
21.0
 20
-1.86
 30
0.0
  0
VERTEX
  8
SupportsMoteurs
 10
21.0
 20
-1.81
 30
0.0
  0
VERTEX
  8
SupportsMoteurs
 10
21.0
 20
-1.76
 30
0.0
  0
VERTEX
  8
SupportsMoteurs
 10
21.0
 20
-1.71
 30
0.0
  0
VERTEX
  8
SupportsMoteurs
 10
21.0
 20
-1.66
 30
0.0
  0
VERTEX
  8
SupportsMoteurs
 10
21.0
 20
-1.61
 30
0.0
  0
VERTEX
  8
SupportsMoteurs
 10
21.0
 20
-1.56
 30
0.0
  0
VERTEX
  8
SupportsMoteurs
 10
21.0
 20
-1.51
 30
0.0
  0
VERTEX
  8
SupportsMoteurs
 10
21.0
 20
-1.5
 30
0.0
  0
SEQEND
  8
SupportsMoteurs
  0
POLYLINE
  8
SupportsMoteurs
 62
0
 70
0
 66
1
 10
0.0
 20
0.0
 30
0.0
  0
VERTEX
  8
SupportsMoteurs
 10
19.5
 20
-3.0
 30
0.0
  0
VERTEX
  8
SupportsMoteurs
 10
19.5
 20
-3.05
 30
0.0
  0
VERTEX
  8
SupportsMoteurs
 10
19.5
 20
-3.1
 30
0.0
  0
VERTEX
  8
SupportsMoteurs
 10
19.5
 20
-3.15
 30
0.0
  0
VERTEX
  8
SupportsMoteurs
 10
19.5
 20
-3.2
 30
0.0
  0
VERTEX
  8
SupportsMoteurs
 10
19.5
 20
-3.25
 30
0.0
  0
VERTEX
  8
SupportsMoteurs
 10
19.5
 20
-3.3
 30
0.0
  0
VERTEX
  8
SupportsMoteurs
 10
19.5
 20
-3.35
 30
0.0
  0
VERTEX
  8
SupportsMoteurs
 10
19.5
 20
-3.4
 30
0.0
  0
VERTEX
  8
SupportsMoteurs
 10
19.5
 20
-3.45
 30
0.0
  0
VERTEX
  8
SupportsMoteurs
 10
19.5
 20
-3.5
 30
0.0
  0
VERTEX
  8
SupportsMoteurs
 10
19.5
 20
-3.55
 30
0.0
  0
VERTEX
  8
SupportsMoteurs
 10
19.5
 20
-3.6
 30
0.0
  0
VERTEX
  8
SupportsMoteurs
 10
19.5
 20
-3.65
 30
0.0
  0
VERTEX
  8
SupportsMoteurs
 10
19.5
 20
-3.7
 30
0.0
  0
VERTEX
  8
SupportsMoteurs
 10
19.5
 20
-3.75
 30
0.0
  0
VERTEX
  8
SupportsMoteurs
 10
19.5
 20
-3.8
 30
0.0
  0
VERTEX
  8
SupportsMoteurs
 10
19.5
 20
-3.85
 30
0.0
  0
VERTEX
  8
SupportsMoteurs
 10
19.5
 20
-3.9
 30
0.0
  0
VERTEX
  8
SupportsMoteurs
 10
19.5
 20
-3.95
 30
0.0
  0
VERTEX
  8
SupportsMoteurs
 10
19.5
 20
-4.0
 30
0.0
  0
VERTEX
  8
SupportsMoteurs
 10
19.5
 20
-4.05
 30
0.0
  0
VERTEX
  8
SupportsMoteurs
 10
19.5
 20
-4.1
 30
0.0
  0
VERTEX
  8
SupportsMoteurs
 10
19.5
 20
-4.15
 30
0.0
  0
VERTEX
  8
SupportsMoteurs
 10
19.5
 20
-4.2
 30
0.0
  0
VERTEX
  8
SupportsMoteurs
 10
19.5
 20
-4.25
 30
0.0
  0
SEQEND
  8
SupportsMoteurs
  0
POLYLINE
  8
SupportsMoteurs
 62
0
 70
0
 66
1
 10
0.0
 20
0.0
 30
0.0
  0
VERTEX
  8
SupportsMoteurs
 10
21.0
 20
-3.0
 30
0.0
  0
VERTEX
  8
SupportsMoteurs
 10
21.0
 20
-3.05
 30
0.0
  0
VERTEX
  8
SupportsMoteurs
 10
21.0
 20
-3.1
 30
0.0
  0
VERTEX
  8
SupportsMoteurs
 10
21.0
 20
-3.15
 30
0.0
  0
VERTEX
  8
SupportsMoteurs
 10
21.0
 20
-3.2
 30
0.0
  0
VERTEX
  8
SupportsMoteurs
 10
21.0
 20
-3.25
 30
0.0
  0
VERTEX
  8
SupportsMoteurs
 10
21.0
 20
-3.3
 30
0.0
  0
VERTEX
  8
SupportsMoteurs
 10
21.0
 20
-3.35
 30
0.0
  0
VERTEX
  8
SupportsMoteurs
 10
21.0
 20
-3.4
 30
0.0
  0
VERTEX
  8
SupportsMoteurs
 10
21.0
 20
-3.45
 30
0.0
  0
VERTEX
  8
SupportsMoteurs
 10
21.0
 20
-3.5
 30
0.0
  0
VERTEX
  8
SupportsMoteurs
 10
21.0
 20
-3.55
 30
0.0
  0
VERTEX
  8
SupportsMoteurs
 10
21.0
 20
-3.6
 30
0.0
  0
VERTEX
  8
SupportsMoteurs
 10
21.0
 20
-3.65
 30
0.0
  0
VERTEX
  8
SupportsMoteurs
 10
21.0
 20
-3.7
 30
0.0
  0
VERTEX
  8
SupportsMoteurs
 10
21.0
 20
-3.75
 30
0.0
  0
VERTEX
  8
SupportsMoteurs
 10
21.0
 20
-3.8
 30
0.0
  0
VERTEX
  8
SupportsMoteurs
 10
21.0
 20
-3.85
 30
0.0
  0
VERTEX
  8
SupportsMoteurs
 10
21.0
 20
-3.9
 30
0.0
  0
VERTEX
  8
SupportsMoteurs
 10
21.0
 20
-3.95
 30
0.0
  0
VERTEX
  8
SupportsMoteurs
 10
21.0
 20
-4.0
 30
0.0
  0
VERTEX
  8
SupportsMoteurs
 10
21.0
 20
-4.05
 30
0.0
  0
VERTEX
  8
SupportsMoteurs
 10
21.0
 20
-4.1
 30
0.0
  0
VERTEX
  8
SupportsMoteurs
 10
21.0
 20
-4.15
 30
0.0
  0
VERTEX
  8
SupportsMoteurs
 10
21.0
 20
-4.2
 30
0.0
  0
VERTEX
  8
SupportsMoteurs
 10
21.0
 20
-4.25
 30
0.0
  0
SEQEND
  8
SupportsMoteurs
  0
POLYLINE
  8
SupportsMoteurs
 62
0
 70
0
 66
1
 10
0.0
 20
0.0
 30
0.0
  0
VERTEX
  8
SupportsMoteurs
 10
19.5
 20
-4.25
 30
0.0
  0
VERTEX
  8
SupportsMoteurs
 10
19.5
 20
-4.3
 30
0.0
  0
VERTEX
  8
SupportsMoteurs
 10
19.5
 20
-4.35
 30
0.0
  0
VERTEX
  8
SupportsMoteurs
 10
19.5
 20
-4.4
 30
0.0
  0
VERTEX
  8
SupportsMoteurs
 10
19.5
 20
-4.45
 30
0.0
  0
VERTEX
  8
SupportsMoteurs
 10
19.5
 20
-4.5
 30
0.0
  0
VERTEX
  8
SupportsMoteurs
 10
19.5
 20
-4.55
 30
0.0
  0
VERTEX
  8
SupportsMoteurs
 10
19.5
 20
-4.6
 30
0.0
  0
VERTEX
  8
SupportsMoteurs
 10
19.5
 20
-4.65
 30
0.0
  0
VERTEX
  8
SupportsMoteurs
 10
19.5
 20
-4.7
 30
0.0
  0
VERTEX
  8
SupportsMoteurs
 10
19.5
 20
-4.75
 30
0.0
  0
VERTEX
  8
SupportsMoteurs
 10
19.5
 20
-4.8
 30
0.0
  0
VERTEX
  8
SupportsMoteurs
 10
19.5
 20
-4.85
 30
0.0
  0
VERTEX
  8
SupportsMoteurs
 10
19.5
 20
-4.9
 30
0.0
  0
VERTEX
  8
SupportsMoteurs
 10
19.5
 20
-4.95
 30
0.0
  0
VERTEX
  8
SupportsMoteurs
 10
19.5
 20
-5.0
 30
0.0
  0
VERTEX
  8
SupportsMoteurs
 10
19.5
 20
-5.05
 30
0.0
  0
VERTEX
  8
SupportsMoteurs
 10
19.5
 20
-5.1
 30
0.0
  0
VERTEX
  8
SupportsMoteurs
 10
19.5
 20
-5.15
 30
0.0
  0
VERTEX
  8
SupportsMoteurs
 10
19.5
 20
-5.2
 30
0.0
  0
VERTEX
  8
SupportsMoteurs
 10
19.5
 20
-5.25
 30
0.0
  0
VERTEX
  8
SupportsMoteurs
 10
19.5
 20
-5.3
 30
0.0
  0
VERTEX
  8
SupportsMoteurs
 10
19.5
 20
-5.35
 30
0.0
  0
VERTEX
  8
SupportsMoteurs
 10
19.5
 20
-5.4
 30
0.0
  0
VERTEX
  8
SupportsMoteurs
 10
19.5
 20
-5.45
 30
0.0
  0
VERTEX
  8
SupportsMoteurs
 10
19.5
 20
-5.5
 30
0.0
  0
VERTEX
  8
SupportsMoteurs
 10
19.5
 20
-5.55
 30
0.0
  0
VERTEX
  8
SupportsMoteurs
 10
19.5
 20
-5.6
 30
0.0
  0
VERTEX
  8
SupportsMoteurs
 10
19.5
 20
-5.65
 30
0.0
  0
VERTEX
  8
SupportsMoteurs
 10
19.5
 20
-5.7
 30
0.0
  0
VERTEX
  8
SupportsMoteurs
 10
19.5
 20
-5.75
 30
0.0
  0
VERTEX
  8
SupportsMoteurs
 10
19.5
 20
-5.8
 30
0.0
  0
VERTEX
  8
SupportsMoteurs
 10
19.5
 20
-5.85
 30
0.0
  0
VERTEX
  8
SupportsMoteurs
 10
19.5
 20
-5.9
 30
0.0
  0
VERTEX
  8
SupportsMoteurs
 10
19.5
 20
-5.95
 30
0.0
  0
VERTEX
  8
SupportsMoteurs
 10
19.5
 20
-6.0
 30
0.0
  0
VERTEX
  8
SupportsMoteurs
 10
19.5
 20
-6.05
 30
0.0
  0
VERTEX
  8
SupportsMoteurs
 10
19.5
 20
-6.1
 30
0.0
  0
VERTEX
  8
SupportsMoteurs
 10
19.5
 20
-6.15
 30
0.0
  0
VERTEX
  8
SupportsMoteurs
 10
19.5
 20
-6.2
 30
0.0
  0
VERTEX
  8
SupportsMoteurs
 10
19.5
 20
-6.25
 30
0.0
  0
VERTEX
  8
SupportsMoteurs
 10
19.5
 20
-6.3
 30
0.0
  0
VERTEX
  8
SupportsMoteurs
 10
19.5
 20
-6.35
 30
0.0
  0
VERTEX
  8
SupportsMoteurs
 10
19.5
 20
-6.4
 30
0.0
  0
VERTEX
  8
SupportsMoteurs
 10
19.5
 20
-6.45
 30
0.0
  0
VERTEX
  8
SupportsMoteurs
 10
19.5
 20
-6.480741
 30
0.0
  0
SEQEND
  8
SupportsMoteurs
  0
POLYLINE
  8
SupportsMoteurs
 62
0
 70
0
 66
1
 10
0.0
 20
0.0
 30
0.0
  0
VERTEX
  8
SupportsMoteurs
 10
21.0
 20
-4.25
 30
0.0
  0
VERTEX
  8
SupportsMoteurs
 10
21.0
 20
-4.3
 30
0.0
  0
VERTEX
  8
SupportsMoteurs
 10
21.0
 20
-4.35
 30
0.0
  0
VERTEX
  8
SupportsMoteurs
 10
21.0
 20
-4.4
 30
0.0
  0
VERTEX
  8
SupportsMoteurs
 10
21.0
 20
-4.45
 30
0.0
  0
VERTEX
  8
SupportsMoteurs
 10
21.0
 20
-4.5
 30
0.0
  0
VERTEX
  8
SupportsMoteurs
 10
21.0
 20
-4.55
 30
0.0
  0
VERTEX
  8
SupportsMoteurs
 10
21.0
 20
-4.6
 30
0.0
  0
VERTEX
  8
SupportsMoteurs
 10
21.0
 20
-4.65
 30
0.0
  0
VERTEX
  8
SupportsMoteurs
 10
21.0
 20
-4.7
 30
0.0
  0
VERTEX
  8
SupportsMoteurs
 10
21.0
 20
-4.75
 30
0.0
  0
VERTEX
  8
SupportsMoteurs
 10
21.0
 20
-4.8
 30
0.0
  0
VERTEX
  8
SupportsMoteurs
 10
21.0
 20
-4.85
 30
0.0
  0
VERTEX
  8
SupportsMoteurs
 10
21.0
 20
-4.9
 30
0.0
  0
VERTEX
  8
SupportsMoteurs
 10
21.0
 20
-4.95
 30
0.0
  0
VERTEX
  8
SupportsMoteurs
 10
21.0
 20
-5.0
 30
0.0
  0
VERTEX
  8
SupportsMoteurs
 10
21.0
 20
-5.05
 30
0.0
  0
VERTEX
  8
SupportsMoteurs
 10
21.0
 20
-5.1
 30
0.0
  0
VERTEX
  8
SupportsMoteurs
 10
21.0
 20
-5.15
 30
0.0
  0
VERTEX
  8
SupportsMoteurs
 10
21.0
 20
-5.2
 30
0.0
  0
VERTEX
  8
SupportsMoteurs
 10
21.0
 20
-5.25
 30
0.0
  0
VERTEX
  8
SupportsMoteurs
 10
21.0
 20
-5.3
 30
0.0
  0
VERTEX
  8
SupportsMoteurs
 10
21.0
 20
-5.35
 30
0.0
  0
VERTEX
  8
SupportsMoteurs
 10
21.0
 20
-5.4
 30
0.0
  0
VERTEX
  8
SupportsMoteurs
 10
21.0
 20
-5.45
 30
0.0
  0
VERTEX
  8
SupportsMoteurs
 10
21.0
 20
-5.5
 30
0.0
  0
VERTEX
  8
SupportsMoteurs
 10
21.0
 20
-5.55
 30
0.0
  0
VERTEX
  8
SupportsMoteurs
 10
21.0
 20
-5.6
 30
0.0
  0
VERTEX
  8
SupportsMoteurs
 10
21.0
 20
-5.65
 30
0.0
  0
VERTEX
  8
SupportsMoteurs
 10
21.0
 20
-5.7
 30
0.0
  0
VERTEX
  8
SupportsMoteurs
 10
21.0
 20
-5.75
 30
0.0
  0
VERTEX
  8
SupportsMoteurs
 10
21.0
 20
-5.8
 30
0.0
  0
VERTEX
  8
SupportsMoteurs
 10
21.0
 20
-5.85
 30
0.0
  0
VERTEX
  8
SupportsMoteurs
 10
21.0
 20
-5.9
 30
0.0
  0
VERTEX
  8
SupportsMoteurs
 10
21.0
 20
-5.95
 30
0.0
  0
VERTEX
  8
SupportsMoteurs
 10
21.0
 20
-6.0
 30
0.0
  0
VERTEX
  8
SupportsMoteurs
 10
21.0
 20
-6.05
 30
0.0
  0
VERTEX
  8
SupportsMoteurs
 10
21.0
 20
-6.1
 30
0.0
  0
VERTEX
  8
SupportsMoteurs
 10
21.0
 20
-6.15
 30
0.0
  0
VERTEX
  8
SupportsMoteurs
 10
21.0
 20
-6.2
 30
0.0
  0
VERTEX
  8
SupportsMoteurs
 10
21.0
 20
-6.25
 30
0.0
  0
VERTEX
  8
SupportsMoteurs
 10
21.0
 20
-6.3
 30
0.0
  0
VERTEX
  8
SupportsMoteurs
 10
21.0
 20
-6.35
 30
0.0
  0
VERTEX
  8
SupportsMoteurs
 10
21.0
 20
-6.4
 30
0.0
  0
VERTEX
  8
SupportsMoteurs
 10
21.0
 20
-6.45
 30
0.0
  0
VERTEX
  8
SupportsMoteurs
 10
21.0
 20
-6.480741
 30
0.0
  0
SEQEND
  8
SupportsMoteurs
  0
POLYLINE
  8
SupportsMoteurs
 62
0
 70
0
 66
1
 10
0.0
 20
0.0
 30
0.0
  0
VERTEX
  8
SupportsMoteurs
 10
19.5
 20
-11.71
 30
0.0
  0
VERTEX
  8
SupportsMoteurs
 10
19.5
 20
-11.66
 30
0.0
  0
VERTEX
  8
SupportsMoteurs
 10
19.5
 20
-11.61
 30
0.0
  0
VERTEX
  8
SupportsMoteurs
 10
19.5
 20
-11.56
 30
0.0
  0
VERTEX
  8
SupportsMoteurs
 10
19.5
 20
-11.51
 30
0.0
  0
VERTEX
  8
SupportsMoteurs
 10
19.5
 20
-11.46
 30
0.0
  0
VERTEX
  8
SupportsMoteurs
 10
19.5
 20
-11.41
 30
0.0
  0
VERTEX
  8
SupportsMoteurs
 10
19.5
 20
-11.36
 30
0.0
  0
VERTEX
  8
SupportsMoteurs
 10
19.5
 20
-11.31
 30
0.0
  0
VERTEX
  8
SupportsMoteurs
 10
19.5
 20
-11.26
 30
0.0
  0
VERTEX
  8
SupportsMoteurs
 10
19.5
 20
-11.21
 30
0.0
  0
VERTEX
  8
SupportsMoteurs
 10
19.5
 20
-11.16
 30
0.0
  0
VERTEX
  8
SupportsMoteurs
 10
19.5
 20
-11.11
 30
0.0
  0
VERTEX
  8
SupportsMoteurs
 10
19.5
 20
-11.06
 30
0.0
  0
VERTEX
  8
SupportsMoteurs
 10
19.5
 20
-11.01
 30
0.0
  0
VERTEX
  8
SupportsMoteurs
 10
19.5
 20
-11.0
 30
0.0
  0
SEQEND
  8
SupportsMoteurs
  0
POLYLINE
  8
SupportsMoteurs
 62
0
 70
0
 66
1
 10
0.0
 20
0.0
 30
0.0
  0
VERTEX
  8
SupportsMoteurs
 10
21.0
 20
-11.71
 30
0.0
  0
VERTEX
  8
SupportsMoteurs
 10
21.0
 20
-11.66
 30
0.0
  0
VERTEX
  8
SupportsMoteurs
 10
21.0
 20
-11.61
 30
0.0
  0
VERTEX
  8
SupportsMoteurs
 10
21.0
 20
-11.56
 30
0.0
  0
VERTEX
  8
SupportsMoteurs
 10
21.0
 20
-11.51
 30
0.0
  0
VERTEX
  8
SupportsMoteurs
 10
21.0
 20
-11.46
 30
0.0
  0
VERTEX
  8
SupportsMoteurs
 10
21.0
 20
-11.41
 30
0.0
  0
VERTEX
  8
SupportsMoteurs
 10
21.0
 20
-11.36
 30
0.0
  0
VERTEX
  8
SupportsMoteurs
 10
21.0
 20
-11.31
 30
0.0
  0
VERTEX
  8
SupportsMoteurs
 10
21.0
 20
-11.26
 30
0.0
  0
VERTEX
  8
SupportsMoteurs
 10
21.0
 20
-11.21
 30
0.0
  0
VERTEX
  8
SupportsMoteurs
 10
21.0
 20
-11.16
 30
0.0
  0
VERTEX
  8
SupportsMoteurs
 10
21.0
 20
-11.11
 30
0.0
  0
VERTEX
  8
SupportsMoteurs
 10
21.0
 20
-11.06
 30
0.0
  0
VERTEX
  8
SupportsMoteurs
 10
21.0
 20
-11.01
 30
0.0
  0
VERTEX
  8
SupportsMoteurs
 10
21.0
 20
-11.0
 30
0.0
  0
SEQEND
  8
SupportsMoteurs
  0
POLYLINE
  8
SupportsMoteurs
 62
0
 70
0
 66
1
 10
0.0
 20
0.0
 30
0.0
  0
VERTEX
  8
SupportsMoteurs
 10
19.5
 20
-15.0
 30
0.0
  0
VERTEX
  8
SupportsMoteurs
 10
19.5
 20
-14.95
 30
0.0
  0
VERTEX
  8
SupportsMoteurs
 10
19.5
 20
-14.9
 30
0.0
  0
VERTEX
  8
SupportsMoteurs
 10
19.5
 20
-14.85
 30
0.0
  0
VERTEX
  8
SupportsMoteurs
 10
19.5
 20
-14.8
 30
0.0
  0
VERTEX
  8
SupportsMoteurs
 10
19.5
 20
-14.75
 30
0.0
  0
VERTEX
  8
SupportsMoteurs
 10
19.5
 20
-14.7
 30
0.0
  0
VERTEX
  8
SupportsMoteurs
 10
19.5
 20
-14.65
 30
0.0
  0
VERTEX
  8
SupportsMoteurs
 10
19.5
 20
-14.6
 30
0.0
  0
VERTEX
  8
SupportsMoteurs
 10
19.5
 20
-14.55
 30
0.0
  0
VERTEX
  8
SupportsMoteurs
 10
19.5
 20
-14.5
 30
0.0
  0
VERTEX
  8
SupportsMoteurs
 10
19.5
 20
-14.45
 30
0.0
  0
VERTEX
  8
SupportsMoteurs
 10
19.5
 20
-14.4
 30
0.0
  0
VERTEX
  8
SupportsMoteurs
 10
19.5
 20
-14.35
 30
0.0
  0
VERTEX
  8
SupportsMoteurs
 10
19.5
 20
-14.3
 30
0.0
  0
VERTEX
  8
SupportsMoteurs
 10
19.5
 20
-14.29
 30
0.0
  0
SEQEND
  8
SupportsMoteurs
  0
POLYLINE
  8
SupportsMoteurs
 62
0
 70
0
 66
1
 10
0.0
 20
0.0
 30
0.0
  0
VERTEX
  8
SupportsMoteurs
 10
21.0
 20
-15.0
 30
0.0
  0
VERTEX
  8
SupportsMoteurs
 10
21.0
 20
-14.95
 30
0.0
  0
VERTEX
  8
SupportsMoteurs
 10
21.0
 20
-14.9
 30
0.0
  0
VERTEX
  8
SupportsMoteurs
 10
21.0
 20
-14.85
 30
0.0
  0
VERTEX
  8
SupportsMoteurs
 10
21.0
 20
-14.8
 30
0.0
  0
VERTEX
  8
SupportsMoteurs
 10
21.0
 20
-14.75
 30
0.0
  0
VERTEX
  8
SupportsMoteurs
 10
21.0
 20
-14.7
 30
0.0
  0
VERTEX
  8
SupportsMoteurs
 10
21.0
 20
-14.65
 30
0.0
  0
VERTEX
  8
SupportsMoteurs
 10
21.0
 20
-14.6
 30
0.0
  0
VERTEX
  8
SupportsMoteurs
 10
21.0
 20
-14.55
 30
0.0
  0
VERTEX
  8
SupportsMoteurs
 10
21.0
 20
-14.5
 30
0.0
  0
VERTEX
  8
SupportsMoteurs
 10
21.0
 20
-14.45
 30
0.0
  0
VERTEX
  8
SupportsMoteurs
 10
21.0
 20
-14.4
 30
0.0
  0
VERTEX
  8
SupportsMoteurs
 10
21.0
 20
-14.35
 30
0.0
  0
VERTEX
  8
SupportsMoteurs
 10
21.0
 20
-14.3
 30
0.0
  0
VERTEX
  8
SupportsMoteurs
 10
21.0
 20
-14.29
 30
0.0
  0
SEQEND
  8
SupportsMoteurs
  0
POLYLINE
  8
SupportsMoteurs
 62
0
 70
0
 66
1
 10
0.0
 20
0.0
 30
0.0
  0
VERTEX
  8
SupportsMoteurs
 10
19.5
 20
-30.5
 30
0.0
  0
VERTEX
  8
SupportsMoteurs
 10
19.5
 20
-30.45
 30
0.0
  0
VERTEX
  8
SupportsMoteurs
 10
19.5
 20
-30.4
 30
0.0
  0
VERTEX
  8
SupportsMoteurs
 10
19.5
 20
-30.35
 30
0.0
  0
VERTEX
  8
SupportsMoteurs
 10
19.5
 20
-30.3
 30
0.0
  0
VERTEX
  8
SupportsMoteurs
 10
19.5
 20
-30.25
 30
0.0
  0
VERTEX
  8
SupportsMoteurs
 10
19.5
 20
-30.2
 30
0.0
  0
VERTEX
  8
SupportsMoteurs
 10
19.5
 20
-30.15
 30
0.0
  0
VERTEX
  8
SupportsMoteurs
 10
19.5
 20
-30.1
 30
0.0
  0
VERTEX
  8
SupportsMoteurs
 10
19.5
 20
-30.05
 30
0.0
  0
VERTEX
  8
SupportsMoteurs
 10
19.5
 20
-30.0
 30
0.0
  0
VERTEX
  8
SupportsMoteurs
 10
19.5
 20
-29.95
 30
0.0
  0
VERTEX
  8
SupportsMoteurs
 10
19.5
 20
-29.9
 30
0.0
  0
VERTEX
  8
SupportsMoteurs
 10
19.5
 20
-29.85
 30
0.0
  0
VERTEX
  8
SupportsMoteurs
 10
19.5
 20
-29.8
 30
0.0
  0
VERTEX
  8
SupportsMoteurs
 10
19.5
 20
-29.79
 30
0.0
  0
SEQEND
  8
SupportsMoteurs
  0
POLYLINE
  8
SupportsMoteurs
 62
0
 70
0
 66
1
 10
0.0
 20
0.0
 30
0.0
  0
VERTEX
  8
SupportsMoteurs
 10
21.0
 20
-30.5
 30
0.0
  0
VERTEX
  8
SupportsMoteurs
 10
21.0
 20
-30.45
 30
0.0
  0
VERTEX
  8
SupportsMoteurs
 10
21.0
 20
-30.4
 30
0.0
  0
VERTEX
  8
SupportsMoteurs
 10
21.0
 20
-30.35
 30
0.0
  0
VERTEX
  8
SupportsMoteurs
 10
21.0
 20
-30.3
 30
0.0
  0
VERTEX
  8
SupportsMoteurs
 10
21.0
 20
-30.25
 30
0.0
  0
VERTEX
  8
SupportsMoteurs
 10
21.0
 20
-30.2
 30
0.0
  0
VERTEX
  8
SupportsMoteurs
 10
21.0
 20
-30.15
 30
0.0
  0
VERTEX
  8
SupportsMoteurs
 10
21.0
 20
-30.1
 30
0.0
  0
VERTEX
  8
SupportsMoteurs
 10
21.0
 20
-30.05
 30
0.0
  0
VERTEX
  8
SupportsMoteurs
 10
21.0
 20
-30.0
 30
0.0
  0
VERTEX
  8
SupportsMoteurs
 10
21.0
 20
-29.95
 30
0.0
  0
VERTEX
  8
SupportsMoteurs
 10
21.0
 20
-29.9
 30
0.0
  0
VERTEX
  8
SupportsMoteurs
 10
21.0
 20
-29.85
 30
0.0
  0
VERTEX
  8
SupportsMoteurs
 10
21.0
 20
-29.8
 30
0.0
  0
VERTEX
  8
SupportsMoteurs
 10
21.0
 20
-29.79
 30
0.0
  0
SEQEND
  8
SupportsMoteurs
  0
POLYLINE
  8
SupportsMoteurs
 62
0
 70
0
 66
1
 10
0.0
 20
0.0
 30
0.0
  0
VERTEX
  8
SupportsMoteurs
 10
19.5
 20
-30.5
 30
0.0
  0
VERTEX
  8
SupportsMoteurs
 10
19.5
 20
-30.55
 30
0.0
  0
VERTEX
  8
SupportsMoteurs
 10
19.5
 20
-30.6
 30
0.0
  0
VERTEX
  8
SupportsMoteurs
 10
19.5
 20
-30.65
 30
0.0
  0
VERTEX
  8
SupportsMoteurs
 10
19.5
 20
-30.7
 30
0.0
  0
VERTEX
  8
SupportsMoteurs
 10
19.5
 20
-30.75
 30
0.0
  0
VERTEX
  8
SupportsMoteurs
 10
19.5
 20
-30.8
 30
0.0
  0
VERTEX
  8
SupportsMoteurs
 10
19.5
 20
-30.85
 30
0.0
  0
VERTEX
  8
SupportsMoteurs
 10
19.5
 20
-30.9
 30
0.0
  0
VERTEX
  8
SupportsMoteurs
 10
19.5
 20
-30.95
 30
0.0
  0
VERTEX
  8
SupportsMoteurs
 10
19.5
 20
-31.0
 30
0.0
  0
SEQEND
  8
SupportsMoteurs
  0
POLYLINE
  8
SupportsMoteurs
 62
0
 70
0
 66
1
 10
0.0
 20
0.0
 30
0.0
  0
VERTEX
  8
SupportsMoteurs
 10
21.0
 20
-30.5
 30
0.0
  0
VERTEX
  8
SupportsMoteurs
 10
21.0
 20
-30.55
 30
0.0
  0
VERTEX
  8
SupportsMoteurs
 10
21.0
 20
-30.6
 30
0.0
  0
VERTEX
  8
SupportsMoteurs
 10
21.0
 20
-30.65
 30
0.0
  0
VERTEX
  8
SupportsMoteurs
 10
21.0
 20
-30.7
 30
0.0
  0
VERTEX
  8
SupportsMoteurs
 10
21.0
 20
-30.75
 30
0.0
  0
VERTEX
  8
SupportsMoteurs
 10
21.0
 20
-30.8
 30
0.0
  0
VERTEX
  8
SupportsMoteurs
 10
21.0
 20
-30.85
 30
0.0
  0
VERTEX
  8
SupportsMoteurs
 10
21.0
 20
-30.9
 30
0.0
  0
VERTEX
  8
SupportsMoteurs
 10
21.0
 20
-30.95
 30
0.0
  0
VERTEX
  8
SupportsMoteurs
 10
21.0
 20
-31.0
 30
0.0
  0
SEQEND
  8
SupportsMoteurs
  0
POLYLINE
  8
SupportsMoteurs
 62
0
 70
0
 66
1
 10
0.0
 20
0.0
 30
0.0
  0
VERTEX
  8
SupportsMoteurs
 10
19.5
 20
-33.0
 30
0.0
  0
VERTEX
  8
SupportsMoteurs
 10
19.5
 20
-33.05
 30
0.0
  0
VERTEX
  8
SupportsMoteurs
 10
19.5
 20
-33.1
 30
0.0
  0
VERTEX
  8
SupportsMoteurs
 10
19.5
 20
-33.15
 30
0.0
  0
VERTEX
  8
SupportsMoteurs
 10
19.5
 20
-33.2
 30
0.0
  0
VERTEX
  8
SupportsMoteurs
 10
19.5
 20
-33.25
 30
0.0
  0
VERTEX
  8
SupportsMoteurs
 10
19.5
 20
-33.3
 30
0.0
  0
VERTEX
  8
SupportsMoteurs
 10
19.5
 20
-33.35
 30
0.0
  0
VERTEX
  8
SupportsMoteurs
 10
19.5
 20
-33.4
 30
0.0
  0
VERTEX
  8
SupportsMoteurs
 10
19.5
 20
-33.45
 30
0.0
  0
VERTEX
  8
SupportsMoteurs
 10
19.5
 20
-33.5
 30
0.0
  0
SEQEND
  8
SupportsMoteurs
  0
POLYLINE
  8
SupportsMoteurs
 62
0
 70
0
 66
1
 10
0.0
 20
0.0
 30
0.0
  0
VERTEX
  8
SupportsMoteurs
 10
21.0
 20
-33.0
 30
0.0
  0
VERTEX
  8
SupportsMoteurs
 10
21.0
 20
-33.05
 30
0.0
  0
VERTEX
  8
SupportsMoteurs
 10
21.0
 20
-33.1
 30
0.0
  0
VERTEX
  8
SupportsMoteurs
 10
21.0
 20
-33.15
 30
0.0
  0
VERTEX
  8
SupportsMoteurs
 10
21.0
 20
-33.2
 30
0.0
  0
VERTEX
  8
SupportsMoteurs
 10
21.0
 20
-33.25
 30
0.0
  0
VERTEX
  8
SupportsMoteurs
 10
21.0
 20
-33.3
 30
0.0
  0
VERTEX
  8
SupportsMoteurs
 10
21.0
 20
-33.35
 30
0.0
  0
VERTEX
  8
SupportsMoteurs
 10
21.0
 20
-33.4
 30
0.0
  0
VERTEX
  8
SupportsMoteurs
 10
21.0
 20
-33.45
 30
0.0
  0
VERTEX
  8
SupportsMoteurs
 10
21.0
 20
-33.5
 30
0.0
  0
SEQEND
  8
SupportsMoteurs
  0
POLYLINE
  8
SupportsMoteurs
 62
0
 70
0
 66
1
 10
0.0
 20
0.0
 30
0.0
  0
VERTEX
  8
SupportsMoteurs
 10
19.5
 20
-34.21
 30
0.0
  0
VERTEX
  8
SupportsMoteurs
 10
19.5
 20
-34.16
 30
0.0
  0
VERTEX
  8
SupportsMoteurs
 10
19.5
 20
-34.11
 30
0.0
  0
VERTEX
  8
SupportsMoteurs
 10
19.5
 20
-34.06
 30
0.0
  0
VERTEX
  8
SupportsMoteurs
 10
19.5
 20
-34.01
 30
0.0
  0
VERTEX
  8
SupportsMoteurs
 10
19.5
 20
-33.96
 30
0.0
  0
VERTEX
  8
SupportsMoteurs
 10
19.5
 20
-33.91
 30
0.0
  0
VERTEX
  8
SupportsMoteurs
 10
19.5
 20
-33.86
 30
0.0
  0
VERTEX
  8
SupportsMoteurs
 10
19.5
 20
-33.81
 30
0.0
  0
VERTEX
  8
SupportsMoteurs
 10
19.5
 20
-33.76
 30
0.0
  0
VERTEX
  8
SupportsMoteurs
 10
19.5
 20
-33.71
 30
0.0
  0
VERTEX
  8
SupportsMoteurs
 10
19.5
 20
-33.66
 30
0.0
  0
VERTEX
  8
SupportsMoteurs
 10
19.5
 20
-33.61
 30
0.0
  0
VERTEX
  8
SupportsMoteurs
 10
19.5
 20
-33.56
 30
0.0
  0
VERTEX
  8
SupportsMoteurs
 10
19.5
 20
-33.51
 30
0.0
  0
VERTEX
  8
SupportsMoteurs
 10
19.5
 20
-33.5
 30
0.0
  0
SEQEND
  8
SupportsMoteurs
  0
POLYLINE
  8
SupportsMoteurs
 62
0
 70
0
 66
1
 10
0.0
 20
0.0
 30
0.0
  0
VERTEX
  8
SupportsMoteurs
 10
21.0
 20
-34.21
 30
0.0
  0
VERTEX
  8
SupportsMoteurs
 10
21.0
 20
-34.16
 30
0.0
  0
VERTEX
  8
SupportsMoteurs
 10
21.0
 20
-34.11
 30
0.0
  0
VERTEX
  8
SupportsMoteurs
 10
21.0
 20
-34.06
 30
0.0
  0
VERTEX
  8
SupportsMoteurs
 10
21.0
 20
-34.01
 30
0.0
  0
VERTEX
  8
SupportsMoteurs
 10
21.0
 20
-33.96
 30
0.0
  0
VERTEX
  8
SupportsMoteurs
 10
21.0
 20
-33.91
 30
0.0
  0
VERTEX
  8
SupportsMoteurs
 10
21.0
 20
-33.86
 30
0.0
  0
VERTEX
  8
SupportsMoteurs
 10
21.0
 20
-33.81
 30
0.0
  0
VERTEX
  8
SupportsMoteurs
 10
21.0
 20
-33.76
 30
0.0
  0
VERTEX
  8
SupportsMoteurs
 10
21.0
 20
-33.71
 30
0.0
  0
VERTEX
  8
SupportsMoteurs
 10
21.0
 20
-33.66
 30
0.0
  0
VERTEX
  8
SupportsMoteurs
 10
21.0
 20
-33.61
 30
0.0
  0
VERTEX
  8
SupportsMoteurs
 10
21.0
 20
-33.56
 30
0.0
  0
VERTEX
  8
SupportsMoteurs
 10
21.0
 20
-33.51
 30
0.0
  0
VERTEX
  8
SupportsMoteurs
 10
21.0
 20
-33.5
 30
0.0
  0
SEQEND
  8
SupportsMoteurs
  0
LINE
  8
SupportsMoteurs
 62
0
 10
19.5
 20
42.5
 30
0.0
 11
21.0
 21
42.5
 31
0.0
  0
LINE
  8
SupportsMoteurs
 62
0
 10
19.5
 20
42.5
 30
0.0
 11
21.0
 21
42.5
 31
0.0
  0
LINE
  8
SupportsMoteurs
 62
0
 10
19.5
 20
34.5
 30
0.0
 11
21.0
 21
34.5
 31
0.0
  0
LINE
  8
SupportsMoteurs
 62
0
 10
19.5
 20
34.5
 30
0.0
 11
19.5
 21
42.5
 31
0.0
  0
LINE
  8
SupportsMoteurs
 62
0
 10
21.0
 20
34.5
 30
0.0
 11
21.0
 21
42.5
 31
0.0
  0
LINE
  8
SupportsMoteurs
 62
0
 10
19.5
 20
33.5
 30
0.0
 11
21.0
 21
33.5
 31
0.0
  0
LINE
  8
SupportsMoteurs
 62
0
 10
19.5
 20
33.5
 30
0.0
 11
21.0
 21
33.5
 31
0.0
  0
LINE
  8
SupportsMoteurs
 62
0
 10
19.5
 20
32.0
 30
0.0
 11
21.0
 21
32.0
 31
0.0
  0
LINE
  8
SupportsMoteurs
 62
0
 10
19.5
 20
32.0
 30
0.0
 11
19.5
 21
33.5
 31
0.0
  0
LINE
  8
SupportsMoteurs
 62
0
 10
21.0
 20
32.0
 30
0.0
 11
21.0
 21
33.5
 31
0.0
  0
LINE
  8
SupportsMoteurs
 62
0
 10
19.5
 20
31.0
 30
0.0
 11
21.0
 21
31.0
 31
0.0
  0
LINE
  8
SupportsMoteurs
 62
0
 10
19.5
 20
28.5
 30
0.0
 11
19.5
 21
30.5
 31
0.0
  0
LINE
  8
SupportsMoteurs
 62
0
 10
21.0
 20
28.5
 30
0.0
 11
21.0
 21
30.5
 31
0.0
  0
LINE
  8
SupportsMoteurs
 62
0
 10
19.5
 20
28.0
 30
0.0
 11
21.0
 21
28.0
 31
0.0
  0
LINE
  8
SupportsMoteurs
 62
0
 10
19.5
 20
27.29
 30
0.0
 11
21.0
 21
27.29
 31
0.0
  0
LINE
  8
SupportsMoteurs
 62
0
 10
19.5
 20
15.0
 30
0.0
 11
21.0
 21
15.0
 31
0.0
  0
LINE
  8
SupportsMoteurs
 62
0
 10
19.5
 20
15.0
 30
0.0
 11
19.5
 21
27.29
 31
0.0
  0
LINE
  8
SupportsMoteurs
 62
0
 10
21.0
 20
15.0
 30
0.0
 11
21.0
 21
27.29
 31
0.0
  0
LINE
  8
SupportsMoteurs
 62
0
 10
19.5
 20
14.29
 30
0.0
 11
21.0
 21
14.29
 31
0.0
  0
LINE
  8
SupportsMoteurs
 62
0
 10
19.5
 20
11.71
 30
0.0
 11
21.0
 21
11.71
 31
0.0
  0
LINE
  8
SupportsMoteurs
 62
0
 10
19.5
 20
11.71
 30
0.0
 11
19.5
 21
14.29
 31
0.0
  0
LINE
  8
SupportsMoteurs
 62
0
 10
21.0
 20
11.71
 30
0.0
 11
21.0
 21
14.29
 31
0.0
  0
LINE
  8
SupportsMoteurs
 62
0
 10
19.5
 20
11.0
 30
0.0
 11
21.0
 21
11.0
 31
0.0
  0
LINE
  8
SupportsMoteurs
 62
0
 10
19.5
 20
11.0
 30
0.0
 11
21.0
 21
11.0
 31
0.0
  0
LINE
  8
SupportsMoteurs
 62
0
 10
19.5
 20
6.480741
 30
0.0
 11
21.0
 21
6.480741
 31
0.0
  0
LINE
  8
SupportsMoteurs
 62
0
 10
19.5
 20
6.480741
 30
0.0
 11
19.5
 21
11.0
 31
0.0
  0
LINE
  8
SupportsMoteurs
 62
0
 10
21.0
 20
6.480741
 30
0.0
 11
21.0
 21
11.0
 31
0.0
  0
LINE
  8
SupportsMoteurs
 62
0
 10
19.5
 20
3.5
 30
0.0
 11
21.0
 21
3.5
 31
0.0
  0
LINE
  8
SupportsMoteurs
 62
0
 10
19.5
 20
2.5
 30
0.0
 11
21.0
 21
2.5
 31
0.0
  0
LINE
  8
SupportsMoteurs
 62
0
 10
19.5
 20
2.5
 30
0.0
 11
19.5
 21
3.5
 31
0.0
  0
LINE
  8
SupportsMoteurs
 62
0
 10
21.0
 20
2.5
 30
0.0
 11
21.0
 21
3.5
 31
0.0
  0
LINE
  8
SupportsMoteurs
 62
0
 10
19.5
 20
1.5
 30
0.0
 11
21.0
 21
1.5
 31
0.0
  0
LINE
  8
SupportsMoteurs
 62
0
 10
19.5
 20
-1.0
 30
0.0
 11
19.5
 21
1.0
 31
0.0
  0
LINE
  8
SupportsMoteurs
 62
0
 10
21.0
 20
-1.0
 30
0.0
 11
21.0
 21
1.0
 31
0.0
  0
LINE
  8
SupportsMoteurs
 62
0
 10
19.5
 20
-1.5
 30
0.0
 11
21.0
 21
-1.5
 31
0.0
  0
LINE
  8
SupportsMoteurs
 62
0
 10
19.5
 20
-2.21
 30
0.0
 11
21.0
 21
-2.21
 31
0.0
  0
LINE
  8
SupportsMoteurs
 62
0
 10
19.5
 20
-3.0
 30
0.0
 11
21.0
 21
-3.0
 31
0.0
  0
LINE
  8
SupportsMoteurs
 62
0
 10
19.5
 20
-3.0
 30
0.0
 11
19.5
 21
-2.21
 31
0.0
  0
LINE
  8
SupportsMoteurs
 62
0
 10
21.0
 20
-3.0
 30
0.0
 11
21.0
 21
-2.21
 31
0.0
  0
LINE
  8
SupportsMoteurs
 62
0
 10
19.5
 20
-6.480741
 30
0.0
 11
21.0
 21
-6.480741
 31
0.0
  0
LINE
  8
SupportsMoteurs
 62
0
 10
19.5
 20
-11.0
 30
0.0
 11
21.0
 21
-11.0
 31
0.0
  0
LINE
  8
SupportsMoteurs
 62
0
 10
19.5
 20
-11.0
 30
0.0
 11
19.5
 21
-6.480741
 31
0.0
  0
LINE
  8
SupportsMoteurs
 62
0
 10
21.0
 20
-11.0
 30
0.0
 11
21.0
 21
-6.480741
 31
0.0
  0
LINE
  8
SupportsMoteurs
 62
0
 10
19.5
 20
-11.71
 30
0.0
 11
21.0
 21
-11.71
 31
0.0
  0
LINE
  8
SupportsMoteurs
 62
0
 10
19.5
 20
-14.29
 30
0.0
 11
21.0
 21
-14.29
 31
0.0
  0
LINE
  8
SupportsMoteurs
 62
0
 10
19.5
 20
-14.29
 30
0.0
 11
19.5
 21
-11.71
 31
0.0
  0
LINE
  8
SupportsMoteurs
 62
0
 10
21.0
 20
-14.29
 30
0.0
 11
21.0
 21
-11.71
 31
0.0
  0
LINE
  8
SupportsMoteurs
 62
0
 10
19.5
 20
-15.0
 30
0.0
 11
21.0
 21
-15.0
 31
0.0
  0
LINE
  8
SupportsMoteurs
 62
0
 10
19.5
 20
-15.0
 30
0.0
 11
21.0
 21
-15.0
 31
0.0
  0
LINE
  8
SupportsMoteurs
 62
0
 10
19.5
 20
-29.79
 30
0.0
 11
21.0
 21
-29.79
 31
0.0
  0
LINE
  8
SupportsMoteurs
 62
0
 10
19.5
 20
-29.79
 30
0.0
 11
19.5
 21
-15.0
 31
0.0
  0
LINE
  8
SupportsMoteurs
 62
0
 10
21.0
 20
-29.79
 30
0.0
 11
21.0
 21
-15.0
 31
0.0
  0
LINE
  8
SupportsMoteurs
 62
0
 10
19.5
 20
-30.5
 30
0.0
 11
21.0
 21
-30.5
 31
0.0
  0
LINE
  8
SupportsMoteurs
 62
0
 10
19.5
 20
-33.0
 30
0.0
 11
19.5
 21
-31.0
 31
0.0
  0
LINE
  8
SupportsMoteurs
 62
0
 10
21.0
 20
-33.0
 30
0.0
 11
21.0
 21
-31.0
 31
0.0
  0
LINE
  8
SupportsMoteurs
 62
0
 10
19.5
 20
-33.5
 30
0.0
 11
21.0
 21
-33.5
 31
0.0
  0
LINE
  8
SupportsMoteurs
 62
0
 10
19.5
 20
-34.21
 30
0.0
 11
21.0
 21
-34.21
 31
0.0
  0
LINE
  8
SupportsMoteurs
 62
0
 10
19.5
 20
-35.0
 30
0.0
 11
19.5
 21
-34.21
 31
0.0
  0
LINE
  8
SupportsMoteurs
 62
0
 10
21.0
 20
-35.0
 30
0.0
 11
21.0
 21
-34.21
 31
0.0
  0
LINE
  8
SupportsMoteurs
 62
0
 10
19.5
 20
-36.0
 30
0.0
 11
21.0
 21
-36.0
 31
0.0
  0
LINE
  8
SupportsMoteurs
 62
0
 10
19.5
 20
-36.0
 30
0.0
 11
19.5
 21
-35.0
 31
0.0
  0
LINE
  8
SupportsMoteurs
 62
0
 10
21.0
 20
-36.0
 30
0.0
 11
21.0
 21
-35.0
 31
0.0
  0
LINE
  8
SupportsMoteurs
 62
0
 10
19.5
 20
30.5
 30
0.0
 11
21.0
 21
30.5
 31
0.0
  0
LINE
  8
SupportsMoteurs
 62
0
 10
19.5
 20
28.5
 30
0.0
 11
21.0
 21
28.5
 31
0.0
  0
LINE
  8
SupportsMoteurs
 62
0
 10
19.5
 20
4.25
 30
0.0
 11
21.0
 21
4.25
 31
0.0
  0
LINE
  8
SupportsMoteurs
 62
0
 10
19.5
 20
1.0
 30
0.0
 11
21.0
 21
1.0
 31
0.0
  0
LINE
  8
SupportsMoteurs
 62
0
 10
19.5
 20
-1.0
 30
0.0
 11
21.0
 21
-1.0
 31
0.0
  0
LINE
  8
SupportsMoteurs
 62
0
 10
19.5
 20
-4.25
 30
0.0
 11
21.0
 21
-4.25
 31
0.0
  0
LINE
  8
SupportsMoteurs
 62
0
 10
19.5
 20
-31.0
 30
0.0
 11
21.0
 21
-31.0
 31
0.0
  0
LINE
  8
SupportsMoteurs
 62
0
 10
19.5
 20
-33.0
 30
0.0
 11
21.0
 21
-33.0
 31
0.0
  0
LINE
  8
SupportsMoteurs
 62
0
 10
19.5
 20
-35.0
 30
0.0
 11
21.0
 21
-35.0
 31
0.0
  0
ENDBLK
  0
BLOCK
  8
SupportsMoteurs
  2
CLONE133
 70
0
 10
0.0
 20
0.0
 30
0.0
  3
CLONE133
  0
POLYLINE
  8
SupportsMoteurs
 62
0
 70
0
 66
1
 10
0.0
 20
0.0
 30
0.0
  0
VERTEX
  8
SupportsMoteurs
 10
-21.0
 20
33.5
 30
0.0
  0
VERTEX
  8
SupportsMoteurs
 10
-21.0
 20
33.55
 30
0.0
  0
VERTEX
  8
SupportsMoteurs
 10
-21.0
 20
33.6
 30
0.0
  0
VERTEX
  8
SupportsMoteurs
 10
-21.0
 20
33.65
 30
0.0
  0
VERTEX
  8
SupportsMoteurs
 10
-21.0
 20
33.7
 30
0.0
  0
VERTEX
  8
SupportsMoteurs
 10
-21.0
 20
33.75
 30
0.0
  0
VERTEX
  8
SupportsMoteurs
 10
-21.0
 20
33.8
 30
0.0
  0
VERTEX
  8
SupportsMoteurs
 10
-21.0
 20
33.85
 30
0.0
  0
VERTEX
  8
SupportsMoteurs
 10
-21.0
 20
33.9
 30
0.0
  0
VERTEX
  8
SupportsMoteurs
 10
-21.0
 20
33.95
 30
0.0
  0
VERTEX
  8
SupportsMoteurs
 10
-21.0
 20
34.0
 30
0.0
  0
VERTEX
  8
SupportsMoteurs
 10
-21.0
 20
34.05
 30
0.0
  0
VERTEX
  8
SupportsMoteurs
 10
-21.0
 20
34.1
 30
0.0
  0
VERTEX
  8
SupportsMoteurs
 10
-21.0
 20
34.15
 30
0.0
  0
VERTEX
  8
SupportsMoteurs
 10
-21.0
 20
34.2
 30
0.0
  0
VERTEX
  8
SupportsMoteurs
 10
-21.0
 20
34.25
 30
0.0
  0
VERTEX
  8
SupportsMoteurs
 10
-21.0
 20
34.3
 30
0.0
  0
VERTEX
  8
SupportsMoteurs
 10
-21.0
 20
34.35
 30
0.0
  0
VERTEX
  8
SupportsMoteurs
 10
-21.0
 20
34.4
 30
0.0
  0
VERTEX
  8
SupportsMoteurs
 10
-21.0
 20
34.45
 30
0.0
  0
VERTEX
  8
SupportsMoteurs
 10
-21.0
 20
34.5
 30
0.0
  0
SEQEND
  8
SupportsMoteurs
  0
POLYLINE
  8
SupportsMoteurs
 62
0
 70
0
 66
1
 10
0.0
 20
0.0
 30
0.0
  0
VERTEX
  8
SupportsMoteurs
 10
-19.5
 20
33.5
 30
0.0
  0
VERTEX
  8
SupportsMoteurs
 10
-19.5
 20
33.55
 30
0.0
  0
VERTEX
  8
SupportsMoteurs
 10
-19.5
 20
33.6
 30
0.0
  0
VERTEX
  8
SupportsMoteurs
 10
-19.5
 20
33.65
 30
0.0
  0
VERTEX
  8
SupportsMoteurs
 10
-19.5
 20
33.7
 30
0.0
  0
VERTEX
  8
SupportsMoteurs
 10
-19.5
 20
33.75
 30
0.0
  0
VERTEX
  8
SupportsMoteurs
 10
-19.5
 20
33.8
 30
0.0
  0
VERTEX
  8
SupportsMoteurs
 10
-19.5
 20
33.85
 30
0.0
  0
VERTEX
  8
SupportsMoteurs
 10
-19.5
 20
33.9
 30
0.0
  0
VERTEX
  8
SupportsMoteurs
 10
-19.5
 20
33.95
 30
0.0
  0
VERTEX
  8
SupportsMoteurs
 10
-19.5
 20
34.0
 30
0.0
  0
VERTEX
  8
SupportsMoteurs
 10
-19.5
 20
34.05
 30
0.0
  0
VERTEX
  8
SupportsMoteurs
 10
-19.5
 20
34.1
 30
0.0
  0
VERTEX
  8
SupportsMoteurs
 10
-19.5
 20
34.15
 30
0.0
  0
VERTEX
  8
SupportsMoteurs
 10
-19.5
 20
34.2
 30
0.0
  0
VERTEX
  8
SupportsMoteurs
 10
-19.5
 20
34.25
 30
0.0
  0
VERTEX
  8
SupportsMoteurs
 10
-19.5
 20
34.3
 30
0.0
  0
VERTEX
  8
SupportsMoteurs
 10
-19.5
 20
34.35
 30
0.0
  0
VERTEX
  8
SupportsMoteurs
 10
-19.5
 20
34.4
 30
0.0
  0
VERTEX
  8
SupportsMoteurs
 10
-19.5
 20
34.45
 30
0.0
  0
VERTEX
  8
SupportsMoteurs
 10
-19.5
 20
34.5
 30
0.0
  0
SEQEND
  8
SupportsMoteurs
  0
POLYLINE
  8
SupportsMoteurs
 62
0
 70
0
 66
1
 10
0.0
 20
0.0
 30
0.0
  0
VERTEX
  8
SupportsMoteurs
 10
-21.0
 20
31.0
 30
0.0
  0
VERTEX
  8
SupportsMoteurs
 10
-21.0
 20
31.05
 30
0.0
  0
VERTEX
  8
SupportsMoteurs
 10
-21.0
 20
31.1
 30
0.0
  0
VERTEX
  8
SupportsMoteurs
 10
-21.0
 20
31.15
 30
0.0
  0
VERTEX
  8
SupportsMoteurs
 10
-21.0
 20
31.2
 30
0.0
  0
VERTEX
  8
SupportsMoteurs
 10
-21.0
 20
31.25
 30
0.0
  0
VERTEX
  8
SupportsMoteurs
 10
-21.0
 20
31.3
 30
0.0
  0
VERTEX
  8
SupportsMoteurs
 10
-21.0
 20
31.35
 30
0.0
  0
VERTEX
  8
SupportsMoteurs
 10
-21.0
 20
31.4
 30
0.0
  0
VERTEX
  8
SupportsMoteurs
 10
-21.0
 20
31.45
 30
0.0
  0
VERTEX
  8
SupportsMoteurs
 10
-21.0
 20
31.5
 30
0.0
  0
VERTEX
  8
SupportsMoteurs
 10
-21.0
 20
31.55
 30
0.0
  0
VERTEX
  8
SupportsMoteurs
 10
-21.0
 20
31.6
 30
0.0
  0
VERTEX
  8
SupportsMoteurs
 10
-21.0
 20
31.65
 30
0.0
  0
VERTEX
  8
SupportsMoteurs
 10
-21.0
 20
31.7
 30
0.0
  0
VERTEX
  8
SupportsMoteurs
 10
-21.0
 20
31.75
 30
0.0
  0
VERTEX
  8
SupportsMoteurs
 10
-21.0
 20
31.8
 30
0.0
  0
VERTEX
  8
SupportsMoteurs
 10
-21.0
 20
31.85
 30
0.0
  0
VERTEX
  8
SupportsMoteurs
 10
-21.0
 20
31.9
 30
0.0
  0
VERTEX
  8
SupportsMoteurs
 10
-21.0
 20
31.95
 30
0.0
  0
VERTEX
  8
SupportsMoteurs
 10
-21.0
 20
32.0
 30
0.0
  0
SEQEND
  8
SupportsMoteurs
  0
POLYLINE
  8
SupportsMoteurs
 62
0
 70
0
 66
1
 10
0.0
 20
0.0
 30
0.0
  0
VERTEX
  8
SupportsMoteurs
 10
-19.5
 20
31.0
 30
0.0
  0
VERTEX
  8
SupportsMoteurs
 10
-19.5
 20
31.05
 30
0.0
  0
VERTEX
  8
SupportsMoteurs
 10
-19.5
 20
31.1
 30
0.0
  0
VERTEX
  8
SupportsMoteurs
 10
-19.5
 20
31.15
 30
0.0
  0
VERTEX
  8
SupportsMoteurs
 10
-19.5
 20
31.2
 30
0.0
  0
VERTEX
  8
SupportsMoteurs
 10
-19.5
 20
31.25
 30
0.0
  0
VERTEX
  8
SupportsMoteurs
 10
-19.5
 20
31.3
 30
0.0
  0
VERTEX
  8
SupportsMoteurs
 10
-19.5
 20
31.35
 30
0.0
  0
VERTEX
  8
SupportsMoteurs
 10
-19.5
 20
31.4
 30
0.0
  0
VERTEX
  8
SupportsMoteurs
 10
-19.5
 20
31.45
 30
0.0
  0
VERTEX
  8
SupportsMoteurs
 10
-19.5
 20
31.5
 30
0.0
  0
VERTEX
  8
SupportsMoteurs
 10
-19.5
 20
31.55
 30
0.0
  0
VERTEX
  8
SupportsMoteurs
 10
-19.5
 20
31.6
 30
0.0
  0
VERTEX
  8
SupportsMoteurs
 10
-19.5
 20
31.65
 30
0.0
  0
VERTEX
  8
SupportsMoteurs
 10
-19.5
 20
31.7
 30
0.0
  0
VERTEX
  8
SupportsMoteurs
 10
-19.5
 20
31.75
 30
0.0
  0
VERTEX
  8
SupportsMoteurs
 10
-19.5
 20
31.8
 30
0.0
  0
VERTEX
  8
SupportsMoteurs
 10
-19.5
 20
31.85
 30
0.0
  0
VERTEX
  8
SupportsMoteurs
 10
-19.5
 20
31.9
 30
0.0
  0
VERTEX
  8
SupportsMoteurs
 10
-19.5
 20
31.95
 30
0.0
  0
VERTEX
  8
SupportsMoteurs
 10
-19.5
 20
32.0
 30
0.0
  0
SEQEND
  8
SupportsMoteurs
  0
POLYLINE
  8
SupportsMoteurs
 62
0
 70
0
 66
1
 10
0.0
 20
0.0
 30
0.0
  0
VERTEX
  8
SupportsMoteurs
 10
-21.0
 20
31.0
 30
0.0
  0
VERTEX
  8
SupportsMoteurs
 10
-21.0
 20
30.95
 30
0.0
  0
VERTEX
  8
SupportsMoteurs
 10
-21.0
 20
30.9
 30
0.0
  0
VERTEX
  8
SupportsMoteurs
 10
-21.0
 20
30.85
 30
0.0
  0
VERTEX
  8
SupportsMoteurs
 10
-21.0
 20
30.8
 30
0.0
  0
VERTEX
  8
SupportsMoteurs
 10
-21.0
 20
30.75
 30
0.0
  0
VERTEX
  8
SupportsMoteurs
 10
-21.0
 20
30.7
 30
0.0
  0
VERTEX
  8
SupportsMoteurs
 10
-21.0
 20
30.65
 30
0.0
  0
VERTEX
  8
SupportsMoteurs
 10
-21.0
 20
30.6
 30
0.0
  0
VERTEX
  8
SupportsMoteurs
 10
-21.0
 20
30.55
 30
0.0
  0
VERTEX
  8
SupportsMoteurs
 10
-21.0
 20
30.5
 30
0.0
  0
SEQEND
  8
SupportsMoteurs
  0
POLYLINE
  8
SupportsMoteurs
 62
0
 70
0
 66
1
 10
0.0
 20
0.0
 30
0.0
  0
VERTEX
  8
SupportsMoteurs
 10
-19.5
 20
31.0
 30
0.0
  0
VERTEX
  8
SupportsMoteurs
 10
-19.5
 20
30.95
 30
0.0
  0
VERTEX
  8
SupportsMoteurs
 10
-19.5
 20
30.9
 30
0.0
  0
VERTEX
  8
SupportsMoteurs
 10
-19.5
 20
30.85
 30
0.0
  0
VERTEX
  8
SupportsMoteurs
 10
-19.5
 20
30.8
 30
0.0
  0
VERTEX
  8
SupportsMoteurs
 10
-19.5
 20
30.75
 30
0.0
  0
VERTEX
  8
SupportsMoteurs
 10
-19.5
 20
30.7
 30
0.0
  0
VERTEX
  8
SupportsMoteurs
 10
-19.5
 20
30.65
 30
0.0
  0
VERTEX
  8
SupportsMoteurs
 10
-19.5
 20
30.6
 30
0.0
  0
VERTEX
  8
SupportsMoteurs
 10
-19.5
 20
30.55
 30
0.0
  0
VERTEX
  8
SupportsMoteurs
 10
-19.5
 20
30.5
 30
0.0
  0
SEQEND
  8
SupportsMoteurs
  0
POLYLINE
  8
SupportsMoteurs
 62
0
 70
0
 66
1
 10
0.0
 20
0.0
 30
0.0
  0
VERTEX
  8
SupportsMoteurs
 10
-21.0
 20
28.5
 30
0.0
  0
VERTEX
  8
SupportsMoteurs
 10
-21.0
 20
28.45
 30
0.0
  0
VERTEX
  8
SupportsMoteurs
 10
-21.0
 20
28.4
 30
0.0
  0
VERTEX
  8
SupportsMoteurs
 10
-21.0
 20
28.35
 30
0.0
  0
VERTEX
  8
SupportsMoteurs
 10
-21.0
 20
28.3
 30
0.0
  0
VERTEX
  8
SupportsMoteurs
 10
-21.0
 20
28.25
 30
0.0
  0
VERTEX
  8
SupportsMoteurs
 10
-21.0
 20
28.2
 30
0.0
  0
VERTEX
  8
SupportsMoteurs
 10
-21.0
 20
28.15
 30
0.0
  0
VERTEX
  8
SupportsMoteurs
 10
-21.0
 20
28.1
 30
0.0
  0
VERTEX
  8
SupportsMoteurs
 10
-21.0
 20
28.05
 30
0.0
  0
VERTEX
  8
SupportsMoteurs
 10
-21.0
 20
28.0
 30
0.0
  0
SEQEND
  8
SupportsMoteurs
  0
POLYLINE
  8
SupportsMoteurs
 62
0
 70
0
 66
1
 10
0.0
 20
0.0
 30
0.0
  0
VERTEX
  8
SupportsMoteurs
 10
-19.5
 20
28.5
 30
0.0
  0
VERTEX
  8
SupportsMoteurs
 10
-19.5
 20
28.45
 30
0.0
  0
VERTEX
  8
SupportsMoteurs
 10
-19.5
 20
28.4
 30
0.0
  0
VERTEX
  8
SupportsMoteurs
 10
-19.5
 20
28.35
 30
0.0
  0
VERTEX
  8
SupportsMoteurs
 10
-19.5
 20
28.3
 30
0.0
  0
VERTEX
  8
SupportsMoteurs
 10
-19.5
 20
28.25
 30
0.0
  0
VERTEX
  8
SupportsMoteurs
 10
-19.5
 20
28.2
 30
0.0
  0
VERTEX
  8
SupportsMoteurs
 10
-19.5
 20
28.15
 30
0.0
  0
VERTEX
  8
SupportsMoteurs
 10
-19.5
 20
28.1
 30
0.0
  0
VERTEX
  8
SupportsMoteurs
 10
-19.5
 20
28.05
 30
0.0
  0
VERTEX
  8
SupportsMoteurs
 10
-19.5
 20
28.0
 30
0.0
  0
SEQEND
  8
SupportsMoteurs
  0
POLYLINE
  8
SupportsMoteurs
 62
0
 70
0
 66
1
 10
0.0
 20
0.0
 30
0.0
  0
VERTEX
  8
SupportsMoteurs
 10
-21.0
 20
27.29
 30
0.0
  0
VERTEX
  8
SupportsMoteurs
 10
-21.0
 20
27.34
 30
0.0
  0
VERTEX
  8
SupportsMoteurs
 10
-21.0
 20
27.39
 30
0.0
  0
VERTEX
  8
SupportsMoteurs
 10
-21.0
 20
27.44
 30
0.0
  0
VERTEX
  8
SupportsMoteurs
 10
-21.0
 20
27.49
 30
0.0
  0
VERTEX
  8
SupportsMoteurs
 10
-21.0
 20
27.54
 30
0.0
  0
VERTEX
  8
SupportsMoteurs
 10
-21.0
 20
27.59
 30
0.0
  0
VERTEX
  8
SupportsMoteurs
 10
-21.0
 20
27.64
 30
0.0
  0
VERTEX
  8
SupportsMoteurs
 10
-21.0
 20
27.69
 30
0.0
  0
VERTEX
  8
SupportsMoteurs
 10
-21.0
 20
27.74
 30
0.0
  0
VERTEX
  8
SupportsMoteurs
 10
-21.0
 20
27.79
 30
0.0
  0
VERTEX
  8
SupportsMoteurs
 10
-21.0
 20
27.84
 30
0.0
  0
VERTEX
  8
SupportsMoteurs
 10
-21.0
 20
27.89
 30
0.0
  0
VERTEX
  8
SupportsMoteurs
 10
-21.0
 20
27.94
 30
0.0
  0
VERTEX
  8
SupportsMoteurs
 10
-21.0
 20
27.99
 30
0.0
  0
VERTEX
  8
SupportsMoteurs
 10
-21.0
 20
28.0
 30
0.0
  0
SEQEND
  8
SupportsMoteurs
  0
POLYLINE
  8
SupportsMoteurs
 62
0
 70
0
 66
1
 10
0.0
 20
0.0
 30
0.0
  0
VERTEX
  8
SupportsMoteurs
 10
-19.5
 20
27.29
 30
0.0
  0
VERTEX
  8
SupportsMoteurs
 10
-19.5
 20
27.34
 30
0.0
  0
VERTEX
  8
SupportsMoteurs
 10
-19.5
 20
27.39
 30
0.0
  0
VERTEX
  8
SupportsMoteurs
 10
-19.5
 20
27.44
 30
0.0
  0
VERTEX
  8
SupportsMoteurs
 10
-19.5
 20
27.49
 30
0.0
  0
VERTEX
  8
SupportsMoteurs
 10
-19.5
 20
27.54
 30
0.0
  0
VERTEX
  8
SupportsMoteurs
 10
-19.5
 20
27.59
 30
0.0
  0
VERTEX
  8
SupportsMoteurs
 10
-19.5
 20
27.64
 30
0.0
  0
VERTEX
  8
SupportsMoteurs
 10
-19.5
 20
27.69
 30
0.0
  0
VERTEX
  8
SupportsMoteurs
 10
-19.5
 20
27.74
 30
0.0
  0
VERTEX
  8
SupportsMoteurs
 10
-19.5
 20
27.79
 30
0.0
  0
VERTEX
  8
SupportsMoteurs
 10
-19.5
 20
27.84
 30
0.0
  0
VERTEX
  8
SupportsMoteurs
 10
-19.5
 20
27.89
 30
0.0
  0
VERTEX
  8
SupportsMoteurs
 10
-19.5
 20
27.94
 30
0.0
  0
VERTEX
  8
SupportsMoteurs
 10
-19.5
 20
27.99
 30
0.0
  0
VERTEX
  8
SupportsMoteurs
 10
-19.5
 20
28.0
 30
0.0
  0
SEQEND
  8
SupportsMoteurs
  0
POLYLINE
  8
SupportsMoteurs
 62
0
 70
0
 66
1
 10
0.0
 20
0.0
 30
0.0
  0
VERTEX
  8
SupportsMoteurs
 10
-21.0
 20
14.29
 30
0.0
  0
VERTEX
  8
SupportsMoteurs
 10
-21.0
 20
14.34
 30
0.0
  0
VERTEX
  8
SupportsMoteurs
 10
-21.0
 20
14.39
 30
0.0
  0
VERTEX
  8
SupportsMoteurs
 10
-21.0
 20
14.44
 30
0.0
  0
VERTEX
  8
SupportsMoteurs
 10
-21.0
 20
14.49
 30
0.0
  0
VERTEX
  8
SupportsMoteurs
 10
-21.0
 20
14.54
 30
0.0
  0
VERTEX
  8
SupportsMoteurs
 10
-21.0
 20
14.59
 30
0.0
  0
VERTEX
  8
SupportsMoteurs
 10
-21.0
 20
14.64
 30
0.0
  0
VERTEX
  8
SupportsMoteurs
 10
-21.0
 20
14.69
 30
0.0
  0
VERTEX
  8
SupportsMoteurs
 10
-21.0
 20
14.74
 30
0.0
  0
VERTEX
  8
SupportsMoteurs
 10
-21.0
 20
14.79
 30
0.0
  0
VERTEX
  8
SupportsMoteurs
 10
-21.0
 20
14.84
 30
0.0
  0
VERTEX
  8
SupportsMoteurs
 10
-21.0
 20
14.89
 30
0.0
  0
VERTEX
  8
SupportsMoteurs
 10
-21.0
 20
14.94
 30
0.0
  0
VERTEX
  8
SupportsMoteurs
 10
-21.0
 20
14.99
 30
0.0
  0
VERTEX
  8
SupportsMoteurs
 10
-21.0
 20
15.0
 30
0.0
  0
SEQEND
  8
SupportsMoteurs
  0
POLYLINE
  8
SupportsMoteurs
 62
0
 70
0
 66
1
 10
0.0
 20
0.0
 30
0.0
  0
VERTEX
  8
SupportsMoteurs
 10
-19.5
 20
14.29
 30
0.0
  0
VERTEX
  8
SupportsMoteurs
 10
-19.5
 20
14.34
 30
0.0
  0
VERTEX
  8
SupportsMoteurs
 10
-19.5
 20
14.39
 30
0.0
  0
VERTEX
  8
SupportsMoteurs
 10
-19.5
 20
14.44
 30
0.0
  0
VERTEX
  8
SupportsMoteurs
 10
-19.5
 20
14.49
 30
0.0
  0
VERTEX
  8
SupportsMoteurs
 10
-19.5
 20
14.54
 30
0.0
  0
VERTEX
  8
SupportsMoteurs
 10
-19.5
 20
14.59
 30
0.0
  0
VERTEX
  8
SupportsMoteurs
 10
-19.5
 20
14.64
 30
0.0
  0
VERTEX
  8
SupportsMoteurs
 10
-19.5
 20
14.69
 30
0.0
  0
VERTEX
  8
SupportsMoteurs
 10
-19.5
 20
14.74
 30
0.0
  0
VERTEX
  8
SupportsMoteurs
 10
-19.5
 20
14.79
 30
0.0
  0
VERTEX
  8
SupportsMoteurs
 10
-19.5
 20
14.84
 30
0.0
  0
VERTEX
  8
SupportsMoteurs
 10
-19.5
 20
14.89
 30
0.0
  0
VERTEX
  8
SupportsMoteurs
 10
-19.5
 20
14.94
 30
0.0
  0
VERTEX
  8
SupportsMoteurs
 10
-19.5
 20
14.99
 30
0.0
  0
VERTEX
  8
SupportsMoteurs
 10
-19.5
 20
15.0
 30
0.0
  0
SEQEND
  8
SupportsMoteurs
  0
POLYLINE
  8
SupportsMoteurs
 62
0
 70
0
 66
1
 10
0.0
 20
0.0
 30
0.0
  0
VERTEX
  8
SupportsMoteurs
 10
-21.0
 20
11.0
 30
0.0
  0
VERTEX
  8
SupportsMoteurs
 10
-21.0
 20
11.05
 30
0.0
  0
VERTEX
  8
SupportsMoteurs
 10
-21.0
 20
11.1
 30
0.0
  0
VERTEX
  8
SupportsMoteurs
 10
-21.0
 20
11.15
 30
0.0
  0
VERTEX
  8
SupportsMoteurs
 10
-21.0
 20
11.2
 30
0.0
  0
VERTEX
  8
SupportsMoteurs
 10
-21.0
 20
11.25
 30
0.0
  0
VERTEX
  8
SupportsMoteurs
 10
-21.0
 20
11.3
 30
0.0
  0
VERTEX
  8
SupportsMoteurs
 10
-21.0
 20
11.35
 30
0.0
  0
VERTEX
  8
SupportsMoteurs
 10
-21.0
 20
11.4
 30
0.0
  0
VERTEX
  8
SupportsMoteurs
 10
-21.0
 20
11.45
 30
0.0
  0
VERTEX
  8
SupportsMoteurs
 10
-21.0
 20
11.5
 30
0.0
  0
VERTEX
  8
SupportsMoteurs
 10
-21.0
 20
11.55
 30
0.0
  0
VERTEX
  8
SupportsMoteurs
 10
-21.0
 20
11.6
 30
0.0
  0
VERTEX
  8
SupportsMoteurs
 10
-21.0
 20
11.65
 30
0.0
  0
VERTEX
  8
SupportsMoteurs
 10
-21.0
 20
11.7
 30
0.0
  0
VERTEX
  8
SupportsMoteurs
 10
-21.0
 20
11.71
 30
0.0
  0
SEQEND
  8
SupportsMoteurs
  0
POLYLINE
  8
SupportsMoteurs
 62
0
 70
0
 66
1
 10
0.0
 20
0.0
 30
0.0
  0
VERTEX
  8
SupportsMoteurs
 10
-19.5
 20
11.0
 30
0.0
  0
VERTEX
  8
SupportsMoteurs
 10
-19.5
 20
11.05
 30
0.0
  0
VERTEX
  8
SupportsMoteurs
 10
-19.5
 20
11.1
 30
0.0
  0
VERTEX
  8
SupportsMoteurs
 10
-19.5
 20
11.15
 30
0.0
  0
VERTEX
  8
SupportsMoteurs
 10
-19.5
 20
11.2
 30
0.0
  0
VERTEX
  8
SupportsMoteurs
 10
-19.5
 20
11.25
 30
0.0
  0
VERTEX
  8
SupportsMoteurs
 10
-19.5
 20
11.3
 30
0.0
  0
VERTEX
  8
SupportsMoteurs
 10
-19.5
 20
11.35
 30
0.0
  0
VERTEX
  8
SupportsMoteurs
 10
-19.5
 20
11.4
 30
0.0
  0
VERTEX
  8
SupportsMoteurs
 10
-19.5
 20
11.45
 30
0.0
  0
VERTEX
  8
SupportsMoteurs
 10
-19.5
 20
11.5
 30
0.0
  0
VERTEX
  8
SupportsMoteurs
 10
-19.5
 20
11.55
 30
0.0
  0
VERTEX
  8
SupportsMoteurs
 10
-19.5
 20
11.6
 30
0.0
  0
VERTEX
  8
SupportsMoteurs
 10
-19.5
 20
11.65
 30
0.0
  0
VERTEX
  8
SupportsMoteurs
 10
-19.5
 20
11.7
 30
0.0
  0
VERTEX
  8
SupportsMoteurs
 10
-19.5
 20
11.71
 30
0.0
  0
SEQEND
  8
SupportsMoteurs
  0
POLYLINE
  8
SupportsMoteurs
 62
0
 70
0
 66
1
 10
0.0
 20
0.0
 30
0.0
  0
VERTEX
  8
SupportsMoteurs
 10
-21.0
 20
6.480741
 30
0.0
  0
VERTEX
  8
SupportsMoteurs
 10
-21.0
 20
6.430741
 30
0.0
  0
VERTEX
  8
SupportsMoteurs
 10
-21.0
 20
6.380741
 30
0.0
  0
VERTEX
  8
SupportsMoteurs
 10
-21.0
 20
6.330741
 30
0.0
  0
VERTEX
  8
SupportsMoteurs
 10
-21.0
 20
6.280741
 30
0.0
  0
VERTEX
  8
SupportsMoteurs
 10
-21.0
 20
6.230741
 30
0.0
  0
VERTEX
  8
SupportsMoteurs
 10
-21.0
 20
6.180741
 30
0.0
  0
VERTEX
  8
SupportsMoteurs
 10
-21.0
 20
6.130741
 30
0.0
  0
VERTEX
  8
SupportsMoteurs
 10
-21.0
 20
6.080741
 30
0.0
  0
VERTEX
  8
SupportsMoteurs
 10
-21.0
 20
6.030741
 30
0.0
  0
VERTEX
  8
SupportsMoteurs
 10
-21.0
 20
5.980741
 30
0.0
  0
VERTEX
  8
SupportsMoteurs
 10
-21.0
 20
5.930741
 30
0.0
  0
VERTEX
  8
SupportsMoteurs
 10
-21.0
 20
5.880741
 30
0.0
  0
VERTEX
  8
SupportsMoteurs
 10
-21.0
 20
5.830741
 30
0.0
  0
VERTEX
  8
SupportsMoteurs
 10
-21.0
 20
5.780741
 30
0.0
  0
VERTEX
  8
SupportsMoteurs
 10
-21.0
 20
5.730741
 30
0.0
  0
VERTEX
  8
SupportsMoteurs
 10
-21.0
 20
5.680741
 30
0.0
  0
VERTEX
  8
SupportsMoteurs
 10
-21.0
 20
5.630741
 30
0.0
  0
VERTEX
  8
SupportsMoteurs
 10
-21.0
 20
5.580741
 30
0.0
  0
VERTEX
  8
SupportsMoteurs
 10
-21.0
 20
5.530741
 30
0.0
  0
VERTEX
  8
SupportsMoteurs
 10
-21.0
 20
5.480741
 30
0.0
  0
VERTEX
  8
SupportsMoteurs
 10
-21.0
 20
5.430741
 30
0.0
  0
VERTEX
  8
SupportsMoteurs
 10
-21.0
 20
5.380741
 30
0.0
  0
VERTEX
  8
SupportsMoteurs
 10
-21.0
 20
5.330741
 30
0.0
  0
VERTEX
  8
SupportsMoteurs
 10
-21.0
 20
5.280741
 30
0.0
  0
VERTEX
  8
SupportsMoteurs
 10
-21.0
 20
5.230741
 30
0.0
  0
VERTEX
  8
SupportsMoteurs
 10
-21.0
 20
5.180741
 30
0.0
  0
VERTEX
  8
SupportsMoteurs
 10
-21.0
 20
5.130741
 30
0.0
  0
VERTEX
  8
SupportsMoteurs
 10
-21.0
 20
5.080741
 30
0.0
  0
VERTEX
  8
SupportsMoteurs
 10
-21.0
 20
5.030741
 30
0.0
  0
VERTEX
  8
SupportsMoteurs
 10
-21.0
 20
4.980741
 30
0.0
  0
VERTEX
  8
SupportsMoteurs
 10
-21.0
 20
4.930741
 30
0.0
  0
VERTEX
  8
SupportsMoteurs
 10
-21.0
 20
4.880741
 30
0.0
  0
VERTEX
  8
SupportsMoteurs
 10
-21.0
 20
4.830741
 30
0.0
  0
VERTEX
  8
SupportsMoteurs
 10
-21.0
 20
4.780741
 30
0.0
  0
VERTEX
  8
SupportsMoteurs
 10
-21.0
 20
4.730741
 30
0.0
  0
VERTEX
  8
SupportsMoteurs
 10
-21.0
 20
4.680741
 30
0.0
  0
VERTEX
  8
SupportsMoteurs
 10
-21.0
 20
4.630741
 30
0.0
  0
VERTEX
  8
SupportsMoteurs
 10
-21.0
 20
4.580741
 30
0.0
  0
VERTEX
  8
SupportsMoteurs
 10
-21.0
 20
4.530741
 30
0.0
  0
VERTEX
  8
SupportsMoteurs
 10
-21.0
 20
4.480741
 30
0.0
  0
VERTEX
  8
SupportsMoteurs
 10
-21.0
 20
4.430741
 30
0.0
  0
VERTEX
  8
SupportsMoteurs
 10
-21.0
 20
4.380741
 30
0.0
  0
VERTEX
  8
SupportsMoteurs
 10
-21.0
 20
4.330741
 30
0.0
  0
VERTEX
  8
SupportsMoteurs
 10
-21.0
 20
4.280741
 30
0.0
  0
VERTEX
  8
SupportsMoteurs
 10
-21.0
 20
4.25
 30
0.0
  0
SEQEND
  8
SupportsMoteurs
  0
POLYLINE
  8
SupportsMoteurs
 62
0
 70
0
 66
1
 10
0.0
 20
0.0
 30
0.0
  0
VERTEX
  8
SupportsMoteurs
 10
-19.5
 20
6.480741
 30
0.0
  0
VERTEX
  8
SupportsMoteurs
 10
-19.5
 20
6.430741
 30
0.0
  0
VERTEX
  8
SupportsMoteurs
 10
-19.5
 20
6.380741
 30
0.0
  0
VERTEX
  8
SupportsMoteurs
 10
-19.5
 20
6.330741
 30
0.0
  0
VERTEX
  8
SupportsMoteurs
 10
-19.5
 20
6.280741
 30
0.0
  0
VERTEX
  8
SupportsMoteurs
 10
-19.5
 20
6.230741
 30
0.0
  0
VERTEX
  8
SupportsMoteurs
 10
-19.5
 20
6.180741
 30
0.0
  0
VERTEX
  8
SupportsMoteurs
 10
-19.5
 20
6.130741
 30
0.0
  0
VERTEX
  8
SupportsMoteurs
 10
-19.5
 20
6.080741
 30
0.0
  0
VERTEX
  8
SupportsMoteurs
 10
-19.5
 20
6.030741
 30
0.0
  0
VERTEX
  8
SupportsMoteurs
 10
-19.5
 20
5.980741
 30
0.0
  0
VERTEX
  8
SupportsMoteurs
 10
-19.5
 20
5.930741
 30
0.0
  0
VERTEX
  8
SupportsMoteurs
 10
-19.5
 20
5.880741
 30
0.0
  0
VERTEX
  8
SupportsMoteurs
 10
-19.5
 20
5.830741
 30
0.0
  0
VERTEX
  8
SupportsMoteurs
 10
-19.5
 20
5.780741
 30
0.0
  0
VERTEX
  8
SupportsMoteurs
 10
-19.5
 20
5.730741
 30
0.0
  0
VERTEX
  8
SupportsMoteurs
 10
-19.5
 20
5.680741
 30
0.0
  0
VERTEX
  8
SupportsMoteurs
 10
-19.5
 20
5.630741
 30
0.0
  0
VERTEX
  8
SupportsMoteurs
 10
-19.5
 20
5.580741
 30
0.0
  0
VERTEX
  8
SupportsMoteurs
 10
-19.5
 20
5.530741
 30
0.0
  0
VERTEX
  8
SupportsMoteurs
 10
-19.5
 20
5.480741
 30
0.0
  0
VERTEX
  8
SupportsMoteurs
 10
-19.5
 20
5.430741
 30
0.0
  0
VERTEX
  8
SupportsMoteurs
 10
-19.5
 20
5.380741
 30
0.0
  0
VERTEX
  8
SupportsMoteurs
 10
-19.5
 20
5.330741
 30
0.0
  0
VERTEX
  8
SupportsMoteurs
 10
-19.5
 20
5.280741
 30
0.0
  0
VERTEX
  8
SupportsMoteurs
 10
-19.5
 20
5.230741
 30
0.0
  0
VERTEX
  8
SupportsMoteurs
 10
-19.5
 20
5.180741
 30
0.0
  0
VERTEX
  8
SupportsMoteurs
 10
-19.5
 20
5.130741
 30
0.0
  0
VERTEX
  8
SupportsMoteurs
 10
-19.5
 20
5.080741
 30
0.0
  0
VERTEX
  8
SupportsMoteurs
 10
-19.5
 20
5.030741
 30
0.0
  0
VERTEX
  8
SupportsMoteurs
 10
-19.5
 20
4.980741
 30
0.0
  0
VERTEX
  8
SupportsMoteurs
 10
-19.5
 20
4.930741
 30
0.0
  0
VERTEX
  8
SupportsMoteurs
 10
-19.5
 20
4.880741
 30
0.0
  0
VERTEX
  8
SupportsMoteurs
 10
-19.5
 20
4.830741
 30
0.0
  0
VERTEX
  8
SupportsMoteurs
 10
-19.5
 20
4.780741
 30
0.0
  0
VERTEX
  8
SupportsMoteurs
 10
-19.5
 20
4.730741
 30
0.0
  0
VERTEX
  8
SupportsMoteurs
 10
-19.5
 20
4.680741
 30
0.0
  0
VERTEX
  8
SupportsMoteurs
 10
-19.5
 20
4.630741
 30
0.0
  0
VERTEX
  8
SupportsMoteurs
 10
-19.5
 20
4.580741
 30
0.0
  0
VERTEX
  8
SupportsMoteurs
 10
-19.5
 20
4.530741
 30
0.0
  0
VERTEX
  8
SupportsMoteurs
 10
-19.5
 20
4.480741
 30
0.0
  0
VERTEX
  8
SupportsMoteurs
 10
-19.5
 20
4.430741
 30
0.0
  0
VERTEX
  8
SupportsMoteurs
 10
-19.5
 20
4.380741
 30
0.0
  0
VERTEX
  8
SupportsMoteurs
 10
-19.5
 20
4.330741
 30
0.0
  0
VERTEX
  8
SupportsMoteurs
 10
-19.5
 20
4.280741
 30
0.0
  0
VERTEX
  8
SupportsMoteurs
 10
-19.5
 20
4.25
 30
0.0
  0
SEQEND
  8
SupportsMoteurs
  0
POLYLINE
  8
SupportsMoteurs
 62
0
 70
0
 66
1
 10
0.0
 20
0.0
 30
0.0
  0
VERTEX
  8
SupportsMoteurs
 10
-21.0
 20
4.25
 30
0.0
  0
VERTEX
  8
SupportsMoteurs
 10
-21.0
 20
4.2
 30
0.0
  0
VERTEX
  8
SupportsMoteurs
 10
-21.0
 20
4.15
 30
0.0
  0
VERTEX
  8
SupportsMoteurs
 10
-21.0
 20
4.1
 30
0.0
  0
VERTEX
  8
SupportsMoteurs
 10
-21.0
 20
4.05
 30
0.0
  0
VERTEX
  8
SupportsMoteurs
 10
-21.0
 20
4.0
 30
0.0
  0
VERTEX
  8
SupportsMoteurs
 10
-21.0
 20
3.95
 30
0.0
  0
VERTEX
  8
SupportsMoteurs
 10
-21.0
 20
3.9
 30
0.0
  0
VERTEX
  8
SupportsMoteurs
 10
-21.0
 20
3.85
 30
0.0
  0
VERTEX
  8
SupportsMoteurs
 10
-21.0
 20
3.8
 30
0.0
  0
VERTEX
  8
SupportsMoteurs
 10
-21.0
 20
3.75
 30
0.0
  0
VERTEX
  8
SupportsMoteurs
 10
-21.0
 20
3.7
 30
0.0
  0
VERTEX
  8
SupportsMoteurs
 10
-21.0
 20
3.65
 30
0.0
  0
VERTEX
  8
SupportsMoteurs
 10
-21.0
 20
3.6
 30
0.0
  0
VERTEX
  8
SupportsMoteurs
 10
-21.0
 20
3.55
 30
0.0
  0
VERTEX
  8
SupportsMoteurs
 10
-21.0
 20
3.5
 30
0.0
  0
SEQEND
  8
SupportsMoteurs
  0
POLYLINE
  8
SupportsMoteurs
 62
0
 70
0
 66
1
 10
0.0
 20
0.0
 30
0.0
  0
VERTEX
  8
SupportsMoteurs
 10
-19.5
 20
4.25
 30
0.0
  0
VERTEX
  8
SupportsMoteurs
 10
-19.5
 20
4.2
 30
0.0
  0
VERTEX
  8
SupportsMoteurs
 10
-19.5
 20
4.15
 30
0.0
  0
VERTEX
  8
SupportsMoteurs
 10
-19.5
 20
4.1
 30
0.0
  0
VERTEX
  8
SupportsMoteurs
 10
-19.5
 20
4.05
 30
0.0
  0
VERTEX
  8
SupportsMoteurs
 10
-19.5
 20
4.0
 30
0.0
  0
VERTEX
  8
SupportsMoteurs
 10
-19.5
 20
3.95
 30
0.0
  0
VERTEX
  8
SupportsMoteurs
 10
-19.5
 20
3.9
 30
0.0
  0
VERTEX
  8
SupportsMoteurs
 10
-19.5
 20
3.85
 30
0.0
  0
VERTEX
  8
SupportsMoteurs
 10
-19.5
 20
3.8
 30
0.0
  0
VERTEX
  8
SupportsMoteurs
 10
-19.5
 20
3.75
 30
0.0
  0
VERTEX
  8
SupportsMoteurs
 10
-19.5
 20
3.7
 30
0.0
  0
VERTEX
  8
SupportsMoteurs
 10
-19.5
 20
3.65
 30
0.0
  0
VERTEX
  8
SupportsMoteurs
 10
-19.5
 20
3.6
 30
0.0
  0
VERTEX
  8
SupportsMoteurs
 10
-19.5
 20
3.55
 30
0.0
  0
VERTEX
  8
SupportsMoteurs
 10
-19.5
 20
3.5
 30
0.0
  0
SEQEND
  8
SupportsMoteurs
  0
POLYLINE
  8
SupportsMoteurs
 62
0
 70
0
 66
1
 10
0.0
 20
0.0
 30
0.0
  0
VERTEX
  8
SupportsMoteurs
 10
-21.0
 20
1.5
 30
0.0
  0
VERTEX
  8
SupportsMoteurs
 10
-21.0
 20
1.55
 30
0.0
  0
VERTEX
  8
SupportsMoteurs
 10
-21.0
 20
1.6
 30
0.0
  0
VERTEX
  8
SupportsMoteurs
 10
-21.0
 20
1.65
 30
0.0
  0
VERTEX
  8
SupportsMoteurs
 10
-21.0
 20
1.7
 30
0.0
  0
VERTEX
  8
SupportsMoteurs
 10
-21.0
 20
1.75
 30
0.0
  0
VERTEX
  8
SupportsMoteurs
 10
-21.0
 20
1.8
 30
0.0
  0
VERTEX
  8
SupportsMoteurs
 10
-21.0
 20
1.85
 30
0.0
  0
VERTEX
  8
SupportsMoteurs
 10
-21.0
 20
1.9
 30
0.0
  0
VERTEX
  8
SupportsMoteurs
 10
-21.0
 20
1.95
 30
0.0
  0
VERTEX
  8
SupportsMoteurs
 10
-21.0
 20
2.0
 30
0.0
  0
VERTEX
  8
SupportsMoteurs
 10
-21.0
 20
2.05
 30
0.0
  0
VERTEX
  8
SupportsMoteurs
 10
-21.0
 20
2.1
 30
0.0
  0
VERTEX
  8
SupportsMoteurs
 10
-21.0
 20
2.15
 30
0.0
  0
VERTEX
  8
SupportsMoteurs
 10
-21.0
 20
2.2
 30
0.0
  0
VERTEX
  8
SupportsMoteurs
 10
-21.0
 20
2.25
 30
0.0
  0
VERTEX
  8
SupportsMoteurs
 10
-21.0
 20
2.3
 30
0.0
  0
VERTEX
  8
SupportsMoteurs
 10
-21.0
 20
2.35
 30
0.0
  0
VERTEX
  8
SupportsMoteurs
 10
-21.0
 20
2.4
 30
0.0
  0
VERTEX
  8
SupportsMoteurs
 10
-21.0
 20
2.45
 30
0.0
  0
VERTEX
  8
SupportsMoteurs
 10
-21.0
 20
2.5
 30
0.0
  0
SEQEND
  8
SupportsMoteurs
  0
POLYLINE
  8
SupportsMoteurs
 62
0
 70
0
 66
1
 10
0.0
 20
0.0
 30
0.0
  0
VERTEX
  8
SupportsMoteurs
 10
-19.5
 20
1.5
 30
0.0
  0
VERTEX
  8
SupportsMoteurs
 10
-19.5
 20
1.55
 30
0.0
  0
VERTEX
  8
SupportsMoteurs
 10
-19.5
 20
1.6
 30
0.0
  0
VERTEX
  8
SupportsMoteurs
 10
-19.5
 20
1.65
 30
0.0
  0
VERTEX
  8
SupportsMoteurs
 10
-19.5
 20
1.7
 30
0.0
  0
VERTEX
  8
SupportsMoteurs
 10
-19.5
 20
1.75
 30
0.0
  0
VERTEX
  8
SupportsMoteurs
 10
-19.5
 20
1.8
 30
0.0
  0
VERTEX
  8
SupportsMoteurs
 10
-19.5
 20
1.85
 30
0.0
  0
VERTEX
  8
SupportsMoteurs
 10
-19.5
 20
1.9
 30
0.0
  0
VERTEX
  8
SupportsMoteurs
 10
-19.5
 20
1.95
 30
0.0
  0
VERTEX
  8
SupportsMoteurs
 10
-19.5
 20
2.0
 30
0.0
  0
VERTEX
  8
SupportsMoteurs
 10
-19.5
 20
2.05
 30
0.0
  0
VERTEX
  8
SupportsMoteurs
 10
-19.5
 20
2.1
 30
0.0
  0
VERTEX
  8
SupportsMoteurs
 10
-19.5
 20
2.15
 30
0.0
  0
VERTEX
  8
SupportsMoteurs
 10
-19.5
 20
2.2
 30
0.0
  0
VERTEX
  8
SupportsMoteurs
 10
-19.5
 20
2.25
 30
0.0
  0
VERTEX
  8
SupportsMoteurs
 10
-19.5
 20
2.3
 30
0.0
  0
VERTEX
  8
SupportsMoteurs
 10
-19.5
 20
2.35
 30
0.0
  0
VERTEX
  8
SupportsMoteurs
 10
-19.5
 20
2.4
 30
0.0
  0
VERTEX
  8
SupportsMoteurs
 10
-19.5
 20
2.45
 30
0.0
  0
VERTEX
  8
SupportsMoteurs
 10
-19.5
 20
2.5
 30
0.0
  0
SEQEND
  8
SupportsMoteurs
  0
POLYLINE
  8
SupportsMoteurs
 62
0
 70
0
 66
1
 10
0.0
 20
0.0
 30
0.0
  0
VERTEX
  8
SupportsMoteurs
 10
-21.0
 20
1.5
 30
0.0
  0
VERTEX
  8
SupportsMoteurs
 10
-21.0
 20
1.45
 30
0.0
  0
VERTEX
  8
SupportsMoteurs
 10
-21.0
 20
1.4
 30
0.0
  0
VERTEX
  8
SupportsMoteurs
 10
-21.0
 20
1.35
 30
0.0
  0
VERTEX
  8
SupportsMoteurs
 10
-21.0
 20
1.3
 30
0.0
  0
VERTEX
  8
SupportsMoteurs
 10
-21.0
 20
1.25
 30
0.0
  0
VERTEX
  8
SupportsMoteurs
 10
-21.0
 20
1.2
 30
0.0
  0
VERTEX
  8
SupportsMoteurs
 10
-21.0
 20
1.15
 30
0.0
  0
VERTEX
  8
SupportsMoteurs
 10
-21.0
 20
1.1
 30
0.0
  0
VERTEX
  8
SupportsMoteurs
 10
-21.0
 20
1.05
 30
0.0
  0
VERTEX
  8
SupportsMoteurs
 10
-21.0
 20
1.0
 30
0.0
  0
SEQEND
  8
SupportsMoteurs
  0
POLYLINE
  8
SupportsMoteurs
 62
0
 70
0
 66
1
 10
0.0
 20
0.0
 30
0.0
  0
VERTEX
  8
SupportsMoteurs
 10
-19.5
 20
1.5
 30
0.0
  0
VERTEX
  8
SupportsMoteurs
 10
-19.5
 20
1.45
 30
0.0
  0
VERTEX
  8
SupportsMoteurs
 10
-19.5
 20
1.4
 30
0.0
  0
VERTEX
  8
SupportsMoteurs
 10
-19.5
 20
1.35
 30
0.0
  0
VERTEX
  8
SupportsMoteurs
 10
-19.5
 20
1.3
 30
0.0
  0
VERTEX
  8
SupportsMoteurs
 10
-19.5
 20
1.25
 30
0.0
  0
VERTEX
  8
SupportsMoteurs
 10
-19.5
 20
1.2
 30
0.0
  0
VERTEX
  8
SupportsMoteurs
 10
-19.5
 20
1.15
 30
0.0
  0
VERTEX
  8
SupportsMoteurs
 10
-19.5
 20
1.1
 30
0.0
  0
VERTEX
  8
SupportsMoteurs
 10
-19.5
 20
1.05
 30
0.0
  0
VERTEX
  8
SupportsMoteurs
 10
-19.5
 20
1.0
 30
0.0
  0
SEQEND
  8
SupportsMoteurs
  0
POLYLINE
  8
SupportsMoteurs
 62
0
 70
0
 66
1
 10
0.0
 20
0.0
 30
0.0
  0
VERTEX
  8
SupportsMoteurs
 10
-21.0
 20
-1.0
 30
0.0
  0
VERTEX
  8
SupportsMoteurs
 10
-21.0
 20
-1.05
 30
0.0
  0
VERTEX
  8
SupportsMoteurs
 10
-21.0
 20
-1.1
 30
0.0
  0
VERTEX
  8
SupportsMoteurs
 10
-21.0
 20
-1.15
 30
0.0
  0
VERTEX
  8
SupportsMoteurs
 10
-21.0
 20
-1.2
 30
0.0
  0
VERTEX
  8
SupportsMoteurs
 10
-21.0
 20
-1.25
 30
0.0
  0
VERTEX
  8
SupportsMoteurs
 10
-21.0
 20
-1.3
 30
0.0
  0
VERTEX
  8
SupportsMoteurs
 10
-21.0
 20
-1.35
 30
0.0
  0
VERTEX
  8
SupportsMoteurs
 10
-21.0
 20
-1.4
 30
0.0
  0
VERTEX
  8
SupportsMoteurs
 10
-21.0
 20
-1.45
 30
0.0
  0
VERTEX
  8
SupportsMoteurs
 10
-21.0
 20
-1.5
 30
0.0
  0
SEQEND
  8
SupportsMoteurs
  0
POLYLINE
  8
SupportsMoteurs
 62
0
 70
0
 66
1
 10
0.0
 20
0.0
 30
0.0
  0
VERTEX
  8
SupportsMoteurs
 10
-19.5
 20
-1.0
 30
0.0
  0
VERTEX
  8
SupportsMoteurs
 10
-19.5
 20
-1.05
 30
0.0
  0
VERTEX
  8
SupportsMoteurs
 10
-19.5
 20
-1.1
 30
0.0
  0
VERTEX
  8
SupportsMoteurs
 10
-19.5
 20
-1.15
 30
0.0
  0
VERTEX
  8
SupportsMoteurs
 10
-19.5
 20
-1.2
 30
0.0
  0
VERTEX
  8
SupportsMoteurs
 10
-19.5
 20
-1.25
 30
0.0
  0
VERTEX
  8
SupportsMoteurs
 10
-19.5
 20
-1.3
 30
0.0
  0
VERTEX
  8
SupportsMoteurs
 10
-19.5
 20
-1.35
 30
0.0
  0
VERTEX
  8
SupportsMoteurs
 10
-19.5
 20
-1.4
 30
0.0
  0
VERTEX
  8
SupportsMoteurs
 10
-19.5
 20
-1.45
 30
0.0
  0
VERTEX
  8
SupportsMoteurs
 10
-19.5
 20
-1.5
 30
0.0
  0
SEQEND
  8
SupportsMoteurs
  0
POLYLINE
  8
SupportsMoteurs
 62
0
 70
0
 66
1
 10
0.0
 20
0.0
 30
0.0
  0
VERTEX
  8
SupportsMoteurs
 10
-21.0
 20
-2.21
 30
0.0
  0
VERTEX
  8
SupportsMoteurs
 10
-21.0
 20
-2.16
 30
0.0
  0
VERTEX
  8
SupportsMoteurs
 10
-21.0
 20
-2.11
 30
0.0
  0
VERTEX
  8
SupportsMoteurs
 10
-21.0
 20
-2.06
 30
0.0
  0
VERTEX
  8
SupportsMoteurs
 10
-21.0
 20
-2.01
 30
0.0
  0
VERTEX
  8
SupportsMoteurs
 10
-21.0
 20
-1.96
 30
0.0
  0
VERTEX
  8
SupportsMoteurs
 10
-21.0
 20
-1.91
 30
0.0
  0
VERTEX
  8
SupportsMoteurs
 10
-21.0
 20
-1.86
 30
0.0
  0
VERTEX
  8
SupportsMoteurs
 10
-21.0
 20
-1.81
 30
0.0
  0
VERTEX
  8
SupportsMoteurs
 10
-21.0
 20
-1.76
 30
0.0
  0
VERTEX
  8
SupportsMoteurs
 10
-21.0
 20
-1.71
 30
0.0
  0
VERTEX
  8
SupportsMoteurs
 10
-21.0
 20
-1.66
 30
0.0
  0
VERTEX
  8
SupportsMoteurs
 10
-21.0
 20
-1.61
 30
0.0
  0
VERTEX
  8
SupportsMoteurs
 10
-21.0
 20
-1.56
 30
0.0
  0
VERTEX
  8
SupportsMoteurs
 10
-21.0
 20
-1.51
 30
0.0
  0
VERTEX
  8
SupportsMoteurs
 10
-21.0
 20
-1.5
 30
0.0
  0
SEQEND
  8
SupportsMoteurs
  0
POLYLINE
  8
SupportsMoteurs
 62
0
 70
0
 66
1
 10
0.0
 20
0.0
 30
0.0
  0
VERTEX
  8
SupportsMoteurs
 10
-19.5
 20
-2.21
 30
0.0
  0
VERTEX
  8
SupportsMoteurs
 10
-19.5
 20
-2.16
 30
0.0
  0
VERTEX
  8
SupportsMoteurs
 10
-19.5
 20
-2.11
 30
0.0
  0
VERTEX
  8
SupportsMoteurs
 10
-19.5
 20
-2.06
 30
0.0
  0
VERTEX
  8
SupportsMoteurs
 10
-19.5
 20
-2.01
 30
0.0
  0
VERTEX
  8
SupportsMoteurs
 10
-19.5
 20
-1.96
 30
0.0
  0
VERTEX
  8
SupportsMoteurs
 10
-19.5
 20
-1.91
 30
0.0
  0
VERTEX
  8
SupportsMoteurs
 10
-19.5
 20
-1.86
 30
0.0
  0
VERTEX
  8
SupportsMoteurs
 10
-19.5
 20
-1.81
 30
0.0
  0
VERTEX
  8
SupportsMoteurs
 10
-19.5
 20
-1.76
 30
0.0
  0
VERTEX
  8
SupportsMoteurs
 10
-19.5
 20
-1.71
 30
0.0
  0
VERTEX
  8
SupportsMoteurs
 10
-19.5
 20
-1.66
 30
0.0
  0
VERTEX
  8
SupportsMoteurs
 10
-19.5
 20
-1.61
 30
0.0
  0
VERTEX
  8
SupportsMoteurs
 10
-19.5
 20
-1.56
 30
0.0
  0
VERTEX
  8
SupportsMoteurs
 10
-19.5
 20
-1.51
 30
0.0
  0
VERTEX
  8
SupportsMoteurs
 10
-19.5
 20
-1.5
 30
0.0
  0
SEQEND
  8
SupportsMoteurs
  0
POLYLINE
  8
SupportsMoteurs
 62
0
 70
0
 66
1
 10
0.0
 20
0.0
 30
0.0
  0
VERTEX
  8
SupportsMoteurs
 10
-21.0
 20
-3.0
 30
0.0
  0
VERTEX
  8
SupportsMoteurs
 10
-21.0
 20
-3.05
 30
0.0
  0
VERTEX
  8
SupportsMoteurs
 10
-21.0
 20
-3.1
 30
0.0
  0
VERTEX
  8
SupportsMoteurs
 10
-21.0
 20
-3.15
 30
0.0
  0
VERTEX
  8
SupportsMoteurs
 10
-21.0
 20
-3.2
 30
0.0
  0
VERTEX
  8
SupportsMoteurs
 10
-21.0
 20
-3.25
 30
0.0
  0
VERTEX
  8
SupportsMoteurs
 10
-21.0
 20
-3.3
 30
0.0
  0
VERTEX
  8
SupportsMoteurs
 10
-21.0
 20
-3.35
 30
0.0
  0
VERTEX
  8
SupportsMoteurs
 10
-21.0
 20
-3.4
 30
0.0
  0
VERTEX
  8
SupportsMoteurs
 10
-21.0
 20
-3.45
 30
0.0
  0
VERTEX
  8
SupportsMoteurs
 10
-21.0
 20
-3.5
 30
0.0
  0
VERTEX
  8
SupportsMoteurs
 10
-21.0
 20
-3.55
 30
0.0
  0
VERTEX
  8
SupportsMoteurs
 10
-21.0
 20
-3.6
 30
0.0
  0
VERTEX
  8
SupportsMoteurs
 10
-21.0
 20
-3.65
 30
0.0
  0
VERTEX
  8
SupportsMoteurs
 10
-21.0
 20
-3.7
 30
0.0
  0
VERTEX
  8
SupportsMoteurs
 10
-21.0
 20
-3.75
 30
0.0
  0
VERTEX
  8
SupportsMoteurs
 10
-21.0
 20
-3.8
 30
0.0
  0
VERTEX
  8
SupportsMoteurs
 10
-21.0
 20
-3.85
 30
0.0
  0
VERTEX
  8
SupportsMoteurs
 10
-21.0
 20
-3.9
 30
0.0
  0
VERTEX
  8
SupportsMoteurs
 10
-21.0
 20
-3.95
 30
0.0
  0
VERTEX
  8
SupportsMoteurs
 10
-21.0
 20
-4.0
 30
0.0
  0
VERTEX
  8
SupportsMoteurs
 10
-21.0
 20
-4.05
 30
0.0
  0
VERTEX
  8
SupportsMoteurs
 10
-21.0
 20
-4.1
 30
0.0
  0
VERTEX
  8
SupportsMoteurs
 10
-21.0
 20
-4.15
 30
0.0
  0
VERTEX
  8
SupportsMoteurs
 10
-21.0
 20
-4.2
 30
0.0
  0
VERTEX
  8
SupportsMoteurs
 10
-21.0
 20
-4.25
 30
0.0
  0
SEQEND
  8
SupportsMoteurs
  0
POLYLINE
  8
SupportsMoteurs
 62
0
 70
0
 66
1
 10
0.0
 20
0.0
 30
0.0
  0
VERTEX
  8
SupportsMoteurs
 10
-19.5
 20
-3.0
 30
0.0
  0
VERTEX
  8
SupportsMoteurs
 10
-19.5
 20
-3.05
 30
0.0
  0
VERTEX
  8
SupportsMoteurs
 10
-19.5
 20
-3.1
 30
0.0
  0
VERTEX
  8
SupportsMoteurs
 10
-19.5
 20
-3.15
 30
0.0
  0
VERTEX
  8
SupportsMoteurs
 10
-19.5
 20
-3.2
 30
0.0
  0
VERTEX
  8
SupportsMoteurs
 10
-19.5
 20
-3.25
 30
0.0
  0
VERTEX
  8
SupportsMoteurs
 10
-19.5
 20
-3.3
 30
0.0
  0
VERTEX
  8
SupportsMoteurs
 10
-19.5
 20
-3.35
 30
0.0
  0
VERTEX
  8
SupportsMoteurs
 10
-19.5
 20
-3.4
 30
0.0
  0
VERTEX
  8
SupportsMoteurs
 10
-19.5
 20
-3.45
 30
0.0
  0
VERTEX
  8
SupportsMoteurs
 10
-19.5
 20
-3.5
 30
0.0
  0
VERTEX
  8
SupportsMoteurs
 10
-19.5
 20
-3.55
 30
0.0
  0
VERTEX
  8
SupportsMoteurs
 10
-19.5
 20
-3.6
 30
0.0
  0
VERTEX
  8
SupportsMoteurs
 10
-19.5
 20
-3.65
 30
0.0
  0
VERTEX
  8
SupportsMoteurs
 10
-19.5
 20
-3.7
 30
0.0
  0
VERTEX
  8
SupportsMoteurs
 10
-19.5
 20
-3.75
 30
0.0
  0
VERTEX
  8
SupportsMoteurs
 10
-19.5
 20
-3.8
 30
0.0
  0
VERTEX
  8
SupportsMoteurs
 10
-19.5
 20
-3.85
 30
0.0
  0
VERTEX
  8
SupportsMoteurs
 10
-19.5
 20
-3.9
 30
0.0
  0
VERTEX
  8
SupportsMoteurs
 10
-19.5
 20
-3.95
 30
0.0
  0
VERTEX
  8
SupportsMoteurs
 10
-19.5
 20
-4.0
 30
0.0
  0
VERTEX
  8
SupportsMoteurs
 10
-19.5
 20
-4.05
 30
0.0
  0
VERTEX
  8
SupportsMoteurs
 10
-19.5
 20
-4.1
 30
0.0
  0
VERTEX
  8
SupportsMoteurs
 10
-19.5
 20
-4.15
 30
0.0
  0
VERTEX
  8
SupportsMoteurs
 10
-19.5
 20
-4.2
 30
0.0
  0
VERTEX
  8
SupportsMoteurs
 10
-19.5
 20
-4.25
 30
0.0
  0
SEQEND
  8
SupportsMoteurs
  0
POLYLINE
  8
SupportsMoteurs
 62
0
 70
0
 66
1
 10
0.0
 20
0.0
 30
0.0
  0
VERTEX
  8
SupportsMoteurs
 10
-21.0
 20
-4.25
 30
0.0
  0
VERTEX
  8
SupportsMoteurs
 10
-21.0
 20
-4.3
 30
0.0
  0
VERTEX
  8
SupportsMoteurs
 10
-21.0
 20
-4.35
 30
0.0
  0
VERTEX
  8
SupportsMoteurs
 10
-21.0
 20
-4.4
 30
0.0
  0
VERTEX
  8
SupportsMoteurs
 10
-21.0
 20
-4.45
 30
0.0
  0
VERTEX
  8
SupportsMoteurs
 10
-21.0
 20
-4.5
 30
0.0
  0
VERTEX
  8
SupportsMoteurs
 10
-21.0
 20
-4.55
 30
0.0
  0
VERTEX
  8
SupportsMoteurs
 10
-21.0
 20
-4.6
 30
0.0
  0
VERTEX
  8
SupportsMoteurs
 10
-21.0
 20
-4.65
 30
0.0
  0
VERTEX
  8
SupportsMoteurs
 10
-21.0
 20
-4.7
 30
0.0
  0
VERTEX
  8
SupportsMoteurs
 10
-21.0
 20
-4.75
 30
0.0
  0
VERTEX
  8
SupportsMoteurs
 10
-21.0
 20
-4.8
 30
0.0
  0
VERTEX
  8
SupportsMoteurs
 10
-21.0
 20
-4.85
 30
0.0
  0
VERTEX
  8
SupportsMoteurs
 10
-21.0
 20
-4.9
 30
0.0
  0
VERTEX
  8
SupportsMoteurs
 10
-21.0
 20
-4.95
 30
0.0
  0
VERTEX
  8
SupportsMoteurs
 10
-21.0
 20
-5.0
 30
0.0
  0
VERTEX
  8
SupportsMoteurs
 10
-21.0
 20
-5.05
 30
0.0
  0
VERTEX
  8
SupportsMoteurs
 10
-21.0
 20
-5.1
 30
0.0
  0
VERTEX
  8
SupportsMoteurs
 10
-21.0
 20
-5.15
 30
0.0
  0
VERTEX
  8
SupportsMoteurs
 10
-21.0
 20
-5.2
 30
0.0
  0
VERTEX
  8
SupportsMoteurs
 10
-21.0
 20
-5.25
 30
0.0
  0
VERTEX
  8
SupportsMoteurs
 10
-21.0
 20
-5.3
 30
0.0
  0
VERTEX
  8
SupportsMoteurs
 10
-21.0
 20
-5.35
 30
0.0
  0
VERTEX
  8
SupportsMoteurs
 10
-21.0
 20
-5.4
 30
0.0
  0
VERTEX
  8
SupportsMoteurs
 10
-21.0
 20
-5.45
 30
0.0
  0
VERTEX
  8
SupportsMoteurs
 10
-21.0
 20
-5.5
 30
0.0
  0
VERTEX
  8
SupportsMoteurs
 10
-21.0
 20
-5.55
 30
0.0
  0
VERTEX
  8
SupportsMoteurs
 10
-21.0
 20
-5.6
 30
0.0
  0
VERTEX
  8
SupportsMoteurs
 10
-21.0
 20
-5.65
 30
0.0
  0
VERTEX
  8
SupportsMoteurs
 10
-21.0
 20
-5.7
 30
0.0
  0
VERTEX
  8
SupportsMoteurs
 10
-21.0
 20
-5.75
 30
0.0
  0
VERTEX
  8
SupportsMoteurs
 10
-21.0
 20
-5.8
 30
0.0
  0
VERTEX
  8
SupportsMoteurs
 10
-21.0
 20
-5.85
 30
0.0
  0
VERTEX
  8
SupportsMoteurs
 10
-21.0
 20
-5.9
 30
0.0
  0
VERTEX
  8
SupportsMoteurs
 10
-21.0
 20
-5.95
 30
0.0
  0
VERTEX
  8
SupportsMoteurs
 10
-21.0
 20
-6.0
 30
0.0
  0
VERTEX
  8
SupportsMoteurs
 10
-21.0
 20
-6.05
 30
0.0
  0
VERTEX
  8
SupportsMoteurs
 10
-21.0
 20
-6.1
 30
0.0
  0
VERTEX
  8
SupportsMoteurs
 10
-21.0
 20
-6.15
 30
0.0
  0
VERTEX
  8
SupportsMoteurs
 10
-21.0
 20
-6.2
 30
0.0
  0
VERTEX
  8
SupportsMoteurs
 10
-21.0
 20
-6.25
 30
0.0
  0
VERTEX
  8
SupportsMoteurs
 10
-21.0
 20
-6.3
 30
0.0
  0
VERTEX
  8
SupportsMoteurs
 10
-21.0
 20
-6.35
 30
0.0
  0
VERTEX
  8
SupportsMoteurs
 10
-21.0
 20
-6.4
 30
0.0
  0
VERTEX
  8
SupportsMoteurs
 10
-21.0
 20
-6.45
 30
0.0
  0
VERTEX
  8
SupportsMoteurs
 10
-21.0
 20
-6.480741
 30
0.0
  0
SEQEND
  8
SupportsMoteurs
  0
POLYLINE
  8
SupportsMoteurs
 62
0
 70
0
 66
1
 10
0.0
 20
0.0
 30
0.0
  0
VERTEX
  8
SupportsMoteurs
 10
-19.5
 20
-4.25
 30
0.0
  0
VERTEX
  8
SupportsMoteurs
 10
-19.5
 20
-4.3
 30
0.0
  0
VERTEX
  8
SupportsMoteurs
 10
-19.5
 20
-4.35
 30
0.0
  0
VERTEX
  8
SupportsMoteurs
 10
-19.5
 20
-4.4
 30
0.0
  0
VERTEX
  8
SupportsMoteurs
 10
-19.5
 20
-4.45
 30
0.0
  0
VERTEX
  8
SupportsMoteurs
 10
-19.5
 20
-4.5
 30
0.0
  0
VERTEX
  8
SupportsMoteurs
 10
-19.5
 20
-4.55
 30
0.0
  0
VERTEX
  8
SupportsMoteurs
 10
-19.5
 20
-4.6
 30
0.0
  0
VERTEX
  8
SupportsMoteurs
 10
-19.5
 20
-4.65
 30
0.0
  0
VERTEX
  8
SupportsMoteurs
 10
-19.5
 20
-4.7
 30
0.0
  0
VERTEX
  8
SupportsMoteurs
 10
-19.5
 20
-4.75
 30
0.0
  0
VERTEX
  8
SupportsMoteurs
 10
-19.5
 20
-4.8
 30
0.0
  0
VERTEX
  8
SupportsMoteurs
 10
-19.5
 20
-4.85
 30
0.0
  0
VERTEX
  8
SupportsMoteurs
 10
-19.5
 20
-4.9
 30
0.0
  0
VERTEX
  8
SupportsMoteurs
 10
-19.5
 20
-4.95
 30
0.0
  0
VERTEX
  8
SupportsMoteurs
 10
-19.5
 20
-5.0
 30
0.0
  0
VERTEX
  8
SupportsMoteurs
 10
-19.5
 20
-5.05
 30
0.0
  0
VERTEX
  8
SupportsMoteurs
 10
-19.5
 20
-5.1
 30
0.0
  0
VERTEX
  8
SupportsMoteurs
 10
-19.5
 20
-5.15
 30
0.0
  0
VERTEX
  8
SupportsMoteurs
 10
-19.5
 20
-5.2
 30
0.0
  0
VERTEX
  8
SupportsMoteurs
 10
-19.5
 20
-5.25
 30
0.0
  0
VERTEX
  8
SupportsMoteurs
 10
-19.5
 20
-5.3
 30
0.0
  0
VERTEX
  8
SupportsMoteurs
 10
-19.5
 20
-5.35
 30
0.0
  0
VERTEX
  8
SupportsMoteurs
 10
-19.5
 20
-5.4
 30
0.0
  0
VERTEX
  8
SupportsMoteurs
 10
-19.5
 20
-5.45
 30
0.0
  0
VERTEX
  8
SupportsMoteurs
 10
-19.5
 20
-5.5
 30
0.0
  0
VERTEX
  8
SupportsMoteurs
 10
-19.5
 20
-5.55
 30
0.0
  0
VERTEX
  8
SupportsMoteurs
 10
-19.5
 20
-5.6
 30
0.0
  0
VERTEX
  8
SupportsMoteurs
 10
-19.5
 20
-5.65
 30
0.0
  0
VERTEX
  8
SupportsMoteurs
 10
-19.5
 20
-5.7
 30
0.0
  0
VERTEX
  8
SupportsMoteurs
 10
-19.5
 20
-5.75
 30
0.0
  0
VERTEX
  8
SupportsMoteurs
 10
-19.5
 20
-5.8
 30
0.0
  0
VERTEX
  8
SupportsMoteurs
 10
-19.5
 20
-5.85
 30
0.0
  0
VERTEX
  8
SupportsMoteurs
 10
-19.5
 20
-5.9
 30
0.0
  0
VERTEX
  8
SupportsMoteurs
 10
-19.5
 20
-5.95
 30
0.0
  0
VERTEX
  8
SupportsMoteurs
 10
-19.5
 20
-6.0
 30
0.0
  0
VERTEX
  8
SupportsMoteurs
 10
-19.5
 20
-6.05
 30
0.0
  0
VERTEX
  8
SupportsMoteurs
 10
-19.5
 20
-6.1
 30
0.0
  0
VERTEX
  8
SupportsMoteurs
 10
-19.5
 20
-6.15
 30
0.0
  0
VERTEX
  8
SupportsMoteurs
 10
-19.5
 20
-6.2
 30
0.0
  0
VERTEX
  8
SupportsMoteurs
 10
-19.5
 20
-6.25
 30
0.0
  0
VERTEX
  8
SupportsMoteurs
 10
-19.5
 20
-6.3
 30
0.0
  0
VERTEX
  8
SupportsMoteurs
 10
-19.5
 20
-6.35
 30
0.0
  0
VERTEX
  8
SupportsMoteurs
 10
-19.5
 20
-6.4
 30
0.0
  0
VERTEX
  8
SupportsMoteurs
 10
-19.5
 20
-6.45
 30
0.0
  0
VERTEX
  8
SupportsMoteurs
 10
-19.5
 20
-6.480741
 30
0.0
  0
SEQEND
  8
SupportsMoteurs
  0
POLYLINE
  8
SupportsMoteurs
 62
0
 70
0
 66
1
 10
0.0
 20
0.0
 30
0.0
  0
VERTEX
  8
SupportsMoteurs
 10
-21.0
 20
-11.71
 30
0.0
  0
VERTEX
  8
SupportsMoteurs
 10
-21.0
 20
-11.66
 30
0.0
  0
VERTEX
  8
SupportsMoteurs
 10
-21.0
 20
-11.61
 30
0.0
  0
VERTEX
  8
SupportsMoteurs
 10
-21.0
 20
-11.56
 30
0.0
  0
VERTEX
  8
SupportsMoteurs
 10
-21.0
 20
-11.51
 30
0.0
  0
VERTEX
  8
SupportsMoteurs
 10
-21.0
 20
-11.46
 30
0.0
  0
VERTEX
  8
SupportsMoteurs
 10
-21.0
 20
-11.41
 30
0.0
  0
VERTEX
  8
SupportsMoteurs
 10
-21.0
 20
-11.36
 30
0.0
  0
VERTEX
  8
SupportsMoteurs
 10
-21.0
 20
-11.31
 30
0.0
  0
VERTEX
  8
SupportsMoteurs
 10
-21.0
 20
-11.26
 30
0.0
  0
VERTEX
  8
SupportsMoteurs
 10
-21.0
 20
-11.21
 30
0.0
  0
VERTEX
  8
SupportsMoteurs
 10
-21.0
 20
-11.16
 30
0.0
  0
VERTEX
  8
SupportsMoteurs
 10
-21.0
 20
-11.11
 30
0.0
  0
VERTEX
  8
SupportsMoteurs
 10
-21.0
 20
-11.06
 30
0.0
  0
VERTEX
  8
SupportsMoteurs
 10
-21.0
 20
-11.01
 30
0.0
  0
VERTEX
  8
SupportsMoteurs
 10
-21.0
 20
-11.0
 30
0.0
  0
SEQEND
  8
SupportsMoteurs
  0
POLYLINE
  8
SupportsMoteurs
 62
0
 70
0
 66
1
 10
0.0
 20
0.0
 30
0.0
  0
VERTEX
  8
SupportsMoteurs
 10
-19.5
 20
-11.71
 30
0.0
  0
VERTEX
  8
SupportsMoteurs
 10
-19.5
 20
-11.66
 30
0.0
  0
VERTEX
  8
SupportsMoteurs
 10
-19.5
 20
-11.61
 30
0.0
  0
VERTEX
  8
SupportsMoteurs
 10
-19.5
 20
-11.56
 30
0.0
  0
VERTEX
  8
SupportsMoteurs
 10
-19.5
 20
-11.51
 30
0.0
  0
VERTEX
  8
SupportsMoteurs
 10
-19.5
 20
-11.46
 30
0.0
  0
VERTEX
  8
SupportsMoteurs
 10
-19.5
 20
-11.41
 30
0.0
  0
VERTEX
  8
SupportsMoteurs
 10
-19.5
 20
-11.36
 30
0.0
  0
VERTEX
  8
SupportsMoteurs
 10
-19.5
 20
-11.31
 30
0.0
  0
VERTEX
  8
SupportsMoteurs
 10
-19.5
 20
-11.26
 30
0.0
  0
VERTEX
  8
SupportsMoteurs
 10
-19.5
 20
-11.21
 30
0.0
  0
VERTEX
  8
SupportsMoteurs
 10
-19.5
 20
-11.16
 30
0.0
  0
VERTEX
  8
SupportsMoteurs
 10
-19.5
 20
-11.11
 30
0.0
  0
VERTEX
  8
SupportsMoteurs
 10
-19.5
 20
-11.06
 30
0.0
  0
VERTEX
  8
SupportsMoteurs
 10
-19.5
 20
-11.01
 30
0.0
  0
VERTEX
  8
SupportsMoteurs
 10
-19.5
 20
-11.0
 30
0.0
  0
SEQEND
  8
SupportsMoteurs
  0
POLYLINE
  8
SupportsMoteurs
 62
0
 70
0
 66
1
 10
0.0
 20
0.0
 30
0.0
  0
VERTEX
  8
SupportsMoteurs
 10
-21.0
 20
-15.0
 30
0.0
  0
VERTEX
  8
SupportsMoteurs
 10
-21.0
 20
-14.95
 30
0.0
  0
VERTEX
  8
SupportsMoteurs
 10
-21.0
 20
-14.9
 30
0.0
  0
VERTEX
  8
SupportsMoteurs
 10
-21.0
 20
-14.85
 30
0.0
  0
VERTEX
  8
SupportsMoteurs
 10
-21.0
 20
-14.8
 30
0.0
  0
VERTEX
  8
SupportsMoteurs
 10
-21.0
 20
-14.75
 30
0.0
  0
VERTEX
  8
SupportsMoteurs
 10
-21.0
 20
-14.7
 30
0.0
  0
VERTEX
  8
SupportsMoteurs
 10
-21.0
 20
-14.65
 30
0.0
  0
VERTEX
  8
SupportsMoteurs
 10
-21.0
 20
-14.6
 30
0.0
  0
VERTEX
  8
SupportsMoteurs
 10
-21.0
 20
-14.55
 30
0.0
  0
VERTEX
  8
SupportsMoteurs
 10
-21.0
 20
-14.5
 30
0.0
  0
VERTEX
  8
SupportsMoteurs
 10
-21.0
 20
-14.45
 30
0.0
  0
VERTEX
  8
SupportsMoteurs
 10
-21.0
 20
-14.4
 30
0.0
  0
VERTEX
  8
SupportsMoteurs
 10
-21.0
 20
-14.35
 30
0.0
  0
VERTEX
  8
SupportsMoteurs
 10
-21.0
 20
-14.3
 30
0.0
  0
VERTEX
  8
SupportsMoteurs
 10
-21.0
 20
-14.29
 30
0.0
  0
SEQEND
  8
SupportsMoteurs
  0
POLYLINE
  8
SupportsMoteurs
 62
0
 70
0
 66
1
 10
0.0
 20
0.0
 30
0.0
  0
VERTEX
  8
SupportsMoteurs
 10
-19.5
 20
-15.0
 30
0.0
  0
VERTEX
  8
SupportsMoteurs
 10
-19.5
 20
-14.95
 30
0.0
  0
VERTEX
  8
SupportsMoteurs
 10
-19.5
 20
-14.9
 30
0.0
  0
VERTEX
  8
SupportsMoteurs
 10
-19.5
 20
-14.85
 30
0.0
  0
VERTEX
  8
SupportsMoteurs
 10
-19.5
 20
-14.8
 30
0.0
  0
VERTEX
  8
SupportsMoteurs
 10
-19.5
 20
-14.75
 30
0.0
  0
VERTEX
  8
SupportsMoteurs
 10
-19.5
 20
-14.7
 30
0.0
  0
VERTEX
  8
SupportsMoteurs
 10
-19.5
 20
-14.65
 30
0.0
  0
VERTEX
  8
SupportsMoteurs
 10
-19.5
 20
-14.6
 30
0.0
  0
VERTEX
  8
SupportsMoteurs
 10
-19.5
 20
-14.55
 30
0.0
  0
VERTEX
  8
SupportsMoteurs
 10
-19.5
 20
-14.5
 30
0.0
  0
VERTEX
  8
SupportsMoteurs
 10
-19.5
 20
-14.45
 30
0.0
  0
VERTEX
  8
SupportsMoteurs
 10
-19.5
 20
-14.4
 30
0.0
  0
VERTEX
  8
SupportsMoteurs
 10
-19.5
 20
-14.35
 30
0.0
  0
VERTEX
  8
SupportsMoteurs
 10
-19.5
 20
-14.3
 30
0.0
  0
VERTEX
  8
SupportsMoteurs
 10
-19.5
 20
-14.29
 30
0.0
  0
SEQEND
  8
SupportsMoteurs
  0
POLYLINE
  8
SupportsMoteurs
 62
0
 70
0
 66
1
 10
0.0
 20
0.0
 30
0.0
  0
VERTEX
  8
SupportsMoteurs
 10
-21.0
 20
-30.5
 30
0.0
  0
VERTEX
  8
SupportsMoteurs
 10
-21.0
 20
-30.45
 30
0.0
  0
VERTEX
  8
SupportsMoteurs
 10
-21.0
 20
-30.4
 30
0.0
  0
VERTEX
  8
SupportsMoteurs
 10
-21.0
 20
-30.35
 30
0.0
  0
VERTEX
  8
SupportsMoteurs
 10
-21.0
 20
-30.3
 30
0.0
  0
VERTEX
  8
SupportsMoteurs
 10
-21.0
 20
-30.25
 30
0.0
  0
VERTEX
  8
SupportsMoteurs
 10
-21.0
 20
-30.2
 30
0.0
  0
VERTEX
  8
SupportsMoteurs
 10
-21.0
 20
-30.15
 30
0.0
  0
VERTEX
  8
SupportsMoteurs
 10
-21.0
 20
-30.1
 30
0.0
  0
VERTEX
  8
SupportsMoteurs
 10
-21.0
 20
-30.05
 30
0.0
  0
VERTEX
  8
SupportsMoteurs
 10
-21.0
 20
-30.0
 30
0.0
  0
VERTEX
  8
SupportsMoteurs
 10
-21.0
 20
-29.95
 30
0.0
  0
VERTEX
  8
SupportsMoteurs
 10
-21.0
 20
-29.9
 30
0.0
  0
VERTEX
  8
SupportsMoteurs
 10
-21.0
 20
-29.85
 30
0.0
  0
VERTEX
  8
SupportsMoteurs
 10
-21.0
 20
-29.8
 30
0.0
  0
VERTEX
  8
SupportsMoteurs
 10
-21.0
 20
-29.79
 30
0.0
  0
SEQEND
  8
SupportsMoteurs
  0
POLYLINE
  8
SupportsMoteurs
 62
0
 70
0
 66
1
 10
0.0
 20
0.0
 30
0.0
  0
VERTEX
  8
SupportsMoteurs
 10
-19.5
 20
-30.5
 30
0.0
  0
VERTEX
  8
SupportsMoteurs
 10
-19.5
 20
-30.45
 30
0.0
  0
VERTEX
  8
SupportsMoteurs
 10
-19.5
 20
-30.4
 30
0.0
  0
VERTEX
  8
SupportsMoteurs
 10
-19.5
 20
-30.35
 30
0.0
  0
VERTEX
  8
SupportsMoteurs
 10
-19.5
 20
-30.3
 30
0.0
  0
VERTEX
  8
SupportsMoteurs
 10
-19.5
 20
-30.25
 30
0.0
  0
VERTEX
  8
SupportsMoteurs
 10
-19.5
 20
-30.2
 30
0.0
  0
VERTEX
  8
SupportsMoteurs
 10
-19.5
 20
-30.15
 30
0.0
  0
VERTEX
  8
SupportsMoteurs
 10
-19.5
 20
-30.1
 30
0.0
  0
VERTEX
  8
SupportsMoteurs
 10
-19.5
 20
-30.05
 30
0.0
  0
VERTEX
  8
SupportsMoteurs
 10
-19.5
 20
-30.0
 30
0.0
  0
VERTEX
  8
SupportsMoteurs
 10
-19.5
 20
-29.95
 30
0.0
  0
VERTEX
  8
SupportsMoteurs
 10
-19.5
 20
-29.9
 30
0.0
  0
VERTEX
  8
SupportsMoteurs
 10
-19.5
 20
-29.85
 30
0.0
  0
VERTEX
  8
SupportsMoteurs
 10
-19.5
 20
-29.8
 30
0.0
  0
VERTEX
  8
SupportsMoteurs
 10
-19.5
 20
-29.79
 30
0.0
  0
SEQEND
  8
SupportsMoteurs
  0
POLYLINE
  8
SupportsMoteurs
 62
0
 70
0
 66
1
 10
0.0
 20
0.0
 30
0.0
  0
VERTEX
  8
SupportsMoteurs
 10
-21.0
 20
-30.5
 30
0.0
  0
VERTEX
  8
SupportsMoteurs
 10
-21.0
 20
-30.55
 30
0.0
  0
VERTEX
  8
SupportsMoteurs
 10
-21.0
 20
-30.6
 30
0.0
  0
VERTEX
  8
SupportsMoteurs
 10
-21.0
 20
-30.65
 30
0.0
  0
VERTEX
  8
SupportsMoteurs
 10
-21.0
 20
-30.7
 30
0.0
  0
VERTEX
  8
SupportsMoteurs
 10
-21.0
 20
-30.75
 30
0.0
  0
VERTEX
  8
SupportsMoteurs
 10
-21.0
 20
-30.8
 30
0.0
  0
VERTEX
  8
SupportsMoteurs
 10
-21.0
 20
-30.85
 30
0.0
  0
VERTEX
  8
SupportsMoteurs
 10
-21.0
 20
-30.9
 30
0.0
  0
VERTEX
  8
SupportsMoteurs
 10
-21.0
 20
-30.95
 30
0.0
  0
VERTEX
  8
SupportsMoteurs
 10
-21.0
 20
-31.0
 30
0.0
  0
SEQEND
  8
SupportsMoteurs
  0
POLYLINE
  8
SupportsMoteurs
 62
0
 70
0
 66
1
 10
0.0
 20
0.0
 30
0.0
  0
VERTEX
  8
SupportsMoteurs
 10
-19.5
 20
-30.5
 30
0.0
  0
VERTEX
  8
SupportsMoteurs
 10
-19.5
 20
-30.55
 30
0.0
  0
VERTEX
  8
SupportsMoteurs
 10
-19.5
 20
-30.6
 30
0.0
  0
VERTEX
  8
SupportsMoteurs
 10
-19.5
 20
-30.65
 30
0.0
  0
VERTEX
  8
SupportsMoteurs
 10
-19.5
 20
-30.7
 30
0.0
  0
VERTEX
  8
SupportsMoteurs
 10
-19.5
 20
-30.75
 30
0.0
  0
VERTEX
  8
SupportsMoteurs
 10
-19.5
 20
-30.8
 30
0.0
  0
VERTEX
  8
SupportsMoteurs
 10
-19.5
 20
-30.85
 30
0.0
  0
VERTEX
  8
SupportsMoteurs
 10
-19.5
 20
-30.9
 30
0.0
  0
VERTEX
  8
SupportsMoteurs
 10
-19.5
 20
-30.95
 30
0.0
  0
VERTEX
  8
SupportsMoteurs
 10
-19.5
 20
-31.0
 30
0.0
  0
SEQEND
  8
SupportsMoteurs
  0
POLYLINE
  8
SupportsMoteurs
 62
0
 70
0
 66
1
 10
0.0
 20
0.0
 30
0.0
  0
VERTEX
  8
SupportsMoteurs
 10
-21.0
 20
-33.0
 30
0.0
  0
VERTEX
  8
SupportsMoteurs
 10
-21.0
 20
-33.05
 30
0.0
  0
VERTEX
  8
SupportsMoteurs
 10
-21.0
 20
-33.1
 30
0.0
  0
VERTEX
  8
SupportsMoteurs
 10
-21.0
 20
-33.15
 30
0.0
  0
VERTEX
  8
SupportsMoteurs
 10
-21.0
 20
-33.2
 30
0.0
  0
VERTEX
  8
SupportsMoteurs
 10
-21.0
 20
-33.25
 30
0.0
  0
VERTEX
  8
SupportsMoteurs
 10
-21.0
 20
-33.3
 30
0.0
  0
VERTEX
  8
SupportsMoteurs
 10
-21.0
 20
-33.35
 30
0.0
  0
VERTEX
  8
SupportsMoteurs
 10
-21.0
 20
-33.4
 30
0.0
  0
VERTEX
  8
SupportsMoteurs
 10
-21.0
 20
-33.45
 30
0.0
  0
VERTEX
  8
SupportsMoteurs
 10
-21.0
 20
-33.5
 30
0.0
  0
SEQEND
  8
SupportsMoteurs
  0
POLYLINE
  8
SupportsMoteurs
 62
0
 70
0
 66
1
 10
0.0
 20
0.0
 30
0.0
  0
VERTEX
  8
SupportsMoteurs
 10
-19.5
 20
-33.0
 30
0.0
  0
VERTEX
  8
SupportsMoteurs
 10
-19.5
 20
-33.05
 30
0.0
  0
VERTEX
  8
SupportsMoteurs
 10
-19.5
 20
-33.1
 30
0.0
  0
VERTEX
  8
SupportsMoteurs
 10
-19.5
 20
-33.15
 30
0.0
  0
VERTEX
  8
SupportsMoteurs
 10
-19.5
 20
-33.2
 30
0.0
  0
VERTEX
  8
SupportsMoteurs
 10
-19.5
 20
-33.25
 30
0.0
  0
VERTEX
  8
SupportsMoteurs
 10
-19.5
 20
-33.3
 30
0.0
  0
VERTEX
  8
SupportsMoteurs
 10
-19.5
 20
-33.35
 30
0.0
  0
VERTEX
  8
SupportsMoteurs
 10
-19.5
 20
-33.4
 30
0.0
  0
VERTEX
  8
SupportsMoteurs
 10
-19.5
 20
-33.45
 30
0.0
  0
VERTEX
  8
SupportsMoteurs
 10
-19.5
 20
-33.5
 30
0.0
  0
SEQEND
  8
SupportsMoteurs
  0
POLYLINE
  8
SupportsMoteurs
 62
0
 70
0
 66
1
 10
0.0
 20
0.0
 30
0.0
  0
VERTEX
  8
SupportsMoteurs
 10
-21.0
 20
-34.21
 30
0.0
  0
VERTEX
  8
SupportsMoteurs
 10
-21.0
 20
-34.16
 30
0.0
  0
VERTEX
  8
SupportsMoteurs
 10
-21.0
 20
-34.11
 30
0.0
  0
VERTEX
  8
SupportsMoteurs
 10
-21.0
 20
-34.06
 30
0.0
  0
VERTEX
  8
SupportsMoteurs
 10
-21.0
 20
-34.01
 30
0.0
  0
VERTEX
  8
SupportsMoteurs
 10
-21.0
 20
-33.96
 30
0.0
  0
VERTEX
  8
SupportsMoteurs
 10
-21.0
 20
-33.91
 30
0.0
  0
VERTEX
  8
SupportsMoteurs
 10
-21.0
 20
-33.86
 30
0.0
  0
VERTEX
  8
SupportsMoteurs
 10
-21.0
 20
-33.81
 30
0.0
  0
VERTEX
  8
SupportsMoteurs
 10
-21.0
 20
-33.76
 30
0.0
  0
VERTEX
  8
SupportsMoteurs
 10
-21.0
 20
-33.71
 30
0.0
  0
VERTEX
  8
SupportsMoteurs
 10
-21.0
 20
-33.66
 30
0.0
  0
VERTEX
  8
SupportsMoteurs
 10
-21.0
 20
-33.61
 30
0.0
  0
VERTEX
  8
SupportsMoteurs
 10
-21.0
 20
-33.56
 30
0.0
  0
VERTEX
  8
SupportsMoteurs
 10
-21.0
 20
-33.51
 30
0.0
  0
VERTEX
  8
SupportsMoteurs
 10
-21.0
 20
-33.5
 30
0.0
  0
SEQEND
  8
SupportsMoteurs
  0
POLYLINE
  8
SupportsMoteurs
 62
0
 70
0
 66
1
 10
0.0
 20
0.0
 30
0.0
  0
VERTEX
  8
SupportsMoteurs
 10
-19.5
 20
-34.21
 30
0.0
  0
VERTEX
  8
SupportsMoteurs
 10
-19.5
 20
-34.16
 30
0.0
  0
VERTEX
  8
SupportsMoteurs
 10
-19.5
 20
-34.11
 30
0.0
  0
VERTEX
  8
SupportsMoteurs
 10
-19.5
 20
-34.06
 30
0.0
  0
VERTEX
  8
SupportsMoteurs
 10
-19.5
 20
-34.01
 30
0.0
  0
VERTEX
  8
SupportsMoteurs
 10
-19.5
 20
-33.96
 30
0.0
  0
VERTEX
  8
SupportsMoteurs
 10
-19.5
 20
-33.91
 30
0.0
  0
VERTEX
  8
SupportsMoteurs
 10
-19.5
 20
-33.86
 30
0.0
  0
VERTEX
  8
SupportsMoteurs
 10
-19.5
 20
-33.81
 30
0.0
  0
VERTEX
  8
SupportsMoteurs
 10
-19.5
 20
-33.76
 30
0.0
  0
VERTEX
  8
SupportsMoteurs
 10
-19.5
 20
-33.71
 30
0.0
  0
VERTEX
  8
SupportsMoteurs
 10
-19.5
 20
-33.66
 30
0.0
  0
VERTEX
  8
SupportsMoteurs
 10
-19.5
 20
-33.61
 30
0.0
  0
VERTEX
  8
SupportsMoteurs
 10
-19.5
 20
-33.56
 30
0.0
  0
VERTEX
  8
SupportsMoteurs
 10
-19.5
 20
-33.51
 30
0.0
  0
VERTEX
  8
SupportsMoteurs
 10
-19.5
 20
-33.5
 30
0.0
  0
SEQEND
  8
SupportsMoteurs
  0
LINE
  8
SupportsMoteurs
 62
0
 10
-21.0
 20
42.5
 30
0.0
 11
-19.5
 21
42.5
 31
0.0
  0
LINE
  8
SupportsMoteurs
 62
0
 10
-21.0
 20
42.5
 30
0.0
 11
-19.5
 21
42.5
 31
0.0
  0
LINE
  8
SupportsMoteurs
 62
0
 10
-21.0
 20
34.5
 30
0.0
 11
-19.5
 21
34.5
 31
0.0
  0
LINE
  8
SupportsMoteurs
 62
0
 10
-21.0
 20
34.5
 30
0.0
 11
-21.0
 21
42.5
 31
0.0
  0
LINE
  8
SupportsMoteurs
 62
0
 10
-19.5
 20
34.5
 30
0.0
 11
-19.5
 21
42.5
 31
0.0
  0
LINE
  8
SupportsMoteurs
 62
0
 10
-21.0
 20
33.5
 30
0.0
 11
-19.5
 21
33.5
 31
0.0
  0
LINE
  8
SupportsMoteurs
 62
0
 10
-21.0
 20
33.5
 30
0.0
 11
-19.5
 21
33.5
 31
0.0
  0
LINE
  8
SupportsMoteurs
 62
0
 10
-21.0
 20
32.0
 30
0.0
 11
-19.5
 21
32.0
 31
0.0
  0
LINE
  8
SupportsMoteurs
 62
0
 10
-21.0
 20
32.0
 30
0.0
 11
-21.0
 21
33.5
 31
0.0
  0
LINE
  8
SupportsMoteurs
 62
0
 10
-19.5
 20
32.0
 30
0.0
 11
-19.5
 21
33.5
 31
0.0
  0
LINE
  8
SupportsMoteurs
 62
0
 10
-21.0
 20
31.0
 30
0.0
 11
-19.5
 21
31.0
 31
0.0
  0
LINE
  8
SupportsMoteurs
 62
0
 10
-21.0
 20
28.5
 30
0.0
 11
-21.0
 21
30.5
 31
0.0
  0
LINE
  8
SupportsMoteurs
 62
0
 10
-19.5
 20
28.5
 30
0.0
 11
-19.5
 21
30.5
 31
0.0
  0
LINE
  8
SupportsMoteurs
 62
0
 10
-21.0
 20
28.0
 30
0.0
 11
-19.5
 21
28.0
 31
0.0
  0
LINE
  8
SupportsMoteurs
 62
0
 10
-21.0
 20
27.29
 30
0.0
 11
-19.5
 21
27.29
 31
0.0
  0
LINE
  8
SupportsMoteurs
 62
0
 10
-21.0
 20
15.0
 30
0.0
 11
-19.5
 21
15.0
 31
0.0
  0
LINE
  8
SupportsMoteurs
 62
0
 10
-21.0
 20
15.0
 30
0.0
 11
-21.0
 21
27.29
 31
0.0
  0
LINE
  8
SupportsMoteurs
 62
0
 10
-19.5
 20
15.0
 30
0.0
 11
-19.5
 21
27.29
 31
0.0
  0
LINE
  8
SupportsMoteurs
 62
0
 10
-21.0
 20
14.29
 30
0.0
 11
-19.5
 21
14.29
 31
0.0
  0
LINE
  8
SupportsMoteurs
 62
0
 10
-21.0
 20
11.71
 30
0.0
 11
-19.5
 21
11.71
 31
0.0
  0
LINE
  8
SupportsMoteurs
 62
0
 10
-21.0
 20
11.71
 30
0.0
 11
-21.0
 21
14.29
 31
0.0
  0
LINE
  8
SupportsMoteurs
 62
0
 10
-19.5
 20
11.71
 30
0.0
 11
-19.5
 21
14.29
 31
0.0
  0
LINE
  8
SupportsMoteurs
 62
0
 10
-21.0
 20
11.0
 30
0.0
 11
-19.5
 21
11.0
 31
0.0
  0
LINE
  8
SupportsMoteurs
 62
0
 10
-21.0
 20
11.0
 30
0.0
 11
-19.5
 21
11.0
 31
0.0
  0
LINE
  8
SupportsMoteurs
 62
0
 10
-21.0
 20
6.480741
 30
0.0
 11
-19.5
 21
6.480741
 31
0.0
  0
LINE
  8
SupportsMoteurs
 62
0
 10
-21.0
 20
6.480741
 30
0.0
 11
-21.0
 21
11.0
 31
0.0
  0
LINE
  8
SupportsMoteurs
 62
0
 10
-19.5
 20
6.480741
 30
0.0
 11
-19.5
 21
11.0
 31
0.0
  0
LINE
  8
SupportsMoteurs
 62
0
 10
-21.0
 20
3.5
 30
0.0
 11
-19.5
 21
3.5
 31
0.0
  0
LINE
  8
SupportsMoteurs
 62
0
 10
-21.0
 20
2.5
 30
0.0
 11
-19.5
 21
2.5
 31
0.0
  0
LINE
  8
SupportsMoteurs
 62
0
 10
-21.0
 20
2.5
 30
0.0
 11
-21.0
 21
3.5
 31
0.0
  0
LINE
  8
SupportsMoteurs
 62
0
 10
-19.5
 20
2.5
 30
0.0
 11
-19.5
 21
3.5
 31
0.0
  0
LINE
  8
SupportsMoteurs
 62
0
 10
-21.0
 20
1.5
 30
0.0
 11
-19.5
 21
1.5
 31
0.0
  0
LINE
  8
SupportsMoteurs
 62
0
 10
-21.0
 20
-1.0
 30
0.0
 11
-21.0
 21
1.0
 31
0.0
  0
LINE
  8
SupportsMoteurs
 62
0
 10
-19.5
 20
-1.0
 30
0.0
 11
-19.5
 21
1.0
 31
0.0
  0
LINE
  8
SupportsMoteurs
 62
0
 10
-21.0
 20
-1.5
 30
0.0
 11
-19.5
 21
-1.5
 31
0.0
  0
LINE
  8
SupportsMoteurs
 62
0
 10
-21.0
 20
-2.21
 30
0.0
 11
-19.5
 21
-2.21
 31
0.0
  0
LINE
  8
SupportsMoteurs
 62
0
 10
-21.0
 20
-3.0
 30
0.0
 11
-19.5
 21
-3.0
 31
0.0
  0
LINE
  8
SupportsMoteurs
 62
0
 10
-21.0
 20
-3.0
 30
0.0
 11
-21.0
 21
-2.21
 31
0.0
  0
LINE
  8
SupportsMoteurs
 62
0
 10
-19.5
 20
-3.0
 30
0.0
 11
-19.5
 21
-2.21
 31
0.0
  0
LINE
  8
SupportsMoteurs
 62
0
 10
-21.0
 20
-6.480741
 30
0.0
 11
-19.5
 21
-6.480741
 31
0.0
  0
LINE
  8
SupportsMoteurs
 62
0
 10
-21.0
 20
-11.0
 30
0.0
 11
-19.5
 21
-11.0
 31
0.0
  0
LINE
  8
SupportsMoteurs
 62
0
 10
-21.0
 20
-11.0
 30
0.0
 11
-21.0
 21
-6.480741
 31
0.0
  0
LINE
  8
SupportsMoteurs
 62
0
 10
-19.5
 20
-11.0
 30
0.0
 11
-19.5
 21
-6.480741
 31
0.0
  0
LINE
  8
SupportsMoteurs
 62
0
 10
-21.0
 20
-11.71
 30
0.0
 11
-19.5
 21
-11.71
 31
0.0
  0
LINE
  8
SupportsMoteurs
 62
0
 10
-21.0
 20
-14.29
 30
0.0
 11
-19.5
 21
-14.29
 31
0.0
  0
LINE
  8
SupportsMoteurs
 62
0
 10
-21.0
 20
-14.29
 30
0.0
 11
-21.0
 21
-11.71
 31
0.0
  0
LINE
  8
SupportsMoteurs
 62
0
 10
-19.5
 20
-14.29
 30
0.0
 11
-19.5
 21
-11.71
 31
0.0
  0
LINE
  8
SupportsMoteurs
 62
0
 10
-21.0
 20
-15.0
 30
0.0
 11
-19.5
 21
-15.0
 31
0.0
  0
LINE
  8
SupportsMoteurs
 62
0
 10
-21.0
 20
-15.0
 30
0.0
 11
-19.5
 21
-15.0
 31
0.0
  0
LINE
  8
SupportsMoteurs
 62
0
 10
-21.0
 20
-29.79
 30
0.0
 11
-19.5
 21
-29.79
 31
0.0
  0
LINE
  8
SupportsMoteurs
 62
0
 10
-21.0
 20
-29.79
 30
0.0
 11
-21.0
 21
-15.0
 31
0.0
  0
LINE
  8
SupportsMoteurs
 62
0
 10
-19.5
 20
-29.79
 30
0.0
 11
-19.5
 21
-15.0
 31
0.0
  0
LINE
  8
SupportsMoteurs
 62
0
 10
-21.0
 20
-30.5
 30
0.0
 11
-19.5
 21
-30.5
 31
0.0
  0
LINE
  8
SupportsMoteurs
 62
0
 10
-21.0
 20
-33.0
 30
0.0
 11
-21.0
 21
-31.0
 31
0.0
  0
LINE
  8
SupportsMoteurs
 62
0
 10
-19.5
 20
-33.0
 30
0.0
 11
-19.5
 21
-31.0
 31
0.0
  0
LINE
  8
SupportsMoteurs
 62
0
 10
-21.0
 20
-33.5
 30
0.0
 11
-19.5
 21
-33.5
 31
0.0
  0
LINE
  8
SupportsMoteurs
 62
0
 10
-21.0
 20
-34.21
 30
0.0
 11
-19.5
 21
-34.21
 31
0.0
  0
LINE
  8
SupportsMoteurs
 62
0
 10
-21.0
 20
-35.0
 30
0.0
 11
-21.0
 21
-34.21
 31
0.0
  0
LINE
  8
SupportsMoteurs
 62
0
 10
-19.5
 20
-35.0
 30
0.0
 11
-19.5
 21
-34.21
 31
0.0
  0
LINE
  8
SupportsMoteurs
 62
0
 10
-21.0
 20
-36.0
 30
0.0
 11
-19.5
 21
-36.0
 31
0.0
  0
LINE
  8
SupportsMoteurs
 62
0
 10
-21.0
 20
-36.0
 30
0.0
 11
-21.0
 21
-35.0
 31
0.0
  0
LINE
  8
SupportsMoteurs
 62
0
 10
-19.5
 20
-36.0
 30
0.0
 11
-19.5
 21
-35.0
 31
0.0
  0
LINE
  8
SupportsMoteurs
 62
0
 10
-21.0
 20
30.5
 30
0.0
 11
-19.5
 21
30.5
 31
0.0
  0
LINE
  8
SupportsMoteurs
 62
0
 10
-21.0
 20
28.5
 30
0.0
 11
-19.5
 21
28.5
 31
0.0
  0
LINE
  8
SupportsMoteurs
 62
0
 10
-21.0
 20
4.25
 30
0.0
 11
-19.5
 21
4.25
 31
0.0
  0
LINE
  8
SupportsMoteurs
 62
0
 10
-21.0
 20
1.0
 30
0.0
 11
-19.5
 21
1.0
 31
0.0
  0
LINE
  8
SupportsMoteurs
 62
0
 10
-21.0
 20
-1.0
 30
0.0
 11
-19.5
 21
-1.0
 31
0.0
  0
LINE
  8
SupportsMoteurs
 62
0
 10
-21.0
 20
-4.25
 30
0.0
 11
-19.5
 21
-4.25
 31
0.0
  0
LINE
  8
SupportsMoteurs
 62
0
 10
-21.0
 20
-31.0
 30
0.0
 11
-19.5
 21
-31.0
 31
0.0
  0
LINE
  8
SupportsMoteurs
 62
0
 10
-21.0
 20
-33.0
 30
0.0
 11
-19.5
 21
-33.0
 31
0.0
  0
LINE
  8
SupportsMoteurs
 62
0
 10
-21.0
 20
-35.0
 30
0.0
 11
-19.5
 21
-35.0
 31
0.0
  0
ENDBLK
  0
ENDSEC
  0
SECTION
  2
ENTITIES
  0
INSERT
  2
PAD035
  8
Base
 62
0
 10
0.0
 20
0.0
 30
0.0
  0
INSERT
  2
CLONE132
  8
SupportsMoteurs
 62
0
 10
0.0
 20
0.0
 30
0.0
  0
INSERT
  2
CLONE133
  8
SupportsMoteurs
 62
0
 10
0.0
 20
0.0
 30
0.0
  0
ENDSEC
  0
EOF
