  0
SECTION
  2
HEADER
  9
$ACADVER
  1
AC1009
  9
$INSBASE
 10
0.0
 20
0.0
 30
0.0
  9
$EXTMIN
 10
0.0
 20
0.0
 30
0.0
  9
$EXTMAX
 10
0.0
 20
0.0
 30
0.0
  0
ENDSEC
  0
SECTION
  2
TABLES
  0
TABLE
  2
VPORT
 70
0
  0
ENDTAB
  0
TABLE
  2
LTYPE
 70
1
  0
LTYPE
  2
CONTINUOUS
 70
0
  3
Solid line
 72
65
 73
0
 40
0.0
  0
ENDTAB
  0
TABLE
  2
LAYER
 70
1
  0
LAYER
  2
0
 70
64
 62
7
  6
continuous
  0
ENDTAB
  0
TABLE
  2
STYLE
 70
1
  0
STYLE
  2
STANDARD
 70
0
 40
0
 41
1.0
 50
0.0
 71
0
 42
1
 3
ARIAL.TTF
 4

  0
ENDTAB
  0
TABLE
  2
VIEW
 70
0
  0
ENDTAB
  0
ENDSEC
  0
SECTION
  2
BLOCKS
  0
BLOCK
  8
Base
  2
PAD035
 70
0
 10
0.0
 20
0.0
 30
0.0
  3
PAD035
  0
LINE
  8
Base
 62
0
 10
-23.0
 20
20.0
 30
0.0
 11
-23.0
 21
-20.0
 31
0.0
  0
ARC
  8
Base
 62
0
 10
-27.0000003976
 20
-19.9999998303
 30
0.0
 40
4.00000039762
 50
-71.0753560176
 51
-2.41483653945e-06
  0
ARC
  8
Base
 62
0
 10
-24.6000002629
 20
-26.9999999265
 30
0.0
 40
3.39999973709
 50
108.924646548
 51
-179.999998793
  0
LINE
  8
Base
 62
0
 10
-28.0
 20
-27.0
 30
0.0
 11
-28.0
 21
-28.000002
 31
0.0
  0
ARC
  8
Base
 62
0
 10
-20.000000253
 20
-28.0000011333
 30
0.0
 40
7.99999974697
 50
-179.999993784
 51
-117.029124606
  0
LINE
  8
Base
 62
0
 10
-23.635547
 20
-35.126206
 30
0.0
 11
-9.272202
 21
-42.453887
 31
0.0
  0
ARC
  8
Base
 62
0
 10
-6.99999956103
 20
-37.9999877934
 30
0.0
 40
5.00001220665
 50
-117.028868647
 51
-90.0000050302
  0
LINE
  8
Base
 62
0
 10
-7.0
 20
-43.0
 30
0.0
 11
6.999975
 21
-43.0
 31
0.0
  0
ARC
  8
Base
 62
0
 10
6.99996958059
 20
-37.9999782274
 30
0.0
 40
5.00002177264
 50
-89.9999378984
 51
-62.9709559718
  0
LINE
  8
Base
 62
0
 10
9.27219
 20
-42.453879
 30
0.0
 11
23.63554
 21
-35.126208
 31
0.0
  0
ARC
  8
Base
 62
0
 10
19.9999999156
 20
-27.9999993555
 30
0.0
 40
8.00000008442
 50
-62.9709301947
 51
-4.67631085055e-06
  0
LINE
  8
Base
 62
0
 10
28.0
 20
-28.0
 30
0.0
 11
28.0
 21
-26.999999
 31
0.0
  0
ARC
  8
Base
 62
0
 10
24.5999998681
 20
-26.9999992085
 30
0.0
 40
3.40000013187
 50
3.30665111336e-06
 51
71.0753487003
  0
ARC
  8
Base
 62
0
 10
27.0000000507
 20
-19.9999990781
 30
0.0
 40
4.00000005067
 50
-179.999986773
 51
-108.924640433
  0
LINE
  8
Base
 62
0
 10
23.0
 20
-20.0
 30
0.0
 11
23.0
 21
20.0
 31
0.0
  0
ARC
  8
Base
 62
0
 10
26.0000000837
 20
19.9999999163
 30
0.0
 40
3.00000008368
 50
89.9999824997
 51
179.999998292
  0
ARC
  8
Base
 62
0
 10
26.0000026213
 20
31.8284177797
 30
0.0
 40
8.82841777973
 50
-90.0000105224
 51
-45.0000064296
  0
LINE
  8
Base
 62
0
 10
32.242636
 20
25.585783
 30
0.0
 11
33.828426
 21
27.171572
 31
0.0
  0
ARC
  8
Base
 62
0
 10
30.9999996017
 20
30.0000004145
 30
0.0
 40
4.00000039826
 50
-45.0000204212
 51
-5.91511733388e-06
  0
LINE
  8
Base
 62
0
 10
35.0
 20
30.0
 30
0.0
 11
35.0
 21
31.5
 31
0.0
  0
ARC
  8
Base
 62
0
 10
31.0355337007
 20
31.4999992913
 30
0.0
 40
3.96446629931
 50
1.0245283755e-05
 51
44.9999939648
  0
LINE
  8
Base
 62
0
 10
33.838835
 20
34.3033
 30
0.0
 11
17.07107
 21
51.071067
 31
0.0
  0
ARC
  8
Base
 62
0
 10
9.99999984156
 20
43.9999962949
 30
0.0
 40
10.0000037051
 50
45.0000022148
 51
89.9999990922
  0
LINE
  8
Base
 62
0
 10
10.0
 20
54.0
 30
0.0
 11
-10.0
 21
54.0
 31
0.0
  0
ARC
  8
Base
 62
0
 10
-10.0000004267
 20
44.0000001217
 30
0.0
 40
9.99999987828
 50
89.9999975553
 51
134.999998764
  0
LINE
  8
Base
 62
0
 10
-17.071068
 20
51.071068
 30
0.0
 11
-33.838835
 21
34.3033
 31
0.0
  0
ARC
  8
Base
 62
0
 10
-31.0355334827
 20
31.499999201
 30
0.0
 40
3.9644665173
 50
135.00000734
 51
179.999988419
  0
LINE
  8
Base
 62
0
 10
-35.0
 20
31.5
 30
0.0
 11
-35.0
 21
30.0
 31
0.0
  0
ARC
  8
Base
 62
0
 10
-31.0000002993
 20
30.0000011255
 30
0.0
 40
3.99999970069
 50
-179.999983891
 51
-134.999995697
  0
LINE
  8
Base
 62
0
 10
-33.828427
 20
27.171574
 30
0.0
 11
-32.242638
 21
25.585784
 31
0.0
  0
ARC
  8
Base
 62
0
 10
-26.0000030664
 20
31.8284191196
 30
0.0
 40
8.82841911955
 50
-134.999999147
 51
-89.9999800995
  0
ARC
  8
Base
 62
0
 10
-25.9999999415
 20
20.0000000585
 30
0.0
 40
2.99999994154
 50
-8.53773646252e-07
 51
90.0000011164
  0
ARC
  8
Base
 62
0
 10
2.61776038251e-08
 20
24.9999999547
 30
0.0
 40
10.7499999738
 50
0.12628612578
 51
120.000000242
  0
ARC
  8
Base
 62
0
 10
-2.09733741485e-09
 20
25.0
 30
0.0
 40
10.7500000021
 50
0.0
 51
0.126285883795
  0
ARC
  8
Base
 62
0
 10
2.61777717281e-08
 20
24.9999999547
 30
0.0
 40
10.7499999738
 50
120.000000242
 51
0.0
  0
ARC
  8
Base
 62
0
 10
2.6177604558e-08
 20
-25.0000000453
 30
0.0
 40
10.7499999738
 50
0.126283633153
 51
120.000000242
  0
ARC
  8
Base
 62
0
 10
1.38008804385e-09
 20
-25.0
 30
0.0
 40
10.7499999986
 50
-0.0
 51
0.126283391189
  0
ARC
  8
Base
 62
0
 10
2.61777735044e-08
 20
-25.0000000453
 30
0.0
 40
10.7499999738
 50
120.000000242
 51
0.0
  0
LINE
  8
Base
 62
0
 10
-4.4
 20
-2.7
 30
0.0
 11
-4.9
 21
-4.0
 31
0.0
  0
LINE
  8
Base
 62
0
 10
-4.9
 20
-4.0
 30
0.0
 11
-19.4
 21
-4.0
 31
0.0
  0
LINE
  8
Base
 62
0
 10
-19.4
 20
-4.0
 30
0.0
 11
-19.4
 21
4.0
 31
0.0
  0
LINE
  8
Base
 62
0
 10
-19.4
 20
4.0
 30
0.0
 11
-4.9
 21
4.0
 31
0.0
  0
LINE
  8
Base
 62
0
 10
-4.9
 20
4.0
 30
0.0
 11
-4.4
 21
2.7
 31
0.0
  0
LINE
  8
Base
 62
0
 10
-4.4
 20
2.7
 30
0.0
 11
-2.4
 21
2.7
 31
0.0
  0
LINE
  8
Base
 62
0
 10
-2.4
 20
2.7
 30
0.0
 11
-2.4
 21
-2.7
 31
0.0
  0
LINE
  8
Base
 62
0
 10
-2.4
 20
-2.7
 30
0.0
 11
-4.4
 21
-2.7
 31
0.0
  0
LINE
  8
Base
 62
0
 10
4.4
 20
-2.7
 30
0.0
 11
2.4
 21
-2.7
 31
0.0
  0
LINE
  8
Base
 62
0
 10
2.4
 20
-2.7
 30
0.0
 11
2.4
 21
2.7
 31
0.0
  0
LINE
  8
Base
 62
0
 10
2.4
 20
2.7
 30
0.0
 11
4.4
 21
2.7
 31
0.0
  0
LINE
  8
Base
 62
0
 10
4.4
 20
2.7
 30
0.0
 11
4.9
 21
4.0
 31
0.0
  0
LINE
  8
Base
 62
0
 10
4.9
 20
4.0
 30
0.0
 11
19.4
 21
4.0
 31
0.0
  0
LINE
  8
Base
 62
0
 10
19.4
 20
4.0
 30
0.0
 11
19.4
 21
-4.0
 31
0.0
  0
LINE
  8
Base
 62
0
 10
19.4
 20
-4.0
 30
0.0
 11
4.9
 21
-4.0
 31
0.0
  0
LINE
  8
Base
 62
0
 10
4.9
 20
-4.0
 30
0.0
 11
4.4
 21
-2.7
 31
0.0
  0
LINE
  8
Base
 62
0
 10
21.0
 20
-18.0
 30
0.0
 11
19.5
 21
-18.0
 31
0.0
  0
LINE
  8
Base
 62
0
 10
19.5
 20
-18.0
 30
0.0
 11
19.5
 21
-15.0
 31
0.0
  0
LINE
  8
Base
 62
0
 10
19.5
 20
-15.0
 30
0.0
 11
21.0
 21
-15.0
 31
0.0
  0
LINE
  8
Base
 62
0
 10
21.0
 20
-15.0
 30
0.0
 11
21.0
 21
-18.0
 31
0.0
  0
LINE
  8
Base
 62
0
 10
19.5
 20
18.0
 30
0.0
 11
21.0
 21
18.0
 31
0.0
  0
LINE
  8
Base
 62
0
 10
21.0
 20
18.0
 30
0.0
 11
21.0
 21
15.0
 31
0.0
  0
LINE
  8
Base
 62
0
 10
21.0
 20
15.0
 30
0.0
 11
19.5
 21
15.0
 31
0.0
  0
LINE
  8
Base
 62
0
 10
19.5
 20
15.0
 30
0.0
 11
19.5
 21
18.0
 31
0.0
  0
LINE
  8
Base
 62
0
 10
-21.0
 20
-15.0
 30
0.0
 11
-19.5
 21
-15.0
 31
0.0
  0
LINE
  8
Base
 62
0
 10
-19.5
 20
-15.0
 30
0.0
 11
-19.5
 21
-18.0
 31
0.0
  0
LINE
  8
Base
 62
0
 10
-19.5
 20
-18.0
 30
0.0
 11
-21.0
 21
-18.0
 31
0.0
  0
LINE
  8
Base
 62
0
 10
-21.0
 20
-18.0
 30
0.0
 11
-21.0
 21
-15.0
 31
0.0
  0
LINE
  8
Base
 62
0
 10
-21.0
 20
18.0
 30
0.0
 11
-19.5
 21
18.0
 31
0.0
  0
LINE
  8
Base
 62
0
 10
-19.5
 20
18.0
 30
0.0
 11
-19.5
 21
15.0
 31
0.0
  0
LINE
  8
Base
 62
0
 10
-19.5
 20
15.0
 30
0.0
 11
-21.0
 21
15.0
 31
0.0
  0
LINE
  8
Base
 62
0
 10
-21.0
 20
15.0
 30
0.0
 11
-21.0
 21
18.0
 31
0.0
  0
CIRCLE
  8
Base
 62
0
 10
18.0
 20
-32.5
 30
0.0
 40
1.0
  0
CIRCLE
  8
Base
 62
0
 10
-18.0
 20
-32.5
 30
0.0
 40
1.0
  0
CIRCLE
  8
Base
 62
0
 10
-18.0
 20
32.5
 30
0.0
 40
1.0
  0
CIRCLE
  8
Base
 62
0
 10
18.0
 20
32.5
 30
0.0
 40
1.0
  0
ENDBLK
  0
BLOCK
  8
Caches
  2
PAD040
 70
0
 10
0.0
 20
0.0
 30
0.0
  3
PAD040
  0
LINE
  8
Caches
 62
0
 10
-6.0
 20
49.5
 30
0.0
 11
0.0
 21
49.5
 31
0.0
  0
LINE
  8
Caches
 62
0
 10
0.0
 20
49.5
 30
0.0
 11
6.0
 21
49.5
 31
0.0
  0
LINE
  8
Caches
 62
0
 10
0.0
 20
54.0
 30
0.0
 11
-10.0
 21
54.0
 31
0.0
  0
ARC
  8
Caches
 62
0
 10
-9.99999972952
 20
43.9999998763
 30
0.0
 40
10.0000001237
 50
90.0000015497
 51
109.832174716
  0
ARC
  8
Caches
 62
0
 10
-9.99999842802
 20
43.999998467
 30
0.0
 40
10.0000024616
 50
121.981176646
 51
135.000000158
  0
LINE
  8
Caches
 62
0
 10
-17.071068
 20
51.071068
 30
0.0
 11
-20.899805
 21
47.242331
 31
0.0
  0
LINE
  8
Caches
 62
0
 10
-22.567419
 20
45.574717
 30
0.0
 11
-23.563958
 21
44.578178
 31
0.0
  0
LINE
  8
Caches
 62
0
 10
-24.978172
 20
43.163964
 30
0.0
 11
-29.754975
 21
38.38716
 31
0.0
  0
LINE
  8
Caches
 62
0
 10
-31.574728
 20
36.567407
 30
0.0
 11
-33.838835
 21
34.3033
 31
0.0
  0
ARC
  8
Caches
 62
0
 10
-31.03553348
 20
31.4999991998
 30
0.0
 40
3.96446652005
 50
135.000007357
 51
179.999988419
  0
LINE
  8
Caches
 62
0
 10
-35.0
 20
31.5
 30
0.0
 11
-35.0
 21
30.0
 31
0.0
  0
ARC
  8
Caches
 62
0
 10
-30.9999997241
 20
30.0000017517
 30
0.0
 40
4.00000027594
 50
-179.999974904
 51
-163.459805129
  0
LINE
  8
Caches
 62
0
 10
-34.834481
 20
28.86125
 30
0.0
 11
-33.945219
 21
28.954715
 31
0.0
  0
LINE
  8
Caches
 62
0
 10
-33.945219
 20
28.954715
 30
0.0
 11
-32.301052
 21
29.127524
 31
0.0
  0
LINE
  8
Caches
 62
0
 10
-27.328443
 20
29.650167
 30
0.0
 11
-25.676173
 21
29.823827
 31
0.0
  0
LINE
  8
Caches
 62
0
 10
-25.676173
 20
29.823827
 30
0.0
 11
-20.142136
 21
35.357864
 31
0.0
  0
LINE
  8
Caches
 62
0
 10
-20.142136
 20
35.357864
 30
0.0
 11
-19.717767
 21
35.782233
 31
0.0
  0
LINE
  8
Caches
 62
0
 10
-16.182234
 20
39.317766
 30
0.0
 11
-6.682235
 21
48.817765
 31
0.0
  0
LINE
  8
Caches
 62
0
 10
-6.682235
 20
48.817765
 30
0.0
 11
-6.0
 21
49.5
 31
0.0
  0
LINE
  8
Caches
 62
0
 10
6.0
 20
49.5
 30
0.0
 11
6.682235
 21
48.817765
 31
0.0
  0
LINE
  8
Caches
 62
0
 10
6.682235
 20
48.817765
 30
0.0
 11
16.182234
 21
39.317766
 31
0.0
  0
LINE
  8
Caches
 62
0
 10
19.717767
 20
35.782233
 30
0.0
 11
20.142136
 21
35.357864
 31
0.0
  0
LINE
  8
Caches
 62
0
 10
20.142136
 20
35.357864
 30
0.0
 11
25.676173
 21
29.823827
 31
0.0
  0
LINE
  8
Caches
 62
0
 10
25.676173
 20
29.823827
 30
0.0
 11
27.328443
 21
29.650167
 31
0.0
  0
LINE
  8
Caches
 62
0
 10
32.301052
 20
29.127524
 30
0.0
 11
33.945219
 21
28.954715
 31
0.0
  0
LINE
  8
Caches
 62
0
 10
33.945219
 20
28.954715
 30
0.0
 11
34.834481
 21
28.86125
 31
0.0
  0
ARC
  8
Caches
 62
0
 10
30.9999997241
 20
30.0000017517
 30
0.0
 40
4.00000027594
 50
-16.5401948705
 51
-2.50957174698e-05
  0
LINE
  8
Caches
 62
0
 10
35.0
 20
30.0
 30
0.0
 11
35.0
 21
31.5
 31
0.0
  0
ARC
  8
Caches
 62
0
 10
31.03553348
 20
31.4999991998
 30
0.0
 40
3.96446652005
 50
1.15811491995e-05
 51
44.9999926434
  0
LINE
  8
Caches
 62
0
 10
33.838835
 20
34.3033
 30
0.0
 11
31.574728
 21
36.567407
 31
0.0
  0
LINE
  8
Caches
 62
0
 10
29.754975
 20
38.38716
 30
0.0
 11
24.978172
 21
43.163964
 31
0.0
  0
LINE
  8
Caches
 62
0
 10
23.563958
 20
44.578178
 30
0.0
 11
22.567419
 21
45.574717
 31
0.0
  0
LINE
  8
Caches
 62
0
 10
20.899805
 20
47.242331
 30
0.0
 11
17.071068
 21
51.071068
 31
0.0
  0
ARC
  8
Caches
 62
0
 10
9.99999842802
 20
43.999998467
 30
0.0
 40
10.0000024616
 50
44.9999998421
 51
58.018823354
  0
ARC
  8
Caches
 62
0
 10
9.99999972952
 20
43.9999998763
 30
0.0
 40
10.0000001237
 50
70.1678252842
 51
89.9999984503
  0
LINE
  8
Caches
 62
0
 10
10.0
 20
54.0
 30
0.0
 11
0.0
 21
54.0
 31
0.0
  0
ARC
  8
Caches
 62
0
 10
-10.0000033307
 20
44.0000023894
 30
0.0
 40
9.99999653793
 50
109.832160192
 51
121.981164722
  0
LINE
  8
Caches
 62
0
 10
-20.899805
 20
47.242331
 30
0.0
 11
-22.567419
 21
45.574717
 31
0.0
  0
LINE
  8
Caches
 62
0
 10
-23.563958
 20
44.578178
 30
0.0
 11
-24.978172
 21
43.163964
 31
0.0
  0
LINE
  8
Caches
 62
0
 10
-29.754975
 20
38.38716
 30
0.0
 11
-31.574728
 21
36.567407
 31
0.0
  0
LINE
  8
Caches
 62
0
 10
-32.301052
 20
29.127524
 30
0.0
 11
-27.328443
 21
29.650167
 31
0.0
  0
LINE
  8
Caches
 62
0
 10
-19.717767
 20
35.782233
 30
0.0
 11
-16.182234
 21
39.317766
 31
0.0
  0
LINE
  8
Caches
 62
0
 10
-6.0
 20
49.5
 30
0.0
 11
0.0
 21
49.5
 31
0.0
  0
LINE
  8
Caches
 62
0
 10
0.0
 20
49.5
 30
0.0
 11
6.0
 21
49.5
 31
0.0
  0
LINE
  8
Caches
 62
0
 10
16.182234
 20
39.317766
 30
0.0
 11
19.717767
 21
35.782233
 31
0.0
  0
LINE
  8
Caches
 62
0
 10
27.328443
 20
29.650167
 30
0.0
 11
32.301052
 21
29.127524
 31
0.0
  0
LINE
  8
Caches
 62
0
 10
31.574728
 20
36.567407
 30
0.0
 11
29.754975
 21
38.38716
 31
0.0
  0
LINE
  8
Caches
 62
0
 10
24.978172
 20
43.163964
 30
0.0
 11
23.563958
 21
44.578178
 31
0.0
  0
LINE
  8
Caches
 62
0
 10
22.567419
 20
45.574717
 30
0.0
 11
20.899805
 21
47.242331
 31
0.0
  0
ARC
  8
Caches
 62
0
 10
10.0000033307
 20
44.0000023894
 30
0.0
 40
9.99999653793
 50
58.0188352777
 51
70.1678398085
  0
ENDBLK
  0
BLOCK
  8
Connecteurs
  2
CLONE094
 70
0
 10
0.0
 20
0.0
 30
0.0
  3
CLONE094
  0
POLYLINE
  8
Connecteurs
 62
0
 70
0
 66
1
 10
0.0
 20
0.0
 30
0.0
  0
VERTEX
  8
Connecteurs
 10
-13.225
 20
12.6
 30
0.0
  0
VERTEX
  8
Connecteurs
 10
-13.225
 20
12.65
 30
0.0
  0
VERTEX
  8
Connecteurs
 10
-13.225
 20
12.7
 30
0.0
  0
VERTEX
  8
Connecteurs
 10
-13.225
 20
12.725
 30
0.0
  0
SEQEND
  8
Connecteurs
  0
POLYLINE
  8
Connecteurs
 62
0
 70
0
 66
1
 10
0.0
 20
0.0
 30
0.0
  0
VERTEX
  8
Connecteurs
 10
-13.825
 20
12.6
 30
0.0
  0
VERTEX
  8
Connecteurs
 10
-13.825
 20
12.65
 30
0.0
  0
VERTEX
  8
Connecteurs
 10
-13.825
 20
12.7
 30
0.0
  0
VERTEX
  8
Connecteurs
 10
-13.825
 20
12.725
 30
0.0
  0
SEQEND
  8
Connecteurs
  0
LINE
  8
Connecteurs
 62
0
 10
-7.245
 20
12.6
 30
0.0
 11
-6.945
 21
12.6
 31
0.0
  0
LINE
  8
Connecteurs
 62
0
 10
-13.225
 20
15.5
 30
0.0
 11
-13.225
 21
16.0
 31
0.0
  0
LINE
  8
Connecteurs
 62
0
 10
-13.225
 20
12.725
 30
0.0
 11
-13.225
 21
15.5
 31
0.0
  0
LINE
  8
Connecteurs
 62
0
 10
-11.055
 20
12.6
 30
0.0
 11
-10.755
 21
12.6
 31
0.0
  0
LINE
  8
Connecteurs
 62
0
 10
-9.785
 20
12.6
 30
0.0
 11
-9.485
 21
12.6
 31
0.0
  0
LINE
  8
Connecteurs
 62
0
 10
-8.515
 20
12.6
 30
0.0
 11
-8.215
 21
12.6
 31
0.0
  0
LINE
  8
Connecteurs
 62
0
 10
-5.975
 20
12.6
 30
0.0
 11
-5.675
 21
12.6
 31
0.0
  0
LINE
  8
Connecteurs
 62
0
 10
-12.325
 20
12.6
 30
0.0
 11
-12.025
 21
12.6
 31
0.0
  0
LINE
  8
Connecteurs
 62
0
 10
-13.225
 20
12.6
 30
0.0
 11
-12.325
 21
12.6
 31
0.0
  0
LINE
  8
Connecteurs
 62
0
 10
-12.025
 20
12.6
 30
0.0
 11
-11.055
 21
12.6
 31
0.0
  0
LINE
  8
Connecteurs
 62
0
 10
-10.755
 20
12.6
 30
0.0
 11
-9.785
 21
12.6
 31
0.0
  0
LINE
  8
Connecteurs
 62
0
 10
-9.485
 20
12.6
 30
0.0
 11
-8.515
 21
12.6
 31
0.0
  0
LINE
  8
Connecteurs
 62
0
 10
-8.215
 20
12.6
 30
0.0
 11
-7.245
 21
12.6
 31
0.0
  0
LINE
  8
Connecteurs
 62
0
 10
-6.945
 20
12.6
 30
0.0
 11
-5.975
 21
12.6
 31
0.0
  0
LINE
  8
Connecteurs
 62
0
 10
-5.675
 20
12.6
 30
0.0
 11
-4.775
 21
12.6
 31
0.0
  0
LINE
  8
Connecteurs
 62
0
 10
-13.825
 20
12.6
 30
0.0
 11
-4.175
 21
12.6
 31
0.0
  0
LINE
  8
Connecteurs
 62
0
 10
-13.225
 20
16.0
 30
0.0
 11
-13.825
 21
16.0
 31
0.0
  0
LINE
  8
Connecteurs
 62
0
 10
-13.825
 20
16.0
 30
0.0
 11
-13.825
 21
15.5
 31
0.0
  0
LINE
  8
Connecteurs
 62
0
 10
-13.225
 20
15.5
 30
0.0
 11
-13.825
 21
15.5
 31
0.0
  0
LINE
  8
Connecteurs
 62
0
 10
-13.825
 20
12.725
 30
0.0
 11
-13.825
 21
15.5
 31
0.0
  0
LINE
  8
Connecteurs
 62
0
 10
-13.825
 20
10.75
 30
0.0
 11
-13.825
 21
11.65
 31
0.0
  0
LINE
  8
Connecteurs
 62
0
 10
-13.825
 20
10.6
 30
0.0
 11
-13.825
 21
9.3
 31
0.0
  0
LINE
  8
Connecteurs
 62
0
 10
-13.825
 20
12.6
 30
0.0
 11
-13.825
 21
10.6
 31
0.0
  0
LINE
  8
Connecteurs
 62
0
 10
-13.825
 20
10.6
 30
0.0
 11
-4.175
 21
10.6
 31
0.0
  0
LINE
  8
Connecteurs
 62
0
 10
-4.175
 20
12.6
 30
0.0
 11
-4.175
 21
10.6
 31
0.0
  0
LINE
  8
Connecteurs
 62
0
 10
-4.175
 20
10.6
 30
0.0
 11
-4.175
 21
9.3
 31
0.0
  0
LINE
  8
Connecteurs
 62
0
 10
-13.825
 20
10.75
 30
0.0
 11
-13.895
 21
10.862
 31
0.0
  0
LINE
  8
Connecteurs
 62
0
 10
-13.895
 20
11.65
 30
0.0
 11
-13.825
 21
11.65
 31
0.0
  0
LINE
  8
Connecteurs
 62
0
 10
-13.225
 20
9.4
 30
0.0
 11
-13.225
 21
9.35
 31
0.0
  0
LINE
  8
Connecteurs
 62
0
 10
-4.775
 20
9.4
 30
0.0
 11
-13.225
 21
9.4
 31
0.0
  0
LINE
  8
Connecteurs
 62
0
 10
-13.825
 20
9.6
 30
0.0
 11
-13.895
 21
9.6
 31
0.0
  0
LINE
  8
Connecteurs
 62
0
 10
-13.775
 20
9.0
 30
0.0
 11
-13.525
 21
9.0
 31
0.0
  0
LINE
  8
Connecteurs
 62
0
 10
-13.825
 20
9.3
 30
0.0
 11
-13.525
 21
9.0
 31
0.0
  0
LINE
  8
Connecteurs
 62
0
 10
-4.775
 20
9.4
 30
0.0
 11
-4.775
 21
9.0
 31
0.0
  0
LINE
  8
Connecteurs
 62
0
 10
-4.475
 20
9.0
 30
0.0
 11
-4.775
 21
9.0
 31
0.0
  0
LINE
  8
Connecteurs
 62
0
 10
-4.175
 20
9.3
 30
0.0
 11
-4.475
 21
9.0
 31
0.0
  0
LINE
  8
Connecteurs
 62
0
 10
-13.525
 20
9.0
 30
0.0
 11
-13.225
 21
9.0
 31
0.0
  0
LINE
  8
Connecteurs
 62
0
 10
-13.225
 20
9.4
 30
0.0
 11
-13.225
 21
9.0
 31
0.0
  0
LINE
  8
Connecteurs
 62
0
 10
-4.175
 20
10.75
 30
0.0
 11
-4.105
 21
10.862
 31
0.0
  0
LINE
  8
Connecteurs
 62
0
 10
-4.105
 20
11.65
 30
0.0
 11
-4.175
 21
11.65
 31
0.0
  0
LINE
  8
Connecteurs
 62
0
 10
-4.175
 20
9.6
 30
0.0
 11
-4.105
 21
9.6
 31
0.0
  0
LINE
  8
Connecteurs
 62
0
 10
-4.225
 20
9.0
 30
0.0
 11
-4.475
 21
9.0
 31
0.0
  0
LINE
  8
Connecteurs
 62
0
 10
-13.895
 20
12.4
 30
0.0
 11
-13.895
 21
9.12
 31
0.0
  0
ARC
  8
Connecteurs
 62
0
 10
-9.315
 20
8.46208348754
 30
0.0
 40
0.825
 50
-6.46029358648
 51
-0.0
  0
LINE
  8
Connecteurs
 62
0
 10
-8.49
 20
9.275
 30
0.0
 11
-8.49
 21
8.46208348754
 31
0.0
  0
ARC
  8
Connecteurs
 62
0
 10
-8.365
 20
9.275
 30
0.0
 40
0.125
 50
90.0000013538
 51
-180.0
  0
ARC
  8
Connecteurs
 62
0
 10
-8.365
 20
9.275
 30
0.0
 40
0.125
 50
0.0
 51
90.0000013538
  0
LINE
  8
Connecteurs
 62
0
 10
-8.24
 20
9.275
 30
0.0
 11
-8.24
 21
8.46208348754
 31
0.0
  0
ARC
  8
Connecteurs
 62
0
 10
-7.415
 20
8.46208348754
 30
0.0
 40
0.825
 50
180.0
 51
-173.539706414
  0
ARC
  8
Connecteurs
 62
0
 10
-8.045
 20
9.12958365434
 30
0.0
 40
0.275
 50
-0.0
 51
79.5243183036
  0
LINE
  8
Connecteurs
 62
0
 10
-7.77
 20
8.8
 30
0.0
 11
-7.77
 21
9.12958365434
 31
0.0
  0
ARC
  8
Connecteurs
 62
0
 10
-8.045
 20
8.46208348754
 30
0.0
 40
0.825
 50
-6.46029358648
 51
0.0
  0
LINE
  8
Connecteurs
 62
0
 10
-7.22
 20
9.275
 30
0.0
 11
-7.22
 21
8.46208348754
 31
0.0
  0
ARC
  8
Connecteurs
 62
0
 10
-7.095
 20
9.275
 30
0.0
 40
0.125
 50
89.9999990124
 51
-180.0
  0
ARC
  8
Connecteurs
 62
0
 10
-7.095
 20
9.275
 30
0.0
 40
0.125
 50
-0.0
 51
89.9999990124
  0
LINE
  8
Connecteurs
 62
0
 10
-6.97
 20
9.275
 30
0.0
 11
-6.97
 21
8.46208348754
 31
0.0
  0
ARC
  8
Connecteurs
 62
0
 10
-6.145
 20
8.46208348754
 30
0.0
 40
0.825
 50
-180.0
 51
-173.539706414
  0
ARC
  8
Connecteurs
 62
0
 10
-7.095
 20
8.8
 30
0.0
 40
0.45
 50
-73.1768052318
 51
0.0
  0
LINE
  8
Connecteurs
 62
0
 10
-6.42
 20
8.8
 30
0.0
 11
-6.42
 21
9.12958365434
 31
0.0
  0
ARC
  8
Connecteurs
 62
0
 10
-6.145
 20
9.12958365434
 30
0.0
 40
0.275
 50
100.475681696
 51
180.0
  0
LINE
  8
Connecteurs
 62
0
 10
-12.85
 20
8.8
 30
0.0
 11
-12.85
 21
9.12958365434
 31
0.0
  0
ARC
  8
Connecteurs
 62
0
 10
-13.125
 20
8.46208348754
 30
0.0
 40
0.824999999999
 50
-6.46029358648
 51
0.0
  0
LINE
  8
Connecteurs
 62
0
 10
-12.3
 20
9.275
 30
0.0
 11
-12.3
 21
8.46208348754
 31
0.0
  0
ARC
  8
Connecteurs
 62
0
 10
-12.175
 20
9.275
 30
0.0
 40
0.125
 50
90.0
 51
-180.0
  0
ARC
  8
Connecteurs
 62
0
 10
-13.125
 20
9.12958365434
 30
0.0
 40
0.275
 50
-0.0
 51
79.5243183036
  0
ARC
  8
Connecteurs
 62
0
 10
-12.175
 20
9.275
 30
0.0
 40
0.125
 50
-0.0
 51
90.0
  0
LINE
  8
Connecteurs
 62
0
 10
-12.05
 20
9.275
 30
0.0
 11
-12.05
 21
8.46208348754
 31
0.0
  0
ARC
  8
Connecteurs
 62
0
 10
-11.225
 20
8.46208348754
 30
0.0
 40
0.825000000001
 50
-180.0
 51
-173.539706414
  0
LINE
  8
Connecteurs
 62
0
 10
-11.5
 20
8.8
 30
0.0
 11
-11.5
 21
9.12958365434
 31
0.0
  0
ARC
  8
Connecteurs
 62
0
 10
-11.225
 20
9.12958365434
 30
0.0
 40
0.275
 50
100.475681696
 51
180.0
  0
ARC
  8
Connecteurs
 62
0
 10
-11.855
 20
8.46208348754
 30
0.0
 40
0.825
 50
-6.46029358648
 51
-0.0
  0
LINE
  8
Connecteurs
 62
0
 10
-11.03
 20
9.275
 30
0.0
 11
-11.03
 21
8.46208348754
 31
0.0
  0
ARC
  8
Connecteurs
 62
0
 10
-10.905
 20
9.275
 30
0.0
 40
0.125
 50
89.9999991633
 51
-180.0
  0
ARC
  8
Connecteurs
 62
0
 10
-10.905
 20
9.275
 30
0.0
 40
0.125
 50
-0.0
 51
89.9999991633
  0
LINE
  8
Connecteurs
 62
0
 10
-10.78
 20
9.275
 30
0.0
 11
-10.78
 21
8.46208348754
 31
0.0
  0
ARC
  8
Connecteurs
 62
0
 10
-9.955
 20
8.46208348754
 30
0.0
 40
0.825
 50
180.0
 51
-173.539706414
  0
LINE
  8
Connecteurs
 62
0
 10
-10.31
 20
8.8
 30
0.0
 11
-10.31
 21
9.12958365434
 31
0.0
  0
ARC
  8
Connecteurs
 62
0
 10
-10.585
 20
8.46208348754
 30
0.0
 40
0.825
 50
-6.46029358648
 51
-0.0
  0
LINE
  8
Connecteurs
 62
0
 10
-9.76
 20
9.275
 30
0.0
 11
-9.76
 21
8.46208348754
 31
0.0
  0
ARC
  8
Connecteurs
 62
0
 10
-9.635
 20
9.275
 30
0.0
 40
0.125
 50
90.0
 51
-180.0
  0
ARC
  8
Connecteurs
 62
0
 10
-10.585
 20
9.12958365434
 30
0.0
 40
0.275
 50
-0.0
 51
79.5243183036
  0
ARC
  8
Connecteurs
 62
0
 10
-9.635
 20
9.275
 30
0.0
 40
0.125
 50
-0.0
 51
90.0
  0
LINE
  8
Connecteurs
 62
0
 10
-9.51
 20
9.275
 30
0.0
 11
-9.51
 21
8.46208348754
 31
0.0
  0
ARC
  8
Connecteurs
 62
0
 10
-8.685
 20
8.46208348754
 30
0.0
 40
0.825
 50
180.0
 51
-173.539706414
  0
LINE
  8
Connecteurs
 62
0
 10
-8.96
 20
8.8
 30
0.0
 11
-8.96
 21
9.12958365434
 31
0.0
  0
ARC
  8
Connecteurs
 62
0
 10
-8.685
 20
9.12958365434
 30
0.0
 40
0.275
 50
100.475681696
 51
180.0
  0
ARC
  8
Connecteurs
 62
0
 10
-6.775
 20
8.46208348754
 30
0.0
 40
0.825
 50
-6.46029358648
 51
0.0
  0
LINE
  8
Connecteurs
 62
0
 10
-5.95
 20
9.275
 30
0.0
 11
-5.95
 21
8.46208348754
 31
0.0
  0
ARC
  8
Connecteurs
 62
0
 10
-5.825
 20
9.275
 30
0.0
 40
0.125
 50
90.0
 51
-180.0
  0
ARC
  8
Connecteurs
 62
0
 10
-5.825
 20
9.275
 30
0.0
 40
0.125
 50
-0.0
 51
90.0
  0
LINE
  8
Connecteurs
 62
0
 10
-5.7
 20
9.275
 30
0.0
 11
-5.7
 21
8.46208348754
 31
0.0
  0
ARC
  8
Connecteurs
 62
0
 10
-4.875
 20
8.46208348754
 30
0.0
 40
0.825
 50
-180.0
 51
-173.539706414
  0
LINE
  8
Connecteurs
 62
0
 10
-5.15
 20
8.8
 30
0.0
 11
-5.15
 21
9.12958365434
 31
0.0
  0
ARC
  8
Connecteurs
 62
0
 10
-4.875
 20
9.12958365434
 30
0.0
 40
0.275
 50
100.475681696
 51
180.0
  0
LINE
  8
Connecteurs
 62
0
 10
-13.895
 20
9.12
 30
0.0
 11
-13.575
 21
8.8
 31
0.0
  0
LINE
  8
Connecteurs
 62
0
 10
-4.105
 20
12.4
 30
0.0
 11
-4.105
 21
9.12
 31
0.0
  0
LINE
  8
Connecteurs
 62
0
 10
-4.105
 20
9.12
 30
0.0
 11
-4.425
 21
8.8
 31
0.0
  0
LINE
  8
Connecteurs
 62
0
 10
-3.475
 20
12.4
 30
0.0
 11
-3.475
 21
7.45
 31
0.0
  0
LINE
  8
Connecteurs
 62
0
 10
-3.475
 20
12.4
 30
0.0
 11
-3.675
 21
12.6
 31
0.0
  0
LINE
  8
Connecteurs
 62
0
 10
-3.905
 20
12.6
 30
0.0
 11
-3.675
 21
12.6
 31
0.0
  0
LINE
  8
Connecteurs
 62
0
 10
-3.905
 20
12.6
 30
0.0
 11
-4.105
 21
12.4
 31
0.0
  0
LINE
  8
Connecteurs
 62
0
 10
-5.375
 20
8.8
 30
0.0
 11
-4.425
 21
8.8
 31
0.0
  0
ARC
  8
Connecteurs
 62
0
 10
-5.825
 20
8.8
 30
0.0
 40
0.45
 50
-180.0
 51
-0.0
  0
LINE
  8
Connecteurs
 62
0
 10
-6.645
 20
8.8
 30
0.0
 11
-6.275
 21
8.8
 31
0.0
  0
ARC
  8
Connecteurs
 62
0
 10
-7.095
 20
8.8
 30
0.0
 40
0.45
 50
-180.0
 51
-0.0
  0
LINE
  8
Connecteurs
 62
0
 10
-7.915
 20
8.8
 30
0.0
 11
-7.545
 21
8.8
 31
0.0
  0
ARC
  8
Connecteurs
 62
0
 10
-8.365
 20
8.8
 30
0.0
 40
0.45
 50
-180.0
 51
-0.0
  0
LINE
  8
Connecteurs
 62
0
 10
-9.185
 20
8.8
 30
0.0
 11
-8.815
 21
8.8
 31
0.0
  0
ARC
  8
Connecteurs
 62
0
 10
-9.635
 20
8.8
 30
0.0
 40
0.45
 50
-180.0
 51
-0.0
  0
LINE
  8
Connecteurs
 62
0
 10
-10.455
 20
8.8
 30
0.0
 11
-10.085
 21
8.8
 31
0.0
  0
ARC
  8
Connecteurs
 62
0
 10
-10.905
 20
8.8
 30
0.0
 40
0.45
 50
-180.0
 51
-0.0
  0
LINE
  8
Connecteurs
 62
0
 10
-11.725
 20
8.8
 30
0.0
 11
-11.355
 21
8.8
 31
0.0
  0
ARC
  8
Connecteurs
 62
0
 10
-12.175
 20
8.8
 30
0.0
 40
0.45
 50
-180.0
 51
-0.0
  0
LINE
  8
Connecteurs
 62
0
 10
-13.575
 20
8.8
 30
0.0
 11
-12.625
 21
8.8
 31
0.0
  0
LINE
  8
Connecteurs
 62
0
 10
-13.895
 20
12.4
 30
0.0
 11
-14.095
 21
12.6
 31
0.0
  0
LINE
  8
Connecteurs
 62
0
 10
-14.095
 20
12.6
 30
0.0
 11
-14.325
 21
12.6
 31
0.0
  0
LINE
  8
Connecteurs
 62
0
 10
-14.525
 20
12.4
 30
0.0
 11
-14.325
 21
12.6
 31
0.0
  0
LINE
  8
Connecteurs
 62
0
 10
-14.525
 20
12.4
 30
0.0
 11
-14.525
 21
7.45
 31
0.0
  0
LINE
  8
Connecteurs
 62
0
 10
-14.525
 20
7.45
 30
0.0
 11
-3.475
 21
7.45
 31
0.0
  0
LINE
  8
Connecteurs
 62
0
 10
-13.175
 20
8.8
 30
0.0
 11
-13.575
 21
8.8
 31
0.0
  0
ARC
  8
Connecteurs
 62
0
 10
-5.825
 20
8.8
 30
0.0
 40
0.45
 50
-106.823194768
 51
-73.1768052318
  0
LINE
  8
Connecteurs
 62
0
 10
-4.825
 20
8.8
 30
0.0
 11
-4.425
 21
8.8
 31
0.0
  0
ARC
  8
Connecteurs
 62
0
 10
-12.175
 20
8.8
 30
0.0
 40
0.45
 50
-90.0
 51
-73.1768051942
  0
LINE
  8
Connecteurs
 62
0
 10
-13.175
 20
8.8
 30
0.0
 11
-13.175
 21
9.35
 31
0.0
  0
LINE
  8
Connecteurs
 62
0
 10
-4.825
 20
9.35
 30
0.0
 11
-4.825
 21
8.8
 31
0.0
  0
LINE
  8
Connecteurs
 62
0
 10
-4.825
 20
9.35
 30
0.0
 11
-4.775
 21
9.35
 31
0.0
  0
LINE
  8
Connecteurs
 62
0
 10
-13.175
 20
9.35
 30
0.0
 11
-13.225
 21
9.35
 31
0.0
  0
LINE
  8
Connecteurs
 62
0
 10
-13.225
 20
12.725
 30
0.0
 11
-13.825
 21
12.725
 31
0.0
  0
ENDBLK
  0
BLOCK
  8
Connecteurs
  2
CLONE096
 70
0
 10
0.0
 20
0.0
 30
0.0
  3
CLONE096
  0
POLYLINE
  8
Connecteurs
 62
0
 70
0
 66
1
 10
0.0
 20
0.0
 30
0.0
  0
VERTEX
  8
Connecteurs
 10
5.7
 20
15.55
 30
0.0
  0
VERTEX
  8
Connecteurs
 10
5.7
 20
15.6
 30
0.0
  0
VERTEX
  8
Connecteurs
 10
5.7
 20
15.65
 30
0.0
  0
VERTEX
  8
Connecteurs
 10
5.7
 20
15.7
 30
0.0
  0
SEQEND
  8
Connecteurs
  0
POLYLINE
  8
Connecteurs
 62
0
 70
0
 66
1
 10
0.0
 20
0.0
 30
0.0
  0
VERTEX
  8
Connecteurs
 10
5.7
 20
14.98
 30
0.0
  0
VERTEX
  8
Connecteurs
 10
5.7
 20
14.93
 30
0.0
  0
VERTEX
  8
Connecteurs
 10
5.7
 20
14.88
 30
0.0
  0
VERTEX
  8
Connecteurs
 10
5.7
 20
14.83
 30
0.0
  0
SEQEND
  8
Connecteurs
  0
POLYLINE
  8
Connecteurs
 62
0
 70
0
 66
1
 10
0.0
 20
0.0
 30
0.0
  0
VERTEX
  8
Connecteurs
 10
5.95
 20
15.55
 30
0.0
  0
VERTEX
  8
Connecteurs
 10
5.95
 20
15.6
 30
0.0
  0
VERTEX
  8
Connecteurs
 10
5.95
 20
15.65
 30
0.0
  0
VERTEX
  8
Connecteurs
 10
5.95
 20
15.7
 30
0.0
  0
SEQEND
  8
Connecteurs
  0
POLYLINE
  8
Connecteurs
 62
0
 70
0
 66
1
 10
0.0
 20
0.0
 30
0.0
  0
VERTEX
  8
Connecteurs
 10
5.95
 20
14.98
 30
0.0
  0
VERTEX
  8
Connecteurs
 10
5.95
 20
14.93
 30
0.0
  0
VERTEX
  8
Connecteurs
 10
5.95
 20
14.88
 30
0.0
  0
VERTEX
  8
Connecteurs
 10
5.95
 20
14.83
 30
0.0
  0
SEQEND
  8
Connecteurs
  0
POLYLINE
  8
Connecteurs
 62
0
 70
0
 66
1
 10
0.0
 20
0.0
 30
0.0
  0
VERTEX
  8
Connecteurs
 10
5.88082191781
 20
14.83
 30
0.0
  0
VERTEX
  8
Connecteurs
 10
5.83082191781
 20
14.83
 30
0.0
  0
VERTEX
  8
Connecteurs
 10
5.78082191781
 20
14.83
 30
0.0
  0
VERTEX
  8
Connecteurs
 10
5.73082191781
 20
14.83
 30
0.0
  0
VERTEX
  8
Connecteurs
 10
5.7
 20
14.83
 30
0.0
  0
SEQEND
  8
Connecteurs
  0
POLYLINE
  8
Connecteurs
 62
0
 70
0
 66
1
 10
0.0
 20
0.0
 30
0.0
  0
VERTEX
  8
Connecteurs
 10
5.88082191781
 20
14.83
 30
0.0
  0
VERTEX
  8
Connecteurs
 10
5.93082191781
 20
14.83
 30
0.0
  0
VERTEX
  8
Connecteurs
 10
5.95
 20
14.83
 30
0.0
  0
SEQEND
  8
Connecteurs
  0
POLYLINE
  8
Connecteurs
 62
0
 70
0
 66
1
 10
0.0
 20
0.0
 30
0.0
  0
VERTEX
  8
Connecteurs
 10
5.7
 20
14.83
 30
0.0
  0
VERTEX
  8
Connecteurs
 10
5.75
 20
14.83
 30
0.0
  0
VERTEX
  8
Connecteurs
 10
5.8
 20
14.83
 30
0.0
  0
VERTEX
  8
Connecteurs
 10
5.85
 20
14.83
 30
0.0
  0
VERTEX
  8
Connecteurs
 10
5.88082191781
 20
14.83
 30
0.0
  0
SEQEND
  8
Connecteurs
  0
POLYLINE
  8
Connecteurs
 62
0
 70
0
 66
1
 10
0.0
 20
0.0
 30
0.0
  0
VERTEX
  8
Connecteurs
 10
5.95
 20
14.83
 30
0.0
  0
VERTEX
  8
Connecteurs
 10
6.0
 20
14.83
 30
0.0
  0
VERTEX
  8
Connecteurs
 10
6.05
 20
14.83
 30
0.0
  0
VERTEX
  8
Connecteurs
 10
6.06917808219
 20
14.83
 30
0.0
  0
SEQEND
  8
Connecteurs
  0
POLYLINE
  8
Connecteurs
 62
0
 70
0
 66
1
 10
0.0
 20
0.0
 30
0.0
  0
VERTEX
  8
Connecteurs
 10
6.06917808219
 20
14.83
 30
0.0
  0
VERTEX
  8
Connecteurs
 10
6.11917808219
 20
14.83
 30
0.0
  0
VERTEX
  8
Connecteurs
 10
6.16917808219
 20
14.83
 30
0.0
  0
VERTEX
  8
Connecteurs
 10
6.21917808219
 20
14.83
 30
0.0
  0
VERTEX
  8
Connecteurs
 10
6.25
 20
14.83
 30
0.0
  0
SEQEND
  8
Connecteurs
  0
POLYLINE
  8
Connecteurs
 62
0
 70
0
 66
1
 10
0.0
 20
0.0
 30
0.0
  0
VERTEX
  8
Connecteurs
 10
5.88082191781
 20
14.27
 30
0.0
  0
VERTEX
  8
Connecteurs
 10
5.83082191781
 20
14.27
 30
0.0
  0
VERTEX
  8
Connecteurs
 10
5.78082191781
 20
14.27
 30
0.0
  0
VERTEX
  8
Connecteurs
 10
5.73082191781
 20
14.27
 30
0.0
  0
VERTEX
  8
Connecteurs
 10
5.7
 20
14.27
 30
0.0
  0
SEQEND
  8
Connecteurs
  0
POLYLINE
  8
Connecteurs
 62
0
 70
0
 66
1
 10
0.0
 20
0.0
 30
0.0
  0
VERTEX
  8
Connecteurs
 10
6.06917808219
 20
14.27
 30
0.0
  0
VERTEX
  8
Connecteurs
 10
6.11917808219
 20
14.27
 30
0.0
  0
VERTEX
  8
Connecteurs
 10
6.16917808219
 20
14.27
 30
0.0
  0
VERTEX
  8
Connecteurs
 10
6.21917808219
 20
14.27
 30
0.0
  0
VERTEX
  8
Connecteurs
 10
6.25
 20
14.27
 30
0.0
  0
SEQEND
  8
Connecteurs
  0
POLYLINE
  8
Connecteurs
 62
0
 70
0
 66
1
 10
0.0
 20
0.0
 30
0.0
  0
VERTEX
  8
Connecteurs
 10
5.95
 20
14.27
 30
0.0
  0
VERTEX
  8
Connecteurs
 10
6.0
 20
14.27
 30
0.0
  0
VERTEX
  8
Connecteurs
 10
6.05
 20
14.27
 30
0.0
  0
VERTEX
  8
Connecteurs
 10
6.06917808219
 20
14.27
 30
0.0
  0
SEQEND
  8
Connecteurs
  0
POLYLINE
  8
Connecteurs
 62
0
 70
0
 66
1
 10
0.0
 20
0.0
 30
0.0
  0
VERTEX
  8
Connecteurs
 10
5.7
 20
14.27
 30
0.0
  0
VERTEX
  8
Connecteurs
 10
5.75
 20
14.27
 30
0.0
  0
VERTEX
  8
Connecteurs
 10
5.8
 20
14.27
 30
0.0
  0
VERTEX
  8
Connecteurs
 10
5.85
 20
14.27
 30
0.0
  0
VERTEX
  8
Connecteurs
 10
5.88082191781
 20
14.27
 30
0.0
  0
SEQEND
  8
Connecteurs
  0
POLYLINE
  8
Connecteurs
 62
0
 70
0
 66
1
 10
0.0
 20
0.0
 30
0.0
  0
VERTEX
  8
Connecteurs
 10
5.88082191781
 20
14.27
 30
0.0
  0
VERTEX
  8
Connecteurs
 10
5.93082191781
 20
14.27
 30
0.0
  0
VERTEX
  8
Connecteurs
 10
5.95
 20
14.27
 30
0.0
  0
SEQEND
  8
Connecteurs
  0
POLYLINE
  8
Connecteurs
 62
0
 70
0
 66
1
 10
0.0
 20
0.0
 30
0.0
  0
VERTEX
  8
Connecteurs
 10
6.97
 20
11.125
 30
0.0
  0
VERTEX
  8
Connecteurs
 10
6.97
 20
11.075
 30
0.0
  0
VERTEX
  8
Connecteurs
 10
6.97
 20
11.025
 30
0.0
  0
VERTEX
  8
Connecteurs
 10
6.97
 20
11.0
 30
0.0
  0
SEQEND
  8
Connecteurs
  0
POLYLINE
  8
Connecteurs
 62
0
 70
0
 66
1
 10
0.0
 20
0.0
 30
0.0
  0
VERTEX
  8
Connecteurs
 10
6.97
 20
11.58
 30
0.0
  0
VERTEX
  8
Connecteurs
 10
6.97
 20
11.63
 30
0.0
  0
VERTEX
  8
Connecteurs
 10
6.97
 20
11.68
 30
0.0
  0
VERTEX
  8
Connecteurs
 10
6.97
 20
11.73
 30
0.0
  0
SEQEND
  8
Connecteurs
  0
POLYLINE
  8
Connecteurs
 62
0
 70
0
 66
1
 10
0.0
 20
0.0
 30
0.0
  0
VERTEX
  8
Connecteurs
 10
6.97
 20
12.29
 30
0.0
  0
VERTEX
  8
Connecteurs
 10
6.97
 20
12.34
 30
0.0
  0
VERTEX
  8
Connecteurs
 10
6.97
 20
12.39
 30
0.0
  0
VERTEX
  8
Connecteurs
 10
6.97
 20
12.44
 30
0.0
  0
SEQEND
  8
Connecteurs
  0
POLYLINE
  8
Connecteurs
 62
0
 70
0
 66
1
 10
0.0
 20
0.0
 30
0.0
  0
VERTEX
  8
Connecteurs
 10
6.97
 20
15.7
 30
0.0
  0
VERTEX
  8
Connecteurs
 10
6.97
 20
15.65
 30
0.0
  0
VERTEX
  8
Connecteurs
 10
6.97
 20
15.6
 30
0.0
  0
VERTEX
  8
Connecteurs
 10
6.97
 20
15.575
 30
0.0
  0
SEQEND
  8
Connecteurs
  0
POLYLINE
  8
Connecteurs
 62
0
 70
0
 66
1
 10
0.0
 20
0.0
 30
0.0
  0
VERTEX
  8
Connecteurs
 10
7.22
 20
11.125
 30
0.0
  0
VERTEX
  8
Connecteurs
 10
7.22
 20
11.075
 30
0.0
  0
VERTEX
  8
Connecteurs
 10
7.22
 20
11.025
 30
0.0
  0
VERTEX
  8
Connecteurs
 10
7.22
 20
11.0
 30
0.0
  0
SEQEND
  8
Connecteurs
  0
POLYLINE
  8
Connecteurs
 62
0
 70
0
 66
1
 10
0.0
 20
0.0
 30
0.0
  0
VERTEX
  8
Connecteurs
 10
7.22
 20
11.58
 30
0.0
  0
VERTEX
  8
Connecteurs
 10
7.22
 20
11.63
 30
0.0
  0
VERTEX
  8
Connecteurs
 10
7.22
 20
11.68
 30
0.0
  0
VERTEX
  8
Connecteurs
 10
7.22
 20
11.73
 30
0.0
  0
SEQEND
  8
Connecteurs
  0
POLYLINE
  8
Connecteurs
 62
0
 70
0
 66
1
 10
0.0
 20
0.0
 30
0.0
  0
VERTEX
  8
Connecteurs
 10
6.85082191781
 20
11.73
 30
0.0
  0
VERTEX
  8
Connecteurs
 10
6.90082191781
 20
11.73
 30
0.0
  0
VERTEX
  8
Connecteurs
 10
6.95082191781
 20
11.73
 30
0.0
  0
VERTEX
  8
Connecteurs
 10
6.97
 20
11.73
 30
0.0
  0
SEQEND
  8
Connecteurs
  0
POLYLINE
  8
Connecteurs
 62
0
 70
0
 66
1
 10
0.0
 20
0.0
 30
0.0
  0
VERTEX
  8
Connecteurs
 10
6.67
 20
11.73
 30
0.0
  0
VERTEX
  8
Connecteurs
 10
6.72
 20
11.73
 30
0.0
  0
VERTEX
  8
Connecteurs
 10
6.77
 20
11.73
 30
0.0
  0
VERTEX
  8
Connecteurs
 10
6.82
 20
11.73
 30
0.0
  0
VERTEX
  8
Connecteurs
 10
6.85082191781
 20
11.73
 30
0.0
  0
SEQEND
  8
Connecteurs
  0
POLYLINE
  8
Connecteurs
 62
0
 70
0
 66
1
 10
0.0
 20
0.0
 30
0.0
  0
VERTEX
  8
Connecteurs
 10
7.22
 20
11.73
 30
0.0
  0
VERTEX
  8
Connecteurs
 10
7.17
 20
11.73
 30
0.0
  0
VERTEX
  8
Connecteurs
 10
7.12
 20
11.73
 30
0.0
  0
VERTEX
  8
Connecteurs
 10
7.07
 20
11.73
 30
0.0
  0
VERTEX
  8
Connecteurs
 10
7.03917808219
 20
11.73
 30
0.0
  0
SEQEND
  8
Connecteurs
  0
POLYLINE
  8
Connecteurs
 62
0
 70
0
 66
1
 10
0.0
 20
0.0
 30
0.0
  0
VERTEX
  8
Connecteurs
 10
6.97
 20
11.73
 30
0.0
  0
VERTEX
  8
Connecteurs
 10
7.02
 20
11.73
 30
0.0
  0
VERTEX
  8
Connecteurs
 10
7.03917808219
 20
11.73
 30
0.0
  0
SEQEND
  8
Connecteurs
  0
POLYLINE
  8
Connecteurs
 62
0
 70
0
 66
1
 10
0.0
 20
0.0
 30
0.0
  0
VERTEX
  8
Connecteurs
 10
7.03917808219
 20
11.73
 30
0.0
  0
VERTEX
  8
Connecteurs
 10
7.08917808219
 20
11.73
 30
0.0
  0
VERTEX
  8
Connecteurs
 10
7.13917808219
 20
11.73
 30
0.0
  0
VERTEX
  8
Connecteurs
 10
7.18917808219
 20
11.73
 30
0.0
  0
VERTEX
  8
Connecteurs
 10
7.22
 20
11.73
 30
0.0
  0
SEQEND
  8
Connecteurs
  0
POLYLINE
  8
Connecteurs
 62
0
 70
0
 66
1
 10
0.0
 20
0.0
 30
0.0
  0
VERTEX
  8
Connecteurs
 10
7.03917808219
 20
12.29
 30
0.0
  0
VERTEX
  8
Connecteurs
 10
7.08917808219
 20
12.29
 30
0.0
  0
VERTEX
  8
Connecteurs
 10
7.13917808219
 20
12.29
 30
0.0
  0
VERTEX
  8
Connecteurs
 10
7.18917808219
 20
12.29
 30
0.0
  0
VERTEX
  8
Connecteurs
 10
7.22
 20
12.29
 30
0.0
  0
SEQEND
  8
Connecteurs
  0
POLYLINE
  8
Connecteurs
 62
0
 70
0
 66
1
 10
0.0
 20
0.0
 30
0.0
  0
VERTEX
  8
Connecteurs
 10
6.97
 20
12.29
 30
0.0
  0
VERTEX
  8
Connecteurs
 10
7.02
 20
12.29
 30
0.0
  0
VERTEX
  8
Connecteurs
 10
7.03917808219
 20
12.29
 30
0.0
  0
SEQEND
  8
Connecteurs
  0
POLYLINE
  8
Connecteurs
 62
0
 70
0
 66
1
 10
0.0
 20
0.0
 30
0.0
  0
VERTEX
  8
Connecteurs
 10
7.22
 20
12.29
 30
0.0
  0
VERTEX
  8
Connecteurs
 10
7.17
 20
12.29
 30
0.0
  0
VERTEX
  8
Connecteurs
 10
7.12
 20
12.29
 30
0.0
  0
VERTEX
  8
Connecteurs
 10
7.07
 20
12.29
 30
0.0
  0
VERTEX
  8
Connecteurs
 10
7.03917808219
 20
12.29
 30
0.0
  0
SEQEND
  8
Connecteurs
  0
POLYLINE
  8
Connecteurs
 62
0
 70
0
 66
1
 10
0.0
 20
0.0
 30
0.0
  0
VERTEX
  8
Connecteurs
 10
6.67
 20
12.29
 30
0.0
  0
VERTEX
  8
Connecteurs
 10
6.72
 20
12.29
 30
0.0
  0
VERTEX
  8
Connecteurs
 10
6.77
 20
12.29
 30
0.0
  0
VERTEX
  8
Connecteurs
 10
6.82
 20
12.29
 30
0.0
  0
VERTEX
  8
Connecteurs
 10
6.85082191781
 20
12.29
 30
0.0
  0
SEQEND
  8
Connecteurs
  0
POLYLINE
  8
Connecteurs
 62
0
 70
0
 66
1
 10
0.0
 20
0.0
 30
0.0
  0
VERTEX
  8
Connecteurs
 10
6.85082191781
 20
12.29
 30
0.0
  0
VERTEX
  8
Connecteurs
 10
6.90082191781
 20
12.29
 30
0.0
  0
VERTEX
  8
Connecteurs
 10
6.95082191781
 20
12.29
 30
0.0
  0
VERTEX
  8
Connecteurs
 10
6.97
 20
12.29
 30
0.0
  0
SEQEND
  8
Connecteurs
  0
POLYLINE
  8
Connecteurs
 62
0
 70
0
 66
1
 10
0.0
 20
0.0
 30
0.0
  0
VERTEX
  8
Connecteurs
 10
7.22
 20
12.29
 30
0.0
  0
VERTEX
  8
Connecteurs
 10
7.22
 20
12.34
 30
0.0
  0
VERTEX
  8
Connecteurs
 10
7.22
 20
12.39
 30
0.0
  0
VERTEX
  8
Connecteurs
 10
7.22
 20
12.44
 30
0.0
  0
SEQEND
  8
Connecteurs
  0
POLYLINE
  8
Connecteurs
 62
0
 70
0
 66
1
 10
0.0
 20
0.0
 30
0.0
  0
VERTEX
  8
Connecteurs
 10
7.22
 20
15.7
 30
0.0
  0
VERTEX
  8
Connecteurs
 10
7.22
 20
15.65
 30
0.0
  0
VERTEX
  8
Connecteurs
 10
7.22
 20
15.6
 30
0.0
  0
VERTEX
  8
Connecteurs
 10
7.22
 20
15.575
 30
0.0
  0
SEQEND
  8
Connecteurs
  0
POLYLINE
  8
Connecteurs
 62
0
 70
0
 66
1
 10
0.0
 20
0.0
 30
0.0
  0
VERTEX
  8
Connecteurs
 10
8.24
 20
15.55
 30
0.0
  0
VERTEX
  8
Connecteurs
 10
8.24
 20
15.6
 30
0.0
  0
VERTEX
  8
Connecteurs
 10
8.24
 20
15.65
 30
0.0
  0
VERTEX
  8
Connecteurs
 10
8.24
 20
15.7
 30
0.0
  0
SEQEND
  8
Connecteurs
  0
POLYLINE
  8
Connecteurs
 62
0
 70
0
 66
1
 10
0.0
 20
0.0
 30
0.0
  0
VERTEX
  8
Connecteurs
 10
8.24
 20
14.98
 30
0.0
  0
VERTEX
  8
Connecteurs
 10
8.24
 20
14.93
 30
0.0
  0
VERTEX
  8
Connecteurs
 10
8.24
 20
14.88
 30
0.0
  0
VERTEX
  8
Connecteurs
 10
8.24
 20
14.83
 30
0.0
  0
SEQEND
  8
Connecteurs
  0
POLYLINE
  8
Connecteurs
 62
0
 70
0
 66
1
 10
0.0
 20
0.0
 30
0.0
  0
VERTEX
  8
Connecteurs
 10
9.51
 20
11.125
 30
0.0
  0
VERTEX
  8
Connecteurs
 10
9.51
 20
11.075
 30
0.0
  0
VERTEX
  8
Connecteurs
 10
9.51
 20
11.025
 30
0.0
  0
VERTEX
  8
Connecteurs
 10
9.51
 20
11.0
 30
0.0
  0
SEQEND
  8
Connecteurs
  0
POLYLINE
  8
Connecteurs
 62
0
 70
0
 66
1
 10
0.0
 20
0.0
 30
0.0
  0
VERTEX
  8
Connecteurs
 10
9.51
 20
11.58
 30
0.0
  0
VERTEX
  8
Connecteurs
 10
9.51
 20
11.63
 30
0.0
  0
VERTEX
  8
Connecteurs
 10
9.51
 20
11.68
 30
0.0
  0
VERTEX
  8
Connecteurs
 10
9.51
 20
11.73
 30
0.0
  0
SEQEND
  8
Connecteurs
  0
POLYLINE
  8
Connecteurs
 62
0
 70
0
 66
1
 10
0.0
 20
0.0
 30
0.0
  0
VERTEX
  8
Connecteurs
 10
9.51
 20
12.29
 30
0.0
  0
VERTEX
  8
Connecteurs
 10
9.51
 20
12.34
 30
0.0
  0
VERTEX
  8
Connecteurs
 10
9.51
 20
12.39
 30
0.0
  0
VERTEX
  8
Connecteurs
 10
9.51
 20
12.44
 30
0.0
  0
SEQEND
  8
Connecteurs
  0
POLYLINE
  8
Connecteurs
 62
0
 70
0
 66
1
 10
0.0
 20
0.0
 30
0.0
  0
VERTEX
  8
Connecteurs
 10
9.51
 20
15.7
 30
0.0
  0
VERTEX
  8
Connecteurs
 10
9.51
 20
15.65
 30
0.0
  0
VERTEX
  8
Connecteurs
 10
9.51
 20
15.6
 30
0.0
  0
VERTEX
  8
Connecteurs
 10
9.51
 20
15.575
 30
0.0
  0
SEQEND
  8
Connecteurs
  0
POLYLINE
  8
Connecteurs
 62
0
 70
0
 66
1
 10
0.0
 20
0.0
 30
0.0
  0
VERTEX
  8
Connecteurs
 10
8.49
 20
15.55
 30
0.0
  0
VERTEX
  8
Connecteurs
 10
8.49
 20
15.6
 30
0.0
  0
VERTEX
  8
Connecteurs
 10
8.49
 20
15.65
 30
0.0
  0
VERTEX
  8
Connecteurs
 10
8.49
 20
15.7
 30
0.0
  0
SEQEND
  8
Connecteurs
  0
POLYLINE
  8
Connecteurs
 62
0
 70
0
 66
1
 10
0.0
 20
0.0
 30
0.0
  0
VERTEX
  8
Connecteurs
 10
8.49
 20
14.98
 30
0.0
  0
VERTEX
  8
Connecteurs
 10
8.49
 20
14.93
 30
0.0
  0
VERTEX
  8
Connecteurs
 10
8.49
 20
14.88
 30
0.0
  0
VERTEX
  8
Connecteurs
 10
8.49
 20
14.83
 30
0.0
  0
SEQEND
  8
Connecteurs
  0
POLYLINE
  8
Connecteurs
 62
0
 70
0
 66
1
 10
0.0
 20
0.0
 30
0.0
  0
VERTEX
  8
Connecteurs
 10
10.78
 20
15.55
 30
0.0
  0
VERTEX
  8
Connecteurs
 10
10.78
 20
15.6
 30
0.0
  0
VERTEX
  8
Connecteurs
 10
10.78
 20
15.65
 30
0.0
  0
VERTEX
  8
Connecteurs
 10
10.78
 20
15.7
 30
0.0
  0
SEQEND
  8
Connecteurs
  0
POLYLINE
  8
Connecteurs
 62
0
 70
0
 66
1
 10
0.0
 20
0.0
 30
0.0
  0
VERTEX
  8
Connecteurs
 10
10.78
 20
14.98
 30
0.0
  0
VERTEX
  8
Connecteurs
 10
10.78
 20
14.93
 30
0.0
  0
VERTEX
  8
Connecteurs
 10
10.78
 20
14.88
 30
0.0
  0
VERTEX
  8
Connecteurs
 10
10.78
 20
14.83
 30
0.0
  0
SEQEND
  8
Connecteurs
  0
POLYLINE
  8
Connecteurs
 62
0
 70
0
 66
1
 10
0.0
 20
0.0
 30
0.0
  0
VERTEX
  8
Connecteurs
 10
9.76
 20
11.125
 30
0.0
  0
VERTEX
  8
Connecteurs
 10
9.76
 20
11.075
 30
0.0
  0
VERTEX
  8
Connecteurs
 10
9.76
 20
11.025
 30
0.0
  0
VERTEX
  8
Connecteurs
 10
9.76
 20
11.0
 30
0.0
  0
SEQEND
  8
Connecteurs
  0
POLYLINE
  8
Connecteurs
 62
0
 70
0
 66
1
 10
0.0
 20
0.0
 30
0.0
  0
VERTEX
  8
Connecteurs
 10
9.76
 20
11.58
 30
0.0
  0
VERTEX
  8
Connecteurs
 10
9.76
 20
11.63
 30
0.0
  0
VERTEX
  8
Connecteurs
 10
9.76
 20
11.68
 30
0.0
  0
VERTEX
  8
Connecteurs
 10
9.76
 20
11.73
 30
0.0
  0
SEQEND
  8
Connecteurs
  0
POLYLINE
  8
Connecteurs
 62
0
 70
0
 66
1
 10
0.0
 20
0.0
 30
0.0
  0
VERTEX
  8
Connecteurs
 10
9.76
 20
12.29
 30
0.0
  0
VERTEX
  8
Connecteurs
 10
9.76
 20
12.34
 30
0.0
  0
VERTEX
  8
Connecteurs
 10
9.76
 20
12.39
 30
0.0
  0
VERTEX
  8
Connecteurs
 10
9.76
 20
12.44
 30
0.0
  0
SEQEND
  8
Connecteurs
  0
POLYLINE
  8
Connecteurs
 62
0
 70
0
 66
1
 10
0.0
 20
0.0
 30
0.0
  0
VERTEX
  8
Connecteurs
 10
9.76
 20
15.7
 30
0.0
  0
VERTEX
  8
Connecteurs
 10
9.76
 20
15.65
 30
0.0
  0
VERTEX
  8
Connecteurs
 10
9.76
 20
15.6
 30
0.0
  0
VERTEX
  8
Connecteurs
 10
9.76
 20
15.575
 30
0.0
  0
SEQEND
  8
Connecteurs
  0
POLYLINE
  8
Connecteurs
 62
0
 70
0
 66
1
 10
0.0
 20
0.0
 30
0.0
  0
VERTEX
  8
Connecteurs
 10
12.05
 20
11.125
 30
0.0
  0
VERTEX
  8
Connecteurs
 10
12.05
 20
11.075
 30
0.0
  0
VERTEX
  8
Connecteurs
 10
12.05
 20
11.025
 30
0.0
  0
VERTEX
  8
Connecteurs
 10
12.05
 20
11.0
 30
0.0
  0
SEQEND
  8
Connecteurs
  0
POLYLINE
  8
Connecteurs
 62
0
 70
0
 66
1
 10
0.0
 20
0.0
 30
0.0
  0
VERTEX
  8
Connecteurs
 10
12.05
 20
11.58
 30
0.0
  0
VERTEX
  8
Connecteurs
 10
12.05
 20
11.63
 30
0.0
  0
VERTEX
  8
Connecteurs
 10
12.05
 20
11.68
 30
0.0
  0
VERTEX
  8
Connecteurs
 10
12.05
 20
11.73
 30
0.0
  0
SEQEND
  8
Connecteurs
  0
POLYLINE
  8
Connecteurs
 62
0
 70
0
 66
1
 10
0.0
 20
0.0
 30
0.0
  0
VERTEX
  8
Connecteurs
 10
12.05
 20
12.29
 30
0.0
  0
VERTEX
  8
Connecteurs
 10
12.05
 20
12.34
 30
0.0
  0
VERTEX
  8
Connecteurs
 10
12.05
 20
12.39
 30
0.0
  0
VERTEX
  8
Connecteurs
 10
12.05
 20
12.44
 30
0.0
  0
SEQEND
  8
Connecteurs
  0
POLYLINE
  8
Connecteurs
 62
0
 70
0
 66
1
 10
0.0
 20
0.0
 30
0.0
  0
VERTEX
  8
Connecteurs
 10
12.05
 20
15.7
 30
0.0
  0
VERTEX
  8
Connecteurs
 10
12.05
 20
15.65
 30
0.0
  0
VERTEX
  8
Connecteurs
 10
12.05
 20
15.6
 30
0.0
  0
VERTEX
  8
Connecteurs
 10
12.05
 20
15.575
 30
0.0
  0
SEQEND
  8
Connecteurs
  0
POLYLINE
  8
Connecteurs
 62
0
 70
0
 66
1
 10
0.0
 20
0.0
 30
0.0
  0
VERTEX
  8
Connecteurs
 10
11.03
 20
15.55
 30
0.0
  0
VERTEX
  8
Connecteurs
 10
11.03
 20
15.6
 30
0.0
  0
VERTEX
  8
Connecteurs
 10
11.03
 20
15.65
 30
0.0
  0
VERTEX
  8
Connecteurs
 10
11.03
 20
15.7
 30
0.0
  0
SEQEND
  8
Connecteurs
  0
POLYLINE
  8
Connecteurs
 62
0
 70
0
 66
1
 10
0.0
 20
0.0
 30
0.0
  0
VERTEX
  8
Connecteurs
 10
11.03
 20
14.98
 30
0.0
  0
VERTEX
  8
Connecteurs
 10
11.03
 20
14.93
 30
0.0
  0
VERTEX
  8
Connecteurs
 10
11.03
 20
14.88
 30
0.0
  0
VERTEX
  8
Connecteurs
 10
11.03
 20
14.83
 30
0.0
  0
SEQEND
  8
Connecteurs
  0
POLYLINE
  8
Connecteurs
 62
0
 70
0
 66
1
 10
0.0
 20
0.0
 30
0.0
  0
VERTEX
  8
Connecteurs
 10
12.3
 20
11.125
 30
0.0
  0
VERTEX
  8
Connecteurs
 10
12.3
 20
11.075
 30
0.0
  0
VERTEX
  8
Connecteurs
 10
12.3
 20
11.025
 30
0.0
  0
VERTEX
  8
Connecteurs
 10
12.3
 20
11.0
 30
0.0
  0
SEQEND
  8
Connecteurs
  0
POLYLINE
  8
Connecteurs
 62
0
 70
0
 66
1
 10
0.0
 20
0.0
 30
0.0
  0
VERTEX
  8
Connecteurs
 10
12.3
 20
11.58
 30
0.0
  0
VERTEX
  8
Connecteurs
 10
12.3
 20
11.63
 30
0.0
  0
VERTEX
  8
Connecteurs
 10
12.3
 20
11.68
 30
0.0
  0
VERTEX
  8
Connecteurs
 10
12.3
 20
11.73
 30
0.0
  0
SEQEND
  8
Connecteurs
  0
POLYLINE
  8
Connecteurs
 62
0
 70
0
 66
1
 10
0.0
 20
0.0
 30
0.0
  0
VERTEX
  8
Connecteurs
 10
12.3
 20
12.29
 30
0.0
  0
VERTEX
  8
Connecteurs
 10
12.3
 20
12.34
 30
0.0
  0
VERTEX
  8
Connecteurs
 10
12.3
 20
12.39
 30
0.0
  0
VERTEX
  8
Connecteurs
 10
12.3
 20
12.44
 30
0.0
  0
SEQEND
  8
Connecteurs
  0
POLYLINE
  8
Connecteurs
 62
0
 70
0
 66
1
 10
0.0
 20
0.0
 30
0.0
  0
VERTEX
  8
Connecteurs
 10
12.3
 20
15.7
 30
0.0
  0
VERTEX
  8
Connecteurs
 10
12.3
 20
15.65
 30
0.0
  0
VERTEX
  8
Connecteurs
 10
12.3
 20
15.6
 30
0.0
  0
VERTEX
  8
Connecteurs
 10
12.3
 20
15.575
 30
0.0
  0
SEQEND
  8
Connecteurs
  0
POLYLINE
  8
Connecteurs
 62
0
 70
0
 66
1
 10
0.0
 20
0.0
 30
0.0
  0
VERTEX
  8
Connecteurs
 10
8.49
 20
14.83
 30
0.0
  0
VERTEX
  8
Connecteurs
 10
8.54
 20
14.83
 30
0.0
  0
VERTEX
  8
Connecteurs
 10
8.59
 20
14.83
 30
0.0
  0
VERTEX
  8
Connecteurs
 10
8.60917808219
 20
14.83
 30
0.0
  0
SEQEND
  8
Connecteurs
  0
POLYLINE
  8
Connecteurs
 62
0
 70
0
 66
1
 10
0.0
 20
0.0
 30
0.0
  0
VERTEX
  8
Connecteurs
 10
8.60917808219
 20
14.83
 30
0.0
  0
VERTEX
  8
Connecteurs
 10
8.65917808219
 20
14.83
 30
0.0
  0
VERTEX
  8
Connecteurs
 10
8.70917808219
 20
14.83
 30
0.0
  0
VERTEX
  8
Connecteurs
 10
8.75917808219
 20
14.83
 30
0.0
  0
VERTEX
  8
Connecteurs
 10
8.79
 20
14.83
 30
0.0
  0
SEQEND
  8
Connecteurs
  0
POLYLINE
  8
Connecteurs
 62
0
 70
0
 66
1
 10
0.0
 20
0.0
 30
0.0
  0
VERTEX
  8
Connecteurs
 10
8.42082191781
 20
14.27
 30
0.0
  0
VERTEX
  8
Connecteurs
 10
8.37082191781
 20
14.27
 30
0.0
  0
VERTEX
  8
Connecteurs
 10
8.32082191781
 20
14.27
 30
0.0
  0
VERTEX
  8
Connecteurs
 10
8.27082191781
 20
14.27
 30
0.0
  0
VERTEX
  8
Connecteurs
 10
8.24
 20
14.27
 30
0.0
  0
SEQEND
  8
Connecteurs
  0
POLYLINE
  8
Connecteurs
 62
0
 70
0
 66
1
 10
0.0
 20
0.0
 30
0.0
  0
VERTEX
  8
Connecteurs
 10
8.60917808219
 20
14.27
 30
0.0
  0
VERTEX
  8
Connecteurs
 10
8.65917808219
 20
14.27
 30
0.0
  0
VERTEX
  8
Connecteurs
 10
8.70917808219
 20
14.27
 30
0.0
  0
VERTEX
  8
Connecteurs
 10
8.75917808219
 20
14.27
 30
0.0
  0
VERTEX
  8
Connecteurs
 10
8.79
 20
14.27
 30
0.0
  0
SEQEND
  8
Connecteurs
  0
POLYLINE
  8
Connecteurs
 62
0
 70
0
 66
1
 10
0.0
 20
0.0
 30
0.0
  0
VERTEX
  8
Connecteurs
 10
8.49
 20
14.27
 30
0.0
  0
VERTEX
  8
Connecteurs
 10
8.54
 20
14.27
 30
0.0
  0
VERTEX
  8
Connecteurs
 10
8.59
 20
14.27
 30
0.0
  0
VERTEX
  8
Connecteurs
 10
8.60917808219
 20
14.27
 30
0.0
  0
SEQEND
  8
Connecteurs
  0
POLYLINE
  8
Connecteurs
 62
0
 70
0
 66
1
 10
0.0
 20
0.0
 30
0.0
  0
VERTEX
  8
Connecteurs
 10
8.24
 20
14.27
 30
0.0
  0
VERTEX
  8
Connecteurs
 10
8.29
 20
14.27
 30
0.0
  0
VERTEX
  8
Connecteurs
 10
8.34
 20
14.27
 30
0.0
  0
VERTEX
  8
Connecteurs
 10
8.39
 20
14.27
 30
0.0
  0
VERTEX
  8
Connecteurs
 10
8.42082191781
 20
14.27
 30
0.0
  0
SEQEND
  8
Connecteurs
  0
POLYLINE
  8
Connecteurs
 62
0
 70
0
 66
1
 10
0.0
 20
0.0
 30
0.0
  0
VERTEX
  8
Connecteurs
 10
8.42082191781
 20
14.27
 30
0.0
  0
VERTEX
  8
Connecteurs
 10
8.47082191781
 20
14.27
 30
0.0
  0
VERTEX
  8
Connecteurs
 10
8.49
 20
14.27
 30
0.0
  0
SEQEND
  8
Connecteurs
  0
POLYLINE
  8
Connecteurs
 62
0
 70
0
 66
1
 10
0.0
 20
0.0
 30
0.0
  0
VERTEX
  8
Connecteurs
 10
9.39082191781
 20
11.73
 30
0.0
  0
VERTEX
  8
Connecteurs
 10
9.44082191781
 20
11.73
 30
0.0
  0
VERTEX
  8
Connecteurs
 10
9.49082191781
 20
11.73
 30
0.0
  0
VERTEX
  8
Connecteurs
 10
9.51
 20
11.73
 30
0.0
  0
SEQEND
  8
Connecteurs
  0
POLYLINE
  8
Connecteurs
 62
0
 70
0
 66
1
 10
0.0
 20
0.0
 30
0.0
  0
VERTEX
  8
Connecteurs
 10
9.21
 20
11.73
 30
0.0
  0
VERTEX
  8
Connecteurs
 10
9.26
 20
11.73
 30
0.0
  0
VERTEX
  8
Connecteurs
 10
9.31
 20
11.73
 30
0.0
  0
VERTEX
  8
Connecteurs
 10
9.36
 20
11.73
 30
0.0
  0
VERTEX
  8
Connecteurs
 10
9.39082191781
 20
11.73
 30
0.0
  0
SEQEND
  8
Connecteurs
  0
POLYLINE
  8
Connecteurs
 62
0
 70
0
 66
1
 10
0.0
 20
0.0
 30
0.0
  0
VERTEX
  8
Connecteurs
 10
9.76
 20
11.73
 30
0.0
  0
VERTEX
  8
Connecteurs
 10
9.71
 20
11.73
 30
0.0
  0
VERTEX
  8
Connecteurs
 10
9.66
 20
11.73
 30
0.0
  0
VERTEX
  8
Connecteurs
 10
9.61
 20
11.73
 30
0.0
  0
VERTEX
  8
Connecteurs
 10
9.57917808219
 20
11.73
 30
0.0
  0
SEQEND
  8
Connecteurs
  0
POLYLINE
  8
Connecteurs
 62
0
 70
0
 66
1
 10
0.0
 20
0.0
 30
0.0
  0
VERTEX
  8
Connecteurs
 10
9.51
 20
11.73
 30
0.0
  0
VERTEX
  8
Connecteurs
 10
9.56
 20
11.73
 30
0.0
  0
VERTEX
  8
Connecteurs
 10
9.57917808219
 20
11.73
 30
0.0
  0
SEQEND
  8
Connecteurs
  0
POLYLINE
  8
Connecteurs
 62
0
 70
0
 66
1
 10
0.0
 20
0.0
 30
0.0
  0
VERTEX
  8
Connecteurs
 10
9.57917808219
 20
11.73
 30
0.0
  0
VERTEX
  8
Connecteurs
 10
9.62917808219
 20
11.73
 30
0.0
  0
VERTEX
  8
Connecteurs
 10
9.67917808219
 20
11.73
 30
0.0
  0
VERTEX
  8
Connecteurs
 10
9.72917808219
 20
11.73
 30
0.0
  0
VERTEX
  8
Connecteurs
 10
9.76
 20
11.73
 30
0.0
  0
SEQEND
  8
Connecteurs
  0
POLYLINE
  8
Connecteurs
 62
0
 70
0
 66
1
 10
0.0
 20
0.0
 30
0.0
  0
VERTEX
  8
Connecteurs
 10
9.57917808219
 20
12.29
 30
0.0
  0
VERTEX
  8
Connecteurs
 10
9.62917808219
 20
12.29
 30
0.0
  0
VERTEX
  8
Connecteurs
 10
9.67917808219
 20
12.29
 30
0.0
  0
VERTEX
  8
Connecteurs
 10
9.72917808219
 20
12.29
 30
0.0
  0
VERTEX
  8
Connecteurs
 10
9.76
 20
12.29
 30
0.0
  0
SEQEND
  8
Connecteurs
  0
POLYLINE
  8
Connecteurs
 62
0
 70
0
 66
1
 10
0.0
 20
0.0
 30
0.0
  0
VERTEX
  8
Connecteurs
 10
9.51
 20
12.29
 30
0.0
  0
VERTEX
  8
Connecteurs
 10
9.56
 20
12.29
 30
0.0
  0
VERTEX
  8
Connecteurs
 10
9.57917808219
 20
12.29
 30
0.0
  0
SEQEND
  8
Connecteurs
  0
POLYLINE
  8
Connecteurs
 62
0
 70
0
 66
1
 10
0.0
 20
0.0
 30
0.0
  0
VERTEX
  8
Connecteurs
 10
9.76
 20
12.29
 30
0.0
  0
VERTEX
  8
Connecteurs
 10
9.71
 20
12.29
 30
0.0
  0
VERTEX
  8
Connecteurs
 10
9.66
 20
12.29
 30
0.0
  0
VERTEX
  8
Connecteurs
 10
9.61
 20
12.29
 30
0.0
  0
VERTEX
  8
Connecteurs
 10
9.57917808219
 20
12.29
 30
0.0
  0
SEQEND
  8
Connecteurs
  0
POLYLINE
  8
Connecteurs
 62
0
 70
0
 66
1
 10
0.0
 20
0.0
 30
0.0
  0
VERTEX
  8
Connecteurs
 10
9.21
 20
12.29
 30
0.0
  0
VERTEX
  8
Connecteurs
 10
9.26
 20
12.29
 30
0.0
  0
VERTEX
  8
Connecteurs
 10
9.31
 20
12.29
 30
0.0
  0
VERTEX
  8
Connecteurs
 10
9.36
 20
12.29
 30
0.0
  0
VERTEX
  8
Connecteurs
 10
9.39082191781
 20
12.29
 30
0.0
  0
SEQEND
  8
Connecteurs
  0
POLYLINE
  8
Connecteurs
 62
0
 70
0
 66
1
 10
0.0
 20
0.0
 30
0.0
  0
VERTEX
  8
Connecteurs
 10
9.39082191781
 20
12.29
 30
0.0
  0
VERTEX
  8
Connecteurs
 10
9.44082191781
 20
12.29
 30
0.0
  0
VERTEX
  8
Connecteurs
 10
9.49082191781
 20
12.29
 30
0.0
  0
VERTEX
  8
Connecteurs
 10
9.51
 20
12.29
 30
0.0
  0
SEQEND
  8
Connecteurs
  0
POLYLINE
  8
Connecteurs
 62
0
 70
0
 66
1
 10
0.0
 20
0.0
 30
0.0
  0
VERTEX
  8
Connecteurs
 10
11.03
 20
14.83
 30
0.0
  0
VERTEX
  8
Connecteurs
 10
11.08
 20
14.83
 30
0.0
  0
VERTEX
  8
Connecteurs
 10
11.13
 20
14.83
 30
0.0
  0
VERTEX
  8
Connecteurs
 10
11.1491780822
 20
14.83
 30
0.0
  0
SEQEND
  8
Connecteurs
  0
POLYLINE
  8
Connecteurs
 62
0
 70
0
 66
1
 10
0.0
 20
0.0
 30
0.0
  0
VERTEX
  8
Connecteurs
 10
11.1491780822
 20
14.83
 30
0.0
  0
VERTEX
  8
Connecteurs
 10
11.1991780822
 20
14.83
 30
0.0
  0
VERTEX
  8
Connecteurs
 10
11.2491780822
 20
14.83
 30
0.0
  0
VERTEX
  8
Connecteurs
 10
11.2991780822
 20
14.83
 30
0.0
  0
VERTEX
  8
Connecteurs
 10
11.33
 20
14.83
 30
0.0
  0
SEQEND
  8
Connecteurs
  0
POLYLINE
  8
Connecteurs
 62
0
 70
0
 66
1
 10
0.0
 20
0.0
 30
0.0
  0
VERTEX
  8
Connecteurs
 10
10.9608219178
 20
14.27
 30
0.0
  0
VERTEX
  8
Connecteurs
 10
10.9108219178
 20
14.27
 30
0.0
  0
VERTEX
  8
Connecteurs
 10
10.8608219178
 20
14.27
 30
0.0
  0
VERTEX
  8
Connecteurs
 10
10.8108219178
 20
14.27
 30
0.0
  0
VERTEX
  8
Connecteurs
 10
10.78
 20
14.27
 30
0.0
  0
SEQEND
  8
Connecteurs
  0
POLYLINE
  8
Connecteurs
 62
0
 70
0
 66
1
 10
0.0
 20
0.0
 30
0.0
  0
VERTEX
  8
Connecteurs
 10
11.1491780822
 20
14.27
 30
0.0
  0
VERTEX
  8
Connecteurs
 10
11.1991780822
 20
14.27
 30
0.0
  0
VERTEX
  8
Connecteurs
 10
11.2491780822
 20
14.27
 30
0.0
  0
VERTEX
  8
Connecteurs
 10
11.2991780822
 20
14.27
 30
0.0
  0
VERTEX
  8
Connecteurs
 10
11.33
 20
14.27
 30
0.0
  0
SEQEND
  8
Connecteurs
  0
POLYLINE
  8
Connecteurs
 62
0
 70
0
 66
1
 10
0.0
 20
0.0
 30
0.0
  0
VERTEX
  8
Connecteurs
 10
11.03
 20
14.27
 30
0.0
  0
VERTEX
  8
Connecteurs
 10
11.08
 20
14.27
 30
0.0
  0
VERTEX
  8
Connecteurs
 10
11.13
 20
14.27
 30
0.0
  0
VERTEX
  8
Connecteurs
 10
11.1491780822
 20
14.27
 30
0.0
  0
SEQEND
  8
Connecteurs
  0
POLYLINE
  8
Connecteurs
 62
0
 70
0
 66
1
 10
0.0
 20
0.0
 30
0.0
  0
VERTEX
  8
Connecteurs
 10
10.78
 20
14.27
 30
0.0
  0
VERTEX
  8
Connecteurs
 10
10.83
 20
14.27
 30
0.0
  0
VERTEX
  8
Connecteurs
 10
10.88
 20
14.27
 30
0.0
  0
VERTEX
  8
Connecteurs
 10
10.93
 20
14.27
 30
0.0
  0
VERTEX
  8
Connecteurs
 10
10.9608219178
 20
14.27
 30
0.0
  0
SEQEND
  8
Connecteurs
  0
POLYLINE
  8
Connecteurs
 62
0
 70
0
 66
1
 10
0.0
 20
0.0
 30
0.0
  0
VERTEX
  8
Connecteurs
 10
10.9608219178
 20
14.27
 30
0.0
  0
VERTEX
  8
Connecteurs
 10
11.0108219178
 20
14.27
 30
0.0
  0
VERTEX
  8
Connecteurs
 10
11.03
 20
14.27
 30
0.0
  0
SEQEND
  8
Connecteurs
  0
POLYLINE
  8
Connecteurs
 62
0
 70
0
 66
1
 10
0.0
 20
0.0
 30
0.0
  0
VERTEX
  8
Connecteurs
 10
11.9308219178
 20
11.73
 30
0.0
  0
VERTEX
  8
Connecteurs
 10
11.9808219178
 20
11.73
 30
0.0
  0
VERTEX
  8
Connecteurs
 10
12.0308219178
 20
11.73
 30
0.0
  0
VERTEX
  8
Connecteurs
 10
12.05
 20
11.73
 30
0.0
  0
SEQEND
  8
Connecteurs
  0
POLYLINE
  8
Connecteurs
 62
0
 70
0
 66
1
 10
0.0
 20
0.0
 30
0.0
  0
VERTEX
  8
Connecteurs
 10
11.75
 20
11.73
 30
0.0
  0
VERTEX
  8
Connecteurs
 10
11.8
 20
11.73
 30
0.0
  0
VERTEX
  8
Connecteurs
 10
11.85
 20
11.73
 30
0.0
  0
VERTEX
  8
Connecteurs
 10
11.9
 20
11.73
 30
0.0
  0
VERTEX
  8
Connecteurs
 10
11.9308219178
 20
11.73
 30
0.0
  0
SEQEND
  8
Connecteurs
  0
POLYLINE
  8
Connecteurs
 62
0
 70
0
 66
1
 10
0.0
 20
0.0
 30
0.0
  0
VERTEX
  8
Connecteurs
 10
12.3
 20
11.73
 30
0.0
  0
VERTEX
  8
Connecteurs
 10
12.25
 20
11.73
 30
0.0
  0
VERTEX
  8
Connecteurs
 10
12.2
 20
11.73
 30
0.0
  0
VERTEX
  8
Connecteurs
 10
12.15
 20
11.73
 30
0.0
  0
VERTEX
  8
Connecteurs
 10
12.1191780822
 20
11.73
 30
0.0
  0
SEQEND
  8
Connecteurs
  0
POLYLINE
  8
Connecteurs
 62
0
 70
0
 66
1
 10
0.0
 20
0.0
 30
0.0
  0
VERTEX
  8
Connecteurs
 10
12.05
 20
11.73
 30
0.0
  0
VERTEX
  8
Connecteurs
 10
12.1
 20
11.73
 30
0.0
  0
VERTEX
  8
Connecteurs
 10
12.1191780822
 20
11.73
 30
0.0
  0
SEQEND
  8
Connecteurs
  0
POLYLINE
  8
Connecteurs
 62
0
 70
0
 66
1
 10
0.0
 20
0.0
 30
0.0
  0
VERTEX
  8
Connecteurs
 10
12.1191780822
 20
11.73
 30
0.0
  0
VERTEX
  8
Connecteurs
 10
12.1691780822
 20
11.73
 30
0.0
  0
VERTEX
  8
Connecteurs
 10
12.2191780822
 20
11.73
 30
0.0
  0
VERTEX
  8
Connecteurs
 10
12.2691780822
 20
11.73
 30
0.0
  0
VERTEX
  8
Connecteurs
 10
12.3
 20
11.73
 30
0.0
  0
SEQEND
  8
Connecteurs
  0
POLYLINE
  8
Connecteurs
 62
0
 70
0
 66
1
 10
0.0
 20
0.0
 30
0.0
  0
VERTEX
  8
Connecteurs
 10
12.1191780822
 20
12.29
 30
0.0
  0
VERTEX
  8
Connecteurs
 10
12.1691780822
 20
12.29
 30
0.0
  0
VERTEX
  8
Connecteurs
 10
12.2191780822
 20
12.29
 30
0.0
  0
VERTEX
  8
Connecteurs
 10
12.2691780822
 20
12.29
 30
0.0
  0
VERTEX
  8
Connecteurs
 10
12.3
 20
12.29
 30
0.0
  0
SEQEND
  8
Connecteurs
  0
POLYLINE
  8
Connecteurs
 62
0
 70
0
 66
1
 10
0.0
 20
0.0
 30
0.0
  0
VERTEX
  8
Connecteurs
 10
12.05
 20
12.29
 30
0.0
  0
VERTEX
  8
Connecteurs
 10
12.1
 20
12.29
 30
0.0
  0
VERTEX
  8
Connecteurs
 10
12.1191780822
 20
12.29
 30
0.0
  0
SEQEND
  8
Connecteurs
  0
POLYLINE
  8
Connecteurs
 62
0
 70
0
 66
1
 10
0.0
 20
0.0
 30
0.0
  0
VERTEX
  8
Connecteurs
 10
12.3
 20
12.29
 30
0.0
  0
VERTEX
  8
Connecteurs
 10
12.25
 20
12.29
 30
0.0
  0
VERTEX
  8
Connecteurs
 10
12.2
 20
12.29
 30
0.0
  0
VERTEX
  8
Connecteurs
 10
12.15
 20
12.29
 30
0.0
  0
VERTEX
  8
Connecteurs
 10
12.1191780822
 20
12.29
 30
0.0
  0
SEQEND
  8
Connecteurs
  0
POLYLINE
  8
Connecteurs
 62
0
 70
0
 66
1
 10
0.0
 20
0.0
 30
0.0
  0
VERTEX
  8
Connecteurs
 10
11.75
 20
12.29
 30
0.0
  0
VERTEX
  8
Connecteurs
 10
11.8
 20
12.29
 30
0.0
  0
VERTEX
  8
Connecteurs
 10
11.85
 20
12.29
 30
0.0
  0
VERTEX
  8
Connecteurs
 10
11.9
 20
12.29
 30
0.0
  0
VERTEX
  8
Connecteurs
 10
11.9308219178
 20
12.29
 30
0.0
  0
SEQEND
  8
Connecteurs
  0
POLYLINE
  8
Connecteurs
 62
0
 70
0
 66
1
 10
0.0
 20
0.0
 30
0.0
  0
VERTEX
  8
Connecteurs
 10
11.9308219178
 20
12.29
 30
0.0
  0
VERTEX
  8
Connecteurs
 10
11.9808219178
 20
12.29
 30
0.0
  0
VERTEX
  8
Connecteurs
 10
12.0308219178
 20
12.29
 30
0.0
  0
VERTEX
  8
Connecteurs
 10
12.05
 20
12.29
 30
0.0
  0
SEQEND
  8
Connecteurs
  0
LINE
  8
Connecteurs
 62
0
 10
5.7
 20
15.7
 30
0.0
 11
5.95
 21
15.7
 31
0.0
  0
LINE
  8
Connecteurs
 62
0
 10
5.7
 20
14.98
 30
0.0
 11
5.7
 21
15.55
 31
0.0
  0
LINE
  8
Connecteurs
 62
0
 10
5.95
 20
14.98
 30
0.0
 11
5.95
 21
15.55
 31
0.0
  0
LINE
  8
Connecteurs
 62
0
 10
5.7
 20
14.83
 30
0.0
 11
5.95
 21
14.83
 31
0.0
  0
LINE
  8
Connecteurs
 62
0
 10
5.95
 20
14.27
 30
0.0
 11
5.7
 21
14.27
 31
0.0
  0
LINE
  8
Connecteurs
 62
0
 10
5.7
 20
14.2
 30
0.0
 11
5.7
 21
14.27
 31
0.0
  0
LINE
  8
Connecteurs
 62
0
 10
4.925
 20
14.2
 30
0.0
 11
5.7
 21
14.2
 31
0.0
  0
LINE
  8
Connecteurs
 62
0
 10
4.925
 20
15.7
 30
0.0
 11
4.925
 21
14.2
 31
0.0
  0
LINE
  8
Connecteurs
 62
0
 10
4.925
 20
15.7
 30
0.0
 11
5.55
 21
15.7
 31
0.0
  0
LINE
  8
Connecteurs
 62
0
 10
5.55
 20
15.7
 30
0.0
 11
5.7
 21
15.55
 31
0.0
  0
LINE
  8
Connecteurs
 62
0
 10
5.7
 20
15.55
 30
0.0
 11
5.55
 21
15.7
 31
0.0
  0
LINE
  8
Connecteurs
 62
0
 10
6.1
 20
15.7
 30
0.0
 11
5.95
 21
15.55
 31
0.0
  0
LINE
  8
Connecteurs
 62
0
 10
6.1
 20
15.7
 30
0.0
 11
6.82
 21
15.7
 31
0.0
  0
LINE
  8
Connecteurs
 62
0
 10
5.95
 20
15.55
 30
0.0
 11
6.1
 21
15.7
 31
0.0
  0
LINE
  8
Connecteurs
 62
0
 10
6.82
 20
15.7
 30
0.0
 11
6.97
 21
15.55
 31
0.0
  0
LINE
  8
Connecteurs
 62
0
 10
5.95
 20
14.2
 30
0.0
 11
5.95
 21
14.27
 31
0.0
  0
LINE
  8
Connecteurs
 62
0
 10
5.95
 20
14.2
 30
0.0
 11
6.97
 21
14.2
 31
0.0
  0
LINE
  8
Connecteurs
 62
0
 10
5.7
 20
14.83
 30
0.0
 11
5.7
 21
14.27
 31
0.0
  0
LINE
  8
Connecteurs
 62
0
 10
5.7
 20
14.63
 30
0.0
 11
5.7
 21
14.47
 31
0.0
  0
LINE
  8
Connecteurs
 62
0
 10
5.7
 20
14.83
 30
0.0
 11
5.7
 21
14.63
 31
0.0
  0
LINE
  8
Connecteurs
 62
0
 10
5.7
 20
14.27
 30
0.0
 11
5.7
 21
14.47
 31
0.0
  0
LINE
  8
Connecteurs
 62
0
 10
5.95
 20
14.63
 30
0.0
 11
5.7
 21
14.63
 31
0.0
  0
LINE
  8
Connecteurs
 62
0
 10
5.95
 20
14.63
 30
0.0
 11
5.95
 21
14.83
 31
0.0
  0
LINE
  8
Connecteurs
 62
0
 10
5.95
 20
14.47
 30
0.0
 11
5.95
 21
14.63
 31
0.0
  0
LINE
  8
Connecteurs
 62
0
 10
5.95
 20
14.47
 30
0.0
 11
5.95
 21
14.27
 31
0.0
  0
LINE
  8
Connecteurs
 62
0
 10
5.7
 20
14.47
 30
0.0
 11
5.95
 21
14.47
 31
0.0
  0
LINE
  8
Connecteurs
 62
0
 10
5.95
 20
14.2
 30
0.0
 11
5.7
 21
14.2
 31
0.0
  0
LINE
  8
Connecteurs
 62
0
 10
7.22
 20
14.2
 30
0.0
 11
8.24
 21
14.2
 31
0.0
  0
LINE
  8
Connecteurs
 62
0
 10
8.49
 20
14.2
 30
0.0
 11
8.24
 21
14.2
 31
0.0
  0
LINE
  8
Connecteurs
 62
0
 10
8.49
 20
14.2
 30
0.0
 11
9.51
 21
14.2
 31
0.0
  0
LINE
  8
Connecteurs
 62
0
 10
9.76
 20
14.2
 30
0.0
 11
10.78
 21
14.2
 31
0.0
  0
LINE
  8
Connecteurs
 62
0
 10
11.03
 20
14.2
 30
0.0
 11
10.78
 21
14.2
 31
0.0
  0
LINE
  8
Connecteurs
 62
0
 10
11.03
 20
14.2
 30
0.0
 11
12.05
 21
14.2
 31
0.0
  0
LINE
  8
Connecteurs
 62
0
 10
13.81
 20
14.2
 30
0.0
 11
12.3
 21
14.2
 31
0.0
  0
LINE
  8
Connecteurs
 62
0
 10
12.05
 20
14.2
 30
0.0
 11
9.76
 21
14.2
 31
0.0
  0
LINE
  8
Connecteurs
 62
0
 10
9.51
 20
14.2
 30
0.0
 11
7.22
 21
14.2
 31
0.0
  0
LINE
  8
Connecteurs
 62
0
 10
6.97
 20
14.2
 30
0.0
 11
4.19
 21
14.2
 31
0.0
  0
LINE
  8
Connecteurs
 62
0
 10
12.3
 20
14.2
 30
0.0
 11
13.075
 21
14.2
 31
0.0
  0
LINE
  8
Connecteurs
 62
0
 10
4.925
 20
14.2
 30
0.0
 11
4.19
 21
14.2
 31
0.0
  0
LINE
  8
Connecteurs
 62
0
 10
4.925
 20
10.7
 30
0.0
 11
4.925
 21
12.6
 31
0.0
  0
LINE
  8
Connecteurs
 62
0
 10
13.075
 20
10.7
 30
0.0
 11
4.925
 21
10.7
 31
0.0
  0
LINE
  8
Connecteurs
 62
0
 10
6.97
 20
11.58
 30
0.0
 11
6.97
 21
11.125
 31
0.0
  0
LINE
  8
Connecteurs
 62
0
 10
6.97
 20
15.575
 30
0.0
 11
6.97
 21
12.44
 31
0.0
  0
LINE
  8
Connecteurs
 62
0
 10
8.24
 20
14.2
 30
0.0
 11
8.24
 21
14.27
 31
0.0
  0
LINE
  8
Connecteurs
 62
0
 10
8.24
 20
14.98
 30
0.0
 11
8.24
 21
15.55
 31
0.0
  0
LINE
  8
Connecteurs
 62
0
 10
8.09
 20
15.7
 30
0.0
 11
8.24
 21
15.55
 31
0.0
  0
LINE
  8
Connecteurs
 62
0
 10
7.22
 20
15.55
 30
0.0
 11
7.37
 21
15.7
 31
0.0
  0
LINE
  8
Connecteurs
 62
0
 10
7.37
 20
15.7
 30
0.0
 11
8.09
 21
15.7
 31
0.0
  0
LINE
  8
Connecteurs
 62
0
 10
8.49
 20
14.2
 30
0.0
 11
8.49
 21
14.27
 31
0.0
  0
LINE
  8
Connecteurs
 62
0
 10
9.51
 20
15.55
 30
0.0
 11
9.36
 21
15.7
 31
0.0
  0
LINE
  8
Connecteurs
 62
0
 10
8.64
 20
15.7
 30
0.0
 11
9.36
 21
15.7
 31
0.0
  0
LINE
  8
Connecteurs
 62
0
 10
8.49
 20
15.55
 30
0.0
 11
8.64
 21
15.7
 31
0.0
  0
LINE
  8
Connecteurs
 62
0
 10
10.78
 20
14.2
 30
0.0
 11
10.78
 21
14.27
 31
0.0
  0
LINE
  8
Connecteurs
 62
0
 10
10.78
 20
15.55
 30
0.0
 11
10.78
 21
14.98
 31
0.0
  0
LINE
  8
Connecteurs
 62
0
 10
10.78
 20
15.55
 30
0.0
 11
10.63
 21
15.7
 31
0.0
  0
LINE
  8
Connecteurs
 62
0
 10
9.91
 20
15.7
 30
0.0
 11
9.76
 21
15.55
 31
0.0
  0
LINE
  8
Connecteurs
 62
0
 10
9.91
 20
15.7
 30
0.0
 11
10.63
 21
15.7
 31
0.0
  0
LINE
  8
Connecteurs
 62
0
 10
11.03
 20
14.2
 30
0.0
 11
11.03
 21
14.27
 31
0.0
  0
LINE
  8
Connecteurs
 62
0
 10
4.19
 20
12.6
 30
0.0
 11
4.19
 21
14.2
 31
0.0
  0
LINE
  8
Connecteurs
 62
0
 10
12.05
 20
15.55
 30
0.0
 11
11.9
 21
15.7
 31
0.0
  0
LINE
  8
Connecteurs
 62
0
 10
11.18
 20
15.7
 30
0.0
 11
11.9
 21
15.7
 31
0.0
  0
LINE
  8
Connecteurs
 62
0
 10
11.18
 20
15.7
 30
0.0
 11
11.03
 21
15.55
 31
0.0
  0
LINE
  8
Connecteurs
 62
0
 10
13.81
 20
12.6
 30
0.0
 11
12.3
 21
12.6
 31
0.0
  0
LINE
  8
Connecteurs
 62
0
 10
12.05
 20
12.6
 30
0.0
 11
9.76
 21
12.6
 31
0.0
  0
LINE
  8
Connecteurs
 62
0
 10
9.51
 20
12.6
 30
0.0
 11
7.22
 21
12.6
 31
0.0
  0
LINE
  8
Connecteurs
 62
0
 10
6.97
 20
12.6
 30
0.0
 11
4.19
 21
12.6
 31
0.0
  0
LINE
  8
Connecteurs
 62
0
 10
13.81
 20
12.6
 30
0.0
 11
13.81
 21
14.2
 31
0.0
  0
LINE
  8
Connecteurs
 62
0
 10
12.45
 20
15.7
 30
0.0
 11
13.075
 21
15.7
 31
0.0
  0
LINE
  8
Connecteurs
 62
0
 10
12.45
 20
15.7
 30
0.0
 11
12.3
 21
15.55
 31
0.0
  0
LINE
  8
Connecteurs
 62
0
 10
13.075
 20
15.7
 30
0.0
 11
13.075
 21
14.2
 31
0.0
  0
LINE
  8
Connecteurs
 62
0
 10
13.075
 20
10.7
 30
0.0
 11
13.075
 21
12.6
 31
0.0
  0
LINE
  8
Connecteurs
 62
0
 10
12.45
 20
15.7
 30
0.0
 11
12.3
 21
15.55
 31
0.0
  0
LINE
  8
Connecteurs
 62
0
 10
9.91
 20
15.7
 30
0.0
 11
9.76
 21
15.55
 31
0.0
  0
LINE
  8
Connecteurs
 62
0
 10
9.51
 20
15.55
 30
0.0
 11
9.36
 21
15.7
 31
0.0
  0
LINE
  8
Connecteurs
 62
0
 10
7.22
 20
15.55
 30
0.0
 11
7.37
 21
15.7
 31
0.0
  0
LINE
  8
Connecteurs
 62
0
 10
6.82
 20
15.7
 30
0.0
 11
6.97
 21
15.55
 31
0.0
  0
LINE
  8
Connecteurs
 62
0
 10
7.22
 20
11.0
 30
0.0
 11
6.97
 21
11.0
 31
0.0
  0
LINE
  8
Connecteurs
 62
0
 10
7.22
 20
11.58
 30
0.0
 11
7.22
 21
11.125
 31
0.0
  0
LINE
  8
Connecteurs
 62
0
 10
7.22
 20
11.73
 30
0.0
 11
6.97
 21
11.73
 31
0.0
  0
LINE
  8
Connecteurs
 62
0
 10
6.97
 20
12.29
 30
0.0
 11
7.22
 21
12.29
 31
0.0
  0
LINE
  8
Connecteurs
 62
0
 10
7.22
 20
15.575
 30
0.0
 11
7.22
 21
12.44
 31
0.0
  0
LINE
  8
Connecteurs
 62
0
 10
7.22
 20
15.7
 30
0.0
 11
6.97
 21
15.7
 31
0.0
  0
LINE
  8
Connecteurs
 62
0
 10
8.24
 20
14.98
 30
0.0
 11
8.24
 21
15.55
 31
0.0
  0
LINE
  8
Connecteurs
 62
0
 10
7.22
 20
11.73
 30
0.0
 11
7.22
 21
12.29
 31
0.0
  0
LINE
  8
Connecteurs
 62
0
 10
9.51
 20
11.58
 30
0.0
 11
9.51
 21
11.125
 31
0.0
  0
LINE
  8
Connecteurs
 62
0
 10
9.51
 20
15.575
 30
0.0
 11
9.51
 21
12.44
 31
0.0
  0
LINE
  8
Connecteurs
 62
0
 10
8.49
 20
14.98
 30
0.0
 11
8.49
 21
15.55
 31
0.0
  0
LINE
  8
Connecteurs
 62
0
 10
10.78
 20
14.98
 30
0.0
 11
10.78
 21
15.55
 31
0.0
  0
LINE
  8
Connecteurs
 62
0
 10
9.76
 20
11.58
 30
0.0
 11
9.76
 21
11.125
 31
0.0
  0
LINE
  8
Connecteurs
 62
0
 10
9.76
 20
11.73
 30
0.0
 11
9.76
 21
12.29
 31
0.0
  0
LINE
  8
Connecteurs
 62
0
 10
9.76
 20
15.575
 30
0.0
 11
9.76
 21
12.44
 31
0.0
  0
LINE
  8
Connecteurs
 62
0
 10
12.05
 20
11.58
 30
0.0
 11
12.05
 21
11.125
 31
0.0
  0
LINE
  8
Connecteurs
 62
0
 10
12.05
 20
15.575
 30
0.0
 11
12.05
 21
12.44
 31
0.0
  0
LINE
  8
Connecteurs
 62
0
 10
11.03
 20
14.98
 30
0.0
 11
11.03
 21
15.55
 31
0.0
  0
LINE
  8
Connecteurs
 62
0
 10
12.3
 20
11.58
 30
0.0
 11
12.3
 21
11.125
 31
0.0
  0
LINE
  8
Connecteurs
 62
0
 10
12.3
 20
11.73
 30
0.0
 11
12.3
 21
12.29
 31
0.0
  0
LINE
  8
Connecteurs
 62
0
 10
12.3
 20
15.575
 30
0.0
 11
12.3
 21
12.44
 31
0.0
  0
LINE
  8
Connecteurs
 62
0
 10
10.78
 20
15.55
 30
0.0
 11
10.63
 21
15.7
 31
0.0
  0
LINE
  8
Connecteurs
 62
0
 10
10.78
 20
10.7
 30
0.0
 11
11.03
 21
10.7
 31
0.0
  0
LINE
  8
Connecteurs
 62
0
 10
10.78
 20
10.7
 30
0.0
 11
11.03
 21
10.7
 31
0.0
  0
LINE
  8
Connecteurs
 62
0
 10
7.22
 20
12.29
 30
0.0
 11
7.22
 21
12.09
 31
0.0
  0
LINE
  8
Connecteurs
 62
0
 10
7.22
 20
11.93
 30
0.0
 11
7.22
 21
12.09
 31
0.0
  0
LINE
  8
Connecteurs
 62
0
 10
7.22
 20
11.93
 30
0.0
 11
7.22
 21
11.73
 31
0.0
  0
LINE
  8
Connecteurs
 62
0
 10
7.22
 20
11.73
 30
0.0
 11
7.22
 21
12.29
 31
0.0
  0
LINE
  8
Connecteurs
 62
0
 10
6.97
 20
11.93
 30
0.0
 11
7.22
 21
11.93
 31
0.0
  0
LINE
  8
Connecteurs
 62
0
 10
6.97
 20
11.73
 30
0.0
 11
6.97
 21
11.93
 31
0.0
  0
LINE
  8
Connecteurs
 62
0
 10
6.97
 20
12.09
 30
0.0
 11
6.97
 21
11.93
 31
0.0
  0
LINE
  8
Connecteurs
 62
0
 10
6.97
 20
12.09
 30
0.0
 11
6.97
 21
12.29
 31
0.0
  0
LINE
  8
Connecteurs
 62
0
 10
7.22
 20
12.09
 30
0.0
 11
6.97
 21
12.09
 31
0.0
  0
LINE
  8
Connecteurs
 62
0
 10
8.24
 20
15.7
 30
0.0
 11
8.49
 21
15.7
 31
0.0
  0
LINE
  8
Connecteurs
 62
0
 10
8.24
 20
14.83
 30
0.0
 11
8.49
 21
14.83
 31
0.0
  0
LINE
  8
Connecteurs
 62
0
 10
8.49
 20
14.27
 30
0.0
 11
8.24
 21
14.27
 31
0.0
  0
LINE
  8
Connecteurs
 62
0
 10
9.76
 20
11.0
 30
0.0
 11
9.51
 21
11.0
 31
0.0
  0
LINE
  8
Connecteurs
 62
0
 10
9.76
 20
11.73
 30
0.0
 11
9.51
 21
11.73
 31
0.0
  0
LINE
  8
Connecteurs
 62
0
 10
9.51
 20
12.29
 30
0.0
 11
9.76
 21
12.29
 31
0.0
  0
LINE
  8
Connecteurs
 62
0
 10
9.76
 20
15.7
 30
0.0
 11
9.51
 21
15.7
 31
0.0
  0
LINE
  8
Connecteurs
 62
0
 10
10.78
 20
15.7
 30
0.0
 11
11.03
 21
15.7
 31
0.0
  0
LINE
  8
Connecteurs
 62
0
 10
10.78
 20
14.83
 30
0.0
 11
11.03
 21
14.83
 31
0.0
  0
LINE
  8
Connecteurs
 62
0
 10
11.03
 20
14.27
 30
0.0
 11
10.78
 21
14.27
 31
0.0
  0
LINE
  8
Connecteurs
 62
0
 10
12.3
 20
11.0
 30
0.0
 11
12.05
 21
11.0
 31
0.0
  0
LINE
  8
Connecteurs
 62
0
 10
12.3
 20
11.73
 30
0.0
 11
12.05
 21
11.73
 31
0.0
  0
LINE
  8
Connecteurs
 62
0
 10
12.05
 20
12.29
 30
0.0
 11
12.3
 21
12.29
 31
0.0
  0
LINE
  8
Connecteurs
 62
0
 10
12.3
 20
15.7
 30
0.0
 11
12.05
 21
15.7
 31
0.0
  0
LINE
  8
Connecteurs
 62
0
 10
8.24
 20
14.83
 30
0.0
 11
8.24
 21
14.27
 31
0.0
  0
LINE
  8
Connecteurs
 62
0
 10
8.24
 20
14.63
 30
0.0
 11
8.24
 21
14.47
 31
0.0
  0
LINE
  8
Connecteurs
 62
0
 10
8.24
 20
14.83
 30
0.0
 11
8.24
 21
14.63
 31
0.0
  0
LINE
  8
Connecteurs
 62
0
 10
8.24
 20
14.27
 30
0.0
 11
8.24
 21
14.47
 31
0.0
  0
LINE
  8
Connecteurs
 62
0
 10
8.49
 20
14.63
 30
0.0
 11
8.24
 21
14.63
 31
0.0
  0
LINE
  8
Connecteurs
 62
0
 10
8.49
 20
14.63
 30
0.0
 11
8.49
 21
14.83
 31
0.0
  0
LINE
  8
Connecteurs
 62
0
 10
8.49
 20
14.47
 30
0.0
 11
8.49
 21
14.63
 31
0.0
  0
LINE
  8
Connecteurs
 62
0
 10
8.49
 20
14.47
 30
0.0
 11
8.49
 21
14.27
 31
0.0
  0
LINE
  8
Connecteurs
 62
0
 10
8.24
 20
14.47
 30
0.0
 11
8.49
 21
14.47
 31
0.0
  0
LINE
  8
Connecteurs
 62
0
 10
9.76
 20
12.29
 30
0.0
 11
9.76
 21
12.09
 31
0.0
  0
LINE
  8
Connecteurs
 62
0
 10
9.76
 20
11.93
 30
0.0
 11
9.76
 21
12.09
 31
0.0
  0
LINE
  8
Connecteurs
 62
0
 10
9.76
 20
11.93
 30
0.0
 11
9.76
 21
11.73
 31
0.0
  0
LINE
  8
Connecteurs
 62
0
 10
9.76
 20
11.73
 30
0.0
 11
9.76
 21
12.29
 31
0.0
  0
LINE
  8
Connecteurs
 62
0
 10
9.51
 20
11.93
 30
0.0
 11
9.76
 21
11.93
 31
0.0
  0
LINE
  8
Connecteurs
 62
0
 10
9.51
 20
11.73
 30
0.0
 11
9.51
 21
11.93
 31
0.0
  0
LINE
  8
Connecteurs
 62
0
 10
9.51
 20
12.09
 30
0.0
 11
9.51
 21
11.93
 31
0.0
  0
LINE
  8
Connecteurs
 62
0
 10
9.51
 20
12.09
 30
0.0
 11
9.51
 21
12.29
 31
0.0
  0
LINE
  8
Connecteurs
 62
0
 10
9.76
 20
12.09
 30
0.0
 11
9.51
 21
12.09
 31
0.0
  0
LINE
  8
Connecteurs
 62
0
 10
10.78
 20
14.83
 30
0.0
 11
10.78
 21
14.27
 31
0.0
  0
LINE
  8
Connecteurs
 62
0
 10
10.78
 20
14.63
 30
0.0
 11
10.78
 21
14.47
 31
0.0
  0
LINE
  8
Connecteurs
 62
0
 10
10.78
 20
14.83
 30
0.0
 11
10.78
 21
14.63
 31
0.0
  0
LINE
  8
Connecteurs
 62
0
 10
10.78
 20
14.27
 30
0.0
 11
10.78
 21
14.47
 31
0.0
  0
LINE
  8
Connecteurs
 62
0
 10
11.03
 20
14.63
 30
0.0
 11
10.78
 21
14.63
 31
0.0
  0
LINE
  8
Connecteurs
 62
0
 10
11.03
 20
14.63
 30
0.0
 11
11.03
 21
14.83
 31
0.0
  0
LINE
  8
Connecteurs
 62
0
 10
11.03
 20
14.47
 30
0.0
 11
11.03
 21
14.63
 31
0.0
  0
LINE
  8
Connecteurs
 62
0
 10
11.03
 20
14.47
 30
0.0
 11
11.03
 21
14.27
 31
0.0
  0
LINE
  8
Connecteurs
 62
0
 10
10.78
 20
14.47
 30
0.0
 11
11.03
 21
14.47
 31
0.0
  0
LINE
  8
Connecteurs
 62
0
 10
12.3
 20
12.29
 30
0.0
 11
12.3
 21
12.09
 31
0.0
  0
LINE
  8
Connecteurs
 62
0
 10
12.3
 20
11.93
 30
0.0
 11
12.3
 21
12.09
 31
0.0
  0
LINE
  8
Connecteurs
 62
0
 10
12.3
 20
11.93
 30
0.0
 11
12.3
 21
11.73
 31
0.0
  0
LINE
  8
Connecteurs
 62
0
 10
12.3
 20
11.73
 30
0.0
 11
12.3
 21
12.29
 31
0.0
  0
LINE
  8
Connecteurs
 62
0
 10
12.05
 20
11.93
 30
0.0
 11
12.3
 21
11.93
 31
0.0
  0
LINE
  8
Connecteurs
 62
0
 10
12.05
 20
11.73
 30
0.0
 11
12.05
 21
11.93
 31
0.0
  0
LINE
  8
Connecteurs
 62
0
 10
12.05
 20
12.09
 30
0.0
 11
12.05
 21
11.93
 31
0.0
  0
LINE
  8
Connecteurs
 62
0
 10
12.05
 20
12.09
 30
0.0
 11
12.05
 21
12.29
 31
0.0
  0
LINE
  8
Connecteurs
 62
0
 10
12.3
 20
12.09
 30
0.0
 11
12.05
 21
12.09
 31
0.0
  0
LINE
  8
Connecteurs
 62
0
 10
5.7
 20
15.55
 30
0.0
 11
5.95
 21
15.55
 31
0.0
  0
LINE
  8
Connecteurs
 62
0
 10
5.7
 20
14.98
 30
0.0
 11
5.95
 21
14.98
 31
0.0
  0
LINE
  8
Connecteurs
 62
0
 10
6.06917808219
 20
14.27
 30
0.0
 11
6.06917808219
 21
14.83
 31
0.0
  0
LINE
  8
Connecteurs
 62
0
 10
7.22
 20
11.125
 30
0.0
 11
6.97
 21
11.125
 31
0.0
  0
LINE
  8
Connecteurs
 62
0
 10
7.22
 20
11.58
 30
0.0
 11
6.97
 21
11.58
 31
0.0
  0
LINE
  8
Connecteurs
 62
0
 10
6.97
 20
12.44
 30
0.0
 11
7.22
 21
12.44
 31
0.0
  0
LINE
  8
Connecteurs
 62
0
 10
7.22
 20
15.575
 30
0.0
 11
6.97
 21
15.575
 31
0.0
  0
LINE
  8
Connecteurs
 62
0
 10
6.85082191781
 20
12.29
 30
0.0
 11
6.85082191781
 21
11.73
 31
0.0
  0
LINE
  8
Connecteurs
 62
0
 10
8.24
 20
15.55
 30
0.0
 11
8.49
 21
15.55
 31
0.0
  0
LINE
  8
Connecteurs
 62
0
 10
8.24
 20
14.98
 30
0.0
 11
8.49
 21
14.98
 31
0.0
  0
LINE
  8
Connecteurs
 62
0
 10
9.76
 20
11.125
 30
0.0
 11
9.51
 21
11.125
 31
0.0
  0
LINE
  8
Connecteurs
 62
0
 10
9.76
 20
11.58
 30
0.0
 11
9.51
 21
11.58
 31
0.0
  0
LINE
  8
Connecteurs
 62
0
 10
9.51
 20
12.44
 30
0.0
 11
9.76
 21
12.44
 31
0.0
  0
LINE
  8
Connecteurs
 62
0
 10
9.76
 20
15.575
 30
0.0
 11
9.51
 21
15.575
 31
0.0
  0
LINE
  8
Connecteurs
 62
0
 10
10.78
 20
15.55
 30
0.0
 11
11.03
 21
15.55
 31
0.0
  0
LINE
  8
Connecteurs
 62
0
 10
10.78
 20
14.98
 30
0.0
 11
11.03
 21
14.98
 31
0.0
  0
LINE
  8
Connecteurs
 62
0
 10
12.3
 20
11.125
 30
0.0
 11
12.05
 21
11.125
 31
0.0
  0
LINE
  8
Connecteurs
 62
0
 10
12.3
 20
11.58
 30
0.0
 11
12.05
 21
11.58
 31
0.0
  0
LINE
  8
Connecteurs
 62
0
 10
12.05
 20
12.44
 30
0.0
 11
12.3
 21
12.44
 31
0.0
  0
LINE
  8
Connecteurs
 62
0
 10
12.3
 20
15.575
 30
0.0
 11
12.05
 21
15.575
 31
0.0
  0
LINE
  8
Connecteurs
 62
0
 10
8.60917808219
 20
14.27
 30
0.0
 11
8.60917808219
 21
14.83
 31
0.0
  0
LINE
  8
Connecteurs
 62
0
 10
9.39082191781
 20
12.29
 30
0.0
 11
9.39082191781
 21
11.73
 31
0.0
  0
LINE
  8
Connecteurs
 62
0
 10
11.1491780822
 20
14.27
 30
0.0
 11
11.1491780822
 21
14.83
 31
0.0
  0
LINE
  8
Connecteurs
 62
0
 10
11.9308219178
 20
12.29
 30
0.0
 11
11.9308219178
 21
11.73
 31
0.0
  0
LINE
  8
Connecteurs
 62
0
 10
6.25
 20
14.83
 30
0.0
 11
6.25
 21
14.27
 31
0.0
  0
LINE
  8
Connecteurs
 62
0
 10
6.67
 20
12.29
 30
0.0
 11
6.67
 21
11.73
 31
0.0
  0
LINE
  8
Connecteurs
 62
0
 10
8.79
 20
14.83
 30
0.0
 11
8.79
 21
14.27
 31
0.0
  0
LINE
  8
Connecteurs
 62
0
 10
9.21
 20
12.29
 30
0.0
 11
9.21
 21
11.73
 31
0.0
  0
LINE
  8
Connecteurs
 62
0
 10
11.33
 20
14.83
 30
0.0
 11
11.33
 21
14.27
 31
0.0
  0
LINE
  8
Connecteurs
 62
0
 10
11.75
 20
12.29
 30
0.0
 11
11.75
 21
11.73
 31
0.0
  0
ENDBLK
  0
BLOCK
  8
Connecteurs
  2
CLONE097
 70
0
 10
0.0
 20
0.0
 30
0.0
  3
CLONE097
  0
POLYLINE
  8
Connecteurs
 62
0
 70
0
 66
1
 10
0.0
 20
0.0
 30
0.0
  0
VERTEX
  8
Connecteurs
 10
4.775
 20
12.6
 30
0.0
  0
VERTEX
  8
Connecteurs
 10
4.775
 20
12.65
 30
0.0
  0
VERTEX
  8
Connecteurs
 10
4.775
 20
12.7
 30
0.0
  0
VERTEX
  8
Connecteurs
 10
4.775
 20
12.725
 30
0.0
  0
SEQEND
  8
Connecteurs
  0
POLYLINE
  8
Connecteurs
 62
0
 70
0
 66
1
 10
0.0
 20
0.0
 30
0.0
  0
VERTEX
  8
Connecteurs
 10
4.175
 20
12.6
 30
0.0
  0
VERTEX
  8
Connecteurs
 10
4.175
 20
12.65
 30
0.0
  0
VERTEX
  8
Connecteurs
 10
4.175
 20
12.7
 30
0.0
  0
VERTEX
  8
Connecteurs
 10
4.175
 20
12.725
 30
0.0
  0
SEQEND
  8
Connecteurs
  0
LINE
  8
Connecteurs
 62
0
 10
10.755
 20
12.6
 30
0.0
 11
11.055
 21
12.6
 31
0.0
  0
LINE
  8
Connecteurs
 62
0
 10
4.775
 20
15.5
 30
0.0
 11
4.775
 21
16.0
 31
0.0
  0
LINE
  8
Connecteurs
 62
0
 10
4.775
 20
12.725
 30
0.0
 11
4.775
 21
15.5
 31
0.0
  0
LINE
  8
Connecteurs
 62
0
 10
6.945
 20
12.6
 30
0.0
 11
7.245
 21
12.6
 31
0.0
  0
LINE
  8
Connecteurs
 62
0
 10
8.215
 20
12.6
 30
0.0
 11
8.515
 21
12.6
 31
0.0
  0
LINE
  8
Connecteurs
 62
0
 10
9.485
 20
12.6
 30
0.0
 11
9.785
 21
12.6
 31
0.0
  0
LINE
  8
Connecteurs
 62
0
 10
12.025
 20
12.6
 30
0.0
 11
12.325
 21
12.6
 31
0.0
  0
LINE
  8
Connecteurs
 62
0
 10
5.675
 20
12.6
 30
0.0
 11
5.975
 21
12.6
 31
0.0
  0
LINE
  8
Connecteurs
 62
0
 10
4.775
 20
12.6
 30
0.0
 11
5.675
 21
12.6
 31
0.0
  0
LINE
  8
Connecteurs
 62
0
 10
5.975
 20
12.6
 30
0.0
 11
6.945
 21
12.6
 31
0.0
  0
LINE
  8
Connecteurs
 62
0
 10
7.245
 20
12.6
 30
0.0
 11
8.215
 21
12.6
 31
0.0
  0
LINE
  8
Connecteurs
 62
0
 10
8.515
 20
12.6
 30
0.0
 11
9.485
 21
12.6
 31
0.0
  0
LINE
  8
Connecteurs
 62
0
 10
9.785
 20
12.6
 30
0.0
 11
10.755
 21
12.6
 31
0.0
  0
LINE
  8
Connecteurs
 62
0
 10
11.055
 20
12.6
 30
0.0
 11
12.025
 21
12.6
 31
0.0
  0
LINE
  8
Connecteurs
 62
0
 10
12.325
 20
12.6
 30
0.0
 11
13.225
 21
12.6
 31
0.0
  0
LINE
  8
Connecteurs
 62
0
 10
4.175
 20
12.6
 30
0.0
 11
13.825
 21
12.6
 31
0.0
  0
LINE
  8
Connecteurs
 62
0
 10
4.775
 20
16.0
 30
0.0
 11
4.175
 21
16.0
 31
0.0
  0
LINE
  8
Connecteurs
 62
0
 10
4.175
 20
16.0
 30
0.0
 11
4.175
 21
15.5
 31
0.0
  0
LINE
  8
Connecteurs
 62
0
 10
4.775
 20
15.5
 30
0.0
 11
4.175
 21
15.5
 31
0.0
  0
LINE
  8
Connecteurs
 62
0
 10
4.175
 20
12.725
 30
0.0
 11
4.175
 21
15.5
 31
0.0
  0
LINE
  8
Connecteurs
 62
0
 10
4.175
 20
10.75
 30
0.0
 11
4.175
 21
11.65
 31
0.0
  0
LINE
  8
Connecteurs
 62
0
 10
4.175
 20
10.6
 30
0.0
 11
4.175
 21
9.3
 31
0.0
  0
LINE
  8
Connecteurs
 62
0
 10
4.175
 20
12.6
 30
0.0
 11
4.175
 21
10.6
 31
0.0
  0
LINE
  8
Connecteurs
 62
0
 10
4.175
 20
10.6
 30
0.0
 11
13.825
 21
10.6
 31
0.0
  0
LINE
  8
Connecteurs
 62
0
 10
13.825
 20
12.6
 30
0.0
 11
13.825
 21
10.6
 31
0.0
  0
LINE
  8
Connecteurs
 62
0
 10
13.825
 20
10.6
 30
0.0
 11
13.825
 21
9.3
 31
0.0
  0
LINE
  8
Connecteurs
 62
0
 10
4.175
 20
10.75
 30
0.0
 11
4.105
 21
10.862
 31
0.0
  0
LINE
  8
Connecteurs
 62
0
 10
4.105
 20
11.65
 30
0.0
 11
4.175
 21
11.65
 31
0.0
  0
LINE
  8
Connecteurs
 62
0
 10
13.225
 20
9.4
 30
0.0
 11
4.775
 21
9.4
 31
0.0
  0
LINE
  8
Connecteurs
 62
0
 10
4.175
 20
9.6
 30
0.0
 11
4.105
 21
9.6
 31
0.0
  0
LINE
  8
Connecteurs
 62
0
 10
4.225
 20
9.0
 30
0.0
 11
4.475
 21
9.0
 31
0.0
  0
LINE
  8
Connecteurs
 62
0
 10
4.175
 20
9.3
 30
0.0
 11
4.475
 21
9.0
 31
0.0
  0
LINE
  8
Connecteurs
 62
0
 10
13.225
 20
9.4
 30
0.0
 11
13.225
 21
9.0
 31
0.0
  0
LINE
  8
Connecteurs
 62
0
 10
13.525
 20
9.0
 30
0.0
 11
13.225
 21
9.0
 31
0.0
  0
LINE
  8
Connecteurs
 62
0
 10
13.825
 20
9.3
 30
0.0
 11
13.525
 21
9.0
 31
0.0
  0
LINE
  8
Connecteurs
 62
0
 10
4.475
 20
9.0
 30
0.0
 11
4.775
 21
9.0
 31
0.0
  0
LINE
  8
Connecteurs
 62
0
 10
4.775
 20
9.4
 30
0.0
 11
4.775
 21
9.0
 31
0.0
  0
LINE
  8
Connecteurs
 62
0
 10
13.825
 20
10.75
 30
0.0
 11
13.895
 21
10.862
 31
0.0
  0
LINE
  8
Connecteurs
 62
0
 10
13.895
 20
11.65
 30
0.0
 11
13.825
 21
11.65
 31
0.0
  0
LINE
  8
Connecteurs
 62
0
 10
13.825
 20
9.6
 30
0.0
 11
13.895
 21
9.6
 31
0.0
  0
LINE
  8
Connecteurs
 62
0
 10
13.775
 20
9.0
 30
0.0
 11
13.525
 21
9.0
 31
0.0
  0
LINE
  8
Connecteurs
 62
0
 10
4.105
 20
12.4
 30
0.0
 11
4.105
 21
9.12
 31
0.0
  0
ARC
  8
Connecteurs
 62
0
 10
8.685
 20
8.46208348754
 30
0.0
 40
0.825
 50
-6.46029358648
 51
-0.0
  0
LINE
  8
Connecteurs
 62
0
 10
9.51
 20
9.275
 30
0.0
 11
9.51
 21
8.46208348754
 31
0.0
  0
ARC
  8
Connecteurs
 62
0
 10
9.635
 20
9.275
 30
0.0
 40
0.125
 50
90.0000013538
 51
-180.0
  0
ARC
  8
Connecteurs
 62
0
 10
9.635
 20
9.275
 30
0.0
 40
0.125
 50
0.0
 51
90.0000013538
  0
LINE
  8
Connecteurs
 62
0
 10
9.76
 20
9.275
 30
0.0
 11
9.76
 21
8.46208348754
 31
0.0
  0
ARC
  8
Connecteurs
 62
0
 10
10.585
 20
8.46208348754
 30
0.0
 40
0.825
 50
180.0
 51
-173.539706414
  0
ARC
  8
Connecteurs
 62
0
 10
9.955
 20
9.12958365434
 30
0.0
 40
0.275
 50
-0.0
 51
79.5243183036
  0
LINE
  8
Connecteurs
 62
0
 10
10.23
 20
8.8
 30
0.0
 11
10.23
 21
9.12958365434
 31
0.0
  0
ARC
  8
Connecteurs
 62
0
 10
9.955
 20
8.46208348754
 30
0.0
 40
0.825
 50
-6.46029358648
 51
-0.0
  0
LINE
  8
Connecteurs
 62
0
 10
10.78
 20
9.275
 30
0.0
 11
10.78
 21
8.46208348754
 31
0.0
  0
ARC
  8
Connecteurs
 62
0
 10
10.905
 20
9.275
 30
0.0
 40
0.125
 50
89.9999990124
 51
-180.0
  0
ARC
  8
Connecteurs
 62
0
 10
10.905
 20
9.275
 30
0.0
 40
0.125
 50
-0.0
 51
89.9999990124
  0
LINE
  8
Connecteurs
 62
0
 10
11.03
 20
9.275
 30
0.0
 11
11.03
 21
8.46208348754
 31
0.0
  0
ARC
  8
Connecteurs
 62
0
 10
11.855
 20
8.46208348754
 30
0.0
 40
0.825
 50
180.0
 51
-173.539706414
  0
ARC
  8
Connecteurs
 62
0
 10
10.905
 20
8.8
 30
0.0
 40
0.45
 50
-73.1768052318
 51
0.0
  0
LINE
  8
Connecteurs
 62
0
 10
11.58
 20
8.8
 30
0.0
 11
11.58
 21
9.12958365434
 31
0.0
  0
ARC
  8
Connecteurs
 62
0
 10
11.855
 20
9.12958365434
 30
0.0
 40
0.275
 50
100.475681696
 51
180.0
  0
LINE
  8
Connecteurs
 62
0
 10
5.15
 20
8.8
 30
0.0
 11
5.15
 21
9.12958365434
 31
0.0
  0
ARC
  8
Connecteurs
 62
0
 10
5.825
 20
8.8
 30
0.0
 40
0.45
 50
180.0
 51
-106.823194768
  0
ARC
  8
Connecteurs
 62
0
 10
4.875
 20
8.46208348754
 30
0.0
 40
0.825
 50
-6.46029358648
 51
0.0
  0
LINE
  8
Connecteurs
 62
0
 10
5.7
 20
9.275
 30
0.0
 11
5.7
 21
8.46208348754
 31
0.0
  0
ARC
  8
Connecteurs
 62
0
 10
5.825
 20
9.275
 30
0.0
 40
0.125
 50
90.0
 51
-180.0
  0
ARC
  8
Connecteurs
 62
0
 10
4.875
 20
9.12958365434
 30
0.0
 40
0.275
 50
-0.0
 51
79.5243183036
  0
ARC
  8
Connecteurs
 62
0
 10
5.825
 20
9.275
 30
0.0
 40
0.125
 50
-0.0
 51
90.0
  0
LINE
  8
Connecteurs
 62
0
 10
5.95
 20
9.275
 30
0.0
 11
5.95
 21
8.46208348754
 31
0.0
  0
ARC
  8
Connecteurs
 62
0
 10
6.775
 20
8.46208348754
 30
0.0
 40
0.825
 50
-180.0
 51
-173.539706414
  0
LINE
  8
Connecteurs
 62
0
 10
6.5
 20
8.8
 30
0.0
 11
6.5
 21
9.12958365434
 31
0.0
  0
ARC
  8
Connecteurs
 62
0
 10
6.775
 20
9.12958365434
 30
0.0
 40
0.275
 50
100.475681696
 51
180.0
  0
ARC
  8
Connecteurs
 62
0
 10
6.145
 20
8.46208348754
 30
0.0
 40
0.825
 50
-6.46029358648
 51
0.0
  0
LINE
  8
Connecteurs
 62
0
 10
6.97
 20
9.275
 30
0.0
 11
6.97
 21
8.46208348754
 31
0.0
  0
ARC
  8
Connecteurs
 62
0
 10
7.095
 20
9.275
 30
0.0
 40
0.125
 50
89.9999991633
 51
-180.0
  0
ARC
  8
Connecteurs
 62
0
 10
7.095
 20
9.275
 30
0.0
 40
0.125
 50
-0.0
 51
89.9999991633
  0
LINE
  8
Connecteurs
 62
0
 10
7.22
 20
9.275
 30
0.0
 11
7.22
 21
8.46208348754
 31
0.0
  0
ARC
  8
Connecteurs
 62
0
 10
8.045
 20
8.46208348754
 30
0.0
 40
0.825
 50
-180.0
 51
-173.539706414
  0
LINE
  8
Connecteurs
 62
0
 10
7.69
 20
8.8
 30
0.0
 11
7.69
 21
9.12958365434
 31
0.0
  0
ARC
  8
Connecteurs
 62
0
 10
7.415
 20
8.46208348754
 30
0.0
 40
0.825
 50
-6.46029358648
 51
0.0
  0
LINE
  8
Connecteurs
 62
0
 10
8.24
 20
9.275
 30
0.0
 11
8.24
 21
8.46208348754
 31
0.0
  0
ARC
  8
Connecteurs
 62
0
 10
8.365
 20
9.275
 30
0.0
 40
0.125
 50
90.0
 51
-180.0
  0
ARC
  8
Connecteurs
 62
0
 10
7.415
 20
9.12958365434
 30
0.0
 40
0.275
 50
-0.0
 51
79.5243183036
  0
ARC
  8
Connecteurs
 62
0
 10
8.365
 20
9.275
 30
0.0
 40
0.125
 50
-0.0
 51
90.0
  0
LINE
  8
Connecteurs
 62
0
 10
8.49
 20
9.275
 30
0.0
 11
8.49
 21
8.46208348754
 31
0.0
  0
ARC
  8
Connecteurs
 62
0
 10
9.315
 20
8.46208348754
 30
0.0
 40
0.825
 50
180.0
 51
-173.539706414
  0
LINE
  8
Connecteurs
 62
0
 10
9.04
 20
8.8
 30
0.0
 11
9.04
 21
9.12958365434
 31
0.0
  0
ARC
  8
Connecteurs
 62
0
 10
9.315
 20
9.12958365434
 30
0.0
 40
0.275
 50
100.475681696
 51
180.0
  0
ARC
  8
Connecteurs
 62
0
 10
11.225
 20
8.46208348754
 30
0.0
 40
0.824999999999
 50
-6.46029358648
 51
0.0
  0
LINE
  8
Connecteurs
 62
0
 10
12.05
 20
9.275
 30
0.0
 11
12.05
 21
8.46208348754
 31
0.0
  0
ARC
  8
Connecteurs
 62
0
 10
12.175
 20
9.275
 30
0.0
 40
0.125
 50
90.0
 51
-180.0
  0
ARC
  8
Connecteurs
 62
0
 10
12.175
 20
9.275
 30
0.0
 40
0.125
 50
-0.0
 51
90.0
  0
LINE
  8
Connecteurs
 62
0
 10
12.3
 20
9.275
 30
0.0
 11
12.3
 21
8.46208348754
 31
0.0
  0
ARC
  8
Connecteurs
 62
0
 10
13.125
 20
8.46208348754
 30
0.0
 40
0.825
 50
180.0
 51
-173.539706414
  0
LINE
  8
Connecteurs
 62
0
 10
12.85
 20
8.8
 30
0.0
 11
12.85
 21
9.12958365434
 31
0.0
  0
ARC
  8
Connecteurs
 62
0
 10
13.125
 20
9.12958365434
 30
0.0
 40
0.275
 50
100.475681696
 51
180.0
  0
LINE
  8
Connecteurs
 62
0
 10
4.105
 20
9.12
 30
0.0
 11
4.425
 21
8.8
 31
0.0
  0
LINE
  8
Connecteurs
 62
0
 10
13.895
 20
12.4
 30
0.0
 11
13.895
 21
9.12
 31
0.0
  0
LINE
  8
Connecteurs
 62
0
 10
13.895
 20
9.12
 30
0.0
 11
13.575
 21
8.8
 31
0.0
  0
LINE
  8
Connecteurs
 62
0
 10
14.525
 20
12.4
 30
0.0
 11
14.525
 21
7.45
 31
0.0
  0
LINE
  8
Connecteurs
 62
0
 10
14.525
 20
12.4
 30
0.0
 11
14.325
 21
12.6
 31
0.0
  0
LINE
  8
Connecteurs
 62
0
 10
14.095
 20
12.6
 30
0.0
 11
14.325
 21
12.6
 31
0.0
  0
LINE
  8
Connecteurs
 62
0
 10
14.095
 20
12.6
 30
0.0
 11
13.895
 21
12.4
 31
0.0
  0
LINE
  8
Connecteurs
 62
0
 10
12.625
 20
8.8
 30
0.0
 11
13.575
 21
8.8
 31
0.0
  0
ARC
  8
Connecteurs
 62
0
 10
12.175
 20
8.8
 30
0.0
 40
0.45
 50
-180.0
 51
-0.0
  0
LINE
  8
Connecteurs
 62
0
 10
11.355
 20
8.8
 30
0.0
 11
11.725
 21
8.8
 31
0.0
  0
ARC
  8
Connecteurs
 62
0
 10
10.905
 20
8.8
 30
0.0
 40
0.45
 50
-180.0
 51
-0.0
  0
LINE
  8
Connecteurs
 62
0
 10
10.085
 20
8.8
 30
0.0
 11
10.455
 21
8.8
 31
0.0
  0
ARC
  8
Connecteurs
 62
0
 10
9.635
 20
8.8
 30
0.0
 40
0.45
 50
-180.0
 51
-0.0
  0
LINE
  8
Connecteurs
 62
0
 10
8.815
 20
8.8
 30
0.0
 11
9.185
 21
8.8
 31
0.0
  0
ARC
  8
Connecteurs
 62
0
 10
8.365
 20
8.8
 30
0.0
 40
0.45
 50
-180.0
 51
-0.0
  0
LINE
  8
Connecteurs
 62
0
 10
7.545
 20
8.8
 30
0.0
 11
7.915
 21
8.8
 31
0.0
  0
ARC
  8
Connecteurs
 62
0
 10
7.095
 20
8.8
 30
0.0
 40
0.45
 50
-180.0
 51
-0.0
  0
LINE
  8
Connecteurs
 62
0
 10
6.275
 20
8.8
 30
0.0
 11
6.645
 21
8.8
 31
0.0
  0
ARC
  8
Connecteurs
 62
0
 10
5.825
 20
8.8
 30
0.0
 40
0.45
 50
-180.0
 51
-0.0
  0
LINE
  8
Connecteurs
 62
0
 10
4.425
 20
8.8
 30
0.0
 11
5.375
 21
8.8
 31
0.0
  0
LINE
  8
Connecteurs
 62
0
 10
4.105
 20
12.4
 30
0.0
 11
3.905
 21
12.6
 31
0.0
  0
LINE
  8
Connecteurs
 62
0
 10
3.905
 20
12.6
 30
0.0
 11
3.675
 21
12.6
 31
0.0
  0
LINE
  8
Connecteurs
 62
0
 10
3.475
 20
12.4
 30
0.0
 11
3.675
 21
12.6
 31
0.0
  0
LINE
  8
Connecteurs
 62
0
 10
3.475
 20
12.4
 30
0.0
 11
3.475
 21
7.45
 31
0.0
  0
LINE
  8
Connecteurs
 62
0
 10
3.475
 20
7.45
 30
0.0
 11
14.525
 21
7.45
 31
0.0
  0
LINE
  8
Connecteurs
 62
0
 10
4.825
 20
8.8
 30
0.0
 11
4.425
 21
8.8
 31
0.0
  0
ARC
  8
Connecteurs
 62
0
 10
7.095
 20
8.8
 30
0.0
 40
0.45
 50
-106.823194768
 51
-73.1768052318
  0
ARC
  8
Connecteurs
 62
0
 10
12.175
 20
8.8
 30
0.0
 40
0.45
 50
-106.823194768
 51
-73.1768052318
  0
LINE
  8
Connecteurs
 62
0
 10
13.175
 20
8.8
 30
0.0
 11
13.575
 21
8.8
 31
0.0
  0
ARC
  8
Connecteurs
 62
0
 10
5.825
 20
8.8
 30
0.0
 40
0.45
 50
-90.0
 51
-73.1768051942
  0
ARC
  8
Connecteurs
 62
0
 10
5.825
 20
8.8
 30
0.0
 40
0.45
 50
-106.823194806
 51
-90.0
  0
LINE
  8
Connecteurs
 62
0
 10
4.825
 20
8.8
 30
0.0
 11
4.825
 21
9.35
 31
0.0
  0
LINE
  8
Connecteurs
 62
0
 10
13.175
 20
9.35
 30
0.0
 11
13.175
 21
8.8
 31
0.0
  0
LINE
  8
Connecteurs
 62
0
 10
13.175
 20
9.35
 30
0.0
 11
13.225
 21
9.35
 31
0.0
  0
LINE
  8
Connecteurs
 62
0
 10
4.825
 20
9.35
 30
0.0
 11
4.775
 21
9.35
 31
0.0
  0
LINE
  8
Connecteurs
 62
0
 10
4.775
 20
12.725
 30
0.0
 11
4.175
 21
12.725
 31
0.0
  0
ENDBLK
  0
BLOCK
  8
Impeller_5.0.0
  2
CLONE034
 70
0
 10
0.0
 20
0.0
 30
0.0
  3
CLONE034
  0
CIRCLE
  8
Impeller_5.0.0
 62
0
 10
-3.79641e-15
 20
-25.0
 30
0.0
 40
16.0
  0
CIRCLE
  8
Impeller_5.0.0
 62
0
 10
-3.79641e-15
 20
-25.0
 30
0.0
 40
6.875
  0
ENDBLK
  0
BLOCK
  8
Impeller_5.0.0
  2
PART__MIRRORING001
 70
0
 10
0.0
 20
0.0
 30
0.0
  3
PART__MIRRORING001
  0
CIRCLE
  8
Impeller_5.0.0
 62
0
 10
3.79641e-15
 20
25.0
 30
0.0
 40
16.0
  0
CIRCLE
  8
Impeller_5.0.0
 62
0
 10
3.79641e-15
 20
25.0
 30
0.0
 40
6.875
  0
ENDBLK
  0
ENDSEC
  0
SECTION
  2
ENTITIES
  0
INSERT
  2
PAD035
  8
Base
 62
0
 10
0.0
 20
0.0
 30
0.0
  0
INSERT
  2
PAD040
  8
Caches
 62
0
 10
0.0
 20
0.0
 30
0.0
  0
INSERT
  2
CLONE094
  8
Connecteurs
 62
0
 10
0.0
 20
0.0
 30
0.0
  0
INSERT
  2
CLONE096
  8
Connecteurs
 62
0
 10
0.0
 20
0.0
 30
0.0
  0
INSERT
  2
CLONE097
  8
Connecteurs
 62
0
 10
0.0
 20
0.0
 30
0.0
  0
INSERT
  2
CLONE034
  8
Impeller_5.0.0
 62
0
 10
0.0
 20
0.0
 30
0.0
  0
INSERT
  2
PART__MIRRORING001
  8
Impeller_5.0.0
 62
0
 10
0.0
 20
0.0
 30
0.0
  0
ENDSEC
  0
EOF
